# This file uses centimeters as units for non-parametric coordinates.

v 0.000000 99.999390 -7.951751
v -0.098344 111.850311 9.143833
v 8.849929 101.774422 -7.377388
v 7.505132 111.080589 7.464701
v 8.207430 109.173691 5.604308
v 10.316321 108.006683 -2.541184
v 9.921874 107.201218 1.083695
v 10.127711 106.195000 -4.049474
v 9.406256 101.016235 -2.069389
v 9.506121 103.895485 1.538242
v 8.466838 104.609200 5.486710
v 0.000000 108.563004 -11.216293
v -1.790238 121.288803 -4.892920
v 0.000000 100.731239 -9.167968
v 1.028153 120.123077 4.695423
v 9.956423 116.069077 -4.348323
v 9.640512 107.198730 -8.772009
v 9.127535 102.586914 -8.186065
v 10.513240 115.463814 5.025585
v 8.146493 113.234856 8.805587
v 9.963819 108.931419 5.117386
v 10.859236 107.796928 1.397424
v 11.232890 108.733009 -2.806870
v 10.969178 106.579987 -4.709662
v 10.406509 101.854744 -2.889125
v 9.567106 105.550072 4.365036
v 10.169174 105.210579 1.993029
v -8.849929 101.801277 -7.377372
v -7.520796 110.845169 7.534442
v -8.112674 109.371803 5.430902
v -10.436015 107.904335 -2.604975
v -9.947325 107.052383 1.080118
v -10.217069 106.449173 -4.163454
v -9.406256 101.049255 -2.069389
v -9.530891 104.105614 1.537103
v -8.333853 104.643738 5.330114
v -10.178220 116.626427 -4.511568
v -9.695330 107.505287 -8.901558
v -9.127535 102.626945 -8.186065
v -10.460878 115.795670 3.487467
v -8.020872 113.075706 8.450674
v -9.909448 109.269379 5.028660
v -10.898367 107.680466 1.394472
v -11.383568 108.663307 -2.883935
v -11.081264 106.843010 -4.840578
v -10.406509 101.903000 -2.889125
v -9.542012 105.805801 4.317214
v -10.219254 105.490562 1.993289
v -3.247730 112.489166 7.125612
v -3.484070 115.922882 7.965002
v -3.662770 119.898186 5.123907
v -2.903434 120.119965 -4.887675
v -4.074419 108.157013 -10.451813
v -3.857617 102.029297 -9.332366
v -3.741901 101.258102 -8.062446
v 4.741348 114.822105 10.135440
v 0.000000 98.032104 -6.418792
v 0.000000 98.453979 -7.938285
v 8.648567 100.613525 -6.081291
v 8.366831 99.959473 -3.724468
v -3.857617 99.287354 -7.640380
v -3.741901 98.874878 -6.057273
v -8.366831 99.967560 -3.724468
v -8.648567 100.623108 -6.081291
v 7.300834 99.269043 -6.721427
v 6.427775 98.721436 -5.271087
v -7.601441 99.734131 -6.914260
v -6.778563 99.206177 -5.669052
v -5.241932 120.485008 -4.548588
v -4.891563 118.768730 5.088670
v -4.438203 115.969482 8.157574
v 6.557088 117.616592 7.183074
v 6.485002 118.153252 -4.754649
v 4.911125 108.520355 -10.726880
v 5.135095 112.686584 10.572327
v 4.896478 110.964111 8.542130
v -0.092715 107.600555 0.925546
v -6.121008 112.851563 11.378533
v -3.712195 115.035477 11.347076
v -4.625361 116.829575 9.129647
v -7.788271 114.935959 8.802393
v -5.873427 111.548386 10.685864
v -2.880904 113.600311 10.543810
v -2.855231 110.073814 12.383522
v -1.052023 110.886780 12.382447
v -1.354445 111.323761 13.209665
v -2.865243 110.461380 13.042718
v 4.769791 112.135841 11.774869
v -0.413634 119.537910 10.826796
v 1.274585 111.246170 12.657999
v -2.010739 112.598244 12.577532
v -1.967793 114.053902 12.905958
v -2.886659 118.876694 10.854568
v 6.236189 109.684196 12.394681
v 2.036673 113.868126 14.655763
v 5.601615 108.926239 14.311118
v 5.333020 107.735397 13.160364
v 1.440627 109.146927 13.744448
v 1.475549 110.252747 14.750302
v 0.251171 113.077011 14.293604
v 11.014497 111.442886 7.496993
v 9.330745 110.020164 8.961072
v 7.853858 111.726479 11.764516
v 9.500267 112.743973 9.659569
v 7.663892 109.853760 10.449730
v 11.667539 108.143845 7.542899
v 10.882692 107.517120 8.123409
v 10.587171 108.333252 9.689550
v 11.220701 108.783760 8.755096
v 10.194904 107.547256 8.898159
v -1.165655 120.581833 -0.979140
v 3.973785 119.200394 -0.419763
v 6.835461 118.356995 0.782059
v 10.474582 116.402672 -1.616038
v 3.284735 118.501785 -4.820099
v 2.830566 120.925102 1.229930
v 5.825497 119.564651 6.799761
v 6.167969 121.047806 2.146752
v 10.149522 117.649284 5.332003
v 13.653388 114.850571 5.870835
v 10.876189 115.832420 7.760585
v 13.020126 116.478470 6.049474
v 9.831518 117.457458 7.544777
v -3.136213 120.542564 -1.064999
v -10.415952 116.287003 -1.175025
v -6.385179 120.194458 3.763961
v -9.333870 118.931915 0.236631
v -7.458401 117.340256 5.894574
v -8.227637 119.213570 5.685579
v -10.801000 118.538475 3.085957
v -10.937953 113.985680 6.329957
v -9.681065 114.698723 7.069958
v -10.205350 115.879166 7.618130
v -10.971446 115.599968 7.340590
v 0.761432 120.552444 1.592825
v -0.036110 121.201195 1.575028
v -0.427013 121.128532 4.760561
v 1.973507 121.248718 4.783532
v 1.727797 123.156975 2.482404
v 1.032606 123.108696 2.472998
v 0.856809 123.048164 3.863792
v 2.003294 123.041466 3.867041
v 1.064675 120.441261 3.091525
v -12.298280 108.915199 1.580664
v -11.999397 109.046867 3.919994
v 12.048538 108.857498 1.797555
v 11.410255 109.567795 4.478561
v 1.430243 115.559837 -10.233283
v 5.596424 115.335167 -9.840664
v 9.778067 113.310051 -8.191207
v -4.562225 116.052101 -9.827076
v -9.897090 113.614670 -8.456889
v -3.573871 115.976593 -9.927534
v -0.639518 115.862862 -10.875563
vt 0.050356 0.198441
vt 0.050356 0.198441
vt 0.050356 0.198441
vt 0.050356 0.198441
vt 0.050356 0.198441
vt 0.050356 0.198441
vt 0.050356 0.198441
vt 0.050356 0.198441
vt 0.050356 0.198441
vt 0.050356 0.198441
vt 0.050356 0.198441
vt 0.050356 0.198441
vt 0.050356 0.198441
vt 0.050356 0.198441
vt 0.050356 0.198441
vt 0.050356 0.198441
vt 0.050356 0.198441
vt 0.050356 0.198441
vt 0.050356 0.198441
vt 0.050356 0.198441
vt 0.050356 0.198441
vt 0.050356 0.198441
vt 0.050356 0.198441
vt 0.050356 0.198441
vt 0.050356 0.198441
vt 0.050356 0.198441
vt 0.050356 0.198441
vt 0.050356 0.198441
vt 0.050356 0.198441
vt 0.050356 0.198441
vt 0.050356 0.198441
vt 0.050356 0.198441
vt 0.050356 0.198441
vt 0.050356 0.198441
vt 0.050356 0.198441
vt 0.050356 0.198441
vt 0.050356 0.198441
vt 0.050356 0.198441
vt 0.050356 0.198441
vt 0.050356 0.198441
vt 0.050356 0.198441
vt 0.050356 0.198441
vt 0.050356 0.198441
vt 0.050356 0.198441
vt 0.050356 0.198441
vt 0.050356 0.198441
vt 0.050356 0.198441
vt 0.050356 0.198441
vt 0.050356 0.198441
vt 0.050356 0.198441
vt 0.050356 0.198441
vt 0.050356 0.198441
vt 0.050356 0.198441
vt 0.050356 0.198441
vt 0.050356 0.198441
vt 0.050356 0.198441
vt 0.050356 0.198441
vt 0.050356 0.198441
vt 0.050356 0.198441
vt 0.050356 0.198441
vt 0.050356 0.198441
vt 0.050356 0.198441
vt 0.050356 0.198441
vt 0.050356 0.198441
vt 0.050356 0.198441
vt 0.050356 0.198441
vt 0.050356 0.198441
vt 0.050356 0.198441
vt 0.050356 0.198441
vt 0.050356 0.198441
vt 0.050356 0.198441
vt 0.050356 0.198441
vt 0.050356 0.198441
vt 0.050356 0.198441
vt 0.050356 0.198441
vt 0.050356 0.198441
vt 0.050356 0.198441
vt 0.050356 0.198441
vt 0.050356 0.198441
vt 0.050356 0.198441
vt 0.050356 0.198441
vt 0.050356 0.198441
vt 0.050356 0.198441
vt 0.050356 0.198441
vt 0.050356 0.198441
vt 0.050356 0.198441
vt 0.050356 0.198441
vt 0.050356 0.198441
vt 0.050356 0.198441
vt 0.050356 0.198441
vt 0.050356 0.198441
vt 0.050356 0.198441
vt 0.050356 0.198441
vt 0.050356 0.198441
vt 0.050356 0.198441
vt 0.050356 0.198441
vt 0.050356 0.198441
vt 0.050356 0.198441
vt 0.050356 0.198441
vt 0.050356 0.198441
vt 0.050356 0.198441
vt 0.050356 0.198441
vt 0.050356 0.198441
vt 0.050356 0.198441
vt 0.050356 0.198441
vt 0.050356 0.198441
vt 0.050356 0.198441
vt 0.050356 0.198441
vt 0.050356 0.198441
vt 0.050356 0.198441
vt 0.050356 0.198441
vt 0.050356 0.198441
vt 0.050356 0.198441
vt 0.050356 0.198441
vt 0.050356 0.198441
vt 0.050356 0.198441
vt 0.050356 0.198441
vt 0.050356 0.198441
vt 0.050356 0.198441
vt 0.050356 0.198441
vt 0.050356 0.198441
vt 0.050356 0.198441
vt 0.050356 0.198441
vt 0.050356 0.198441
vt 0.050356 0.198441
vt 0.050356 0.198441
vt 0.050356 0.198441
vt 0.050356 0.198441
vt 0.050356 0.198441
vt 0.050356 0.198441
vt 0.050356 0.198441
vt 0.050356 0.198441
vt 0.050356 0.198441
vt 0.050356 0.198441
vt 0.050356 0.198441
vt 0.050356 0.198441
vt 0.050356 0.198441
vt 0.050356 0.198441
vt 0.050356 0.198441
vt 0.050356 0.198441
vt 0.050356 0.198441
vt 0.050356 0.198441
vt 0.050356 0.198441
vt 0.050356 0.198441
vt 0.050356 0.198441
vt 0.050356 0.198441
vt 0.050356 0.198441
vt 0.050356 0.198441
vt 0.050356 0.198441
vt 0.050356 0.198441
vt 0.050356 0.198441
vt 0.050356 0.198441
vt 0.050356 0.198441
vt 0.050356 0.198441
vt 0.050356 0.198441
vt 0.050356 0.198441
vt 0.050356 0.198441
vt 0.050356 0.198441
vt 0.050356 0.198441
vt 0.050356 0.198441
vt 0.050356 0.198441
vt 0.050356 0.198441
vt 0.050356 0.198441
vt 0.050356 0.198441
vt 0.050356 0.198441
vt 0.050356 0.198441
vt 0.050356 0.198441
vt 0.050356 0.198441
vt 0.050356 0.198441
vt 0.050356 0.198441
vt 0.050356 0.198441
vt 0.050356 0.198441
vt 0.050356 0.198441
vt 0.050356 0.198441
vt 0.050356 0.198441
vt 0.050356 0.198441
vt 0.050356 0.198441
vt 0.050356 0.198441
vt 0.050356 0.198441
vt 0.050356 0.198441
vt 0.050356 0.198441
vt 0.050356 0.198441
vt 0.050356 0.198441
vt 0.050356 0.198441
vt 0.050356 0.198441
vt 0.050356 0.198441
vt 0.050356 0.198441
vt 0.050356 0.198441
vt 0.050356 0.198441
vt 0.050356 0.198441
vt 0.050356 0.198441
vt 0.050356 0.198441
vt 0.050356 0.198441
vt 0.050356 0.198441
vt 0.050356 0.198441
vt 0.050356 0.198441
vt 0.050356 0.198441
vt 0.050356 0.198441
vt 0.050356 0.198441
vt 0.050356 0.198441
vt 0.050356 0.198441
vt 0.050356 0.198441
vt 0.050356 0.198441
vt 0.050356 0.198441
vt 0.050356 0.198441
vt 0.050356 0.198441
vt 0.050356 0.198441
vt 0.050356 0.198441
vt 0.050356 0.198441
vt 0.050356 0.198441
vt 0.050356 0.198441
vt 0.050356 0.198441
vt 0.050356 0.198441
vt 0.050356 0.198441
vt 0.050356 0.198441
vt 0.050356 0.198441
vt 0.050356 0.198441
vt 0.050356 0.198441
vt 0.050356 0.198441
vt 0.050356 0.198441
vt 0.050356 0.198441
vt 0.050356 0.198441
vt 0.050356 0.198441
vt 0.050356 0.198441
vt 0.050356 0.198441
vt 0.050356 0.198441
vt 0.050356 0.198441
vt 0.050356 0.198441
vt 0.050356 0.198441
vt 0.050356 0.198441
vt 0.050356 0.198441
vt 0.050356 0.198441
vt 0.050356 0.198441
vt 0.050356 0.198441
vt 0.050356 0.198441
vt 0.050356 0.198441
vt 0.050356 0.198441
vt 0.050356 0.198441
vt 0.050356 0.198441
vt 0.050356 0.198441
vt 0.050356 0.198441
vt 0.050356 0.198441
vt 0.050356 0.198441
vt 0.050356 0.198441
vt 0.050356 0.198441
vt 0.050356 0.198441
vt 0.050356 0.198441
vt 0.050356 0.198441
vt 0.050356 0.198441
vt 0.050356 0.198441
vn 0.305098 0.071056 -0.949666
vn 0.305098 0.071056 -0.949666
vn 0.305098 0.071056 -0.949666
vn 0.093799 -0.251914 -0.963193
vn 0.093799 -0.251914 -0.963193
vn 0.093799 -0.251914 -0.963193
vn 0.380318 0.922962 -0.059162
vn 0.380318 0.922962 -0.059162
vn 0.380318 0.922962 -0.059162
vn 0.380318 0.922962 -0.059162
vn 0.740919 0.503482 0.444460
vn 0.740919 0.503482 0.444460
vn 0.740919 0.503482 0.444460
vn 0.862669 -0.065509 0.501509
vn 0.862669 -0.065509 0.501509
vn 0.862669 -0.065509 0.501509
vn 0.971797 0.129568 0.197035
vn 0.971797 0.129568 0.197035
vn 0.971797 0.129568 0.197035
vn 0.971568 0.127077 -0.199766
vn 0.971568 0.127077 -0.199766
vn 0.971568 0.127077 -0.199766
vn 0.963487 0.033069 -0.265705
vn 0.963487 0.033069 -0.265705
vn 0.963487 0.033069 -0.265705
vn 0.963487 0.033069 -0.265705
vn 0.939988 -0.182580 -0.288249
vn 0.939988 -0.182580 -0.288249
vn 0.939988 -0.182580 -0.288249
vn 0.939988 -0.182580 -0.288249
vn 0.944439 -0.179228 0.275520
vn 0.944439 -0.179228 0.275520
vn 0.944440 -0.179228 0.275520
vn 0.944440 -0.179228 0.275520
vn 0.150244 -0.952022 -0.266610
vn 0.150244 -0.952022 -0.266610
vn 0.150244 -0.952022 -0.266610
vn 0.150244 -0.952022 -0.266610
vn 0.918085 -0.362352 0.160689
vn 0.918085 -0.362352 0.160689
vn 0.918085 -0.362352 0.160689
vn 0.207231 -0.603702 0.769805
vn 0.207231 -0.603702 0.769805
vn 0.207231 -0.603702 0.769805
vn 0.207231 -0.603702 0.769805
vn 0.578319 -0.806535 -0.122672
vn 0.578319 -0.806535 -0.122672
vn 0.578319 -0.806535 -0.122672
vn 0.578319 -0.806535 -0.122672
vn 0.633655 -0.544825 0.549224
vn 0.633655 -0.544825 0.549224
vn 0.633655 -0.544825 0.549224
vn 0.633655 -0.544825 0.549224
vn 0.692294 -0.719237 -0.058548
vn 0.692294 -0.719237 -0.058548
vn 0.692294 -0.719237 -0.058548
vn 0.692294 -0.719237 -0.058548
vn 0.497866 0.253694 0.829319
vn 0.497866 0.253694 0.829319
vn 0.497866 0.253694 0.829318
vn 0.497866 0.253694 0.829318
vn 0.793206 -0.532852 0.294777
vn 0.793206 -0.532852 0.294777
vn 0.793206 -0.532852 0.294777
vn 0.793206 -0.532852 0.294777
vn 0.506986 -0.102463 0.855843
vn 0.506986 -0.102463 0.855843
vn 0.506986 -0.102463 0.855843
vn 0.506986 -0.102463 0.855843
vn 0.645015 -0.249773 -0.722198
vn 0.645015 -0.249773 -0.722198
vn 0.645015 -0.249773 -0.722198
vn 0.645015 -0.249773 -0.722198
vn -0.095358 0.072667 -0.992787
vn -0.095358 0.072667 -0.992787
vn -0.095358 0.072667 -0.992787
vn -0.235760 -0.176145 -0.955715
vn -0.235760 -0.176145 -0.955715
vn -0.235760 -0.176145 -0.955715
vn -0.235760 -0.176145 -0.955715
vn -0.069185 0.997282 0.025343
vn -0.069185 0.997282 0.025343
vn -0.069185 0.997282 0.025343
vn -0.255188 0.621993 0.740273
vn -0.255188 0.621993 0.740273
vn -0.255188 0.621993 0.740273
vn -0.255188 0.621993 0.740273
vn -0.889826 0.032302 0.455156
vn -0.889826 0.032302 0.455156
vn -0.889826 0.032302 0.455156
vn -0.967421 0.227643 0.110790
vn -0.967422 0.227643 0.110790
vn -0.967422 0.227643 0.110790
vn -0.967188 0.253464 0.017390
vn -0.967188 0.253464 0.017390
vn -0.967188 0.253464 0.017390
vn -0.980526 0.116033 -0.158444
vn -0.980526 0.116033 -0.158444
vn -0.980526 0.116033 -0.158444
vn -0.934478 -0.198535 -0.295526
vn -0.934478 -0.198535 -0.295526
vn -0.934478 -0.198535 -0.295526
vn -0.934478 -0.198535 -0.295526
vn -0.931252 -0.178716 0.317537
vn -0.931252 -0.178716 0.317537
vn -0.931252 -0.178716 0.317537
vn -0.931252 -0.178716 0.317537
vn -0.590185 -0.803005 -0.082849
vn -0.590185 -0.803005 -0.082849
vn -0.590185 -0.803005 -0.082849
vn -0.590185 -0.803005 -0.082849
vn 0.182510 -0.221603 0.957905
vn 0.182510 -0.221603 0.957905
vn 0.182510 -0.221603 0.957905
vn -0.375643 -0.580008 0.722830
vn -0.375643 -0.580008 0.722830
vn -0.375643 -0.580008 0.722830
vn -0.375643 -0.580008 0.722830
vn -0.587518 -0.801315 -0.112771
vn -0.587518 -0.801315 -0.112771
vn -0.587518 -0.801315 -0.112771
vn -0.587518 -0.801315 -0.112771
vn -0.699285 -0.712617 -0.056374
vn -0.699285 -0.712617 -0.056374
vn -0.699285 -0.712617 -0.056374
vn -0.699285 -0.712617 -0.056374
vn -0.496845 0.253368 0.830030
vn -0.496845 0.253368 0.830030
vn -0.496845 0.253368 0.830030
vn -0.496845 0.253368 0.830030
vn -0.792820 -0.521343 0.315656
vn -0.792820 -0.521343 0.315656
vn -0.792820 -0.521343 0.315656
vn -0.792820 -0.521343 0.315656
vn -0.451601 -0.096017 0.887039
vn -0.451601 -0.096017 0.887039
vn -0.451601 -0.096017 0.887039
vn -0.451601 -0.096017 0.887039
vn -0.670679 -0.283894 -0.685270
vn -0.670679 -0.283894 -0.685270
vn -0.670679 -0.283894 -0.685270
vn -0.670679 -0.283894 -0.685270
vn -0.135040 -0.668718 0.731150
vn -0.135040 -0.668718 0.731150
vn -0.135040 -0.668718 0.731150
vn -0.135040 -0.668718 0.731150
vn 0.015179 0.023783 0.999602
vn 0.015179 0.023783 0.999602
vn 0.015179 0.023783 0.999602
vn 0.015179 0.023783 0.999602
vn -0.022966 0.997679 0.064103
vn -0.022966 0.997679 0.064103
vn -0.022966 0.997679 0.064103
vn -0.022966 0.997679 0.064103
vn -0.239114 0.053271 -0.969529
vn -0.239114 0.053271 -0.969529
vn -0.239114 0.053271 -0.969529
vn -0.239114 0.053271 -0.969529
vn -0.098326 -0.221679 -0.970150
vn -0.098326 -0.221679 -0.970150
vn -0.098326 -0.221679 -0.970150
vn -0.098326 -0.221679 -0.970150
vn -0.229038 -0.942128 -0.244820
vn -0.229038 -0.942128 -0.244820
vn -0.229038 -0.942128 -0.244820
vn -0.229038 -0.942128 -0.244820
vn 0.735196 -0.534292 0.417155
vn 0.735196 -0.534292 0.417155
vn 0.735196 -0.534292 0.417155
vn 0.402661 -0.650971 0.643507
vn 0.402661 -0.650971 0.643507
vn 0.402661 -0.650971 0.643507
vn 0.402661 -0.650971 0.643507
vn 0.192242 -0.476012 -0.858170
vn 0.192242 -0.476012 -0.858170
vn 0.192242 -0.476012 -0.858170
vn 0.192242 -0.476012 -0.858170
vn -0.287569 0.672140 0.682298
vn -0.287569 0.672140 0.682298
vn -0.287569 0.672140 0.682298
vn -0.287569 0.672140 0.682299
vn -0.287569 0.672140 0.682298
vn 0.830937 -0.487550 -0.268028
vn 0.830937 -0.487550 -0.268028
vn 0.830937 -0.487550 -0.268028
vn -0.819618 0.548847 0.164299
vn -0.819618 0.548847 0.164299
vn -0.819618 0.548847 0.164299
vn 0.317819 0.686129 0.654384
vn 0.317819 0.686129 0.654384
vn 0.317819 0.686129 0.654384
vn 0.317819 0.686129 0.654384
vn 0.317819 0.686129 0.654384
vn -0.752974 -0.553618 -0.355722
vn -0.752974 -0.553618 -0.355722
vn -0.752974 -0.553618 -0.355722
vn 0.824202 0.542268 0.163210
vn 0.824202 0.542267 0.163210
vn 0.824202 0.542268 0.163210
vn -0.835272 -0.480466 -0.267345
vn -0.835272 -0.480466 -0.267345
vn -0.835272 -0.480466 -0.267345
vn 0.199108 0.618318 0.760288
vn 0.199108 0.618318 0.760288
vn 0.199108 0.618318 0.760288
vn 0.199108 0.618318 0.760288
vn -0.152144 -0.497218 -0.854182
vn -0.152144 -0.497218 -0.854182
vn -0.152144 -0.497218 -0.854181
vn -0.152144 -0.497218 -0.854182
vn 0.738766 -0.567337 -0.363804
vn 0.738766 -0.567337 -0.363804
vn 0.738766 -0.567337 -0.363804
vn 0.637214 -0.769097 -0.049472
vn 0.637214 -0.769097 -0.049472
vn 0.637214 -0.769097 -0.049472
vn 0.637214 -0.769097 -0.049472
vn -0.231289 -0.501224 -0.833835
vn -0.231289 -0.501224 -0.833835
vn -0.231289 -0.501224 -0.833835
vn -0.231289 -0.501224 -0.833835
vn -0.152901 -0.951840 -0.265749
vn -0.152901 -0.951840 -0.265749
vn -0.152901 -0.951840 -0.265749
vn -0.152901 -0.951840 -0.265749
vn -0.481968 0.656601 -0.580157
vn -0.481968 0.656601 -0.580157
vn -0.481968 0.656600 -0.580157
vn -0.481968 0.656601 -0.580157
vn -0.374186 0.927158 -0.019054
vn -0.374186 0.927158 -0.019054
vn -0.374187 0.927158 -0.019054
vn -0.447971 0.561667 0.695595
vn -0.447971 0.561667 0.695595
vn -0.447971 0.561667 0.695595
vn -0.447971 0.561667 0.695595
vn 0.367919 -0.778176 0.508997
vn 0.367919 -0.778176 0.508997
vn 0.367919 -0.778176 0.508997
vn 0.367919 -0.778176 0.508997
vn -0.186197 -0.381427 0.905453
vn -0.186197 -0.381427 0.905453
vn -0.186197 -0.381427 0.905453
vn -0.186197 -0.381427 0.905453
vn 0.852798 -0.261202 0.452228
vn 0.852798 -0.261202 0.452228
vn 0.852798 -0.261202 0.452228
vn 0.468411 0.877104 -0.106202
vn 0.468411 0.877104 -0.106202
vn 0.468411 0.877104 -0.106202
vn 0.468411 0.877104 -0.106202
vn 0.398948 0.078293 -0.913625
vn 0.398948 0.078293 -0.913625
vn 0.398948 0.078293 -0.913625
vn 0.398948 0.078293 -0.913625
vn 0.209871 -0.255049 -0.943877
vn 0.209871 -0.255049 -0.943877
vn 0.209871 -0.255049 -0.943877
vn 0.209871 -0.255049 -0.943877
vn 0.500437 -0.725483 0.472480
vn 0.500437 -0.725483 0.472480
vn 0.500437 -0.725483 0.472480
vn 0.109324 -0.754475 0.647159
vn 0.109324 -0.754475 0.647159
vn 0.109324 -0.754475 0.647159
vn -0.231038 -0.721693 0.652518
vn -0.231038 -0.721693 0.652518
vn -0.231038 -0.721693 0.652518
vn -0.035388 -0.974757 -0.220445
vn -0.035388 -0.974757 -0.220445
vn -0.035388 -0.974757 -0.220445
vn 0.266766 -0.632888 0.726834
vn 0.266766 -0.632888 0.726834
vn 0.266766 -0.632888 0.726834
vn -0.580512 -0.812379 -0.055194
vn -0.580512 -0.812379 -0.055194
vn -0.580512 -0.812379 -0.055194
vn 0.451264 0.263163 0.852705
vn 0.451264 0.263163 0.852705
vn 0.451264 0.263163 0.852705
vn -0.363169 -0.928913 0.072318
vn -0.363169 -0.928913 0.072318
vn -0.363169 -0.928913 0.072318
vn -0.483233 -0.049982 0.874064
vn -0.483233 -0.049982 0.874064
vn -0.483233 -0.049982 0.874064
vn 0.010159 -0.137467 -0.990454
vn 0.010159 -0.137467 -0.990454
vn 0.010159 -0.137467 -0.990454
vn -0.265320 -0.733736 0.625489
vn -0.265320 -0.733736 0.625489
vn -0.265320 -0.733736 0.625489
vn 0.318650 -0.658744 0.681556
vn 0.318650 -0.658744 0.681556
vn 0.318650 -0.658744 0.681556
vn 0.123539 -0.828793 0.545747
vn 0.123539 -0.828793 0.545747
vn 0.123539 -0.828793 0.545747
vn 0.050417 -0.971574 -0.231304
vn 0.050417 -0.971574 -0.231304
vn 0.050417 -0.971574 -0.231304
vn -0.241144 -0.726013 0.644014
vn -0.241144 -0.726013 0.644014
vn -0.241144 -0.726013 0.644014
vn 0.585902 -0.808637 -0.053156
vn 0.585902 -0.808636 -0.053156
vn 0.585902 -0.808637 -0.053156
vn -0.457068 0.261092 0.850247
vn -0.457068 0.261092 0.850247
vn -0.457068 0.261092 0.850247
vn 0.348472 -0.937038 0.022964
vn 0.348472 -0.937038 0.022964
vn 0.348472 -0.937038 0.022964
vn 0.482426 -0.041220 0.874966
vn 0.482426 -0.041220 0.874966
vn 0.482426 -0.041220 0.874966
vn -0.006920 -0.154200 -0.988015
vn -0.006920 -0.154200 -0.988015
vn -0.006920 -0.154200 -0.988015
vn -0.428615 -0.802656 0.414767
vn -0.428615 -0.802656 0.414767
vn -0.428615 -0.802657 0.414767
vn -0.009044 -0.815288 0.578986
vn -0.009044 -0.815288 0.578986
vn -0.009044 -0.815288 0.578986
vn 0.167567 -0.937710 0.304338
vn 0.167567 -0.937710 0.304338
vn 0.167567 -0.937710 0.304338
vn -0.101747 -0.883685 0.456890
vn -0.101747 -0.883685 0.456890
vn -0.101747 -0.883685 0.456890
vn 0.967925 0.248941 -0.033902
vn 0.967925 0.248941 -0.033902
vn 0.967925 0.248941 -0.033902
vn 0.967925 0.248941 -0.033902
vn -0.512498 0.765084 0.389861
vn -0.512498 0.765084 0.389861
vn -0.512498 0.765084 0.389861
vn -0.512498 0.765084 0.389861
vn -0.873376 0.017176 0.486744
vn -0.873376 0.017176 0.486744
vn -0.873376 0.017176 0.486744
vn -0.873376 0.017176 0.486744
vn 0.457190 -0.883294 0.103771
vn 0.457190 -0.883294 0.103771
vn 0.457190 -0.883294 0.103771
vn 0.457190 -0.883294 0.103771
vn 0.890842 0.425677 -0.158747
vn 0.890842 0.425677 -0.158747
vn 0.890842 0.425677 -0.158747
vn 0.890842 0.425677 -0.158747
vn -0.782650 -0.387415 0.487204
vn -0.782650 -0.387415 0.487204
vn -0.782650 -0.387415 0.487204
vn -0.782650 -0.387415 0.487204
vn 0.241597 -0.447442 -0.861061
vn 0.241597 -0.447442 -0.861061
vn 0.241597 -0.447443 -0.861061
vn 0.241597 -0.447443 -0.861061
vn 0.844539 0.534820 -0.026864
vn 0.844539 0.534820 -0.026864
vn 0.844539 0.534820 -0.026864
vn 0.844539 0.534820 -0.026864
vn -0.259569 0.293055 0.920187
vn -0.259569 0.293055 0.920186
vn -0.259569 0.293055 0.920187
vn -0.259569 0.293055 0.920186
vn -0.631109 -0.540793 0.556097
vn -0.631109 -0.540793 0.556097
vn -0.631109 -0.540793 0.556097
vn -0.631109 -0.540793 0.556097
vn 0.015520 0.721390 0.692355
vn 0.015520 0.721390 0.692355
vn 0.015520 0.721390 0.692355
vn 0.615229 0.597051 0.514804
vn 0.669043 0.691361 0.272766
vn 0.511242 0.451658 0.731188
vn 0.351536 -0.742777 -0.569829
vn 0.351536 -0.742777 -0.569829
vn 0.351536 -0.742777 -0.569829
vn 0.351536 -0.742776 -0.569829
vn -0.966122 -0.095484 0.239775
vn -0.966122 -0.095484 0.239775
vn -0.966122 -0.095484 0.239775
vn -0.966122 -0.095484 0.239775
vn -0.306264 -0.951242 0.036628
vn -0.306264 -0.951242 0.036628
vn -0.306264 -0.951242 0.036628
vn -0.306264 -0.951242 0.036628
vn -0.978017 -0.006099 0.208438
vn -0.978017 -0.006099 0.208438
vn -0.978017 -0.006099 0.208438
vn -0.978017 -0.006099 0.208438
vn -0.113784 0.985345 0.127079
vn -0.113784 0.985345 0.127079
vn -0.113784 0.985345 0.127079
vn -0.113784 0.985345 0.127079
vn 0.743811 0.555578 0.371589
vn 0.740802 0.565243 0.362922
vn 0.741318 0.563622 0.364387
vn -0.148689 -0.314245 -0.937625
vn -0.148689 -0.314245 -0.937625
vn -0.148689 -0.314245 -0.937625
vn -0.148689 -0.314245 -0.937625
vn -0.650376 -0.335284 0.681613
vn -0.650376 -0.335284 0.681613
vn -0.650376 -0.335284 0.681613
vn -0.650376 -0.335284 0.681613
vn -0.237567 -0.461229 -0.854886
vn -0.237567 -0.461229 -0.854886
vn -0.237567 -0.461229 -0.854886
vn -0.237567 -0.461229 -0.854886
vn -0.525828 0.013678 0.850481
vn -0.429865 0.254226 0.866363
vn -0.561572 -0.110862 0.819967
vn -0.219529 0.443646 0.868899
vn -0.219529 0.443646 0.868899
vn -0.219529 0.443646 0.868899
vn -0.219529 0.443646 0.868899
vn -0.573860 -0.394275 -0.717797
vn -0.573860 -0.394275 -0.717797
vn -0.573860 -0.394275 -0.717797
vn -0.573860 -0.394275 -0.717797
vn 0.705444 0.533080 0.467091
vn 0.705444 0.533080 0.467091
vn 0.705444 0.533080 0.467091
vn 0.705444 0.533080 0.467091
vn 0.345509 0.632466 0.693261
vn 0.335269 0.601772 0.724890
vn 0.365032 0.693751 0.620855
vn -0.454402 -0.212571 0.865062
vn -0.454402 -0.212571 0.865062
vn -0.454402 -0.212571 0.865062
vn -0.454402 -0.212571 0.865062
vn -0.508709 -0.316691 -0.800576
vn -0.508709 -0.316691 -0.800576
vn -0.508709 -0.316691 -0.800576
vn -0.508709 -0.316691 -0.800576
vn -0.578505 -0.109552 -0.808289
vn -0.578505 -0.109552 -0.808289
vn -0.578505 -0.109552 -0.808289
vn -0.578505 -0.109552 -0.808289
vn 0.892775 0.247370 0.376513
vn 0.892775 0.247370 0.376513
vn 0.892775 0.247370 0.376513
vn 0.892775 0.247370 0.376513
vn 0.740417 0.186844 0.645656
vn 0.740417 0.186844 0.645656
vn 0.740417 0.186844 0.645656
vn 0.740417 0.186844 0.645656
vn -0.107888 -0.602701 0.790640
vn -0.107888 -0.602701 0.790640
vn -0.107888 -0.602701 0.790640
vn -0.107888 -0.602701 0.790640
vn -0.670096 -0.216100 -0.710121
vn -0.670096 -0.216100 -0.710121
vn -0.670096 -0.216100 -0.710121
vn -0.670096 -0.216100 -0.710121
vn -0.115628 0.948809 0.293926
vn -0.115628 0.948809 0.293926
vn -0.115628 0.948809 0.293926
vn 0.469536 0.830627 0.299325
vn 0.469536 0.830627 0.299325
vn 0.469536 0.830627 0.299325
vn 0.528109 0.841238 0.115845
vn 0.528109 0.841238 0.115845
vn 0.528109 0.841238 0.115845
vn 0.976338 0.214837 0.024686
vn 0.976338 0.214837 0.024686
vn 0.976338 0.214837 0.024686
vn 0.213943 0.970574 -0.110516
vn 0.213943 0.970574 -0.110516
vn 0.213943 0.970574 -0.110516
vn 0.213943 0.970574 -0.110516
vn 0.099488 0.118469 -0.987961
vn 0.099488 0.118469 -0.987961
vn 0.099488 0.118469 -0.987961
vn 0.099488 0.118469 -0.987961
vn -0.703589 0.671143 0.233515
vn -0.703590 0.671143 0.233515
vn -0.703590 0.671143 0.233515
vn 0.267786 0.752741 -0.601392
vn 0.267786 0.752740 -0.601392
vn 0.267786 0.752740 -0.601392
vn -0.398510 0.030705 0.916650
vn -0.398510 0.030705 0.916650
vn -0.398510 0.030705 0.916650
vn 0.317322 0.619998 -0.717572
vn 0.317322 0.619998 -0.717572
vn 0.317322 0.619998 -0.717572
vn 0.317322 0.619998 -0.717572
vn 0.783836 0.343129 -0.517555
vn 0.783836 0.343129 -0.517555
vn 0.783836 0.343129 -0.517555
vn 0.783836 0.343129 -0.517555
vn 0.542524 0.288859 0.788815
vn 0.542524 0.288859 0.788815
vn 0.542524 0.288859 0.788815
vn 0.542524 0.288859 0.788815
vn -0.330657 -0.928494 0.169012
vn -0.330657 -0.928494 0.169012
vn -0.330657 -0.928494 0.169012
vn -0.330657 -0.928494 0.169012
vn 0.301139 0.197398 -0.932925
vn 0.301139 0.197398 -0.932925
vn 0.301139 0.197398 -0.932925
vn 0.301139 0.197398 -0.932925
vn 0.402511 0.905209 0.136317
vn 0.402511 0.905209 0.136317
vn 0.402511 0.905209 0.136317
vn 0.402511 0.905209 0.136317
vn -0.103593 0.114171 0.988045
vn -0.103593 0.114171 0.988045
vn -0.103593 0.114171 0.988045
vn -0.103593 0.114171 0.988045
vn -0.014976 0.993733 -0.110769
vn -0.014976 0.993733 -0.110769
vn -0.014976 0.993733 -0.110769
vn 0.139222 0.985155 -0.100430
vn 0.139222 0.985155 -0.100430
vn 0.139222 0.985155 -0.100430
vn -0.615279 0.787475 0.036275
vn -0.615279 0.787475 0.036275
vn -0.615279 0.787475 0.036275
vn -0.992087 0.114244 0.052078
vn -0.992087 0.114244 0.052078
vn -0.992087 0.114244 0.052078
vn -0.992087 0.114244 0.052078
vn -0.676894 0.735835 0.019022
vn -0.676894 0.735835 0.019022
vn -0.676894 0.735835 0.019022
vn 0.453724 0.813452 0.363910
vn 0.453724 0.813452 0.363910
vn 0.453724 0.813452 0.363910
vn -0.176411 -0.506097 0.844242
vn -0.176411 -0.506097 0.844243
vn -0.176411 -0.506097 0.844243
vn -0.176411 -0.506097 0.844243
vn -0.721066 0.531947 -0.443956
vn -0.721066 0.531947 -0.443956
vn -0.721066 0.531947 -0.443956
vn 0.478060 -0.877703 -0.033102
vn 0.478060 -0.877703 -0.033102
vn 0.478060 -0.877703 -0.033102
vn 0.217334 0.530104 0.819607
vn 0.217334 0.530104 0.819607
vn 0.217334 0.530104 0.819607
vn 0.217334 0.530104 0.819607
vn -0.354208 0.934869 0.023590
vn -0.354208 0.934869 0.023590
vn -0.354208 0.934869 0.023590
vn -0.354208 0.934869 0.023590
vn -0.970254 0.166556 -0.175686
vn -0.970254 0.166556 -0.175686
vn -0.970254 0.166556 -0.175686
vn -0.970254 0.166556 -0.175686
vn 0.627215 -0.695959 -0.349631
vn 0.627215 -0.695959 -0.349631
vn 0.627215 -0.695959 -0.349631
vn 0.627215 -0.695959 -0.349631
vn 0.485854 0.109486 0.867155
vn 0.485854 0.109486 0.867156
vn 0.485854 0.109486 0.867155
vn 0.485854 0.109486 0.867155
vn -0.589425 0.660539 0.465045
vn -0.589425 0.660539 0.465045
vn -0.589425 0.660539 0.465045
vn -0.589425 0.660539 0.465045
vn -0.988732 -0.065997 -0.134367
vn -0.988732 -0.065997 -0.134366
vn -0.988732 -0.065997 -0.134366
vn -0.988732 -0.065997 -0.134366
vn 0.215174 0.923014 -0.318976
vn 0.215174 0.923014 -0.318976
vn 0.215174 0.923014 -0.318976
vn 0.215174 0.923014 -0.318976
vn -0.299783 0.953013 0.043556
vn -0.299783 0.953013 0.043556
vn -0.299783 0.953013 0.043556
vn -0.299783 0.953013 0.043556
vn 0.056270 0.016764 0.998275
vn 0.056270 0.016764 0.998275
vn 0.056270 0.016764 0.998275
vn 0.056270 0.016764 0.998275
vn -0.154245 0.979868 0.126758
vn -0.154244 0.979868 0.126758
vn -0.154244 0.979868 0.126758
vn 0.141379 0.308851 -0.940544
vn 0.141379 0.308851 -0.940544
vn 0.141379 0.308851 -0.940544
vn 0.141379 0.308851 -0.940544
vn -0.848457 0.521575 -0.089888
vn -0.848457 0.521575 -0.089888
vn -0.848457 0.521575 -0.089888
vn -0.848457 0.521575 -0.089888
vn -0.020849 0.444736 0.895419
vn -0.020849 0.444736 0.895419
vn -0.020849 0.444736 0.895419
vn -0.020849 0.444736 0.895419
vn 0.937911 -0.276113 -0.209965
vn 0.937911 -0.276113 -0.209965
vn 0.937911 -0.276113 -0.209965
vn 0.937911 -0.276113 -0.209965
vn 0.899557 -0.210584 -0.382689
vn 0.899557 -0.210584 -0.382689
vn 0.899557 -0.210584 -0.382689
vn 0.765416 -0.634338 -0.108413
vn 0.765416 -0.634338 -0.108413
vn 0.765416 -0.634338 -0.108413
vn 0.011792 0.972816 0.231277
vn 0.011792 0.972816 0.231277
vn 0.011792 0.972816 0.231277
vn -0.065065 0.979089 0.192749
vn -0.065065 0.979089 0.192749
vn -0.065065 0.979089 0.192749
vn -0.158426 0.981785 0.104880
vn -0.158426 0.981785 0.104880
vn -0.158426 0.981785 0.104880
vn -0.342024 -0.880799 0.327435
vn -0.342024 -0.880799 0.327435
vn -0.342024 -0.880799 0.327435
vn -0.342024 -0.880799 0.327435
vn -0.475846 0.163860 0.864130
vn -0.475846 0.163860 0.864130
vn -0.475846 0.163860 0.864130
vn -0.341975 -0.251176 -0.905518
vn -0.341975 -0.251176 -0.905519
vn -0.341975 -0.251176 -0.905519
vn 0.411937 -0.021845 0.910951
vn 0.411937 -0.021845 0.910951
vn 0.411937 -0.021845 0.910951
vn 0.529347 -0.773017 0.349623
vn 0.529347 -0.773017 0.349623
vn 0.529347 -0.773017 0.349623
vn 0.529347 -0.773017 0.349623
vn 0.510550 -0.263758 -0.818395
vn 0.510550 -0.263758 -0.818395
vn 0.510550 -0.263758 -0.818395
vn 0.990998 0.081489 0.106218
vn 0.990998 0.081489 0.106218
vn 0.990998 0.081489 0.106218
vn 0.098016 0.861486 -0.498232
vn 0.098016 0.861486 -0.498232
vn 0.098016 0.861486 -0.498232
vn 0.098016 0.861486 -0.498232
vn 0.510208 0.700736 -0.498655
vn 0.510208 0.700736 -0.498655
vn 0.510208 0.700736 -0.498655
vn 0.510208 0.700736 -0.498655
vn 0.979389 0.139775 -0.145809
vn 0.979389 0.139775 -0.145809
vn 0.979389 0.139775 -0.145809
vn -0.272841 0.059887 -0.960193
vn -0.272841 0.059887 -0.960193
vn -0.272841 0.059887 -0.960193
vn -0.272841 0.059887 -0.960193
vn -0.961496 0.021840 -0.273950
vn -0.961496 0.021840 -0.273950
vn -0.961496 0.021840 -0.273950
vn -0.961496 0.021840 -0.273950
vn -0.636946 -0.608840 0.472878
vn -0.636946 -0.608840 0.472878
vn -0.636946 -0.608840 0.472878
vn -0.636946 -0.608840 0.472878
vn 0.017386 0.768931 -0.639096
vn 0.017386 0.768931 -0.639096
vn 0.017386 0.768931 -0.639096
vn 0.017386 0.768931 -0.639096
vn -0.331445 0.705248 -0.626713
vn -0.331445 0.705248 -0.626713
vn -0.331445 0.705248 -0.626713
vn -0.331445 0.705248 -0.626713
vn 0.374771 0.736097 -0.563656
vn 0.374771 0.736097 -0.563656
vn 0.374771 0.736097 -0.563656
vn 0.374771 0.736097 -0.563656
vn -0.413048 0.288699 0.863739
vn -0.429865 0.254226 0.866363
vn -0.525828 0.013678 0.850481
vn 0.743811 0.555578 0.371589
vn 0.741318 0.563622 0.364387
vn 0.747319 0.543598 0.382120
vn 0.615229 0.597051 0.514804
vn 0.673876 0.703558 0.225607
vn 0.669043 0.691361 0.272766
vn 0.327039 0.577657 0.747902
vn 0.335269 0.601772 0.724890
vn 0.345509 0.632466 0.693261
s off
f 154/249/1 148/243/2 12/3/3
f 74/92/4 14/20/5 12/3/6
f 112/204/7 115/207/8 13/2/9 111/202/10
f 94/184/11 95/185/12 96/23/13
f 20/22/14 21/24/15 19/7/16
f 146/241/17 19/7/18 147/240/19
f 114/206/20 23/25/21 16/1/22
f 150/245/23 23/25/24 24/27/25 17/4/26
f 17/4/27 24/27/28 25/28/29 18/21/30
f 27/29/31 22/32/32 21/31/33 26/30/34
f 57/76/35 58/73/36 65/83/37 66/84/38
f 97/186/39 94/184/40 96/23/41
f 5/11/42 21/24/43 20/22/44 4/9/45
f 6/13/46 23/25/47 22/26/48 7/95/49
f 8/14/50 24/27/51 23/25/52 6/13/53
f 60/75/54 59/74/55 25/28/56 9/15/57
f 9/15/58 25/28/59 24/27/60 8/14/61
f 10/16/62 27/29/63 26/30/64 11/17/65
f 11/17/66 26/30/67 21/31/68 5/18/69
f 7/19/70 22/32/71 27/29/72 10/16/73
f 53/69/74 151/246/75 153/248/76
f 38/36/77 53/69/78 54/70/79 39/38/80
f 124/216/81 69/87/82 126/218/83
f 70/88/84 71/89/85 50/66/86 51/67/87
f 41/41/88 40/39/89 42/43/90
f 144/237/91 145/238/92 40/39/93
f 40/39/94 125/217/95 144/239/96
f 37/33/97 152/247/98 44/45/99
f 38/36/100 39/38/101 46/48/102 45/47/103
f 48/49/104 47/50/105 42/51/106 43/52/107
f 67/85/108 68/86/109 63/78/110 64/79/111
f 71/89/112 49/65/113 50/66/114
f 30/57/115 29/55/116 41/41/117 42/43/118
f 31/58/119 32/96/120 43/46/121 44/45/122
f 63/78/123 34/60/124 46/48/125 64/79/126
f 34/60/127 33/59/128 45/47/129 46/48/130
f 35/61/131 36/62/132 47/50/133 48/49/134
f 36/62/135 30/63/136 42/51/137 47/50/138
f 32/64/139 35/61/140 48/49/141 43/52/142
f 99/187/143 98/188/144 97/189/145 96/42/146
f 100/190/147 99/187/148 96/42/149 95/191/150
f 139/231/151 140/232/152 141/233/153 142/234/154
f 53/69/155 153/248/156 154/250/157 12/35/158
f 54/70/159 53/69/160 12/35/161 14/37/162
f 57/81/163 62/77/164 61/80/165 58/82/166
f 107/197/167 106/198/168 108/200/169
f 4/9/170 20/22/171 75/93/172 76/94/173
f 14/20/174 18/21/175 65/83/176 58/73/177
f 3/6/178 1/5/179 57/76/180 66/84/181 60/75/182
f 18/21/183 25/28/184 59/74/185
f 9/15/186 3/6/187 60/75/188
f 55/71/189 28/54/190 63/78/191 68/86/192 62/77/193
f 39/38/194 67/85/195 64/79/196
f 28/54/197 34/60/198 63/78/199
f 46/48/200 39/38/201 64/79/202
f 1/53/203 55/71/204 62/77/205 57/81/206
f 54/70/207 14/37/208 58/82/209 61/80/210
f 65/83/211 18/21/212 59/74/213
f 66/84/214 65/83/215 59/74/216 60/75/217
f 39/38/218 54/70/219 61/80/220 67/85/221
f 61/80/222 62/77/223 68/86/224 67/85/225
f 37/33/226 69/87/227 151/246/228 152/247/229
f 127/219/230 126/218/231 69/87/232
f 78/169/233 79/166/234 80/167/235 81/168/236
f 84/172/237 85/173/238 86/174/239 87/175/240
f 76/94/241 75/93/242 56/72/243 2/10/244
f 108/200/245 106/198/246 109/199/247
f 113/205/248 114/206/249 16/1/250 73/91/251
f 149/244/252 150/245/253 17/4/254 74/92/255
f 17/4/256 18/21/257 14/20/258 74/92/259
f 107/197/260 108/200/261 110/201/262
f 1/97/263 3/98/264 77/99/265
f 5/100/266 4/101/267 77/102/268
f 6/103/269 7/104/270 77/105/271
f 8/106/272 6/107/273 77/108/274
f 3/109/275 9/110/276 77/111/277
f 9/112/278 8/113/279 77/114/280
f 10/115/281 11/116/282 77/117/283
f 11/118/284 5/119/285 77/120/286
f 7/121/287 10/122/288 77/123/289
f 55/124/290 1/125/291 77/126/292
f 49/127/293 29/128/294 77/129/295
f 29/130/296 30/131/297 77/132/298
f 32/133/299 31/134/300 77/135/301
f 31/136/302 33/137/303 77/138/304
f 34/139/305 28/140/306 77/141/307
f 33/142/308 34/143/309 77/144/310
f 36/145/311 35/146/312 77/147/313
f 30/148/314 36/149/315 77/150/316
f 35/151/317 32/152/318 77/153/319
f 2/154/320 49/155/321 77/156/322
f 28/157/323 55/158/324 77/159/325
f 4/160/326 76/161/327 77/162/328
f 76/163/329 2/164/330 77/165/331
f 71/89/332 70/88/333 80/167/334 79/166/335
f 70/88/336 40/39/337 81/168/338 80/167/339
f 40/39/340 41/41/341 78/169/342 81/168/343
f 29/55/344 49/65/345 83/171/346 82/170/347
f 49/65/348 71/89/349 79/166/350 83/171/351
f 41/41/352 29/55/353 82/170/354 78/169/355
f 82/170/356 83/171/357 85/173/358 84/172/359
f 83/171/360 79/166/361 86/174/362 85/173/363
f 79/166/364 78/169/365 87/175/366 86/174/367
f 78/169/368 82/170/369 84/172/370 87/175/371
f 56/72/372 72/90/373 15/8/374
f 56/72/375 89/177/376 88/176/377
f 2/10/378 56/72/379 88/176/380 90/178/381
f 50/66/382 49/65/383 91/180/384 92/179/385
f 49/65/386 2/56/387 90/181/388 91/180/389
f 51/67/390 50/66/391 92/179/392 93/182/393
f 15/40/394 51/67/395 93/182/396 89/183/397
f 88/176/398 89/177/399 95/185/400
f 90/178/401 88/176/402 94/184/403 97/186/404
f 92/179/405 91/180/406 98/188/407 99/187/408
f 91/180/409 90/181/410 97/189/411 98/188/412
f 100/190/413 92/179/414 99/187/415
f 89/183/416 93/182/417 100/190/418 95/191/419
f 20/22/420 19/7/421 101/193/422 102/192/423
f 19/7/424 72/90/425 104/194/426 101/193/427
f 104/194/428 56/72/429 103/195/430
f 56/72/431 75/93/432 105/196/433 103/195/434
f 75/93/435 20/22/436 102/192/437 105/196/438
f 102/192/439 101/193/440 106/198/441 107/197/442
f 101/193/443 104/194/444 109/199/445 106/198/446
f 104/194/447 103/195/448 108/200/449 109/199/450
f 103/195/451 105/196/452 110/201/453 108/200/454
f 105/196/455 102/192/456 107/197/457 110/201/458
f 117/209/459 118/210/460 116/208/461
f 119/211/462 118/210/463 117/209/464
f 19/7/465 114/206/466 113/205/467
f 19/7/468 146/242/469 114/206/470
f 112/204/471 113/205/472 73/91/473 115/207/474
f 148/243/475 149/244/476 74/92/477 12/3/478
f 52/68/479 111/203/480 13/34/481
f 112/204/482 111/202/483 116/208/484
f 15/8/485 72/90/486 117/209/487
f 113/205/488 112/204/489 116/208/490 118/210/491
f 19/7/492 113/205/493 118/210/494 119/211/495
f 121/212/496 120/213/497 122/214/498 123/215/499
f 72/90/500 19/7/501 120/213/502 121/212/503
f 19/7/504 119/211/505 122/214/506 120/213/507
f 119/211/508 117/209/509 123/215/510 122/214/511
f 117/209/512 72/90/513 121/212/514 123/215/515
f 52/68/516 124/216/517 111/203/518
f 69/87/519 124/216/520 52/68/521
f 125/217/522 69/87/523 37/33/524
f 43/46/525 125/217/526 37/33/527 44/45/528
f 124/216/529 70/88/530 51/67/531
f 70/88/532 124/216/533 126/218/534
f 131/223/535 132/224/536 133/225/537 134/226/538
f 69/87/539 125/217/540 127/219/541
f 40/39/542 70/88/543 128/220/544
f 70/88/545 126/218/546 129/221/547 128/220/548
f 126/218/549 127/219/550 130/222/551 129/221/552
f 127/219/553 125/217/554 40/39/555 130/222/556
f 40/39/557 128/220/558 132/224/559 131/223/560
f 128/220/561 129/221/562 133/225/563 132/224/564
f 129/221/565 130/222/566 134/226/567 133/225/568
f 130/222/569 40/39/570 131/223/571 134/226/572
f 111/203/573 124/216/574 136/228/575 135/227/576
f 124/216/577 51/67/578 137/229/579 136/228/580
f 51/67/581 15/40/582 138/230/583 137/229/584
f 135/227/585 116/236/586 111/203/587
f 135/227/588 136/228/589 140/232/590 139/231/591
f 136/228/592 137/229/593 141/233/594 140/232/595
f 137/229/596 138/230/597 142/234/598 141/233/599
f 142/234/600 143/235/601 135/227/602 139/231/603
f 138/230/604 143/235/605 142/234/606
f 15/40/607 143/235/608 138/230/609
f 15/8/610 117/209/611 116/208/612
f 15/40/613 116/236/614 143/235/615
f 143/235/616 116/236/617 135/227/618
f 43/44/619 42/43/620 145/238/621 144/237/622
f 42/43/623 40/39/624 145/238/625
f 125/217/626 43/46/627 144/239/628
f 19/7/629 21/24/630 147/240/631
f 21/24/632 22/12/633 146/241/634 147/240/635
f 22/26/636 114/206/637 146/242/638
f 22/26/639 23/25/640 114/206/641
f 73/91/642 149/244/643 148/243/644 115/207/645
f 16/1/646 150/245/647 149/244/648 73/91/649
f 16/1/650 23/25/651 150/245/652
f 152/247/653 151/246/654 53/69/655 38/36/656
f 44/45/657 152/247/658 38/36/659 45/47/660
f 33/59/661 31/58/662 44/45/663 45/47/664
f 153/248/665 151/246/666 69/87/667 52/68/668
f 154/250/669 153/248/670 52/68/671 13/34/672
f 115/207/673 148/243/674 154/249/675 13/2/676
f 93/182/677 92/179/678 100/190/679
f 88/176/680 95/185/681 94/184/682
f 56/72/683 15/8/684 89/177/685
f 72/90/686 56/72/687 104/194/688
