# This file uses centimeters as units for non-parametric coordinates.

v -0.134618 112.782158 9.414337
v -0.955316 110.333626 -17.046005
v -0.948188 122.112762 -6.436310
v -0.087393 101.073715 -14.862335
v 0.161002 119.564262 4.160217
v -0.583921 118.621460 6.214874
v 8.452518 110.948372 8.093338
v 9.370880 108.568642 4.961334
v 11.287288 106.953934 -3.478012
v 8.738708 106.488525 -0.210175
v 11.838836 104.566864 -3.759918
v 10.182046 100.807175 -2.547684
v 8.840984 104.138885 0.594238
v 8.257629 104.012993 3.837280
v 12.790915 117.593491 -6.901123
v 10.908493 107.654358 -16.170364
v 11.025235 102.415016 -13.695602
v 12.574043 116.114571 5.365768
v 10.672364 114.517532 8.857956
v 10.112209 108.507263 4.547302
v 11.135269 107.911476 0.866394
v 12.536626 108.092537 -4.450943
v 12.816315 105.339340 -6.839127
v 12.017082 101.013550 -5.245102
v 10.070031 104.468216 3.404297
v 10.585773 104.926666 1.040070
v 0.153014 95.940979 -9.898987
v 0.162163 96.576523 -11.869614
v 10.192640 98.620178 -6.132874
v 11.511544 98.643791 -9.351471
v 9.226501 97.341820 -9.919159
v 8.292772 96.797203 -8.118118
v 1.931513 117.507622 9.074677
v 5.394861 121.457031 4.294708
v 3.669102 123.213593 -7.374725
v 2.333381 109.469330 -18.466553
v 6.373166 119.609055 1.758255
v 5.999938 117.737808 8.095291
v 4.255971 112.267151 8.872223
v 5.387288 112.546707 9.511200
v 6.528657 114.993523 10.400894
v 9.545476 114.109253 10.117035
v 9.218136 109.038940 8.674988
v 5.458776 110.746277 10.254349
v 7.106636 112.231277 11.930954
v 9.147450 111.230728 10.201218
v 8.058100 106.794205 8.127777
v 6.654019 106.960831 9.236816
v 7.747262 107.284698 10.035507
v 8.106443 107.146606 8.871475
v 12.551858 112.148987 6.762924
v 11.409831 111.163666 8.769516
v 9.768451 105.939148 2.653564
v 10.367636 107.923126 3.040421
v 10.015685 107.739464 5.699982
v 11.697552 107.693764 4.428131
v 11.527808 107.864716 6.693253
v 9.937192 105.828766 5.061462
v 5.371242 119.712448 6.628601
v 11.204563 116.357597 8.923019
v -8.225314 112.164070 8.831833
v -9.411847 108.371010 4.961334
v -11.443449 106.783722 -3.448685
v -8.725519 106.377266 -0.210175
v -11.893452 104.661324 -3.957596
v -9.755993 101.074944 -2.884766
v -8.674595 104.117432 0.578156
v -8.194538 103.990295 3.837280
v -14.011956 117.295036 -7.139740
v -11.269435 107.784828 -16.022766
v -11.939034 102.656342 -14.293472
v -12.595671 115.370605 5.365768
v -11.016973 115.783051 8.923019
v -10.176233 108.288780 4.547302
v -11.185719 107.646667 1.130829
v -12.987622 107.769157 -4.392548
v -13.224541 105.332993 -6.967697
v -12.030885 101.237617 -5.653824
v -10.015191 104.412498 3.404297
v -10.508956 104.839264 1.040070
v -11.897745 98.808144 -6.645752
v -13.592421 98.950623 -9.871658
v -10.976359 97.371971 -10.313400
v -10.013335 96.889412 -8.506485
v -2.556558 116.632637 8.504425
v -8.030056 121.865227 2.820618
v -8.263678 122.799088 -7.777573
v -3.411052 109.387169 -18.357788
v -10.355791 120.083275 0.986176
v -7.149116 117.613235 8.210785
v -4.212910 111.948433 8.872223
v -5.296648 112.869751 9.527557
v -6.558720 115.413498 10.421997
v -9.644527 114.401863 10.005371
v -9.344790 108.776405 8.569534
v -5.844648 110.491684 10.295593
v -7.206435 111.818298 11.997284
v -9.112140 110.752937 10.120209
v -8.064850 106.755554 8.127777
v -6.650867 106.946838 9.236816
v -7.744364 107.264389 10.035507
v -8.127874 107.110359 8.871475
v -12.803017 111.687317 6.736710
v -11.598726 110.864090 8.750168
v -9.773887 105.832779 2.653564
v -10.433859 107.707657 3.125824
v -10.052504 107.577454 5.699127
v -9.551987 108.963074 8.302963
v -11.971535 107.497116 4.461639
v -11.769967 107.747742 6.676224
v -9.962720 105.748138 5.061462
v -7.437199 120.182434 5.317001
v 0.071259 105.061104 2.581284
v -2.184235 112.829659 8.731781
v 1.871690 113.009819 8.842896
v 8.714924 120.406960 -12.903458
v 12.556567 117.092178 -11.477539
v 10.371407 112.067345 -15.838974
v 5.705625 112.544464 -16.223526
v 14.402730 114.301338 2.150330
v 12.621706 108.939293 1.892212
v 14.435654 110.004356 -3.318939
v 14.843395 114.481140 -2.057312
v 14.988050 103.780838 -7.793198
v 14.142282 104.451874 -11.205856
v 14.643250 101.624443 -7.572723
v 15.043994 101.963547 -10.801575
v 9.311389 120.119576 6.920090
v 11.696837 119.383026 7.192291
v 12.263358 119.221069 5.492142
v 9.432245 120.896973 3.627640
v -10.514415 119.487640 -12.228973
v -8.779717 112.707901 -17.239075
v -11.713168 111.981537 -16.571381
v -13.268927 117.118248 -12.737564
v -14.883336 114.232315 2.391296
v -15.680092 114.423431 -2.320297
v -15.388469 109.916840 -3.425308
v -13.147419 109.074905 1.092865
v -15.491619 102.322105 -11.263718
v -14.565425 104.706726 -11.336807
v -14.973550 101.888451 -8.011337
v -15.507654 103.884933 -8.007263
v -4.833889 125.245056 -4.386368
v -3.743538 123.576523 2.920258
v -9.531832 122.512779 -4.644592
v -10.438935 119.906792 2.958572
v -10.091790 119.545975 6.769577
v -12.396531 118.340340 5.233490
v -11.774336 118.562531 7.000595
v 15.956184 110.222031 2.790222
v 14.717890 108.749176 2.219925
v 15.085042 108.925629 -0.615021
v 15.927912 110.357841 -0.901810
v -16.187567 110.358871 2.651779
v -16.443018 110.453484 -0.703735
v -15.323862 109.374680 -1.160400
v -14.532656 109.285721 1.120438
v 15.028968 107.737854 -5.993668
v 15.696947 112.017998 -9.532074
v 15.001048 105.929184 -7.765915
v 14.363397 108.473038 -12.733475
v -15.837860 108.841667 -12.335556
v -15.991076 112.765457 -9.186646
v -15.918423 105.486610 -7.816010
v -15.825199 107.291946 -6.105225
v 16.430861 105.899200 -6.160080
v 17.362156 107.015518 -6.489059
v 16.388342 105.481163 -7.296738
v 16.876650 106.097580 -8.409943
v -17.438177 106.524834 -8.901947
v -17.820158 107.420135 -7.493820
v -17.207907 105.493881 -7.946121
v -17.190218 105.913445 -6.919571
v 11.955539 113.340698 -13.032486
v 11.994737 114.984222 -13.845245
v 6.418725 116.944229 -16.430954
v 3.276536 116.817215 -15.593994
v -1.330319 116.437256 -15.366150
v -6.370594 116.702972 -15.760559
v -9.930571 116.541611 -16.395874
v -12.083049 115.185104 -15.555069
v -12.754609 114.191818 -12.586029
v 11.061753 122.042725 -0.952667
v 13.066692 119.766953 0.565903
v 13.466951 120.248032 -4.600143
v 10.382118 123.899612 -4.794769
v 13.474151 122.316978 -1.701157
v 14.721743 120.905838 -0.760330
v 14.984662 121.200600 -3.960953
v 13.049335 123.485901 -4.080734
v -12.156843 122.535042 -4.725601
v -12.035268 120.596680 -0.348099
v -14.693703 119.367180 -4.419067
v -13.783640 118.513153 1.885666
v -15.716966 121.939041 -2.956970
v -15.542362 121.080383 -0.525421
v -15.931650 119.935883 -2.828308
v -15.854221 119.383331 -0.181610
v 5.203395 122.581375 1.235535
v 7.315007 122.819206 -2.530350
v 6.088021 124.629059 -4.300491
v 2.592776 123.805527 0.904114
v 2.813021 125.525940 -3.062408
v -10.340904 125.504913 -2.877686
v -9.874894 124.213791 2.065018
v -10.582854 123.127533 -3.781677
v -10.336868 122.869453 1.167587
v -3.980623 125.174591 -0.774307
v -0.064603 123.814812 -1.597153
v -16.790951 115.437798 2.175323
v -17.766323 116.701340 -2.715942
v -16.905039 114.994263 -0.631424
v -16.383057 114.868332 1.208359
v -15.657123 117.627930 1.010956
v -16.258911 118.184296 -1.450958
v 16.599459 116.641876 -0.528778
v 15.303723 116.072098 3.532867
v 15.109194 114.856377 2.440536
v 15.716528 114.861084 1.098862
v 15.441454 118.002739 0.035446
v 14.787100 117.837761 1.717789
v 14.645238 110.728745 -16.595337
v 13.661295 109.201004 -16.747559
v 15.220267 110.360336 -14.820160
v 15.079577 108.629501 -15.635101
v -13.565893 109.939018 -16.616425
v -14.548408 112.989281 -16.042618
v -16.899157 111.811974 -14.235764
v -15.882645 110.033241 -15.761398
v -4.527867 119.833961 -15.615005
v -4.119378 122.877563 -11.145767
v -6.942837 119.716957 -16.582062
v -7.765117 123.354187 -11.702896
v -9.643924 119.304451 -15.759491
v -10.329222 120.967690 -13.634445
v 7.994233 94.827095 -12.707565
v 4.757655 94.537247 -13.447601
v 4.932381 99.233292 -14.373215
v 8.949511 99.961632 -14.030762
v 7.366654 93.634117 -11.038330
v 4.456765 93.307526 -11.689560
v -5.195197 117.187134 9.909760
v 4.644659 116.761253 9.829361
v -10.221752 98.292496 -13.056885
v -10.146194 95.831596 -10.559143
v -5.620758 96.564926 -14.333481
v -5.821416 94.192513 -11.735413
v -9.748156 95.490570 -9.519485
v -5.952512 93.980156 -10.607239
v -9.793348 103.289581 -16.161835
v -9.718591 105.208931 -18.276428
v -5.560675 104.795288 -20.396317
v -3.441764 101.532112 -17.209885
v -9.632799 101.693428 -17.749313
v -9.660415 102.504524 -18.782516
v -7.721613 102.115952 -19.896179
v -6.742198 100.709198 -18.364563
v 8.644710 102.552139 -15.742218
v 3.406353 100.748703 -16.303467
v 3.515051 104.752899 -19.633469
v 8.131716 104.696716 -18.045074
v 9.862952 100.294479 -16.638214
v 7.427526 99.717270 -16.980988
v 6.912562 100.307610 -18.645142
v 9.281277 100.668755 -17.725250
v 11.877917 118.709633 -14.717819
v 13.263790 116.893181 -13.199203
v 13.131475 115.708199 -14.684952
v 11.488595 116.869392 -16.438690
v 6.991457 124.626823 -0.219742
v 5.901548 125.565193 -0.314224
v 6.896533 125.333549 -2.863159
v 5.912254 126.580574 -2.695648
v 4.321341 112.114021 -19.855194
v 3.909562 115.877487 -19.052170
v 5.854136 115.901779 -18.093735
v 5.613549 113.666115 -18.102585
v 1.289434 115.593513 -18.554291
v 2.006040 112.570503 -19.168167
v -12.474944 95.925789 -10.266525
v -11.846169 95.639381 -9.066391
v -13.128739 96.950462 -7.857315
v -14.235024 96.976555 -9.968292
v 10.985112 95.642433 -8.896027
v 12.397385 96.421562 -8.528748
v 11.582051 96.478996 -6.572296
v 10.400389 95.347855 -7.793533
v 5.751757 122.988304 -4.607468
v 7.803146 123.636070 -5.785919
v 9.120834 121.626045 -9.058304
v 3.592185 121.869804 -14.604584
v -0.156011 119.931808 -12.439819
vt 0.050356 0.198441
vt 0.050356 0.198441
vt 0.050356 0.198441
vt 0.050356 0.198441
vt 0.050356 0.198441
vt 0.050356 0.198441
vt 0.050356 0.198441
vt 0.050356 0.198441
vt 0.050356 0.198441
vt 0.050356 0.198441
vt 0.050356 0.198441
vt 0.050356 0.198441
vt 0.050356 0.198441
vt 0.050356 0.198441
vt 0.050356 0.198441
vt 0.050356 0.198441
vt 0.050356 0.198441
vt 0.050356 0.198441
vt 0.050356 0.198441
vt 0.050356 0.198441
vt 0.050356 0.198441
vt 0.050356 0.198441
vt 0.050356 0.198441
vt 0.050356 0.198441
vt 0.050356 0.198441
vt 0.050356 0.198441
vt 0.050356 0.198441
vt 0.050356 0.198441
vt 0.050356 0.198441
vt 0.050356 0.198441
vt 0.050356 0.198441
vt 0.050356 0.198441
vt 0.050356 0.198441
vt 0.050356 0.198441
vt 0.050356 0.198441
vt 0.050356 0.198441
vt 0.050356 0.198441
vt 0.050356 0.198441
vt 0.050356 0.198441
vt 0.050356 0.198441
vt 0.050356 0.198441
vt 0.050356 0.198441
vt 0.050356 0.198441
vt 0.050356 0.198441
vt 0.050356 0.198441
vt 0.050356 0.198441
vt 0.050356 0.198441
vt 0.050356 0.198441
vt 0.050356 0.198441
vt 0.050356 0.198441
vt 0.050356 0.198441
vt 0.050356 0.198441
vt 0.050356 0.198441
vt 0.050356 0.198441
vt 0.050356 0.198441
vt 0.050356 0.198441
vt 0.050356 0.198441
vt 0.050356 0.198441
vt 0.050356 0.198441
vt 0.050356 0.198441
vt 0.050356 0.198441
vt 0.050356 0.198441
vt 0.050356 0.198441
vt 0.050356 0.198441
vt 0.050356 0.198441
vt 0.050356 0.198441
vt 0.050356 0.198441
vt 0.050356 0.198441
vt 0.050356 0.198441
vt 0.050356 0.198441
vt 0.050356 0.198441
vt 0.050356 0.198441
vt 0.050356 0.198441
vt 0.050356 0.198441
vt 0.050356 0.198441
vt 0.050356 0.198441
vt 0.050356 0.198441
vt 0.050356 0.198441
vt 0.050356 0.198441
vt 0.050356 0.198441
vt 0.050356 0.198441
vt 0.050356 0.198441
vt 0.050356 0.198441
vt 0.050356 0.198441
vt 0.050356 0.198441
vt 0.050356 0.198441
vt 0.050356 0.198441
vt 0.050356 0.198441
vt 0.050356 0.198441
vt 0.050356 0.198441
vt 0.050356 0.198441
vt 0.050356 0.198441
vt 0.050356 0.198441
vt 0.050356 0.198441
vt 0.050356 0.198441
vt 0.050356 0.198441
vt 0.050356 0.198441
vt 0.050356 0.198441
vt 0.050356 0.198441
vt 0.050356 0.198441
vt 0.050356 0.198441
vt 0.050356 0.198441
vt 0.050356 0.198441
vt 0.050356 0.198441
vt 0.050356 0.198441
vt 0.050356 0.198441
vt 0.050356 0.198441
vt 0.050356 0.198441
vt 0.050356 0.198441
vt 0.050356 0.198441
vt 0.050356 0.198441
vt 0.050356 0.198441
vt 0.050356 0.198441
vt 0.050356 0.198441
vt 0.050356 0.198441
vt 0.050356 0.198441
vt 0.050356 0.198441
vt 0.050356 0.198441
vt 0.050356 0.198441
vt 0.050356 0.198441
vt 0.050356 0.198441
vt 0.050356 0.198441
vt 0.050356 0.198441
vt 0.050356 0.198441
vt 0.050356 0.198441
vt 0.050356 0.198441
vt 0.050356 0.198441
vt 0.050356 0.198441
vt 0.050356 0.198441
vt 0.050356 0.198441
vt 0.050356 0.198441
vt 0.050356 0.198441
vt 0.050356 0.198441
vt 0.050356 0.198441
vt 0.050356 0.198441
vt 0.050356 0.198441
vt 0.050356 0.198441
vt 0.050356 0.198441
vt 0.050356 0.198441
vt 0.050356 0.198441
vt 0.050356 0.198441
vt 0.050356 0.198441
vt 0.050356 0.198441
vt 0.050356 0.198441
vt 0.050356 0.198441
vt 0.050356 0.198441
vt 0.050356 0.198441
vt 0.050356 0.198441
vt 0.050356 0.198441
vt 0.050356 0.198441
vt 0.050356 0.198441
vt 0.050356 0.198441
vt 0.050356 0.198441
vt 0.050356 0.198441
vt 0.050356 0.198441
vt 0.050356 0.198441
vt 0.050356 0.198441
vt 0.050356 0.198441
vt 0.050356 0.198441
vt 0.050356 0.198441
vt 0.050356 0.198441
vt 0.050356 0.198441
vt 0.050356 0.198441
vt 0.050356 0.198441
vt 0.050356 0.198441
vt 0.050356 0.198441
vt 0.050356 0.198441
vt 0.050356 0.198441
vt 0.050356 0.198441
vt 0.050356 0.198441
vt 0.050356 0.198441
vt 0.050356 0.198441
vt 0.050356 0.198441
vt 0.050356 0.198441
vt 0.050356 0.198441
vt 0.050356 0.198441
vt 0.050356 0.198441
vt 0.050356 0.198441
vt 0.050356 0.198441
vt 0.050356 0.198441
vt 0.050356 0.198441
vt 0.050356 0.198441
vt 0.050356 0.198441
vt 0.050356 0.198441
vt 0.050356 0.198441
vt 0.050356 0.198441
vt 0.050356 0.198441
vt 0.050356 0.198441
vt 0.050356 0.198441
vt 0.050356 0.198441
vt 0.050356 0.198441
vt 0.050356 0.198441
vt 0.050356 0.198441
vt 0.050356 0.198441
vt 0.050356 0.198441
vt 0.050356 0.198441
vt 0.050356 0.198441
vt 0.050356 0.198441
vt 0.050356 0.198441
vt 0.050356 0.198441
vt 0.050356 0.198441
vt 0.050356 0.198441
vt 0.050356 0.198441
vt 0.050356 0.198441
vt 0.050356 0.198441
vt 0.050356 0.198441
vt 0.050356 0.198441
vt 0.050356 0.198441
vt 0.050356 0.198441
vt 0.050356 0.198441
vt 0.050356 0.198441
vt 0.050356 0.198441
vt 0.050356 0.198441
vt 0.050356 0.198441
vt 0.050356 0.198441
vt 0.050356 0.198441
vt 0.050356 0.198441
vt 0.050356 0.198441
vt 0.050356 0.198441
vt 0.050356 0.198441
vt 0.050356 0.198441
vt 0.050356 0.198441
vt 0.050356 0.198441
vt 0.050356 0.198441
vt 0.050356 0.198441
vt 0.050356 0.198441
vt 0.050356 0.198441
vt 0.050356 0.198441
vt 0.050356 0.198441
vt 0.050356 0.198441
vt 0.050356 0.198441
vt 0.050356 0.198441
vt 0.050356 0.198441
vt 0.050356 0.198441
vt 0.050356 0.198441
vt 0.050356 0.198441
vt 0.050356 0.198441
vt 0.050356 0.198441
vt 0.050356 0.198441
vt 0.050356 0.198441
vt 0.050356 0.198441
vt 0.050356 0.198441
vt 0.050356 0.198441
vt 0.050356 0.198441
vt 0.050356 0.198441
vt 0.050356 0.198441
vt 0.050356 0.198441
vt 0.050356 0.198441
vt 0.050356 0.198441
vt 0.050356 0.198441
vt 0.050356 0.198441
vt 0.050356 0.198441
vt 0.050356 0.198441
vt 0.050356 0.198441
vt 0.050356 0.198441
vt 0.050356 0.198441
vt 0.050356 0.198441
vt 0.050356 0.198441
vt 0.050356 0.198441
vt 0.050356 0.198441
vt 0.050356 0.198441
vt 0.050356 0.198441
vt 0.050356 0.198441
vt 0.050356 0.198441
vt 0.050356 0.198441
vt 0.050356 0.198441
vt 0.050356 0.198441
vt 0.050356 0.198441
vt 0.050356 0.198441
vt 0.050356 0.198441
vt 0.050356 0.198441
vt 0.050356 0.198441
vt 0.050356 0.198441
vt 0.050356 0.198441
vt 0.050356 0.198441
vt 0.050356 0.198441
vt 0.050356 0.198441
vt 0.050356 0.198441
vt 0.050356 0.198441
vt 0.050356 0.198441
vt 0.050356 0.198441
vt 0.050356 0.198441
vt 0.050356 0.198441
vt 0.050356 0.198441
vt 0.050356 0.198441
vt 0.050356 0.198441
vt 0.050356 0.198441
vt 0.050356 0.198441
vt 0.050356 0.198441
vt 0.050356 0.198441
vt 0.050356 0.198441
vt 0.050356 0.198441
vt 0.050356 0.198441
vt 0.050356 0.198441
vt 0.050356 0.198441
vt 0.050356 0.198441
vt 0.050356 0.198441
vt 0.050356 0.198441
vt 0.050356 0.198441
vt 0.050356 0.198441
vt 0.050356 0.198441
vt 0.050356 0.198441
vt 0.050356 0.198441
vt 0.050356 0.198441
vt 0.050356 0.198441
vt 0.050356 0.198441
vt 0.050356 0.198441
vt 0.050356 0.198441
vt 0.050356 0.198441
vt 0.050356 0.198441
vt 0.050356 0.198441
vt 0.050356 0.198441
vt 0.050356 0.198441
vt 0.050356 0.198441
vt 0.050356 0.198441
vt 0.050356 0.198441
vt 0.050356 0.198441
vt 0.050356 0.198441
vt 0.050356 0.198441
vt 0.050356 0.198441
vt 0.050356 0.198441
vt 0.050356 0.198441
vt 0.050356 0.198441
vt 0.050356 0.198441
vt 0.050356 0.198441
vt 0.050356 0.198441
vt 0.050356 0.198441
vt 0.050356 0.198441
vt 0.050356 0.198441
vt 0.050356 0.198441
vt 0.050356 0.198441
vt 0.050356 0.198441
vt 0.050356 0.198441
vt 0.050356 0.198441
vt 0.050356 0.198441
vt 0.050356 0.198441
vt 0.050356 0.198441
vt 0.050356 0.198441
vt 0.050356 0.198441
vt 0.050356 0.198441
vt 0.050356 0.198441
vt 0.050356 0.198441
vt 0.050356 0.198441
vt 0.050356 0.198441
vt 0.050356 0.198441
vt 0.050356 0.198441
vt 0.050356 0.198441
vt 0.050356 0.198441
vt 0.050356 0.198441
vt 0.050356 0.198441
vt 0.050356 0.198441
vt 0.050356 0.198441
vt 0.050356 0.198441
vt 0.050356 0.198441
vt 0.050356 0.198441
vt 0.050356 0.198441
vt 0.050356 0.198441
vt 0.050356 0.198441
vt 0.050356 0.198441
vt 0.050356 0.198441
vt 0.050356 0.198441
vt 0.050356 0.198441
vt 0.050356 0.198441
vt 0.050356 0.198441
vt 0.050356 0.198441
vt 0.050356 0.198441
vt 0.050356 0.198441
vt 0.050356 0.198441
vt 0.050356 0.198441
vt 0.050356 0.198441
vt 0.050356 0.198441
vt 0.050356 0.198441
vt 0.050356 0.198441
vt 0.050356 0.198441
vt 0.050356 0.198441
vt 0.050356 0.198441
vt 0.050356 0.198441
vt 0.050356 0.198441
vt 0.050356 0.198441
vt 0.050356 0.198441
vt 0.050356 0.198441
vt 0.050356 0.198441
vt 0.050356 0.198441
vt 0.050356 0.198441
vt 0.050356 0.198441
vt 0.050356 0.198441
vt 0.050356 0.198441
vt 0.050356 0.198441
vt 0.050356 0.198441
vt 0.050356 0.198441
vt 0.050356 0.198441
vt 0.050356 0.198441
vt 0.050356 0.198441
vt 0.050356 0.198441
vt 0.050356 0.198441
vt 0.050356 0.198441
vt 0.050356 0.198441
vt 0.050356 0.198441
vt 0.050356 0.198441
vt 0.050356 0.198441
vt 0.050356 0.198441
vt 0.050356 0.198441
vt 0.050356 0.198441
vt 0.050356 0.198441
vt 0.050356 0.198441
vt 0.050356 0.198441
vt 0.050356 0.198441
vt 0.050356 0.198441
vt 0.050356 0.198441
vt 0.050356 0.198441
vt 0.050356 0.198441
vt 0.050356 0.198441
vt 0.050356 0.198441
vt 0.050356 0.198441
vt 0.050356 0.198441
vt 0.050356 0.198441
vt 0.050356 0.198441
vn 0.823934 0.339147 -0.453995
vn 0.823934 0.339147 -0.453995
vn 0.823934 0.339147 -0.453995
vn 0.823934 0.339147 -0.453995
vn 0.278214 -0.866398 -0.414670
vn 0.278214 -0.866398 -0.414670
vn 0.278214 -0.866398 -0.414670
vn 0.278214 -0.866398 -0.414670
vn 0.565927 0.739726 0.364049
vn 0.565927 0.739726 0.364049
vn 0.565927 0.739726 0.364049
vn 0.923549 0.337087 0.182836
vn 0.923549 0.337087 0.182836
vn 0.923549 0.337087 0.182836
vn 0.923549 0.337087 0.182836
vn 0.812181 -0.583232 0.014264
vn 0.812181 -0.583231 0.014264
vn 0.812181 -0.583231 0.014264
vn 0.812181 -0.583231 0.014264
vn 0.811861 -0.573335 0.110310
vn 0.811861 -0.573335 0.110310
vn 0.811861 -0.573335 0.110310
vn 0.811861 -0.573335 0.110310
vn 0.992440 0.112349 -0.049412
vn 0.992440 0.112349 -0.049412
vn 0.992439 0.112349 -0.049412
vn 0.992439 0.112349 -0.049412
vn 0.962016 -0.115194 0.247500
vn 0.962016 -0.115194 0.247500
vn 0.962016 -0.115194 0.247500
vn 0.962016 -0.115194 0.247500
vn 0.514552 -0.840367 0.170351
vn 0.514552 -0.840367 0.170351
vn 0.514552 -0.840367 0.170351
vn 0.514552 -0.840367 0.170351
vn 0.559863 -0.804831 0.196978
vn 0.559863 -0.804831 0.196978
vn 0.559863 -0.804831 0.196978
vn 0.559863 -0.804831 0.196978
vn 0.889970 -0.088459 0.447357
vn 0.889970 -0.088459 0.447357
vn 0.889970 -0.088459 0.447357
vn 0.889970 -0.088459 0.447357
vn 0.683267 -0.646638 0.339123
vn 0.683267 -0.646638 0.339123
vn 0.683267 -0.646638 0.339123
vn 0.683267 -0.646638 0.339123
vn 0.900019 -0.128879 0.416361
vn 0.900019 -0.128879 0.416361
vn 0.900019 -0.128879 0.416361
vn 0.900019 -0.128879 0.416361
vn 0.329796 -0.943451 -0.033679
vn 0.329796 -0.943451 -0.033679
vn 0.329796 -0.943451 -0.033679
vn 0.329796 -0.943451 -0.033679
vn 0.340952 -0.282355 0.896676
vn 0.340952 -0.282355 0.896676
vn 0.340952 -0.282355 0.896676
vn 0.340952 -0.282355 0.896676
vn 0.429420 -0.197578 -0.881227
vn 0.429421 -0.197578 -0.881227
vn 0.429421 -0.197578 -0.881227
vn 0.429421 -0.197578 -0.881227
vn 0.503813 -0.623591 -0.597752
vn 0.503813 -0.623591 -0.597752
vn 0.503813 -0.623591 -0.597752
vn 0.993005 -0.007670 -0.117822
vn 0.993005 -0.007670 -0.117823
vn 0.993005 -0.007670 -0.117823
vn 0.176024 -0.238698 -0.955007
vn 0.176024 -0.238698 -0.955007
vn 0.176024 -0.238698 -0.955007
vn 0.176024 -0.238698 -0.955007
vn 0.202264 -0.824697 -0.528171
vn 0.202264 -0.824697 -0.528171
vn 0.202264 -0.824697 -0.528171
vn 0.202264 -0.824697 -0.528171
vn -0.641271 0.330172 0.692646
vn -0.641271 0.330172 0.692646
vn -0.641271 0.330172 0.692646
vn -0.260084 0.853789 0.451000
vn -0.260084 0.853789 0.451000
vn -0.260084 0.853789 0.451000
vn -0.260084 0.853789 0.451000
vn 0.711638 0.668172 0.217066
vn 0.711638 0.668172 0.217066
vn 0.711638 0.668172 0.217066
vn 0.711638 0.668172 0.217066
vn -0.412359 0.874540 -0.255225
vn -0.412359 0.874540 -0.255225
vn -0.412359 0.874540 -0.255225
vn -0.412359 0.874540 -0.255225
vn -0.438003 -0.245024 -0.864937
vn -0.438003 -0.245024 -0.864937
vn -0.438003 -0.245024 -0.864937
vn 0.726302 0.669762 0.154608
vn 0.726302 0.669763 0.154608
vn 0.726302 0.669763 0.154608
vn 0.726302 0.669762 0.154608
vn 0.358487 0.919252 0.162674
vn 0.358487 0.919252 0.162674
vn 0.358487 0.919252 0.162674
vn 0.358487 0.919252 0.162674
vn 0.189383 -0.943093 0.273331
vn 0.189383 -0.943093 0.273331
vn 0.189383 -0.943093 0.273331
vn 0.189383 -0.943093 0.273331
vn 0.012852 0.733671 0.679383
vn 0.012852 0.733671 0.679383
vn 0.012852 0.733671 0.679383
vn -0.139092 -0.792953 0.593194
vn -0.139092 -0.792953 0.593194
vn -0.139092 -0.792953 0.593194
vn -0.428652 -0.142877 0.892101
vn -0.428651 -0.142877 0.892101
vn -0.428651 -0.142877 0.892101
vn -0.428651 -0.142877 0.892101
vn 0.098587 0.556130 0.825227
vn 0.098587 0.556130 0.825227
vn 0.098587 0.556130 0.825227
vn 0.098587 0.556130 0.825227
vn 0.707258 -0.538107 0.458506
vn 0.707258 -0.538107 0.458506
vn 0.707258 -0.538107 0.458506
vn -0.521816 -0.388878 -0.759264
vn -0.521816 -0.388878 -0.759264
vn -0.521816 -0.388878 -0.759264
vn -0.521816 -0.388878 -0.759264
vn -0.790836 0.179018 0.585261
vn -0.790836 0.179018 0.585261
vn -0.790836 0.179018 0.585261
vn -0.790836 0.179018 0.585261
vn 0.439269 0.260088 0.859882
vn 0.439269 0.260088 0.859882
vn 0.439269 0.260088 0.859882
vn 0.439269 0.260088 0.859882
vn 0.948172 0.028788 -0.316452
vn 0.948172 0.028788 -0.316452
vn 0.948172 0.028788 -0.316452
vn 0.948172 0.028788 -0.316452
vn -0.382468 0.229978 -0.894890
vn -0.382468 0.229978 -0.894890
vn -0.382468 0.229978 -0.894890
vn -0.382468 0.229978 -0.894890
vn -0.478460 -0.366755 0.797851
vn -0.478460 -0.366755 0.797852
vn -0.478460 -0.366755 0.797852
vn -0.478460 -0.366755 0.797852
vn 0.685553 -0.271623 0.675454
vn 0.685553 -0.271623 0.675454
vn 0.685553 -0.271623 0.675453
vn 0.685553 -0.271623 0.675453
vn 0.782228 -0.410915 0.468262
vn 0.782228 -0.410915 0.468262
vn 0.782228 -0.410915 0.468262
vn 0.782228 -0.410915 0.468262
vn 0.823582 0.176843 0.538924
vn 0.823582 0.176843 0.538924
vn 0.823582 0.176843 0.538924
vn 0.823582 0.176843 0.538924
vn -0.889288 0.354992 -0.288353
vn -0.889288 0.354992 -0.288353
vn -0.889288 0.354992 -0.288353
vn -0.889288 0.354992 -0.288353
vn 0.967958 -0.244614 -0.056753
vn 0.967958 -0.244614 -0.056753
vn 0.967958 -0.244614 -0.056753
vn 0.967958 -0.244614 -0.056753
vn -0.840569 -0.520751 0.149203
vn -0.840569 -0.520751 0.149203
vn -0.840569 -0.520751 0.149203
vn -0.217209 -0.073428 0.973360
vn -0.217209 -0.073428 0.973360
vn -0.217209 -0.073428 0.973360
vn -0.992117 -0.048650 -0.115485
vn -0.992117 -0.048650 -0.115485
vn -0.992117 -0.048650 -0.115485
vn -0.992117 -0.048650 -0.115485
vn 0.941911 -0.229134 0.245563
vn 0.941911 -0.229134 0.245563
vn 0.941911 -0.229134 0.245563
vn 0.941911 -0.229134 0.245563
vn 0.726586 0.121797 -0.676194
vn 0.726586 0.121797 -0.676194
vn 0.726586 0.121797 -0.676194
vn 0.726586 0.121797 -0.676194
vn -0.590574 0.277495 -0.757772
vn -0.590574 0.277495 -0.757772
vn -0.590574 0.277495 -0.757772
vn -0.157245 -0.534001 0.830733
vn -0.157246 -0.534001 0.830733
vn -0.157245 -0.534001 0.830733
vn -0.157245 -0.534001 0.830733
vn -0.997348 0.017350 0.070688
vn -0.997348 0.017350 0.070688
vn -0.997348 0.017350 0.070688
vn -0.087984 0.798279 0.595826
vn -0.087984 0.798279 0.595826
vn -0.087984 0.798279 0.595826
vn 0.892016 -0.270794 0.361909
vn 0.892016 -0.270794 0.361909
vn 0.892016 -0.270794 0.361909
vn 0.760694 -0.241320 0.602586
vn 0.760694 -0.241320 0.602586
vn 0.760694 -0.241320 0.602586
vn -0.519531 0.633051 -0.573877
vn -0.519531 0.633051 -0.573877
vn -0.519531 0.633051 -0.573877
vn -0.519531 0.633051 -0.573877
vn -0.398488 -0.765375 -0.505379
vn -0.398488 -0.765375 -0.505379
vn -0.398488 -0.765375 -0.505379
vn -0.398488 -0.765375 -0.505379
vn -0.690154 0.695710 0.199186
vn -0.690154 0.695710 0.199186
vn -0.690154 0.695710 0.199186
vn -0.739134 0.464817 0.487469
vn -0.739134 0.464817 0.487469
vn -0.739134 0.464817 0.487469
vn -0.739134 0.464817 0.487469
vn -0.574473 -0.814590 0.080150
vn -0.574473 -0.814590 0.080150
vn -0.574473 -0.814590 0.080150
vn -0.574473 -0.814590 0.080150
vn -0.951104 -0.307938 0.023992
vn -0.951104 -0.307939 0.023992
vn -0.951104 -0.307939 0.023992
vn -0.951104 -0.307938 0.023992
vn -0.994971 0.088301 -0.047276
vn -0.994971 0.088301 -0.047276
vn -0.994971 0.088301 -0.047276
vn -0.994971 0.088301 -0.047276
vn -0.952806 -0.166316 0.253969
vn -0.952806 -0.166316 0.253969
vn -0.952806 -0.166316 0.253969
vn -0.952806 -0.166316 0.253969
vn -0.535560 -0.819667 0.203278
vn -0.535560 -0.819667 0.203278
vn -0.535560 -0.819667 0.203278
vn -0.535560 -0.819667 0.203278
vn -0.467507 -0.863541 0.189035
vn -0.467507 -0.863541 0.189035
vn -0.467507 -0.863541 0.189035
vn -0.467507 -0.863541 0.189035
vn -0.830499 -0.220823 0.511379
vn -0.830499 -0.220823 0.511379
vn -0.830499 -0.220823 0.511379
vn -0.830499 -0.220823 0.511379
vn -0.811455 -0.258473 0.524150
vn -0.811455 -0.258473 0.524150
vn -0.811455 -0.258473 0.524150
vn -0.811455 -0.258473 0.524150
vn -0.842620 -0.211528 0.495225
vn -0.842620 -0.211528 0.495225
vn -0.842620 -0.211528 0.495225
vn -0.842620 -0.211528 0.495225
vn -0.298752 -0.953399 -0.042175
vn -0.298752 -0.953399 -0.042175
vn -0.298752 -0.953399 -0.042175
vn -0.298752 -0.953399 -0.042175
vn -0.332447 -0.300908 0.893830
vn -0.332447 -0.300908 0.893830
vn -0.332447 -0.300908 0.893831
vn -0.332447 -0.300908 0.893830
vn -0.452111 -0.185045 -0.872556
vn -0.452111 -0.185045 -0.872556
vn -0.452111 -0.185045 -0.872556
vn -0.452111 -0.185045 -0.872556
vn -0.465225 -0.585069 -0.664274
vn -0.465225 -0.585069 -0.664274
vn -0.465225 -0.585069 -0.664274
vn -0.878166 0.473440 0.068408
vn -0.878166 0.473440 0.068408
vn -0.878166 0.473440 0.068408
vn -0.419603 -0.653418 -0.630062
vn -0.419603 -0.653418 -0.630062
vn -0.419603 -0.653418 -0.630062
vn -0.419603 -0.653418 -0.630062
vn -0.398982 -0.899045 -0.180363
vn -0.398982 -0.899045 -0.180363
vn -0.398982 -0.899045 -0.180363
vn -0.398982 -0.899045 -0.180363
vn 0.437009 0.457834 0.774216
vn 0.437009 0.457834 0.774217
vn 0.437009 0.457834 0.774216
vn 0.079923 0.802365 0.591459
vn 0.079923 0.802365 0.591459
vn 0.079923 0.802365 0.591459
vn 0.079923 0.802365 0.591459
vn -0.985573 0.141359 0.093077
vn -0.985573 0.141359 0.093077
vn -0.985573 0.141359 0.093077
vn -0.985573 0.141359 0.093077
vn 0.189796 0.802759 -0.565292
vn 0.189795 0.802759 -0.565292
vn 0.189796 0.802759 -0.565292
vn 0.189796 0.802759 -0.565292
vn 0.510569 -0.151729 -0.846344
vn 0.510569 -0.151729 -0.846344
vn 0.510569 -0.151729 -0.846344
vn -0.984233 0.151676 0.090997
vn -0.984233 0.151676 0.090997
vn -0.984233 0.151676 0.090997
vn -0.984233 0.151676 0.090997
vn -0.517765 0.848284 0.111060
vn -0.517765 0.848284 0.111060
vn -0.517765 0.848284 0.111060
vn -0.517765 0.848284 0.111060
vn -0.173988 -0.943815 0.280965
vn -0.173988 -0.943815 0.280965
vn -0.173988 -0.943815 0.280965
vn -0.173988 -0.943815 0.280965
vn -0.315312 0.025843 0.948636
vn -0.315312 0.025843 0.948636
vn -0.315312 0.025843 0.948636
vn -0.040775 -0.610556 0.790923
vn -0.040775 -0.610556 0.790923
vn -0.040775 -0.610556 0.790923
vn -0.471164 0.559216 0.682116
vn -0.471164 0.559217 0.682116
vn -0.471164 0.559217 0.682116
vn -0.210899 0.596597 0.774334
vn -0.210899 0.596597 0.774334
vn -0.210899 0.596597 0.774334
vn -0.210899 0.596597 0.774334
vn -0.771218 -0.600253 0.211940
vn -0.771218 -0.600253 0.211940
vn -0.771218 -0.600253 0.211940
vn 0.409617 -0.196601 -0.890821
vn 0.409616 -0.196601 -0.890821
vn 0.409617 -0.196601 -0.890821
vn 0.409617 -0.196601 -0.890821
vn 0.767497 0.095069 0.633964
vn 0.767497 0.095069 0.633964
vn 0.767497 0.095069 0.633964
vn 0.767497 0.095069 0.633964
vn -0.478248 0.206752 0.853541
vn -0.478248 0.206752 0.853541
vn -0.478248 0.206752 0.853541
vn -0.478248 0.206752 0.853541
vn -0.860764 0.082343 -0.502300
vn -0.860764 0.082343 -0.502300
vn -0.860764 0.082343 -0.502300
vn -0.860764 0.082343 -0.502299
vn 0.400364 0.270150 -0.875630
vn 0.400364 0.270150 -0.875630
vn 0.400364 0.270150 -0.875630
vn 0.400364 0.270150 -0.875630
vn 0.527992 -0.372310 0.763288
vn 0.527992 -0.372310 0.763288
vn 0.527992 -0.372310 0.763288
vn 0.527992 -0.372310 0.763288
vn -0.704275 -0.291843 0.647166
vn -0.704275 -0.291843 0.647166
vn -0.704275 -0.291843 0.647166
vn -0.704275 -0.291843 0.647166
vn -0.736880 -0.446192 0.507859
vn -0.736880 -0.446192 0.507859
vn -0.736880 -0.446192 0.507859
vn -0.736880 -0.446192 0.507859
vn -0.881034 0.143595 0.450732
vn -0.881034 0.143595 0.450732
vn -0.881034 0.143595 0.450731
vn -0.881034 0.143595 0.450732
vn 0.858883 0.400413 -0.319356
vn 0.858883 0.400413 -0.319357
vn 0.858883 0.400413 -0.319356
vn 0.858883 0.400413 -0.319356
vn -0.964742 -0.241741 -0.104085
vn -0.964742 -0.241741 -0.104085
vn -0.964742 -0.241741 -0.104085
vn -0.964742 -0.241741 -0.104085
vn 0.893571 -0.434104 0.114389
vn 0.893571 -0.434104 0.114389
vn 0.893571 -0.434104 0.114389
vn 0.893571 -0.434104 0.114389
vn 0.009960 -0.088418 0.996034
vn 0.009960 -0.088418 0.996034
vn 0.009960 -0.088418 0.996034
vn 0.009960 -0.088418 0.996034
vn 0.991847 -0.028563 -0.124190
vn 0.991847 -0.028563 -0.124190
vn 0.991847 -0.028563 -0.124190
vn 0.991847 -0.028563 -0.124190
vn -0.928874 -0.247799 0.275298
vn -0.928874 -0.247799 0.275298
vn -0.928874 -0.247799 0.275298
vn -0.928874 -0.247799 0.275298
vn -0.659450 0.169583 -0.732371
vn -0.659450 0.169583 -0.732371
vn -0.659450 0.169583 -0.732371
vn -0.659450 0.169583 -0.732371
vn 0.956873 0.136378 -0.256506
vn 0.956873 0.136378 -0.256506
vn 0.956873 0.136378 -0.256506
vn -0.218009 -0.615693 0.757228
vn -0.218009 -0.615693 0.757228
vn -0.218009 -0.615693 0.757228
vn -0.218009 -0.615693 0.757228
vn 0.996652 0.021407 0.078912
vn 0.996652 0.021407 0.078912
vn 0.996652 0.021407 0.078912
vn 0.280486 0.825469 0.489825
vn 0.280486 0.825469 0.489825
vn 0.280486 0.825469 0.489825
vn 0.728713 -0.684760 0.009034
vn 0.728713 -0.684760 0.009034
vn 0.728713 -0.684760 0.009034
vn 0.728712 -0.684760 0.009034
vn -0.661241 -0.749623 0.028740
vn -0.661241 -0.749623 0.028740
vn -0.661241 -0.749623 0.028740
vn -0.661241 -0.749623 0.028740
vn 0.130953 -0.770505 0.623837
vn 0.130953 -0.770505 0.623837
vn 0.130953 -0.770505 0.623837
vn 0.156687 -0.987476 -0.018448
vn 0.156687 -0.987476 -0.018448
vn 0.156687 -0.987476 -0.018448
vn 0.474554 0.005699 0.880208
vn 0.474554 0.005699 0.880208
vn 0.474554 0.005699 0.880208
vn 0.475489 0.073133 0.876676
vn 0.475489 0.073133 0.876676
vn 0.475489 0.073133 0.876676
vn -0.117757 -0.991249 -0.059660
vn -0.117757 -0.991249 -0.059660
vn -0.117757 -0.991249 -0.059660
vn -0.173164 -0.195843 0.965225
vn -0.173164 -0.195843 0.965225
vn -0.173164 -0.195843 0.965225
vn -0.241330 -0.323711 -0.914861
vn -0.241330 -0.323711 -0.914861
vn -0.241330 -0.323711 -0.914861
vn -0.057669 -0.637346 0.768417
vn -0.057669 -0.637346 0.768417
vn -0.057669 -0.637346 0.768417
vn -0.094735 -0.849983 0.518222
vn -0.094735 -0.849983 0.518222
vn -0.094735 -0.849983 0.518222
vn -0.044058 -0.806747 0.589252
vn -0.044058 -0.806747 0.589252
vn -0.044058 -0.806747 0.589252
vn 0.064693 -0.765103 0.640650
vn 0.064693 -0.765103 0.640650
vn 0.064693 -0.765103 0.640650
vn 0.277716 -0.632498 0.723063
vn 0.277716 -0.632498 0.723063
vn 0.277716 -0.632498 0.723063
vn -0.067211 -0.702224 0.708777
vn -0.067211 -0.702224 0.708777
vn -0.067211 -0.702224 0.708777
vn -0.147997 -0.988988 0.000087
vn -0.147997 -0.988988 0.000087
vn -0.147997 -0.988988 0.000087
vn -0.473902 -0.109043 0.873800
vn -0.473902 -0.109043 0.873800
vn -0.473902 -0.109043 0.873800
vn -0.478855 -0.022870 0.877596
vn -0.478855 -0.022870 0.877596
vn -0.478855 -0.022870 0.877596
vn 0.119848 -0.991194 -0.056319
vn 0.119848 -0.991193 -0.056319
vn 0.119848 -0.991194 -0.056319
vn 0.172426 -0.199591 0.964590
vn 0.172426 -0.199591 0.964590
vn 0.172426 -0.199591 0.964590
vn 0.244041 -0.314510 -0.917348
vn 0.244041 -0.314510 -0.917348
vn 0.244041 -0.314510 -0.917348
vn -0.044295 -0.688634 0.723755
vn -0.044295 -0.688634 0.723755
vn -0.044295 -0.688634 0.723755
vn 0.090121 -0.874839 0.475956
vn 0.090121 -0.874839 0.475956
vn 0.090121 -0.874839 0.475956
vn 0.005497 -0.807364 0.590029
vn 0.005497 -0.807364 0.590029
vn 0.005497 -0.807364 0.590029
vn -0.114347 -0.747199 0.654689
vn -0.114347 -0.747199 0.654689
vn -0.114347 -0.747199 0.654689
vn -0.254953 -0.644633 0.720727
vn -0.254953 -0.644633 0.720727
vn -0.254953 -0.644633 0.720727
vn 0.279111 -0.053121 0.958788
vn 0.279111 -0.053121 0.958788
vn 0.279111 -0.053121 0.958788
vn -0.402770 0.664189 0.629785
vn -0.402770 0.664189 0.629786
vn -0.402770 0.664189 0.629785
vn 0.289666 -0.541008 0.789559
vn 0.289666 -0.541008 0.789559
vn 0.289666 -0.541008 0.789559
vn -0.190548 -0.580477 0.791668
vn -0.190548 -0.580477 0.791668
vn -0.190548 -0.580477 0.791668
vn -0.185003 -0.119743 0.975416
vn -0.185003 -0.119743 0.975416
vn -0.185003 -0.119743 0.975416
vn -0.185003 -0.119743 0.975416
vn 0.174671 0.933124 -0.314276
vn 0.174671 0.933124 -0.314276
vn 0.174671 0.933124 -0.314276
vn 0.989190 -0.132033 -0.063804
vn 0.989190 -0.132033 -0.063804
vn 0.989190 -0.132033 -0.063804
vn 0.989190 -0.132033 -0.063804
vn 0.231973 0.236552 -0.943521
vn 0.231973 0.236552 -0.943521
vn 0.231973 0.236552 -0.943521
vn 0.231973 0.236552 -0.943521
vn 0.323949 0.929520 -0.176212
vn 0.323949 0.929520 -0.176212
vn 0.323949 0.929520 -0.176212
vn 0.441995 -0.388476 0.808534
vn 0.441995 -0.388476 0.808534
vn 0.441995 -0.388476 0.808534
vn 0.441995 -0.388476 0.808534
vn 0.617027 -0.781066 0.095989
vn 0.617027 -0.781066 0.095989
vn 0.617027 -0.781066 0.095989
vn 0.617027 -0.781066 0.095989
vn 0.822882 -0.086724 -0.561555
vn 0.822882 -0.086724 -0.561555
vn 0.822882 -0.086724 -0.561555
vn 0.822882 -0.086724 -0.561555
vn 0.915209 -0.276756 0.292915
vn 0.915209 -0.276756 0.292915
vn 0.915209 -0.276756 0.292915
vn 0.915209 -0.276756 0.292915
vn 0.643519 0.764381 0.040058
vn 0.643519 0.764381 0.040058
vn 0.643519 0.764381 0.040058
vn 0.643519 0.764381 0.040058
vn 0.576782 0.124213 0.807399
vn 0.576782 0.124213 0.807399
vn 0.576782 0.124213 0.807399
vn 0.576782 0.124213 0.807399
vn 0.036417 -0.988150 -0.149106
vn 0.036417 -0.988150 -0.149106
vn 0.036417 -0.988150 -0.149106
vn 0.036417 -0.988150 -0.149106
vn 0.681705 -0.174836 -0.710430
vn 0.681705 -0.174836 -0.710430
vn 0.681705 -0.174836 -0.710430
vn 0.681705 -0.174836 -0.710430
vn 0.003658 0.471386 0.881919
vn 0.003658 0.471386 0.881919
vn 0.003658 0.471386 0.881919
vn 0.003658 0.471386 0.881919
vn 0.938152 0.061369 0.340741
vn 0.938152 0.061369 0.340741
vn 0.938152 0.061369 0.340741
vn 0.938152 0.061369 0.340741
vn 0.537011 0.046668 -0.842284
vn 0.537011 0.046668 -0.842284
vn 0.537011 0.046668 -0.842284
vn 0.537011 0.046668 -0.842284
vn -0.505233 0.838361 0.204673
vn -0.505233 0.838361 0.204673
vn -0.505233 0.838361 0.204673
vn -0.505233 0.838361 0.204673
vn -0.263842 0.740979 -0.617526
vn -0.263842 0.740979 -0.617526
vn -0.263842 0.740979 -0.617526
vn -0.263842 0.740979 -0.617526
vn -0.243175 -0.114978 -0.963144
vn -0.243175 -0.114978 -0.963144
vn -0.243175 -0.114978 -0.963144
vn -0.243175 -0.114978 -0.963144
vn -0.967772 -0.179244 -0.176884
vn -0.967772 -0.179244 -0.176884
vn -0.967772 -0.179244 -0.176884
vn -0.967772 -0.179244 -0.176884
vn -0.672929 0.724249 -0.150436
vn -0.672929 0.724249 -0.150436
vn -0.672929 0.724249 -0.150436
vn -0.672929 0.724249 -0.150436
vn -0.889768 -0.443861 0.106306
vn -0.889768 -0.443861 0.106306
vn -0.889768 -0.443861 0.106306
vn -0.889768 -0.443861 0.106306
vn -0.801077 -0.143140 -0.581195
vn -0.801077 -0.143140 -0.581195
vn -0.801077 -0.143140 -0.581195
vn -0.801077 -0.143140 -0.581195
vn -0.603271 -0.779639 0.168010
vn -0.603271 -0.779639 0.168010
vn -0.603271 -0.779639 0.168010
vn -0.603271 -0.779639 0.168010
vn -0.539099 -0.440127 0.718095
vn -0.539099 -0.440127 0.718095
vn -0.539099 -0.440127 0.718095
vn -0.539099 -0.440127 0.718095
vn -0.747785 -0.000449 -0.663941
vn -0.747785 -0.000449 -0.663941
vn -0.747785 -0.000449 -0.663941
vn -0.747785 -0.000449 -0.663941
vn -0.063747 -0.986420 -0.151366
vn -0.063747 -0.986420 -0.151366
vn -0.063747 -0.986420 -0.151366
vn -0.063747 -0.986420 -0.151366
vn -0.547492 0.024565 0.836451
vn -0.547492 0.024565 0.836451
vn -0.547492 0.024565 0.836451
vn -0.547492 0.024565 0.836451
vn -0.600441 0.796592 0.070091
vn -0.600441 0.796592 0.070091
vn -0.600441 0.796592 0.070091
vn -0.600441 0.796592 0.070091
vn 0.410881 0.875734 -0.253510
vn 0.410881 0.875734 -0.253510
vn 0.410881 0.875734 -0.253510
vn 0.410881 0.875734 -0.253510
vn -0.072286 0.842179 -0.534331
vn -0.072286 0.842179 -0.534331
vn -0.072286 0.842179 -0.534331
vn -0.072286 0.842179 -0.534331
vn -0.102871 0.200954 0.974184
vn -0.102871 0.200954 0.974184
vn -0.102871 0.200954 0.974184
vn 0.508601 0.859140 0.056603
vn 0.508601 0.859140 0.056603
vn 0.508601 0.859140 0.056603
vn 0.508601 0.859140 0.056603
vn -0.908141 0.255966 -0.331303
vn -0.908141 0.255966 -0.331303
vn -0.908141 0.255966 -0.331303
vn -0.908141 0.255966 -0.331303
vn -0.925103 0.044929 0.377048
vn -0.925103 0.044929 0.377048
vn -0.925103 0.044929 0.377048
vn -0.925103 0.044929 0.377048
vn -0.116591 0.514747 0.849377
vn -0.116591 0.514747 0.849377
vn -0.116591 0.514747 0.849377
vn -0.116591 0.514747 0.849377
vn -0.259111 -0.002601 0.965844
vn -0.259111 -0.002601 0.965844
vn -0.259111 -0.002601 0.965844
vn -0.259111 -0.002601 0.965844
vn -0.214422 -0.954887 -0.205460
vn -0.214422 -0.954887 -0.205460
vn -0.214422 -0.954887 -0.205460
vn -0.214422 -0.954887 -0.205460
vn 0.853189 -0.095992 -0.512693
vn 0.853189 -0.095992 -0.512693
vn 0.853189 -0.095992 -0.512693
vn 0.853189 -0.095992 -0.512693
vn 0.946103 0.317858 0.062089
vn 0.946103 0.317858 0.062089
vn 0.946103 0.317858 0.062089
vn 0.946103 0.317858 0.062089
vn -0.949907 0.282396 0.133900
vn -0.949907 0.282396 0.133900
vn -0.949907 0.282396 0.133900
vn -0.949907 0.282396 0.133900
vn -0.932090 -0.142294 -0.333107
vn -0.932090 -0.142294 -0.333107
vn -0.932090 -0.142294 -0.333107
vn -0.932090 -0.142294 -0.333107
vn 0.007383 -0.990282 -0.138877
vn 0.007383 -0.990282 -0.138877
vn 0.007383 -0.990282 -0.138877
vn 0.007383 -0.990282 -0.138877
vn 0.376478 -0.205400 0.903369
vn 0.376478 -0.205400 0.903369
vn 0.376478 -0.205400 0.903369
vn 0.376478 -0.205400 0.903369
vn 0.739083 0.226253 0.634481
vn 0.739083 0.226253 0.634481
vn 0.739083 0.226253 0.634481
vn 0.739083 0.226253 0.634481
vn 0.394656 -0.607165 0.689636
vn 0.394656 -0.607165 0.689635
vn 0.394656 -0.607165 0.689636
vn 0.394656 -0.607165 0.689636
vn 0.372916 -0.856287 -0.357361
vn 0.372916 -0.856286 -0.357361
vn 0.372916 -0.856286 -0.357361
vn 0.372916 -0.856287 -0.357361
vn 0.658651 0.573279 -0.487372
vn 0.658651 0.573279 -0.487372
vn 0.658651 0.573279 -0.487372
vn -0.716307 0.522154 -0.462883
vn -0.716306 0.522154 -0.462883
vn -0.716307 0.522154 -0.462883
vn -0.304465 -0.858399 -0.412859
vn -0.304465 -0.858399 -0.412859
vn -0.304465 -0.858399 -0.412859
vn -0.304465 -0.858399 -0.412859
vn -0.278464 -0.671859 0.686340
vn -0.278464 -0.671859 0.686340
vn -0.278464 -0.671859 0.686340
vn -0.278464 -0.671859 0.686340
vn -0.723332 0.199483 0.661058
vn -0.723332 0.199483 0.661058
vn -0.723332 0.199483 0.661058
vn -0.723332 0.199483 0.661058
vn 0.322930 0.486208 0.811984
vn 0.322930 0.486208 0.811984
vn 0.322930 0.486208 0.811984
vn 0.322930 0.486208 0.811984
vn -0.579614 -0.640239 0.504125
vn -0.579614 -0.640239 0.504125
vn -0.579614 -0.640239 0.504125
vn -0.579614 -0.640239 0.504125
vn -0.077855 -0.885409 -0.458247
vn -0.077855 -0.885409 -0.458247
vn -0.077855 -0.885409 -0.458247
vn -0.077855 -0.885408 -0.458247
vn 0.905819 0.102584 -0.411058
vn 0.905819 0.102584 -0.411058
vn 0.905819 0.102584 -0.411058
vn 0.905819 0.102584 -0.411058
vn -0.925928 0.200094 -0.320344
vn -0.925928 0.200094 -0.320344
vn -0.925928 0.200094 -0.320344
vn -0.925928 0.200094 -0.320344
vn -0.087966 -0.778618 -0.621302
vn -0.087966 -0.778618 -0.621302
vn -0.087965 -0.778618 -0.621302
vn -0.087965 -0.778618 -0.621302
vn 0.177007 -0.767246 0.616443
vn 0.177007 -0.767246 0.616443
vn 0.177007 -0.767246 0.616443
vn 0.177007 -0.767246 0.616443
vn -0.520168 0.348948 0.779526
vn -0.520168 0.348948 0.779526
vn -0.520168 0.348948 0.779526
vn -0.520168 0.348948 0.779526
vn 0.802687 -0.102657 -0.587499
vn 0.802687 -0.102657 -0.587499
vn 0.802687 -0.102657 -0.587499
vn 0.802687 -0.102657 -0.587499
vn 0.305091 0.132806 -0.943018
vn 0.305091 0.132806 -0.943018
vn 0.305091 0.132806 -0.943018
vn 0.305091 0.132806 -0.943018
vn 0.600956 0.124008 -0.789604
vn 0.600956 0.124008 -0.789604
vn 0.600956 0.124008 -0.789604
vn 0.600956 0.124008 -0.789604
vn -0.224923 0.163163 -0.960618
vn -0.224923 0.163163 -0.960618
vn -0.224923 0.163163 -0.960618
vn -0.224923 0.163163 -0.960618
vn 0.179429 0.338939 -0.923540
vn 0.179429 0.338939 -0.923540
vn 0.179429 0.338939 -0.923540
vn 0.179429 0.338939 -0.923540
vn 0.059974 0.314445 -0.947379
vn 0.059974 0.314445 -0.947379
vn 0.059974 0.314445 -0.947379
vn 0.059974 0.314445 -0.947379
vn -0.343514 0.169834 -0.923664
vn -0.343514 0.169834 -0.923664
vn -0.343514 0.169834 -0.923664
vn -0.343514 0.169834 -0.923664
vn -0.516096 0.152767 -0.842797
vn -0.516096 0.152767 -0.842797
vn -0.516096 0.152767 -0.842797
vn -0.516096 0.152767 -0.842797
vn 0.101535 0.737513 0.667656
vn 0.101535 0.737513 0.667656
vn 0.101535 0.737513 0.667656
vn 0.101535 0.737513 0.667656
vn 0.770209 0.545048 0.331210
vn 0.770209 0.545048 0.331210
vn 0.770209 0.545048 0.331210
vn 0.770209 0.545048 0.331210
vn 0.100314 0.865297 -0.491118
vn 0.100314 0.865297 -0.491118
vn 0.100314 0.865297 -0.491118
vn -0.180307 0.960078 0.213868
vn -0.180307 0.960078 0.213868
vn -0.180307 0.960078 0.213868
vn 0.159836 0.641494 0.750292
vn 0.159836 0.641494 0.750292
vn 0.159836 0.641494 0.750292
vn 0.159836 0.641494 0.750292
vn 0.544824 -0.837840 -0.034509
vn 0.544824 -0.837840 -0.034509
vn 0.544824 -0.837840 -0.034509
vn 0.544824 -0.837840 -0.034509
vn 0.280330 0.187185 -0.941476
vn 0.280330 0.187185 -0.941476
vn 0.280330 0.187185 -0.941476
vn 0.280330 0.187185 -0.941476
vn 0.027671 0.900869 0.433207
vn 0.027671 0.900869 0.433207
vn 0.027671 0.900869 0.433208
vn 0.027671 0.900869 0.433208
vn -0.017071 0.916824 0.398927
vn -0.017071 0.916824 0.398927
vn -0.017071 0.916824 0.398927
vn -0.017071 0.916824 0.398927
vn -0.595393 0.500385 -0.628588
vn -0.595393 0.500385 -0.628588
vn -0.595393 0.500385 -0.628588
vn -0.595393 0.500385 -0.628588
vn -0.777607 0.550857 0.303123
vn -0.777607 0.550857 0.303123
vn -0.777607 0.550857 0.303123
vn -0.777607 0.550857 0.303123
vn -0.164679 0.735819 0.656850
vn -0.164679 0.735819 0.656850
vn -0.164679 0.735819 0.656850
vn -0.164679 0.735819 0.656850
vn 0.070080 0.923791 0.376429
vn 0.070080 0.923791 0.376429
vn 0.070080 0.923791 0.376429
vn 0.070080 0.923791 0.376429
vn -0.558992 0.230410 -0.796517
vn -0.558992 0.230410 -0.796517
vn -0.558992 0.230410 -0.796517
vn -0.558992 0.230410 -0.796517
vn -0.384383 -0.917546 -0.101775
vn -0.384383 -0.917546 -0.101775
vn -0.384383 -0.917546 -0.101775
vn -0.384383 -0.917546 -0.101775
vn -0.161580 0.614518 0.772179
vn -0.161580 0.614518 0.772179
vn -0.161580 0.614518 0.772179
vn -0.161580 0.614518 0.772179
vn 0.860686 0.395182 0.321015
vn 0.860686 0.395182 0.321015
vn 0.860686 0.395182 0.321015
vn 0.860686 0.395182 0.321015
vn 0.796014 -0.050287 -0.603186
vn 0.796014 -0.050287 -0.603186
vn 0.796014 -0.050287 -0.603186
vn -0.103097 0.775769 0.622538
vn -0.103097 0.775769 0.622538
vn -0.103097 0.775769 0.622538
vn -0.103097 0.775769 0.622538
vn -0.157487 0.856939 -0.490768
vn -0.157487 0.856939 -0.490768
vn -0.157487 0.856939 -0.490768
vn -0.157487 0.856939 -0.490768
vn -0.568491 0.803056 -0.178659
vn -0.568491 0.803056 -0.178659
vn -0.568491 0.803056 -0.178659
vn 0.049277 0.998754 0.007840
vn 0.049277 0.998755 0.007840
vn 0.049277 0.998754 0.007840
vn -0.252815 0.440366 -0.861489
vn -0.252815 0.440366 -0.861489
vn -0.252815 0.440366 -0.861489
vn -0.252815 0.440366 -0.861489
vn -0.433397 -0.901191 -0.004727
vn -0.433397 -0.901191 -0.004727
vn -0.433397 -0.901191 -0.004727
vn -0.433397 -0.901191 -0.004727
vn -0.265607 0.099864 0.958895
vn -0.265607 0.099864 0.958895
vn -0.265607 0.099864 0.958895
vn -0.265607 0.099864 0.958895
vn -0.001709 0.948307 0.317350
vn -0.001709 0.948307 0.317350
vn -0.001709 0.948307 0.317350
vn -0.001709 0.948307 0.317350
vn 0.492235 0.750791 0.440475
vn 0.492235 0.750791 0.440475
vn 0.492235 0.750791 0.440475
vn 0.492235 0.750791 0.440475
vn -0.439826 0.765207 0.470119
vn -0.439826 0.765207 0.470119
vn -0.439826 0.765207 0.470119
vn -0.439826 0.765207 0.470119
vn -0.598745 -0.633488 -0.490099
vn -0.598745 -0.633488 -0.490099
vn -0.598745 -0.633488 -0.490099
vn -0.598745 -0.633488 -0.490099
vn -0.399126 -0.916189 0.036002
vn -0.399126 -0.916189 0.036002
vn -0.399126 -0.916189 0.036002
vn -0.399126 -0.916189 0.036002
vn -0.494247 -0.686591 0.533210
vn -0.494246 -0.686591 0.533210
vn -0.494246 -0.686591 0.533210
vn -0.494247 -0.686591 0.533210
vn -0.511454 0.561413 0.650562
vn -0.511454 0.561413 0.650562
vn -0.511454 0.561413 0.650562
vn -0.511454 0.561413 0.650562
vn -0.405125 0.889124 0.212913
vn -0.405125 0.889124 0.212913
vn -0.405125 0.889124 0.212913
vn -0.405125 0.889124 0.212913
vn -0.717328 0.587138 -0.375112
vn -0.717328 0.587138 -0.375112
vn -0.717328 0.587138 -0.375112
vn -0.717328 0.587138 -0.375112
vn 0.381891 -0.681617 0.624145
vn 0.381891 -0.681617 0.624145
vn 0.381891 -0.681617 0.624145
vn 0.381891 -0.681617 0.624145
vn 0.425241 -0.903683 0.050261
vn 0.425241 -0.903683 0.050261
vn 0.425241 -0.903683 0.050261
vn 0.425241 -0.903683 0.050261
vn 0.825481 -0.368331 -0.427684
vn 0.825481 -0.368331 -0.427684
vn 0.825481 -0.368331 -0.427684
vn 0.825481 -0.368331 -0.427684
vn 0.866091 0.355049 -0.351890
vn 0.866091 0.355049 -0.351890
vn 0.866091 0.355049 -0.351890
vn 0.866091 0.355049 -0.351890
vn 0.611744 0.773196 0.167147
vn 0.611744 0.773196 0.167147
vn 0.611744 0.773196 0.167147
vn 0.611744 0.773196 0.167147
vn 0.402687 0.708842 0.579125
vn 0.402687 0.708842 0.579125
vn 0.402687 0.708842 0.579125
vn 0.402687 0.708842 0.579125
vn 0.005566 0.995628 0.093238
vn 0.005566 0.995628 0.093238
vn 0.005566 0.995628 0.093238
vn 0.584868 0.778097 -0.229115
vn 0.584868 0.778097 -0.229115
vn 0.584868 0.778097 -0.229115
vn 0.584868 0.778097 -0.229115
vn 0.940021 -0.329594 0.087906
vn 0.940021 -0.329594 0.087906
vn 0.940021 -0.329594 0.087906
vn 0.940021 -0.329594 0.087906
vn 0.248383 -0.944559 -0.214741
vn 0.248383 -0.944559 -0.214741
vn 0.248383 -0.944559 -0.214741
vn 0.248383 -0.944559 -0.214741
vn -0.229224 0.045119 -0.972328
vn -0.229224 0.045119 -0.972328
vn -0.229224 0.045119 -0.972328
vn 0.888863 -0.219958 -0.401923
vn 0.888863 -0.219958 -0.401923
vn 0.888863 -0.219958 -0.401923
vn -0.672442 0.734216 0.093530
vn -0.672442 0.734216 0.093530
vn -0.672442 0.734216 0.093530
vn -0.100920 0.224611 -0.969208
vn -0.100920 0.224611 -0.969208
vn -0.100920 0.224611 -0.969208
vn -0.100920 0.224611 -0.969208
vn -0.475175 0.876993 -0.071358
vn -0.475175 0.876993 -0.071358
vn -0.475175 0.876993 -0.071358
vn -0.475175 0.876993 -0.071358
vn -0.415680 -0.803295 -0.426530
vn -0.415680 -0.803295 -0.426530
vn -0.415680 -0.803295 -0.426530
vn -0.415680 -0.803295 -0.426530
vn -0.955498 -0.277665 0.099629
vn -0.955498 -0.277665 0.099629
vn -0.955498 -0.277665 0.099629
vn -0.955498 -0.277665 0.099629
vn 0.148207 -0.112767 -0.982506
vn 0.148207 -0.112767 -0.982506
vn 0.148207 -0.112767 -0.982506
vn -0.118583 0.173782 -0.977618
vn -0.118583 0.173782 -0.977618
vn -0.118583 0.173782 -0.977618
vn 0.180689 0.853282 -0.489144
vn 0.180689 0.853282 -0.489144
vn 0.180689 0.853282 -0.489144
vn 0.532458 0.815708 -0.226071
vn 0.532458 0.815708 -0.226071
vn 0.532458 0.815708 -0.226071
vn 0.178189 -0.059211 -0.982213
vn 0.178189 -0.059211 -0.982213
vn 0.178189 -0.059211 -0.982213
vn 0.178189 -0.059211 -0.982213
vn 0.083175 0.988617 0.125374
vn 0.083175 0.988617 0.125374
vn 0.083175 0.988617 0.125374
vn 0.083175 0.988617 0.125374
vn -0.026825 -0.033342 -0.999084
vn -0.026825 -0.033342 -0.999084
vn -0.026825 -0.033342 -0.999084
vn -0.026825 -0.033342 -0.999084
vn -0.968171 0.063797 -0.242024
vn -0.968171 0.063797 -0.242024
vn -0.968171 0.063797 -0.242024
vn -0.968171 0.063797 -0.242024
vn -0.817008 0.565800 0.111212
vn -0.817008 0.565800 0.111212
vn -0.817008 0.565800 0.111212
vn -0.817008 0.565800 0.111212
vn -0.254373 -0.380944 -0.888919
vn -0.254373 -0.380944 -0.888919
vn -0.254373 -0.380944 -0.888919
vn -0.254373 -0.380944 -0.888919
vn 0.095203 0.029598 -0.995018
vn 0.095203 0.029598 -0.995018
vn 0.095203 0.029598 -0.995018
vn 0.095203 0.029598 -0.995018
vn 0.869936 -0.387258 -0.305358
vn 0.869936 -0.387258 -0.305358
vn 0.869936 -0.387258 -0.305358
vn 0.869936 -0.387258 -0.305358
vn -0.093386 -0.660130 0.745323
vn -0.093386 -0.660130 0.745323
vn -0.093386 -0.660130 0.745323
vn -0.093386 -0.660130 0.745323
vn -0.540940 -0.733336 -0.411828
vn -0.540940 -0.733336 -0.411828
vn -0.540940 -0.733336 -0.411828
vn -0.540940 -0.733336 -0.411828
vn 0.865023 -0.478990 0.149346
vn 0.865023 -0.478990 0.149346
vn 0.865023 -0.478990 0.149346
vn 0.865023 -0.478990 0.149346
vn 0.454007 -0.089150 0.886527
vn 0.454007 -0.089150 0.886527
vn 0.454006 -0.089150 0.886527
vn 0.454007 -0.089150 0.886527
vn 0.316542 -0.037507 0.947837
vn 0.316542 -0.037507 0.947837
vn 0.316542 -0.037507 0.947837
vn 0.316542 -0.037507 0.947837
vn 0.393680 0.634598 0.665058
vn 0.393680 0.634598 0.665058
vn 0.393680 0.634598 0.665058
vn 0.375825 0.849402 0.370503
vn 0.375825 0.849402 0.370503
vn 0.375825 0.849402 0.370503
vn 0.404349 0.624831 0.667898
vn 0.404349 0.624831 0.667898
vn 0.404349 0.624831 0.667898
vn -0.829292 -0.419722 -0.368930
vn -0.829292 -0.419721 -0.368930
vn -0.829292 -0.419721 -0.368930
vn -0.829292 -0.419721 -0.368930
vn -0.137434 -0.136109 -0.981115
vn -0.137434 -0.136109 -0.981115
vn -0.137434 -0.136109 -0.981115
vn -0.137434 -0.136109 -0.981115
vn 0.315268 -0.597680 -0.737146
vn 0.315268 -0.597680 -0.737146
vn 0.315268 -0.597680 -0.737146
vn 0.315268 -0.597680 -0.737146
vn -0.853570 -0.438543 0.281244
vn -0.853570 -0.438543 0.281244
vn -0.853570 -0.438543 0.281244
vn -0.853570 -0.438543 0.281244
vn 0.338650 -0.911341 -0.234039
vn 0.338650 -0.911341 -0.234039
vn 0.338650 -0.911341 -0.234039
vn 0.338650 -0.911341 -0.234039
vn 0.056570 -0.531385 0.845240
vn 0.056570 -0.531385 0.845240
vn 0.056570 -0.531385 0.845240
vn 0.056570 -0.531385 0.845240
vn -0.776133 -0.236775 -0.584427
vn -0.776133 -0.236775 -0.584427
vn -0.776133 -0.236775 -0.584427
vn -0.776133 -0.236775 -0.584427
vn -0.343700 0.503419 -0.792742
vn -0.343700 0.503419 -0.792742
vn -0.343700 0.503419 -0.792742
vn -0.343700 0.503419 -0.792742
vn 0.668672 -0.110077 -0.735364
vn 0.668672 -0.110077 -0.735364
vn 0.668672 -0.110077 -0.735364
vn 0.668672 -0.110077 -0.735364
vn -0.193668 -0.961793 -0.193515
vn -0.193668 -0.961793 -0.193515
vn -0.193668 -0.961793 -0.193515
vn -0.193668 -0.961793 -0.193515
vn -0.998670 -0.030593 -0.041493
vn -0.998670 -0.030593 -0.041493
vn -0.998670 -0.030593 -0.041493
vn -0.998670 -0.030593 -0.041493
vn -0.443411 0.174158 -0.879236
vn -0.443411 0.174158 -0.879236
vn -0.443411 0.174158 -0.879236
vn -0.443411 0.174158 -0.879236
vn 0.411092 -0.498402 -0.763281
vn 0.411092 -0.498402 -0.763281
vn 0.411092 -0.498402 -0.763281
vn 0.411092 -0.498402 -0.763281
vn -0.080057 -0.700242 0.709402
vn -0.080057 -0.700242 0.709402
vn -0.080057 -0.700242 0.709402
vn -0.080057 -0.700242 0.709402
vn 0.176612 -0.978219 0.109069
vn 0.176612 -0.978219 0.109069
vn 0.176612 -0.978219 0.109069
vn 0.176612 -0.978219 0.109069
vn -0.666410 -0.255714 -0.700363
vn -0.666410 -0.255714 -0.700363
vn -0.666410 -0.255714 -0.700363
vn -0.666410 -0.255714 -0.700363
vn 0.308152 0.294492 -0.904609
vn 0.308152 0.294492 -0.904609
vn 0.308152 0.294492 -0.904609
vn 0.308152 0.294492 -0.904609
vn 0.681137 -0.355902 -0.639833
vn 0.681137 -0.355902 -0.639833
vn 0.681137 -0.355902 -0.639833
vn 0.681137 -0.355902 -0.639833
vn 0.018707 -0.407079 0.913201
vn 0.018707 -0.407079 0.913201
vn 0.018707 -0.407079 0.913201
vn 0.018707 -0.407079 0.913201
vn -0.469364 -0.668530 -0.576858
vn -0.469364 -0.668530 -0.576858
vn -0.469364 -0.668530 -0.576858
vn -0.469364 -0.668530 -0.576858
vn 0.336378 0.035225 -0.941068
vn 0.336378 0.035225 -0.941068
vn 0.336378 0.035225 -0.941068
vn 0.336378 0.035225 -0.941068
vn 0.934000 0.355287 -0.037614
vn 0.934000 0.355287 -0.037614
vn 0.934000 0.355287 -0.037614
vn 0.934000 0.355287 -0.037614
vn 0.601762 0.757799 0.252234
vn 0.601762 0.757799 0.252235
vn 0.601762 0.757799 0.252234
vn 0.601762 0.757799 0.252234
vn 0.703676 -0.597773 0.384067
vn 0.703676 -0.597773 0.384067
vn 0.703676 -0.597773 0.384067
vn 0.703676 -0.597773 0.384067
vn 0.004204 -0.808482 -0.588506
vn 0.004204 -0.808482 -0.588506
vn 0.004204 -0.808482 -0.588506
vn 0.004204 -0.808482 -0.588506
vn -0.005298 0.704781 -0.709405
vn -0.005298 0.704781 -0.709405
vn -0.005298 0.704781 -0.709405
vn -0.005298 0.704781 -0.709405
vn -0.046186 0.848447 0.527261
vn -0.046186 0.848447 0.527261
vn -0.046186 0.848447 0.527261
vn -0.046186 0.848447 0.527261
vn 0.147764 0.428418 0.891417
vn 0.147764 0.428418 0.891417
vn 0.147764 0.428418 0.891417
vn 0.147764 0.428418 0.891417
vn 0.717302 -0.678337 -0.159177
vn 0.717302 -0.678337 -0.159177
vn 0.717302 -0.678337 -0.159177
vn 0.717302 -0.678337 -0.159177
vn 0.067483 0.637339 -0.767623
vn 0.067483 0.637339 -0.767623
vn 0.067483 0.637339 -0.767623
vn 0.067483 0.637339 -0.767623
vn -0.333878 0.870001 0.362799
vn -0.333878 0.870001 0.362799
vn -0.333878 0.870001 0.362799
vn -0.333878 0.870001 0.362799
vn -0.019108 0.932319 -0.361131
vn -0.019108 0.932319 -0.361131
vn -0.019108 0.932319 -0.361131
vn -0.019108 0.932319 -0.361131
vn 0.972233 -0.145227 -0.183502
vn 0.972233 -0.145227 -0.183502
vn 0.972233 -0.145227 -0.183502
vn 0.972233 -0.145227 -0.183502
vn 0.776855 -0.587542 -0.226476
vn 0.776855 -0.587542 -0.226476
vn 0.776855 -0.587542 -0.226477
vn 0.776855 -0.587541 -0.226476
vn -0.117853 0.943153 -0.310763
vn -0.117853 0.943153 -0.310763
vn -0.117853 0.943153 -0.310763
vn -0.117853 0.943153 -0.310763
vn -0.391019 -0.242165 -0.887953
vn -0.391019 -0.242165 -0.887953
vn -0.391019 -0.242165 -0.887953
vn -0.391019 -0.242165 -0.887953
vn -0.698520 0.094714 -0.709295
vn -0.698520 0.094714 -0.709295
vn -0.698520 0.094714 -0.709295
vn -0.698520 0.094714 -0.709295
vn 0.595389 -0.644335 -0.479942
vn 0.595389 -0.644335 -0.479942
vn 0.595389 -0.644335 -0.479942
vn 0.595389 -0.644335 -0.479942
vn 0.152181 -0.598413 0.786602
vn 0.152181 -0.598413 0.786602
vn 0.152181 -0.598413 0.786602
vn 0.152181 -0.598413 0.786602
vn -0.851371 0.260928 0.455065
vn -0.851371 0.260928 0.455065
vn -0.851371 0.260928 0.455065
vn -0.851371 0.260928 0.455065
vn -0.115304 0.086580 -0.989550
vn -0.115304 0.086580 -0.989550
vn -0.115304 0.086580 -0.989550
vn -0.115304 0.086580 -0.989550
vn 0.344337 -0.199606 -0.917382
vn 0.344337 -0.199606 -0.917382
vn 0.344337 -0.199606 -0.917382
vn 0.344337 -0.199606 -0.917382
vn 0.822627 0.458488 0.336263
vn 0.822627 0.458488 0.336263
vn 0.822627 0.458488 0.336263
vn 0.822627 0.458488 0.336263
vn -0.417467 -0.432161 0.799349
vn -0.417467 -0.432161 0.799349
vn -0.417467 -0.432161 0.799349
vn -0.417467 -0.432161 0.799349
vn -0.458925 -0.760278 -0.459744
vn -0.458925 -0.760278 -0.459744
vn -0.458925 -0.760278 -0.459744
vn -0.458925 -0.760278 -0.459744
vn 0.796018 -0.050288 -0.603180
vn 0.796018 -0.050288 -0.603180
vn 0.796018 -0.050288 -0.603180
vn -0.180304 0.960081 0.213858
vn -0.180304 0.960081 0.213858
vn -0.180304 0.960081 0.213858
vn -0.180304 0.960081 0.213858
vn 0.100318 0.865303 -0.491108
vn 0.100318 0.865303 -0.491108
vn 0.100318 0.865303 -0.491108
vn 0.731274 0.655245 -0.189452
vn 0.731274 0.655245 -0.189452
vn 0.731274 0.655245 -0.189452
vn 0.731274 0.655245 -0.189452
vn 0.704557 0.451890 -0.547170
vn 0.704557 0.451890 -0.547170
vn 0.704557 0.451890 -0.547170
vn 0.704557 0.451890 -0.547170
vn 0.161625 0.423296 -0.891459
vn 0.161625 0.423296 -0.891459
vn 0.161625 0.423296 -0.891459
vn 0.161625 0.423296 -0.891458
vn -0.357892 0.439765 -0.823724
vn -0.357892 0.439765 -0.823724
vn -0.357892 0.439765 -0.823724
vn -0.357892 0.439765 -0.823724
vn 0.453114 0.617534 -0.642915
vn 0.453114 0.617534 -0.642915
vn 0.453114 0.617534 -0.642915
vn 0.453114 0.617534 -0.642915
s off
f 267/390/1 268/391/2 269/392/3 270/393/4
f 263/386/5 264/387/6 265/388/7 266/389/8
f 200/286/9 201/287/10 202/288/11
f 59/64/12 38/43/13 37/42/14 34/39/15
f 151/236/16 152/237/17 153/238/18 154/239/19
f 168/252/20 167/253/21 169/254/22 170/255/23
f 125/210/24 124/215/25 126/216/26 127/217/27
f 26/17/28 21/20/29 20/19/30 25/18/31
f 285/408/32 286/409/33 287/410/34 288/411/35
f 9/24/36 22/13/37 21/14/38 10/37/39
f 11/25/40 23/15/41 22/13/42 9/24/43
f 29/31/44 30/32/45 24/16/46 12/26/47
f 12/26/48 24/16/49 23/15/50 11/25/51
f 13/27/52 26/17/53 25/18/54 14/28/55
f 14/28/56 25/18/57 20/19/58 8/29/59
f 10/30/60 21/20/61 26/17/62 13/27/63
f 17/6/64 30/32/65 31/35/66
f 24/16/67 30/32/68 17/6/69
f 237/327/70 238/324/71 239/325/72 240/326/73
f 241/328/74 242/329/75 238/324/76 237/327/77
f 33/38/78 6/10/79 1/22/80
f 6/10/81 33/38/82 34/39/83 5/8/84
f 272/394/85 271/395/86 273/396/87 274/397/88
f 3/2/89 35/40/90 292/415/91 293/416/92
f 4/5/93 2/3/94 36/41/95
f 188/274/96 189/275/97 190/276/98 191/277/99
f 128/218/100 129/219/101 130/212/102 131/220/103
f 47/52/104 50/55/105 49/54/106 48/53/107
f 244/367/108 59/64/109 33/38/110
f 7/21/111 40/45/112 39/44/113
f 39/44/114 40/45/115 41/46/116 244/367/117
f 38/43/118 41/46/119 42/47/120 60/65/121
f 19/9/122 42/47/123 7/21/124
f 7/21/125 43/48/126 44/49/127 40/45/128
f 40/45/129 44/49/130 45/50/131 41/46/132
f 41/46/133 45/50/134 46/51/135 42/47/136
f 42/47/137 46/51/138 43/48/139 7/21/140
f 43/48/141 47/52/142 48/53/143 44/49/144
f 44/49/145 48/53/146 49/54/147 45/50/148
f 45/50/149 49/54/150 50/55/151 46/51/152
f 46/51/153 50/55/154 47/52/155 43/48/156
f 19/9/157 52/56/158 51/57/159 18/7/160
f 21/12/161 54/58/162 53/59/163 20/11/164
f 18/7/165 51/57/166 54/58/167 21/12/168
f 8/23/169 55/60/170 7/21/171
f 7/21/172 52/56/173 19/9/174
f 20/11/175 53/59/176 55/60/177 8/23/178
f 52/56/179 57/61/180 56/62/181 51/57/182
f 51/57/183 56/62/184 53/59/185 54/58/186
f 55/60/187 58/63/188 7/21/189
f 7/21/190 58/63/191 57/61/192 52/56/193
f 53/59/194 58/63/195 55/60/196
f 33/38/197 59/64/198 34/39/199
f 18/7/200 60/65/201 19/9/202
f 19/9/203 60/65/204 42/47/205
f 132/221/206 181/267/207 182/268/208 135/224/209
f 255/378/210 256/379/211 257/380/212 258/381/213
f 86/72/214 146/330/215 89/73/216
f 112/74/217 86/72/218 89/73/219 90/75/220
f 155/240/221 156/241/222 157/242/223 158/243/224
f 172/256/225 171/257/226 173/258/227 174/259/228
f 141/223/229 140/228/230 142/229/231 143/230/232
f 80/81/233 79/82/234 74/83/235 75/84/236
f 281/404/237 282/405/238 283/406/239 284/407/240
f 63/89/241 64/90/242 75/78/243 76/77/244
f 65/91/245 63/89/246 76/77/247 77/79/248
f 81/87/249 66/92/250 78/80/251 82/88/252
f 66/92/253 65/91/254 77/79/255 78/80/256
f 67/93/257 68/94/258 79/82/259 80/81/260
f 68/94/261 62/95/262 74/83/263 79/82/264
f 64/96/265 67/93/266 80/81/267 75/84/268
f 71/70/269 83/85/270 82/88/271
f 78/80/272 71/70/273 82/88/274
f 246/368/275 245/369/276 247/370/277 248/371/278
f 249/372/279 246/368/280 248/371/281 250/373/282
f 85/99/283 1/100/284 6/101/285
f 6/101/286 5/102/287 86/72/288 85/99/289
f 206/291/290 205/292/291 207/293/292 208/294/293
f 232/318/294 231/319/295 233/320/296 234/321/297
f 4/71/298 88/67/299 2/104/300
f 197/282/301 196/283/302 198/284/303 199/285/304
f 148/233/305 147/234/306 149/225/307 150/235/308
f 99/107/309 100/108/310 101/109/311 102/110/312
f 85/99/313 114/204/314 1/100/315
f 61/112/316 91/111/317 92/113/318
f 93/114/319 243/366/320 90/75/321
f 90/105/322 73/106/323 94/115/324 93/114/325
f 73/106/326 61/112/327 94/115/328
f 61/112/329 92/113/330 96/116/331 95/117/332
f 92/113/333 93/114/334 97/118/335 96/116/336
f 93/114/337 94/115/338 98/119/339 97/118/340
f 94/115/341 61/112/342 95/117/343 98/119/344
f 95/117/345 96/116/346 100/108/347 99/107/348
f 96/116/349 97/118/350 101/109/351 100/108/352
f 97/118/353 98/119/354 102/110/355 101/109/356
f 98/119/357 95/117/358 99/107/359 102/110/360
f 73/106/361 72/76/362 103/120/363 104/121/364
f 75/122/365 74/123/366 105/124/367 106/125/368
f 72/76/369 75/122/370 106/125/371 103/120/372
f 62/126/373 61/112/374 108/127/375 107/128/376
f 61/112/377 73/106/378 104/121/379 108/127/380
f 74/123/381 62/126/382 107/128/383 105/124/384
f 104/121/385 103/120/386 109/129/387 110/130/388
f 103/120/389 106/125/390 105/124/391 109/129/392
f 107/128/393 108/127/394 111/131/395
f 108/127/396 104/121/397 110/130/398 111/131/399
f 105/124/400 107/128/401 111/131/402
f 85/99/403 86/72/404 112/74/405
f 57/61/406 58/63/407 53/59/408 56/62/409
f 110/130/410 109/129/411 105/124/412 111/131/413
f 8/132/414 7/133/415 113/134/416
f 9/135/417 10/136/418 113/137/419
f 11/138/420 9/139/421 113/140/422
f 12/141/423 11/142/424 113/143/425
f 13/144/426 14/145/427 113/146/428
f 14/147/429 8/148/430 113/149/431
f 10/150/432 13/151/433 113/152/434
f 7/153/435 39/154/436 113/155/437
f 29/156/438 12/157/439 113/158/440
f 27/159/441 32/160/442 113/161/443
f 32/162/444 29/163/445 113/164/446
f 113/167/447 115/207/448 1/166/449
f 61/168/450 62/169/451 113/170/452
f 64/171/453 63/172/454 113/173/455
f 63/174/456 65/175/457 113/176/458
f 65/177/459 66/178/460 113/179/461
f 68/180/462 67/181/463 113/182/464
f 62/183/465 68/184/466 113/185/467
f 67/186/468 64/187/469 113/188/470
f 91/189/471 61/190/472 113/191/473
f 66/192/474 81/193/475 113/194/476
f 84/195/477 27/196/478 113/197/479
f 81/198/480 84/199/481 113/200/482
f 1/201/483 114/205/484 113/203/485
f 115/206/486 33/38/487 1/22/488
f 243/366/489 112/74/490 90/75/491
f 113/203/492 114/205/493 91/202/494
f 39/165/495 115/207/496 113/167/497
f 39/44/498 244/367/499 33/38/500 115/206/501
f 35/40/502 291/414/503 116/208/504
f 15/1/505 175/260/506 176/261/507 117/209/508
f 16/4/509 36/41/510 119/211/511 118/331/512
f 116/208/513 292/415/514 35/40/515
f 18/7/516 21/14/517 121/213/518 120/332/519
f 21/14/520 22/13/521 122/214/522 121/213/523
f 22/13/524 15/1/525 123/333/526 122/214/527
f 217/307/528 218/304/529 219/305/530 220/306/531
f 16/4/532 23/15/533 124/215/534 125/210/535
f 23/15/536 24/16/537 126/216/538 124/215/539
f 24/16/540 17/6/541 127/217/542 126/216/543
f 17/6/544 16/4/545 125/210/546 127/217/547
f 38/43/548 60/65/549 129/219/550 128/218/551
f 60/65/552 18/7/553 130/212/554 129/219/555
f 18/7/556 37/42/557 131/220/558 130/212/559
f 37/42/560 38/43/561 128/218/562 131/220/563
f 234/321/564 233/320/565 235/322/566 236/323/567
f 88/67/568 70/68/569 134/334/570 133/222/571
f 182/268/572 183/269/573 69/69/574 135/224/575
f 69/69/576 87/66/577 132/221/578 135/224/579
f 211/301/580 212/298/581 213/299/582 214/300/583
f 69/69/584 76/77/585 138/226/586 137/335/587
f 76/77/588 75/78/589 139/227/590 138/226/591
f 75/78/592 72/76/593 136/336/594 139/227/595
f 70/68/596 71/70/597 140/228/598 141/223/599
f 71/70/600 78/80/601 142/229/602 140/228/603
f 78/80/604 77/79/605 143/230/606 142/229/607
f 77/79/608 70/68/609 141/223/610 143/230/611
f 209/295/612 210/297/613 3/103/614 144/232/615
f 3/103/616 87/66/617 146/337/618 144/232/619
f 86/72/620 5/102/621 145/231/622
f 90/105/623 89/73/624 147/234/625 148/233/626
f 89/73/627 72/76/628 149/225/629 147/234/630
f 72/76/631 73/106/632 150/235/633 149/225/634
f 73/106/635 90/105/636 148/233/637 150/235/638
f 120/338/639 121/213/640 152/237/641 151/236/642
f 121/213/643 122/214/644 153/238/645 152/237/646
f 122/214/647 123/339/648 154/239/649 153/238/650
f 123/340/651 120/341/652 151/236/653 154/239/654
f 136/342/655 137/343/656 156/241/657 155/240/658
f 137/344/659 138/226/660 157/242/661 156/241/662
f 138/226/663 139/227/664 158/243/665 157/242/666
f 139/227/667 136/345/668 155/240/669 158/243/670
f 15/1/671 22/13/672 159/245/673 160/244/674
f 22/13/675 23/15/676 161/246/677 159/245/678
f 23/15/679 16/4/680 162/247/681 161/246/682
f 160/244/683 175/260/684 15/1/685
f 69/69/686 183/269/687 164/248/688
f 70/68/689 77/79/690 165/250/691 163/249/692
f 77/79/693 76/77/694 166/251/695 165/250/696
f 76/77/697 69/69/698 164/248/699 166/251/700
f 160/244/701 159/245/702 167/253/703 168/252/704
f 159/245/705 161/246/706 169/254/707 167/253/708
f 161/246/709 162/247/710 170/255/711 169/254/712
f 162/247/713 160/244/714 168/252/715 170/255/716
f 164/248/717 163/249/718 171/257/719 172/256/720
f 163/249/721 165/250/722 173/258/723 171/257/724
f 165/250/725 166/251/726 174/259/727 173/258/728
f 166/251/729 164/248/730 172/256/731 174/259/732
f 224/313/733 223/310/734 225/311/735 226/312/736
f 177/262/737 176/261/738 118/346/739 119/211/740
f 275/401/741 276/398/742 277/399/743 278/400/744
f 279/402/745 276/398/746 275/401/747 280/403/748
f 180/266/749 179/265/750 2/104/751 88/67/752
f 181/267/753 180/266/754 88/67/755 133/222/756
f 182/268/757 181/267/758 133/222/759 134/347/760
f 229/316/761 228/314/762 227/315/763 230/317/764
f 37/42/765 18/7/766 185/271/767 184/270/768
f 218/304/769 217/307/770 221/308/771 222/309/772
f 290/413/773 291/414/774 35/40/775
f 35/40/776 289/412/777 290/413/778
f 184/270/779 185/271/780 189/275/781 188/274/782
f 185/271/783 186/272/784 190/276/785 189/275/786
f 186/272/787 187/273/788 191/277/789 190/276/790
f 187/273/791 184/270/792 188/274/793 191/277/794
f 89/73/795 146/348/796 192/279/797 193/278/798
f 87/66/799 69/69/800 194/280/801 192/279/802
f 212/298/803 211/301/804 215/302/805 216/303/806
f 72/76/807 89/73/808 193/278/809 195/281/810
f 193/278/811 192/279/812 196/283/813 197/282/814
f 192/279/815 194/280/816 198/284/817 196/283/818
f 194/280/819 195/281/820 199/285/821 198/284/822
f 195/281/823 193/278/824 197/282/825 199/285/826
f 34/39/827 37/42/828 201/287/829 200/286/830
f 202/288/831 289/412/832 35/40/833
f 5/8/834 34/39/835 200/286/836 203/289/837
f 35/40/838 3/2/839 204/290/840 202/288/841
f 3/2/842 210/296/843 204/290/844
f 205/292/845 209/295/846 144/232/847
f 144/232/848 146/349/849 207/293/850 205/292/851
f 146/350/852 86/72/853 208/294/854 207/293/855
f 86/72/856 145/231/857 206/291/858 208/294/859
f 145/231/860 209/295/861 205/292/862 206/291/863
f 5/102/864 210/297/865 209/295/866 145/231/867
f 204/290/868 210/296/869 5/8/870 203/289/871
f 69/69/872 137/351/873 213/299/874 212/298/875
f 137/352/876 136/353/877 214/300/878 213/299/879
f 136/354/880 72/76/881 211/301/882 214/300/883
f 72/76/884 195/281/885 215/302/886 211/301/887
f 195/281/888 194/280/889 216/303/890 215/302/891
f 194/280/892 69/69/893 212/298/894 216/303/895
f 18/7/896 120/355/897 219/305/898 218/304/899
f 120/356/900 123/357/901 220/306/902 219/305/903
f 123/358/904 15/1/905 217/307/906 220/306/907
f 15/1/908 186/272/909 221/308/910 217/307/911
f 186/272/912 185/271/913 222/309/914 221/308/915
f 185/271/916 18/7/917 218/304/918 222/309/919
f 192/279/920 146/359/921 87/66/922
f 175/260/923 160/244/924 225/311/925 223/310/926
f 160/244/927 162/247/928 226/312/929 225/311/930
f 162/247/931 16/4/932 224/313/933 226/312/934
f 16/4/935 118/360/936 224/313/937
f 175/260/938 118/361/939 176/261/940
f 183/269/941 182/268/942 228/314/943
f 182/268/944 134/362/945 227/315/946 228/314/947
f 164/248/948 183/269/949 228/314/950 229/316/951
f 70/68/952 163/249/953 230/317/954 227/315/955
f 163/249/956 164/248/957 229/316/958 230/317/959
f 134/363/960 70/68/961 227/315/962
f 223/310/963 224/313/964 118/364/965
f 223/310/966 118/365/967 175/260/968
f 3/103/969 293/417/970 232/318/971
f 179/265/972 180/266/973 233/320/974 231/319/975
f 87/66/976 3/103/977 232/318/978 234/321/979
f 180/266/980 181/267/981 235/322/982 233/320/983
f 181/267/984 132/221/985 236/323/986 235/322/987
f 132/221/988 87/66/989 234/321/990 236/323/991
f 28/34/992 4/5/993 239/325/994 238/324/995
f 4/5/996 17/6/997 240/326/998 239/325/999
f 17/6/1000 31/35/1001 237/327/1002 240/326/1003
f 32/36/1004 27/33/1005 242/329/1006 241/328/1007
f 27/33/1008 28/34/1009 238/324/1010 242/329/1011
f 31/35/1012 32/36/1013 241/328/1014 237/327/1015
f 91/111/1016 243/366/1017 93/114/1018 92/113/1019
f 85/99/1020 243/366/1021 91/111/1022 114/204/1023
f 244/367/1024 41/46/1025 38/43/1026
f 85/99/1027 112/74/1028 243/366/1029
f 38/43/1030 59/64/1031 244/367/1032
f 83/85/1033 71/70/1034 245/369/1035 246/368/1036
f 71/70/1037 4/71/1038 247/370/1039 245/369/1040
f 4/71/1041 28/98/1042 248/371/1043 247/370/1044
f 84/86/1045 83/85/1046 246/368/1047 249/372/1048
f 28/98/1049 27/97/1050 250/373/1051 248/371/1052
f 27/97/1053 84/86/1054 249/372/1055 250/373/1056
f 71/70/1057 70/68/1058 252/375/1059 251/374/1060
f 70/68/1061 88/67/1062 253/376/1063 252/375/1064
f 88/67/1065 4/71/1066 254/377/1067 253/376/1068
f 4/71/1069 71/70/1070 251/374/1071 254/377/1072
f 251/374/1073 252/375/1074 256/379/1075 255/378/1076
f 252/375/1077 253/376/1078 257/380/1079 256/379/1080
f 253/376/1081 254/377/1082 258/381/1083 257/380/1084
f 254/377/1085 251/374/1086 255/378/1087 258/381/1088
f 17/6/1089 4/5/1090 260/383/1091 259/382/1092
f 4/5/1093 36/41/1094 261/384/1095 260/383/1096
f 36/41/1097 16/4/1098 262/385/1099 261/384/1100
f 16/4/1101 17/6/1102 259/382/1103 262/385/1104
f 259/382/1105 260/383/1106 264/387/1107 263/386/1108
f 260/383/1109 261/384/1110 265/388/1111 264/387/1112
f 261/384/1113 262/385/1114 266/389/1115 265/388/1116
f 262/385/1117 259/382/1118 263/386/1119 266/389/1120
f 116/208/1121 117/209/1122 268/391/1123 267/390/1124
f 117/209/1125 176/261/1126 269/392/1127 268/391/1128
f 176/261/1129 177/262/1130 270/393/1131 269/392/1132
f 177/262/1133 116/208/1134 267/390/1135 270/393/1136
f 187/273/1137 201/287/1138 37/42/1139 184/270/1140
f 203/289/1141 200/286/1142 271/395/1143 272/394/1144
f 200/286/1145 202/288/1146 273/396/1147 271/395/1148
f 202/288/1149 204/290/1150 274/397/1151 273/396/1152
f 204/290/1153 203/289/1154 272/394/1155 274/397/1156
f 178/263/1157 177/262/1158 277/399/1159 276/398/1160
f 177/262/1161 119/211/1162 278/400/1163 277/399/1164
f 119/211/1165 36/41/1166 275/401/1167 278/400/1168
f 179/264/1169 178/263/1170 276/398/1171 279/402/1172
f 36/41/1173 2/3/1174 280/403/1175 275/401/1176
f 2/3/1177 179/264/1178 279/402/1179 280/403/1180
f 83/85/1181 84/86/1182 282/405/1183 281/404/1184
f 84/86/1185 81/87/1186 283/406/1187 282/405/1188
f 81/87/1189 82/88/1190 284/407/1191 283/406/1192
f 82/88/1193 83/85/1194 281/404/1195 284/407/1196
f 31/35/1197 30/32/1198 286/409/1199 285/408/1200
f 30/32/1201 29/31/1202 287/410/1203 286/409/1204
f 29/31/1205 32/36/1206 288/411/1207 287/410/1208
f 32/36/1209 31/35/1210 285/408/1211 288/411/1212
f 201/287/1213 289/412/1214 202/288/1215
f 290/413/1216 289/412/1217 201/287/1218 187/273/1219
f 187/273/1220 291/414/1221 290/413/1222
f 116/208/1223 291/414/1224 15/1/1225 117/209/1226
f 15/1/1227 291/414/1228 187/273/1229 186/272/1230
f 177/262/1231 178/263/1232 292/415/1233 116/208/1234
f 293/416/1235 292/415/1236 178/263/1237 179/264/1238
f 232/318/1239 293/417/1240 179/265/1241 231/319/1242
