# This file uses centimeters as units for non-parametric coordinates.

v 8.114599 6.921600 10.133308
v 0.657934 5.742012 11.879017
v 8.186621 6.940903 8.916018
v 0.517675 5.911453 10.561788
v 7.463964 6.771408 10.439046
v 7.315649 6.732841 9.208267
v 7.641454 3.399391 11.129124
v 7.078954 3.754959 11.151274
v 6.930638 3.716393 9.833818
v 7.493139 3.360832 9.811892
v 1.223974 3.763695 10.472858
v 1.386328 3.802261 11.790092
v 0.940161 3.416145 11.898602
v 0.717382 3.377563 10.581367
v 2.105932 2.986259 10.419260
v 2.275732 3.024826 11.736494
v 2.001806 2.510941 11.826629
v 1.832006 2.472366 10.509393
v 5.949926 2.978249 9.971718
v 6.098608 3.016815 11.290015
v 6.420507 2.528091 11.289783
v 6.272070 2.489525 9.972332
v 4.149877 8.838676 10.135273
v 4.298437 8.877243 11.452502
v 4.298437 8.297142 11.484282
v 4.149877 8.258575 10.167052
v 8.016577 8.392616 8.833268
v 7.879614 8.622803 10.111944
v 7.299901 8.043991 10.513272
v 7.151586 8.005424 9.289495
v 1.686132 8.101875 11.703074
v 0.657324 7.204056 11.823982
v 0.520239 6.957466 10.506748
v 1.516332 8.063316 10.385837
v 9.341406 7.117027 9.317615
v 9.170141 8.375008 9.280538
v 10.205053 8.278145 8.127697
v 10.308325 7.307549 8.224079
v 9.996923 7.560837 -2.020522
v 10.032080 8.263512 -2.324200
v 10.961522 7.397873 -1.484112
v 11.094946 8.363434 -2.150177
v 10.415991 5.865837 -3.317797
v 10.483374 6.242348 -3.986839
v 11.165013 5.931015 -2.990128
v 11.232032 6.175766 -3.818232
v 9.654958 3.859421 -2.432498
v 9.480623 3.859421 -3.176397
v 10.686377 3.738937 -2.219033
v 10.716285 3.733871 -3.082764
v 1.326147 8.618843 10.434232
v 1.516576 8.657402 11.751463
v 0.735204 8.043205 11.791203
v 0.623388 8.034882 10.472837
v 0.475561 6.937729 12.016969
v 0.472631 6.008339 12.072005
v 1.098364 7.477875 10.396740
v 1.169409 7.477875 11.703074
v -8.113672 6.921600 10.133308
v -0.657008 5.742012 11.879017
v -8.185694 6.940903 8.916018
v -0.516871 5.911453 10.561788
v -7.463037 6.771408 10.439046
v -7.314723 6.732841 9.208267
v -7.640528 3.399391 11.129124
v -7.078028 3.754959 11.151274
v -6.929712 3.716393 9.833818
v -7.492213 3.360832 9.811892
v -1.223047 3.763695 10.472858
v -1.385401 3.802261 11.790092
v -0.939234 3.416145 11.898602
v -0.716456 3.377563 10.581367
v -2.105006 2.986259 10.419260
v -2.274805 3.024826 11.736494
v -2.000880 2.510941 11.826629
v -1.831080 2.472366 10.509393
v -5.949000 2.978249 9.971718
v -6.097682 3.016815 11.290015
v -6.419581 2.528091 11.289783
v -6.271144 2.489525 9.972332
v -4.148951 8.838676 10.135273
v -4.297511 8.877243 11.452502
v -4.297511 8.297142 11.484282
v -4.148951 8.258575 10.167052
v -8.015650 8.392616 8.833268
v -7.878688 8.622803 10.111944
v -7.298975 8.043991 10.513272
v -7.150660 8.005424 9.289495
v -1.685206 8.101875 11.703074
v -0.656397 7.204056 11.823982
v -0.519434 6.957466 10.506748
v -1.515406 8.063316 10.385837
v -9.340479 7.117027 9.317615
v -9.169214 8.375008 9.280538
v -10.204126 8.278145 8.127697
v -10.307398 7.307549 8.224079
v -9.995996 7.560837 -2.020522
v -10.031153 8.263512 -2.324200
v -10.960595 7.397873 -1.484112
v -11.094019 8.363434 -2.150177
v -10.415064 5.865837 -3.317797
v -10.482447 6.242348 -3.986839
v -11.164086 5.931015 -2.990128
v -11.231105 6.175766 -3.818232
v -9.654031 3.859421 -2.432498
v -9.479697 3.859421 -3.176397
v -10.685450 3.738937 -2.219033
v -10.715358 3.733871 -3.082764
v -1.325220 8.618843 10.434232
v -1.515650 8.657402 11.751463
v -0.734278 8.043205 11.791203
v -0.622462 8.034882 10.472837
v -0.491114 6.937729 12.016969
v -0.472437 6.008339 12.072005
v -1.097437 7.477875 10.396740
v -1.168482 7.477875 11.703074
vt 0.645245 0.935948
vt 0.645245 0.935948
vt 0.645245 0.935948
vt 0.645245 0.935948
vt 0.645245 0.935948
vt 0.645245 0.935948
vt 0.645245 0.935948
vt 0.645245 0.935948
vt 0.645245 0.935948
vt 0.645245 0.935948
vt 0.645245 0.935948
vt 0.645245 0.935948
vt 0.645245 0.935948
vt 0.645245 0.935948
vt 0.645245 0.935948
vt 0.645245 0.935948
vt 0.645245 0.935948
vt 0.645245 0.935948
vt 0.645245 0.935948
vt 0.645245 0.935948
vt 0.645245 0.935948
vt 0.645245 0.935948
vt 0.645245 0.935948
vt 0.645245 0.935948
vt 0.645245 0.935948
vt 0.645245 0.935948
vt 0.645245 0.935948
vt 0.645245 0.935948
vt 0.645245 0.935948
vt 0.645245 0.935948
vt 0.645245 0.935948
vt 0.645245 0.935948
vt 0.645245 0.935948
vt 0.645245 0.935948
vt 0.645245 0.935948
vt 0.645245 0.935948
vt 0.645245 0.935948
vt 0.645245 0.935948
vt 0.645245 0.935948
vt 0.645245 0.935948
vt 0.645245 0.935948
vt 0.645245 0.935948
vt 0.645245 0.935948
vt 0.645245 0.935948
vt 0.645245 0.935948
vt 0.645245 0.935948
vt 0.645245 0.935948
vt 0.645245 0.935948
vt 0.645245 0.935948
vt 0.645245 0.935948
vt 0.645245 0.935948
vt 0.645245 0.935948
vt 0.645245 0.935948
vt 0.645245 0.935948
vt 0.645245 0.935948
vt 0.645245 0.935948
vt 0.645245 0.935948
vt 0.645245 0.935948
vt 0.645245 0.935948
vt 0.645245 0.935948
vt 0.645245 0.935948
vt 0.645245 0.935948
vt 0.645245 0.935948
vt 0.645245 0.935948
vt 0.645245 0.935948
vt 0.645245 0.935948
vt 0.645245 0.935948
vt 0.645245 0.935948
vt 0.645245 0.935948
vt 0.645245 0.935948
vt 0.645245 0.935948
vt 0.113378 0.205594
vt 0.113378 0.205594
vt 0.113378 0.205594
vt 0.113378 0.205594
vt 0.113378 0.205594
vt 0.113378 0.205594
vt 0.645245 0.935948
vt 0.645245 0.935948
vt 0.645245 0.935948
vt 0.645245 0.935948
vt 0.645245 0.935948
vt 0.645245 0.935948
vt 0.645245 0.935948
vt 0.645245 0.935948
vt 0.645245 0.935948
vt 0.645245 0.935948
vt 0.645245 0.935948
vt 0.645245 0.935948
vt 0.645245 0.935948
vt 0.645245 0.935948
vt 0.645245 0.935948
vt 0.645245 0.935948
vt 0.645245 0.935948
vt 0.645245 0.935948
vt 0.645245 0.935948
vt 0.645245 0.935948
vt 0.645245 0.935948
vt 0.645245 0.935948
vt 0.645245 0.935948
vt 0.645245 0.935948
vt 0.645245 0.935948
vt 0.645245 0.935948
vt 0.645245 0.935948
vt 0.645245 0.935948
vt 0.645245 0.935948
vt 0.645245 0.935948
vt 0.645245 0.935948
vt 0.645245 0.935948
vt 0.645245 0.935948
vt 0.645245 0.935948
vt 0.645245 0.935948
vt 0.645245 0.935948
vt 0.645245 0.935948
vt 0.645245 0.935948
vt 0.645245 0.935948
vt 0.645245 0.935948
vt 0.645245 0.935948
vt 0.645245 0.935948
vt 0.645245 0.935948
vt 0.645245 0.935948
vt 0.645245 0.935948
vt 0.645245 0.935948
vt 0.645245 0.935948
vt 0.645245 0.935948
vt 0.645245 0.935948
vt 0.645245 0.935948
vt 0.645245 0.935948
vt 0.645245 0.935948
vt 0.645245 0.935948
vt 0.645245 0.935948
vt 0.645245 0.935948
vt 0.645245 0.935948
vt 0.645245 0.935948
vt 0.645245 0.935948
vt 0.645245 0.935948
vt 0.645245 0.935948
vt 0.645245 0.935948
vt 0.645245 0.935948
vt 0.645245 0.935948
vt 0.645245 0.935948
vt 0.645245 0.935948
vt 0.645245 0.935948
vt 0.645245 0.935948
vt 0.645245 0.935948
vt 0.645245 0.935948
vt 0.645245 0.935948
vt 0.645245 0.935948
vt 0.113378 0.205594
vt 0.113378 0.205594
vt 0.113378 0.205594
vt 0.113378 0.205594
vt 0.113378 0.205594
vt 0.113378 0.205594
vt 0.113378 0.205594
vt 0.113378 0.205594
vt 0.113378 0.205594
vt 0.113378 0.205594
vn -0.866037 0.492490 0.086224
vn -0.625255 0.778273 0.057859
vn -0.625255 0.778273 0.057859
vn -0.866037 0.492490 0.086224
vn -0.621907 -0.780914 0.058354
vn -0.621907 -0.780914 0.058354
vn -0.621907 -0.780914 0.058354
vn -0.621907 -0.780914 0.058354
vn -0.986444 -0.135509 0.092546
vn -0.986444 -0.135509 0.092546
vn -0.986444 -0.135509 0.092546
vn -0.986444 -0.135509 0.092546
vn 0.986105 -0.166115 -0.001663
vn 0.986105 -0.166115 -0.001663
vn 0.986105 -0.166115 -0.001663
vn 0.986105 -0.166115 -0.001663
vn 0.104650 -0.000011 0.994509
vn 0.104650 -0.000011 0.994509
vn 0.104650 -0.000011 0.994509
vn 0.104650 -0.000011 0.994509
vn 0.096287 -0.069075 0.992954
vn 0.104650 0.000000 0.994509
vn 0.094302 -0.025642 0.995213
vn 0.096287 -0.069075 0.992954
vn 0.104657 -0.000007 0.994508
vn 0.104657 -0.000007 0.994508
vn 0.104657 -0.000007 0.994508
vn 0.104657 -0.000007 0.994508
vn -0.174487 -0.014283 -0.984556
vn -0.104654 -0.000010 -0.994509
vn -0.174487 -0.014283 -0.984556
vn -0.104656 0.000000 -0.994509
vn -0.104656 0.000000 -0.994509
vn -0.104656 0.000000 -0.994509
vn -0.104653 -0.000005 -0.994509
vn -0.104653 -0.000005 -0.994509
vn -0.104653 -0.000005 -0.994509
vn -0.104653 -0.000005 -0.994509
vn 0.789373 -0.610623 -0.063491
vn 0.954216 -0.285408 -0.089522
vn 0.954216 -0.285408 -0.089522
vn 0.789373 -0.610623 -0.063491
vn -0.990156 0.104699 0.092896
vn -0.990156 0.104699 0.092896
vn -0.990156 0.104699 0.092896
vn -0.990156 0.104699 0.092896
vn 0.104653 -0.000013 0.994509
vn 0.104653 -0.000013 0.994509
vn 0.104653 -0.000013 0.994509
vn 0.104653 -0.000013 0.994509
vn 0.718393 -0.692365 -0.067396
vn 0.718393 -0.692365 -0.067396
vn 0.718393 -0.692365 -0.067396
vn 0.718393 -0.692365 -0.067396
vn 0.516480 0.854927 -0.048455
vn 0.516480 0.854927 -0.048455
vn 0.516480 0.854927 -0.048455
vn 0.516480 0.854927 -0.048455
vn -0.104643 0.000000 -0.994510
vn -0.104643 0.000000 -0.994510
vn -0.104643 0.000000 -0.994510
vn -0.104643 0.000000 -0.994510
vn 0.000000 1.000000 0.000000
vn 0.000000 1.000000 0.000000
vn 0.000000 1.000000 0.000000
vn 0.000000 1.000000 0.000000
vn 0.104654 0.000000 0.994509
vn 0.104654 0.000000 0.994509
vn 0.104654 0.000000 0.994509
vn 0.104654 0.000000 0.994509
vn 0.000000 -1.000000 0.000000
vn 0.000000 -1.000000 0.000000
vn 0.000000 -1.000000 0.000000
vn 0.000000 -1.000000 0.000000
vn -0.104652 0.000000 -0.994509
vn -0.104652 0.000000 -0.994509
vn -0.104652 0.000000 -0.994509
vn -0.104652 0.000000 -0.994509
vn -0.613179 0.787843 0.057574
vn -0.613179 0.787843 0.057574
vn -0.613179 0.787843 0.057574
vn -0.613179 0.787843 0.057574
vn -0.104633 0.000000 -0.994511
vn -0.104633 0.000000 -0.994511
vn -0.104633 0.000000 -0.994511
vn -0.104633 0.000000 -0.994511
vn 0.065686 0.997840 -0.000087
vn 0.065686 0.997840 -0.000087
vn 0.065686 0.997840 -0.000087
vn 0.065686 0.997840 -0.000087
vn 0.104650 0.000000 0.994509
vn 0.104650 0.000000 0.994509
vn 0.104650 0.000000 0.994509
vn 0.104650 0.000000 0.994509
vn -0.098246 -0.995120 0.009188
vn -0.098246 -0.995120 0.009188
vn -0.098246 -0.995120 0.009188
vn -0.098246 -0.995120 0.009188
vn -0.104649 -0.000018 -0.994509
vn -0.104649 -0.000018 -0.994509
vn -0.104649 -0.000018 -0.994509
vn -0.104649 -0.000018 -0.994509
vn 0.908295 0.106166 0.404634
vn 0.908295 0.106166 0.404634
vn 0.908295 0.106166 0.404634
vn 0.908295 0.106166 0.404634
vn 0.104660 -0.000003 0.994508
vn 0.104660 -0.000003 0.994508
vn 0.104660 -0.000003 0.994508
vn 0.104660 -0.000003 0.994508
vn -0.969625 -0.227052 0.090968
vn -0.969625 -0.227052 0.090968
vn -0.969625 -0.227052 0.090968
vn -0.969625 -0.227052 0.090968
vn -0.104652 0.000016 -0.994509
vn -0.104652 0.000016 -0.994509
vn -0.104652 0.000016 -0.994509
vn -0.104652 0.000016 -0.994509
vn 0.289894 0.023170 0.956778
vn 0.289894 0.023170 0.956778
vn 0.289894 0.023170 0.956778
vn 0.289894 0.023170 0.956778
vn -0.088460 0.991744 -0.092837
vn -0.088460 0.991744 -0.092837
vn -0.088460 0.991744 -0.092837
vn -0.088460 0.991744 -0.092837
vn 0.481197 -0.871033 -0.098745
vn 0.481197 -0.871033 -0.098745
vn 0.481197 -0.871033 -0.098745
vn 0.481197 -0.871033 -0.098745
vn 0.088473 -0.991744 0.092821
vn 0.088473 -0.991744 0.092821
vn 0.088473 -0.991744 0.092821
vn 0.088473 -0.991744 0.092821
vn -0.979598 -0.151287 -0.132286
vn -0.979598 -0.151287 -0.132286
vn -0.979598 -0.151287 -0.132286
vn -0.979598 -0.151287 -0.132286
vn 0.006363 -0.993863 -0.110431
vn 0.006363 -0.993863 -0.110431
vn 0.006363 -0.993863 -0.110431
vn 0.006363 -0.993863 -0.110431
vn 0.979584 0.170003 0.107309
vn 0.979584 0.170003 0.107309
vn 0.979584 0.170003 0.107309
vn 0.979584 0.170003 0.107309
vn 0.003275 0.998139 0.060892
vn 0.003275 0.998139 0.060892
vn 0.003275 0.998139 0.060892
vn 0.003275 0.998139 0.060892
vn -0.980380 -0.194069 0.034536
vn -0.980380 -0.194069 0.034536
vn -0.980380 -0.194069 0.034536
vn -0.980380 -0.194069 0.034536
vn -0.119146 -0.639310 0.759663
vn -0.119146 -0.639310 0.759663
vn -0.119146 -0.639310 0.759663
vn -0.119146 -0.639310 0.759663
vn 0.983420 0.138304 -0.117289
vn 0.983420 0.138304 -0.117289
vn 0.983420 0.138304 -0.117289
vn 0.983420 0.138304 -0.117289
vn -0.013688 0.570704 -0.821042
vn -0.013688 0.570704 -0.821042
vn -0.013688 0.570704 -0.821042
vn -0.013688 0.570704 -0.821042
vn -0.972649 0.046866 0.227501
vn -0.972649 0.046866 0.227501
vn -0.972649 0.046866 0.227501
vn -0.972649 0.046866 0.227501
vn -0.200159 0.333092 0.921404
vn -0.200159 0.333092 0.921405
vn -0.200159 0.333092 0.921405
vn -0.200159 0.333092 0.921405
vn 0.978788 -0.035413 -0.201790
vn 0.978788 -0.035413 -0.201790
vn 0.978788 -0.035413 -0.201790
vn 0.978788 -0.035413 -0.201790
vn -0.002274 -0.288486 -0.957482
vn -0.002274 -0.288486 -0.957482
vn -0.002274 -0.288486 -0.957482
vn -0.002274 -0.288486 -0.957482
vn -0.071641 0.997405 0.007118
vn -0.071641 0.997405 0.007118
vn -0.071641 0.997405 0.007118
vn -0.071641 0.997405 0.007118
vn 0.108991 -0.007991 0.994011
vn 0.108991 -0.007991 0.994011
vn 0.108991 -0.007991 0.994011
vn 0.108991 -0.007991 0.994011
vn 0.098238 -0.995120 -0.009227
vn 0.098238 -0.995120 -0.009227
vn 0.098238 -0.995120 -0.009227
vn 0.098238 -0.995120 -0.009227
vn -0.108585 0.007243 -0.994061
vn -0.108585 0.007243 -0.994061
vn -0.108585 0.007243 -0.994061
vn -0.108585 0.007243 -0.994061
vn -0.991745 0.096610 0.084315
vn -0.866037 0.492490 0.086224
vn -0.866037 0.492490 0.086224
vn -0.991745 0.096610 0.084315
vn 0.104652 -0.000004 0.994509
vn 0.104652 -0.000004 0.994509
vn 0.104652 -0.000004 0.994509
vn -0.167753 0.985795 0.008207
vn -0.167753 0.985795 0.008207
vn -0.831657 0.555018 -0.017350
vn 0.046170 0.007306 0.998907
vn 0.046170 0.007306 0.998907
vn 0.724285 0.031001 0.688803
vn 0.724285 0.031001 0.688803
vn -0.056286 -0.998411 0.002797
vn -0.056286 -0.998411 0.002797
vn -0.816462 -0.577260 0.012681
vn 0.990143 0.104821 -0.092894
vn 0.995037 0.044153 -0.089170
vn 0.995037 0.044153 -0.089170
vn 0.990143 0.104821 -0.092894
vn 0.094302 -0.025642 0.995213
vn 0.220832 0.017596 0.975153
vn 0.220832 0.017596 0.975153
vn -0.095173 0.023536 -0.995183
vn -0.098489 0.052317 -0.993762
vn -0.098489 0.052317 -0.993762
vn -0.095173 0.023536 -0.995183
vn -0.192450 -0.031998 -0.980785
vn -0.104656 0.000000 -0.994509
vn -0.104656 0.000000 -0.994509
vn -0.104654 -0.000010 -0.994509
vn 0.094302 -0.025642 0.995213
vn 0.104650 0.000000 0.994509
vn 0.104652 -0.000004 0.994509
vn 0.213534 0.036034 0.976271
vn 0.866037 0.492490 0.086224
vn 0.866037 0.492490 0.086224
vn 0.625256 0.778272 0.057859
vn 0.625256 0.778272 0.057859
vn 0.621907 -0.780914 0.058354
vn 0.621907 -0.780914 0.058354
vn 0.621907 -0.780914 0.058354
vn 0.621907 -0.780914 0.058354
vn 0.986444 -0.135509 0.092546
vn 0.986444 -0.135509 0.092546
vn 0.986444 -0.135509 0.092546
vn 0.986444 -0.135509 0.092546
vn -0.986105 -0.166115 -0.001663
vn -0.986105 -0.166115 -0.001663
vn -0.986105 -0.166115 -0.001663
vn -0.986105 -0.166115 -0.001663
vn -0.104650 -0.000011 0.994509
vn -0.104650 -0.000011 0.994509
vn -0.104650 -0.000011 0.994509
vn -0.104650 -0.000011 0.994509
vn -0.096288 -0.069075 0.992954
vn -0.096288 -0.069075 0.992954
vn -0.094302 -0.025642 0.995213
vn -0.104650 0.000000 0.994509
vn -0.104657 -0.000007 0.994508
vn -0.104657 -0.000007 0.994508
vn -0.104657 -0.000007 0.994508
vn -0.104657 -0.000007 0.994508
vn 0.174507 -0.014301 -0.984552
vn 0.174507 -0.014301 -0.984552
vn 0.104654 -0.000010 -0.994509
vn 0.104656 0.000000 -0.994509
vn 0.104656 0.000000 -0.994509
vn 0.104656 0.000000 -0.994509
vn 0.104653 -0.000005 -0.994509
vn 0.104653 -0.000005 -0.994509
vn 0.104653 -0.000005 -0.994509
vn 0.104653 -0.000005 -0.994509
vn -0.789372 -0.610623 -0.063490
vn -0.789372 -0.610623 -0.063490
vn -0.954216 -0.285408 -0.089522
vn -0.954216 -0.285408 -0.089522
vn 0.990156 0.104699 0.092896
vn 0.990156 0.104699 0.092896
vn 0.990156 0.104699 0.092896
vn 0.990156 0.104699 0.092896
vn -0.104653 -0.000013 0.994509
vn -0.104653 -0.000013 0.994509
vn -0.104653 -0.000013 0.994509
vn -0.104653 -0.000013 0.994509
vn -0.718393 -0.692365 -0.067396
vn -0.718393 -0.692365 -0.067396
vn -0.718393 -0.692365 -0.067396
vn -0.718393 -0.692365 -0.067396
vn -0.516480 0.854927 -0.048455
vn -0.516480 0.854927 -0.048455
vn -0.516480 0.854927 -0.048455
vn -0.516480 0.854927 -0.048455
vn 0.104643 0.000000 -0.994510
vn 0.104643 0.000000 -0.994510
vn 0.104643 0.000000 -0.994510
vn 0.104643 0.000000 -0.994510
vn 0.000000 1.000000 0.000000
vn 0.000000 1.000000 0.000000
vn 0.000000 1.000000 0.000000
vn 0.000000 1.000000 0.000000
vn -0.104654 0.000000 0.994509
vn -0.104654 0.000000 0.994509
vn -0.104654 0.000000 0.994509
vn -0.104654 0.000000 0.994509
vn 0.000000 -1.000000 0.000000
vn 0.000000 -1.000000 0.000000
vn 0.000000 -1.000000 0.000000
vn 0.000000 -1.000000 0.000000
vn 0.104652 0.000000 -0.994509
vn 0.104652 0.000000 -0.994509
vn 0.104652 0.000000 -0.994509
vn 0.104652 0.000000 -0.994509
vn 0.613179 0.787843 0.057574
vn 0.613179 0.787843 0.057574
vn 0.613179 0.787843 0.057574
vn 0.613179 0.787843 0.057574
vn 0.104633 0.000000 -0.994511
vn 0.104633 0.000000 -0.994511
vn 0.104633 0.000000 -0.994511
vn 0.104633 0.000000 -0.994511
vn -0.065686 0.997840 -0.000087
vn -0.065686 0.997840 -0.000087
vn -0.065686 0.997840 -0.000087
vn -0.065686 0.997840 -0.000087
vn -0.104650 0.000000 0.994509
vn -0.104650 0.000000 0.994509
vn -0.104650 0.000000 0.994509
vn -0.104650 0.000000 0.994509
vn 0.098246 -0.995120 0.009188
vn 0.098246 -0.995120 0.009188
vn 0.098246 -0.995120 0.009188
vn 0.098246 -0.995120 0.009188
vn 0.104649 -0.000018 -0.994509
vn 0.104649 -0.000018 -0.994509
vn 0.104649 -0.000018 -0.994509
vn 0.104649 -0.000018 -0.994509
vn -0.908295 0.106166 0.404634
vn -0.908295 0.106166 0.404634
vn -0.908295 0.106166 0.404634
vn -0.908295 0.106166 0.404634
vn -0.104660 -0.000003 0.994508
vn -0.104660 -0.000003 0.994508
vn -0.104660 -0.000003 0.994508
vn -0.104660 -0.000003 0.994508
vn 0.969625 -0.227052 0.090968
vn 0.969625 -0.227052 0.090968
vn 0.969625 -0.227052 0.090968
vn 0.969625 -0.227052 0.090968
vn 0.104652 0.000016 -0.994509
vn 0.104652 0.000016 -0.994509
vn 0.104652 0.000016 -0.994509
vn 0.104652 0.000016 -0.994509
vn -0.289894 0.023170 0.956778
vn -0.289894 0.023170 0.956778
vn -0.289894 0.023170 0.956778
vn -0.289894 0.023170 0.956778
vn 0.088460 0.991744 -0.092837
vn 0.088460 0.991744 -0.092837
vn 0.088460 0.991744 -0.092837
vn 0.088460 0.991744 -0.092837
vn -0.481197 -0.871033 -0.098745
vn -0.481197 -0.871033 -0.098745
vn -0.481197 -0.871033 -0.098745
vn -0.481197 -0.871033 -0.098745
vn -0.088473 -0.991744 0.092821
vn -0.088473 -0.991744 0.092821
vn -0.088473 -0.991744 0.092821
vn -0.088473 -0.991744 0.092821
vn 0.979598 -0.151287 -0.132286
vn 0.979598 -0.151287 -0.132286
vn 0.979598 -0.151287 -0.132286
vn 0.979598 -0.151287 -0.132286
vn -0.006363 -0.993863 -0.110431
vn -0.006363 -0.993863 -0.110431
vn -0.006363 -0.993863 -0.110431
vn -0.006363 -0.993863 -0.110431
vn -0.979584 0.170003 0.107309
vn -0.979584 0.170003 0.107309
vn -0.979584 0.170003 0.107309
vn -0.979584 0.170003 0.107309
vn -0.003275 0.998139 0.060892
vn -0.003275 0.998139 0.060892
vn -0.003275 0.998139 0.060892
vn -0.003275 0.998139 0.060892
vn 0.980380 -0.194069 0.034536
vn 0.980380 -0.194069 0.034536
vn 0.980380 -0.194069 0.034536
vn 0.980380 -0.194069 0.034536
vn 0.119146 -0.639310 0.759663
vn 0.119146 -0.639310 0.759663
vn 0.119146 -0.639310 0.759663
vn 0.119146 -0.639310 0.759663
vn -0.983420 0.138304 -0.117289
vn -0.983420 0.138304 -0.117289
vn -0.983420 0.138304 -0.117289
vn -0.983420 0.138304 -0.117289
vn 0.013688 0.570704 -0.821042
vn 0.013688 0.570704 -0.821042
vn 0.013688 0.570704 -0.821042
vn 0.013688 0.570704 -0.821042
vn 0.972649 0.046866 0.227501
vn 0.972649 0.046866 0.227501
vn 0.972649 0.046866 0.227501
vn 0.972649 0.046866 0.227501
vn 0.200159 0.333092 0.921404
vn 0.200159 0.333092 0.921405
vn 0.200159 0.333092 0.921405
vn 0.200159 0.333092 0.921405
vn -0.978788 -0.035413 -0.201790
vn -0.978788 -0.035413 -0.201790
vn -0.978788 -0.035413 -0.201790
vn -0.978788 -0.035413 -0.201790
vn 0.002274 -0.288486 -0.957482
vn 0.002274 -0.288486 -0.957482
vn 0.002274 -0.288486 -0.957482
vn 0.002274 -0.288486 -0.957482
vn 0.071641 0.997405 0.007118
vn 0.071641 0.997405 0.007118
vn 0.071641 0.997405 0.007118
vn 0.071641 0.997405 0.007118
vn -0.108991 -0.007991 0.994011
vn -0.108991 -0.007991 0.994011
vn -0.108991 -0.007991 0.994011
vn -0.108991 -0.007991 0.994011
vn -0.098238 -0.995120 -0.009227
vn -0.098238 -0.995120 -0.009227
vn -0.098238 -0.995120 -0.009227
vn -0.098238 -0.995120 -0.009227
vn 0.108585 0.007243 -0.994061
vn 0.108585 0.007243 -0.994061
vn 0.108585 0.007243 -0.994061
vn 0.108585 0.007243 -0.994061
vn 0.991754 0.096546 0.084276
vn 0.991754 0.096546 0.084276
vn 0.866037 0.492490 0.086224
vn 0.866037 0.492490 0.086224
vn 0.167753 0.985795 0.008207
vn 0.000000 0.999915 0.013068
vn 0.000000 0.999915 0.013068
vn -0.167753 0.985795 0.008207
vn 0.000000 0.059114 0.998251
vn 0.000000 0.059114 0.998251
vn 0.000000 0.059114 0.998251
vn 0.000000 0.059114 0.998251
vn 0.056286 -0.998411 0.002797
vn -0.056286 -0.998411 0.002797
vn 0.000000 -0.997949 0.064022
vn 0.000000 -0.997949 0.064022
vn 0.169599 0.008135 -0.985480
vn -0.169599 0.008135 -0.985480
vn -0.169599 0.008135 -0.985480
vn 0.169599 0.008135 -0.985480
vn -0.104652 -0.000004 0.994509
vn -0.104652 -0.000004 0.994509
vn -0.104652 -0.000004 0.994509
vn 0.167753 0.985795 0.008207
vn 0.852598 0.522488 -0.009160
vn 0.167753 0.985795 0.008207
vn -0.046170 0.007306 0.998907
vn -0.740687 0.025306 0.671374
vn -0.740686 0.025306 0.671374
vn -0.046170 0.007306 0.998907
vn 0.056286 -0.998411 0.002797
vn 0.817451 -0.575853 0.012892
vn 0.056286 -0.998411 0.002797
vn -0.990143 0.104821 -0.092894
vn -0.990143 0.104821 -0.092894
vn -0.995037 0.044153 -0.089170
vn -0.995037 0.044153 -0.089170
vn -0.094302 -0.025642 0.995213
vn -0.220832 0.017596 0.975153
vn -0.220832 0.017596 0.975153
vn 0.095173 0.023536 -0.995183
vn 0.095173 0.023536 -0.995183
vn 0.098489 0.052317 -0.993762
vn 0.098489 0.052317 -0.993762
vn 0.192486 -0.031999 -0.980778
vn 0.104654 -0.000010 -0.994509
vn 0.104656 0.000000 -0.994509
vn 0.104656 0.000000 -0.994509
vn -0.094302 -0.025642 0.995213
vn -0.213534 0.036034 0.976271
vn -0.104652 -0.000004 0.994509
vn -0.104650 0.000000 0.994509
s off
f 51/1/1 54/2/2 53/3/3 52/4/4
f 13/5/5 14/6/6 18/7/7 17/8/8
f 13/5/9 2/9/10 4/10/11 14/6/12
f 10/11/13 3/12/14 1/13/15 7/14/16
f 12/15/17 13/5/18 17/16/19 16/17/20
f 58/18/21 31/19/22 52/4/23 53/3/24
f 1/13/25 5/20/26 8/21/27 7/14/28
f 57/22/29 33/23/30 54/2/31
f 4/24/32 11/25/33 14/26/34
f 9/27/35 6/28/36 3/29/37 10/30/38
f 57/22/39 34/31/40 31/32/41 58/33/42
f 8/34/43 5/35/44 6/28/45 9/27/46
f 8/21/47 20/36/48 21/37/49 7/14/50
f 7/14/51 21/38/52 22/39/53 10/11/54
f 12/40/55 16/41/56 15/42/57 11/25/58
f 11/25/59 15/42/60 18/7/61 14/26/62
f 16/41/63 20/43/64 19/44/65 15/42/66
f 20/36/67 16/17/68 17/16/69 21/37/70
f 21/38/71 17/8/72 18/7/73 22/39/74
f 15/42/75 19/44/76 22/39/77 18/7/78
f 8/34/79 9/27/80 19/44/81 20/43/82
f 19/44/83 9/27/84 10/30/85 22/39/86
f 27/45/87 23/46/88 24/47/89 28/48/90
f 25/49/91 29/50/92 28/48/93 24/47/94
f 29/51/95 25/52/96 26/53/97 30/54/98
f 30/54/99 26/53/100 23/46/101 27/45/102
f 35/55/103 38/56/104 37/57/105 36/58/106
f 29/50/107 5/20/108 1/13/109 28/48/110
f 6/28/111 5/35/112 29/51/113 30/54/114
f 3/29/115 6/28/116 30/54/117 27/45/118
f 1/13/119 35/55/120 36/58/121 28/48/122
f 28/48/123 36/58/124 37/57/125 27/45/126
f 48/59/127 50/60/128 49/61/129 47/62/130
f 3/29/131 38/56/132 35/55/133 1/13/134
f 27/45/135 40/63/136 39/64/137 3/29/138
f 3/29/139 39/64/140 41/65/141 38/56/142
f 38/56/143 41/65/144 42/66/145 37/57/146
f 37/57/147 42/66/148 40/63/149 27/45/150
f 40/63/151 44/67/152 43/68/153 39/64/154
f 39/64/155 43/68/156 45/69/157 41/65/158
f 41/65/159 45/69/160 46/70/161 42/66/162
f 42/66/163 46/70/164 44/67/165 40/63/166
f 44/67/167 48/59/168 47/62/169 43/68/170
f 43/68/171 47/62/172 49/61/173 45/69/174
f 45/69/175 49/61/176 50/60/177 46/70/178
f 46/70/179 50/60/180 48/59/181 44/67/182
f 23/46/183 51/1/184 52/4/185 24/47/186
f 31/19/187 25/49/188 24/47/189 52/4/190
f 25/52/191 31/32/192 34/31/193 26/53/194
f 26/53/195 34/31/196 51/1/197 23/46/198
f 54/2/199 33/23/200 32/71/201 53/3/202
f 12/15/203 2/9/204 13/5/205
f 32/72/206 33/73/207 55/74/208
f 2/75/209 32/72/210 55/74/211 56/76/212
f 4/77/213 2/75/214 56/76/215
f 11/25/216 57/22/217 58/33/218 12/40/219
f 32/71/220 58/18/221 53/3/222
f 34/31/223 57/22/224 54/2/225 51/1/226
f 57/22/227 11/25/228 4/24/229 33/23/230
f 32/71/231 2/9/232 12/15/233 58/18/234
f 109/78/235 110/79/236 111/80/237 112/81/238
f 71/82/239 75/83/240 76/84/241 72/85/242
f 71/82/243 72/85/244 62/86/245 60/87/246
f 68/88/247 65/89/248 59/90/249 61/91/250
f 70/92/251 74/93/252 75/94/253 71/82/254
f 116/95/255 111/80/256 110/79/257 89/96/258
f 59/90/259 65/89/260 66/97/261 63/98/262
f 115/99/263 112/81/264 91/100/265
f 62/101/266 72/102/267 69/103/268
f 67/104/269 68/105/270 61/106/271 64/107/272
f 115/99/273 116/108/274 89/109/275 92/110/276
f 66/111/277 67/104/278 64/107/279 63/112/280
f 66/97/281 65/89/282 79/113/283 78/114/284
f 65/89/285 68/88/286 80/115/287 79/116/288
f 70/117/289 69/103/290 73/118/291 74/119/292
f 69/103/293 72/102/294 76/84/295 73/118/296
f 74/119/297 73/118/298 77/120/299 78/121/300
f 78/114/301 79/113/302 75/94/303 74/93/304
f 79/116/305 80/115/306 76/84/307 75/83/308
f 73/118/309 76/84/310 80/115/311 77/120/312
f 66/111/313 78/121/314 77/120/315 67/104/316
f 77/120/317 80/115/318 68/105/319 67/104/320
f 85/122/321 86/123/322 82/124/323 81/125/324
f 83/126/325 82/124/326 86/123/327 87/127/328
f 87/128/329 88/129/330 84/130/331 83/131/332
f 88/129/333 85/122/334 81/125/335 84/130/336
f 93/132/337 94/133/338 95/134/339 96/135/340
f 87/127/341 86/123/342 59/90/343 63/98/344
f 64/107/345 88/129/346 87/128/347 63/112/348
f 61/106/349 85/122/350 88/129/351 64/107/352
f 59/90/353 86/123/354 94/133/355 93/132/356
f 86/123/357 85/122/358 95/134/359 94/133/360
f 106/136/361 105/137/362 107/138/363 108/139/364
f 61/106/365 59/90/366 93/132/367 96/135/368
f 85/122/369 61/106/370 97/140/371 98/141/372
f 61/106/373 96/135/374 99/142/375 97/140/376
f 96/135/377 95/134/378 100/143/379 99/142/380
f 95/134/381 85/122/382 98/141/383 100/143/384
f 98/141/385 97/140/386 101/144/387 102/145/388
f 97/140/389 99/142/390 103/146/391 101/144/392
f 99/142/393 100/143/394 104/147/395 103/146/396
f 100/143/397 98/141/398 102/145/399 104/147/400
f 102/145/401 101/144/402 105/137/403 106/136/404
f 101/144/405 103/146/406 107/138/407 105/137/408
f 103/146/409 104/147/410 108/139/411 107/138/412
f 104/147/413 102/145/414 106/136/415 108/139/416
f 81/125/417 82/124/418 110/79/419 109/78/420
f 89/96/421 110/79/422 82/124/423 83/126/424
f 83/131/425 84/130/426 92/110/427 89/109/428
f 84/130/429 81/125/430 109/78/431 92/110/432
f 112/81/433 111/80/434 90/148/435 91/100/436
f 91/149/437 113/150/438 55/151/439 33/152/440
f 113/150/441 114/153/442 56/154/443 55/151/444
f 62/155/445 4/156/446 56/154/447 114/153/448
f 91/149/449 33/152/450 4/156/451 62/155/452
f 70/92/453 71/82/454 60/87/455
f 90/157/456 113/150/457 91/149/458
f 60/158/459 114/153/460 113/150/461 90/157/462
f 62/155/463 114/153/464 60/158/465
f 69/103/466 70/117/467 116/108/468 115/99/469
f 90/148/470 111/80/471 116/95/472
f 92/110/473 109/78/474 112/81/475 115/99/476
f 115/99/477 91/100/478 62/101/479 69/103/480
f 90/148/481 116/95/482 70/92/483 60/87/484
