# This file uses centimeters as units for non-parametric coordinates.

v 0.000010 115.041138 6.953735
v 0.000010 102.196289 -11.929260
v 0.000010 117.513062 -6.530392
v 0.000010 117.282715 2.995575
v 0.000010 117.586182 -1.947009
v 0.000010 94.571655 -10.992043
v 0.000010 98.455566 -10.635086
v 0.000010 97.443970 -7.706032
v 0.000010 102.456177 -4.690357
v 0.000010 92.640259 -8.190536
v 0.000010 112.219604 7.850838
v 9.673584 108.226074 -11.196625
v 9.409950 102.476196 -10.785812
v 8.877586 115.830566 -5.645985
v 9.457825 114.527954 -1.485275
v 6.381897 115.502686 3.618458
v 9.230263 113.821655 3.300529
v 7.614174 97.872070 -8.534027
v 8.129082 111.821777 6.784576
v 8.622650 109.688599 5.308624
v 10.186066 104.440552 2.983665
v 9.890678 101.265503 -3.317459
v 10.743332 104.600830 0.877458
v 5.425068 116.370239 0.313560
v 3.756023 115.918335 -6.139091
v 7.214455 110.643677 7.355629
v 10.870628 108.230225 -0.867901
v 10.725197 106.046875 -4.951160
v 7.990936 109.032837 5.685242
v 6.607170 97.443970 -7.706032
v 7.896828 101.263672 -2.208015
v 9.204163 104.220825 0.401276
v 9.700645 106.662598 -0.457973
v 8.697441 104.096191 3.840263
v 9.439125 106.006592 -4.150829
v 5.172909 94.703369 -6.015057
v 6.292053 95.308838 -9.069420
v 3.906368 112.892090 7.439232
v 3.533867 111.335449 7.613525
v 5.050926 98.193481 -9.851662
v 9.096313 108.430054 4.042297
v 9.934280 111.287720 2.943974
v 2.603260 117.112427 -6.362286
v 5.776585 116.366455 -6.187229
v 8.493156 107.406738 4.390930
v 10.660919 109.763550 2.655777
v 10.883072 109.846558 0.265786
v 9.993156 113.899902 -6.709854
v 10.755341 112.343384 -1.584008
v 10.064461 110.481079 2.620350
v 9.913780 113.199707 -1.586961
v 9.199280 114.577637 -5.817932
v 10.272842 108.138672 -3.516209
v 9.255013 110.835449 -8.691322
v 9.916237 111.838379 -8.387230
v 8.511162 95.828613 -6.906788
v 9.575226 97.906616 -1.881544
v 6.870644 95.428101 -6.140038
v 7.433006 97.531006 -1.048570
v 6.858513 92.387573 -4.876926
v 7.382835 93.991943 -1.730269
v 5.859386 91.896729 -4.439199
v 5.620670 93.717896 -1.122150
v 7.644989 88.857910 -1.941987
v 7.369720 90.917480 -0.735379
v 6.805717 88.426270 -1.235719
v 6.086945 90.599487 -0.369749
v 5.645908 102.006714 -11.104630
v 3.869476 104.071899 -11.428375
v 8.724297 98.093262 -9.403580
v 6.706360 102.037109 -11.814705
v 4.402821 104.751099 -12.488007
v 2.189772 95.139526 -10.325790
v 1.915970 98.929688 -9.843407
v 6.301888 94.232056 -9.720016
v 4.123444 93.310425 -6.621315
v 3.507469 93.918823 -10.857613
v -9.673569 108.226074 -11.196625
v -9.409935 102.476196 -10.785812
v -8.877571 115.830566 -5.645985
v -9.457809 114.527954 -1.485275
v -6.686508 114.621338 5.203857
v -9.230247 113.821655 3.300529
v -7.614159 97.872070 -8.534027
v -8.279480 112.083496 6.405769
v -8.622635 109.688599 5.308624
v -10.185966 104.440552 2.983665
v -9.890663 101.265503 -3.317459
v -10.743248 104.600830 0.877458
v -5.425045 116.370239 0.313560
v -3.756001 115.918335 -6.139091
v -3.372677 116.139282 3.837452
v -7.364868 110.905518 6.976822
v -10.870613 108.230225 -0.867901
v -10.725182 106.046875 -4.951160
v -7.990921 109.032837 5.685242
v -6.607155 97.443970 -7.706032
v -7.896812 101.263672 -2.208015
v -9.204071 104.220825 0.401276
v -9.700630 106.662598 -0.457973
v -8.719673 104.096191 3.840263
v -9.439110 106.006592 -4.150829
v -5.172886 94.703369 -6.015057
v -6.292038 95.308838 -9.069420
v -3.881424 114.649780 5.960236
v -3.553352 111.606201 7.303505
v -5.050903 98.193481 -9.851662
v -9.096298 108.430054 4.042297
v -9.934265 111.287720 2.943974
v -2.603241 117.112427 -6.362286
v -5.776562 116.366455 -6.187229
v -8.519325 107.406738 4.390930
v -10.660904 109.763550 2.655777
v -10.883057 109.846558 0.265786
v -9.993141 113.899902 -6.709854
v -10.755325 112.343384 -1.584008
v -10.064445 110.481079 2.620350
v -9.913765 113.199707 -1.586961
v -9.199265 114.577637 -5.817932
v -10.272827 108.138672 -3.516209
v -9.254997 110.835449 -8.691322
v -9.916222 111.838379 -8.387230
v -8.511147 95.828613 -6.906788
v -9.575211 97.906616 -1.881544
v -6.870628 95.428101 -6.140038
v -7.432991 97.531006 -1.048570
v -8.109459 93.380127 -6.045174
v -8.998749 93.974487 -2.800607
v -7.469551 92.387817 -5.854267
v -7.603661 92.773438 -2.398851
v -11.023232 90.505005 -4.095854
v -10.077888 91.683472 -2.227435
v -10.537468 89.538330 -3.627905
v -9.101379 90.737183 -2.050111
v -5.645885 102.006714 -11.104630
v -3.869453 104.071899 -11.428375
v -8.724281 98.093262 -9.403580
v -6.706345 102.037109 -11.814705
v -4.402798 104.751099 -12.488007
v -2.189753 95.139526 -10.325790
v -1.915951 98.929688 -9.843407
v -6.301872 94.232056 -9.720016
v -4.123421 93.310425 -6.621311
v -3.507446 93.918823 -10.857613
v -5.984131 114.197632 10.335449
v -5.226006 112.285034 8.830833
v -0.760899 112.825684 9.428406
v -1.251448 115.347534 11.224564
v -6.560921 110.790771 11.278381
v -6.229897 109.780762 9.572212
v -3.300865 109.882324 10.262253
v -3.329720 111.091919 12.311752
v -7.507919 108.292480 10.203659
v -7.503159 107.815796 8.933098
v -5.679501 107.143677 9.202690
v -5.460133 107.601196 10.707962
v -4.954987 115.155884 8.402412
v -0.592354 115.885132 8.848106
v -3.541386 115.969849 10.831772
v -2.820648 116.681763 8.661995
v 0.000010 115.254883 -8.889824
v -1.768393 114.712524 -8.830971
v -2.847862 113.721558 -9.473152
v -3.423500 110.927124 -11.064148
v -2.540287 107.590576 -12.293686
v 0.000010 106.131836 -12.261131
v 2.318151 107.865601 -12.343163
v 3.220387 110.897095 -11.156425
v 2.986919 113.757935 -9.389610
v 1.867767 114.788696 -8.711327
v -2.182703 116.096313 -10.105988
v 0.005584 116.664795 -10.166306
v -3.377594 114.931519 -10.858994
v -4.059803 111.686035 -12.684708
v -2.949020 107.733398 -14.111542
v 0.005912 105.941772 -14.137344
v 2.723276 108.028076 -14.162704
v 3.854233 111.660645 -12.780785
v 3.531895 114.970337 -10.770630
v 2.295031 116.177490 -9.979599
v -1.620998 116.048218 -12.116432
v -0.003925 114.906738 -13.787033
v 0.006896 116.423096 -12.060898
v -2.409452 114.875000 -12.865082
v -2.888195 112.170898 -14.270554
v -0.003105 111.724609 -15.772034
v -0.009171 110.444214 -15.839462
v -2.139420 109.130127 -15.288559
v -0.025075 107.811768 -15.456345
v 1.977617 109.289917 -15.322250
v 2.752789 112.198975 -14.312561
v 2.470789 114.910767 -12.807465
v 1.679384 116.095947 -12.039978
v 4.480164 111.577515 7.055824
v 5.039581 112.981934 6.732399
v 0.280043 107.396729 1.471718
vt 0.049735 0.197968
vt 0.049735 0.197968
vt 0.049735 0.197968
vt 0.049735 0.197968
vt 0.049735 0.197968
vt 0.049735 0.197968
vt 0.049735 0.197968
vt 0.049735 0.197968
vt 0.049735 0.197968
vt 0.049735 0.197968
vt 0.049735 0.197968
vt 0.049735 0.197968
vt 0.049735 0.197968
vt 0.049735 0.197968
vt 0.049735 0.197968
vt 0.049735 0.197968
vt 0.049735 0.197968
vt 0.049735 0.197968
vt 0.049735 0.197968
vt 0.049735 0.197968
vt 0.049735 0.197968
vt 0.049735 0.197968
vt 0.049735 0.197968
vt 0.049735 0.197968
vt 0.049735 0.197968
vt 0.049735 0.197968
vt 0.049735 0.197968
vt 0.049735 0.197968
vt 0.049735 0.197968
vt 0.049735 0.197968
vt 0.049735 0.197968
vt 0.049735 0.197968
vt 0.049735 0.197968
vt 0.049735 0.197968
vt 0.049735 0.197968
vt 0.049735 0.197968
vt 0.049735 0.197968
vt 0.049735 0.197968
vt 0.049735 0.197968
vt 0.049735 0.197968
vt 0.049735 0.197968
vt 0.049735 0.197968
vt 0.049735 0.197968
vt 0.049735 0.197968
vt 0.049735 0.197968
vt 0.049735 0.197968
vt 0.049735 0.197968
vt 0.049735 0.197968
vt 0.049735 0.197968
vt 0.049735 0.197968
vt 0.049735 0.197968
vt 0.049735 0.197968
vt 0.049735 0.197968
vt 0.049735 0.197968
vt 0.049735 0.197968
vt 0.049735 0.197968
vt 0.049735 0.197968
vt 0.049735 0.197968
vt 0.049735 0.197968
vt 0.049735 0.197968
vt 0.049735 0.197968
vt 0.049735 0.197968
vt 0.049735 0.197968
vt 0.049735 0.197968
vt 0.049735 0.197968
vt 0.049735 0.197968
vt 0.049735 0.197968
vt 0.049735 0.197968
vt 0.049735 0.197968
vt 0.049735 0.197968
vt 0.049735 0.197968
vt 0.049735 0.197968
vt 0.049735 0.197968
vt 0.049735 0.197968
vt 0.049735 0.197968
vt 0.049735 0.197968
vt 0.049735 0.197968
vt 0.049735 0.197968
vt 0.049735 0.197968
vt 0.049735 0.197968
vt 0.049735 0.197968
vt 0.049735 0.197968
vt 0.049735 0.197968
vt 0.049735 0.197968
vt 0.049735 0.197968
vt 0.049735 0.197968
vt 0.049735 0.197968
vt 0.049735 0.197968
vt 0.049735 0.197968
vt 0.049735 0.197968
vt 0.049735 0.197968
vt 0.049735 0.197968
vt 0.049735 0.197968
vt 0.049735 0.197968
vt 0.049735 0.197968
vt 0.049735 0.197968
vt 0.049735 0.197968
vt 0.049735 0.197968
vt 0.049735 0.197968
vt 0.049735 0.197968
vt 0.049735 0.197968
vt 0.049735 0.197968
vt 0.049735 0.197968
vt 0.049735 0.197968
vt 0.049735 0.197968
vt 0.049735 0.197968
vt 0.049735 0.197968
vt 0.049735 0.197968
vt 0.049735 0.197968
vt 0.049735 0.197968
vt 0.049735 0.197968
vt 0.049735 0.197968
vt 0.049735 0.197968
vt 0.049735 0.197968
vt 0.049735 0.197968
vt 0.049735 0.197968
vt 0.049735 0.197968
vt 0.049735 0.197968
vt 0.049735 0.197968
vt 0.049735 0.197968
vt 0.049735 0.197968
vt 0.049735 0.197968
vt 0.049735 0.197968
vt 0.049735 0.197968
vt 0.049735 0.197968
vt 0.049735 0.197968
vt 0.049735 0.197968
vt 0.049735 0.197968
vt 0.049735 0.197968
vt 0.049735 0.197968
vt 0.049735 0.197968
vt 0.049735 0.197968
vt 0.049735 0.197968
vt 0.049735 0.197968
vt 0.049735 0.197968
vt 0.049735 0.197968
vt 0.049735 0.197968
vt 0.049735 0.197968
vt 0.049735 0.197968
vt 0.049735 0.197968
vt 0.049735 0.197968
vt 0.049735 0.197968
vt 0.049735 0.197968
vt 0.049735 0.197968
vt 0.049735 0.197968
vt 0.049735 0.197968
vt 0.049735 0.197968
vt 0.049735 0.197968
vt 0.049735 0.197968
vt 0.049735 0.197968
vt 0.049735 0.197968
vt 0.049735 0.197968
vt 0.049735 0.197968
vt 0.049735 0.197968
vt 0.049735 0.197968
vt 0.049735 0.197968
vt 0.049735 0.197968
vt 0.049735 0.197968
vt 0.049735 0.197968
vt 0.049735 0.197968
vt 0.049735 0.197968
vt 0.049735 0.197968
vt 0.049735 0.197968
vt 0.049735 0.197968
vt 0.049735 0.197968
vt 0.049735 0.197968
vt 0.049735 0.197968
vt 0.049735 0.197968
vt 0.049735 0.197968
vt 0.049735 0.197968
vt 0.049735 0.197968
vt 0.049735 0.197968
vt 0.049735 0.197968
vt 0.049735 0.197968
vt 0.049735 0.197968
vt 0.049735 0.197968
vt 0.049735 0.197968
vt 0.049735 0.197968
vt 0.049735 0.197968
vt 0.049735 0.197968
vt 0.049735 0.197968
vt 0.049735 0.197968
vt 0.049735 0.197968
vt 0.049735 0.197968
vt 0.049735 0.197968
vt 0.049735 0.197968
vt 0.049735 0.197968
vt 0.049735 0.197968
vt 0.049735 0.197968
vt 0.049735 0.197968
vt 0.049735 0.197968
vt 0.049735 0.197968
vt 0.049735 0.197968
vt 0.049735 0.197968
vt 0.049735 0.197968
vt 0.049735 0.197968
vt 0.049735 0.197968
vt 0.049735 0.197968
vt 0.049735 0.197968
vt 0.049735 0.197968
vt 0.049735 0.197968
vt 0.049735 0.197968
vt 0.049735 0.197968
vt 0.049735 0.197968
vt 0.049735 0.197968
vt 0.049735 0.197968
vt 0.049735 0.197968
vt 0.049735 0.197968
vt 0.049735 0.197968
vt 0.049735 0.197968
vt 0.049735 0.197968
vt 0.049735 0.197968
vt 0.049735 0.197968
vt 0.049735 0.197968
vt 0.049735 0.197968
vt 0.049735 0.197968
vt 0.049735 0.197968
vt 0.049735 0.197968
vt 0.049735 0.197968
vt 0.049735 0.197968
vt 0.049735 0.197968
vt 0.049735 0.197968
vt 0.049735 0.197968
vt 0.049735 0.197968
vt 0.049735 0.197968
vt 0.049735 0.197968
vt 0.049735 0.197968
vt 0.049735 0.197968
vt 0.049735 0.197968
vt 0.049735 0.197968
vt 0.049735 0.197968
vt 0.049735 0.197968
vt 0.049735 0.197968
vt 0.049735 0.197968
vt 0.049735 0.197968
vt 0.049735 0.197968
vt 0.049735 0.197968
vt 0.049735 0.197968
vt 0.049735 0.197968
vt 0.049735 0.197968
vt 0.049735 0.197968
vt 0.049735 0.197968
vt 0.049735 0.197968
vt 0.049735 0.197968
vt 0.049735 0.197968
vt 0.049735 0.197968
vt 0.049735 0.197968
vt 0.049735 0.197968
vt 0.049735 0.197968
vt 0.049735 0.197968
vt 0.049735 0.197968
vt 0.049735 0.197968
vt 0.049735 0.197968
vt 0.049735 0.197968
vt 0.049735 0.197968
vt 0.049735 0.197968
vt 0.049735 0.197968
vt 0.049735 0.197968
vt 0.049735 0.197968
vt 0.049735 0.197968
vt 0.049735 0.197968
vt 0.049735 0.197968
vt 0.049735 0.197968
vt 0.049735 0.197968
vt 0.049735 0.197968
vt 0.049735 0.197968
vt 0.049735 0.197968
vt 0.049735 0.197968
vt 0.049735 0.197968
vt 0.049735 0.197968
vt 0.049735 0.197968
vt 0.049735 0.197968
vt 0.049735 0.197968
vt 0.049735 0.197968
vt 0.049735 0.197968
vt 0.049735 0.197968
vt 0.049735 0.197968
vt 0.049735 0.197968
vt 0.049735 0.197968
vt 0.049735 0.197968
vt 0.049735 0.197968
vt 0.049735 0.197968
vt 0.049735 0.197968
vt 0.049735 0.197968
vt 0.049735 0.197968
vt 0.049735 0.197968
vt 0.049735 0.197968
vt 0.049735 0.197968
vt 0.049735 0.197968
vt 0.049735 0.197968
vt 0.049735 0.197968
vt 0.049735 0.197968
vt 0.049735 0.197968
vt 0.049735 0.197968
vt 0.049735 0.197968
vt 0.049735 0.197968
vt 0.049735 0.197968
vt 0.049735 0.197968
vt 0.049735 0.197968
vt 0.049735 0.197968
vt 0.049735 0.197968
vt 0.049735 0.197968
vt 0.049735 0.197968
vt 0.049735 0.197968
vt 0.049735 0.197968
vt 0.049735 0.197968
vt 0.049735 0.197968
vt 0.049735 0.197968
vt 0.049735 0.197968
vt 0.049735 0.197968
vt 0.049735 0.197968
vt 0.049735 0.197968
vt 0.049735 0.197968
vt 0.049735 0.197968
vt 0.049735 0.197968
vt 0.049735 0.197968
vt 0.049735 0.197968
vt 0.049735 0.197968
vt 0.049735 0.197968
vt 0.049735 0.197968
vt 0.049735 0.197968
vt 0.049735 0.197968
vt 0.049735 0.197968
vt 0.049735 0.197968
vt 0.049735 0.197968
vt 0.049735 0.197968
vt 0.049735 0.197968
vt 0.049735 0.197968
vt 0.049735 0.197968
vt 0.049735 0.197968
vt 0.049735 0.197968
vt 0.049735 0.197968
vt 0.049735 0.197968
vt 0.049735 0.197968
vt 0.049735 0.197968
vt 0.049735 0.197968
vt 0.049735 0.197968
vt 0.049735 0.197968
vt 0.049735 0.197968
vt 0.049735 0.197968
vt 0.049735 0.197968
vt 0.049735 0.197968
vt 0.049735 0.197968
vt 0.049735 0.197968
vt 0.049735 0.197968
vt 0.049735 0.197968
vt 0.049735 0.197968
vt 0.049735 0.197968
vt 0.049735 0.197968
vt 0.049735 0.197968
vt 0.049735 0.197968
vt 0.049735 0.197968
vt 0.049735 0.197968
vt 0.049735 0.197968
vt 0.049735 0.197968
vt 0.049735 0.197968
vt 0.049735 0.197968
vt 0.049735 0.197968
vt 0.049735 0.197968
vt 0.049735 0.197968
vt 0.049735 0.197968
vt 0.049735 0.197968
vt 0.049735 0.197968
vt 0.049735 0.197968
vt 0.049735 0.197968
vt 0.049735 0.197968
vt 0.049735 0.197968
vt 0.049735 0.197968
vt 0.049735 0.197968
vt 0.049735 0.197968
vt 0.049735 0.197968
vt 0.049735 0.197968
vt 0.049735 0.197968
vt 0.049735 0.197968
vt 0.049735 0.197968
vt 0.049735 0.197968
vt 0.049735 0.197968
vt 0.049735 0.197968
vt 0.049735 0.197968
vt 0.049735 0.197968
vt 0.049735 0.197968
vt 0.049735 0.197968
vt 0.049735 0.197968
vt 0.049735 0.197968
vt 0.049735 0.197968
vt 0.049735 0.197968
vt 0.049735 0.197968
vt 0.049735 0.197968
vt 0.049735 0.197968
vt 0.049735 0.197968
vt 0.049735 0.197968
vt 0.049735 0.197968
vt 0.049735 0.197968
vt 0.049735 0.197968
vn 0.605106 0.463115 -0.647589
vn 0.605106 0.463115 -0.647589
vn 0.605106 0.463115 -0.647589
vn 0.142118 -0.129754 -0.981309
vn 0.142118 -0.129754 -0.981309
vn 0.142118 -0.129754 -0.981309
vn 0.142118 -0.129754 -0.981309
vn 0.143410 -0.031703 -0.989156
vn 0.143410 -0.031703 -0.989155
vn 0.143410 -0.031703 -0.989155
vn 0.721111 0.652742 -0.232223
vn 0.721111 0.652742 -0.232223
vn 0.721111 0.652742 -0.232223
vn 0.363339 0.810696 0.459084
vn 0.363339 0.810696 0.459084
vn 0.363339 0.810696 0.459084
vn 0.386631 0.625383 0.677800
vn 0.386631 0.625383 0.677800
vn 0.386631 0.625383 0.677800
vn 0.906161 0.069480 0.417186
vn 0.906161 0.069480 0.417186
vn 0.906161 0.069480 0.417186
vn 0.906161 0.069480 0.417186
vn 0.905019 -0.336978 0.259589
vn 0.905019 -0.336978 0.259589
vn 0.905019 -0.336978 0.259589
vn 0.905019 -0.336978 0.259589
vn 0.963102 0.255834 0.083564
vn 0.963102 0.255834 0.083564
vn 0.963102 0.255834 0.083564
vn 0.966789 -0.201019 -0.157832
vn 0.966789 -0.201019 -0.157832
vn 0.966789 -0.201019 -0.157832
vn 0.992503 -0.053363 -0.109955
vn 0.992503 -0.053363 -0.109955
vn 0.992503 -0.053363 -0.109955
vn 0.992483 -0.119630 0.025809
vn 0.992483 -0.119630 0.025809
vn 0.992483 -0.119630 0.025809
vn 0.945644 -0.164796 0.280356
vn 0.945644 -0.164796 0.280356
vn 0.945644 -0.164796 0.280356
vn -0.216751 0.976150 -0.012281
vn -0.216751 0.976150 -0.012281
vn -0.216751 0.976150 -0.012281
vn 0.211141 0.522546 -0.826054
vn 0.211141 0.522546 -0.826054
vn 0.211141 0.522546 -0.826054
vn 0.211141 0.522546 -0.826054
vn 0.296122 0.519267 -0.801669
vn 0.296122 0.519267 -0.801669
vn 0.296122 0.519267 -0.801669
vn -0.215084 0.942448 -0.255991
vn -0.215084 0.942448 -0.255991
vn -0.215084 0.942448 -0.255991
vn 0.054623 0.969566 0.238657
vn 0.054623 0.969566 0.238657
vn 0.054623 0.969567 0.238657
vn 0.194431 0.979071 0.060143
vn 0.194431 0.979071 0.060143
vn 0.194431 0.979071 0.060143
vn 0.465618 0.872030 0.150875
vn 0.465618 0.872030 0.150874
vn 0.465618 0.872030 0.150874
vn 0.513088 0.854978 0.075849
vn 0.513088 0.854978 0.075849
vn 0.513088 0.854978 0.075849
vn 0.961067 0.253528 -0.109878
vn 0.961067 0.253528 -0.109878
vn 0.961067 0.253528 -0.109878
vn 0.961067 0.253528 -0.109878
vn 0.943014 -0.181034 -0.279199
vn 0.943014 -0.181034 -0.279199
vn 0.943014 -0.181034 -0.279199
vn 0.721310 -0.223115 0.655692
vn 0.721310 -0.223115 0.655691
vn 0.721310 -0.223115 0.655692
vn 0.721310 -0.223115 0.655692
vn 0.509644 -0.278861 0.813941
vn 0.509644 -0.278861 0.813941
vn 0.509644 -0.278861 0.813941
vn 0.509644 -0.278861 0.813941
vn 0.564747 -0.720963 -0.401589
vn 0.564747 -0.720963 -0.401588
vn 0.564747 -0.720963 -0.401588
vn 0.564747 -0.720963 -0.401588
vn 0.685999 -0.719060 -0.111170
vn 0.685999 -0.719060 -0.111170
vn 0.685999 -0.719060 -0.111170
vn 0.685999 -0.719060 -0.111170
vn 0.486298 0.050031 0.872359
vn 0.486298 0.050031 0.872359
vn 0.486298 0.050031 0.872359
vn 0.486298 0.050031 0.872359
vn 0.759633 -0.414307 0.501306
vn 0.759633 -0.414307 0.501306
vn 0.759633 -0.414307 0.501306
vn 0.759632 -0.414307 0.501306
vn 0.854542 -0.363203 0.371270
vn 0.854542 -0.363203 0.371270
vn 0.854542 -0.363203 0.371270
vn 0.854542 -0.363203 0.371270
vn 0.451999 -0.047084 -0.890775
vn 0.451999 -0.047084 -0.890775
vn 0.451999 -0.047084 -0.890775
vn 0.595177 -0.052535 0.801875
vn 0.595177 -0.052535 0.801875
vn 0.595177 -0.052535 0.801875
vn 0.595177 -0.052535 0.801875
vn 0.306552 0.114293 -0.944967
vn 0.306552 0.114293 -0.944967
vn 0.306552 0.114293 -0.944967
vn 0.306552 0.114293 -0.944967
vn 0.218305 -0.335213 -0.916502
vn 0.218305 -0.335213 -0.916502
vn 0.218305 -0.335212 -0.916502
vn 0.218305 -0.335212 -0.916502
vn 0.296330 0.688215 0.662230
vn 0.296330 0.688215 0.662230
vn 0.296330 0.688215 0.662230
vn 0.904465 -0.153198 0.398086
vn 0.904465 -0.153198 0.398086
vn 0.904465 -0.153198 0.398086
vn 0.993724 0.080359 0.077813
vn 0.993724 0.080359 0.077813
vn 0.993724 0.080359 0.077813
vn 0.992232 0.091175 -0.084631
vn 0.992232 0.091175 -0.084631
vn 0.992232 0.091175 -0.084631
vn 0.992232 0.091175 -0.084631
vn -0.083168 -0.591965 0.801661
vn -0.083168 -0.591964 0.801661
vn -0.083168 -0.591965 0.801662
vn -0.083168 -0.591965 0.801661
vn 0.210968 0.977299 0.019492
vn 0.210968 0.977299 0.019492
vn 0.210968 0.977299 0.019492
vn 0.153101 0.988085 -0.015778
vn 0.153101 0.988085 -0.015778
vn 0.153101 0.988085 -0.015778
vn 0.187877 0.689084 -0.699904
vn 0.187877 0.689084 -0.699904
vn 0.187877 0.689084 -0.699904
vn 0.187877 0.689084 -0.699904
vn 0.219309 0.654156 -0.723867
vn 0.219309 0.654156 -0.723867
vn 0.219309 0.654156 -0.723867
vn 0.219309 0.654156 -0.723867
vn 0.115322 0.952431 0.282092
vn 0.115322 0.952431 0.282092
vn 0.115322 0.952431 0.282092
vn 0.423623 0.905562 0.022386
vn 0.423623 0.905562 0.022386
vn 0.423623 0.905562 0.022386
vn 0.062295 0.232233 0.970663
vn 0.062295 0.232233 0.970663
vn 0.062295 0.232233 0.970663
vn 0.062295 0.232233 0.970663
vn 0.472631 0.699377 0.536183
vn 0.472631 0.699377 0.536183
vn 0.472631 0.699377 0.536183
vn 0.838576 -0.384907 0.385535
vn 0.838576 -0.384907 0.385535
vn 0.838576 -0.384907 0.385535
vn 0.838576 -0.384907 0.385535
vn 0.796058 -0.274135 0.539575
vn 0.796058 -0.274135 0.539575
vn 0.796058 -0.274135 0.539575
vn 0.796058 -0.274135 0.539575
vn 0.555071 0.228991 0.799662
vn 0.555071 0.228991 0.799662
vn 0.555071 0.228991 0.799662
vn 0.171917 0.851986 -0.494534
vn 0.171917 0.851986 -0.494534
vn 0.171917 0.851986 -0.494534
vn 0.705292 0.592120 0.389819
vn 0.705292 0.592119 0.389818
vn 0.705292 0.592120 0.389819
vn 0.705292 0.592120 0.389819
vn 0.710543 0.695614 0.106068
vn 0.710543 0.695614 0.106068
vn 0.710543 0.695614 0.106068
vn 0.710543 0.695614 0.106068
vn 0.873966 -0.124049 0.469889
vn 0.873966 -0.124050 0.469889
vn 0.873966 -0.124049 0.469889
vn 0.965947 0.239923 0.096871
vn 0.965947 0.239923 0.096871
vn 0.965947 0.239923 0.096871
vn 0.965947 0.239923 0.096871
vn 0.954538 0.293229 -0.053609
vn 0.954538 0.293229 -0.053609
vn 0.954538 0.293229 -0.053609
vn 0.954538 0.293229 -0.053609
vn 0.460823 0.235719 -0.855616
vn 0.460823 0.235719 -0.855616
vn 0.460823 0.235719 -0.855616
vn 0.718768 -0.676248 -0.161437
vn 0.718768 -0.676248 -0.161437
vn 0.718768 -0.676248 -0.161437
vn 0.841923 -0.357375 -0.404288
vn 0.841923 -0.357375 -0.404288
vn 0.841923 -0.357375 -0.404288
vn 0.841923 -0.357375 -0.404288
vn 0.378244 0.031141 -0.925182
vn 0.378244 0.031141 -0.925182
vn 0.378244 0.031141 -0.925182
vn 0.984663 0.086541 -0.151490
vn 0.984663 0.086541 -0.151490
vn 0.984663 0.086541 -0.151490
vn 0.228372 0.609341 -0.759309
vn 0.228372 0.609341 -0.759309
vn 0.228372 0.609341 -0.759309
vn 0.962782 -0.237258 -0.129460
vn 0.962782 -0.237258 -0.129460
vn 0.962782 -0.237258 -0.129460
vn 0.962782 -0.237258 -0.129460
vn -0.238328 -0.641633 -0.729046
vn -0.238328 -0.641633 -0.729046
vn -0.238328 -0.641632 -0.729046
vn -0.238328 -0.641633 -0.729046
vn -0.979539 0.147312 0.137121
vn -0.979539 0.147312 0.137121
vn -0.979539 0.147312 0.137121
vn -0.979539 0.147312 0.137121
vn 0.284644 0.624385 0.727407
vn 0.284644 0.624385 0.727407
vn 0.284644 0.624385 0.727407
vn 0.284644 0.624385 0.727407
vn 0.891387 -0.451970 0.033941
vn 0.891387 -0.451970 0.033941
vn 0.891387 -0.451970 0.033941
vn 0.891387 -0.451970 0.033941
vn -0.280618 -0.367271 -0.886773
vn -0.280618 -0.367271 -0.886773
vn -0.280618 -0.367271 -0.886773
vn -0.280618 -0.367271 -0.886773
vn -0.939472 0.318875 -0.125344
vn -0.939472 0.318875 -0.125344
vn -0.939472 0.318875 -0.125344
vn -0.939472 0.318875 -0.125344
vn 0.340075 0.040292 0.939535
vn 0.340075 0.040292 0.939535
vn 0.340075 0.040292 0.939535
vn 0.340075 0.040292 0.939535
vn 0.993154 0.054963 -0.103078
vn 0.993154 0.054963 -0.103078
vn 0.993154 0.054963 -0.103078
vn 0.993154 0.054963 -0.103078
vn -0.118675 -0.671094 -0.731812
vn -0.118675 -0.671094 -0.731812
vn -0.118675 -0.671094 -0.731812
vn -0.118675 -0.671094 -0.731812
vn -0.975787 -0.218208 -0.014998
vn -0.975787 -0.218208 -0.014998
vn -0.975787 -0.218208 -0.014998
vn -0.975787 -0.218208 -0.014998
vn 0.242628 0.279829 0.928885
vn 0.242628 0.279829 0.928885
vn 0.242628 0.279829 0.928885
vn 0.242628 0.279829 0.928885
vn 0.426409 -0.295734 -0.854819
vn 0.426409 -0.295734 -0.854819
vn 0.426409 -0.295734 -0.854819
vn 0.382125 -0.331782 -0.862497
vn 0.382125 -0.331782 -0.862497
vn 0.382125 -0.331782 -0.862497
vn 0.301300 -0.049355 -0.952251
vn 0.301300 -0.049355 -0.952251
vn 0.301300 -0.049355 -0.952251
vn 0.301300 -0.049355 -0.952251
vn 0.145586 0.142980 -0.978960
vn 0.145586 0.142980 -0.978960
vn 0.145586 0.142980 -0.978959
vn -0.368544 -0.672694 -0.641606
vn -0.368544 -0.672694 -0.641606
vn -0.368544 -0.672694 -0.641606
vn -0.415033 -0.617077 -0.668553
vn -0.415033 -0.617077 -0.668553
vn -0.415033 -0.617077 -0.668553
vn -0.415033 -0.617077 -0.668553
vn -0.491986 -0.559213 -0.667256
vn -0.491986 -0.559213 -0.667256
vn -0.491986 -0.559213 -0.667256
vn -0.491986 -0.559213 -0.667256
vn -0.672225 -0.421645 -0.608546
vn -0.672225 -0.421645 -0.608546
vn -0.672225 -0.421645 -0.608546
vn 0.195581 0.157180 -0.968010
vn 0.195581 0.157180 -0.968010
vn 0.195581 0.157180 -0.968010
vn 0.195581 0.157180 -0.968010
vn -0.140678 -0.590127 -0.794959
vn -0.140678 -0.590127 -0.794959
vn -0.140678 -0.590127 -0.794959
vn 0.809479 -0.498605 0.310060
vn 0.809479 -0.498605 0.310060
vn 0.809479 -0.498605 0.310060
vn 0.809479 -0.498605 0.310060
vn -0.291304 0.100039 -0.951385
vn -0.291304 0.100039 -0.951385
vn -0.291304 0.100039 -0.951385
vn 0.869956 0.260817 -0.418511
vn 0.869956 0.260817 -0.418511
vn 0.869956 0.260817 -0.418511
vn -0.603024 0.460378 -0.651471
vn -0.603024 0.460378 -0.651471
vn -0.603024 0.460378 -0.651471
vn -0.140620 -0.132505 -0.981157
vn -0.140620 -0.132505 -0.981157
vn -0.140620 -0.132505 -0.981157
vn -0.140620 -0.132505 -0.981157
vn -0.143410 -0.031703 -0.989156
vn -0.143410 -0.031703 -0.989155
vn -0.143410 -0.031703 -0.989156
vn -0.721110 0.652741 -0.232228
vn -0.721110 0.652741 -0.232228
vn -0.721110 0.652741 -0.232228
vn -0.264776 0.939862 0.215762
vn -0.264776 0.939862 0.215762
vn -0.264776 0.939862 0.215762
vn -0.169516 0.857571 0.485630
vn -0.169516 0.857571 0.485630
vn -0.169516 0.857571 0.485630
vn -0.225927 0.529146 0.817900
vn -0.225927 0.529146 0.817900
vn -0.225927 0.529146 0.817900
vn -0.906161 0.069480 0.417187
vn -0.906161 0.069480 0.417187
vn -0.906161 0.069480 0.417187
vn -0.906161 0.069480 0.417187
vn -0.905019 -0.336978 0.259589
vn -0.905019 -0.336978 0.259589
vn -0.905019 -0.336978 0.259589
vn -0.905019 -0.336978 0.259589
vn -0.963102 0.255834 0.083564
vn -0.963102 0.255834 0.083564
vn -0.963102 0.255834 0.083564
vn -0.966789 -0.201019 -0.157833
vn -0.966789 -0.201019 -0.157833
vn -0.966789 -0.201019 -0.157833
vn -0.992503 -0.053363 -0.109955
vn -0.992503 -0.053363 -0.109955
vn -0.992503 -0.053363 -0.109955
vn -0.992483 -0.119629 0.025808
vn -0.992483 -0.119629 0.025808
vn -0.992483 -0.119629 0.025808
vn -0.945645 -0.164796 0.280353
vn -0.945645 -0.164796 0.280353
vn -0.945645 -0.164796 0.280353
vn 0.216751 0.976150 -0.012282
vn 0.216751 0.976150 -0.012282
vn 0.216751 0.976150 -0.012282
vn -0.202462 0.509494 -0.836317
vn -0.202462 0.509494 -0.836317
vn -0.202462 0.509494 -0.836317
vn -0.202462 0.509494 -0.836317
vn -0.297275 0.517947 -0.802097
vn -0.297275 0.517947 -0.802097
vn -0.297275 0.517947 -0.802097
vn 0.214845 0.940648 -0.262721
vn 0.214845 0.940648 -0.262721
vn 0.214845 0.940648 -0.262721
vn -0.154647 0.825797 0.542350
vn -0.154647 0.825797 0.542350
vn -0.154647 0.825797 0.542350
vn -0.318291 0.915693 0.245353
vn -0.318291 0.915693 0.245353
vn -0.318291 0.915693 0.245353
vn -0.194431 0.979071 0.060143
vn -0.194431 0.979071 0.060143
vn -0.194431 0.979071 0.060143
vn -0.465618 0.872031 0.150872
vn -0.465618 0.872031 0.150872
vn -0.465618 0.872031 0.150872
vn -0.429223 0.879876 0.203927
vn -0.429223 0.879876 0.203927
vn -0.429223 0.879876 0.203927
vn -0.961067 0.253528 -0.109878
vn -0.961067 0.253528 -0.109878
vn -0.961067 0.253528 -0.109878
vn -0.961067 0.253528 -0.109878
vn -0.943013 -0.181034 -0.279199
vn -0.943013 -0.181034 -0.279199
vn -0.943013 -0.181034 -0.279199
vn -0.721310 -0.223115 0.655692
vn -0.721310 -0.223115 0.655692
vn -0.721310 -0.223115 0.655692
vn -0.721310 -0.223115 0.655692
vn -0.680000 -0.293096 0.672083
vn -0.680000 -0.293096 0.672083
vn -0.680000 -0.293096 0.672083
vn -0.680000 -0.293096 0.672083
vn -0.564746 -0.720962 -0.401591
vn -0.564747 -0.720962 -0.401591
vn -0.564747 -0.720962 -0.401591
vn -0.564746 -0.720962 -0.401591
vn -0.685999 -0.719060 -0.111166
vn -0.685999 -0.719060 -0.111166
vn -0.685999 -0.719060 -0.111166
vn -0.685999 -0.719060 -0.111166
vn -0.486298 0.050031 0.872360
vn -0.486297 0.050031 0.872360
vn -0.486297 0.050031 0.872360
vn -0.486298 0.050031 0.872360
vn -0.759632 -0.414307 0.501307
vn -0.759632 -0.414307 0.501307
vn -0.759632 -0.414307 0.501307
vn -0.759632 -0.414307 0.501307
vn -0.854542 -0.363203 0.371270
vn -0.854542 -0.363203 0.371270
vn -0.854542 -0.363203 0.371270
vn -0.854542 -0.363203 0.371270
vn -0.451999 -0.047083 -0.890775
vn -0.451999 -0.047083 -0.890775
vn -0.451999 -0.047083 -0.890775
vn -0.140558 0.350168 0.926081
vn -0.140558 0.350168 0.926081
vn -0.140558 0.350168 0.926081
vn -0.140558 0.350168 0.926081
vn -0.306552 0.114293 -0.944967
vn -0.306552 0.114292 -0.944967
vn -0.306552 0.114293 -0.944967
vn -0.306552 0.114292 -0.944967
vn -0.218305 -0.335212 -0.916502
vn -0.218305 -0.335212 -0.916502
vn -0.218305 -0.335212 -0.916502
vn -0.218305 -0.335212 -0.916502
vn -0.904465 -0.153199 0.398086
vn -0.904465 -0.153199 0.398086
vn -0.904465 -0.153199 0.398086
vn -0.993724 0.080359 0.077813
vn -0.993724 0.080359 0.077813
vn -0.993724 0.080359 0.077813
vn -0.992232 0.091174 -0.084631
vn -0.992232 0.091174 -0.084631
vn -0.992232 0.091174 -0.084631
vn -0.992232 0.091174 -0.084631
vn 0.083168 -0.591965 0.801661
vn 0.083168 -0.591965 0.801662
vn 0.083168 -0.591965 0.801661
vn 0.083168 -0.591965 0.801661
vn -0.210968 0.977299 0.019494
vn -0.210968 0.977299 0.019494
vn -0.210968 0.977299 0.019494
vn -0.153101 0.988085 -0.015778
vn -0.153101 0.988085 -0.015778
vn -0.153101 0.988085 -0.015778
vn -0.185344 0.690991 -0.698699
vn -0.185344 0.690991 -0.698699
vn -0.185344 0.690991 -0.698698
vn -0.185344 0.690991 -0.698699
vn -0.221333 0.653825 -0.723550
vn -0.221333 0.653825 -0.723550
vn -0.221333 0.653825 -0.723550
vn -0.221333 0.653825 -0.723550
vn -0.115322 0.952430 0.282095
vn -0.115322 0.952430 0.282095
vn -0.115322 0.952430 0.282095
vn -0.423623 0.905562 0.022386
vn -0.423623 0.905562 0.022386
vn -0.423623 0.905562 0.022386
vn -0.371078 -0.871036 0.321866
vn -0.371078 -0.871036 0.321866
vn -0.371078 -0.871036 0.321866
vn -0.371078 -0.871036 0.321866
vn -0.586626 0.616764 0.524854
vn -0.586626 0.616764 0.524854
vn -0.586626 0.616764 0.524854
vn -0.838576 -0.384907 0.385535
vn -0.838576 -0.384907 0.385535
vn -0.838576 -0.384907 0.385535
vn -0.838576 -0.384907 0.385535
vn -0.796058 -0.274135 0.539575
vn -0.796058 -0.274135 0.539575
vn -0.796058 -0.274135 0.539575
vn -0.796058 -0.274135 0.539575
vn -0.555071 0.228991 0.799662
vn -0.555071 0.228991 0.799662
vn -0.555071 0.228991 0.799662
vn -0.170421 0.851650 -0.495630
vn -0.170421 0.851650 -0.495630
vn -0.170421 0.851650 -0.495630
vn -0.705292 0.592119 0.389818
vn -0.705292 0.592120 0.389818
vn -0.705292 0.592119 0.389818
vn -0.705292 0.592120 0.389818
vn -0.710543 0.695614 0.106068
vn -0.710543 0.695614 0.106068
vn -0.710543 0.695614 0.106068
vn -0.710543 0.695614 0.106068
vn -0.873966 -0.124049 0.469889
vn -0.873966 -0.124049 0.469889
vn -0.873966 -0.124049 0.469889
vn -0.965947 0.239923 0.096871
vn -0.965947 0.239923 0.096871
vn -0.965947 0.239923 0.096871
vn -0.965947 0.239923 0.096871
vn -0.954538 0.293229 -0.053607
vn -0.954538 0.293229 -0.053607
vn -0.954538 0.293229 -0.053607
vn -0.954538 0.293229 -0.053607
vn -0.460681 0.235693 -0.855700
vn -0.460681 0.235693 -0.855700
vn -0.460681 0.235693 -0.855700
vn -0.718768 -0.676248 -0.161437
vn -0.718768 -0.676248 -0.161437
vn -0.718768 -0.676248 -0.161437
vn -0.841923 -0.357375 -0.404287
vn -0.841923 -0.357375 -0.404287
vn -0.841923 -0.357375 -0.404287
vn -0.841923 -0.357375 -0.404287
vn -0.377130 0.032006 -0.925607
vn -0.377129 0.032006 -0.925607
vn -0.377130 0.032006 -0.925607
vn -0.984663 0.086541 -0.151490
vn -0.984663 0.086541 -0.151490
vn -0.984663 0.086541 -0.151490
vn -0.227581 0.609476 -0.759439
vn -0.227580 0.609475 -0.759439
vn -0.227580 0.609475 -0.759439
vn -0.962782 -0.237258 -0.129460
vn -0.962782 -0.237258 -0.129460
vn -0.962782 -0.237258 -0.129460
vn -0.962782 -0.237258 -0.129460
vn 0.238328 -0.641633 -0.729045
vn 0.238328 -0.641633 -0.729045
vn 0.238328 -0.641633 -0.729045
vn 0.238328 -0.641633 -0.729045
vn 0.979539 0.147312 0.137121
vn 0.979539 0.147312 0.137121
vn 0.979539 0.147312 0.137121
vn 0.979539 0.147312 0.137121
vn -0.284644 0.624386 0.727407
vn -0.284644 0.624386 0.727407
vn -0.284644 0.624386 0.727407
vn -0.284644 0.624386 0.727407
vn -0.966113 -0.172057 -0.192413
vn -0.966113 -0.172057 -0.192413
vn -0.966113 -0.172057 -0.192413
vn -0.966113 -0.172057 -0.192413
vn 0.269047 -0.206328 -0.940767
vn 0.269047 -0.206328 -0.940767
vn 0.269047 -0.206328 -0.940767
vn 0.269047 -0.206328 -0.940767
vn 0.987406 -0.100779 0.121958
vn 0.987406 -0.100779 0.121958
vn 0.987406 -0.100779 0.121958
vn 0.987406 -0.100779 0.121958
vn -0.359132 -0.077359 0.930075
vn -0.359133 -0.077359 0.930075
vn -0.359132 -0.077359 0.930075
vn -0.359133 -0.077359 0.930075
vn -0.818873 0.545023 -0.179993
vn -0.818873 0.545022 -0.179993
vn -0.818873 0.545023 -0.179993
vn -0.818873 0.545022 -0.179993
vn -0.214108 -0.419678 -0.882059
vn -0.214108 -0.419678 -0.882059
vn -0.214108 -0.419678 -0.882059
vn -0.214108 -0.419678 -0.882059
vn 0.736320 -0.676261 0.022423
vn 0.736320 -0.676261 0.022423
vn 0.736320 -0.676261 0.022423
vn 0.736320 -0.676261 0.022423
vn -0.032423 0.226694 0.973426
vn -0.032423 0.226694 0.973426
vn -0.032423 0.226694 0.973426
vn -0.032423 0.226694 0.973426
vn -0.426409 -0.295735 -0.854820
vn -0.426409 -0.295735 -0.854820
vn -0.426409 -0.295735 -0.854820
vn -0.382127 -0.331784 -0.862496
vn -0.382127 -0.331784 -0.862496
vn -0.382127 -0.331784 -0.862496
vn -0.301300 -0.049355 -0.952251
vn -0.301300 -0.049355 -0.952251
vn -0.301300 -0.049355 -0.952251
vn -0.301300 -0.049355 -0.952251
vn -0.136502 0.156476 -0.978204
vn -0.136502 0.156476 -0.978204
vn -0.136502 0.156476 -0.978204
vn 0.368545 -0.672693 -0.641606
vn 0.368545 -0.672693 -0.641606
vn 0.368545 -0.672693 -0.641606
vn 0.415032 -0.617075 -0.668556
vn 0.415032 -0.617075 -0.668556
vn 0.415032 -0.617075 -0.668556
vn 0.415032 -0.617075 -0.668556
vn 0.491987 -0.559214 -0.667255
vn 0.491987 -0.559214 -0.667255
vn 0.491987 -0.559214 -0.667255
vn 0.491987 -0.559214 -0.667255
vn 0.683998 -0.407222 -0.605242
vn 0.683998 -0.407222 -0.605242
vn 0.683998 -0.407222 -0.605242
vn -0.195581 0.157180 -0.968010
vn -0.195581 0.157180 -0.968010
vn -0.195581 0.157180 -0.968010
vn -0.195581 0.157180 -0.968010
vn 0.140677 -0.590125 -0.794961
vn 0.140677 -0.590125 -0.794961
vn 0.140677 -0.590125 -0.794961
vn -0.809479 -0.498605 0.310060
vn -0.809479 -0.498605 0.310060
vn -0.809479 -0.498605 0.310060
vn -0.809479 -0.498605 0.310060
vn 0.291304 0.100039 -0.951386
vn 0.291304 0.100038 -0.951386
vn 0.291304 0.100039 -0.951386
vn -0.869955 0.260817 -0.418513
vn -0.869955 0.260817 -0.418513
vn -0.869955 0.260817 -0.418513
vn -0.833459 -0.165928 -0.527080
vn -0.833459 -0.165928 -0.527080
vn -0.833459 -0.165928 -0.527080
vn -0.833459 -0.165928 -0.527080
vn 0.068786 -0.901627 0.427011
vn 0.068786 -0.901627 0.427011
vn 0.068786 -0.901627 0.427011
vn 0.068786 -0.901627 0.427011
vn 0.938178 0.058807 0.341120
vn 0.938179 0.058807 0.341120
vn 0.938179 0.058807 0.341120
vn 0.938179 0.058807 0.341120
vn 0.079609 0.781438 -0.618884
vn 0.079609 0.781438 -0.618884
vn 0.079609 0.781438 -0.618884
vn -0.900787 0.122134 -0.416732
vn -0.900787 0.122134 -0.416732
vn -0.900787 0.122134 -0.416732
vn -0.900787 0.122134 -0.416732
vn 0.190680 -0.385130 -0.902949
vn 0.190680 -0.385130 -0.902949
vn 0.190680 -0.385130 -0.902949
vn 0.190680 -0.385130 -0.902949
vn 0.792210 -0.381004 0.476697
vn 0.792210 -0.381004 0.476697
vn 0.792210 -0.381004 0.476697
vn 0.792210 -0.381004 0.476697
vn -0.398167 0.306697 0.864523
vn -0.398167 0.306697 0.864523
vn -0.398167 0.306697 0.864523
vn -0.779079 0.521284 -0.348279
vn -0.779079 0.521284 -0.348279
vn -0.779079 0.521284 -0.348279
vn -0.779079 0.521284 -0.348279
vn 0.215353 0.179463 -0.959904
vn 0.215353 0.179463 -0.959904
vn 0.215353 0.179463 -0.959904
vn 0.215352 0.179463 -0.959904
vn 0.726143 -0.636635 0.259639
vn 0.726143 -0.636635 0.259639
vn 0.726143 -0.636635 0.259639
vn 0.726143 -0.636635 0.259639
vn -0.287683 -0.263924 0.920643
vn -0.287683 -0.263924 0.920643
vn -0.287683 -0.263924 0.920643
vn -0.287683 -0.263924 0.920643
vn -0.885531 0.014297 -0.464361
vn -0.885531 0.014297 -0.464361
vn -0.885531 0.014297 -0.464361
vn -0.591047 0.803159 0.074830
vn -0.591047 0.803159 0.074830
vn -0.591047 0.803159 0.074830
vn -0.591047 0.803159 0.074830
vn 0.963769 -0.002501 0.266728
vn 0.963769 -0.002501 0.266728
vn 0.963769 -0.002501 0.266728
vn -0.225564 0.273871 0.934941
vn -0.225564 0.273871 0.934941
vn -0.225564 0.273871 0.934941
vn -0.225564 0.273871 0.934941
vn 0.245092 0.913284 0.325334
vn 0.245092 0.913284 0.325334
vn 0.245092 0.913284 0.325334
vn 0.245092 0.913284 0.325334
vn 0.343476 0.893128 -0.290426
vn 0.343477 0.893128 -0.290426
vn 0.343477 0.893128 -0.290426
vn -0.506005 0.773019 -0.382623
vn -0.506005 0.773019 -0.382623
vn -0.506005 0.773019 -0.382623
vn -0.217394 0.822755 0.525179
vn -0.217394 0.822755 0.525179
vn -0.217394 0.822755 0.525179
vn -0.148909 0.743351 -0.652116
vn -0.148909 0.743351 -0.652116
vn -0.148909 0.743351 -0.652116
vn -0.281303 0.643405 -0.711968
vn -0.281303 0.643405 -0.711968
vn -0.281303 0.643405 -0.711968
vn -0.330657 0.491055 -0.805934
vn -0.330657 0.491055 -0.805934
vn -0.330657 0.491056 -0.805934
vn -0.330657 0.491056 -0.805934
vn -0.455113 0.048979 -0.889085
vn -0.455113 0.048979 -0.889085
vn -0.455114 0.048979 -0.889085
vn -0.365805 0.213209 -0.905941
vn -0.365805 0.213209 -0.905941
vn -0.365805 0.213209 -0.905941
vn -0.165417 -0.141066 -0.976083
vn -0.165417 -0.141066 -0.976083
vn -0.165417 -0.141066 -0.976083
vn 0.170763 -0.142923 -0.974891
vn 0.170763 -0.142923 -0.974891
vn 0.170763 -0.142923 -0.974891
vn 0.362494 0.217921 -0.906150
vn 0.362494 0.217921 -0.906150
vn 0.362494 0.217921 -0.906150
vn 0.461544 0.044474 -0.886002
vn 0.461544 0.044474 -0.886002
vn 0.461544 0.044474 -0.886002
vn 0.330350 0.492598 -0.805119
vn 0.330350 0.492598 -0.805119
vn 0.330350 0.492598 -0.805119
vn 0.330350 0.492598 -0.805119
vn 0.279842 0.646504 -0.709733
vn 0.279842 0.646504 -0.709733
vn 0.279842 0.646504 -0.709733
vn 0.153295 0.741905 -0.652746
vn 0.153295 0.741905 -0.652746
vn 0.153295 0.741905 -0.652746
vn -0.160924 0.652645 0.740377
vn -0.160924 0.652645 0.740377
vn -0.160924 0.652645 0.740377
vn -0.160924 0.652645 0.740377
vn -0.711487 0.360058 0.603444
vn -0.711487 0.360058 0.603444
vn -0.711487 0.360058 0.603444
vn -0.711487 0.360058 0.603444
vn -0.933971 -0.007597 0.357267
vn -0.933971 -0.007597 0.357267
vn -0.933971 -0.007597 0.357267
vn -0.933971 -0.007597 0.357267
vn -0.925299 -0.324595 0.196112
vn -0.925299 -0.324595 0.196112
vn -0.925299 -0.324595 0.196112
vn -0.925299 -0.324595 0.196112
vn -0.508067 -0.858754 0.066405
vn -0.508067 -0.858754 0.066405
vn -0.508067 -0.858754 0.066405
vn -0.508067 -0.858754 0.066405
vn 0.603776 -0.793798 0.073077
vn 0.603776 -0.793798 0.073077
vn 0.603776 -0.793798 0.073077
vn 0.603776 -0.793798 0.073077
vn 0.918493 -0.350662 0.182774
vn 0.918493 -0.350662 0.182774
vn 0.918493 -0.350662 0.182774
vn 0.918493 -0.350662 0.182774
vn 0.947000 -0.101299 0.304845
vn 0.947000 -0.101299 0.304845
vn 0.947000 -0.101299 0.304844
vn 0.947000 -0.101299 0.304845
vn 0.712657 0.351795 0.606927
vn 0.712657 0.351795 0.606927
vn 0.712657 0.351795 0.606927
vn 0.712657 0.351795 0.606927
vn 0.086715 0.662852 0.743712
vn 0.086715 0.662852 0.743712
vn 0.086715 0.662852 0.743712
vn 0.086715 0.662852 0.743712
vn -0.238706 0.965284 -0.106045
vn -0.238706 0.965284 -0.106045
vn -0.238706 0.965284 -0.106045
vn -0.238706 0.965284 -0.106045
vn -0.645040 0.716971 -0.264341
vn -0.645040 0.716971 -0.264341
vn -0.645040 0.716971 -0.264341
vn -0.645040 0.716971 -0.264341
vn -0.809448 0.394259 -0.435148
vn -0.809448 0.394259 -0.435148
vn -0.809448 0.394259 -0.435148
vn -0.809448 0.394259 -0.435148
vn -0.809394 -0.009946 -0.587182
vn -0.809394 -0.009946 -0.587181
vn -0.809394 -0.009946 -0.587182
vn -0.809394 -0.009946 -0.587181
vn -0.346492 -0.515977 -0.783397
vn -0.346492 -0.515977 -0.783397
vn -0.346492 -0.515977 -0.783397
vn -0.346492 -0.515977 -0.783397
vn 0.399647 -0.505862 -0.764452
vn 0.399647 -0.505862 -0.764452
vn 0.399647 -0.505862 -0.764452
vn 0.399647 -0.505862 -0.764452
vn 0.815840 -0.026526 -0.577669
vn 0.815840 -0.026526 -0.577669
vn 0.815840 -0.026526 -0.577669
vn 0.815840 -0.026526 -0.577669
vn 0.822182 0.346274 -0.451787
vn 0.822182 0.346274 -0.451787
vn 0.822182 0.346274 -0.451787
vn 0.822182 0.346274 -0.451787
vn 0.632354 0.720907 -0.283586
vn 0.632354 0.720907 -0.283586
vn 0.632354 0.720907 -0.283586
vn 0.632354 0.720907 -0.283586
vn 0.205714 0.972253 -0.111384
vn 0.205715 0.972253 -0.111384
vn 0.205715 0.972253 -0.111384
vn 0.205714 0.972253 -0.111384
vn -0.216634 0.363994 0.905858
vn -0.216634 0.363994 0.905858
vn -0.216634 0.363994 0.905858
vn -0.216634 0.363994 0.905858
vn 0.123494 0.667273 0.734504
vn 0.123494 0.667273 0.734504
vn 0.123494 0.667273 0.734504
vn 0.360243 -0.768029 -0.529487
vn 0.360243 -0.768029 -0.529487
vn 0.360243 -0.768029 -0.529487
vn -0.536538 -0.224822 -0.813377
vn -0.536539 -0.224822 -0.813377
vn -0.536539 -0.224822 -0.813377
vn 0.202909 -0.964676 -0.168012
vn 0.202909 -0.964676 -0.168012
vn 0.202909 -0.964676 -0.168012
vn 0.202909 -0.964676 -0.168012
vn -0.360243 -0.768029 -0.529487
vn -0.360243 -0.768029 -0.529487
vn -0.360243 -0.768029 -0.529487
vn 0.536539 -0.224822 -0.813377
vn 0.536539 -0.224822 -0.813377
vn 0.536539 -0.224822 -0.813377
vn -0.202909 -0.964676 -0.168010
vn -0.202909 -0.964676 -0.168010
vn -0.202909 -0.964676 -0.168010
vn -0.202909 -0.964676 -0.168010
vn -0.295300 -0.574395 0.763458
vn -0.295300 -0.574395 0.763458
vn -0.295300 -0.574395 0.763458
vn -0.262532 -0.792446 -0.550551
vn -0.262532 -0.792446 -0.550551
vn -0.262533 -0.792446 -0.550551
vn -0.246829 -0.894533 -0.372674
vn -0.246829 -0.894533 -0.372674
vn -0.246829 -0.894533 -0.372674
vn 0.613677 -0.003564 0.789549
vn 0.613677 -0.003564 0.789550
vn 0.613677 -0.003564 0.789549
vn 0.321572 -0.776587 0.541760
vn 0.321572 -0.776587 0.541760
vn 0.321572 -0.776587 0.541760
vn -0.553804 -0.118196 0.824216
vn -0.553804 -0.118196 0.824215
vn -0.553804 -0.118196 0.824216
vn -0.185688 -0.762489 0.619782
vn -0.185688 -0.762490 0.619782
vn -0.185688 -0.762490 0.619782
vn -0.158187 -0.790966 0.591058
vn -0.158187 -0.790966 0.591058
vn -0.158187 -0.790966 0.591058
vn -0.166229 -0.808520 0.564503
vn -0.166229 -0.808520 0.564503
vn -0.166229 -0.808520 0.564503
vn -0.186664 -0.751078 0.633276
vn -0.186664 -0.751078 0.633276
vn -0.186664 -0.751078 0.633276
vn 0.278477 -0.574462 0.769704
vn 0.278477 -0.574462 0.769704
vn 0.278477 -0.574462 0.769704
vn 0.247652 -0.797174 -0.550620
vn 0.247652 -0.797174 -0.550620
vn 0.247652 -0.797174 -0.550620
vn 0.232706 -0.898330 -0.372627
vn 0.232706 -0.898330 -0.372627
vn 0.232706 -0.898330 -0.372627
vn -0.591664 0.006130 0.806162
vn -0.591664 0.006130 0.806162
vn -0.591664 0.006130 0.806162
vn -0.305878 -0.779834 0.546166
vn -0.305878 -0.779834 0.546166
vn -0.305878 -0.779834 0.546167
vn 0.086098 -0.780111 0.619689
vn 0.086098 -0.780111 0.619689
vn 0.086098 -0.780111 0.619689
vn 0.187191 -0.770537 0.609289
vn 0.187191 -0.770537 0.609289
vn 0.187191 -0.770537 0.609289
vn 0.044418 -0.795954 0.603725
vn 0.044418 -0.795954 0.603725
vn 0.044418 -0.795954 0.603725
vn 0.156282 -0.809560 0.565853
vn 0.156282 -0.809560 0.565853
vn 0.156282 -0.809560 0.565853
vn 0.176155 -0.750326 0.637166
vn 0.176155 -0.750326 0.637166
vn 0.176155 -0.750326 0.637166
vn 0.437480 -0.844233 0.309650
vn 0.437480 -0.844232 0.309650
vn 0.437480 -0.844233 0.309650
s off
f 25/1/1 170/267/2 43/2/3
f 166/262/4 167/263/5 69/108/6 2/5/7
f 68/107/8 2/5/9 69/108/10
f 24/8/11 25/1/12 43/2/13
f 24/8/14 4/10/15 1/9/16
f 16/13/17 38/15/18 195/298/19
f 20/16/20 42/18/21 17/17/22 19/14/23
f 21/19/24 47/22/25 46/21/26 41/20/27
f 15/23/28 17/17/29 42/18/30
f 70/24/31 13/7/32 22/25/33
f 13/7/34 12/6/35 22/25/36
f 47/22/37 23/27/38 27/26/39
f 47/22/40 21/19/41 23/27/42
f 24/8/43 44/28/44 25/1/45
f 12/6/46 167/263/47 168/264/48 54/29/49
f 168/265/50 169/266/51 48/30/52
f 170/267/53 25/1/54 44/28/55
f 24/8/56 1/9/57 16/13/58
f 24/8/59 5/31/60 4/10/61
f 15/23/62 24/8/63 17/17/64
f 24/8/65 16/13/66 17/17/67
f 12/6/68 54/34/69 53/33/70 28/32/71
f 22/25/72 12/6/73 28/32/74
f 19/35/75 26/38/76 29/37/77 20/36/78
f 65/103/79 67/106/80 66/105/81 64/104/82
f 23/43/83 32/46/84 33/45/85 27/44/86
f 21/47/87 34/50/88 32/49/89 23/48/90
f 28/51/91 35/54/92 31/53/93 22/52/94
f 33/55/95 35/58/96 28/57/97 53/56/98
f 18/59/99 30/62/100 36/61/101 37/60/102
f 18/319/103 37/11/104 40/63/105
f 39/64/106 194/296/107 195/297/108 38/65/109
f 73/113/110 6/12/111 7/68/112 74/114/113
f 40/63/114 2/5/115 68/107/116 18/320/117
f 16/13/118 1/9/119 38/15/120
f 42/18/121 20/16/122 41/20/123
f 47/22/124 49/69/125 46/21/126
f 48/30/127 49/69/128 47/22/129 27/26/130
f 8/70/131 30/73/132 31/72/133 9/71/134
f 24/8/135 43/2/136 5/31/137
f 43/2/138 3/74/139 5/31/140
f 170/267/141 161/255/142 3/74/143 43/2/144
f 14/75/145 169/266/146 170/267/147 44/28/148
f 15/23/149 14/75/150 44/28/151
f 24/8/152 15/23/153 44/28/154
f 38/76/155 1/79/156 11/78/157 39/77/158
f 16/13/159 19/14/160 17/17/161
f 41/80/162 45/83/163 34/82/164 21/81/165
f 20/84/166 29/87/167 45/86/168 41/85/169
f 41/20/170 46/21/171 50/88/172
f 52/89/173 48/30/174 169/266/175
f 50/88/176 46/21/177 49/69/178 51/90/179
f 51/90/180 49/69/181 48/30/182 52/89/183
f 41/20/184 50/88/185 42/18/186
f 42/18/187 50/88/188 51/90/189 15/23/190
f 15/23/191 51/90/192 52/89/193 14/75/194
f 14/75/195 52/89/196 169/266/197
f 27/91/198 33/55/199 53/56/200
f 54/34/201 55/92/202 27/26/203 53/33/204
f 168/264/205 55/93/206 54/29/207
f 55/92/208 48/30/209 27/26/210
f 168/264/211 48/321/212 55/93/213
f 22/39/214 57/95/215 56/96/216 70/109/217
f 18/40/218 56/96/219 58/97/220 30/41/221
f 30/41/222 58/97/223 59/98/224 31/42/225
f 31/42/226 59/98/227 57/95/228 22/39/229
f 57/95/230 61/99/231 60/100/232 56/96/233
f 56/96/234 60/100/235 62/101/236 58/97/237
f 58/97/238 62/101/239 63/102/240 59/98/241
f 59/98/242 63/102/243 61/99/244 57/95/245
f 61/99/246 65/103/247 64/104/248 60/100/249
f 60/100/250 64/104/251 66/105/252 62/101/253
f 62/101/254 66/105/255 67/106/256 63/102/257
f 63/102/258 67/106/259 65/103/260 61/99/261
f 74/114/262 7/68/263 2/5/264
f 71/110/265 13/7/266 70/111/267
f 12/6/268 13/7/269 71/110/270 72/112/271
f 167/263/272 12/6/273 72/112/274
f 18/40/275 70/109/276 56/96/277
f 68/107/278 71/110/279 70/111/280 18/322/281
f 69/108/282 72/112/283 71/110/284 68/107/285
f 167/263/286 72/112/287 69/108/288
f 40/63/289 75/118/290 77/117/291 74/114/292
f 40/63/293 74/114/294 2/5/295
f 36/61/296 76/115/297 75/116/298 37/60/299
f 74/114/300 77/117/301 73/113/302
f 37/11/303 75/118/304 40/63/305
f 91/119/306 110/120/307 162/256/308
f 165/260/309 166/261/310 2/123/311 136/124/312
f 135/125/313 136/124/314 2/123/315
f 90/126/316 110/120/317 91/119/318
f 90/126/319 92/127/320 4/128/321
f 1/129/322 4/128/323 92/127/324
f 82/132/325 85/133/326 105/134/327
f 86/135/328 85/133/329 83/136/330 109/137/331
f 87/138/332 108/139/333 113/140/334 114/141/335
f 81/142/336 109/137/337 83/136/338
f 137/143/339 88/144/340 79/145/341
f 79/145/342 88/144/343 78/146/344
f 114/141/345 94/147/346 89/148/347
f 114/141/348 89/148/349 87/138/350
f 90/126/351 91/119/352 111/149/353
f 78/146/354 121/150/355 164/258/356 165/260/357
f 163/257/358 164/259/359 115/151/360
f 162/256/361 111/149/362 91/119/363
f 105/134/364 92/127/365 82/132/366
f 90/126/367 82/132/368 92/127/369
f 90/126/370 4/128/371 5/152/372
f 81/142/373 83/136/374 90/126/375
f 90/126/376 83/136/377 82/132/378
f 78/146/379 95/153/380 120/154/381 121/155/382
f 88/144/383 95/153/384 78/146/385
f 85/156/386 86/157/387 96/158/388 93/159/389
f 132/160/390 131/161/391 133/162/392 134/163/393
f 89/164/394 94/165/395 100/166/396 99/167/397
f 87/168/398 89/169/399 99/170/400 101/171/401
f 95/172/402 88/173/403 98/174/404 102/175/405
f 100/176/406 120/177/407 95/178/408 102/179/409
f 84/180/410 104/181/411 103/182/412 97/183/413
f 84/323/414 107/184/415 104/185/416
f 106/186/417 105/187/418 85/188/419 93/189/420
f 140/130/421 141/190/422 7/191/423 6/131/424
f 107/184/425 84/324/426 135/125/427 2/123/428
f 109/137/429 108/139/430 86/135/431
f 114/141/432 113/140/433 116/192/434
f 115/151/435 94/147/436 114/141/437 116/192/438
f 8/193/439 9/194/440 98/195/441 97/196/442
f 90/126/443 5/152/444 110/120/445
f 110/120/446 5/152/447 3/197/448
f 161/254/449 162/256/450 110/120/451 3/197/452
f 80/198/453 111/149/454 162/256/455 163/257/456
f 81/142/457 111/149/458 80/198/459
f 90/126/460 111/149/461 81/142/462
f 153/246/463 154/247/464 155/248/465 156/249/466
f 82/132/467 83/136/468 85/133/469
f 108/203/470 87/204/471 101/205/472 112/206/473
f 86/207/474 108/208/475 112/209/476 96/210/477
f 108/139/478 117/211/479 113/140/480
f 119/212/481 163/257/482 115/151/483
f 117/211/484 118/213/485 116/192/486 113/140/487
f 118/213/488 119/212/489 115/151/490 116/192/491
f 108/139/492 109/137/493 117/211/494
f 109/137/495 81/142/496 118/213/497 117/211/498
f 81/142/499 80/198/500 119/212/501 118/213/502
f 80/198/503 163/257/504 119/212/505
f 94/214/506 120/177/507 100/176/508
f 121/155/509 120/154/510 94/147/511 122/215/512
f 164/258/513 121/150/514 122/216/515
f 122/215/516 94/147/517 115/151/518
f 164/258/519 122/216/520 115/325/521
f 88/218/522 137/219/523 123/220/524 124/221/525
f 84/222/526 97/223/527 125/224/528 123/220/529
f 97/223/530 98/225/531 126/226/532 125/224/533
f 98/225/534 88/218/535 124/221/536 126/226/537
f 124/221/538 123/220/539 127/227/540 128/228/541
f 123/220/542 125/224/543 129/229/544 127/227/545
f 125/224/546 126/226/547 130/230/548 129/229/549
f 126/226/550 124/221/551 128/228/552 130/230/553
f 128/228/554 127/227/555 131/161/556 132/160/557
f 127/227/558 129/229/559 133/162/560 131/161/561
f 129/229/562 130/230/563 134/163/564 133/162/565
f 130/230/566 128/228/567 132/160/568 134/163/569
f 141/190/570 2/123/571 7/191/572
f 138/231/573 137/232/574 79/145/575
f 78/146/576 139/233/577 138/231/578 79/145/579
f 165/260/580 139/233/581 78/146/582
f 84/222/583 123/220/584 137/219/585
f 135/125/586 84/326/587 137/232/588 138/231/589
f 136/124/590 135/125/591 138/231/592 139/233/593
f 165/260/594 136/124/595 139/233/596
f 107/184/597 141/190/598 144/234/599 142/235/600
f 107/184/601 2/123/602 141/190/603
f 103/182/604 104/181/605 142/236/606 143/237/607
f 141/190/608 140/130/609 144/234/610
f 104/185/611 107/184/612 142/235/613
f 105/199/614 106/200/615 146/239/616 157/250/617
f 106/200/618 11/201/619 147/240/620 146/239/621
f 11/201/622 1/202/623 158/251/624 147/240/625
f 1/202/626 105/199/627 160/253/628
f 145/238/629 146/239/630 150/243/631 149/242/632
f 146/239/633 147/240/634 151/244/635 150/243/636
f 147/240/637 148/241/638 152/245/639 151/244/640
f 149/242/641 159/252/642 145/238/643
f 149/242/644 150/243/645 154/247/646 153/246/647
f 150/243/648 151/244/649 155/248/650 154/247/651
f 151/244/652 152/245/653 156/249/654 155/248/655
f 152/245/656 149/242/657 153/246/658 156/249/659
f 157/250/660 146/239/661 145/238/662
f 159/252/663 160/253/664 157/250/665 145/238/666
f 147/240/667 158/251/668 148/241/669
f 148/241/670 159/252/671 149/242/672 152/245/673
f 158/251/674 160/253/675 159/252/676 148/241/677
f 1/202/678 160/253/679 158/251/680
f 160/253/681 105/199/682 157/250/683
f 1/129/684 92/127/685 105/134/686
f 182/121/687 181/282/688 183/283/689
f 184/284/690 181/282/691 182/121/692
f 186/122/693 185/285/694 184/284/695 182/121/696
f 187/327/697 185/328/698 186/217/699
f 188/286/700 185/287/701 187/329/702
f 187/330/703 189/288/704 188/286/705
f 187/4/706 190/289/707 189/290/708
f 191/291/709 190/289/710 187/4/711
f 187/4/712 186/94/713 191/291/714
f 186/331/715 182/3/716 192/292/717 191/293/718
f 193/294/719 192/292/720 182/3/721
f 182/3/722 183/295/723 193/294/724
f 162/256/725 161/254/726 172/269/727 171/268/728
f 163/257/729 162/256/730 171/268/731 173/270/732
f 164/259/733 163/257/734 173/270/735 174/271/736
f 165/260/737 164/258/738 174/273/739 175/272/740
f 166/261/741 165/260/742 175/272/743 176/274/744
f 167/263/745 166/262/746 176/276/747 177/275/748
f 168/264/749 167/263/750 177/275/751 178/277/752
f 169/266/753 168/265/754 178/279/755 179/278/756
f 170/267/757 169/266/758 179/278/759 180/280/760
f 161/255/761 170/267/762 180/280/763 172/281/764
f 171/268/765 172/269/766 183/283/767 181/282/768
f 173/270/769 171/268/770 181/282/771 184/284/772
f 174/271/773 173/270/774 184/284/775 185/285/776
f 175/272/777 174/273/778 185/287/779 188/286/780
f 176/274/781 175/272/782 188/286/783 189/288/784
f 177/275/785 176/276/786 189/290/787 190/289/788
f 178/277/789 177/275/790 190/289/791 191/291/792
f 179/278/793 178/279/794 191/293/795 192/292/796
f 180/280/797 179/278/798 192/292/799 193/294/800
f 172/281/801 180/280/802 193/294/803 183/295/804
f 195/297/805 194/296/806 26/67/807 19/66/808
f 16/13/809 195/298/810 19/14/811
f 6/299/812 73/300/813 10/301/814
f 73/302/815 77/303/816 10/304/817
f 77/305/818 75/306/819 76/307/820 10/308/821
f 140/309/822 6/310/823 10/311/824
f 144/312/825 140/313/826 10/314/827
f 142/315/828 144/316/829 10/317/830 143/318/831
f 29/332/832 26/333/833 196/334/834
f 33/335/835 32/336/836 196/337/837
f 32/338/838 34/339/839 196/340/840
f 31/341/841 35/342/842 196/343/843
f 35/344/844 33/345/845 196/346/846
f 26/347/847 194/348/848 196/349/849
f 9/350/850 31/351/851 196/352/852
f 39/353/853 11/354/854 196/355/855
f 34/356/856 45/357/857 196/358/858
f 45/359/859 29/360/860 196/361/861
f 93/362/862 96/363/863 196/364/864
f 99/365/865 100/366/866 196/367/867
f 101/368/868 99/369/869 196/370/870
f 102/371/871 98/372/872 196/373/873
f 100/374/874 102/375/875 196/376/876
f 106/377/877 93/378/878 196/379/879
f 98/380/880 9/381/881 196/382/882
f 11/383/883 106/384/884 196/385/885
f 112/386/886 101/387/887 196/388/888
f 96/389/889 112/390/890 196/391/891
f 194/392/892 39/393/893 196/394/894
