# This file uses centimeters as units for non-parametric coordinates.

v -0.000000 99.999390 -4.196231
v -3.173643 113.541946 11.247370
v 6.662848 100.481781 -3.906399
v 7.591655 111.857079 10.395645
v 8.503433 108.296684 5.221470
v 9.928955 107.877197 -2.746313
v 9.535217 106.912468 1.082022
v 9.983253 106.054199 -4.218266
v 9.818473 101.016235 -2.097130
v 9.404961 102.509399 1.373123
v 8.209396 102.908943 5.140580
v -0.000000 109.501099 -11.237764
v -1.554095 117.288567 -5.282743
v -0.000000 100.728394 -10.110170
v -3.221299 116.543625 5.072788
v -3.326089 116.077164 7.008407
v 9.277824 114.790169 -4.004719
v 9.560936 108.064941 -8.657448
v 9.052193 102.586914 -8.395905
v 9.360924 113.779495 4.689968
v 7.678806 112.339111 7.991265
v 9.305351 108.255241 4.833057
v 10.364433 107.485474 1.389864
v 10.760543 108.580444 -2.981529
v 10.809997 106.582764 -4.776829
v 10.320610 101.854744 -2.916866
v 9.288040 103.991829 4.106118
v 9.975792 103.780281 1.826450
v -5.368190 101.432381 -2.171022
v -7.351868 110.443840 8.448837
v -8.503433 108.292976 5.221470
v -9.928955 107.877197 -2.746313
v -9.535217 106.912468 1.082022
v -9.983253 106.054199 -4.218266
v -9.328613 101.016235 -2.097130
v -9.404961 102.509399 1.373123
v -8.209396 102.908943 5.140580
v -9.277824 114.541862 -4.004719
v -9.560936 108.064941 -8.657448
v -9.052193 102.586914 -8.395905
v -9.360924 113.514648 4.689968
v -7.741331 111.442390 7.981255
v -9.305351 108.255241 4.833057
v -10.364433 107.485474 1.389864
v -10.760543 108.580444 -2.981529
v -10.809997 106.582764 -4.776829
v -10.320610 101.854744 -2.916866
v -9.288040 103.991829 4.106118
v -9.975792 103.780281 1.826450
v -4.978168 112.456558 7.835448
v -5.129191 113.741043 7.243858
v -5.376685 115.028336 4.910992
v -4.249191 115.812859 -4.465126
v -4.040787 108.894173 -10.096062
v -3.825775 101.991821 -10.274567
v -3.711014 101.227417 -4.306926
v 5.662532 114.216148 7.535612
v -0.000000 97.128006 -5.604787
v -0.000000 97.995888 -8.038740
v 8.577179 100.613525 -6.291130
v 8.297768 99.959473 -3.752209
v -3.825775 99.710304 -7.740836
v -3.711014 98.861763 -5.243268
v -8.146910 99.959473 -3.752209
v -8.577179 100.613525 -6.291130
v 7.240570 99.269043 -6.931266
v 6.819265 98.721436 -5.298828
v -7.538696 99.734131 -7.124099
v -7.138345 99.206177 -5.426098
v -6.088673 116.184685 -4.234924
v -7.055610 115.259644 4.822578
v -5.886104 113.674393 7.465080
v 0.778621 116.289917 7.223925
v 2.746478 116.317856 4.881378
v 4.250718 116.376221 -4.403431
v 4.870586 109.541260 -10.287895
v 4.001968 112.562714 10.556264
v -0.091950 105.898811 0.905057
v -1.874600 117.088356 12.239155
v 1.216948 117.335258 8.459385
v -2.601190 117.927620 8.161362
v 7.892757 114.687279 9.722601
v 8.084452 115.988503 12.432937
v 4.397742 115.968750 11.618844
v 6.177761 115.690903 9.147981
v -0.675702 120.488457 8.949524
v 3.519171 119.777977 6.731936
v -1.703820 119.196632 7.603139
v 6.321636 119.294212 9.388479
v 3.511787 121.063782 8.701097
v 5.394131 119.563354 7.053433
v -0.878638 121.612503 5.630258
v 2.093198 120.426163 4.654240
v -1.395980 120.222603 4.526584
v 1.876968 121.561790 5.967395
v 5.153396 116.110207 13.289256
v 4.577758 111.829552 11.580481
v 2.892346 110.585503 8.951802
v 3.201232 112.058975 11.936556
v 3.717656 116.317711 13.428774
v 3.983406 119.105316 11.480706
vt 0.050356 0.198441
vt 0.050356 0.198441
vt 0.050356 0.198441
vt 0.050356 0.198441
vt 0.050356 0.198441
vt 0.050356 0.198441
vt 0.050356 0.198441
vt 0.050356 0.198441
vt 0.050356 0.198441
vt 0.050356 0.198441
vt 0.050356 0.198441
vt 0.050356 0.198441
vt 0.050356 0.198441
vt 0.050356 0.198441
vt 0.050356 0.198441
vt 0.050356 0.198441
vt 0.050356 0.198441
vt 0.050356 0.198441
vt 0.050356 0.198441
vt 0.050356 0.198441
vt 0.050356 0.198441
vt 0.050356 0.198441
vt 0.050356 0.198441
vt 0.050356 0.198441
vt 0.050356 0.198441
vt 0.050356 0.198441
vt 0.050356 0.198441
vt 0.050356 0.198441
vt 0.050356 0.198441
vt 0.050356 0.198441
vt 0.050356 0.198441
vt 0.050356 0.198441
vt 0.050356 0.198441
vt 0.050356 0.198441
vt 0.050356 0.198441
vt 0.050356 0.198441
vt 0.050356 0.198441
vt 0.050356 0.198441
vt 0.050356 0.198441
vt 0.050356 0.198441
vt 0.050356 0.198441
vt 0.050356 0.198441
vt 0.050356 0.198441
vt 0.050356 0.198441
vt 0.050356 0.198441
vt 0.050356 0.198441
vt 0.050356 0.198441
vt 0.050356 0.198441
vt 0.050356 0.198441
vt 0.050356 0.198441
vt 0.050356 0.198441
vt 0.050356 0.198441
vt 0.050356 0.198441
vt 0.050356 0.198441
vt 0.050356 0.198441
vt 0.050356 0.198441
vt 0.050356 0.198441
vt 0.050356 0.198441
vt 0.050356 0.198441
vt 0.050356 0.198441
vt 0.050356 0.198441
vt 0.050356 0.198441
vt 0.050356 0.198441
vt 0.050356 0.198441
vt 0.050356 0.198441
vt 0.050356 0.198441
vt 0.050356 0.198441
vt 0.050356 0.198441
vt 0.050356 0.198441
vt 0.050356 0.198441
vt 0.050356 0.198441
vt 0.050356 0.198441
vt 0.050356 0.198441
vt 0.050356 0.198441
vt 0.050356 0.198441
vt 0.050356 0.198441
vt 0.050356 0.198441
vt 0.050356 0.198441
vt 0.050356 0.198441
vt 0.050356 0.198441
vt 0.050356 0.198441
vt 0.050356 0.198441
vt 0.050356 0.198441
vt 0.050356 0.198441
vt 0.050356 0.198441
vt 0.050356 0.198441
vt 0.050356 0.198441
vt 0.050356 0.198441
vt 0.050356 0.198441
vt 0.050356 0.198441
vt 0.050356 0.198441
vt 0.050356 0.198441
vt 0.050356 0.198441
vt 0.050356 0.198441
vt 0.050356 0.198441
vt 0.050356 0.198441
vt 0.050356 0.198441
vt 0.050356 0.198441
vt 0.050356 0.198441
vt 0.050356 0.198441
vt 0.050356 0.198441
vt 0.050356 0.198441
vt 0.050356 0.198441
vt 0.050356 0.198441
vt 0.050356 0.198441
vt 0.050356 0.198441
vt 0.050356 0.198441
vt 0.050356 0.198441
vt 0.050356 0.198441
vt 0.050356 0.198441
vt 0.050356 0.198441
vt 0.050356 0.198441
vt 0.050356 0.198441
vt 0.050356 0.198441
vt 0.050356 0.198441
vt 0.050356 0.198441
vt 0.050356 0.198441
vt 0.050356 0.198441
vt 0.050356 0.198441
vt 0.050356 0.198441
vt 0.050356 0.198441
vt 0.050356 0.198441
vt 0.050356 0.198441
vt 0.050356 0.198441
vt 0.050356 0.198441
vt 0.050356 0.198441
vt 0.050356 0.198441
vt 0.050356 0.198441
vt 0.050356 0.198441
vt 0.050356 0.198441
vt 0.050356 0.198441
vt 0.050356 0.198441
vt 0.050356 0.198441
vt 0.050356 0.198441
vt 0.050356 0.198441
vt 0.050356 0.198441
vt 0.050356 0.198441
vt 0.050356 0.198441
vt 0.050356 0.198441
vt 0.050356 0.198441
vt 0.050356 0.198441
vt 0.050356 0.198441
vt 0.050356 0.198441
vt 0.050356 0.198441
vt 0.050356 0.198441
vt 0.050356 0.198441
vt 0.050356 0.198441
vt 0.050356 0.198441
vt 0.050356 0.198441
vt 0.050356 0.198441
vt 0.050356 0.198441
vt 0.050356 0.198441
vt 0.050356 0.198441
vt 0.050356 0.198441
vt 0.050356 0.198441
vt 0.050356 0.198441
vt 0.050356 0.198441
vt 0.050356 0.198441
vt 0.050356 0.198441
vt 0.050356 0.198441
vt 0.050356 0.198441
vt 0.050356 0.198441
vt 0.050356 0.198441
vt 0.050356 0.198441
vt 0.050356 0.198441
vt 0.050356 0.198441
vt 0.050356 0.198441
vt 0.050356 0.198441
vt 0.050356 0.198441
vt 0.050356 0.198441
vt 0.050356 0.198441
vt 0.050356 0.198441
vt 0.050356 0.198441
vt 0.050356 0.198441
vt 0.050356 0.198441
vt 0.050356 0.198441
vt 0.050356 0.198441
vt 0.050356 0.198441
vt 0.050356 0.198441
vt 0.050356 0.198441
vt 0.050356 0.198441
vt 0.050356 0.198441
vt 0.050356 0.198441
vt 0.050356 0.198441
vt 0.050356 0.198441
vt 0.050356 0.198441
vt 0.050356 0.198441
vt 0.050356 0.198441
vt 0.050356 0.198441
vt 0.050356 0.198441
vt 0.050356 0.198441
vn 0.180579 0.635004 -0.751107
vn 0.180579 0.635004 -0.751107
vn 0.180579 0.635004 -0.751107
vn 0.180579 0.635004 -0.751107
vn 0.190904 -0.125141 -0.973599
vn 0.190904 -0.125141 -0.973599
vn 0.190904 -0.125141 -0.973599
vn 0.092855 0.994123 0.055654
vn 0.092855 0.994123 0.055654
vn 0.092855 0.994123 0.055654
vn 0.092855 0.994123 0.055654
vn 0.001008 0.993332 0.115287
vn 0.001008 0.993332 0.115287
vn 0.001008 0.993332 0.115287
vn 0.001008 0.993332 0.115287
vn 0.890502 0.002827 0.454971
vn 0.890502 0.002827 0.454971
vn 0.890502 0.002827 0.454971
vn 0.955681 -0.001988 0.294399
vn 0.955681 -0.001988 0.294399
vn 0.955681 -0.001988 0.294399
vn 0.981215 0.185383 0.053381
vn 0.981215 0.185383 0.053381
vn 0.981215 0.185383 0.053381
vn 0.981215 0.185383 0.053381
vn 0.955012 0.198972 -0.219913
vn 0.955012 0.198972 -0.219913
vn 0.955012 0.198972 -0.219913
vn 0.955012 0.198972 -0.219913
vn 0.944694 -0.152718 -0.290226
vn 0.944694 -0.152718 -0.290226
vn 0.944694 -0.152718 -0.290226
vn 0.944694 -0.152718 -0.290226
vn 0.951853 -0.059449 0.300736
vn 0.951853 -0.059449 0.300736
vn 0.951853 -0.059449 0.300736
vn 0.951853 -0.059449 0.300736
vn 0.219449 -0.928233 -0.300377
vn 0.219449 -0.928233 -0.300377
vn 0.219449 -0.928233 -0.300377
vn 0.219449 -0.928233 -0.300377
vn -0.007782 0.623615 -0.781693
vn -0.007782 0.623615 -0.781693
vn -0.007782 0.623615 -0.781693
vn 0.953363 -0.012158 0.301582
vn 0.953363 -0.012158 0.301582
vn 0.953363 -0.012158 0.301582
vn 0.953363 -0.012158 0.301582
vn 0.607279 -0.782406 -0.138035
vn 0.607279 -0.782406 -0.138035
vn 0.607279 -0.782406 -0.138035
vn 0.607279 -0.782406 -0.138035
vn 0.644095 -0.486974 0.589914
vn 0.644095 -0.486974 0.589914
vn 0.644095 -0.486974 0.589914
vn 0.644095 -0.486974 0.589914
vn 0.707493 -0.692114 -0.142938
vn 0.707493 -0.692114 -0.142938
vn 0.707493 -0.692114 -0.142938
vn 0.707493 -0.692114 -0.142938
vn 0.529196 0.289662 0.797526
vn 0.529196 0.289662 0.797526
vn 0.529196 0.289662 0.797526
vn 0.529196 0.289662 0.797526
vn 0.813893 -0.495417 0.303546
vn 0.813893 -0.495417 0.303546
vn 0.813893 -0.495417 0.303546
vn 0.813893 -0.495417 0.303546
vn 0.630674 -0.084913 0.771388
vn 0.630674 -0.084913 0.771388
vn 0.630674 -0.084913 0.771388
vn 0.630674 -0.084913 0.771388
vn 0.582266 -0.109561 -0.805582
vn 0.582266 -0.109561 -0.805582
vn 0.582266 -0.109561 -0.805582
vn 0.582266 -0.109561 -0.805582
vn 0.030688 0.631492 -0.774775
vn 0.030688 0.631492 -0.774775
vn 0.030688 0.631492 -0.774775
vn -0.294398 -0.023619 -0.955391
vn -0.294398 -0.023619 -0.955391
vn -0.294398 -0.023619 -0.955391
vn -0.294398 -0.023619 -0.955391
vn 0.172245 0.978854 0.110351
vn 0.172245 0.978854 0.110351
vn 0.172245 0.978854 0.110351
vn 0.172245 0.978854 0.110351
vn 0.085190 0.873192 0.479874
vn 0.085190 0.873192 0.479874
vn 0.085190 0.873192 0.479874
vn 0.085190 0.873192 0.479874
vn -0.896604 0.002574 0.442825
vn -0.896604 0.002574 0.442825
vn -0.896604 0.002574 0.442825
vn -0.955674 -0.002088 0.294419
vn -0.955674 -0.002088 0.294419
vn -0.955674 -0.002088 0.294419
vn -0.979720 0.192742 0.054775
vn -0.979720 0.192742 0.054775
vn -0.979720 0.192742 0.054775
vn -0.979720 0.192742 0.054775
vn -0.953687 0.204949 -0.220176
vn -0.953687 0.204949 -0.220176
vn -0.953687 0.204949 -0.220176
vn -0.953687 0.204949 -0.220176
vn -0.944694 -0.152718 -0.290226
vn -0.944694 -0.152718 -0.290226
vn -0.944694 -0.152718 -0.290226
vn -0.944694 -0.152718 -0.290226
vn -0.951853 -0.059449 0.300736
vn -0.951853 -0.059449 0.300736
vn -0.951853 -0.059449 0.300736
vn -0.951853 -0.059449 0.300736
vn -0.674740 -0.734474 -0.072625
vn -0.674740 -0.734474 -0.072625
vn -0.674740 -0.734474 -0.072625
vn -0.674740 -0.734474 -0.072625
vn 0.218334 0.429296 0.876376
vn 0.218334 0.429297 0.876376
vn 0.218334 0.429296 0.876376
vn -0.716823 -0.353296 0.601121
vn -0.716823 -0.353296 0.601121
vn -0.716823 -0.353296 0.601121
vn -0.716823 -0.353296 0.601121
vn -0.607279 -0.782406 -0.138035
vn -0.607279 -0.782406 -0.138035
vn -0.607279 -0.782406 -0.138035
vn -0.607279 -0.782406 -0.138035
vn -0.644095 -0.486974 0.589914
vn -0.644095 -0.486974 0.589914
vn -0.644095 -0.486974 0.589914
vn -0.644095 -0.486974 0.589914
vn -0.666857 -0.743633 -0.048076
vn -0.666857 -0.743633 -0.048076
vn -0.666857 -0.743633 -0.048076
vn -0.666857 -0.743633 -0.048076
vn -0.423329 0.299032 0.855204
vn -0.423329 0.299032 0.855204
vn -0.423329 0.299032 0.855204
vn -0.423329 0.299032 0.855204
vn -0.813893 -0.495417 0.303545
vn -0.813893 -0.495417 0.303545
vn -0.813893 -0.495417 0.303545
vn -0.813893 -0.495417 0.303545
vn -0.630786 -0.084941 0.771294
vn -0.630786 -0.084941 0.771294
vn -0.630786 -0.084941 0.771294
vn -0.630786 -0.084941 0.771294
vn -0.582266 -0.109561 -0.805582
vn -0.582266 -0.109561 -0.805582
vn -0.582266 -0.109561 -0.805582
vn -0.582266 -0.109561 -0.805582
vn -0.791250 0.454494 0.409094
vn -0.791250 0.454494 0.409094
vn -0.791250 0.454494 0.409094
vn -0.791250 0.454494 0.409094
vn -0.661470 0.685670 0.303832
vn -0.661470 0.685670 0.303832
vn -0.661470 0.685670 0.303832
vn -0.661470 0.685670 0.303832
vn -0.525687 0.850635 -0.008520
vn -0.525687 0.850635 -0.008520
vn -0.525687 0.850635 -0.008520
vn -0.525687 0.850635 -0.008520
vn -0.384905 0.542266 -0.746857
vn -0.384905 0.542267 -0.746857
vn -0.384905 0.542266 -0.746857
vn -0.384905 0.542266 -0.746857
vn -0.128121 -0.061690 -0.989838
vn -0.128121 -0.061690 -0.989838
vn -0.128121 -0.061690 -0.989838
vn -0.128121 -0.061690 -0.989838
vn -0.419039 -0.860496 -0.289747
vn -0.419039 -0.860496 -0.289747
vn -0.419039 -0.860496 -0.289747
vn -0.419039 -0.860496 -0.289747
vn 0.500502 0.670557 0.547587
vn 0.500502 0.670557 0.547587
vn 0.500502 0.670557 0.547587
vn 0.243533 -0.542713 -0.803837
vn 0.243533 -0.542713 -0.803837
vn 0.243533 -0.542713 -0.803837
vn 0.243533 -0.542713 -0.803837
vn 0.013138 -0.527547 0.849424
vn 0.013138 -0.527547 0.849424
vn 0.013138 -0.527547 0.849424
vn 0.013138 -0.527547 0.849424
vn 0.013138 -0.527547 0.849424
vn 0.839787 -0.477570 -0.258233
vn 0.839788 -0.477570 -0.258233
vn 0.839787 -0.477569 -0.258233
vn -0.279376 -0.672046 0.685786
vn -0.279376 -0.672046 0.685786
vn -0.279376 -0.672046 0.685786
vn 0.185625 -0.750624 0.634119
vn 0.185625 -0.750624 0.634119
vn 0.185625 -0.750624 0.634119
vn 0.185625 -0.750624 0.634119
vn 0.185625 -0.750624 0.634119
vn -0.753006 -0.556227 -0.351559
vn -0.753006 -0.556227 -0.351559
vn -0.753006 -0.556227 -0.351559
vn 0.095638 -0.806606 0.583301
vn 0.095638 -0.806606 0.583301
vn 0.095638 -0.806606 0.583301
vn -0.839787 -0.477570 -0.258234
vn -0.839787 -0.477570 -0.258234
vn -0.839787 -0.477570 -0.258234
vn -0.131092 -0.405132 0.904811
vn -0.131092 -0.405132 0.904811
vn -0.131092 -0.405132 0.904811
vn -0.131092 -0.405132 0.904811
vn -0.266151 -0.652043 -0.709932
vn -0.266151 -0.652043 -0.709932
vn -0.266151 -0.652043 -0.709932
vn -0.266151 -0.652043 -0.709932
vn 0.741540 -0.564766 -0.362156
vn 0.741540 -0.564766 -0.362156
vn 0.741540 -0.564766 -0.362156
vn 0.707960 -0.701345 -0.083117
vn 0.707960 -0.701345 -0.083117
vn 0.707960 -0.701345 -0.083117
vn 0.707960 -0.701345 -0.083117
vn -0.250027 -0.623043 -0.741151
vn -0.250027 -0.623043 -0.741151
vn -0.250027 -0.623043 -0.741151
vn -0.250027 -0.623043 -0.741151
vn -0.067462 -0.950429 -0.303536
vn -0.067462 -0.950429 -0.303536
vn -0.067462 -0.950429 -0.303536
vn -0.067462 -0.950429 -0.303536
vn -0.305477 0.552880 -0.775247
vn -0.305477 0.552880 -0.775247
vn -0.305477 0.552880 -0.775247
vn -0.305477 0.552880 -0.775247
vn -0.523007 0.850030 0.062544
vn -0.523007 0.850031 0.062544
vn -0.523007 0.850030 0.062544
vn -0.523007 0.850030 0.062544
vn -0.516279 0.599128 0.611966
vn -0.516279 0.599128 0.611966
vn -0.516279 0.599128 0.611966
vn -0.516279 0.599128 0.611966
vn -0.066938 0.318326 0.945615
vn -0.066938 0.318326 0.945615
vn -0.066937 0.318326 0.945615
vn -0.066938 0.318326 0.945615
vn 0.092611 0.760625 -0.642552
vn 0.092611 0.760625 -0.642552
vn 0.092611 0.760625 -0.642552
vn 0.350688 0.882465 0.313485
vn 0.350688 0.882465 0.313486
vn 0.350688 0.882465 0.313485
vn 0.350688 0.882465 0.313485
vn 0.331519 0.939871 0.082086
vn 0.331519 0.939871 0.082086
vn 0.331519 0.939871 0.082086
vn 0.331519 0.939871 0.082086
vn 0.339117 0.591209 -0.731759
vn 0.339117 0.591209 -0.731759
vn 0.339117 0.591209 -0.731759
vn 0.339117 0.591209 -0.731759
vn 0.237923 -0.119188 -0.963943
vn 0.237923 -0.119188 -0.963943
vn 0.237923 -0.119188 -0.963943
vn 0.237923 -0.119188 -0.963943
vn 0.550266 0.825822 -0.123390
vn 0.550266 0.825822 -0.123390
vn 0.550266 0.825822 -0.123390
vn 0.186229 0.822978 -0.536681
vn 0.186229 0.822978 -0.536681
vn 0.186229 0.822978 -0.536681
vn 0.014436 -0.653889 0.756453
vn 0.014436 -0.653889 0.756453
vn 0.014436 -0.653889 0.756453
vn -0.050579 -0.826893 0.560080
vn -0.050579 -0.826893 0.560080
vn -0.050579 -0.826893 0.560080
vn 0.106068 -0.966746 -0.232707
vn 0.106068 -0.966746 -0.232707
vn 0.106068 -0.966746 -0.232707
vn 0.377938 -0.574777 0.725806
vn 0.377938 -0.574777 0.725806
vn 0.377938 -0.574777 0.725806
vn -0.205971 -0.780774 0.589888
vn -0.205971 -0.780774 0.589888
vn -0.205971 -0.780774 0.589888
vn 0.422094 0.340018 0.840372
vn 0.422094 0.340018 0.840372
vn 0.422094 0.340018 0.840372
vn -0.335831 -0.941899 -0.006682
vn -0.335831 -0.941899 -0.006682
vn -0.335831 -0.941899 -0.006682
vn -0.451242 0.011230 0.892331
vn -0.451242 0.011230 0.892331
vn -0.451242 0.011230 0.892331
vn 0.025357 -0.066695 -0.997451
vn 0.025357 -0.066695 -0.997451
vn 0.025357 -0.066695 -0.997451
vn -0.233061 -0.638149 0.733791
vn -0.233061 -0.638149 0.733791
vn -0.233061 -0.638149 0.733791
vn 0.530141 -0.396868 0.749298
vn 0.530141 -0.396868 0.749298
vn 0.530141 -0.396868 0.749298
vn 0.040633 -0.838079 0.544033
vn 0.040633 -0.838079 0.544033
vn 0.040633 -0.838079 0.544033
vn -0.108111 -0.966580 -0.232456
vn -0.108111 -0.966580 -0.232456
vn -0.108111 -0.966580 -0.232456
vn -0.383983 -0.573106 0.723952
vn -0.383983 -0.573106 0.723952
vn -0.383983 -0.573106 0.723952
vn 0.080436 -0.628069 0.773989
vn 0.080436 -0.628069 0.773989
vn 0.080436 -0.628069 0.773989
vn -0.434891 0.300836 0.848744
vn -0.434891 0.300836 0.848744
vn -0.434891 0.300836 0.848744
vn 0.341597 -0.939806 -0.008735
vn 0.341597 -0.939806 -0.008735
vn 0.341597 -0.939806 -0.008735
vn 0.459163 0.011731 0.888274
vn 0.459163 0.011731 0.888274
vn 0.459163 0.011731 0.888274
vn -0.025852 -0.066709 -0.997438
vn -0.025852 -0.066709 -0.997438
vn -0.025852 -0.066709 -0.997438
vn -0.401915 -0.789563 0.463740
vn -0.401915 -0.789563 0.463740
vn -0.401915 -0.789563 0.463740
vn 0.435136 -0.799375 0.414313
vn 0.435136 -0.799375 0.414313
vn 0.435136 -0.799375 0.414313
vn 0.102472 -0.887911 0.448456
vn 0.102472 -0.887911 0.448456
vn 0.102472 -0.887911 0.448456
vn 0.102472 -0.887911 0.448456
vn -0.205169 -0.827172 0.523155
vn -0.205169 -0.827172 0.523155
vn -0.205169 -0.827172 0.523155
vn -0.205169 -0.827172 0.523155
vn 0.080311 0.614830 -0.784560
vn 0.080311 0.614830 -0.784560
vn 0.080311 0.614830 -0.784560
vn 0.080311 0.614830 -0.784560
vn -0.940077 0.269592 0.208747
vn -0.940077 0.269592 0.208747
vn -0.940077 0.269592 0.208747
vn -0.940077 0.269592 0.208747
vn 0.994301 -0.106557 -0.003258
vn 0.994301 -0.106557 -0.003258
vn 0.994301 -0.106557 -0.003258
vn 0.994301 -0.106557 -0.003258
vn 0.288771 -0.419845 0.860431
vn 0.288771 -0.419845 0.860431
vn 0.288771 -0.419845 0.860431
vn 0.288771 -0.419845 0.860431
vn -0.196726 -0.255495 0.946584
vn -0.196726 -0.255495 0.946584
vn -0.196726 -0.255495 0.946584
vn -0.196726 -0.255495 0.946584
vn 0.558961 0.482937 -0.674044
vn 0.558961 0.482937 -0.674044
vn 0.558961 0.482937 -0.674043
vn 0.558961 0.482937 -0.674044
vn 0.317082 0.655050 -0.685834
vn 0.317082 0.655050 -0.685834
vn 0.317082 0.655050 -0.685834
vn 0.317082 0.655050 -0.685834
vn -0.055810 -0.488212 -0.870939
vn -0.055810 -0.488212 -0.870939
vn -0.055810 -0.488212 -0.870939
vn -0.055810 -0.488212 -0.870939
vn -0.811135 0.543076 0.217089
vn -0.811135 0.543076 0.217089
vn -0.811135 0.543076 0.217089
vn -0.811135 0.543076 0.217089
vn 0.929800 0.301815 -0.210664
vn 0.929800 0.301815 -0.210664
vn 0.929800 0.301815 -0.210664
vn 0.375329 0.786494 0.490464
vn 0.361306 0.693187 0.623658
vn 0.362206 0.698125 0.617598
vn -0.123235 0.682399 0.720517
vn -0.124251 0.679203 0.723357
vn -0.076554 0.808904 0.582935
vn 0.743438 0.014943 -0.668638
vn 0.743438 0.014943 -0.668638
vn 0.743438 0.014943 -0.668638
vn 0.743438 0.014943 -0.668638
vn -0.013528 -0.515337 -0.856881
vn -0.013528 -0.515337 -0.856881
vn -0.013528 -0.515337 -0.856881
vn -0.013528 -0.515337 -0.856881
vn 0.057915 -0.945731 -0.319749
vn 0.057915 -0.945731 -0.319749
vn 0.057915 -0.945731 -0.319749
vn 0.057915 -0.945731 -0.319749
vn -0.904237 0.409033 0.122670
vn -0.904237 0.409033 0.122670
vn -0.904237 0.409033 0.122670
vn -0.904237 0.409033 0.122670
vn 0.758908 0.547659 -0.352318
vn 0.758908 0.547659 -0.352318
vn 0.758908 0.547659 -0.352318
vn 0.758908 0.547659 -0.352318
vn -0.075891 0.957133 0.279531
vn -0.075891 0.957133 0.279531
vn -0.075891 0.957133 0.279531
vn -0.075891 0.957133 0.279531
vn -0.899425 -0.043148 0.434941
vn -0.899425 -0.043148 0.434941
vn -0.899425 -0.043148 0.434941
vn -0.899425 -0.043148 0.434941
vn -0.852435 0.056624 0.519757
vn -0.852435 0.056624 0.519757
vn -0.852435 0.056624 0.519757
vn 0.762996 -0.607476 0.220929
vn 0.762996 -0.607477 0.220929
vn 0.762996 -0.607477 0.220929
vn 0.885247 -0.238462 0.399341
vn 0.885247 -0.238462 0.399341
vn 0.885247 -0.238462 0.399341
vn 0.885247 -0.238462 0.399341
vn -0.130715 0.658381 0.741247
vn -0.130715 0.658381 0.741247
vn -0.124251 0.679203 0.723357
vn -0.123235 0.682399 0.720517
vn 0.935615 0.137906 0.324971
vn 0.935615 0.137906 0.324971
vn 0.935615 0.137906 0.324971
vn -0.903218 -0.100942 0.417142
vn -0.903218 -0.100942 0.417142
vn -0.903218 -0.100942 0.417142
vn 0.362206 0.698125 0.617598
vn 0.361306 0.693187 0.623658
vn 0.356617 0.668591 0.652541
vn 0.356617 0.668591 0.652541
s off
f 75/92/1 76/93/2 12/3/3 13/2/4
f 76/93/5 14/20/6 12/3/7
f 74/91/8 75/92/9 13/2/10 15/8/11
f 73/90/12 74/91/13 15/8/14 16/23/15
f 21/22/16 22/24/17 20/7/18
f 23/12/19 20/7/20 22/24/21
f 20/7/22 23/26/23 24/25/24 17/1/25
f 17/1/26 24/25/27 25/27/28 18/4/29
f 18/4/30 25/27/31 26/28/32 19/21/33
f 28/29/34 23/32/35 22/31/36 27/30/37
f 58/76/38 59/73/39 66/83/40 67/84/41
f 92/181/42 93/179/43 94/180/44
f 5/11/45 22/24/46 21/22/47 4/9/48
f 6/13/49 24/25/50 23/26/51 7/96/52
f 8/14/53 25/27/54 24/25/55 6/13/56
f 61/75/57 60/74/58 26/28/59 9/15/60
f 9/15/61 26/28/62 25/27/63 8/14/64
f 10/16/65 28/29/66 27/30/67 11/17/68
f 11/17/69 27/30/70 22/31/71 5/18/72
f 7/19/73 23/32/74 28/29/75 10/16/76
f 54/69/77 70/87/78 53/68/79
f 39/36/80 54/69/81 55/70/82 40/38/83
f 70/87/84 71/88/85 52/67/86 53/68/87
f 71/88/88 72/89/89 51/66/90 52/67/91
f 42/41/92 41/39/93 43/43/94
f 44/44/95 43/43/96 41/39/97
f 41/39/98 38/33/99 45/45/100 44/46/101
f 38/33/102 39/36/103 46/47/104 45/45/105
f 39/36/106 40/38/107 47/48/108 46/47/109
f 49/49/110 48/50/111 43/51/112 44/52/113
f 68/85/114 69/86/115 64/78/116 65/79/117
f 72/89/118 50/65/119 51/66/120
f 31/57/121 30/55/122 42/41/123 43/43/124
f 32/58/125 33/97/126 44/46/127 45/45/128
f 34/59/129 32/58/130 45/45/131 46/47/132
f 64/78/133 35/60/134 47/48/135 65/79/136
f 35/60/137 34/59/138 46/47/139 47/48/140
f 36/61/141 37/62/142 48/50/143 49/49/144
f 37/62/145 31/63/146 43/51/147 48/50/148
f 33/64/149 36/61/150 49/49/151 44/52/152
f 51/66/153 50/65/154 2/56/155 16/42/156
f 52/67/157 51/66/158 16/42/159 15/40/160
f 53/68/161 52/67/162 15/40/163 13/34/164
f 54/69/165 53/68/166 13/34/167 12/35/168
f 55/70/169 54/69/170 12/35/171 14/37/172
f 58/81/173 63/77/174 62/80/175 59/82/176
f 21/22/177 20/7/178 57/72/179
f 14/20/180 19/21/181 66/83/182 59/73/183
f 3/6/184 1/5/185 58/76/186 67/84/187 61/75/188
f 19/21/189 26/28/190 60/74/191
f 9/15/192 3/6/193 61/75/194
f 56/71/195 29/54/196 64/78/197 69/86/198 63/77/199
f 40/38/200 68/85/201 65/79/202
f 29/54/203 35/60/204 64/78/205
f 47/48/206 40/38/207 65/79/208
f 1/53/209 56/71/210 63/77/211 58/81/212
f 55/70/213 14/37/214 59/82/215 62/80/216
f 66/83/217 19/21/218 60/74/219
f 67/84/220 66/83/221 60/74/222 61/75/223
f 40/38/224 55/70/225 62/80/226 68/85/227
f 62/80/228 63/77/229 69/86/230 68/85/231
f 38/33/232 70/87/233 54/69/234 39/36/235
f 41/39/236 71/88/237 70/87/238 38/33/239
f 42/41/240 72/89/241 71/88/242 41/39/243
f 30/55/244 50/65/245 72/89/246 42/41/247
f 95/182/248 93/179/249 92/181/250
f 57/72/251 20/7/252 74/91/253 73/90/254
f 20/7/255 17/1/256 75/92/257 74/91/258
f 17/1/259 18/4/260 76/93/261 75/92/262
f 18/4/263 19/21/264 14/20/265 76/93/266
f 89/177/267 91/178/268 90/94/269
f 91/178/270 87/174/271 90/94/272
f 1/98/273 3/99/274 78/100/275
f 5/101/276 4/102/277 78/103/278
f 6/104/279 7/105/280 78/106/281
f 8/107/282 6/108/283 78/109/284
f 3/110/285 9/111/286 78/112/287
f 9/113/288 8/114/289 78/115/290
f 10/116/291 11/117/292 78/118/293
f 11/119/294 5/120/295 78/121/296
f 7/122/297 10/123/298 78/124/299
f 56/125/300 1/126/301 78/127/302
f 50/128/303 30/129/304 78/130/305
f 30/131/306 31/132/307 78/133/308
f 33/134/309 32/135/310 78/136/311
f 32/137/312 34/138/313 78/139/314
f 35/140/315 29/141/316 78/142/317
f 34/143/318 35/144/319 78/145/320
f 37/146/321 36/147/322 78/148/323
f 31/149/324 37/150/325 78/151/326
f 36/152/327 33/153/328 78/154/329
f 2/155/330 50/156/331 78/157/332
f 29/158/333 56/159/334 78/160/335
f 4/161/336 97/185/337 98/186/338 78/163/339
f 98/187/340 99/189/341 2/165/342 78/166/343
f 73/90/344 16/23/345 81/168/346 80/167/347
f 16/23/348 2/10/349 79/169/350 81/168/351
f 4/9/352 21/22/353 82/171/354 83/170/355
f 96/183/356 97/184/357 4/9/358 83/170/359
f 2/10/360 99/188/361 100/190/362 79/169/363
f 21/22/364 57/72/365 85/173/366 82/171/367
f 57/72/368 73/90/369 80/167/370 85/173/371
f 80/167/372 81/168/373 88/175/374 87/174/375
f 81/168/376 79/169/377 86/176/378 88/175/379
f 83/170/380 82/171/381 89/177/382
f 90/94/383 101/191/384 89/177/385
f 86/176/386 101/191/387 90/94/388
f 82/171/389 85/173/390 91/178/391 89/177/392
f 85/173/393 80/167/394 87/174/395 91/178/396
f 87/174/397 88/175/398 94/180/399 93/179/400
f 88/175/401 86/176/402 92/181/403 94/180/404
f 90/94/405 87/174/406 93/179/407 95/182/408
f 86/176/409 90/94/410 95/182/411 92/181/412
f 77/95/413 97/184/414 96/183/415 84/172/416
f 98/186/417 97/185/418 77/162/419
f 77/164/420 99/189/421 98/187/422
f 100/190/423 99/188/424 77/95/425 84/172/426
f 79/169/427 100/190/428 101/191/429 86/176/430
f 101/191/431 100/190/432 84/172/433
f 84/172/434 96/183/435 101/191/436
f 89/177/437 101/191/438 96/183/439 83/170/440
