# This file uses centimeters as units for non-parametric coordinates.

v -7.719728 108.550537 -15.360343
v -10.249307 108.743843 -12.277939
v -7.676534 107.636322 -11.084618
v -6.113189 107.516846 -12.989655
v 5.497849 118.788490 -5.695106
v 4.762606 121.819267 -3.391483
v 2.444289 119.090675 -1.471612
v 5.661209 117.424713 -0.167740
v 6.675486 116.614868 -3.709910
v -9.489042 107.568184 -14.134067
v 7.325535 120.407402 -1.314323
v 8.204803 119.291138 -6.177470
v 6.885972 122.032753 -4.377476
v 8.404809 120.278915 -1.733354
v 7.872386 117.236588 -0.955110
v 8.731351 116.728683 -4.341121
v 4.947212 123.621407 -1.815895
v 2.064915 120.402596 0.445053
v 6.986217 121.119354 -0.294144
v 5.982981 118.489220 1.949204
v 4.880437 121.664551 1.081444
v 2.697405 116.593132 -7.758489
v 1.435574 118.424011 -6.112221
v -0.143207 116.494514 -4.447598
v 2.137531 114.991142 -3.593942
v 3.131238 114.471497 -6.202094
v -9.728930 107.423378 -16.679497
v -11.309876 108.511719 -15.718949
v -12.352106 105.731438 -16.140888
v -12.258505 107.616661 -13.597089
v 3.095943 111.508896 -8.575443
v 3.027640 114.773270 -4.628437
v -1.100203 116.534187 -2.239300
v 0.218144 110.320374 -9.967426
v -2.775860 111.705872 -8.235376
v -4.025902 114.895424 -3.910254
v 3.578490 117.748871 -8.257566
v 3.397111 115.231178 -9.868498
v 0.162863 114.660599 -12.234552
v -1.143988 119.177696 -6.355273
v -4.443464 117.310760 -7.107291
v -3.276610 115.796043 -9.695869
v 2.728353 118.276360 -8.967339
v 2.522427 116.696182 -9.902798
v 0.122051 116.621681 -11.620003
v 0.045130 119.208931 -8.577190
v -2.318235 118.002998 -8.638836
v -2.367389 117.064034 -10.070236
v 3.408643 121.626923 -10.714623
v 3.354046 119.933228 -11.861715
v 0.741741 118.386719 -13.044442
v 0.066888 123.615028 -9.944675
v -3.274868 121.284279 -10.161220
v -3.220174 119.933228 -11.861715
v 5.106223 122.763634 -16.718645
v 4.398465 119.840385 -16.681938
v 1.007070 118.636665 -15.916170
v 0.647304 126.504364 -15.798788
v -3.685661 124.824371 -14.869574
v -4.421032 120.861855 -14.981918
v 5.474779 120.970680 -21.936167
v 5.375926 118.449768 -18.978416
v 1.314941 116.960564 -18.354464
v -0.571839 122.879013 -23.331694
v -6.618386 120.998039 -21.859118
v -6.519605 118.449768 -18.978416
v 2.598225 113.328026 -24.529573
v 2.543557 112.368027 -22.608006
v -0.743602 111.614021 -22.091293
v -0.743602 113.797462 -26.357126
v -4.085261 113.328026 -24.529573
v -4.030663 112.368027 -22.608006
v 1.014544 105.975578 -24.506489
v 0.991206 105.415489 -23.767159
v -0.412581 104.958603 -23.784300
v -0.412581 105.818001 -25.493647
v -1.839798 105.975578 -24.506489
v -1.816461 105.415489 -23.767159
v 3.554108 122.678017 -10.147443
v 1.487853 123.857094 -9.676395
v 4.748734 124.105164 -16.646173
v 2.790270 126.537025 -16.111485
v 4.978150 123.197517 -21.589962
v 2.982292 123.911026 -22.086718
v 5.414332 125.598701 -16.538702
v 3.994490 127.651070 -16.114298
v 5.510665 125.093231 -21.689135
v 4.166959 125.514854 -22.007420
v -2.648360 123.035286 -11.124243
v -0.984347 124.547623 -10.848862
v -0.538465 126.297234 -15.773472
v -2.906194 125.502754 -15.185347
v -1.842408 122.331573 -22.878412
v -5.132691 121.382317 -22.203417
v -2.085974 116.032219 -25.948389
v -3.788019 115.723824 -24.767208
v -1.411452 126.977470 -16.069403
v -2.820994 126.561020 -15.697166
v -2.925255 122.952477 -23.398388
v -4.908894 122.411247 -23.039478
v -3.040161 117.456314 -26.729662
v -4.226729 117.191406 -25.777006
v 5.668259 121.428749 -24.180906
v 4.308165 121.874603 -24.200464
v 5.023679 122.810265 -24.778835
v 5.934480 122.542442 -24.788567
v -3.865365 113.892464 -27.062401
v -2.868284 114.016899 -27.815125
v -4.257449 114.463791 -27.916306
v -3.564711 114.553047 -28.523968
v 2.205060 112.962601 -25.929646
v 0.392293 113.248131 -26.643835
v 1.681993 106.481018 -25.816490
v 0.917123 106.289742 -26.264706
v 1.367918 103.479240 -25.604937
v 0.608476 103.338531 -26.274534
v 1.279122 103.765488 -27.207556
v 1.976279 103.939903 -26.798986
v -1.960771 117.263779 -10.607395
v -0.570687 117.222069 -11.599129
v -2.644344 119.426933 -12.250909
v -0.724564 118.565704 -12.935391
v -3.706131 120.156288 -15.249161
v -1.564009 118.811752 -15.773520
v -4.882005 117.775192 -18.769407
v -1.695206 116.980598 -18.535074
v -3.647959 113.570770 -21.648094
v -1.752437 113.119850 -21.328026
v -3.201630 118.545280 -12.601215
v -1.281853 117.684509 -13.285586
v -3.813944 118.930199 -15.040141
v -2.159844 117.870018 -15.458585
v -4.508467 116.900063 -18.026220
v -2.362092 116.246834 -17.708971
v -3.976136 113.442146 -20.241877
v -2.527226 113.048256 -19.968584
v -3.449807 109.739479 -21.163561
v -2.203608 109.443001 -20.953138
v -2.610804 109.382347 -20.048740
v -3.565817 109.642365 -20.228556
v 1.643471 117.754173 -13.677987
v 3.435485 119.026039 -12.780838
v 1.970025 117.811989 -15.667546
v 4.159294 118.682945 -16.252192
v 2.284290 116.698112 -16.772169
v 4.921417 117.821220 -17.239576
v 5.999844 113.063789 -19.328806
v 3.922122 112.297890 -19.007921
v 5.841082 112.740562 -18.434538
v 4.260759 112.162888 -18.194191
v 0.000000 111.439964 8.666978
v -7.061431 110.400284 7.870167
v -9.745415 104.311928 -2.866903
v -8.726719 100.144386 -5.409690
v -8.554444 108.352509 4.836411
v 0.008681 98.563568 -7.221625
v -9.124299 107.639481 1.034810
v -9.572246 109.603645 -3.014899
v -9.752664 108.005402 -4.571968
v -8.907895 105.007896 -2.708585
v -10.003727 114.918945 -4.523080
v -10.596357 109.257935 -10.307970
v 0.000051 109.743843 -11.773692
v 0.000000 116.566864 -4.400092
v -9.959002 105.462578 -8.831183
v -0.000036 105.756279 -10.989019
v 0.000000 116.022171 4.884601
v -8.103076 111.379097 7.760110
v 0.000000 115.164223 6.698653
v -11.132699 104.485336 -4.069977
v -9.813828 100.791550 -6.609480
v -10.320543 110.161415 4.978184
v 0.000736 99.476601 -8.996761
v -10.920307 109.467636 1.413490
v -11.406599 110.368393 -2.939653
v -11.712688 108.237549 -4.278491
v -10.419121 105.579857 -4.016393
v -2.458780 111.645355 8.082479
v -5.617491 115.544716 7.020762
v -5.052910 115.928146 2.619219
v -5.167121 115.555252 -4.950512
v -5.298178 109.252335 -11.408579
v -6.023275 103.807892 -10.208276
v -7.088432 99.470032 -9.035282
v -7.384387 98.924683 -7.550447
v -9.535110 113.760223 0.272078
v -10.372473 111.873291 -3.717628
v -10.974657 108.703888 -7.023683
v -10.506459 105.420448 -6.491634
v -10.845818 112.369881 5.183138
v -6.850858 116.607651 4.775062
v -11.426561 113.514282 2.132021
v -11.059983 111.424049 -3.074256
v -11.404446 108.484581 -6.371552
v -10.881834 105.208817 -5.622615
v -0.788494 113.887634 7.831469
v -2.245085 116.297653 4.868268
v -1.348437 116.863297 -4.401729
v -2.169676 109.947159 -12.275830
v -4.861605 116.480682 5.995630
v -12.001300 110.468529 0.471176
v -9.125560 115.586403 -5.294627
v -9.590745 109.426010 -11.068085
v -6.776253 109.374405 -11.657333
v -5.682294 115.718010 -4.981055
v -9.174323 105.056595 -10.292105
v -6.899860 103.954056 -11.026368
v -10.202725 101.697197 -7.731591
v -7.641122 100.791046 -10.306422
v -5.378225 117.230865 1.062267
v -9.460858 109.384033 4.909638
v -10.113502 108.837715 1.242388
v -9.130077 103.912804 1.858632
v -8.901990 105.157959 4.123046
v -10.406329 104.214813 1.691689
v -9.896959 105.403564 4.083414
v -10.149243 104.193115 3.228719
v -9.109436 103.866753 3.250880
v -4.969891 112.748489 7.287020
v -1.814863 113.206848 10.085096
v -3.012031 115.629135 9.263722
v -6.354997 112.404236 7.318274
v -5.087731 113.381577 10.854530
v -8.770564 113.512566 6.399951
v -7.706551 114.971420 9.705175
v -7.271408 111.278877 7.246604
v -7.524550 111.507675 9.502219
v -10.509659 111.290970 6.704483
v -10.468195 111.651978 9.088718
v -9.875056 109.699417 3.687416
v -9.066403 105.645767 4.773352
v -11.391078 108.984901 4.308775
v -10.602321 106.266418 4.856819
v 7.061431 110.400284 7.870167
v 9.739738 104.311928 -2.866903
v 8.533508 99.192001 -6.412134
v 8.554444 108.352509 4.836411
v 9.124299 107.639481 1.034810
v 9.572246 109.603645 -3.014899
v 9.752664 108.005402 -4.571968
v 8.902230 105.007896 -2.708585
v 10.003727 114.918945 -4.523080
v 10.596357 109.257935 -10.307970
v 10.025620 105.462578 -8.852560
v 8.103076 111.379097 7.760110
v 11.129013 104.485336 -4.069977
v 9.834553 100.797127 -6.615354
v 10.320543 110.161415 4.978184
v 10.920307 109.206161 1.413490
v 11.406599 110.368393 -2.939653
v 11.712688 108.208740 -4.667101
v 11.088205 105.579857 -4.183974
v 2.458780 111.645355 8.082479
v 5.617491 115.544716 7.020762
v 5.052910 115.928146 2.619219
v 5.167121 115.555252 -4.950512
v 5.298178 109.252335 -11.408579
v 6.012243 103.827736 -10.163615
v 7.103344 99.459457 -8.853416
v 7.381566 98.881882 -7.376929
v 9.535110 113.760223 0.272078
v 10.372473 111.873291 -3.717628
v 10.974657 108.703888 -7.023683
v 10.499895 105.420448 -6.856866
v 10.845818 112.369881 5.183138
v 6.850858 116.607651 4.775062
v 11.426561 113.514282 2.132021
v 11.059983 111.424049 -3.074256
v 11.404446 108.484581 -6.371552
v 10.896537 105.208817 -6.064594
v 0.788494 113.887634 7.831469
v 2.245085 116.297653 4.868268
v 1.348437 116.863297 -4.401729
v 2.170010 109.947159 -12.275830
v 4.861605 116.480682 5.995630
v 12.001300 110.468529 0.471176
v 9.125560 115.586403 -5.294627
v 9.590745 109.426010 -11.068085
v 6.776253 109.374405 -11.657333
v 5.682294 115.718010 -4.981055
v 9.282485 105.056595 -10.324747
v 6.883535 103.990234 -10.986564
v 10.292548 101.710747 -7.716465
v 7.673691 100.876343 -10.282932
v 5.378225 117.230865 1.062267
v 9.460858 109.893570 4.909638
v 10.113502 108.837715 1.242388
v 9.130077 103.912804 1.858632
v 8.901990 105.157959 4.123046
v 10.406329 104.214813 1.691689
v 9.896959 105.403564 4.083414
v 10.149243 104.193115 3.228719
v 9.109436 103.866753 3.250880
v 4.969891 112.748489 7.287021
v 1.814863 113.206848 10.085096
v 3.012031 115.629135 9.263722
v 6.355000 112.404236 7.318267
v 5.087731 113.381577 10.854530
v 8.700869 113.512566 6.399953
v 7.636858 114.971420 9.705175
v 7.749245 111.212830 6.918478
v 7.524551 111.507675 9.502226
v 11.001229 111.267517 6.376330
v 10.376991 111.651978 9.088718
v 10.193730 109.593475 3.648062
v 9.504419 105.891655 4.967891
v 11.705821 108.852730 4.146570
v 11.390339 106.376717 5.124214
v -0.000502 107.167175 -2.668768
v 2.471665 100.964401 -10.041312
v -2.469151 100.959480 -10.088778
v 3.273881 105.434906 -11.192918
v -3.274826 105.434906 -11.192918
v -9.307001 106.518730 -2.632919
v -11.244304 106.935432 -2.354426
v -11.377310 109.780716 -2.538121
v -10.283760 110.328987 -2.792979
v -9.310106 105.426750 -5.007917
v -10.203035 106.246010 -4.277996
v -11.019115 107.627632 -5.117239
v -10.077695 107.224655 -5.447400
v 9.415155 105.782616 0.110221
v 10.112876 109.390915 -0.222612
v 11.004110 108.981560 0.275896
v 11.443057 106.161728 0.733251
v 9.796185 107.285583 -2.507364
v 10.174635 110.366943 -3.089101
v 11.106049 109.863159 -2.958919
v 11.296297 107.757309 -2.734163
v 8.871401 105.832382 -4.869438
v 9.201160 107.982018 -6.184593
v 10.146727 107.447906 -6.054412
v 10.328333 106.371628 -5.096237
v -4.243076 97.166595 -11.675629
v -6.605216 96.404945 -11.136909
v -2.976000 95.941406 -10.209468
v -6.756557 96.126068 -10.377615
v -5.102576 96.926781 -13.103656
v -5.834918 96.023911 -13.349970
v -4.565633 95.652092 -13.127503
v -5.853837 95.409744 -13.301745
v 1.125186 96.555351 -7.930017
v 2.806768 98.194504 -9.855134
v 5.969007 97.167007 -9.044108
v 6.158961 96.772675 -8.036049
v 3.297584 95.835480 -9.978919
v 3.899024 96.421745 -10.667464
v 5.030043 96.054245 -10.377390
v 5.097982 95.913208 -10.016843
v 8.859628 97.376717 -4.739662
v 10.082690 98.339188 -5.773076
v 7.982609 96.464569 -5.942315
v 8.850698 96.804024 -7.168797
v 9.512007 94.646111 -6.470352
v 10.179748 95.171577 -7.034554
v 9.033190 94.148109 -7.126952
v 9.507132 94.333443 -7.796563
v -10.001456 97.297173 -5.308374
v -9.141208 96.926559 -4.719219
v -8.681103 96.396782 -7.182197
v -8.629864 96.094292 -6.208056
v -9.779545 95.399063 -3.594676
v -9.394312 95.412392 -3.283268
v -9.188271 94.590492 -4.056111
v -9.165324 94.726875 -3.620162
v -9.987643 100.280487 2.865376
v -10.010274 100.326553 1.473128
v -11.127694 101.321640 2.843216
v -11.409564 101.343330 1.306184
v 10.010274 100.326553 1.473128
v 9.987643 100.280487 2.865376
v 11.409564 101.343330 1.306184
v 11.127694 101.321640 2.843216
v -12.164237 98.154984 0.818972
v -12.148837 98.459061 -0.062474
v -12.721625 98.693504 0.999909
v -12.893106 98.947968 0.002661
v 12.148837 98.459061 -0.062471
v 12.164239 98.154991 0.818983
v 12.893103 98.947968 0.002669
v 12.721623 98.693497 0.999917
vt 0.037280 0.354266
vt 0.037269 0.354212
vt 0.037091 0.354110
vt 0.037143 0.354205
vt 0.037286 0.354294
vt 0.037126 0.354223
vt 0.037209 0.354356
vt 0.037012 0.354296
vt 0.037244 0.354353
vt 0.037075 0.354297
vt 0.037892 0.354486
vt 0.037866 0.354514
vt 0.037943 0.354579
vt 0.037885 0.354537
vt 0.037697 0.354556
vt 0.037793 0.354508
vt 0.037811 0.354532
vt 0.037688 0.354541
vt 0.037777 0.354486
vt 0.037091 0.354152
vt 0.037055 0.354098
vt 0.036958 0.354181
vt 0.037037 0.354054
vt 0.036977 0.354147
vt 0.036956 0.354159
vt 0.036943 0.354273
vt 0.036971 0.354297
vt 0.037019 0.354323
vt 0.036977 0.354179
vt 0.037082 0.354187
vt 0.050842 0.198655
vt 0.050873 0.198677
vt 0.050880 0.198678
vt 0.050809 0.198645
vt 0.050857 0.198623
vt 0.050887 0.198644
vt 0.051631 0.198269
vt 0.051478 0.198397
vt 0.051441 0.198264
vt 0.051514 0.198190
vt 0.051418 0.198419
vt 0.051341 0.198264
vt 0.051692 0.198179
vt 0.051551 0.198089
vt 0.051614 0.198225
vt 0.051503 0.198147
vt 0.051471 0.198347
vt 0.051435 0.198217
vt 0.051440 0.198229
vt 0.051494 0.198174
vt 0.051367 0.198215
vt 0.051501 0.198097
vt 0.051486 0.198142
vt 0.051435 0.198195
vt 0.051356 0.198098
vt 0.051405 0.198025
vt 0.051280 0.198180
vt 0.051316 0.198138
vt 0.051429 0.197980
vt 0.051447 0.197920
vt 0.051435 0.197925
vt 0.051423 0.198006
vt 0.051367 0.198186
vt 0.051407 0.198175
vt 0.051326 0.198116
vt 0.051298 0.198163
vt 0.051355 0.198061
vt 0.051145 0.198110
vt 0.051139 0.197986
vt 0.051195 0.198180
vt 0.051165 0.198158
vt 0.051143 0.197860
vt 0.051164 0.197763
vt 0.051384 0.197938
vt 0.051396 0.197882
vt 0.051177 0.197779
vt 0.051195 0.197793
vt 0.051228 0.198098
vt 0.051210 0.198150
vt 0.051231 0.197862
vt 0.051230 0.198018
vt 0.051042 0.198178
vt 0.050906 0.198068
vt 0.051148 0.198229
vt 0.051121 0.198201
vt 0.050911 0.197884
vt 0.050903 0.197860
vt 0.050883 0.197942
vt 0.050908 0.197956
vt 0.051112 0.198175
vt 0.051120 0.198215
vt 0.050963 0.198004
vt 0.051079 0.198103
vt 0.050904 0.198413
vt 0.050820 0.198375
vt 0.051083 0.198212
vt 0.050942 0.198413
vt 0.050874 0.197955
vt 0.050764 0.198387
vt 0.050745 0.198359
vt 0.050756 0.198164
vt 0.050802 0.198167
vt 0.051026 0.198314
vt 0.051033 0.198340
vt 0.050857 0.198319
vt 0.050934 0.198355
vt 0.050783 0.198644
vt 0.050769 0.198643
vt 0.050763 0.198327
vt 0.051142 0.197924
vt 0.051185 0.197805
vt 0.051167 0.197810
vt 0.050921 0.197967
vt 0.050908 0.197926
vt 0.050803 0.198050
vt 0.050810 0.198022
vt 0.050778 0.197985
vt 0.050772 0.198001
vt 0.051188 0.197810
vt 0.051217 0.197837
vt 0.050900 0.197972
vt 0.050943 0.197996
vt 0.050784 0.198228
vt 0.050842 0.198227
vt 0.050717 0.198302
vt 0.050754 0.198299
vt 0.050721 0.198274
vt 0.050692 0.198276
vt 0.050798 0.198758
vt 0.050775 0.198754
vt 0.050732 0.198747
vt 0.050744 0.198749
vt 0.051340 0.198084
vt 0.051306 0.198147
vt 0.051312 0.198131
vt 0.051219 0.198050
vt 0.051185 0.198139
vt 0.051196 0.198116
vt 0.051083 0.198138
vt 0.051084 0.198190
vt 0.050969 0.198312
vt 0.050975 0.198344
vt 0.050992 0.198461
vt 0.050996 0.198484
vt 0.051034 0.198482
vt 0.051029 0.198463
vt 0.051052 0.198428
vt 0.051030 0.198416
vt 0.051070 0.198428
vt 0.051086 0.198436
vt 0.051705 0.197968
vt 0.051705 0.197968
vt 0.051705 0.197968
vt 0.051705 0.197968
vt 0.051705 0.197968
vt 0.051705 0.197968
vt 0.051705 0.197968
vt 0.051705 0.197968
vt 0.051705 0.197968
vt 0.051705 0.197968
vt 0.051705 0.197968
vt 0.051705 0.197968
vt 0.051705 0.197968
vt 0.051705 0.197968
vt 0.051705 0.197968
vt 0.051705 0.197968
vt 0.051705 0.197968
vt 0.051705 0.197968
vt 0.051705 0.197968
vt 0.051705 0.197968
vt 0.051705 0.197968
vt 0.051705 0.197968
vt 0.051705 0.197968
vt 0.051705 0.197968
vt 0.051705 0.197968
vt 0.051705 0.197968
vt 0.051705 0.197968
vt 0.051705 0.197968
vt 0.051705 0.197968
vt 0.051705 0.197968
vt 0.051705 0.197968
vt 0.051705 0.197968
vt 0.051705 0.197968
vt 0.051705 0.197968
vt 0.051705 0.197968
vt 0.051705 0.197968
vt 0.051705 0.197968
vt 0.051705 0.197968
vt 0.051705 0.197968
vt 0.051705 0.197968
vt 0.051705 0.197968
vt 0.051705 0.197968
vt 0.051705 0.197968
vt 0.051705 0.197968
vt 0.051705 0.197968
vt 0.051705 0.197968
vt 0.051705 0.197968
vt 0.051705 0.197968
vt 0.051705 0.197968
vt 0.051705 0.197968
vt 0.051705 0.197968
vt 0.051705 0.197968
vt 0.051705 0.197968
vt 0.051705 0.197968
vt 0.051705 0.197968
vt 0.051705 0.197968
vt 0.051705 0.197968
vt 0.051705 0.197968
vt 0.051705 0.197968
vt 0.051705 0.197968
vt 0.051705 0.197968
vt 0.051705 0.197968
vt 0.051705 0.197968
vt 0.051705 0.197968
vt 0.051705 0.197968
vt 0.051705 0.197968
vt 0.051705 0.197968
vt 0.051705 0.197968
vt 0.051705 0.197968
vt 0.051705 0.197968
vt 0.051705 0.197968
vt 0.051705 0.197968
vt 0.051705 0.197968
vt 0.051705 0.197968
vt 0.051705 0.197968
vt 0.051705 0.197968
vt 0.051705 0.197968
vt 0.051705 0.197968
vt 0.051705 0.197968
vt 0.051705 0.197968
vt 0.051705 0.197968
vt 0.051705 0.197968
vt 0.051705 0.197968
vt 0.051705 0.197968
vt 0.051705 0.197968
vt 0.051705 0.197968
vt 0.051705 0.197968
vt 0.051705 0.197968
vt 0.051705 0.197968
vt 0.051705 0.197968
vt 0.051705 0.197968
vt 0.051705 0.197968
vt 0.051705 0.197968
vt 0.051705 0.197968
vt 0.051705 0.197968
vt 0.051705 0.197968
vt 0.051705 0.197968
vt 0.051705 0.197968
vt 0.051705 0.197968
vt 0.051705 0.197968
vt 0.051705 0.197968
vt 0.051705 0.197968
vt 0.051705 0.197968
vt 0.051705 0.197968
vt 0.051705 0.197968
vt 0.051705 0.197968
vt 0.051705 0.197968
vt 0.051705 0.197968
vt 0.051705 0.197968
vt 0.051705 0.197968
vt 0.051705 0.197968
vt 0.051705 0.197968
vt 0.051705 0.197968
vt 0.051705 0.197968
vt 0.051705 0.197968
vt 0.051705 0.197968
vt 0.051705 0.197968
vt 0.051705 0.197968
vt 0.051705 0.197968
vt 0.051705 0.197968
vt 0.051705 0.197968
vt 0.051705 0.197968
vt 0.051705 0.197968
vt 0.051705 0.197968
vt 0.051705 0.197968
vt 0.051705 0.197968
vt 0.051705 0.197968
vt 0.051705 0.197968
vt 0.051705 0.197968
vt 0.051705 0.197968
vt 0.051705 0.197968
vt 0.051705 0.197968
vt 0.051705 0.197968
vt 0.051705 0.197968
vt 0.051705 0.197968
vt 0.051705 0.197968
vt 0.051705 0.197968
vt 0.051705 0.197968
vt 0.051705 0.197968
vt 0.051705 0.197968
vt 0.051705 0.197968
vt 0.051705 0.197968
vt 0.051705 0.197968
vt 0.051705 0.197968
vt 0.051705 0.197968
vt 0.051705 0.197968
vt 0.051705 0.197968
vt 0.051705 0.197968
vt 0.051705 0.197968
vt 0.051705 0.197968
vt 0.051705 0.197968
vt 0.051705 0.197968
vt 0.051705 0.197968
vt 0.051705 0.197968
vt 0.051705 0.197968
vt 0.051705 0.197968
vt 0.051705 0.197968
vt 0.051705 0.197968
vt 0.051705 0.197968
vt 0.051705 0.197968
vt 0.051705 0.197968
vt 0.051705 0.197968
vt 0.051705 0.197968
vt 0.051705 0.197968
vt 0.051705 0.197968
vt 0.051705 0.197968
vt 0.051705 0.197968
vt 0.051705 0.197968
vt 0.051705 0.197968
vt 0.051705 0.197968
vt 0.051705 0.197968
vt 0.051705 0.197968
vt 0.051705 0.197968
vt 0.051705 0.197968
vt 0.051705 0.197968
vt 0.051705 0.197968
vt 0.051705 0.197968
vt 0.051705 0.197968
vt 0.051705 0.197968
vt 0.051705 0.197968
vt 0.051705 0.197968
vt 0.051705 0.197968
vt 0.051705 0.197968
vt 0.051705 0.197968
vt 0.051705 0.197968
vt 0.051705 0.197968
vt 0.051705 0.197968
vt 0.051705 0.197968
vt 0.051705 0.197968
vt 0.051705 0.197968
vt 0.051705 0.197968
vt 0.051705 0.197968
vt 0.051705 0.197968
vt 0.051705 0.197968
vt 0.051705 0.197968
vt 0.051705 0.197968
vt 0.051705 0.197968
vt 0.051705 0.197968
vt 0.051705 0.197968
vt 0.051705 0.197968
vt 0.051705 0.197968
vt 0.051705 0.197968
vt 0.051705 0.197968
vt 0.051705 0.197968
vt 0.051705 0.197968
vt 0.051705 0.197968
vt 0.051705 0.197968
vt 0.051705 0.197968
vt 0.051705 0.197968
vt 0.051705 0.197968
vt 0.051705 0.197968
vt 0.051705 0.197968
vt 0.051705 0.197968
vt 0.051705 0.197968
vt 0.051705 0.197968
vt 0.051705 0.197968
vt 0.051705 0.197968
vt 0.051705 0.197968
vt 0.051705 0.197968
vt 0.051705 0.197968
vt 0.051705 0.197968
vt 0.051705 0.197968
vt 0.051705 0.197968
vt 0.051705 0.197968
vt 0.051705 0.197968
vt 0.051705 0.197968
vt 0.051705 0.197968
vt 0.051705 0.197968
vt 0.051705 0.197968
vt 0.051705 0.197968
vt 0.051705 0.197968
vt 0.051705 0.197968
vt 0.051705 0.197968
vt 0.051705 0.197968
vt 0.051705 0.197968
vt 0.051705 0.197968
vt 0.051705 0.197968
vt 0.051705 0.197968
vt 0.051705 0.197968
vt 0.051705 0.197968
vt 0.051705 0.197968
vt 0.051705 0.197968
vt 0.051705 0.197968
vt 0.051705 0.197968
vt 0.051705 0.197968
vt 0.051705 0.197968
vt 0.051705 0.197968
vt 0.051705 0.197968
vt 0.051705 0.197968
vt 0.051705 0.197968
vt 0.051705 0.197968
vt 0.051705 0.197968
vt 0.051705 0.197968
vt 0.051705 0.197968
vt 0.051705 0.197968
vt 0.051705 0.197968
vt 0.051705 0.197968
vt 0.051705 0.197968
vt 0.051705 0.197968
vt 0.051705 0.197968
vt 0.051705 0.197968
vt 0.051705 0.197968
vt 0.051705 0.197968
vt 0.051705 0.197968
vt 0.051705 0.197968
vt 0.051705 0.197968
vt 0.051705 0.197968
vt 0.051705 0.197968
vt 0.051705 0.197968
vt 0.051705 0.197968
vt 0.051705 0.197968
vt 0.051705 0.197968
vt 0.051705 0.197968
vt 0.051705 0.197968
vt 0.051705 0.197968
vt 0.051705 0.197968
vt 0.051705 0.197968
vt 0.051705 0.197968
vt 0.051705 0.197968
vt 0.051705 0.197968
vt 0.051705 0.197968
vt 0.051705 0.197968
vt 0.051705 0.197968
vt 0.051705 0.197968
vt 0.051705 0.197968
vt 0.051705 0.197968
vt 0.051705 0.197968
vt 0.051705 0.197968
vt 0.051705 0.197968
vn 0.022161 0.635885 -0.771465
vn 0.022161 0.635885 -0.771465
vn 0.022161 0.635885 -0.771465
vn 0.022161 0.635885 -0.771465
vn -0.740271 0.669180 0.064777
vn -0.740271 0.669180 0.064777
vn -0.740271 0.669180 0.064777
vn -0.740271 0.669180 0.064777
vn -0.514399 -0.363585 0.776660
vn -0.514398 -0.363585 0.776659
vn -0.514399 -0.363585 0.776659
vn -0.514398 -0.363585 0.776659
vn 0.328104 -0.895503 0.300702
vn 0.328104 -0.895503 0.300702
vn 0.328104 -0.895503 0.300702
vn 0.328104 -0.895503 0.300702
vn 0.682235 -0.295467 -0.668771
vn 0.682235 -0.295467 -0.668771
vn 0.682235 -0.295467 -0.668771
vn 0.682235 -0.295467 -0.668771
vn -0.357551 0.269722 -0.894096
vn -0.357551 0.269722 -0.894096
vn -0.357551 0.269722 -0.894096
vn -0.895550 0.372618 -0.243197
vn -0.895550 0.372618 -0.243197
vn -0.895550 0.372618 -0.243197
vn -0.493998 -0.811651 0.311752
vn -0.493998 -0.811651 0.311752
vn -0.493998 -0.811651 0.311752
vn -0.028497 -0.998823 0.039254
vn -0.028497 -0.998823 0.039254
vn -0.028497 -0.998823 0.039254
vn 0.148992 -0.865448 -0.478331
vn 0.148992 -0.865448 -0.478331
vn 0.148992 -0.865448 -0.478331
vn 0.848481 0.507247 -0.150931
vn 0.848481 0.507247 -0.150931
vn 0.848481 0.507247 -0.150931
vn 0.504663 0.709988 0.491154
vn 0.504663 0.709988 0.491154
vn 0.504663 0.709988 0.491154
vn 0.571913 0.395049 0.718924
vn 0.571913 0.395049 0.718924
vn 0.571913 0.395049 0.718924
vn 0.960508 -0.101856 0.258940
vn 0.960508 -0.101856 0.258940
vn 0.960508 -0.101856 0.258940
vn 0.986072 0.147351 -0.077129
vn 0.986073 0.147351 -0.077129
vn 0.986072 0.147351 -0.077129
vn -0.319756 0.470772 -0.822271
vn -0.319756 0.470772 -0.822271
vn -0.319756 0.470772 -0.822271
vn -0.319756 0.470772 -0.822271
vn 0.170805 0.880307 0.442589
vn 0.170805 0.880307 0.442589
vn 0.170805 0.880307 0.442589
vn 0.170805 0.880307 0.442589
vn 0.049269 -0.978666 0.199463
vn 0.049269 -0.978666 0.199463
vn 0.049269 -0.978666 0.199463
vn 0.049269 -0.978666 0.199463
vn 0.353474 0.165268 0.920729
vn 0.353474 0.165268 0.920729
vn 0.353474 0.165268 0.920729
vn 0.353474 0.165268 0.920729
vn -0.093705 -0.645407 -0.758069
vn -0.093705 -0.645407 -0.758069
vn -0.093705 -0.645407 -0.758069
vn -0.093705 -0.645407 -0.758069
vn -0.809154 0.415425 -0.415563
vn -0.809154 0.415425 -0.415563
vn -0.809154 0.415425 -0.415563
vn -0.809154 0.415425 -0.415563
vn 0.756035 0.492107 -0.431557
vn 0.756035 0.492107 -0.431557
vn 0.756035 0.492107 -0.431557
vn 0.756035 0.492107 -0.431557
vn -0.533837 -0.731859 0.423557
vn -0.533838 -0.731859 0.423557
vn -0.533838 -0.731859 0.423557
vn -0.533837 -0.731859 0.423557
vn 0.926265 -0.325699 0.189613
vn 0.926265 -0.325699 0.189613
vn 0.926265 -0.325699 0.189613
vn 0.926265 -0.325699 0.189613
vn -0.446156 0.746380 0.493824
vn -0.446156 0.746380 0.493824
vn -0.446156 0.746380 0.493824
vn -0.285050 0.159325 0.945178
vn -0.285050 0.159325 0.945178
vn -0.285050 0.159325 0.945178
vn 0.062402 0.709847 -0.701586
vn 0.062402 0.709847 -0.701586
vn 0.062402 0.709847 -0.701586
vn -0.540380 0.834163 0.110281
vn -0.540380 0.834163 0.110281
vn -0.540380 0.834163 0.110281
vn -0.479641 -0.227130 0.847559
vn -0.479641 -0.227130 0.847559
vn -0.479641 -0.227130 0.847559
vn -0.479641 -0.227130 0.847559
vn 0.387640 -0.856456 0.340909
vn 0.387640 -0.856456 0.340909
vn 0.387640 -0.856456 0.340909
vn 0.387640 -0.856456 0.340909
vn 0.707209 -0.324471 -0.628151
vn 0.707209 -0.324471 -0.628151
vn 0.707209 -0.324471 -0.628151
vn 0.707209 -0.324471 -0.628151
vn 0.519915 -0.854218 -0.000400
vn 0.519915 -0.854218 -0.000400
vn 0.519915 -0.854218 -0.000400
vn 0.519915 -0.854218 -0.000400
vn 0.097948 -0.809933 0.578286
vn 0.097948 -0.809933 0.578286
vn 0.097948 -0.809933 0.578286
vn 0.097948 -0.809933 0.578286
vn -0.679992 0.713657 0.168239
vn -0.679992 0.713657 0.168239
vn -0.679992 0.713657 0.168239
vn -0.679992 0.713657 0.168239
vn 0.044983 0.660390 -0.749574
vn 0.044983 0.660390 -0.749574
vn 0.044983 0.660390 -0.749574
vn 0.044983 0.660390 -0.749574
vn 0.342962 -0.814086 -0.468659
vn 0.342962 -0.814086 -0.468659
vn 0.342962 -0.814086 -0.468659
vn 0.342962 -0.814086 -0.468659
vn -0.342942 -0.814094 -0.468659
vn -0.342942 -0.814094 -0.468659
vn -0.342942 -0.814094 -0.468659
vn -0.342942 -0.814094 -0.468659
vn 0.994782 -0.080144 0.063137
vn 0.994782 -0.080144 0.063137
vn 0.994782 -0.080144 0.063137
vn 0.994782 -0.080144 0.063137
vn 0.561677 -0.348480 -0.750387
vn 0.561677 -0.348480 -0.750387
vn 0.561677 -0.348480 -0.750387
vn 0.561677 -0.348480 -0.750387
vn 0.502860 0.683652 0.528915
vn 0.502860 0.683652 0.528915
vn 0.502860 0.683652 0.528915
vn 0.502860 0.683652 0.528915
vn -0.564635 0.661669 0.493336
vn -0.564635 0.661669 0.493337
vn -0.564635 0.661669 0.493336
vn -0.564635 0.661669 0.493337
vn -0.609565 -0.353864 -0.709374
vn -0.609565 -0.353864 -0.709374
vn -0.609565 -0.353864 -0.709374
vn -0.609565 -0.353864 -0.709374
vn -0.954180 -0.251153 -0.162673
vn -0.954180 -0.251153 -0.162673
vn -0.954180 -0.251153 -0.162673
vn -0.954180 -0.251153 -0.162673
vn 0.676233 0.341654 -0.652673
vn 0.676233 0.341654 -0.652673
vn 0.676233 0.341654 -0.652673
vn 0.676233 0.341654 -0.652673
vn 0.542314 0.279125 -0.792455
vn 0.542314 0.279125 -0.792455
vn 0.542314 0.279125 -0.792455
vn 0.542314 0.279125 -0.792455
vn 0.356373 0.909386 0.214511
vn 0.356373 0.909386 0.214511
vn 0.356373 0.909386 0.214511
vn 0.356373 0.909386 0.214511
vn -0.440394 0.870140 -0.221155
vn -0.440394 0.870140 -0.221155
vn -0.440394 0.870140 -0.221155
vn -0.440394 0.870140 -0.221155
vn -0.519167 0.201403 -0.830604
vn -0.519167 0.201403 -0.830604
vn -0.519167 0.201403 -0.830604
vn -0.519167 0.201403 -0.830604
vn -0.669365 0.536714 -0.513700
vn -0.669365 0.536714 -0.513700
vn -0.669365 0.536714 -0.513700
vn -0.669365 0.536714 -0.513700
vn 0.980124 -0.155976 0.122592
vn 0.980124 -0.155976 0.122592
vn 0.980124 -0.155976 0.122592
vn 0.980124 -0.155976 0.122592
vn 0.472257 -0.814047 -0.338085
vn 0.472257 -0.814047 -0.338085
vn 0.472257 -0.814047 -0.338085
vn 0.472257 -0.814047 -0.338085
vn 0.251141 0.176739 0.951678
vn 0.251141 0.176739 0.951678
vn 0.251141 0.176739 0.951678
vn 0.251141 0.176739 0.951678
vn -0.240517 0.315788 0.917840
vn -0.240517 0.315788 0.917840
vn -0.240517 0.315788 0.917840
vn -0.240517 0.315788 0.917840
vn -0.364260 -0.901432 -0.233955
vn -0.364260 -0.901432 -0.233955
vn -0.364260 -0.901432 -0.233955
vn -0.364260 -0.901432 -0.233955
vn -0.967527 -0.204855 0.148077
vn -0.967527 -0.204855 0.148077
vn -0.967527 -0.204855 0.148077
vn -0.967527 -0.204855 0.148077
vn 0.952322 -0.210388 0.220954
vn 0.952322 -0.210388 0.220954
vn 0.952322 -0.210388 0.220954
vn 0.952322 -0.210388 0.220954
vn 0.461417 -0.876919 0.134561
vn 0.461417 -0.876919 0.134561
vn 0.461417 -0.876919 0.134561
vn 0.461417 -0.876919 0.134561
vn 0.650402 0.559205 0.514069
vn 0.650402 0.559205 0.514069
vn 0.650402 0.559205 0.514069
vn 0.650402 0.559205 0.514069
vn -0.454469 0.748457 0.482980
vn -0.454469 0.748457 0.482980
vn -0.454469 0.748457 0.482980
vn -0.454469 0.748457 0.482980
vn -0.463393 -0.885238 0.040252
vn -0.463393 -0.885238 0.040252
vn -0.463393 -0.885238 0.040252
vn -0.463393 -0.885238 0.040252
vn -0.972721 0.047112 0.227145
vn -0.972721 0.047112 0.227145
vn -0.972721 0.047112 0.227145
vn -0.972721 0.047112 0.227145
vn 0.980529 -0.039467 0.192368
vn 0.980529 -0.039467 0.192368
vn 0.980529 -0.039467 0.192368
vn 0.980529 -0.039467 0.192368
vn 0.390720 -0.560410 0.730259
vn 0.390720 -0.560411 0.730259
vn 0.390720 -0.560410 0.730259
vn 0.390720 -0.560411 0.730259
vn 0.654895 0.738437 -0.160698
vn 0.654895 0.738437 -0.160698
vn 0.654895 0.738437 -0.160698
vn 0.654895 0.738437 -0.160698
vn -0.327549 0.857265 -0.397252
vn -0.327549 0.857265 -0.397252
vn -0.327549 0.857265 -0.397252
vn -0.327549 0.857265 -0.397252
vn -0.322511 -0.749500 0.578132
vn -0.322511 -0.749500 0.578132
vn -0.322511 -0.749500 0.578132
vn -0.322511 -0.749500 0.578132
vn -0.928234 0.218705 0.300916
vn -0.928234 0.218705 0.300916
vn -0.928234 0.218705 0.300916
vn -0.928234 0.218705 0.300916
vn 0.934189 -0.303686 -0.187256
vn 0.934189 -0.303686 -0.187256
vn 0.934189 -0.303686 -0.187256
vn 0.934189 -0.303686 -0.187256
vn 0.299083 -0.604113 0.738645
vn 0.299083 -0.604113 0.738645
vn 0.299083 -0.604113 0.738645
vn 0.299083 -0.604113 0.738645
vn 0.328652 0.324410 -0.886987
vn 0.328652 0.324410 -0.886987
vn 0.328652 0.324410 -0.886987
vn 0.328652 0.324410 -0.886987
vn -0.436235 0.425835 -0.792694
vn -0.436235 0.425835 -0.792694
vn -0.436235 0.425835 -0.792694
vn -0.436235 0.425835 -0.792694
vn -0.288094 -0.545180 0.787261
vn -0.288094 -0.545180 0.787261
vn -0.288094 -0.545180 0.787261
vn -0.288094 -0.545180 0.787261
vn -0.948326 -0.269877 -0.166868
vn -0.948326 -0.269877 -0.166868
vn -0.948326 -0.269877 -0.166868
vn -0.948326 -0.269877 -0.166868
vn 0.974353 -0.206504 -0.089404
vn 0.974353 -0.206504 -0.089404
vn 0.974353 -0.206504 -0.089404
vn 0.974353 -0.206504 -0.089404
vn 0.158396 -0.216145 0.963427
vn 0.158396 -0.216145 0.963427
vn 0.158396 -0.216145 0.963427
vn 0.158396 -0.216145 0.963427
vn 0.409848 -0.033335 -0.911545
vn 0.409848 -0.033335 -0.911545
vn 0.409848 -0.033335 -0.911545
vn 0.409848 -0.033335 -0.911545
vn -0.497295 -0.133143 -0.857304
vn -0.497295 -0.133143 -0.857305
vn -0.497295 -0.133143 -0.857304
vn -0.497295 -0.133143 -0.857305
vn -0.161881 -0.231344 0.959309
vn -0.161881 -0.231344 0.959309
vn -0.161881 -0.231344 0.959309
vn -0.161881 -0.231344 0.959309
vn -0.948930 -0.285107 -0.135079
vn -0.948930 -0.285107 -0.135079
vn -0.948930 -0.285107 -0.135079
vn -0.948930 -0.285107 -0.135079
vn 0.983877 -0.168506 0.059936
vn 0.983877 -0.168506 0.059936
vn 0.983877 -0.168506 0.059936
vn -0.225006 0.289827 0.930254
vn -0.225006 0.289827 0.930254
vn -0.225006 0.289827 0.930254
vn 0.972851 0.024692 0.230110
vn 0.972851 0.024692 0.230110
vn 0.972851 0.024692 0.230110
vn 0.972851 0.024692 0.230110
vn -0.065320 0.912613 0.403573
vn -0.065320 0.912613 0.403573
vn -0.065320 0.912613 0.403573
vn -0.065320 0.912613 0.403573
vn 0.972391 0.233311 -0.004785
vn 0.972390 0.233311 -0.004785
vn 0.972391 0.233311 -0.004785
vn 0.972391 0.233311 -0.004785
vn 0.283759 0.192441 -0.939387
vn 0.283759 0.192441 -0.939387
vn 0.283759 0.192441 -0.939387
vn 0.283759 0.192441 -0.939387
vn -0.101941 0.905734 -0.411406
vn -0.101941 0.905734 -0.411406
vn -0.101941 0.905734 -0.411406
vn -0.101941 0.905733 -0.411406
vn 0.908629 -0.410465 0.076889
vn 0.908629 -0.410465 0.076889
vn 0.908629 -0.410465 0.076889
vn -0.669453 0.724060 0.166044
vn -0.669453 0.724060 0.166044
vn -0.669453 0.724060 0.166044
vn 0.939974 -0.332473 0.076877
vn 0.939974 -0.332473 0.076878
vn 0.939974 -0.332473 0.076877
vn 0.939974 -0.332473 0.076877
vn -0.136471 -0.446427 -0.884352
vn -0.136471 -0.446427 -0.884352
vn -0.136471 -0.446427 -0.884352
vn -0.136471 -0.446427 -0.884352
vn -0.717546 0.638520 -0.278244
vn -0.717546 0.638520 -0.278244
vn -0.717546 0.638520 -0.278244
vn -0.717546 0.638520 -0.278244
vn -0.434316 0.467131 0.770168
vn -0.434316 0.467131 0.770168
vn -0.434316 0.467131 0.770168
vn -0.434316 0.467131 0.770168
vn 0.135453 0.905327 0.402536
vn 0.135453 0.905327 0.402536
vn 0.135453 0.905327 0.402536
vn 0.135453 0.905327 0.402536
vn -0.634566 0.614195 0.469138
vn -0.634566 0.614195 0.469138
vn -0.634567 0.614195 0.469138
vn -0.634567 0.614195 0.469138
vn -0.338814 0.857821 -0.386456
vn -0.338814 0.857821 -0.386456
vn -0.338814 0.857821 -0.386456
vn -0.338814 0.857821 -0.386456
vn -0.474959 0.828963 -0.295354
vn -0.474959 0.828963 -0.295354
vn -0.474959 0.828963 -0.295354
vn -0.474959 0.828963 -0.295354
vn -0.067410 0.369155 -0.926920
vn -0.067410 0.369155 -0.926920
vn -0.067410 0.369155 -0.926920
vn -0.067410 0.369155 -0.926920
vn -0.501328 -0.081321 -0.861428
vn -0.501328 -0.081321 -0.861428
vn -0.501328 -0.081321 -0.861428
vn -0.501328 -0.081321 -0.861427
vn -0.534636 0.169577 -0.827894
vn -0.534636 0.169577 -0.827894
vn -0.534636 0.169577 -0.827894
vn -0.534636 0.169577 -0.827894
vn 0.508611 0.795756 0.328766
vn 0.508611 0.795756 0.328766
vn 0.508611 0.795756 0.328766
vn -0.975833 0.153689 0.155336
vn -0.975833 0.153689 0.155336
vn -0.975833 0.153689 0.155336
vn 0.616378 0.631756 -0.470067
vn 0.616378 0.631756 -0.470067
vn 0.616378 0.631756 -0.470067
vn 0.616378 0.631756 -0.470067
vn -0.959250 0.239172 0.150455
vn -0.959250 0.239172 0.150455
vn -0.959250 0.239172 0.150455
vn -0.959250 0.239172 0.150455
vn 0.715473 0.316312 -0.622932
vn 0.715473 0.316312 -0.622932
vn 0.715473 0.316312 -0.622932
vn 0.715473 0.316312 -0.622932
vn -0.245641 -0.863368 -0.440745
vn -0.245641 -0.863368 -0.440745
vn -0.245641 -0.863368 -0.440745
vn -0.245641 -0.863368 -0.440745
vn -0.986221 -0.144481 -0.080584
vn -0.986221 -0.144481 -0.080584
vn -0.986221 -0.144481 -0.080584
vn -0.986221 -0.144481 -0.080584
vn -0.350864 -0.795903 0.493389
vn -0.350864 -0.795903 0.493389
vn -0.350864 -0.795903 0.493389
vn -0.350864 -0.795903 0.493389
vn -0.662553 0.367493 -0.652665
vn -0.662553 0.367493 -0.652665
vn -0.662553 0.367493 -0.652665
vn -0.662553 0.367493 -0.652665
vn 0.308279 0.741225 -0.596279
vn 0.308279 0.741225 -0.596279
vn 0.308279 0.741225 -0.596279
vn 0.308279 0.741225 -0.596279
vn 0.933181 -0.173787 0.314598
vn 0.933181 -0.173787 0.314598
vn 0.933181 -0.173787 0.314598
vn 0.933181 -0.173787 0.314598
vn 0.492586 -0.687454 0.533635
vn 0.492586 -0.687454 0.533635
vn 0.492586 -0.687454 0.533635
vn 0.492586 -0.687454 0.533635
vn -0.957098 -0.190062 0.218721
vn -0.957099 -0.190062 0.218721
vn -0.957098 -0.190062 0.218721
vn -0.957099 -0.190062 0.218721
vn -0.608665 0.493842 -0.621004
vn -0.608665 0.493842 -0.621004
vn -0.608665 0.493842 -0.621004
vn -0.608665 0.493842 -0.621004
vn 0.785230 0.221703 -0.578154
vn 0.785230 0.221703 -0.578154
vn 0.785230 0.221703 -0.578154
vn 0.785230 0.221703 -0.578154
vn 0.938546 -0.289452 -0.188013
vn 0.938546 -0.289452 -0.188013
vn 0.938546 -0.289452 -0.188013
vn -0.085475 0.316361 -0.944780
vn -0.085475 0.316361 -0.944780
vn -0.085475 0.316361 -0.944780
vn 0.984549 -0.149029 0.091946
vn 0.984549 -0.149029 0.091946
vn 0.984549 -0.149029 0.091946
vn 0.984549 -0.149029 0.091946
vn 0.335786 -0.923868 -0.183617
vn 0.335786 -0.923868 -0.183617
vn 0.335786 -0.923868 -0.183617
vn 0.335786 -0.923868 -0.183617
vn -0.394958 -0.098610 -0.913392
vn -0.394958 -0.098610 -0.913391
vn -0.394958 -0.098610 -0.913391
vn -0.394958 -0.098610 -0.913392
vn -0.509633 -0.423620 0.748879
vn -0.509633 -0.423620 0.748879
vn -0.509633 -0.423620 0.748879
vn -0.509633 -0.423620 0.748879
vn -0.665358 0.072060 -0.743039
vn -0.665358 0.072060 -0.743039
vn -0.665358 0.072060 -0.743039
vn -0.665358 0.072060 -0.743039
vn 0.398889 0.370515 -0.838813
vn 0.398889 0.370515 -0.838812
vn 0.398889 0.370515 -0.838812
vn 0.398889 0.370515 -0.838813
vn 0.898915 -0.063502 0.433496
vn 0.898915 -0.063502 0.433496
vn 0.898915 -0.063502 0.433496
vn 0.898915 -0.063502 0.433496
vn -0.492898 -0.589313 -0.640126
vn -0.492899 -0.589313 -0.640126
vn -0.492898 -0.589313 -0.640126
vn -0.492898 -0.589313 -0.640126
vn -0.656879 -0.551497 -0.514161
vn -0.656879 -0.551497 -0.514161
vn -0.656879 -0.551497 -0.514161
vn -0.656879 -0.551497 -0.514161
vn -0.267314 -0.617154 -0.740043
vn -0.267314 -0.617154 -0.740043
vn -0.267314 -0.617154 -0.740043
vn -0.267314 -0.617154 -0.740043
vn -0.670767 -0.740146 0.047488
vn -0.670767 -0.740146 0.047488
vn -0.670767 -0.740146 0.047488
vn -0.670767 -0.740146 0.047488
vn -0.091867 -0.992789 -0.077006
vn -0.091867 -0.992789 -0.077006
vn -0.091867 -0.992789 -0.077006
vn -0.091867 -0.992789 -0.077006
vn -0.389753 -0.690078 0.609824
vn -0.389753 -0.690078 0.609824
vn -0.389753 -0.690078 0.609824
vn -0.389753 -0.690078 0.609824
vn -0.032782 -0.829116 0.558114
vn -0.032782 -0.829116 0.558114
vn -0.032782 -0.829116 0.558114
vn -0.032782 -0.829116 0.558114
vn -0.286616 -0.584185 0.759328
vn -0.286616 -0.584185 0.759328
vn -0.286616 -0.584185 0.759328
vn -0.286616 -0.584185 0.759328
vn -0.257388 -0.560346 0.787251
vn -0.257388 -0.560346 0.787251
vn -0.257388 -0.560346 0.787251
vn -0.257388 -0.560346 0.787251
vn -0.093977 -0.561466 0.822146
vn -0.093977 -0.561466 0.822146
vn -0.093977 -0.561466 0.822146
vn -0.093977 -0.561466 0.822146
vn -0.752635 0.230707 0.616697
vn -0.752635 0.230707 0.616697
vn -0.752635 0.230707 0.616697
vn 0.826569 -0.346466 -0.443559
vn 0.826569 -0.346466 -0.443559
vn 0.826569 -0.346466 -0.443559
vn -0.905470 0.263415 0.332772
vn -0.905470 0.263415 0.332772
vn -0.905470 0.263415 0.332772
vn -0.905470 0.263415 0.332772
vn 0.803806 -0.502296 -0.318740
vn 0.803806 -0.502295 -0.318740
vn 0.803806 -0.502296 -0.318740
vn 0.803806 -0.502295 -0.318740
vn -0.961575 0.002804 0.274527
vn -0.961575 0.002804 0.274527
vn -0.961575 0.002804 0.274527
vn -0.961575 0.002804 0.274527
vn 0.847991 -0.461082 0.261372
vn 0.847991 -0.461082 0.261372
vn 0.847991 -0.461082 0.261372
vn 0.847991 -0.461082 0.261372
vn -0.980964 -0.183065 -0.064786
vn -0.980964 -0.183065 -0.064786
vn -0.980964 -0.183065 -0.064786
vn -0.980964 -0.183065 -0.064786
vn -0.218299 -0.965070 -0.144867
vn -0.218299 -0.965069 -0.144867
vn -0.218299 -0.965069 -0.144867
vn -0.218299 -0.965069 -0.144867
vn 0.838659 -0.334221 0.430056
vn 0.838659 -0.334221 0.430056
vn 0.838659 -0.334221 0.430056
vn 0.838659 -0.334221 0.430056
vn 0.138170 -0.117227 -0.983447
vn 0.138170 -0.117227 -0.983447
vn 0.138170 -0.117227 -0.983447
vn 0.138170 -0.117227 -0.983447
vn 0.886607 -0.046096 0.460220
vn 0.886607 -0.046096 0.460220
vn 0.886607 -0.046096 0.460220
vn 0.886607 -0.046096 0.460220
vn -0.189683 -0.017090 0.981697
vn -0.189683 -0.017090 0.981697
vn -0.189683 -0.017090 0.981697
vn -0.189683 -0.017090 0.981697
vn -0.976803 -0.090547 -0.194055
vn -0.976803 -0.090547 -0.194055
vn -0.976803 -0.090547 -0.194055
vn -0.976803 -0.090547 -0.194055
vn -0.680405 -0.300519 -0.668384
vn -0.680405 -0.300519 -0.668384
vn -0.680405 -0.300519 -0.668384
vn 0.970331 -0.123493 0.207862
vn 0.970331 -0.123493 0.207862
vn 0.970331 -0.123493 0.207862
vn -0.626821 -0.769070 -0.125006
vn -0.626821 -0.769070 -0.125006
vn -0.626821 -0.769070 -0.125006
vn -0.626821 -0.769070 -0.125006
vn 0.969035 -0.124566 0.213202
vn 0.969035 -0.124566 0.213202
vn 0.969035 -0.124566 0.213202
vn 0.969035 -0.124566 0.213202
vn -0.694856 -0.619261 0.365638
vn -0.694856 -0.619261 0.365638
vn -0.694856 -0.619261 0.365638
vn -0.694856 -0.619261 0.365638
vn 0.293685 -0.915060 -0.276433
vn 0.293685 -0.915060 -0.276433
vn 0.293685 -0.915060 -0.276433
vn 0.293685 -0.915060 -0.276433
vn 0.909837 0.126495 0.395216
vn 0.909837 0.126495 0.395216
vn 0.909837 0.126495 0.395216
vn 0.909837 0.126495 0.395216
vn -0.167886 0.044398 -0.984806
vn -0.167886 0.044398 -0.984806
vn -0.167886 0.044398 -0.984806
vn -0.167886 0.044398 -0.984806
vn 0.959874 0.103051 0.260811
vn 0.959874 0.103051 0.260811
vn 0.959874 0.103051 0.260811
vn 0.959874 0.103051 0.260811
vn 0.235954 -0.188385 0.953329
vn 0.235954 -0.188385 0.953330
vn 0.235954 -0.188385 0.953330
vn 0.235954 -0.188385 0.953330
vn -0.801079 -0.479921 0.357698
vn -0.801079 -0.479921 0.357698
vn -0.801079 -0.479921 0.357698
vn -0.801079 -0.479921 0.357698
vn -0.237888 0.721800 -0.649934
vn -0.237888 0.721800 -0.649934
vn -0.237888 0.721800 -0.649934
vn -0.237888 0.721800 -0.649934
vn 0.084761 -0.252109 -0.963980
vn 0.084761 -0.252109 -0.963980
vn 0.084761 -0.252109 -0.963980
vn 0.156501 0.985434 0.066532
vn 0.156501 0.985435 0.066532
vn 0.156501 0.985435 0.066532
vn 0.156501 0.985434 0.066532
vn 0.062743 0.640462 0.765423
vn 0.062743 0.640462 0.765423
vn 0.062743 0.640462 0.765423
vn -0.963770 -0.138406 -0.228015
vn -0.963770 -0.138406 -0.228015
vn -0.963770 -0.138406 -0.228015
vn -0.709230 -0.230517 0.666224
vn -0.709230 -0.230517 0.666224
vn -0.709230 -0.230517 0.666224
vn 0.082503 -0.224688 -0.970932
vn 0.082503 -0.224688 -0.970932
vn 0.082503 -0.224688 -0.970932
vn -0.947297 -0.244519 0.206974
vn -0.947297 -0.244519 0.206974
vn -0.947297 -0.244519 0.206974
vn -0.979154 0.153675 0.132824
vn -0.979154 0.153675 0.132824
vn -0.979154 0.153675 0.132824
vn -0.985382 0.167160 -0.032862
vn -0.985382 0.167160 -0.032862
vn -0.985382 0.167160 -0.032862
vn -0.985382 0.167160 -0.032862
vn -0.962853 -0.201415 -0.179850
vn -0.962853 -0.201415 -0.179850
vn -0.962853 -0.201415 -0.179850
vn -0.962853 -0.201415 -0.179850
vn 0.456920 0.415639 0.786428
vn 0.456920 0.415639 0.786428
vn 0.456920 0.415639 0.786428
vn -0.674119 -0.531823 0.512570
vn -0.674119 -0.531823 0.512570
vn -0.674119 -0.531823 0.512570
vn -0.674119 -0.531823 0.512570
vn -0.528176 -0.556669 0.641210
vn -0.528176 -0.556669 0.641210
vn -0.528176 -0.556669 0.641210
vn -0.528176 -0.556669 0.641210
vn -0.607108 -0.758987 0.235285
vn -0.607108 -0.758987 0.235285
vn -0.607108 -0.758987 0.235285
vn -0.607108 -0.758987 0.235285
vn -0.472501 -0.864702 -0.170391
vn -0.472500 -0.864702 -0.170391
vn -0.472500 -0.864702 -0.170391
vn -0.472500 -0.864702 -0.170391
vn -0.081854 -0.604605 0.792308
vn -0.081854 -0.604605 0.792308
vn -0.081854 -0.604605 0.792308
vn -0.081854 -0.604605 0.792308
vn -0.211032 0.272970 0.938591
vn -0.211032 0.272970 0.938591
vn -0.211032 0.272970 0.938591
vn -0.211032 0.272970 0.938591
vn -0.545835 0.384767 0.744324
vn -0.545835 0.384767 0.744324
vn -0.545835 0.384767 0.744324
vn -0.545835 0.384767 0.744324
vn -0.064558 0.180179 0.981513
vn -0.064558 0.180179 0.981513
vn -0.064558 0.180179 0.981513
vn -0.064558 0.180179 0.981513
vn -0.544030 0.510473 0.665919
vn -0.544030 0.510473 0.665919
vn -0.544030 0.510473 0.665919
vn -0.544030 0.510473 0.665919
vn -0.524006 0.814781 0.248094
vn -0.524006 0.814781 0.248094
vn -0.524006 0.814781 0.248093
vn -0.040128 0.707507 -0.705566
vn -0.040128 0.707507 -0.705566
vn -0.040128 0.707507 -0.705566
vn -0.040128 0.707507 -0.705566
vn -0.279675 -0.144768 -0.949118
vn -0.279675 -0.144768 -0.949118
vn -0.279675 -0.144768 -0.949118
vn -0.279675 -0.144768 -0.949118
vn -0.611051 -0.217080 -0.761245
vn -0.611051 -0.217080 -0.761245
vn -0.611051 -0.217080 -0.761245
vn -0.611051 -0.217080 -0.761245
vn -0.657592 0.655648 0.371078
vn -0.657592 0.655648 0.371078
vn -0.657592 0.655648 0.371078
vn -0.945098 0.274787 -0.176868
vn -0.945098 0.274787 -0.176868
vn -0.945098 0.274787 -0.176868
vn -0.959014 0.248142 -0.136810
vn -0.959014 0.248142 -0.136810
vn -0.959014 0.248142 -0.136810
vn -0.959014 0.248142 -0.136810
vn -0.957366 -0.284604 0.049518
vn -0.957366 -0.284604 0.049518
vn -0.957366 -0.284604 0.049518
vn -0.957366 -0.284604 0.049518
vn -0.834624 0.538457 0.116047
vn -0.834624 0.538457 0.116047
vn -0.834624 0.538457 0.116047
vn -0.955028 -0.177912 -0.237210
vn -0.955028 -0.177912 -0.237210
vn -0.955028 -0.177912 -0.237210
vn -0.303453 0.876621 -0.373433
vn -0.303453 0.876621 -0.373433
vn -0.303453 0.876621 -0.373433
vn -0.303453 0.876621 -0.373433
vn -0.520755 0.792955 -0.316286
vn -0.520755 0.792955 -0.316286
vn -0.520755 0.792955 -0.316286
vn -0.520755 0.792955 -0.316286
vn -0.758237 0.529178 -0.380851
vn -0.758237 0.529178 -0.380851
vn -0.758237 0.529178 -0.380851
vn -0.758237 0.529178 -0.380851
vn -0.833534 -0.224495 -0.504801
vn -0.833534 -0.224495 -0.504801
vn -0.833534 -0.224495 -0.504801
vn -0.833534 -0.224495 -0.504801
vn -0.899595 -0.123947 -0.418767
vn -0.899595 -0.123947 -0.418767
vn -0.899595 -0.123947 -0.418767
vn -0.660916 -0.539139 -0.522033
vn -0.660916 -0.539139 -0.522033
vn -0.660916 -0.539139 -0.522033
vn -0.660916 -0.539139 -0.522033
vn -0.274181 0.802256 0.530293
vn -0.274181 0.802256 0.530292
vn -0.274181 0.802256 0.530293
vn 0.525077 0.818981 -0.231440
vn 0.525077 0.818981 -0.231440
vn 0.525077 0.818981 -0.231440
vn 0.204561 -0.188997 -0.960435
vn 0.204561 -0.188997 -0.960435
vn 0.204561 -0.188997 -0.960435
vn 0.197497 0.722956 -0.662065
vn 0.197497 0.722956 -0.662065
vn 0.197497 0.722956 -0.662065
vn 0.197497 0.722956 -0.662065
vn 0.120080 0.985643 0.118693
vn 0.120080 0.985643 0.118693
vn 0.120080 0.985643 0.118693
vn 0.179977 0.889234 0.420561
vn 0.179977 0.889234 0.420561
vn 0.179977 0.889234 0.420561
vn 0.069557 0.983847 -0.164945
vn 0.069557 0.983847 -0.164945
vn 0.069557 0.983847 -0.164945
vn 0.069557 0.983847 -0.164945
vn -0.634348 -0.768016 -0.088058
vn -0.634348 -0.768016 -0.088058
vn -0.634348 -0.768016 -0.088058
vn -0.974990 0.068730 0.211355
vn -0.974990 0.068730 0.211355
vn -0.974990 0.068730 0.211355
vn -0.942136 0.287321 -0.172706
vn -0.942136 0.287321 -0.172706
vn -0.942136 0.287321 -0.172706
vn -0.785124 -0.483148 0.387490
vn -0.785124 -0.483148 0.387490
vn -0.785124 -0.483148 0.387490
vn -0.015032 0.970134 -0.242102
vn -0.015032 0.970134 -0.242102
vn -0.015032 0.970135 -0.242102
vn -0.327284 0.944569 0.025980
vn -0.327284 0.944569 0.025980
vn -0.327284 0.944569 0.025980
vn -0.658915 0.555198 -0.507530
vn -0.658915 0.555198 -0.507530
vn -0.658915 0.555198 -0.507530
vn -0.658915 0.555198 -0.507530
vn 0.196241 0.697142 -0.689553
vn 0.196241 0.697142 -0.689553
vn 0.196241 0.697142 -0.689553
vn 0.196241 0.697142 -0.689553
vn -0.765018 -0.261160 -0.588679
vn -0.765018 -0.261160 -0.588679
vn -0.765018 -0.261160 -0.588679
vn -0.765018 -0.261160 -0.588679
vn 0.388426 -0.182579 -0.903211
vn 0.388426 -0.182579 -0.903211
vn 0.388426 -0.182579 -0.903211
vn 0.388426 -0.182579 -0.903211
vn -0.988846 0.020942 -0.147463
vn -0.988846 0.020942 -0.147463
vn -0.988846 0.020942 -0.147463
vn -0.988846 0.020942 -0.147463
vn 0.655409 -0.329365 -0.679675
vn 0.655409 -0.329365 -0.679675
vn 0.655409 -0.329365 -0.679675
vn 0.655409 -0.329365 -0.679675
vn 0.305993 0.938150 -0.161993
vn 0.305993 0.938150 -0.161993
vn 0.305993 0.938150 -0.161993
vn -0.555544 0.576911 0.598786
vn -0.555544 0.576911 0.598786
vn -0.555544 0.576911 0.598786
vn -0.717268 0.606571 0.342926
vn -0.717268 0.606571 0.342926
vn -0.717268 0.606571 0.342926
vn -0.717268 0.606571 0.342926
vn -0.557259 -0.534764 0.635209
vn -0.557259 -0.534764 0.635209
vn -0.557259 -0.534764 0.635209
vn -0.771821 -0.601432 -0.206330
vn -0.771821 -0.601432 -0.206330
vn -0.771821 -0.601432 -0.206330
vn 0.999876 -0.004863 -0.014985
vn 0.999876 -0.004863 -0.014985
vn 0.999876 -0.004863 -0.014985
vn -0.114152 -0.145759 -0.982712
vn -0.114152 -0.145759 -0.982712
vn -0.114152 -0.145759 -0.982712
vn -0.114152 -0.145759 -0.982712
vn -0.983498 0.077485 0.163485
vn -0.983498 0.077485 0.163485
vn -0.983498 0.077485 0.163485
vn -0.114727 -0.196421 0.973785
vn -0.114727 -0.196421 0.973785
vn -0.114727 -0.196421 0.973785
vn -0.114727 -0.196421 0.973785
vn -0.978698 0.066941 0.194084
vn -0.978698 0.066941 0.194084
vn -0.978698 0.066941 0.194084
vn -0.983085 0.078360 0.165538
vn -0.983085 0.078360 0.165538
vn -0.983085 0.078360 0.165538
vn 0.988367 -0.075650 -0.131936
vn 0.988367 -0.075650 -0.131936
vn 0.988367 -0.075650 -0.131936
vn 0.988367 -0.075650 -0.131936
vn -0.356945 -0.677538 0.643065
vn -0.356945 -0.677538 0.643065
vn -0.356945 -0.677538 0.643065
vn -0.356945 -0.677538 0.643065
vn 0.292603 -0.023260 -0.955951
vn 0.292603 -0.023260 -0.955951
vn 0.292603 -0.023260 -0.955951
vn 0.356594 0.821391 -0.445150
vn 0.356594 0.821391 -0.445150
vn 0.356594 0.821391 -0.445150
vn 0.743463 0.466257 0.479445
vn 0.743463 0.466257 0.479445
vn 0.743463 0.466257 0.479445
vn 0.743463 0.466257 0.479445
vn -0.011578 -0.984616 0.174349
vn -0.011578 -0.984616 0.174349
vn -0.011578 -0.984616 0.174349
vn 0.198597 -0.138553 -0.970238
vn 0.198597 -0.138553 -0.970238
vn 0.198597 -0.138553 -0.970238
vn 0.198597 -0.138553 -0.970238
vn -0.127628 0.985573 0.111159
vn -0.127628 0.985573 0.111159
vn -0.127628 0.985573 0.111159
vn 0.229298 0.412307 0.881717
vn 0.229298 0.412307 0.881717
vn 0.229298 0.412307 0.881717
vn 0.762033 -0.630062 0.149428
vn 0.762033 -0.630062 0.149428
vn 0.762033 -0.630062 0.149428
vn 0.201384 -0.226089 -0.953062
vn 0.201384 -0.226089 -0.953062
vn 0.201384 -0.226089 -0.953062
vn 0.201384 -0.226089 -0.953062
vn -0.773748 0.631387 -0.051619
vn -0.773748 0.631387 -0.051619
vn -0.773748 0.631387 -0.051619
vn -0.773748 0.631387 -0.051619
vn -0.290307 -0.071170 0.954283
vn -0.290307 -0.071170 0.954283
vn -0.290307 -0.071170 0.954283
vn -0.290307 -0.071170 0.954283
vn 0.931852 -0.152353 -0.329303
vn 0.931852 -0.152353 -0.329303
vn 0.931852 -0.152353 -0.329303
vn 0.931852 -0.152353 -0.329303
vn -0.135759 0.864221 -0.484451
vn -0.135759 0.864221 -0.484451
vn -0.135759 0.864221 -0.484451
vn -0.135759 0.864221 -0.484451
vn -0.972544 -0.064309 0.223656
vn -0.972544 -0.064309 0.223656
vn -0.972544 -0.064309 0.223656
vn -0.972544 -0.064309 0.223656
vn -0.160245 -0.600348 0.783520
vn -0.160245 -0.600348 0.783520
vn -0.160245 -0.600348 0.783520
vn -0.160245 -0.600348 0.783520
vn 0.241146 -0.954158 0.177290
vn 0.241146 -0.954158 0.177290
vn 0.241146 -0.954158 0.177290
vn 0.609318 -0.792926 0.000789
vn 0.609318 -0.792926 0.000789
vn 0.609318 -0.792926 0.000789
vn -0.004795 0.580662 0.814130
vn -0.004795 0.580662 0.814131
vn -0.004795 0.580662 0.814131
vn -0.500155 0.840133 -0.209811
vn -0.500155 0.840133 -0.209811
vn -0.500155 0.840133 -0.209811
vn 0.237899 0.721801 -0.649929
vn 0.237899 0.721801 -0.649929
vn 0.237899 0.721801 -0.649929
vn 0.237899 0.721801 -0.649929
vn 0.237899 -0.180073 -0.954452
vn 0.237899 -0.180073 -0.954452
vn 0.237899 -0.180073 -0.954452
vn 0.237899 -0.180073 -0.954452
vn -0.156501 0.985434 0.066532
vn -0.156501 0.985434 0.066532
vn -0.156501 0.985434 0.066532
vn -0.156501 0.985434 0.066532
vn -0.062744 0.640463 0.765422
vn -0.062744 0.640463 0.765422
vn -0.062744 0.640463 0.765421
vn 0.961116 -0.150412 -0.231584
vn 0.961116 -0.150412 -0.231584
vn 0.961117 -0.150412 -0.231584
vn 0.709230 -0.230517 0.666224
vn 0.709230 -0.230517 0.666224
vn 0.709230 -0.230517 0.666224
vn 0.176447 -0.258745 -0.949693
vn 0.176447 -0.258745 -0.949694
vn 0.176447 -0.258745 -0.949694
vn 0.176447 -0.258745 -0.949694
vn 0.943162 -0.245151 0.224382
vn 0.943162 -0.245151 0.224382
vn 0.943162 -0.245151 0.224382
vn 0.979153 0.153676 0.132824
vn 0.979154 0.153676 0.132824
vn 0.979154 0.153676 0.132824
vn 0.985382 0.167160 -0.032862
vn 0.985382 0.167160 -0.032862
vn 0.985382 0.167160 -0.032862
vn 0.985382 0.167160 -0.032862
vn 0.967010 -0.183349 -0.176849
vn 0.967010 -0.183349 -0.176849
vn 0.967010 -0.183349 -0.176849
vn 0.967010 -0.183349 -0.176849
vn -0.456920 0.415639 0.786428
vn -0.456920 0.415639 0.786428
vn -0.456920 0.415639 0.786428
vn 0.642562 -0.550773 0.532694
vn 0.642562 -0.550773 0.532694
vn 0.642562 -0.550773 0.532694
vn 0.642562 -0.550773 0.532694
vn 0.458248 -0.679828 0.572575
vn 0.458248 -0.679828 0.572575
vn 0.458248 -0.679828 0.572575
vn 0.458248 -0.679828 0.572575
vn 0.301457 -0.903866 0.303561
vn 0.301457 -0.903866 0.303561
vn 0.301457 -0.903866 0.303560
vn 0.301457 -0.903866 0.303561
vn 0.402014 -0.892954 -0.202529
vn 0.402014 -0.892954 -0.202529
vn 0.402014 -0.892954 -0.202529
vn 0.402014 -0.892954 -0.202529
vn 0.166372 -0.636621 0.753017
vn 0.166372 -0.636621 0.753017
vn 0.166372 -0.636621 0.753017
vn 0.166372 -0.636621 0.753017
vn 0.287362 0.303543 0.908452
vn 0.287362 0.303543 0.908452
vn 0.287362 0.303543 0.908452
vn 0.287362 0.303543 0.908452
vn 0.547032 0.248557 0.799359
vn 0.547032 0.248557 0.799359
vn 0.547032 0.248557 0.799359
vn 0.547032 0.248557 0.799359
vn 0.064558 0.180179 0.981513
vn 0.064558 0.180179 0.981513
vn 0.064558 0.180179 0.981513
vn 0.064558 0.180179 0.981513
vn 0.544031 0.510473 0.665918
vn 0.544031 0.510473 0.665918
vn 0.544031 0.510473 0.665918
vn 0.544031 0.510473 0.665918
vn 0.524006 0.814781 0.248093
vn 0.524006 0.814781 0.248093
vn 0.524006 0.814781 0.248093
vn 0.040128 0.707507 -0.705566
vn 0.040128 0.707507 -0.705566
vn 0.040128 0.707507 -0.705566
vn 0.040128 0.707507 -0.705566
vn 0.259970 -0.143794 -0.954850
vn 0.259970 -0.143794 -0.954850
vn 0.259970 -0.143794 -0.954850
vn 0.259970 -0.143794 -0.954850
vn 0.587147 -0.233719 -0.775006
vn 0.587147 -0.233719 -0.775006
vn 0.587147 -0.233719 -0.775006
vn 0.587147 -0.233719 -0.775006
vn 0.657592 0.655647 0.371079
vn 0.657592 0.655647 0.371079
vn 0.657592 0.655647 0.371079
vn 0.945098 0.274787 -0.176868
vn 0.945098 0.274787 -0.176868
vn 0.945098 0.274787 -0.176868
vn 0.952742 0.266048 -0.146635
vn 0.952742 0.266048 -0.146635
vn 0.952742 0.266048 -0.146635
vn 0.952742 0.266048 -0.146635
vn 0.970420 -0.203490 -0.129914
vn 0.970420 -0.203490 -0.129914
vn 0.970420 -0.203490 -0.129914
vn 0.970420 -0.203490 -0.129914
vn 0.993981 0.025976 -0.106429
vn 0.993981 0.025976 -0.106429
vn 0.993981 0.025976 -0.106429
vn 0.960095 -0.207738 -0.187251
vn 0.960095 -0.207738 -0.187251
vn 0.960095 -0.207738 -0.187251
vn 0.303454 0.876621 -0.373431
vn 0.303454 0.876621 -0.373431
vn 0.303454 0.876622 -0.373431
vn 0.303454 0.876621 -0.373431
vn 0.520755 0.792955 -0.316285
vn 0.520755 0.792955 -0.316285
vn 0.520755 0.792955 -0.316285
vn 0.520755 0.792955 -0.316285
vn 0.758237 0.529178 -0.380851
vn 0.758237 0.529178 -0.380851
vn 0.758237 0.529178 -0.380851
vn 0.758237 0.529178 -0.380851
vn 0.834603 -0.163042 -0.526171
vn 0.834603 -0.163042 -0.526171
vn 0.834603 -0.163042 -0.526171
vn 0.834603 -0.163042 -0.526171
vn 0.867557 -0.149626 -0.474297
vn 0.867557 -0.149626 -0.474297
vn 0.867557 -0.149626 -0.474297
vn -0.031656 -0.574785 -0.817692
vn -0.031656 -0.574785 -0.817692
vn -0.031656 -0.574785 -0.817692
vn -0.031656 -0.574785 -0.817692
vn -0.116447 0.689212 0.715141
vn -0.116447 0.689212 0.715141
vn -0.116447 0.689212 0.715141
vn -0.525077 0.818981 -0.231439
vn -0.525077 0.818981 -0.231439
vn -0.525077 0.818981 -0.231439
vn -0.204542 -0.188990 -0.960440
vn -0.204542 -0.188990 -0.960440
vn -0.204542 -0.188990 -0.960440
vn -0.197485 0.722955 -0.662069
vn -0.197485 0.722955 -0.662069
vn -0.197485 0.722955 -0.662069
vn -0.197485 0.722955 -0.662069
vn -0.120080 0.985643 0.118693
vn -0.120080 0.985643 0.118693
vn -0.120080 0.985643 0.118693
vn -0.179977 0.889234 0.420561
vn -0.179977 0.889234 0.420561
vn -0.179977 0.889234 0.420561
vn -0.069557 0.983847 -0.164943
vn -0.069557 0.983847 -0.164943
vn -0.069557 0.983847 -0.164943
vn -0.069557 0.983847 -0.164943
vn 0.715535 -0.690720 -0.104483
vn 0.715535 -0.690720 -0.104483
vn 0.715535 -0.690720 -0.104483
vn 0.974990 0.068730 0.211356
vn 0.974990 0.068730 0.211356
vn 0.974990 0.068730 0.211356
vn 0.942136 0.287320 -0.172704
vn 0.942136 0.287320 -0.172704
vn 0.942136 0.287320 -0.172704
vn 0.823708 -0.426203 0.373973
vn 0.823708 -0.426203 0.373973
vn 0.823708 -0.426203 0.373973
vn 0.015032 0.970135 -0.242101
vn 0.015032 0.970135 -0.242101
vn 0.015032 0.970135 -0.242101
vn 0.327284 0.944569 0.025980
vn 0.327284 0.944569 0.025980
vn 0.327284 0.944569 0.025980
vn 0.658915 0.555198 -0.507530
vn 0.658915 0.555198 -0.507530
vn 0.658915 0.555198 -0.507530
vn 0.658915 0.555198 -0.507530
vn -0.196241 0.697142 -0.689552
vn -0.196241 0.697142 -0.689552
vn -0.196241 0.697142 -0.689552
vn -0.196241 0.697142 -0.689552
vn 0.776386 -0.240470 -0.582580
vn 0.776386 -0.240470 -0.582580
vn 0.776386 -0.240470 -0.582580
vn 0.776386 -0.240470 -0.582580
vn -0.388440 -0.189353 -0.901809
vn -0.388440 -0.189353 -0.901809
vn -0.388440 -0.189353 -0.901809
vn -0.388440 -0.189353 -0.901809
vn 0.993960 0.039740 -0.102300
vn 0.993959 0.039740 -0.102300
vn 0.993960 0.039740 -0.102300
vn 0.993960 0.039740 -0.102300
vn -0.661507 -0.345477 -0.665623
vn -0.661507 -0.345477 -0.665623
vn -0.661507 -0.345477 -0.665623
vn -0.661507 -0.345477 -0.665623
vn -0.305993 0.938150 -0.161998
vn -0.305993 0.938150 -0.161998
vn -0.305993 0.938150 -0.161998
vn 0.555544 0.576911 0.598786
vn 0.555544 0.576911 0.598786
vn 0.555544 0.576911 0.598786
vn 0.717267 0.606571 0.342929
vn 0.717267 0.606571 0.342929
vn 0.717267 0.606570 0.342929
vn 0.717267 0.606571 0.342929
vn 0.667700 -0.421870 0.613353
vn 0.667700 -0.421870 0.613353
vn 0.667700 -0.421870 0.613353
vn 0.771821 -0.601432 -0.206329
vn 0.771821 -0.601432 -0.206329
vn 0.771821 -0.601432 -0.206329
vn -0.999876 -0.004863 -0.014985
vn -0.999876 -0.004863 -0.014985
vn -0.999876 -0.004863 -0.014985
vn 0.114152 -0.145760 -0.982712
vn 0.114152 -0.145760 -0.982712
vn 0.114152 -0.145760 -0.982712
vn 0.114152 -0.145760 -0.982712
vn 0.985303 0.073521 0.154182
vn 0.985303 0.073521 0.154182
vn 0.985303 0.073521 0.154182
vn 0.151329 -0.179323 0.972082
vn 0.151329 -0.179323 0.972082
vn 0.151329 -0.179323 0.972082
vn 0.151329 -0.179323 0.972082
vn 0.976460 0.056538 0.208158
vn 0.976460 0.056538 0.208158
vn 0.976460 0.056538 0.208158
vn 0.983085 0.078360 0.165538
vn 0.983085 0.078360 0.165538
vn 0.983085 0.078360 0.165538
vn -0.988367 -0.075649 -0.131936
vn -0.988367 -0.075650 -0.131936
vn -0.988367 -0.075649 -0.131936
vn -0.988367 -0.075649 -0.131936
vn 0.356946 -0.677539 0.643063
vn 0.356946 -0.677539 0.643063
vn 0.356946 -0.677539 0.643063
vn 0.356946 -0.677539 0.643063
vn -0.292603 -0.023260 -0.955951
vn -0.292603 -0.023260 -0.955951
vn -0.292603 -0.023260 -0.955951
vn -0.356593 0.821389 -0.445154
vn -0.356593 0.821389 -0.445154
vn -0.356593 0.821389 -0.445154
vn -0.743463 0.466257 0.479445
vn -0.743463 0.466257 0.479445
vn -0.743463 0.466257 0.479445
vn -0.743463 0.466257 0.479445
vn 0.011578 -0.984616 0.174349
vn 0.011578 -0.984616 0.174349
vn 0.011578 -0.984616 0.174349
vn -0.201971 -0.139268 -0.969439
vn -0.201971 -0.139268 -0.969439
vn -0.201971 -0.139268 -0.969439
vn -0.201971 -0.139268 -0.969439
vn 0.129302 0.985132 0.113120
vn 0.129302 0.985132 0.113120
vn 0.129302 0.985132 0.113120
vn -0.229298 0.412307 0.881717
vn -0.229298 0.412307 0.881717
vn -0.229298 0.412307 0.881717
vn -0.644138 -0.764273 0.031194
vn -0.644138 -0.764273 0.031194
vn -0.644138 -0.764273 0.031194
vn -0.226251 -0.124210 -0.966117
vn -0.226251 -0.124210 -0.966117
vn -0.226251 -0.124210 -0.966117
vn -0.226251 -0.124210 -0.966117
vn 0.741274 0.671198 0.002361
vn 0.741275 0.671198 0.002361
vn 0.741274 0.671198 0.002361
vn 0.741274 0.671198 0.002361
vn 0.296669 -0.065442 0.952735
vn 0.296669 -0.065442 0.952735
vn 0.296669 -0.065442 0.952735
vn 0.296669 -0.065442 0.952735
vn -0.916470 -0.169427 -0.362461
vn -0.916470 -0.169427 -0.362461
vn -0.916470 -0.169427 -0.362461
vn -0.916470 -0.169427 -0.362461
vn 0.114718 0.831218 -0.543981
vn 0.114718 0.831219 -0.543981
vn 0.114718 0.831219 -0.543981
vn 0.114718 0.831218 -0.543981
vn 0.967332 0.012132 0.253221
vn 0.967332 0.012132 0.253221
vn 0.967332 0.012132 0.253221
vn 0.967332 0.012132 0.253221
vn 0.121655 -0.589630 0.798459
vn 0.121655 -0.589630 0.798459
vn 0.121655 -0.589630 0.798459
vn 0.121655 -0.589630 0.798459
vn -0.241145 -0.954158 0.177293
vn -0.241145 -0.954158 0.177293
vn -0.241145 -0.954157 0.177293
vn -0.609318 -0.792926 0.000792
vn -0.609318 -0.792926 0.000792
vn -0.609318 -0.792926 0.000792
vn 0.004878 0.580712 0.814095
vn 0.004878 0.580712 0.814095
vn 0.004878 0.580712 0.814095
vn 0.509546 0.835708 -0.204829
vn 0.509546 0.835708 -0.204829
vn 0.509546 0.835708 -0.204829
vn -0.159927 -0.923688 0.348172
vn -0.159927 -0.923688 0.348172
vn -0.159927 -0.923688 0.348172
vn 0.127186 -0.493777 0.860237
vn 0.127186 -0.493777 0.860237
vn 0.127186 -0.493777 0.860237
vn 0.270722 -0.854413 0.443494
vn 0.270722 -0.854413 0.443494
vn 0.270722 -0.854413 0.443494
vn -0.062040 -0.466878 0.882143
vn -0.062040 -0.466878 0.882143
vn -0.062040 -0.466878 0.882143
vn 0.022586 -0.983219 0.181027
vn 0.022586 -0.983219 0.181027
vn 0.022586 -0.983219 0.181027
vn -0.211404 -0.888399 -0.407500
vn -0.211404 -0.888399 -0.407500
vn -0.211404 -0.888399 -0.407500
vn -0.197013 -0.672643 0.713258
vn -0.197013 -0.672643 0.713258
vn -0.197013 -0.672643 0.713258
vn -0.124622 0.498265 0.858021
vn -0.124622 0.498265 0.858021
vn -0.124622 0.498266 0.858022
vn 0.068108 -0.298512 0.951973
vn 0.068108 -0.298512 0.951973
vn 0.068108 -0.298512 0.951973
vn 0.219292 -0.881842 0.417452
vn 0.219292 -0.881842 0.417452
vn 0.219292 -0.881842 0.417452
vn 0.362615 -0.693531 0.622515
vn 0.362615 -0.693531 0.622515
vn 0.362615 -0.693531 0.622515
vn 0.159924 -0.923692 0.348163
vn 0.159924 -0.923692 0.348163
vn 0.159924 -0.923692 0.348163
vn -0.141654 -0.540769 0.829158
vn -0.141654 -0.540769 0.829158
vn -0.141654 -0.540769 0.829158
vn -0.270701 -0.854415 0.443504
vn -0.270701 -0.854415 0.443504
vn -0.270701 -0.854415 0.443504
vn 0.038781 -0.467343 0.883225
vn 0.038781 -0.467343 0.883225
vn 0.038781 -0.467343 0.883225
vn -0.022583 -0.983218 0.181031
vn -0.022583 -0.983218 0.181031
vn -0.022583 -0.983218 0.181031
vn 0.211382 -0.888400 -0.407508
vn 0.211382 -0.888400 -0.407508
vn 0.211382 -0.888400 -0.407508
vn 0.196994 -0.672650 0.713257
vn 0.196994 -0.672650 0.713257
vn 0.196994 -0.672650 0.713257
vn 0.124644 0.498084 0.858124
vn 0.124644 0.498084 0.858124
vn 0.124644 0.498084 0.858124
vn -0.068156 -0.298562 0.951954
vn -0.068156 -0.298562 0.951954
vn -0.068156 -0.298562 0.951954
vn -0.219290 -0.881835 0.417468
vn -0.219290 -0.881835 0.417468
vn -0.219290 -0.881835 0.417468
vn -0.354271 -0.680273 0.641655
vn -0.354271 -0.680273 0.641654
vn -0.354271 -0.680273 0.641655
vn -0.630169 -0.757004 -0.172719
vn -0.630169 -0.757004 -0.172719
vn -0.630169 -0.757004 -0.172719
vn -0.630169 -0.757004 -0.172719
vn 0.176030 -0.537103 0.824945
vn 0.176030 -0.537103 0.824945
vn 0.176030 -0.537103 0.824945
vn 0.176030 -0.537103 0.824945
vn 0.630167 -0.757008 -0.172710
vn 0.630167 -0.757008 -0.172710
vn 0.630167 -0.757008 -0.172710
vn 0.630167 -0.757008 -0.172710
vn -0.176030 -0.537104 0.824944
vn -0.176030 -0.537104 0.824944
vn -0.176030 -0.537104 0.824944
vn -0.176030 -0.537104 0.824944
vn -0.030589 -0.814087 -0.579937
vn -0.030589 -0.814087 -0.579937
vn -0.030589 -0.814087 -0.579937
vn -0.030589 -0.814087 -0.579937
vn 0.183180 0.037560 -0.982362
vn 0.183180 0.037560 -0.982362
vn 0.183180 0.037560 -0.982362
vn 0.183180 0.037560 -0.982362
vn 0.322925 -0.841031 -0.434036
vn 0.322925 -0.841031 -0.434036
vn 0.322925 -0.841031 -0.434036
vn -0.215648 -0.295311 -0.930746
vn -0.215648 -0.295311 -0.930746
vn -0.215648 -0.295311 -0.930746
vn 0.233277 -0.294032 -0.926891
vn 0.233277 -0.294032 -0.926891
vn 0.233277 -0.294032 -0.926891
vn -0.315566 -0.844401 -0.432903
vn -0.315566 -0.844401 -0.432903
vn -0.315566 -0.844401 -0.432903
vn -0.083342 -0.234536 -0.968528
vn -0.083342 -0.234536 -0.968528
vn -0.083342 -0.234536 -0.968528
vn -0.084782 -0.252092 -0.963982
vn -0.084782 -0.252092 -0.963982
vn -0.084782 -0.252092 -0.963982
vn -0.162088 -0.242375 -0.956547
vn -0.162088 -0.242375 -0.956547
vn -0.162088 -0.242375 -0.956547
vn -0.162088 -0.242376 -0.956547
vn -0.231593 -0.176794 -0.956613
vn -0.231593 -0.176794 -0.956613
vn -0.231593 -0.176794 -0.956613
vn -0.231593 -0.176794 -0.956613
vn -0.293109 -0.952489 -0.082779
vn -0.293109 -0.952489 -0.082779
vn -0.293109 -0.952489 -0.082779
vn -0.293109 -0.952489 -0.082779
vn -0.986757 -0.159870 0.027437
vn -0.986757 -0.159870 0.027437
vn -0.986757 -0.159870 0.027437
vn -0.986757 -0.159870 0.027437
vn -0.403058 0.908645 0.109126
vn -0.403058 0.908645 0.109126
vn -0.403058 0.908645 0.109126
vn -0.403058 0.908645 0.109126
vn 0.975694 0.218030 -0.022030
vn 0.975693 0.218030 -0.022030
vn 0.975694 0.218030 -0.022030
vn 0.975694 0.218030 -0.022030
vn -0.286999 -0.907485 0.306763
vn -0.286999 -0.907485 0.306763
vn -0.286999 -0.907485 0.306763
vn -0.286999 -0.907485 0.306763
vn -0.958213 -0.249161 -0.140525
vn -0.958213 -0.249161 -0.140525
vn -0.958213 -0.249161 -0.140525
vn -0.958213 -0.249161 -0.140525
vn -0.248950 0.669735 -0.699628
vn -0.248950 0.669735 -0.699628
vn -0.248950 0.669735 -0.699628
vn -0.248950 0.669735 -0.699628
vn 0.943097 0.273052 -0.189764
vn 0.943097 0.273051 -0.189764
vn 0.943097 0.273051 -0.189764
vn 0.943097 0.273051 -0.189764
vn -0.981879 0.189103 0.012386
vn -0.981879 0.189103 0.012386
vn -0.981879 0.189103 0.012386
vn -0.981879 0.189103 0.012386
vn 0.449142 0.891833 -0.053896
vn 0.449142 0.891833 -0.053896
vn 0.449142 0.891833 -0.053896
vn 0.449142 0.891833 -0.053896
vn 0.996925 0.002016 -0.078335
vn 0.996925 0.002016 -0.078335
vn 0.996925 0.002016 -0.078335
vn 0.996925 0.002016 -0.078335
vn 0.209138 -0.977315 0.033414
vn 0.209138 -0.977315 0.033414
vn 0.209138 -0.977315 0.033414
vn 0.209138 -0.977315 0.033414
vn -0.987451 0.157698 -0.008442
vn -0.987451 0.157698 -0.008442
vn -0.987451 0.157698 -0.008442
vn -0.987451 0.157698 -0.008442
vn 0.350482 0.893300 0.281384
vn 0.350482 0.893300 0.281384
vn 0.350482 0.893300 0.281384
vn 0.350482 0.893300 0.281384
vn 0.990299 0.132356 0.042297
vn 0.990299 0.132356 0.042297
vn 0.990299 0.132356 0.042297
vn 0.990299 0.132356 0.042297
vn 0.257011 -0.865150 -0.430651
vn 0.257011 -0.865150 -0.430651
vn 0.257011 -0.865150 -0.430651
vn 0.257011 -0.865150 -0.430651
vn -0.960503 0.200145 0.193328
vn -0.960503 0.200145 0.193328
vn -0.960503 0.200145 0.193328
vn -0.960503 0.200145 0.193328
vn 0.440321 0.637767 -0.631958
vn 0.440321 0.637767 -0.631958
vn 0.440321 0.637767 -0.631958
vn 0.440321 0.637767 -0.631958
vn 0.945220 -0.010827 -0.326255
vn 0.945220 -0.010827 -0.326255
vn 0.945220 -0.010827 -0.326255
vn 0.945220 -0.010827 -0.326255
vn 0.350880 -0.858037 0.375040
vn 0.350880 -0.858037 0.375040
vn 0.350880 -0.858037 0.375040
vn 0.350880 -0.858037 0.375040
vn -0.637970 -0.672667 -0.374851
vn -0.637970 -0.672667 -0.374851
vn -0.637970 -0.672667 -0.374851
vn -0.637970 -0.672667 -0.374851
vn 0.648175 -0.741700 0.172480
vn 0.648175 -0.741700 0.172480
vn 0.648175 -0.741700 0.172480
vn 0.648175 -0.741700 0.172480
vn -0.641953 -0.604478 0.471702
vn -0.641953 -0.604478 0.471702
vn -0.641953 -0.604478 0.471702
vn -0.641953 -0.604478 0.471702
vn 0.620018 -0.686353 -0.380127
vn 0.620018 -0.686353 -0.380127
vn 0.620018 -0.686353 -0.380127
vn 0.620018 -0.686353 -0.380127
vn -0.341670 0.494236 -0.799370
vn -0.341670 0.494236 -0.799370
vn -0.341670 0.494236 -0.799370
vn -0.341670 0.494236 -0.799370
vn 0.731088 -0.057492 -0.679857
vn 0.731088 -0.057492 -0.679857
vn 0.731088 -0.057492 -0.679857
vn 0.731088 -0.057492 -0.679857
vn -0.065885 -0.716420 0.694552
vn -0.065885 -0.716419 0.694552
vn -0.065885 -0.716420 0.694552
vn -0.065885 -0.716419 0.694552
vn -0.979404 -0.016419 -0.201244
vn -0.979404 -0.016419 -0.201244
vn -0.979404 -0.016419 -0.201244
vn -0.979404 -0.016419 -0.201244
vn -0.479253 0.867061 -0.136097
vn -0.479253 0.867061 -0.136097
vn -0.479253 0.867061 -0.136097
vn -0.479253 0.867061 -0.136097
vn 0.814409 0.301729 -0.495679
vn 0.814409 0.301729 -0.495679
vn 0.814409 0.301729 -0.495679
vn 0.814409 0.301729 -0.495679
vn -0.000245 -0.985502 0.169664
vn -0.000245 -0.985502 0.169664
vn -0.000245 -0.985502 0.169664
vn -0.000245 -0.985502 0.169664
vn -0.952652 -0.082899 -0.292544
vn -0.952652 -0.082899 -0.292544
vn -0.952652 -0.082899 -0.292544
vn -0.952652 -0.082899 -0.292544
vn -0.688563 -0.131240 -0.713201
vn -0.688563 -0.131240 -0.713202
vn -0.688563 -0.131240 -0.713202
vn -0.688564 -0.131240 -0.713202
vn 0.237100 -0.036567 -0.970797
vn 0.237100 -0.036567 -0.970797
vn 0.237100 -0.036567 -0.970797
vn 0.237100 -0.036567 -0.970797
vn 0.859962 -0.399057 -0.318150
vn 0.859962 -0.399057 -0.318150
vn 0.859962 -0.399057 -0.318150
vn 0.859962 -0.399057 -0.318150
vn 0.033608 -0.315801 0.948230
vn 0.033608 -0.315801 0.948230
vn 0.033608 -0.315801 0.948230
vn 0.033608 -0.315801 0.948230
vn -0.700906 -0.108841 -0.704900
vn -0.700906 -0.108841 -0.704900
vn -0.700906 -0.108841 -0.704900
vn -0.700906 -0.108841 -0.704900
vn 0.372574 0.566402 -0.735104
vn 0.372574 0.566402 -0.735104
vn 0.372574 0.566402 -0.735104
vn 0.372574 0.566402 -0.735104
vn 0.876478 -0.368828 -0.309439
vn 0.876478 -0.368828 -0.309439
vn 0.876478 -0.368828 -0.309439
vn 0.876478 -0.368828 -0.309439
vn 0.047871 -0.925423 0.375899
vn 0.047871 -0.925423 0.375899
vn 0.047871 -0.925423 0.375899
vn 0.047871 -0.925423 0.375899
vn -0.082594 0.497184 0.863705
vn -0.082594 0.497184 0.863705
vn -0.082594 0.497184 0.863705
vn -0.082594 0.497184 0.863705
vn -0.773540 0.256100 0.579697
vn -0.773540 0.256100 0.579697
vn -0.773540 0.256100 0.579697
vn -0.773540 0.256100 0.579697
vn -0.746555 -0.563308 -0.354034
vn -0.746555 -0.563308 -0.354034
vn -0.746555 -0.563308 -0.354034
vn -0.746555 -0.563308 -0.354034
vn 0.702956 -0.075176 -0.707249
vn 0.702956 -0.075176 -0.707249
vn 0.702956 -0.075176 -0.707249
vn 0.702956 -0.075176 -0.707249
vn 0.728353 -0.234134 0.643959
vn 0.728353 -0.234134 0.643959
vn 0.728353 -0.234134 0.643959
vn 0.728353 -0.234134 0.643959
vn -0.411806 -0.555997 0.722000
vn -0.411806 -0.555997 0.722000
vn -0.411806 -0.555997 0.722000
vn -0.411806 -0.555997 0.722000
vn -0.806002 -0.064652 -0.588371
vn -0.806002 -0.064652 -0.588371
vn -0.806002 -0.064652 -0.588371
vn -0.806002 -0.064652 -0.588371
vn 0.492570 0.334972 -0.803224
vn 0.492570 0.334972 -0.803224
vn 0.492570 0.334972 -0.803224
vn 0.492570 0.334972 -0.803224
vn -0.565575 0.280809 0.775417
vn -0.565575 0.280809 0.775417
vn -0.565575 0.280809 0.775417
vn -0.565575 0.280809 0.775417
vn -0.751414 -0.108863 -0.650788
vn -0.751415 -0.108863 -0.650788
vn -0.751415 -0.108863 -0.650788
vn -0.751415 -0.108863 -0.650788
vn 0.883169 -0.463509 -0.071920
vn 0.883169 -0.463509 -0.071920
vn 0.883169 -0.463509 -0.071920
vn 0.883169 -0.463509 -0.071920
vn 0.870204 -0.075173 0.486923
vn 0.870204 -0.075173 0.486923
vn 0.870204 -0.075173 0.486923
vn 0.870204 -0.075173 0.486923
vn -0.317797 0.644671 0.695273
vn -0.317797 0.644671 0.695273
vn -0.317797 0.644671 0.695273
vn -0.317797 0.644671 0.695273
vn -0.828315 -0.420269 -0.370497
vn -0.828315 -0.420269 -0.370497
vn -0.828315 -0.420269 -0.370497
vn -0.828315 -0.420269 -0.370497
vn 0.876391 -0.470770 -0.101563
vn 0.876391 -0.470770 -0.101563
vn 0.876391 -0.470770 -0.101563
vn 0.876391 -0.470770 -0.101563
vn 0.951671 0.128857 0.278778
vn 0.951672 0.128857 0.278778
vn 0.951672 0.128857 0.278778
vn 0.951672 0.128857 0.278778
vn 0.971551 -0.235723 -0.022897
vn 0.971551 -0.235723 -0.022897
vn 0.971551 -0.235723 -0.022897
vn 0.971551 -0.235723 -0.022897
vn -0.080052 -0.095447 0.992211
vn -0.080052 -0.095447 0.992210
vn -0.080052 -0.095447 0.992211
vn -0.080052 -0.095447 0.992210
vn -0.938508 0.301184 0.168794
vn -0.938508 0.301184 0.168794
vn -0.938508 0.301184 0.168794
vn -0.938508 0.301184 0.168794
vn 0.158124 0.071464 -0.984830
vn 0.158124 0.071464 -0.984830
vn 0.158124 0.071464 -0.984830
vn 0.158124 0.071464 -0.984830
vn -0.971551 -0.235723 -0.022897
vn -0.971551 -0.235723 -0.022897
vn -0.971551 -0.235723 -0.022897
vn -0.971551 -0.235723 -0.022897
vn -0.158124 0.071464 -0.984830
vn -0.158124 0.071464 -0.984830
vn -0.158124 0.071464 -0.984830
vn -0.158124 0.071464 -0.984830
vn 0.938508 0.301184 0.168792
vn 0.938508 0.301184 0.168792
vn 0.938508 0.301184 0.168792
vn 0.938508 0.301184 0.168792
vn 0.080052 -0.095447 0.992210
vn 0.080052 -0.095447 0.992211
vn 0.080052 -0.095447 0.992210
vn 0.080052 -0.095447 0.992211
vn 0.721872 -0.683615 -0.107571
vn 0.721872 -0.683615 -0.107571
vn 0.721872 -0.683615 -0.107571
vn 0.721872 -0.683615 -0.107571
vn -0.323479 -0.432203 0.841761
vn -0.323479 -0.432203 0.841761
vn -0.323479 -0.432203 0.841761
vn -0.323479 -0.432203 0.841761
vn -0.886507 0.415392 0.203849
vn -0.886507 0.415392 0.203849
vn -0.886507 0.415392 0.203849
vn -0.886507 0.415392 0.203849
vn 0.287763 0.349378 -0.891699
vn 0.287763 0.349378 -0.891699
vn 0.287763 0.349378 -0.891699
vn 0.287763 0.349378 -0.891699
vn -0.721870 -0.683617 -0.107571
vn -0.721870 -0.683617 -0.107571
vn -0.721870 -0.683617 -0.107571
vn -0.721870 -0.683617 -0.107571
vn -0.287761 0.349377 -0.891700
vn -0.287761 0.349377 -0.891700
vn -0.287761 0.349377 -0.891700
vn -0.287761 0.349377 -0.891700
vn 0.886509 0.415392 0.203845
vn 0.886508 0.415392 0.203845
vn 0.886508 0.415392 0.203845
vn 0.886508 0.415392 0.203845
vn 0.323476 -0.432201 0.841764
vn 0.323476 -0.432201 0.841764
vn 0.323476 -0.432201 0.841764
vn 0.323476 -0.432201 0.841764
vn 0.116448 0.689215 0.715139
vn 0.116448 0.689215 0.715139
vn 0.116448 0.689215 0.715139
vn 0.274180 0.802254 0.530296
vn 0.274180 0.802254 0.530296
vn 0.274180 0.802254 0.530296
s off
f 22/1/1 23/2/2 6/3/3 5/4/4
f 23/2/5 24/5/6 7/6/7 6/3/8
f 24/5/9 25/7/10 8/8/11 7/6/12
f 25/7/13 26/9/14 9/10/15 8/8/16
f 26/9/17 22/1/18 5/4/19 9/10/20
f 28/11/21 27/12/22 29/13/23
f 30/14/24 28/11/25 29/13/26
f 3/15/27 2/16/28 10/17/29
f 4/18/30 3/15/31 10/17/32
f 1/19/33 4/18/34 10/17/35
f 12/20/36 13/21/37 14/22/38
f 17/23/39 21/24/40 19/25/41
f 21/24/42 20/26/43 19/25/44
f 15/27/45 16/28/46 14/22/47
f 16/28/48 12/20/49 14/22/50
f 5/4/51 6/3/52 13/21/53 12/20/54
f 6/3/55 11/29/56 14/22/57 13/21/58
f 8/8/59 9/10/60 16/28/61 15/27/62
f 11/29/63 8/8/64 15/27/65 14/22/66
f 9/10/67 5/4/68 12/20/69 16/28/70
f 6/3/71 7/6/72 18/30/73 17/23/74
f 11/29/75 6/3/76 17/23/77 19/25/78
f 7/6/79 8/8/80 20/26/81 18/30/82
f 8/8/83 11/29/84 19/25/85 20/26/86
f 17/23/87 18/30/88 21/24/89
f 18/30/90 20/26/91 21/24/92
f 28/11/93 1/19/94 27/12/95
f 2/16/96 28/11/97 30/14/98
f 2/16/99 3/15/100 25/7/101 24/5/102
f 3/15/103 4/18/104 26/9/105 25/7/106
f 4/18/107 1/19/108 22/1/109 26/9/110
f 1/19/111 10/17/112 29/13/113 27/12/114
f 10/17/115 2/16/116 30/14/117 29/13/118
f 2/16/119 24/5/120 23/2/121 28/11/122
f 23/2/123 22/1/124 1/19/125 28/11/126
f 73/31/127 74/32/128 75/33/129 76/34/130
f 77/35/131 76/34/132 75/33/133 78/36/134
f 32/37/135 31/38/136 38/39/137 37/40/138
f 31/38/139 34/41/140 39/42/141 38/39/142
f 33/43/143 32/37/144 37/40/145 40/44/146
f 36/45/147 33/43/148 40/44/149 41/46/150
f 34/41/151 35/47/152 42/48/153 39/42/154
f 35/47/155 36/45/156 41/46/157 42/48/158
f 37/40/159 38/39/160 44/49/161 43/50/162
f 38/39/163 39/42/164 45/51/165 44/49/166
f 40/44/167 37/40/168 43/50/169 46/52/170
f 41/46/171 40/44/172 46/52/173 47/53/174
f 39/42/175 42/48/176 48/54/177 45/51/178
f 42/48/179 41/46/180 47/53/181 48/54/182
f 43/50/183 44/49/184 50/55/185 49/56/186
f 44/49/187 45/51/188 141/57/189 142/58/190
f 46/52/191 43/50/192 79/59/193 80/60/194
f 47/53/195 46/52/196 52/61/197 53/62/198
f 120/63/199 119/64/200 129/65/201 130/66/202
f 48/54/203 47/53/204 53/62/205 54/67/206
f 49/56/207 50/55/208 56/68/209 55/69/210
f 142/58/211 141/57/212 143/70/213 144/71/214
f 80/60/215 79/59/216 85/72/217 86/73/218
f 89/74/219 90/75/220 97/76/221 98/77/222
f 130/66/223 129/65/224 131/78/225 132/79/226
f 54/67/227 53/62/228 59/80/229 60/81/230
f 55/69/231 56/68/232 62/82/233 61/83/234
f 144/71/235 143/70/236 145/84/237 146/85/238
f 86/73/239 85/72/240 87/86/241 88/87/242
f 98/77/243 97/76/244 99/88/245 100/89/246
f 132/79/247 131/78/248 133/90/249 134/91/250
f 60/81/251 59/80/252 65/92/253 66/93/254
f 61/83/255 62/82/256 68/94/257 67/95/258
f 62/82/259 63/96/260 69/97/261 68/94/262
f 64/98/263 61/83/264 111/99/265 112/100/266
f 100/89/267 99/88/268 101/101/269 102/102/270
f 134/91/271 133/90/272 135/103/273 136/104/274
f 66/93/275 65/92/276 71/105/277 72/106/278
f 67/95/279 68/94/280 74/32/281 73/31/282
f 68/94/283 69/97/284 75/33/285 74/32/286
f 112/100/287 111/99/288 113/107/289 114/108/290
f 71/105/291 70/109/292 76/34/293 77/35/294
f 69/97/295 72/106/296 78/36/297 75/33/298
f 72/106/299 71/105/300 77/35/301 78/36/302
f 43/50/303 49/56/304 79/59/305
f 52/61/306 46/52/307 80/60/308
f 49/56/309 55/69/310 81/110/311 79/59/312
f 58/111/313 52/61/314 80/60/315 82/112/316
f 55/69/317 61/83/318 83/113/319 81/110/320
f 61/83/321 64/98/322 84/114/323 83/113/324
f 64/98/325 58/111/326 82/112/327 84/114/328
f 79/59/329 81/110/330 85/72/331
f 82/112/332 80/60/333 86/73/334
f 81/110/335 83/113/336 87/86/337 85/72/338
f 103/115/339 104/116/340 105/117/341 106/118/342
f 84/114/343 82/112/344 86/73/345 88/87/346
f 53/62/347 52/61/348 90/75/349 89/74/350
f 52/61/351 58/111/352 91/119/353 90/75/354
f 59/80/355 53/62/356 89/74/357 92/120/358
f 58/111/359 64/98/360 93/121/361 91/119/362
f 65/92/363 59/80/364 92/120/365 94/122/366
f 64/98/367 70/109/368 95/123/369 93/121/370
f 70/109/371 71/105/372 96/124/373 95/123/374
f 71/105/375 65/92/376 94/122/377 96/124/378
f 90/75/379 91/119/380 97/76/381
f 92/120/382 89/74/383 98/77/384
f 91/119/385 93/121/386 99/88/387 97/76/388
f 94/122/389 92/120/390 98/77/391 100/89/392
f 93/121/393 95/123/394 101/101/395 99/88/396
f 108/125/397 107/126/398 109/127/399 110/128/400
f 96/124/401 94/122/402 100/89/403 102/102/404
f 83/113/405 84/114/406 104/116/407 103/115/408
f 84/114/409 88/87/410 105/117/411 104/116/412
f 88/87/413 87/86/414 106/118/415 105/117/416
f 87/86/417 83/113/418 103/115/419 106/118/420
f 95/123/421 96/124/422 107/126/423 108/125/424
f 96/124/425 102/102/426 109/127/427 107/126/428
f 102/102/429 101/101/430 110/128/431 109/127/432
f 101/101/433 95/123/434 108/125/435 110/128/436
f 61/83/437 67/95/438 111/99/439
f 70/109/440 64/98/441 112/100/442
f 67/95/443 73/31/444 113/107/445 111/99/446
f 115/129/447 116/130/448 117/131/449 118/132/450
f 76/34/451 70/109/452 112/100/453 114/108/454
f 73/31/455 76/34/456 116/130/457 115/129/458
f 76/34/459 114/108/460 117/131/461 116/130/462
f 114/108/463 113/107/464 118/132/465 117/131/466
f 113/107/467 73/31/468 115/129/469 118/132/470
f 45/51/471 48/54/472 119/64/473 120/63/474
f 48/54/475 54/67/476 121/133/477 119/64/478
f 51/134/479 45/51/480 120/63/481 122/135/482
f 54/67/483 60/81/484 123/136/485 121/133/486
f 57/137/487 51/134/488 122/135/489 124/138/490
f 60/81/491 66/93/492 125/139/493 123/136/494
f 63/96/495 57/137/496 124/138/497 126/140/498
f 66/93/499 72/106/500 127/141/501 125/139/502
f 72/106/503 69/97/504 128/142/505 127/141/506
f 69/97/507 63/96/508 126/140/509 128/142/510
f 119/64/511 121/133/512 129/65/513
f 122/135/514 120/63/515 130/66/516
f 121/133/517 123/136/518 131/78/519 129/65/520
f 124/138/521 122/135/522 130/66/523 132/79/524
f 123/136/525 125/139/526 133/90/527 131/78/528
f 126/140/529 124/138/530 132/79/531 134/91/532
f 125/139/533 127/141/534 135/103/535 133/90/536
f 137/143/537 138/144/538 139/145/539 140/146/540
f 128/142/541 126/140/542 134/91/543 136/104/544
f 127/141/545 128/142/546 138/144/547 137/143/548
f 128/142/549 136/104/550 139/145/551 138/144/552
f 136/104/553 135/103/554 140/146/555 139/145/556
f 135/103/557 127/141/558 137/143/559 140/146/560
f 45/51/561 51/134/562 141/57/563
f 50/55/564 44/49/565 142/58/566
f 51/134/567 57/137/568 143/70/569 141/57/570
f 56/68/571 50/55/572 142/58/573 144/71/574
f 57/137/575 63/96/576 145/84/577 143/70/578
f 148/147/579 147/148/580 149/149/581 150/150/582
f 62/82/583 56/68/584 144/71/585 146/85/586
f 63/96/587 62/82/588 147/148/589 148/147/590
f 62/82/591 146/85/592 149/149/593 147/148/594
f 146/85/595 145/84/596 150/150/597 149/149/598
f 145/84/599 63/96/600 148/147/601 150/150/602
f 181/151/603 198/152/604 199/153/605 182/154/606
f 313/155/607 199/153/608 166/156/609
f 197/157/610 167/158/611 164/159/612 198/152/613
f 196/160/614 169/161/615 200/162/616
f 165/163/617 171/164/618 189/165/619
f 168/166/620 190/167/621 172/168/622
f 311/169/623 313/170/624 166/171/625
f 174/172/626 172/168/627 190/167/628
f 186/173/629 161/174/630 187/175/631
f 161/174/632 162/176/633 188/177/634 187/175/635
f 162/176/636 165/178/637 189/179/638 188/177/639
f 151/180/640 169/161/641 196/160/642
f 153/181/643 170/182/644 171/164/645 154/183/646
f 152/184/647 168/166/648 172/168/649 211/185/650
f 211/185/651 172/168/652 174/172/653 212/186/654
f 212/186/655 174/172/656 175/187/657 158/188/658
f 158/188/659 175/187/660 176/189/661 159/190/662
f 159/190/663 176/189/664 177/191/665 160/192/666
f 160/193/667 177/194/668 170/182/669 153/181/670
f 179/195/671 168/166/672 152/184/673 178/196/674
f 168/166/675 179/195/676 191/197/677 190/167/678
f 180/198/679 161/174/680 186/173/681
f 202/199/682 205/200/683 204/201/684 203/202/685
f 203/202/686 204/201/687 207/203/688 206/204/689
f 206/205/690 207/206/691 209/207/692 208/208/693
f 190/167/694 191/197/695 192/209/696
f 192/209/697 193/210/698 201/211/699
f 194/212/700 176/189/701 175/187/702 193/210/703
f 195/213/704 177/191/705 176/189/706 194/212/707
f 195/214/708 170/182/709 177/194/710
f 171/164/711 170/182/712 195/214/713
f 186/173/714 192/209/715 191/197/716 180/198/717
f 187/175/718 193/210/719 192/209/720 186/173/721
f 188/177/722 194/212/723 193/210/724 187/175/725
f 189/179/726 195/213/727 194/212/728 188/177/729
f 171/164/730 195/214/731 189/165/732
f 318/215/733 319/216/734 320/217/735 321/218/736
f 179/195/737 200/162/738 191/219/739
f 210/220/740 197/157/741 205/200/742
f 199/153/743 163/221/744 166/156/745
f 198/152/746 164/159/747 163/221/748 199/153/749
f 197/157/750 200/162/751 167/158/752
f 167/158/753 200/162/754 169/161/755
f 180/198/756 191/219/757 200/162/758 197/157/759
f 201/211/760 175/187/761 174/172/762
f 190/167/763 192/209/764 201/211/765
f 193/210/766 175/187/767 201/211/768
f 190/167/769 201/211/770 174/172/771
f 210/220/772 205/200/773 202/199/774
f 197/157/775 198/152/776 181/151/777
f 161/174/778 202/199/779 203/202/780 162/176/781
f 182/154/782 204/201/783 205/200/784 181/151/785
f 162/176/786 203/202/787 206/204/788 165/178/789
f 183/222/790 207/203/791 204/201/792 182/154/793
f 165/163/794 206/205/795 208/208/796 171/164/797
f 184/223/798 209/207/799 207/206/800 183/224/801
f 181/151/802 205/200/803 197/157/804
f 197/157/805 210/220/806 180/198/807
f 180/198/808 210/220/809 202/199/810 161/174/811
f 152/184/812 211/185/813 155/225/814
f 157/226/815 212/186/816 158/188/817
f 218/227/818 213/228/819 157/226/820
f 157/226/821 213/228/822 215/229/823 212/186/824
f 212/186/825 217/230/826 211/185/827
f 211/185/828 216/231/829 214/232/830 155/225/831
f 217/230/832 216/231/833 211/185/834
f 212/186/835 215/229/836 217/230/837
f 155/225/838 214/232/839 218/227/840 157/226/841
f 151/180/842 220/233/843 219/234/844 178/196/845
f 178/196/846 219/234/847 179/195/848
f 179/195/849 221/235/850 196/160/851
f 196/160/852 221/235/853 220/233/854 151/180/855
f 220/233/856 223/236/857 219/234/858
f 219/234/859 222/237/860 224/238/861 179/195/862
f 179/195/863 225/239/864 221/235/865
f 221/235/866 223/236/867 220/233/868
f 227/240/869 226/241/870 222/237/871
f 222/237/872 226/241/873 228/242/874 224/238/875
f 224/238/876 228/242/877 229/243/878 225/239/879
f 225/239/880 229/243/881 227/240/882 223/236/883
f 227/240/884 231/244/885 230/245/886 226/241/887
f 226/241/888 230/245/889 232/246/890 228/242/891
f 228/242/892 232/246/893 233/247/894 229/243/895
f 229/243/896 233/247/897 231/244/898 227/240/899
f 223/236/900 222/237/901 219/234/902
f 223/236/903 227/240/904 222/237/905
f 221/235/906 225/239/907 223/236/908
f 179/195/909 224/238/910 225/239/911
f 256/248/912 257/249/913 274/250/914 273/251/915
f 257/249/916 258/252/917 312/253/918 274/250/919
f 272/254/920 273/251/921 164/255/922 167/256/923
f 271/257/924 275/258/925 169/259/926
f 244/260/927 264/261/928 247/262/929
f 245/263/930 248/264/931 265/265/932
f 258/266/933 259/267/934 310/268/935 312/269/936
f 249/270/937 265/265/938 248/264/939
f 261/271/940 262/272/941 242/273/942
f 242/273/943 262/272/944 263/274/945 243/275/946
f 243/275/947 263/274/948 264/276/949 244/277/950
f 151/278/951 271/257/952 169/259/953
f 235/279/954 236/280/955 247/262/956 246/281/957
f 234/282/958 286/283/959 248/264/960 245/263/961
f 286/283/962 287/284/963 249/270/964 248/264/965
f 287/284/966 239/285/967 250/286/968 249/270/969
f 239/285/970 240/287/971 251/288/972 250/286/973
f 240/287/974 241/289/975 252/290/976 251/288/977
f 241/291/978 235/279/979 246/281/980 252/292/981
f 254/293/982 253/294/983 234/282/984 245/263/985
f 245/263/986 265/265/987 266/295/988 254/293/989
f 255/296/990 261/271/991 242/273/992
f 277/297/993 278/298/994 279/299/995 280/300/996
f 278/298/997 281/301/998 282/302/999 279/299/1000
f 281/303/1001 283/304/1002 284/305/1003 282/306/1004
f 265/265/1005 267/307/1006 266/295/1007
f 267/307/1008 276/308/1009 268/309/1010
f 269/310/1011 268/309/1012 250/286/1013 251/288/1014
f 270/311/1015 269/310/1016 251/288/1017 252/290/1018
f 270/312/1019 252/292/1020 246/281/1021
f 247/262/1022 270/312/1023 246/281/1024
f 261/271/1025 255/296/1026 266/295/1027 267/307/1028
f 262/272/1029 261/271/1030 267/307/1031 268/309/1032
f 263/274/1033 262/272/1034 268/309/1035 269/310/1036
f 264/276/1037 263/274/1038 269/310/1039 270/311/1040
f 247/262/1041 264/261/1042 270/312/1043
f 330/313/1044 331/314/1045 332/315/1046 333/316/1047
f 254/293/1048 275/258/1049 271/257/1050
f 285/318/1051 280/300/1052 272/254/1053
f 274/250/1054 166/319/1055 163/320/1056
f 273/251/1057 274/250/1058 163/320/1059 164/255/1060
f 272/254/1061 167/256/1062 275/258/1063
f 167/256/1064 169/259/1065 275/258/1066
f 255/296/1067 272/254/1068 275/258/1069 266/317/1070
f 276/308/1071 249/270/1072 250/286/1073
f 265/265/1074 276/308/1075 267/307/1076
f 268/309/1077 276/308/1078 250/286/1079
f 265/265/1080 249/270/1081 276/308/1082
f 285/318/1083 277/297/1084 280/300/1085
f 272/254/1086 256/248/1087 273/251/1088
f 242/273/1089 243/275/1090 278/298/1091 277/297/1092
f 257/249/1093 256/248/1094 280/300/1095 279/299/1096
f 243/275/1097 244/277/1098 281/301/1099 278/298/1100
f 258/252/1101 257/249/1102 279/299/1103 282/302/1104
f 244/260/1105 247/262/1106 283/304/1107 281/303/1108
f 259/267/1109 258/266/1110 282/306/1111 284/305/1112
f 256/248/1113 272/254/1114 280/300/1115
f 272/254/1116 255/296/1117 285/318/1118
f 255/296/1119 242/273/1120 277/297/1121 285/318/1122
f 234/282/1123 237/321/1124 286/283/1125
f 238/322/1126 239/285/1127 287/284/1128
f 293/323/1129 238/322/1130 288/324/1131
f 238/322/1132 287/284/1133 290/325/1134 288/324/1135
f 287/284/1136 286/283/1137 292/326/1138
f 286/283/1139 237/321/1140 289/327/1141 291/328/1142
f 292/326/1143 286/283/1144 291/328/1145
f 287/284/1146 292/326/1147 290/325/1148
f 237/321/1149 238/322/1150 293/323/1151 289/327/1152
f 151/278/1153 253/294/1154 294/329/1155 295/330/1156
f 253/294/1157 254/293/1158 294/329/1159
f 254/293/1160 271/257/1161 296/331/1162
f 271/257/1163 151/278/1164 295/330/1165 296/331/1166
f 295/330/1167 294/329/1168 298/332/1169
f 294/329/1170 254/293/1171 299/333/1172 297/334/1173
f 254/293/1174 296/331/1175 300/335/1176
f 296/331/1177 295/330/1178 298/332/1179
f 302/336/1180 297/334/1181 301/337/1182
f 297/334/1183 299/333/1184 303/338/1185 301/337/1186
f 299/333/1187 300/335/1188 304/339/1189 303/338/1190
f 300/335/1191 298/332/1192 302/336/1193 304/339/1194
f 302/336/1195 301/337/1196 305/340/1197 306/341/1198
f 301/337/1199 303/338/1200 307/342/1201 305/340/1202
f 303/338/1203 304/339/1204 308/343/1205 307/342/1206
f 304/339/1207 302/336/1208 306/341/1209 308/343/1210
f 298/332/1211 294/329/1212 297/334/1213
f 298/332/1214 297/334/1215 302/336/1216
f 296/331/1217 298/332/1218 300/335/1219
f 254/293/1220 300/335/1221 299/333/1222
f 151/344/1223 178/345/1224 309/346/1225
f 153/347/1226 154/348/1227 309/349/1228
f 152/350/1229 155/351/1230 309/352/1231
f 185/353/1232 156/354/1233 309/355/1234
f 155/351/1235 157/356/1236 309/352/1237
f 157/356/1238 158/357/1239 309/352/1240
f 158/357/1241 159/358/1242 309/352/1243
f 159/358/1244 160/359/1245 309/352/1246
f 160/360/1247 153/347/1248 309/349/1249
f 178/345/1250 152/350/1251 309/352/1252
f 154/348/1253 185/353/1254 309/355/1255
f 253/361/1256 151/362/1257 309/363/1258
f 236/364/1259 235/365/1260 309/366/1261
f 237/367/1262 234/368/1263 309/363/1264
f 156/369/1265 260/370/1266 309/366/1267
f 238/371/1268 237/367/1269 309/363/1270
f 239/372/1271 238/371/1272 309/363/1273
f 240/373/1274 239/372/1275 309/363/1276
f 241/374/1277 240/373/1278 309/363/1279
f 235/365/1280 241/375/1281 309/366/1282
f 234/368/1283 253/361/1284 309/363/1285
f 260/370/1286 236/364/1287 309/366/1288
f 375/376/1289 374/377/1290 376/378/1291 377/379/1292
f 293/323/1293 292/326/1294 291/328/1295 289/327/1296
f 379/380/1297 378/381/1298 380/382/1299 381/383/1300
f 217/230/1301 218/227/1302 214/232/1303 216/231/1304
f 346/384/1305 347/385/1306 348/386/1307 349/387/1308
f 339/388/1309 338/389/1310 340/390/1311 341/391/1312
f 156/354/1313 173/392/1314 310/268/1315
f 166/393/1316 310/268/1317 173/392/1318
f 311/169/1319 166/171/1320 173/394/1321
f 156/354/1322 311/395/1323 173/392/1324
f 312/269/1325 310/268/1326 166/393/1327
f 274/250/1328 312/253/1329 166/319/1330
f 183/224/1331 313/170/1332 311/169/1333 184/223/1334
f 182/154/1335 199/153/1336 313/155/1337 183/222/1338
f 231/244/1339 233/247/1340 315/396/1341 314/397/1342
f 233/247/1343 232/246/1344 316/398/1345 315/396/1346
f 232/246/1347 230/245/1348 317/399/1349 316/398/1350
f 230/245/1351 231/244/1352 314/397/1353 317/399/1354
f 314/397/1355 315/396/1356 319/216/1357 318/215/1358
f 315/396/1359 316/398/1360 320/217/1361 319/216/1362
f 316/398/1363 317/399/1364 321/218/1365 320/217/1366
f 317/399/1367 314/397/1368 318/215/1369 321/218/1370
f 306/341/1371 305/340/1372 323/400/1373 322/401/1374
f 305/340/1375 307/342/1376 324/402/1377 323/400/1378
f 307/342/1379 308/343/1380 325/403/1381 324/402/1382
f 308/343/1383 306/341/1384 322/401/1385 325/403/1386
f 322/401/1387 323/400/1388 327/404/1389 326/405/1390
f 323/400/1391 324/402/1392 328/406/1393 327/404/1394
f 324/402/1395 325/403/1396 329/407/1397 328/406/1398
f 325/403/1399 322/401/1400 326/405/1401 329/407/1402
f 326/405/1403 327/404/1404 331/314/1405 330/313/1406
f 327/404/1407 328/406/1408 332/315/1409 331/314/1410
f 328/406/1411 329/407/1412 333/316/1413 332/315/1414
f 329/407/1415 326/405/1416 330/313/1417 333/316/1418
f 184/223/1419 171/164/1420 208/208/1421 209/207/1422
f 355/408/1423 354/409/1424 356/410/1425 357/411/1426
f 363/412/1427 362/413/1428 364/414/1429 365/415/1430
f 247/262/1431 259/267/1432 284/305/1433 283/304/1434
f 184/223/1435 311/395/1436 334/416/1437 335/417/1438
f 311/395/1439 156/354/1440 336/418/1441 334/416/1442
f 156/354/1443 185/353/1444 337/419/1445 336/418/1446
f 185/353/1447 184/223/1448 335/417/1449 337/419/1450
f 335/417/1451 334/416/1452 338/389/1453 339/388/1454
f 334/416/1455 336/418/1456 340/390/1457 338/389/1458
f 336/418/1459 337/419/1460 341/391/1461 340/390/1462
f 337/419/1463 335/417/1464 339/388/1465 341/391/1466
f 156/354/1467 310/268/1468 343/420/1469 342/421/1470
f 310/268/1471 259/267/1472 344/422/1473 343/420/1474
f 259/267/1475 260/370/1476 345/423/1477 344/422/1478
f 260/370/1479 156/354/1480 342/421/1481 345/423/1482
f 342/421/1483 343/420/1484 347/385/1485 346/384/1486
f 343/420/1487 344/422/1488 348/386/1489 347/385/1490
f 344/422/1491 345/423/1492 349/387/1493 348/386/1494
f 345/423/1495 342/421/1496 346/384/1497 349/387/1498
f 247/262/1499 236/364/1500 350/424/1501 351/425/1502
f 236/364/1503 260/370/1504 352/426/1505 350/424/1506
f 260/370/1507 259/267/1508 353/427/1509 352/426/1510
f 259/267/1511 247/262/1512 351/425/1513 353/427/1514
f 351/425/1515 350/424/1516 354/409/1517 355/408/1518
f 350/424/1519 352/426/1520 356/410/1521 354/409/1522
f 352/426/1523 353/427/1524 357/411/1525 356/410/1526
f 353/427/1527 351/425/1528 355/408/1529 357/411/1530
f 154/183/1531 171/164/1532 358/428/1533 359/429/1534
f 171/164/1535 184/223/1536 360/430/1537 358/428/1538
f 184/223/1539 185/353/1540 361/431/1541 360/430/1542
f 185/353/1543 154/183/1544 359/429/1545 361/431/1546
f 359/429/1547 358/428/1548 362/413/1549 363/412/1550
f 358/428/1551 360/430/1552 364/414/1553 362/413/1554
f 360/430/1555 361/431/1556 365/415/1557 364/414/1558
f 361/431/1559 359/429/1560 363/412/1561 365/415/1562
f 213/228/1563 218/227/1564 366/432/1565 367/433/1566
f 218/227/1567 217/230/1568 368/434/1569 366/432/1570
f 217/230/1571 215/229/1572 369/435/1573 368/434/1574
f 215/229/1575 213/228/1576 367/433/1577 369/435/1578
f 293/323/1579 288/324/1580 370/436/1581 371/437/1582
f 288/324/1583 290/325/1584 372/438/1585 370/436/1586
f 290/325/1587 292/326/1588 373/439/1589 372/438/1590
f 292/326/1591 293/323/1592 371/437/1593 373/439/1594
f 367/433/1595 366/432/1596 374/377/1597 375/376/1598
f 366/432/1599 368/434/1600 376/378/1601 374/377/1602
f 368/434/1603 369/435/1604 377/379/1605 376/378/1606
f 369/435/1607 367/433/1608 375/376/1609 377/379/1610
f 371/437/1611 370/436/1612 378/381/1613 379/380/1614
f 370/436/1615 372/438/1616 380/382/1617 378/381/1618
f 372/438/1619 373/439/1620 381/383/1621 380/382/1622
f 373/439/1623 371/437/1624 379/380/1625 381/383/1626
f 179/195/1627 196/160/1628 200/162/1629
f 254/293/1630 266/317/1631 275/258/1632
