# This file uses centimeters as units for non-parametric coordinates.

v 7.441856 110.614502 9.057152
v 8.355881 108.387207 5.310585
v 9.539726 107.690308 -2.412199
v 9.360786 106.689941 0.922781
v 9.591949 105.774048 -3.484558
v 9.565979 100.800415 -1.589872
v 9.198898 103.796265 1.227745
v 8.075142 103.203369 6.122215
v 0.094935 109.636963 -12.291885
v -0.180261 117.029053 -4.684532
v -0.516202 100.986084 -11.928497
v 0.147482 117.336426 5.701801
v 0.000006 113.441284 10.065598
v 9.170998 115.122070 -3.857582
v 9.914932 108.147583 -9.237923
v 9.387405 102.466797 -8.777855
v 10.043808 114.056885 5.159088
v 7.812393 111.650269 8.572266
v 9.089111 108.366455 4.907784
v 10.174873 107.284058 1.242025
v 10.338760 108.419678 -2.656120
v 10.386215 106.322144 -4.063808
v 10.426201 101.670044 -2.439953
v 8.869987 104.064941 5.049435
v 10.016708 104.610962 1.697861
v -7.441841 110.614502 9.057152
v -8.355865 108.387207 5.310585
v -9.539711 107.690308 -2.412199
v -9.360771 106.689941 0.922781
v -9.591934 105.774048 -3.484558
v -9.565666 100.800415 -1.589872
v -9.198883 103.796265 1.227745
v -8.075127 103.203369 6.122215
v -9.044487 115.256348 -3.812706
v -9.914917 108.147583 -9.237923
v -9.387390 102.466797 -8.777855
v -9.945419 113.799072 5.159088
v -7.812378 111.650269 8.572266
v -9.089096 108.366455 4.907784
v -10.174858 107.284058 1.242025
v -10.338745 108.419678 -2.656120
v -10.386200 106.322144 -4.063808
v -10.425888 101.670044 -2.439953
v -8.869972 104.064941 5.049435
v -10.016693 104.610962 1.697861
v -0.067215 96.260132 -6.389816
v -0.067215 96.697632 -7.965576
v 9.039337 100.414307 -6.095222
v 8.768158 99.719360 -3.822521
v -8.768143 99.719360 -3.822521
v -9.039322 100.414307 -6.095222
v 7.559578 99.026001 -6.703667
v 6.691360 98.458252 -5.199615
v -7.873856 99.508301 -6.903633
v -7.088852 98.960693 -5.613556
v -3.819614 113.032349 8.327995
v -1.863325 117.366577 3.812019
v -2.239025 117.526611 -5.936523
v -1.159144 109.339111 -11.967438
v 1.349015 109.339111 -11.967438
v 1.950562 117.578125 -5.764343
v 2.929281 116.242798 3.291607
v 1.562483 113.047974 9.389664
v -1.918907 111.686279 9.780312
v 1.918919 111.686279 9.780312
v 0.000006 110.720947 10.245163
v 0.000006 111.702393 10.456459
v -4.796280 116.177856 -4.280216
v -4.498714 116.866821 5.361984
v -3.960617 111.785522 8.747383
v -2.512581 98.303833 -5.527241
v -2.551931 98.985474 -7.587547
v -3.315460 101.776978 -9.295013
v -3.433178 108.326172 -11.419273
v -6.245476 115.942261 -5.702446
v -7.468239 115.140503 0.278618
v -6.072334 112.039307 8.799828
v -6.027740 110.891479 9.242661
v 3.960632 111.785522 8.747383
v 3.451801 113.114624 8.376106
v 4.482658 115.300659 5.380680
v 6.027756 110.891479 9.242661
v 6.159248 112.020020 8.788460
v 7.726807 115.511963 3.563271
v 5.981850 116.031860 -5.871590
v 3.949974 108.625366 -10.987473
v 2.868534 101.505371 -8.900299
v 1.928591 98.350830 -7.037445
v 1.482145 97.817505 -5.514416
v -8.161766 109.442017 7.295242
v -8.702972 109.997925 6.929611
v -9.634727 110.635498 5.245495
v -10.546951 110.556030 3.312893
v -10.801247 110.924438 -3.153969
v -9.386002 110.673340 -7.216255
v 8.162430 109.440918 7.293625
v 8.739548 109.930176 6.862160
v 10.023476 110.521606 5.251270
v 10.315544 110.465820 3.198883
v 10.523117 111.343628 -3.210823
v 9.398880 110.474609 -7.441170
v 3.881935 116.456177 -4.726902
v 10.681786 104.005981 -3.454601
v 9.039261 104.762573 -9.045441
v -9.842064 103.376465 -2.026215
v -10.688652 104.086914 -3.475666
v -9.074081 105.115479 -9.070229
v 9.874756 103.741211 -2.147282
v -6.606667 113.765991 6.797340
v -0.193049 119.283813 7.284836
v -0.459310 115.606689 10.896164
v -2.762775 118.918945 6.332649
v -3.639843 115.089600 9.514557
v -0.357659 112.987549 11.012718
v -1.113811 119.192261 -1.318665
v 0.176830 119.172974 -0.105657
v -1.617477 120.941284 -0.122634
v -0.326836 120.921997 1.090374
v -1.246205 119.658203 -4.603458
v -0.429880 119.646118 -3.836308
v -1.564684 120.595337 -3.940430
v -0.748442 120.583252 -3.173279
v 3.175949 117.701172 3.422588
v 1.931952 114.585327 8.997223
v 0.877157 118.303467 5.449749
v 0.620242 114.900757 9.551178
v 0.505720 112.985352 10.360413
v 2.811563 117.821777 0.178769
v 1.384757 118.166992 0.861556
v 1.626507 119.135620 0.723723
v 2.810987 118.827881 0.147147
v 2.647116 118.369141 -2.503538
v 1.823168 118.568481 -2.109245
v 1.962776 119.127930 -2.188845
v 2.646786 118.949951 -2.521801
v 11.097443 111.770752 3.198883
v 11.320595 112.648560 -3.210823
v 10.112251 111.779541 -7.441170
v -11.325409 111.860962 3.312893
v -11.598709 112.229614 -3.153969
v -10.077553 111.978271 -7.216255
v -0.043042 105.668457 2.034395
vt 0.049735 0.197968
vt 0.049735 0.197968
vt 0.049735 0.197968
vt 0.049735 0.197968
vt 0.049735 0.197968
vt 0.049735 0.197968
vt 0.049735 0.197968
vt 0.049735 0.197968
vt 0.049735 0.197968
vt 0.049735 0.197968
vt 0.049735 0.197968
vt 0.049735 0.197968
vt 0.049735 0.197968
vt 0.049735 0.197968
vt 0.049735 0.197968
vt 0.049735 0.197968
vt 0.049735 0.197968
vt 0.049735 0.197968
vt 0.049735 0.197968
vt 0.049735 0.197968
vt 0.049735 0.197968
vt 0.049735 0.197968
vt 0.049735 0.197968
vt 0.049735 0.197968
vt 0.049735 0.197968
vt 0.049735 0.197968
vt 0.049735 0.197968
vt 0.049735 0.197968
vt 0.049735 0.197968
vt 0.049735 0.197968
vt 0.049735 0.197968
vt 0.049735 0.197968
vt 0.049735 0.197968
vt 0.049735 0.197968
vt 0.049735 0.197968
vt 0.049735 0.197968
vt 0.049735 0.197968
vt 0.049735 0.197968
vt 0.049735 0.197968
vt 0.049735 0.197968
vt 0.049735 0.197968
vt 0.049735 0.197968
vt 0.049735 0.197968
vt 0.049735 0.197968
vt 0.049735 0.197968
vt 0.049735 0.197968
vt 0.049735 0.197968
vt 0.049735 0.197968
vt 0.049735 0.197968
vt 0.049735 0.197968
vt 0.049735 0.197968
vt 0.049735 0.197968
vt 0.049735 0.197968
vt 0.049735 0.197968
vt 0.049735 0.197968
vt 0.049735 0.197968
vt 0.049735 0.197968
vt 0.049735 0.197968
vt 0.049735 0.197968
vt 0.049735 0.197968
vt 0.049735 0.197968
vt 0.049735 0.197968
vt 0.049735 0.197968
vt 0.049735 0.197968
vt 0.049735 0.197968
vt 0.049735 0.197968
vt 0.049735 0.197968
vt 0.049735 0.197968
vt 0.049735 0.197968
vt 0.049735 0.197968
vt 0.049735 0.197968
vt 0.049735 0.197968
vt 0.049735 0.197968
vt 0.049735 0.197968
vt 0.049735 0.197968
vt 0.049735 0.197968
vt 0.049735 0.197968
vt 0.049735 0.197968
vt 0.049735 0.197968
vt 0.049735 0.197968
vt 0.049735 0.197968
vt 0.049735 0.197968
vt 0.049735 0.197968
vt 0.049735 0.197968
vt 0.049735 0.197968
vt 0.049735 0.197968
vt 0.049735 0.197968
vt 0.049735 0.197968
vt 0.049735 0.197968
vt 0.049735 0.197968
vt 0.049735 0.197968
vt 0.049735 0.197968
vt 0.049735 0.197968
vt 0.049735 0.197968
vt 0.049735 0.197968
vt 0.049735 0.197968
vt 0.049735 0.197968
vt 0.049735 0.197968
vt 0.049735 0.197968
vt 0.049735 0.197968
vt 0.049735 0.197968
vt 0.049735 0.197968
vt 0.049735 0.197968
vt 0.049735 0.197968
vt 0.049735 0.197968
vt 0.049735 0.197968
vt 0.049735 0.197968
vt 0.049735 0.197968
vt 0.049735 0.197968
vt 0.049735 0.197968
vt 0.049735 0.197968
vt 0.049735 0.197968
vt 0.049735 0.197968
vt 0.049735 0.197968
vt 0.049735 0.197968
vt 0.049735 0.197968
vt 0.049735 0.197968
vt 0.049735 0.197968
vt 0.049735 0.197968
vt 0.049735 0.197968
vt 0.049735 0.197968
vt 0.049735 0.197968
vt 0.049735 0.197968
vt 0.049735 0.197968
vt 0.049735 0.197968
vt 0.049735 0.197968
vt 0.049735 0.197968
vt 0.049735 0.197968
vt 0.049735 0.197968
vt 0.049735 0.197968
vt 0.049735 0.197968
vt 0.049735 0.197968
vt 0.049735 0.197968
vt 0.049735 0.197968
vt 0.049735 0.197968
vt 0.049735 0.197968
vt 0.049735 0.197968
vt 0.049735 0.197968
vt 0.049735 0.197968
vt 0.049735 0.197968
vt 0.049735 0.197968
vt 0.049735 0.197968
vt 0.049735 0.197968
vt 0.049735 0.197968
vt 0.049735 0.197968
vt 0.049735 0.197968
vt 0.049735 0.197968
vt 0.049735 0.197968
vt 0.049735 0.197968
vt 0.049735 0.197968
vt 0.049735 0.197968
vt 0.049735 0.197968
vt 0.049735 0.197968
vt 0.049735 0.197968
vt 0.049735 0.197968
vt 0.049735 0.197968
vt 0.049735 0.197968
vt 0.049735 0.197968
vt 0.049735 0.197968
vt 0.049735 0.197968
vt 0.049735 0.197968
vt 0.049735 0.197968
vt 0.049735 0.197968
vt 0.049735 0.197968
vt 0.049735 0.197968
vt 0.049735 0.197968
vt 0.049735 0.197968
vt 0.049735 0.197968
vt 0.049735 0.197968
vt 0.049735 0.197968
vt 0.049735 0.197968
vt 0.049735 0.197968
vt 0.049735 0.197968
vt 0.049735 0.197968
vt 0.049735 0.197968
vt 0.049735 0.197968
vt 0.049735 0.197968
vt 0.049735 0.197968
vt 0.049735 0.197968
vt 0.049735 0.197968
vt 0.049735 0.197968
vt 0.049735 0.197968
vt 0.049735 0.197968
vt 0.049735 0.197968
vt 0.049735 0.197968
vt 0.049735 0.197968
vt 0.049735 0.197968
vt 0.049735 0.197968
vt 0.049735 0.197968
vt 0.049735 0.197968
vt 0.049735 0.197968
vt 0.049735 0.197968
vt 0.049735 0.197968
vt 0.049735 0.197968
vt 0.049735 0.197968
vt 0.049735 0.197968
vt 0.049735 0.197968
vt 0.049735 0.197968
vt 0.049735 0.197968
vt 0.049735 0.197968
vt 0.049735 0.197968
vt 0.049735 0.197968
vt 0.049735 0.197968
vt 0.049735 0.197968
vt 0.049735 0.197968
vt 0.049735 0.197968
vt 0.049735 0.197968
vt 0.049735 0.197968
vt 0.049735 0.197968
vt 0.049735 0.197968
vt 0.049735 0.197968
vt 0.049735 0.197968
vt 0.049735 0.197968
vt 0.049735 0.197968
vt 0.049735 0.197968
vt 0.049735 0.197968
vt 0.049735 0.197968
vt 0.049735 0.197968
vt 0.049735 0.197968
vt 0.049735 0.197968
vt 0.049735 0.197968
vt 0.049735 0.197968
vt 0.049735 0.197968
vt 0.049735 0.197968
vt 0.049735 0.197968
vt 0.049735 0.197968
vt 0.049735 0.197968
vt 0.049735 0.197968
vt 0.049735 0.197968
vt 0.049735 0.197968
vt 0.049735 0.197968
vt 0.049735 0.197968
vt 0.049735 0.197968
vt 0.049735 0.197968
vt 0.049735 0.197968
vt 0.049735 0.197968
vt 0.049735 0.197968
vt 0.049735 0.197968
vt 0.049735 0.197968
vt 0.049735 0.197968
vt 0.049735 0.197968
vt 0.049735 0.197968
vt 0.049735 0.197968
vt 0.049735 0.197968
vt 0.049735 0.197968
vt 0.049735 0.197968
vt 0.049735 0.197968
vt 0.049735 0.197968
vt 0.049735 0.197968
vt 0.049735 0.197968
vt 0.049735 0.197968
vt 0.049735 0.197968
vt 0.049735 0.197968
vt 0.049735 0.197968
vt 0.049735 0.197968
vt 0.049735 0.197968
vt 0.049735 0.197968
vt 0.049735 0.197968
vt 0.049735 0.197968
vt 0.049735 0.197968
vt 0.049735 0.197968
vt 0.049735 0.197968
vt 0.049735 0.197968
vt 0.049735 0.197968
vt 0.049735 0.197968
vt 0.049735 0.197968
vt 0.049735 0.197968
vt 0.049735 0.197968
vt 0.049735 0.197968
vt 0.049735 0.197968
vt 0.049735 0.197968
vn 0.429330 0.899026 0.086182
vn 0.429330 0.899026 0.086182
vn 0.429330 0.899026 0.086182
vn 0.827289 -0.029954 0.560978
vn 0.827289 -0.029954 0.560978
vn 0.827289 -0.029954 0.560978
vn 0.827289 -0.029954 0.560978
vn 0.884221 0.007093 0.467016
vn 0.884221 0.007093 0.467016
vn 0.884221 0.007093 0.467016
vn 0.833487 0.551470 0.034356
vn 0.833487 0.551470 0.034356
vn 0.833487 0.551470 0.034356
vn 0.833487 0.551470 0.034356
vn 0.753280 0.567867 -0.331807
vn 0.753280 0.567867 -0.331807
vn 0.753280 0.567867 -0.331807
vn 0.960649 -0.185799 -0.206477
vn 0.960649 -0.185799 -0.206477
vn 0.960649 -0.185799 -0.206477
vn 0.960649 -0.185799 -0.206477
vn 0.991645 -0.039026 0.122954
vn 0.991645 -0.039026 0.122954
vn 0.991645 -0.039026 0.122954
vn 0.991645 -0.039026 0.122954
vn 0.416844 0.369240 0.830604
vn 0.416844 0.369240 0.830604
vn 0.416844 0.369240 0.830604
vn 0.416844 0.369240 0.830604
vn 0.819969 -0.183823 0.542088
vn 0.819969 -0.183823 0.542088
vn 0.819969 -0.183823 0.542088
vn 0.819969 -0.183823 0.542088
vn 0.636357 -0.759662 -0.134030
vn 0.636357 -0.759662 -0.134030
vn 0.636357 -0.759662 -0.134030
vn 0.636357 -0.759662 -0.134030
vn 0.672572 -0.471101 0.570710
vn 0.672572 -0.471101 0.570710
vn 0.672572 -0.471101 0.570710
vn 0.672572 -0.471101 0.570710
vn 0.850085 -0.525553 0.033895
vn 0.850086 -0.525553 0.033895
vn 0.850086 -0.525553 0.033895
vn 0.850086 -0.525553 0.033895
vn 0.763750 0.027271 0.644936
vn 0.763750 0.027271 0.644936
vn 0.763750 0.027271 0.644936
vn 0.763750 0.027271 0.644936
vn 0.712019 -0.701964 -0.016613
vn 0.712019 -0.701964 -0.016613
vn 0.712019 -0.701964 -0.016613
vn 0.712019 -0.701964 -0.016613
vn 0.664037 0.038159 0.746725
vn 0.664037 0.038159 0.746725
vn 0.664037 0.038159 0.746725
vn 0.664037 0.038159 0.746725
vn 0.545083 -0.156480 -0.823650
vn 0.545083 -0.156480 -0.823650
vn 0.545083 -0.156480 -0.823650
vn 0.545083 -0.156480 -0.823650
vn -0.637526 0.400639 -0.658065
vn -0.637526 0.400639 -0.658065
vn -0.637526 0.400639 -0.658065
vn -0.221335 0.973179 -0.062717
vn -0.221335 0.973179 -0.062717
vn -0.221335 0.973179 -0.062717
vn 0.309636 0.615450 0.724809
vn 0.309636 0.615450 0.724809
vn 0.309636 0.615450 0.724808
vn -0.876112 -0.007026 0.482056
vn -0.876113 -0.007026 0.482056
vn -0.876113 -0.007026 0.482056
vn -0.949644 -0.194644 0.245541
vn -0.949644 -0.194644 0.245541
vn -0.949644 -0.194644 0.245541
vn -0.949644 -0.194644 0.245541
vn -0.974821 -0.221470 0.025976
vn -0.974821 -0.221470 0.025976
vn -0.974821 -0.221470 0.025976
vn -0.974821 -0.221470 0.025976
vn -0.985884 0.084191 -0.144722
vn -0.985884 0.084191 -0.144722
vn -0.985884 0.084191 -0.144722
vn -0.985884 0.084191 -0.144722
vn -0.985884 0.084191 -0.144722
vn -0.984059 -0.047830 -0.171292
vn -0.984058 -0.047830 -0.171292
vn -0.984059 -0.047830 -0.171292
vn -0.984059 -0.047830 -0.171292
vn -0.991645 -0.039026 0.122953
vn -0.991645 -0.039026 0.122953
vn -0.991645 -0.039026 0.122953
vn -0.991645 -0.039026 0.122953
vn -0.575936 -0.809825 -0.111719
vn -0.575936 -0.809825 -0.111719
vn -0.575936 -0.809825 -0.111719
vn -0.575936 -0.809825 -0.111719
vn -0.580292 -0.466818 0.667340
vn -0.580292 -0.466818 0.667340
vn -0.580292 -0.466818 0.667340
vn -0.580292 -0.466818 0.667340
vn -0.636357 -0.759662 -0.134030
vn -0.636357 -0.759662 -0.134030
vn -0.636357 -0.759662 -0.134030
vn -0.636357 -0.759662 -0.134030
vn -0.672572 -0.471102 0.570710
vn -0.672572 -0.471102 0.570710
vn -0.672572 -0.471102 0.570710
vn -0.672572 -0.471102 0.570710
vn -0.850086 -0.525553 0.033895
vn -0.850086 -0.525553 0.033895
vn -0.850086 -0.525553 0.033895
vn -0.850086 -0.525553 0.033895
vn -0.712141 0.231005 0.662942
vn -0.712141 0.231005 0.662942
vn -0.712141 0.231005 0.662942
vn -0.712141 0.231005 0.662942
vn -0.712018 -0.701964 -0.016613
vn -0.712018 -0.701964 -0.016613
vn -0.712018 -0.701964 -0.016613
vn -0.712018 -0.701964 -0.016613
vn -0.664038 0.038159 0.746724
vn -0.664038 0.038159 0.746724
vn -0.664038 0.038159 0.746724
vn -0.664038 0.038159 0.746724
vn -0.545083 -0.156480 -0.823650
vn -0.545083 -0.156480 -0.823650
vn -0.545083 -0.156480 -0.823650
vn -0.545083 -0.156480 -0.823650
vn 0.054747 0.852938 0.519134
vn 0.054747 0.852938 0.519134
vn 0.054747 0.852938 0.519134
vn 0.054747 0.852938 0.519134
vn 0.930219 -0.339607 -0.139137
vn 0.930219 -0.339607 -0.139137
vn 0.930219 -0.339607 -0.139137
vn -0.715690 -0.596401 -0.363447
vn -0.715690 -0.596401 -0.363447
vn -0.715690 -0.596401 -0.363447
vn -0.930219 -0.339607 -0.139137
vn -0.930219 -0.339607 -0.139137
vn -0.930219 -0.339607 -0.139137
vn 0.712339 -0.598952 -0.365828
vn 0.712339 -0.598952 -0.365828
vn 0.712339 -0.598952 -0.365828
vn 0.621746 -0.779792 -0.073179
vn 0.621747 -0.779792 -0.073179
vn 0.621747 -0.779792 -0.073179
vn 0.621747 -0.779792 -0.073179
vn -0.368444 0.654005 0.660701
vn -0.368444 0.654005 0.660701
vn -0.368445 0.654005 0.660701
vn -0.368444 0.654005 0.660701
vn 0.230943 0.972941 0.007092
vn 0.230943 0.972941 0.007092
vn 0.230943 0.972941 0.007092
vn 0.240833 0.651061 -0.719805
vn 0.240832 0.651061 -0.719805
vn 0.240832 0.651061 -0.719805
vn 0.240833 0.651061 -0.719805
vn -0.245176 -0.023390 -0.969196
vn -0.245176 -0.023390 -0.969196
vn -0.245176 -0.023390 -0.969196
vn 0.237222 -0.057492 -0.969753
vn 0.237222 -0.057492 -0.969753
vn 0.237222 -0.057492 -0.969753
vn -0.211235 0.649650 -0.730298
vn -0.211235 0.649650 -0.730298
vn -0.211235 0.649650 -0.730298
vn -0.211235 0.649650 -0.730298
vn 0.140089 0.989210 0.042886
vn 0.140089 0.989210 0.042886
vn 0.140089 0.989210 0.042886
vn 0.140089 0.989210 0.042886
vn 0.542361 0.655379 0.525664
vn 0.542361 0.655379 0.525664
vn 0.542361 0.655379 0.525664
vn 0.542361 0.655379 0.525664
vn -0.412923 0.331985 0.848105
vn -0.412923 0.331985 0.848105
vn -0.412923 0.331985 0.848105
vn 0.330751 0.121955 0.935805
vn 0.330751 0.121955 0.935805
vn 0.330751 0.121955 0.935805
vn 0.330751 0.121955 0.935805
vn -0.401735 0.025144 0.915411
vn -0.401735 0.025144 0.915411
vn -0.401735 0.025144 0.915411
vn 0.433388 0.328654 0.839143
vn 0.433388 0.328654 0.839143
vn 0.433388 0.328654 0.839143
vn -0.674609 -0.707536 -0.210464
vn -0.674609 -0.707536 -0.210464
vn -0.674609 -0.707536 -0.210464
vn -0.674609 -0.707536 -0.210464
vn -0.631768 -0.547605 -0.548633
vn -0.631768 -0.547605 -0.548633
vn -0.631768 -0.547605 -0.548633
vn -0.631768 -0.547605 -0.548633
vn -0.520726 -0.148614 -0.840689
vn -0.520726 -0.148614 -0.840689
vn -0.520726 -0.148614 -0.840689
vn -0.520726 -0.148614 -0.840689
vn -0.049304 0.667209 -0.743237
vn -0.049304 0.667209 -0.743237
vn -0.049304 0.667209 -0.743237
vn -0.049304 0.667209 -0.743237
vn -0.435556 0.898728 -0.050781
vn -0.435556 0.898728 -0.050781
vn -0.435556 0.898728 -0.050781
vn -0.752200 0.617619 0.229656
vn -0.752200 0.617619 0.229656
vn -0.752200 0.617619 0.229656
vn 0.063703 0.335824 0.939768
vn 0.063703 0.335824 0.939768
vn 0.063703 0.335824 0.939768
vn 0.063703 0.335824 0.939768
vn -0.131005 -0.940696 -0.312936
vn -0.131005 -0.940696 -0.312936
vn -0.131005 -0.940696 -0.312936
vn -0.131005 -0.940696 -0.312936
vn -0.145708 -0.564015 -0.812808
vn -0.145708 -0.564014 -0.812808
vn -0.145708 -0.564015 -0.812808
vn -0.145708 -0.564015 -0.812808
vn -0.095506 -0.098043 -0.990589
vn -0.095506 -0.098043 -0.990589
vn -0.095506 -0.098043 -0.990589
vn -0.261829 0.635932 -0.725972
vn -0.261829 0.635932 -0.725972
vn -0.261829 0.635932 -0.725972
vn -0.225306 0.967577 0.114156
vn -0.225306 0.967577 0.114156
vn -0.225306 0.967577 0.114156
vn -0.225306 0.967577 0.114156
vn -0.097141 0.971184 0.217635
vn -0.097141 0.971184 0.217635
vn -0.097141 0.971184 0.217635
vn -0.194269 0.352097 0.915580
vn -0.194269 0.352097 0.915580
vn -0.194269 0.352097 0.915580
vn -0.194269 0.352097 0.915580
vn -0.050884 0.310994 0.949049
vn -0.050884 0.310994 0.949049
vn -0.050884 0.310994 0.949049
vn -0.050884 0.310994 0.949049
vn 0.210008 0.753919 0.622497
vn 0.210008 0.753919 0.622497
vn 0.210008 0.753919 0.622497
vn 0.187130 0.977173 0.100578
vn 0.187130 0.977173 0.100578
vn 0.187130 0.977173 0.100578
vn 0.187130 0.977173 0.100578
vn 0.610816 0.447285 -0.653330
vn 0.610816 0.447285 -0.653330
vn 0.610816 0.447285 -0.653330
vn 0.538625 -0.214530 -0.814776
vn 0.538625 -0.214530 -0.814776
vn 0.538625 -0.214530 -0.814776
vn 0.538625 -0.214530 -0.814776
vn 0.634714 -0.501820 -0.587636
vn 0.634714 -0.501820 -0.587636
vn 0.634714 -0.501820 -0.587636
vn 0.634714 -0.501820 -0.587636
vn 0.699253 -0.704724 -0.120036
vn 0.699253 -0.704724 -0.120036
vn 0.699253 -0.704724 -0.120036
vn 0.699253 -0.704724 -0.120036
vn 0.194180 0.352272 0.915532
vn 0.194180 0.352272 0.915532
vn 0.194180 0.352272 0.915532
vn 0.194180 0.352272 0.915532
vn 0.151249 0.784095 0.601930
vn 0.151249 0.784095 0.601930
vn 0.151249 0.784095 0.601930
vn 0.151249 0.784095 0.601930
vn 0.380388 0.924477 0.025451
vn 0.380388 0.924477 0.025451
vn 0.380388 0.924477 0.025451
vn 0.380388 0.924477 0.025451
vn 0.309505 0.579046 -0.754263
vn 0.309505 0.579046 -0.754263
vn 0.309505 0.579046 -0.754263
vn 0.309505 0.579046 -0.754263
vn 0.181185 -0.240677 -0.953544
vn 0.181185 -0.240677 -0.953544
vn 0.181185 -0.240677 -0.953544
vn 0.181185 -0.240677 -0.953544
vn 0.104286 -0.541673 -0.834096
vn 0.104286 -0.541673 -0.834095
vn 0.104286 -0.541673 -0.834096
vn 0.104286 -0.541673 -0.834096
vn 0.132360 -0.948562 -0.287596
vn 0.132360 -0.948562 -0.287596
vn 0.132360 -0.948562 -0.287596
vn 0.132360 -0.948562 -0.287596
vn -0.821751 -0.182221 0.539927
vn -0.821751 -0.182221 0.539927
vn -0.821751 -0.182221 0.539927
vn -0.821751 -0.182221 0.539927
vn -0.868629 -0.054540 0.492453
vn -0.868629 -0.054540 0.492453
vn -0.868629 -0.054540 0.492453
vn -0.868629 -0.054540 0.492453
vn -0.769362 -0.058181 0.636159
vn -0.769362 -0.058181 0.636159
vn -0.769362 -0.058181 0.636159
vn -0.787820 0.614563 0.040648
vn -0.787820 0.614563 0.040648
vn -0.787820 0.614563 0.040648
vn -0.787820 0.614563 0.040648
vn -0.757409 0.569779 -0.318878
vn -0.757409 0.569779 -0.318878
vn -0.757409 0.569779 -0.318878
vn -0.303919 0.581891 -0.754345
vn -0.303919 0.581891 -0.754345
vn -0.303919 0.581891 -0.754345
vn -0.303919 0.581891 -0.754345
vn 0.576105 -0.472059 0.667281
vn 0.576105 -0.472059 0.667281
vn 0.576105 -0.472059 0.667281
vn 0.576105 -0.472059 0.667281
vn 0.799181 -0.148346 0.582498
vn 0.799181 -0.148346 0.582498
vn 0.799181 -0.148346 0.582498
vn 0.969994 -0.200296 0.137815
vn 0.969994 -0.200296 0.137815
vn 0.969994 -0.200296 0.137815
vn 0.969994 -0.200296 0.137815
vn 0.993143 -0.112234 0.032725
vn 0.993143 -0.112234 0.032725
vn 0.993143 -0.112234 0.032725
vn 0.993143 -0.112234 0.032725
vn 0.985317 0.107400 -0.132722
vn 0.985317 0.107400 -0.132722
vn 0.985317 0.107400 -0.132722
vn 0.985317 0.107400 -0.132722
vn 0.985317 0.107400 -0.132722
vn 0.265316 0.625418 -0.733798
vn 0.265316 0.625418 -0.733798
vn 0.265316 0.625418 -0.733798
vn 0.206253 0.978372 0.015758
vn 0.206253 0.978372 0.015758
vn 0.206253 0.978372 0.015758
vn 0.123033 0.620362 -0.774606
vn 0.123033 0.620362 -0.774606
vn 0.123033 0.620362 -0.774606
vn 0.123033 0.620362 -0.774606
vn 0.984118 -0.042738 -0.172293
vn 0.984118 -0.042738 -0.172293
vn 0.984118 -0.042738 -0.172293
vn 0.984118 -0.042738 -0.172293
vn 0.034950 -0.110477 -0.993264
vn 0.034950 -0.110477 -0.993264
vn 0.034950 -0.110477 -0.993264
vn -0.774487 0.032597 0.631750
vn -0.774487 0.032597 0.631750
vn -0.774487 0.032597 0.631750
vn -0.774487 0.032597 0.631750
vn -0.958815 -0.191402 -0.209853
vn -0.958815 -0.191402 -0.209853
vn -0.958815 -0.191402 -0.209853
vn -0.958815 -0.191402 -0.209853
vn -0.248261 -0.248790 -0.936200
vn -0.248261 -0.248790 -0.936200
vn -0.248261 -0.248790 -0.936200
vn -0.248261 -0.248790 -0.936200
vn 0.725280 0.222347 0.651560
vn 0.725280 0.222347 0.651560
vn 0.725280 0.222347 0.651560
vn 0.725280 0.222347 0.651560
vn -0.287192 0.706380 0.646954
vn -0.287191 0.706380 0.646954
vn -0.287191 0.706380 0.646954
vn -0.287191 0.706380 0.646954
vn -0.283534 0.554788 0.782189
vn -0.283534 0.554788 0.782189
vn -0.283534 0.554788 0.782189
vn 0.044009 0.998551 -0.030959
vn 0.044009 0.998551 -0.030959
vn 0.044009 0.998551 -0.030959
vn 0.281301 0.756721 0.590122
vn 0.281301 0.756721 0.590122
vn 0.281301 0.756721 0.590122
vn -0.449977 0.892466 0.032011
vn -0.449977 0.892466 0.032011
vn -0.449977 0.892467 0.032011
vn -0.237234 0.968051 0.081227
vn -0.237234 0.968051 0.081227
vn -0.237234 0.968051 0.081227
vn -0.177740 0.721335 0.669391
vn -0.177740 0.721335 0.669391
vn -0.177740 0.721335 0.669391
vn 0.983341 0.103582 0.149367
vn 0.983341 0.103582 0.149367
vn 0.983341 0.103582 0.149367
vn 0.983341 0.103582 0.149367
vn 0.553580 0.598083 -0.579523
vn 0.553580 0.598083 -0.579523
vn 0.553580 0.598083 -0.579523
vn 0.553580 0.598083 -0.579523
vn -0.960360 0.082116 -0.266394
vn -0.960360 0.082116 -0.266394
vn -0.960360 0.082116 -0.266394
vn -0.960360 0.082116 -0.266394
vn 0.922672 0.065757 0.379937
vn 0.922672 0.065758 0.379937
vn 0.922672 0.065757 0.379937
vn 0.922672 0.065757 0.379937
vn -0.705458 -0.306841 0.638887
vn -0.705458 -0.306841 0.638887
vn -0.705458 -0.306841 0.638887
vn -0.465880 -0.246025 0.849958
vn -0.465880 -0.246025 0.849958
vn -0.465880 -0.246025 0.849958
vn -0.465880 -0.246025 0.849958
vn 0.607115 -0.167265 0.776810
vn 0.607115 -0.167265 0.776810
vn 0.607115 -0.167265 0.776810
vn 0.258843 -0.921340 -0.290056
vn 0.258843 -0.921340 -0.290056
vn 0.258843 -0.921340 -0.290056
vn 0.258843 -0.921340 -0.290057
vn -0.962286 -0.168711 -0.213409
vn -0.962286 -0.168711 -0.213409
vn -0.962285 -0.168711 -0.213409
vn -0.962285 -0.168711 -0.213409
vn -0.226608 0.940294 0.253963
vn -0.226608 0.940294 0.253963
vn -0.226608 0.940294 0.253962
vn -0.226608 0.940294 0.253963
vn 0.980843 0.189231 0.046249
vn 0.980843 0.189231 0.046249
vn 0.980843 0.189231 0.046249
vn 0.980843 0.189231 0.046249
vn 0.120817 -0.982150 -0.144168
vn 0.120817 -0.982150 -0.144168
vn 0.120817 -0.982150 -0.144168
vn 0.120817 -0.982150 -0.144168
vn -0.955094 -0.296249 0.005699
vn -0.955094 -0.296249 0.005699
vn -0.955094 -0.296249 0.005699
vn -0.955094 -0.296249 0.005699
vn 0.097952 0.991252 -0.088455
vn 0.097952 0.991252 -0.088455
vn 0.097952 0.991252 -0.088455
vn 0.097952 0.991252 -0.088455
vn 0.925511 0.361475 -0.112983
vn 0.925511 0.361475 -0.112983
vn 0.925511 0.361475 -0.112983
vn 0.925511 0.361475 -0.112983
vn 0.974923 -0.190477 0.115081
vn 0.974923 -0.190477 0.115081
vn 0.974923 -0.190477 0.115081
vn 0.974923 -0.190477 0.115081
vn -0.439022 -0.023455 -0.898170
vn -0.439022 -0.023455 -0.898170
vn -0.439022 -0.023455 -0.898170
vn -0.439022 -0.023455 -0.898170
vn -0.724406 0.538859 0.429961
vn -0.724406 0.538859 0.429961
vn -0.724406 0.538859 0.429961
vn -0.724406 0.538859 0.429961
vn -0.255606 0.308881 0.916111
vn -0.255606 0.308881 0.916111
vn -0.255606 0.308881 0.916111
vn -0.255606 0.308881 0.916111
vn 0.676825 -0.083350 0.731410
vn 0.676825 -0.083350 0.731410
vn 0.676825 -0.083350 0.731410
vn 0.676825 -0.083350 0.731410
vn -0.505782 -0.803265 -0.314564
vn -0.505782 -0.803265 -0.314564
vn -0.505782 -0.803265 -0.314564
vn -0.505782 -0.803265 -0.314564
vn -0.897012 0.427588 -0.111970
vn -0.897012 0.427588 -0.111970
vn -0.897012 0.427588 -0.111970
vn -0.897012 0.427588 -0.111970
vn 0.406763 0.882630 0.235602
vn 0.406763 0.882630 0.235602
vn 0.406763 0.882630 0.235602
vn 0.406763 0.882630 0.235602
vn 0.988942 -0.094140 -0.114594
vn 0.988942 -0.094140 -0.114594
vn 0.988942 -0.094140 -0.114594
vn 0.988942 -0.094140 -0.114594
vn -0.308521 -0.935547 -0.171950
vn -0.308521 -0.935547 -0.171950
vn -0.308521 -0.935547 -0.171950
vn -0.308521 -0.935547 -0.171950
vn -0.967741 0.225514 -0.112339
vn -0.967741 0.225514 -0.112339
vn -0.967741 0.225514 -0.112339
vn -0.967741 0.225514 -0.112339
vn 0.264217 0.964060 0.027897
vn 0.264217 0.964060 0.027897
vn 0.264217 0.964060 0.027897
vn 0.264217 0.964060 0.027897
vn 0.998108 -0.001365 -0.061470
vn 0.998108 -0.001365 -0.061470
vn 0.998108 -0.001365 -0.061470
vn 0.998108 -0.001365 -0.061470
vn 0.849966 -0.509300 0.134804
vn 0.849966 -0.509300 0.134804
vn 0.849966 -0.509300 0.134804
vn 0.854777 -0.517284 -0.042115
vn 0.854777 -0.517284 -0.042115
vn 0.854777 -0.517284 -0.042115
vn 0.854777 -0.517284 -0.042115
vn 0.857583 -0.496462 -0.134453
vn 0.857583 -0.496462 -0.134453
vn 0.857583 -0.496462 -0.134453
vn 0.857583 -0.496462 -0.134453
vn 0.590804 -0.322981 -0.739347
vn 0.590804 -0.322981 -0.739347
vn 0.590804 -0.322981 -0.739347
vn -0.789967 -0.471264 0.392253
vn -0.789967 -0.471264 0.392253
vn -0.789967 -0.471264 0.392253
vn -0.856026 -0.516904 0.005462
vn -0.856026 -0.516904 0.005462
vn -0.856026 -0.516904 0.005462
vn -0.856026 -0.516904 0.005462
vn -0.835694 -0.476802 -0.272536
vn -0.835694 -0.476802 -0.272536
vn -0.835694 -0.476802 -0.272536
vn -0.835694 -0.476802 -0.272536
vn -0.627950 -0.332795 -0.703510
vn -0.627950 -0.332795 -0.703510
vn -0.627950 -0.332795 -0.703510
vn 0.021775 -0.828165 0.560062
vn 0.021775 -0.828165 0.560062
vn 0.021775 -0.828165 0.560062
vn 0.144153 -0.962729 -0.228852
vn 0.144153 -0.962729 -0.228852
vn 0.144153 -0.962729 -0.228852
vn 0.474494 -0.545006 0.691248
vn 0.474494 -0.545006 0.691248
vn 0.474494 -0.545006 0.691248
vn 0.510259 0.231637 0.828239
vn 0.510259 0.231637 0.828239
vn 0.510259 0.231637 0.828239
vn -0.203152 -0.968409 -0.144614
vn -0.203152 -0.968409 -0.144614
vn -0.203152 -0.968409 -0.144614
vn -0.420786 0.163729 0.892262
vn -0.420786 0.163729 0.892262
vn -0.420786 0.163729 0.892262
vn -0.045230 -0.127781 -0.990771
vn -0.045230 -0.127781 -0.990771
vn -0.045230 -0.127781 -0.990771
vn -0.021954 -0.828127 0.560110
vn -0.021954 -0.828127 0.560110
vn -0.021954 -0.828127 0.560110
vn -0.145498 -0.962568 -0.228678
vn -0.145498 -0.962568 -0.228678
vn -0.145498 -0.962568 -0.228678
vn -0.477826 -0.543819 0.689886
vn -0.477826 -0.543819 0.689886
vn -0.477826 -0.543819 0.689886
vn -0.513717 0.230732 0.826352
vn -0.513717 0.230732 0.826352
vn -0.513717 0.230732 0.826352
vn 0.205020 -0.967994 -0.144757
vn 0.205020 -0.967994 -0.144757
vn 0.205020 -0.967994 -0.144757
vn 0.424221 0.163672 0.890645
vn 0.424221 0.163672 0.890645
vn 0.424221 0.163672 0.890645
vn 0.045660 -0.127759 -0.990754
vn 0.045660 -0.127759 -0.990754
vn 0.045660 -0.127759 -0.990754
vn 0.070811 -0.778876 0.623168
vn 0.070811 -0.778876 0.623168
vn 0.070811 -0.778876 0.623168
vn -0.150787 -0.797897 0.583629
vn -0.150787 -0.797897 0.583629
vn -0.150787 -0.797897 0.583629
vn 0.152022 -0.797606 0.583707
vn 0.152022 -0.797606 0.583706
vn 0.152023 -0.797606 0.583707
vn -0.023858 -0.719079 0.694519
vn -0.023858 -0.719079 0.694519
vn -0.023858 -0.719079 0.694519
vn 0.200203 -0.820602 0.535286
vn 0.200203 -0.820602 0.535286
vn 0.200203 -0.820602 0.535286
vn -0.070679 -0.778514 0.623635
vn -0.070679 -0.778514 0.623635
vn -0.070679 -0.778514 0.623635
vn 0.485592 -0.745649 0.456298
vn 0.485592 -0.745649 0.456298
vn 0.485592 -0.745649 0.456298
vn -0.282261 -0.639541 0.715063
vn -0.282261 -0.639541 0.715063
vn -0.282261 -0.639541 0.715063
vn -0.309181 -0.785820 0.535625
vn -0.309181 -0.785820 0.535625
vn -0.309181 -0.785820 0.535625
vn -0.112909 -0.693112 0.711932
vn -0.112909 -0.693112 0.711932
vn -0.112909 -0.693112 0.711932
vn 0.410175 -0.542137 0.733379
vn 0.410175 -0.542137 0.733379
vn 0.410175 -0.542137 0.733379
vn 0.308289 -0.787478 0.533700
vn 0.308289 -0.787478 0.533701
vn 0.308289 -0.787478 0.533700
vn 0.242608 -0.647485 0.722429
vn 0.242608 -0.647485 0.722429
vn 0.242608 -0.647485 0.722429
vn -0.409552 -0.539380 0.735756
vn -0.409552 -0.539380 0.735756
vn -0.409552 -0.539380 0.735756
vn 0.040904 -0.688374 0.724202
vn 0.040904 -0.688374 0.724202
vn 0.040904 -0.688374 0.724202
vn -0.021958 -0.828129 0.560107
vn -0.021958 -0.828129 0.560107
vn -0.021958 -0.828129 0.560107
vn 0.021770 -0.828162 0.560066
vn 0.021770 -0.828162 0.560066
vn 0.021770 -0.828162 0.560066
vn -0.513714 0.230712 0.826359
vn -0.513714 0.230712 0.826359
vn -0.513714 0.230712 0.826359
vn 0.510263 0.231639 0.828236
vn 0.510263 0.231639 0.828236
vn 0.510263 0.231639 0.828236
vn -0.485402 -0.743467 0.460045
vn -0.485402 -0.743467 0.460045
vn -0.485402 -0.743467 0.460045
s off
f 61/78/1 62/79/2 81/99/3
f 18/19/4 97/116/5 98/117/6 17/5/7
f 98/117/8 136/162/9 17/5/10
f 17/5/11 136/163/12 137/164/13 14/1/14
f 14/1/15 137/164/16 138/165/17
f 15/4/18 22/24/19 103/123/20 104/124/21
f 25/26/22 20/29/23 19/28/24 24/27/25
f 79/97/26 80/98/27 63/80/28 65/82/29
f 96/115/30 97/116/31 18/19/32 1/7/33
f 3/10/34 21/22/35 20/23/36 4/71/37
f 5/11/38 22/24/39 21/22/40 3/10/41
f 49/61/42 48/60/43 23/25/44 6/12/45
f 108/128/46 103/123/47 22/24/48 5/11/49
f 7/13/50 25/26/51 24/27/52 8/14/53
f 8/14/54 24/27/55 19/28/56 2/15/57
f 4/16/58 20/29/59 25/26/60 7/13/61
f 58/75/62 59/76/63 68/86/64
f 57/74/65 68/86/66 69/87/67
f 56/73/68 57/74/69 69/87/70
f 91/109/71 92/110/72 39/40/73
f 40/41/74 39/40/75 92/110/76 93/111/77
f 93/112/78 94/113/79 41/42/80 40/43/81
f 94/113/82 95/114/83 35/33/84 42/44/85 41/42/86
f 106/126/87 107/127/88 36/35/89 43/45/90
f 45/46/91 44/47/92 39/48/93 40/49/94
f 54/69/95 55/70/96 50/63/97 51/64/98
f 27/51/99 90/108/100 91/109/101 39/40/102
f 28/52/103 29/72/104 40/43/105 41/42/106
f 30/53/107 28/52/108 41/42/109 42/44/110
f 50/63/111 31/54/112 43/45/113 51/64/114
f 31/54/115 105/125/116 106/126/117 43/45/118
f 32/55/119 33/56/120 44/47/121 45/46/122
f 33/56/123 27/57/124 39/48/125 44/47/126
f 29/58/127 32/55/128 45/46/129 40/49/130
f 80/98/131 81/99/132 62/79/133 63/80/134
f 16/18/135 23/25/136 48/60/137
f 36/35/138 54/69/139 51/64/140
f 43/45/141 36/35/142 51/64/143
f 52/67/144 16/18/145 48/60/146
f 53/68/147 52/67/148 48/60/149 49/61/150
f 111/134/151 110/135/152 112/136/153 113/137/154
f 57/74/155 10/31/156 58/75/157
f 10/31/158 9/32/159 59/76/160 58/75/161
f 11/34/162 59/76/163 9/32/164
f 11/17/165 9/3/166 60/77/167
f 9/3/168 10/2/169 61/78/170 60/77/171
f 10/2/172 12/6/173 62/79/174 61/78/175
f 124/149/176 123/150/177 125/151/178 126/152/179
f 56/73/180 70/88/181 64/81/182
f 66/85/183 65/82/184 63/80/185 67/84/186
f 111/134/187 113/137/188 114/138/189
f 124/149/190 126/152/191 127/153/192
f 71/89/193 72/90/194 47/66/195 46/65/196
f 72/90/197 73/91/198 11/34/199 47/66/200
f 73/91/201 74/92/202 59/76/203 11/34/204
f 68/86/205 59/76/206 74/92/207 75/93/208
f 69/87/209 68/86/210 76/94/211
f 109/129/212 69/87/213 76/94/214
f 77/95/215 78/96/216 70/88/217 56/73/218
f 55/70/219 54/69/220 72/90/221 71/89/222
f 54/69/223 36/35/224 73/91/225 72/90/226
f 36/35/227 107/127/228 73/91/229
f 95/114/230 74/92/231 35/33/232
f 76/94/233 75/93/234 34/30/235 37/36/236
f 37/36/237 109/129/238 76/94/239
f 26/50/240 78/96/241 77/95/242 38/38/243
f 82/100/244 83/101/245 80/98/246 79/97/247
f 83/101/248 81/99/249 80/98/250
f 61/78/251 81/99/252 84/102/253 102/122/254
f 60/77/255 61/78/256 102/122/257
f 11/17/258 60/77/259 86/104/260 87/105/261
f 47/59/262 11/17/263 87/105/264 88/106/265
f 46/62/266 47/59/267 88/106/268 89/107/269
f 18/19/270 83/101/271 82/100/272 1/7/273
f 18/19/274 17/5/275 84/102/276 83/101/277
f 85/103/278 84/102/279 17/5/280 14/1/281
f 86/104/282 85/103/283 14/1/284 138/165/285
f 87/105/286 86/104/287 15/4/288 104/124/289
f 88/106/290 87/105/291 16/18/292 52/67/293
f 89/107/294 88/106/295 52/67/296 53/68/297
f 91/109/298 90/108/299 26/50/300 38/38/301
f 38/38/302 37/36/303 92/110/304 91/109/305
f 139/166/306 92/110/307 37/36/308
f 37/36/309 34/30/310 140/167/311 139/168/312
f 34/30/313 141/169/314 140/167/315
f 75/93/316 74/92/317 141/169/318 34/30/319
f 2/8/320 19/21/321 97/116/322 96/115/323
f 98/117/324 97/116/325 19/21/326
f 20/9/327 99/119/328 98/117/329 19/21/330
f 100/120/331 99/118/332 20/23/333 21/22/334
f 101/121/335 100/120/336 21/22/337 22/24/338 15/4/339
f 86/104/340 101/121/341 15/4/342
f 102/122/343 84/102/344 85/103/345
f 60/77/346 102/122/347 85/103/348 86/104/349
f 104/124/350 103/123/351 23/25/352 16/18/353
f 87/105/354 104/124/355 16/18/356
f 106/126/357 105/125/358 30/53/359 42/44/360
f 35/33/361 107/127/362 106/126/363 42/44/364
f 73/91/365 107/127/366 35/33/367 74/92/368
f 6/12/369 23/25/370 103/123/371 108/128/372
f 77/95/373 109/129/374 37/36/375 38/38/376
f 56/73/377 69/87/378 109/129/379
f 12/37/380 10/31/381 57/74/382
f 83/101/383 84/102/384 81/99/385
f 57/74/386 58/75/387 68/86/388
f 76/94/389 68/86/390 75/93/391
f 56/73/392 109/129/393 77/95/394
f 13/39/395 12/37/396 110/135/397 111/134/398
f 120/145/399 119/146/400 121/147/401 122/148/402
f 57/74/403 56/73/404 113/137/405 112/136/406
f 67/83/407 13/39/408 111/134/409 114/138/410
f 56/131/411 64/132/412 113/139/413
f 64/132/414 66/133/415 114/140/416 113/139/417
f 66/133/418 67/130/419 114/140/420
f 12/37/421 57/74/422 115/142/423 116/141/424
f 57/74/425 112/136/426 117/143/427 115/142/428
f 112/136/429 110/135/430 118/144/431 117/143/432
f 110/135/433 12/37/434 116/141/435 118/144/436
f 116/141/437 115/142/438 119/146/439 120/145/440
f 115/142/441 117/143/442 121/147/443 119/146/444
f 117/143/445 118/144/446 122/148/447 121/147/448
f 118/144/449 116/141/450 120/145/451 122/148/452
f 63/80/453 62/79/454 123/150/455 124/149/456
f 132/158/457 133/159/458 134/160/459 135/161/460
f 12/6/461 13/20/462 126/152/463 125/151/464
f 13/20/465 67/84/466 127/153/467 126/152/468
f 67/84/469 63/80/470 124/149/471 127/153/472
f 62/79/473 12/6/474 129/155/475 128/154/476
f 12/6/477 125/151/478 130/156/479 129/155/480
f 125/151/481 123/150/482 131/157/483 130/156/484
f 123/150/485 62/79/486 128/154/487 131/157/488
f 128/154/489 129/155/490 133/159/491 132/158/492
f 129/155/493 130/156/494 134/160/495 133/159/496
f 130/156/497 131/157/498 135/161/499 134/160/500
f 131/157/501 128/154/502 132/158/503 135/161/504
f 98/117/505 99/119/506 136/162/507
f 99/118/508 100/120/509 137/164/510 136/163/511
f 100/120/512 101/121/513 138/165/514 137/164/515
f 101/121/516 86/104/517 138/165/518
f 93/111/519 92/110/520 139/166/521
f 94/113/522 93/112/523 139/168/524 140/167/525
f 95/114/526 94/113/527 140/167/528 141/169/529
f 74/92/530 95/114/531 141/169/532
f 2/170/533 96/171/534 142/172/535
f 3/173/536 4/174/537 142/175/538
f 5/176/539 3/177/540 142/178/541
f 108/179/542 5/180/543 142/181/544
f 7/182/545 8/183/546 142/184/547
f 8/185/548 2/186/549 142/187/550
f 4/188/551 7/189/552 142/190/553
f 90/191/554 27/192/555 142/193/556
f 29/194/557 28/195/558 142/196/559
f 28/197/560 30/198/561 142/199/562
f 30/200/563 105/201/564 142/202/565
f 33/203/566 32/204/567 142/205/568
f 27/206/569 33/207/570 142/208/571
f 32/209/572 29/210/573 142/211/574
f 78/212/575 26/213/576 142/214/577
f 49/215/578 6/216/579 142/217/580
f 31/218/581 50/219/582 142/220/583
f 53/221/584 49/222/585 142/223/586
f 50/224/587 55/225/588 142/226/589
f 1/227/590 82/228/591 142/229/592
f 65/230/593 66/231/594 142/232/595
f 71/233/596 46/234/597 142/235/598
f 64/236/599 70/237/600 142/238/601
f 55/239/602 71/240/603 142/241/604
f 70/242/605 78/243/606 142/244/607
f 79/245/608 65/246/609 142/247/610
f 46/248/611 89/249/612 142/250/613
f 82/251/614 79/252/615 142/253/616
f 89/254/617 53/255/618 142/256/619
f 26/257/620 90/258/621 142/259/622
f 96/260/623 1/261/624 142/262/625
f 105/263/626 31/264/627 142/265/628
f 6/266/629 108/267/630 142/268/631
f 66/269/632 64/270/633 142/271/634
