# This file uses centimeters as units for non-parametric coordinates.

v -9.413796 124.085678 -6.784728
v -10.629278 122.175873 -6.744716
v -11.180543 124.224228 -6.798015
v -11.357021 122.862701 -6.645570
v -8.748430 125.074135 -2.112457
v -7.694896 125.320816 -2.934134
v -7.600206 122.798172 -2.079510
v -7.981624 123.313614 -1.452114
v -10.704008 124.318848 -10.304870
v -10.822358 123.321091 -10.482981
v -9.748617 124.240128 -10.550447
v -10.161732 122.965492 -10.569833
v 2.372076 133.266052 -10.961243
v 3.509780 132.631363 -11.161282
v 1.659822 132.077042 -11.739512
v 3.598630 131.372986 -12.138421
v 2.599260 130.080261 -5.950878
v 3.216262 130.965668 -6.095384
v 5.069723 130.822815 -6.099590
v 5.140900 129.825623 -6.064363
v 2.449986 132.954086 -14.588293
v 3.797278 132.831497 -15.164143
v 2.740850 133.774216 -14.041813
v 3.632571 133.542542 -14.368786
v -0.004486 115.656647 7.844348
v -0.002411 101.759911 -9.818337
v 0.033390 117.168068 -4.274084
v 0.245662 118.373215 4.610343
v 1.549786 119.434654 0.738929
v 0.250051 95.434669 -6.628163
v -0.002411 98.880058 -8.763020
v -0.002411 97.905243 -5.940468
v -0.002411 102.735283 -3.034434
v 0.250051 95.718872 -3.220312
v 0.042447 111.854729 9.374863
v 9.415413 108.527122 -9.155829
v 9.065418 102.754547 -8.908262
v 9.464387 115.734314 -3.879370
v 11.661444 116.295120 1.606844
v 7.659188 114.774117 6.123591
v 10.387627 114.422073 4.933436
v 7.334929 98.317802 -6.738355
v 8.906599 112.199005 7.157655
v 8.703154 109.197304 6.433959
v 10.105079 107.124939 1.121857
v 9.528665 101.049683 -3.899506
v 11.187261 107.781967 0.099458
v 7.288511 117.677597 2.264376
v 4.636678 115.309647 -4.343488
v 4.365417 117.421532 4.395721
v 7.583298 110.817429 8.090671
v 11.158929 109.124344 -2.134709
v 10.950667 106.407127 -4.657111
v 7.883610 108.830170 6.860215
v 6.364533 97.905243 -5.940468
v 9.953834 101.281204 -2.006564
v 8.961574 106.281197 0.706552
v 9.792966 107.398819 -1.816786
v 9.256651 106.222343 0.885150
v 10.851672 106.366852 -2.529271
v 4.580728 95.631569 -3.068727
v 7.277576 96.730171 -7.389316
v 4.105873 112.236198 7.965423
v 4.864868 98.627563 -8.008082
v 9.331108 107.901344 5.061168
v 10.979886 111.572182 5.205451
v 2.901070 116.696190 -4.223674
v 7.987387 115.702515 -4.384940
v 8.432029 106.636139 5.048628
v 11.206076 109.648323 3.641525
v 10.763026 109.857002 0.866305
v 10.234780 114.423416 -4.819973
v 11.950628 112.487381 0.045649
v 10.328619 110.360405 3.855961
v 10.928105 113.622635 0.112707
v 9.621528 114.716621 -4.035845
v 10.895426 108.797112 -3.183493
v 9.218513 111.099350 -6.810977
v 9.930140 112.382347 -6.471694
v 8.199304 97.750717 -3.807478
v 9.224683 99.530739 -2.703851
v 6.618433 97.568558 -3.458811
v 7.160347 99.371567 -2.336166
v 7.530680 95.777130 -2.707625
v 8.661593 96.934883 -1.908481
v 6.567875 95.502373 -2.459643
v 6.963486 96.818726 -1.640065
v 5.297562 101.929176 -9.346597
v 3.858701 104.015144 -9.702558
v 8.404695 99.147957 -7.576290
v 6.474351 102.379158 -9.939919
v 4.872648 105.333664 -10.563642
v 2.629499 95.489609 -5.847478
v 1.843891 99.336952 -8.000128
v 4.822694 95.631569 -5.080826
v 3.111679 95.959763 -6.494402
v 5.886964 114.899971 6.571360
v 3.085466 114.164803 8.423594
v 7.104789 111.940918 8.423931
v 3.867680 115.733589 7.174013
v 5.704300 113.470200 8.271898
v 0.827632 115.142860 -7.263663
v 1.284723 114.274399 -7.170801
v 2.077719 113.626732 -7.582420
v 2.380773 110.885323 -9.465049
v 2.015808 108.421562 -10.333892
v 0.018689 106.823174 -10.342020
v 5.348227 118.398399 0.787627
v 2.757948 120.273949 0.824962
v 7.840670 116.560448 -4.735840
v 6.401466 109.300568 -10.972603
v 6.250866 107.345604 -11.151272
v 0.822940 105.025658 -12.043136
v 8.603232 122.141808 2.962454
v 3.437164 124.115944 4.154907
v 14.504259 125.532524 -3.173694
v 12.896822 114.413055 -13.838422
v 9.490987 109.169136 -13.791866
v 0.720760 107.764824 -16.624489
v -9.273304 108.439400 -9.224114
v -9.070240 102.763542 -8.916967
v -8.602133 115.799911 -3.784939
v -11.031549 115.035545 0.937242
v -7.489197 114.656807 6.079723
v -10.217069 114.069664 4.659450
v -7.339745 98.317802 -6.738355
v -8.847690 112.180450 7.157655
v -8.707972 109.197304 6.433959
v -10.109894 107.124939 1.121857
v -9.533479 101.049683 -3.899506
v -11.192076 107.781967 0.099458
v -5.729189 118.769951 2.244888
v -3.771289 115.714714 -4.214873
v -4.276947 117.495239 4.439899
v -7.523917 110.795090 8.090671
v -11.051067 109.108116 -2.143429
v -11.161997 106.407127 -4.657111
v -7.888425 108.830170 6.860215
v -5.611793 97.321106 -3.661628
v -9.958649 101.281204 -2.006564
v -8.966395 106.281197 0.706552
v -9.723228 107.398819 -1.816786
v -9.261470 106.222343 0.885150
v -10.970045 106.366852 -2.529271
v -4.016219 96.441391 -3.068727
v -4.038813 112.199638 7.966820
v -4.869686 98.627563 -8.008082
v -9.335920 107.901344 5.061168
v -10.984701 111.572182 5.205451
v -2.713101 117.931076 -4.113605
v -6.442269 116.045403 -4.323098
v -8.436851 106.636139 5.048628
v -11.210892 109.648323 3.641525
v -10.767843 109.857002 0.866305
v -9.658023 113.883759 -4.907712
v -11.849037 112.322876 -0.046735
v -10.333433 110.360405 3.855961
v -10.772276 113.325630 -0.043868
v -8.844949 114.467644 -4.083630
v -10.718994 108.749367 -3.205609
v -8.762686 110.821068 -6.850538
v -9.440622 111.863533 -6.562372
v -8.204125 97.750717 -3.807478
v -9.229502 99.530739 -2.703851
v -6.623254 97.568558 -3.458811
v -7.165163 99.371567 -2.336166
v -7.535495 95.777130 -2.707625
v -8.666415 96.934883 -1.908481
v -6.572690 95.502373 -2.459643
v -6.968309 96.818726 -1.640065
v -5.294467 102.357796 -9.271241
v -3.374257 104.440918 -9.593613
v -8.409513 98.739532 -7.576290
v -6.831221 102.609276 -9.734349
v -4.211102 105.515137 -10.386824
v -1.675942 96.194641 -6.002991
v -1.848711 99.336952 -8.000128
v -3.857172 96.187210 -5.384982
v -2.590114 96.443642 -6.345751
v -5.818444 114.841866 6.571563
v -2.775934 114.460709 8.612088
v -3.389708 115.997169 7.395454
v -0.445473 114.762543 -7.265010
v -1.252499 114.096489 -7.753604
v -1.435226 111.385193 -9.554955
v -1.892347 108.370750 -10.357759
v -1.586569 120.762169 0.064111
v -5.531157 117.100403 -3.002523
v -4.861193 111.020195 -10.033294
v -3.791565 107.789932 -11.753946
v -2.327045 123.973694 2.553153
v -7.810328 117.318954 -15.284040
v -3.552059 109.620834 -17.371202
v -0.001937 107.318840 2.624719
v 2.702206 96.044533 -3.151984
v -2.058120 96.112251 -3.137779
v -5.607618 113.033310 7.804841
v 3.223405 129.413925 2.511808
v 9.234160 128.608398 1.814622
v 14.342909 128.324020 -2.781258
v 13.553205 119.345078 -13.512229
v 10.957510 115.617615 -16.575537
v 0.735657 115.057251 -21.510347
v -2.941191 128.198746 0.921996
v -5.370073 128.965256 -4.121224
v -5.602293 125.297340 -13.076003
v -2.864023 116.027740 -20.778824
v 3.101850 131.508347 -10.111187
v 3.235629 131.871277 -2.225832
v 7.491831 130.724594 -2.356599
v 10.648895 130.131485 -4.875040
v 4.266504 130.773361 -13.425532
v 13.087127 126.929878 -11.419256
v 4.673530 129.045013 -15.164252
v 8.976752 126.490509 -15.308210
v 4.718874 125.513626 -16.981607
v 0.510109 131.629288 -2.657921
v -2.238561 131.179565 -6.044080
v -0.842713 131.356125 -13.752440
v 1.807571 126.782837 -17.379709
v 9.594248 105.794891 4.569902
v 8.432029 104.607582 4.694685
v 9.256651 104.357597 1.683287
v 10.390039 105.325844 1.729107
v -10.394854 105.325844 1.729107
v -9.599066 105.794891 4.569902
v -9.261470 104.357597 1.683287
v -8.436851 104.607582 4.694685
v 8.194822 115.149231 -4.286110
v 15.571212 124.795364 -1.975002
v 10.628601 121.690773 3.824399
v 7.063855 117.108452 1.538004
v 7.275541 109.557442 -9.189445
v 14.810855 113.906578 -11.117614
v 12.436099 115.053314 -1.990830
v 15.980396 119.268799 -0.252930
v 12.795293 120.316231 3.184838
v 10.004550 117.270493 1.292665
v 10.919328 112.904022 -5.762617
v 14.934042 114.660225 -6.293817
v -2.192082 120.423409 1.195306
v -6.675674 115.959595 -2.321872
v -3.670683 123.815140 3.824808
v -5.166183 112.366272 -8.197269
v -9.566304 118.618301 -11.969915
v -4.023877 127.300209 2.320629
v -7.285546 128.377548 -2.961408
v -7.480140 125.404930 -11.753846
v -5.555015 120.913902 0.700822
v -7.864973 118.651245 -1.056851
v -6.210466 123.420448 2.897093
v -9.258188 123.079849 -0.977489
v -7.180787 114.459839 -6.369701
v -10.761393 119.658371 -9.400248
v -6.816532 125.755379 1.902214
v -8.801830 126.292999 -1.979786
v -9.861415 124.220795 -8.620518
v 7.552031 124.159256 4.393268
v 4.203166 124.983582 4.962161
v 8.335999 129.655365 2.688004
v 4.448950 130.068558 3.090733
v 7.160181 131.767410 -0.912529
v 4.432311 132.464081 -0.797087
v 2.330727 123.911606 4.576117
v -0.526034 123.656525 3.979940
v 2.023896 130.481094 3.769707
v -1.883103 129.313400 2.318146
v -0.985023 132.181061 -1.078756
v -4.446754 130.873550 -2.108256
v -2.819865 132.017761 -3.930304
v 3.324536 106.715630 -17.160910
v 8.263896 107.911835 -15.570224
v 3.071959 115.119202 -22.221283
v 8.345598 116.224380 -19.623457
v 5.288806 124.048775 -18.959381
v 7.731030 125.502693 -17.844656
v 16.800453 118.115242 -2.023207
v 17.225725 117.176430 -3.173058
v 16.253489 119.442810 -3.601260
v 17.353622 117.790207 -4.934175
v 11.293198 116.304543 -1.411113
v 12.204066 115.502762 -1.804371
v 12.035660 114.518585 -3.739797
v 11.085048 115.077919 -4.135987
v 16.970217 120.820068 -2.214020
v 18.351095 121.832428 -2.401953
v 17.145832 120.484177 -0.877444
v 18.245016 120.799355 -0.942307
v 15.536953 122.032455 0.551559
v 16.095318 122.525719 0.544798
v 15.859661 121.588799 1.144806
v 16.265003 122.014313 1.103222
vt 0.050356 0.198441
vt 0.050356 0.198441
vt 0.050356 0.198441
vt 0.050356 0.198441
vt 0.050356 0.198441
vt 0.050356 0.198441
vt 0.050356 0.198441
vt 0.050356 0.198441
vt 0.050356 0.198441
vt 0.050356 0.198441
vt 0.050356 0.198441
vt 0.050356 0.198441
vt 0.050356 0.198441
vt 0.050356 0.198441
vt 0.050356 0.198441
vt 0.050356 0.198441
vt 0.050356 0.198441
vt 0.050356 0.198441
vt 0.050356 0.198441
vt 0.050356 0.198441
vt 0.050356 0.198441
vt 0.050356 0.198441
vt 0.050356 0.198441
vt 0.050356 0.198441
vt 0.050356 0.198441
vt 0.050356 0.198441
vt 0.050356 0.198441
vt 0.050356 0.198441
vt 0.050356 0.198441
vt 0.050356 0.198441
vt 0.050356 0.198441
vt 0.050356 0.198441
vt 0.050356 0.198441
vt 0.050356 0.198441
vt 0.050356 0.198441
vt 0.050356 0.198441
vt 0.050356 0.198441
vt 0.050356 0.198441
vt 0.050356 0.198441
vt 0.050356 0.198441
vt 0.050356 0.198441
vt 0.050356 0.198441
vt 0.050356 0.198441
vt 0.050356 0.198441
vt 0.050356 0.198441
vt 0.050356 0.198441
vt 0.050356 0.198441
vt 0.050356 0.198441
vt 0.050356 0.198441
vt 0.050356 0.198441
vt 0.050356 0.198441
vt 0.050356 0.198441
vt 0.050356 0.198441
vt 0.050356 0.198441
vt 0.050356 0.198441
vt 0.050356 0.198441
vt 0.050356 0.198441
vt 0.050356 0.198441
vt 0.050356 0.198441
vt 0.050356 0.198441
vt 0.050356 0.198441
vt 0.050356 0.198441
vt 0.050356 0.198441
vt 0.050356 0.198441
vt 0.050356 0.198441
vt 0.050356 0.198441
vt 0.050356 0.198441
vt 0.050356 0.198441
vt 0.050356 0.198441
vt 0.050356 0.198441
vt 0.050356 0.198441
vt 0.050356 0.198441
vt 0.050356 0.198441
vt 0.050356 0.198441
vt 0.050356 0.198441
vt 0.050356 0.198441
vt 0.050356 0.198441
vt 0.050356 0.198441
vt 0.050356 0.198441
vt 0.050356 0.198441
vt 0.050356 0.198441
vt 0.050356 0.198441
vt 0.050356 0.198441
vt 0.050356 0.198441
vt 0.050356 0.198441
vt 0.050356 0.198441
vt 0.050356 0.198441
vt 0.050356 0.198441
vt 0.050356 0.198441
vt 0.050356 0.198441
vt 0.050356 0.198441
vt 0.050356 0.198441
vt 0.050356 0.198441
vt 0.050356 0.198441
vt 0.050356 0.198441
vt 0.050356 0.198441
vt 0.050356 0.198441
vt 0.050356 0.198441
vt 0.050356 0.198441
vt 0.050356 0.198441
vt 0.050356 0.198441
vt 0.050356 0.198441
vt 0.050356 0.198441
vt 0.050356 0.198441
vt 0.050356 0.198441
vt 0.050356 0.198441
vt 0.050356 0.198441
vt 0.050356 0.198441
vt 0.050356 0.198441
vt 0.050356 0.198441
vt 0.050356 0.198441
vt 0.050356 0.198441
vt 0.050356 0.198441
vt 0.050356 0.198441
vt 0.050356 0.198441
vt 0.050356 0.198441
vt 0.050356 0.198441
vt 0.050356 0.198441
vt 0.050356 0.198441
vt 0.050356 0.198441
vt 0.050356 0.198441
vt 0.050356 0.198441
vt 0.050356 0.198441
vt 0.050356 0.198441
vt 0.050356 0.198441
vt 0.050356 0.198441
vt 0.050356 0.198441
vt 0.050356 0.198441
vt 0.050356 0.198441
vt 0.050356 0.198441
vt 0.050356 0.198441
vt 0.050356 0.198441
vt 0.050356 0.198441
vt 0.050356 0.198441
vt 0.050356 0.198441
vt 0.050356 0.198441
vt 0.050356 0.198441
vt 0.050356 0.198441
vt 0.050356 0.198441
vt 0.050356 0.198441
vt 0.050356 0.198441
vt 0.050356 0.198441
vt 0.050356 0.198441
vt 0.050356 0.198441
vt 0.050356 0.198441
vt 0.050356 0.198441
vt 0.050356 0.198441
vt 0.050356 0.198441
vt 0.050356 0.198441
vt 0.050356 0.198441
vt 0.050356 0.198441
vt 0.050356 0.198441
vt 0.050356 0.198441
vt 0.050356 0.198441
vt 0.050356 0.198441
vt 0.050356 0.198441
vt 0.050356 0.198441
vt 0.050356 0.198441
vt 0.050356 0.198441
vt 0.050356 0.198441
vt 0.050356 0.198441
vt 0.050356 0.198441
vt 0.050356 0.198441
vt 0.050356 0.198441
vt 0.050356 0.198441
vt 0.050356 0.198441
vt 0.050356 0.198441
vt 0.050356 0.198441
vt 0.050356 0.198441
vt 0.050356 0.198441
vt 0.050356 0.198441
vt 0.050356 0.198441
vt 0.050356 0.198441
vt 0.050356 0.198441
vt 0.050356 0.198441
vt 0.050356 0.198441
vt 0.050356 0.198441
vt 0.050356 0.198441
vt 0.050356 0.198441
vt 0.050356 0.198441
vt 0.050356 0.198441
vt 0.050356 0.198441
vt 0.050356 0.198441
vt 0.050356 0.198441
vt 0.050356 0.198441
vt 0.050356 0.198441
vt 0.050356 0.198441
vt 0.050356 0.198441
vt 0.050356 0.198441
vt 0.050356 0.198441
vt 0.050356 0.198441
vt 0.050356 0.198441
vt 0.050356 0.198441
vt 0.050356 0.198441
vt 0.050356 0.198441
vt 0.050356 0.198441
vt 0.050356 0.198441
vt 0.050356 0.198441
vt 0.050356 0.198441
vt 0.050356 0.198441
vt 0.050356 0.198441
vt 0.050356 0.198441
vt 0.050356 0.198441
vt 0.050356 0.198441
vt 0.050356 0.198441
vt 0.050356 0.198441
vt 0.050356 0.198441
vt 0.050356 0.198441
vt 0.050356 0.198441
vt 0.050356 0.198441
vt 0.050356 0.198441
vt 0.050356 0.198441
vt 0.050356 0.198441
vt 0.050356 0.198441
vt 0.050356 0.198441
vt 0.050356 0.198441
vt 0.050356 0.198441
vt 0.050356 0.198441
vt 0.050356 0.198441
vt 0.050356 0.198441
vt 0.050356 0.198441
vt 0.050356 0.198441
vt 0.050356 0.198441
vt 0.050356 0.198441
vt 0.050356 0.198441
vt 0.050356 0.198441
vt 0.050356 0.198441
vt 0.050356 0.198441
vt 0.050356 0.198441
vt 0.050356 0.198441
vt 0.050356 0.198441
vt 0.050356 0.198441
vt 0.050356 0.198441
vt 0.050356 0.198441
vt 0.050356 0.198441
vt 0.050356 0.198441
vt 0.050356 0.198441
vt 0.050356 0.198441
vt 0.050356 0.198441
vt 0.050356 0.198441
vt 0.050356 0.198441
vt 0.050356 0.198441
vt 0.050356 0.198441
vt 0.050356 0.198441
vt 0.050356 0.198441
vt 0.050356 0.198441
vt 0.050356 0.198441
vt 0.050356 0.198441
vt 0.050356 0.198441
vt 0.050356 0.198441
vt 0.050356 0.198441
vt 0.050356 0.198441
vt 0.050356 0.198441
vt 0.050356 0.198441
vt 0.050356 0.198441
vt 0.050356 0.198441
vt 0.050356 0.198441
vt 0.050356 0.198441
vt 0.050356 0.198441
vt 0.050356 0.198441
vt 0.050356 0.198441
vt 0.050356 0.198441
vt 0.050356 0.198441
vt 0.050356 0.198441
vt 0.050356 0.198441
vt 0.050356 0.198441
vt 0.050356 0.198441
vt 0.050356 0.198441
vt 0.050356 0.198441
vt 0.050356 0.198441
vt 0.050356 0.198441
vt 0.050356 0.198441
vt 0.050356 0.198441
vt 0.050356 0.198441
vt 0.050356 0.198441
vt 0.050356 0.198441
vt 0.050356 0.198441
vt 0.050356 0.198441
vt 0.050356 0.198441
vt 0.050356 0.198441
vt 0.050356 0.198441
vt 0.050356 0.198441
vt 0.050356 0.198441
vt 0.050356 0.198441
vt 0.050356 0.198441
vt 0.050356 0.198441
vt 0.050356 0.198441
vt 0.050356 0.198441
vt 0.050356 0.198441
vt 0.050356 0.198441
vt 0.050356 0.198441
vt 0.050356 0.198441
vt 0.050356 0.198441
vt 0.050356 0.198441
vt 0.050356 0.198441
vt 0.050356 0.198441
vt 0.050356 0.198441
vt 0.050356 0.198441
vt 0.050356 0.198441
vt 0.050356 0.198441
vt 0.050356 0.198441
vt 0.050356 0.198441
vt 0.050356 0.198441
vt 0.050356 0.198441
vt 0.050356 0.198441
vt 0.050356 0.198441
vt 0.050356 0.198441
vt 0.050356 0.198441
vt 0.050356 0.198441
vt 0.050356 0.198441
vt 0.050356 0.198441
vt 0.050356 0.198441
vt 0.050356 0.198441
vt 0.050356 0.198441
vt 0.050356 0.198441
vt 0.050356 0.198441
vt 0.050356 0.198441
vt 0.050356 0.198441
vt 0.050356 0.198441
vt 0.050356 0.198441
vt 0.050356 0.198441
vt 0.050356 0.198441
vt 0.050356 0.198441
vt 0.050356 0.198441
vt 0.050356 0.198441
vt 0.050356 0.198441
vt 0.050356 0.198441
vt 0.050356 0.198441
vt 0.050356 0.198441
vt 0.050356 0.198441
vt 0.050356 0.198441
vt 0.050356 0.198441
vt 0.050356 0.198441
vt 0.050356 0.198441
vt 0.050356 0.198441
vt 0.050356 0.198441
vt 0.050356 0.198441
vt 0.050356 0.198441
vt 0.050356 0.198441
vt 0.050356 0.198441
vt 0.050356 0.198441
vt 0.050356 0.198441
vt 0.050356 0.198441
vt 0.050356 0.198441
vt 0.050356 0.198441
vt 0.050356 0.198441
vt 0.050356 0.198441
vt 0.050356 0.198441
vt 0.050356 0.198441
vt 0.050356 0.198441
vt 0.050356 0.198441
vt 0.050356 0.198441
vt 0.050356 0.198441
vt 0.050356 0.198441
vt 0.050356 0.198441
vt 0.050356 0.198441
vt 0.050356 0.198441
vt 0.050356 0.198441
vt 0.050356 0.198441
vt 0.050356 0.198441
vt 0.050356 0.198441
vt 0.050356 0.198441
vt 0.050356 0.198441
vt 0.050356 0.198441
vt 0.050356 0.198441
vt 0.050356 0.198441
vt 0.050356 0.198441
vt 0.050356 0.198441
vt 0.050356 0.198441
vt 0.050356 0.198441
vt 0.050356 0.198441
vt 0.050356 0.198441
vt 0.050356 0.198441
vt 0.050356 0.198441
vt 0.050356 0.198441
vt 0.050356 0.198441
vt 0.050356 0.198441
vt 0.050356 0.198441
vt 0.050356 0.198441
vt 0.050356 0.198441
vt 0.050356 0.198441
vt 0.050356 0.198441
vt 0.050356 0.198441
vt 0.050356 0.198441
vt 0.050356 0.198441
vt 0.050356 0.198441
vt 0.050356 0.198441
vt 0.050356 0.198441
vt 0.050356 0.198441
vt 0.050356 0.198441
vt 0.050356 0.198441
vt 0.050356 0.198441
vt 0.050356 0.198441
vt 0.050356 0.198441
vt 0.050356 0.198441
vt 0.050356 0.198441
vt 0.050356 0.198441
vt 0.050356 0.198441
vt 0.050356 0.198441
vt 0.050356 0.198441
vt 0.050356 0.198441
vt 0.050356 0.198441
vt 0.050356 0.198441
vt 0.050356 0.198441
vt 0.050356 0.198441
vt 0.050356 0.198441
vt 0.050356 0.198441
vt 0.050356 0.198441
vt 0.050356 0.198441
vt 0.050356 0.198441
vt 0.050356 0.198441
vt 0.050356 0.198441
vt 0.050356 0.198441
vt 0.050356 0.198441
vt 0.050356 0.198441
vt 0.050356 0.198441
vt 0.050356 0.198441
vt 0.050356 0.198441
vt 0.050356 0.198441
vt 0.050356 0.198441
vt 0.050356 0.198441
vt 0.050356 0.198441
vt 0.050356 0.198441
vt 0.050356 0.198441
vt 0.050356 0.198441
vt 0.050356 0.198441
vt 0.050356 0.198441
vt 0.050356 0.198441
vt 0.050356 0.198441
vt 0.050356 0.198441
vt 0.050356 0.198441
vt 0.050356 0.198441
vt 0.050356 0.198441
vt 0.050356 0.198441
vt 0.050356 0.198441
vt 0.050356 0.198441
vt 0.050356 0.198441
vt 0.050356 0.198441
vt 0.050356 0.198441
vt 0.050356 0.198441
vt 0.050356 0.198441
vt 0.050356 0.198441
vt 0.050356 0.198441
vt 0.050356 0.198441
vt 0.050356 0.198441
vt 0.050356 0.198441
vt 0.050356 0.198441
vt 0.050356 0.198441
vt 0.050356 0.198441
vt 0.050356 0.198441
vt 0.050356 0.198441
vt 0.050356 0.198441
vt 0.050356 0.198441
vt 0.050356 0.198441
vt 0.050356 0.198441
vt 0.050356 0.198441
vt 0.050356 0.198441
vt 0.050356 0.198441
vt 0.050356 0.198441
vt 0.050356 0.198441
vt 0.050356 0.198441
vt 0.050356 0.198441
vt 0.050356 0.198441
vt 0.050356 0.198441
vt 0.050356 0.198441
vt 0.050356 0.198441
vt 0.050356 0.198441
vt 0.050356 0.198441
vt 0.050356 0.198441
vt 0.050356 0.198441
vt 0.050356 0.198441
vt 0.050356 0.198441
vt 0.050356 0.198441
vt 0.050356 0.198441
vt 0.050356 0.198441
vt 0.050356 0.198441
vt 0.050356 0.198441
vt 0.050356 0.198441
vt 0.050356 0.198441
vt 0.050356 0.198441
vn 0.859373 -0.300769 -0.413540
vn 0.859373 -0.300769 -0.413540
vn 0.859373 -0.300769 -0.413540
vn 0.859373 -0.300769 -0.413540
vn -0.008772 0.996401 -0.084311
vn -0.092884 0.976712 -0.193407
vn -0.092884 0.976712 -0.193407
vn -0.032272 0.992849 -0.114934
vn -0.525127 -0.739243 0.421617
vn -0.525127 -0.739243 0.421617
vn -0.525127 -0.739243 0.421617
vn -0.525127 -0.739243 0.421617
vn -0.167789 0.124239 -0.977963
vn -0.167789 0.124239 -0.977963
vn -0.167789 0.124239 -0.977963
vn -0.167789 0.124239 -0.977963
vn -0.984186 0.124361 -0.126144
vn -0.984186 0.124361 -0.126144
vn -0.984186 0.124361 -0.126144
vn -0.984186 0.124361 -0.126144
vn -0.008772 0.996401 -0.084311
vn -0.032272 0.992849 -0.114934
vn 0.082540 0.995947 0.035718
vn 0.082540 0.995947 0.035718
vn 0.889464 -0.455157 -0.041056
vn 0.889464 -0.455157 -0.041056
vn 0.889464 -0.455158 -0.041056
vn 0.889464 -0.455157 -0.041056
vn -0.605110 -0.769439 -0.204465
vn -0.605110 -0.769439 -0.204465
vn -0.605110 -0.769439 -0.204465
vn -0.605110 -0.769439 -0.204465
vn -0.736577 0.051588 0.674383
vn -0.562604 0.136856 0.815320
vn 0.695469 0.359867 0.621948
vn 0.695469 0.359867 0.621948
vn -0.736577 0.051588 0.674383
vn -0.859958 -0.029966 0.509484
vn -0.859958 -0.029966 0.509484
vn -0.562604 0.136856 0.815320
vn 0.258864 0.913036 0.315205
vn 0.258864 0.913036 0.315205
vn 0.258864 0.913036 0.315205
vn 0.258864 0.913036 0.315205
vn -0.870279 0.463978 0.165344
vn -0.839383 0.440639 0.318236
vn -0.839383 0.440639 0.318236
vn -0.862255 0.457377 0.217536
vn 0.962313 0.160078 -0.219838
vn 0.962313 0.160078 -0.219838
vn 0.962313 0.160078 -0.219838
vn 0.962313 0.160078 -0.219838
vn -0.190756 0.655816 -0.730423
vn -0.190756 0.655816 -0.730423
vn -0.190756 0.655816 -0.730423
vn -0.190756 0.655816 -0.730423
vn -0.332795 -0.855715 -0.396231
vn -0.332795 -0.855715 -0.396231
vn -0.332795 -0.855715 -0.396231
vn -0.332795 -0.855715 -0.396231
vn -0.870279 0.463978 0.165344
vn -0.862255 0.457377 0.217536
vn -0.876742 0.477219 -0.059876
vn -0.876742 0.477219 -0.059876
vn 0.432076 0.871863 0.230578
vn 0.432076 0.871863 0.230578
vn 0.432076 0.871863 0.230578
vn 0.432076 0.871863 0.230578
vn 0.995347 0.061060 0.074542
vn 0.995347 0.061060 0.074542
vn 0.995347 0.061060 0.074542
vn 0.995347 0.061060 0.074542
vn -0.231751 -0.961630 -0.146829
vn -0.232607 -0.968893 -0.084503
vn 0.034362 0.085105 0.995779
vn 0.034362 0.085105 0.995779
vn -0.231751 -0.961630 -0.146829
vn -0.228965 -0.944799 -0.234371
vn -0.228965 -0.944799 -0.234371
vn -0.232607 -0.968893 -0.084503
vn 0.413890 0.578803 -0.702625
vn 0.413890 0.578803 -0.702625
vn 0.413890 0.578803 -0.702625
vn 0.089150 -0.103674 -0.990608
vn 0.089150 -0.103674 -0.990608
vn 0.089150 -0.103674 -0.990608
vn 0.089150 -0.103674 -0.990608
vn 0.091513 -0.105843 -0.990163
vn 0.091513 -0.105843 -0.990163
vn 0.091513 -0.105843 -0.990163
vn 0.532129 0.706422 -0.466698
vn 0.532129 0.706422 -0.466698
vn 0.532129 0.706422 -0.466698
vn 0.225258 0.881566 0.414851
vn 0.225258 0.881566 0.414851
vn 0.225258 0.881566 0.414851
vn 0.204606 0.741655 0.638815
vn 0.204606 0.741655 0.638815
vn 0.204606 0.741655 0.638815
vn 0.683740 -0.010889 0.729644
vn 0.683740 -0.010889 0.729644
vn 0.683740 -0.010889 0.729644
vn 0.683740 -0.010889 0.729644
vn 0.880424 -0.466890 0.082868
vn 0.880424 -0.466890 0.082868
vn 0.880424 -0.466890 0.082868
vn 0.880424 -0.466890 0.082868
vn 0.861999 0.222607 0.455417
vn 0.861999 0.222607 0.455417
vn 0.861999 0.222607 0.455417
vn 0.956435 -0.237777 -0.169392
vn 0.956435 -0.237777 -0.169392
vn 0.956435 -0.237777 -0.169392
vn 0.991375 -0.064989 -0.113810
vn 0.991375 -0.064989 -0.113810
vn 0.991375 -0.064989 -0.113810
vn 0.981803 0.168019 0.088503
vn 0.981803 0.168019 0.088503
vn 0.981803 0.168019 0.088503
vn 0.716618 -0.108128 0.689033
vn 0.716618 -0.108128 0.689033
vn 0.716618 -0.108128 0.689033
vn -0.114894 0.948896 -0.293930
vn -0.114894 0.948896 -0.293930
vn -0.114894 0.948896 -0.293930
vn 0.210955 0.520826 -0.827187
vn 0.210955 0.520826 -0.827187
vn 0.210955 0.520826 -0.827187
vn 0.210955 0.520826 -0.827187
vn 0.213384 0.568985 -0.794181
vn 0.213384 0.568985 -0.794181
vn 0.213384 0.568985 -0.794181
vn -0.116325 0.969222 -0.216971
vn -0.116325 0.969222 -0.216971
vn -0.116325 0.969222 -0.216971
vn 0.331279 0.768988 0.546728
vn 0.331278 0.768988 0.546728
vn 0.331278 0.768989 0.546728
vn 0.198315 0.926175 0.320736
vn 0.198315 0.926175 0.320736
vn 0.198315 0.926175 0.320736
vn 0.325439 0.765209 0.555468
vn 0.325439 0.765209 0.555468
vn 0.325439 0.765209 0.555468
vn 0.336862 0.767655 0.545188
vn 0.336862 0.767655 0.545187
vn 0.336862 0.767655 0.545188
vn 0.940825 0.235404 -0.243789
vn 0.940825 0.235404 -0.243789
vn 0.940825 0.235404 -0.243789
vn 0.940825 0.235404 -0.243789
vn 0.856678 -0.287913 -0.428030
vn 0.856678 -0.287913 -0.428030
vn 0.856678 -0.287913 -0.428030
vn 0.660522 -0.262676 0.703358
vn 0.660522 -0.262676 0.703358
vn 0.660522 -0.262676 0.703358
vn 0.660522 -0.262676 0.703358
vn 0.598564 -0.748319 -0.285901
vn 0.598564 -0.748319 -0.285901
vn 0.598564 -0.748319 -0.285901
vn 0.598564 -0.748319 -0.285901
vn 0.608945 -0.789957 -0.071788
vn 0.608945 -0.789957 -0.071788
vn 0.608945 -0.789957 -0.071788
vn 0.608945 -0.789957 -0.071788
vn 0.972129 -0.224310 -0.068193
vn 0.972129 -0.224310 -0.068193
vn 0.972129 -0.224310 -0.068193
vn 0.972129 -0.224310 -0.068193
vn 0.932441 0.078176 0.352763
vn 0.932441 0.078176 0.352763
vn 0.932441 0.078176 0.352763
vn 0.932441 0.078176 0.352763
vn 0.820073 -0.063964 0.568674
vn 0.820073 -0.063964 0.568674
vn 0.820073 -0.063964 0.568674
vn 0.820073 -0.063964 0.568674
vn 0.464485 0.321545 -0.825144
vn 0.464485 0.321545 -0.825144
vn 0.464485 0.321545 -0.825144
vn 0.354914 -0.435763 -0.827131
vn 0.354914 -0.435763 -0.827131
vn 0.354914 -0.435763 -0.827131
vn 0.354914 -0.435763 -0.827131
vn 0.194627 -0.390326 -0.899870
vn 0.194627 -0.390326 -0.899870
vn 0.194627 -0.390326 -0.899870
vn 0.194627 -0.390326 -0.899870
vn 0.694487 -0.336921 0.635746
vn 0.694487 -0.336921 0.635746
vn 0.694487 -0.336921 0.635746
vn 0.876107 -0.449746 -0.173683
vn 0.876107 -0.449746 -0.173683
vn 0.876107 -0.449746 -0.173683
vn 0.976994 -0.112553 -0.181148
vn 0.976994 -0.112553 -0.181148
vn 0.976994 -0.112553 -0.181148
vn 0.976994 -0.112553 -0.181148
vn -0.103792 -0.609637 0.785856
vn -0.103792 -0.609637 0.785856
vn -0.103792 -0.609637 0.785856
vn -0.103792 -0.609637 0.785856
vn -0.001034 0.802106 0.597181
vn -0.001034 0.802106 0.597181
vn -0.001034 0.802106 0.597181
vn -0.001034 0.802106 0.597181
vn -0.001034 0.802106 0.597181
vn 0.360900 0.854621 -0.373328
vn 0.360900 0.854621 -0.373328
vn 0.360900 0.854621 -0.373328
vn 0.153003 0.882266 -0.445192
vn 0.153003 0.882267 -0.445192
vn 0.153003 0.882266 -0.445192
vn 0.322262 0.735707 -0.595720
vn 0.322262 0.735707 -0.595720
vn 0.322262 0.735707 -0.595720
vn 0.322262 0.735707 -0.595720
vn 0.198094 0.613533 -0.764419
vn 0.198094 0.613533 -0.764419
vn 0.198094 0.613533 -0.764419
vn 0.198094 0.613533 -0.764419
vn 0.015505 0.994049 -0.107827
vn 0.015505 0.994049 -0.107827
vn 0.015505 0.994049 -0.107827
vn 0.257454 0.933343 -0.250175
vn 0.257454 0.933343 -0.250175
vn 0.257454 0.933343 -0.250175
vn 0.399439 0.501625 0.767347
vn 0.399439 0.501625 0.767347
vn 0.399439 0.501625 0.767347
vn 0.664092 -0.697365 0.269560
vn 0.664092 -0.697365 0.269560
vn 0.664092 -0.697366 0.269560
vn 0.664092 -0.697365 0.269560
vn 0.578817 -0.434520 0.690046
vn 0.578817 -0.434520 0.690046
vn 0.578817 -0.434520 0.690046
vn 0.578817 -0.434520 0.690046
vn 0.420492 0.256029 0.870423
vn 0.420492 0.256029 0.870423
vn 0.420492 0.256029 0.870423
vn 0.021568 0.941855 -0.335328
vn 0.021568 0.941855 -0.335328
vn 0.021568 0.941855 -0.335328
vn 0.615721 0.546815 0.567346
vn 0.615721 0.546815 0.567346
vn 0.615721 0.546815 0.567346
vn 0.615721 0.546815 0.567346
vn 0.665599 0.745802 0.027518
vn 0.665599 0.745802 0.027518
vn 0.665600 0.745802 0.027518
vn 0.665599 0.745802 0.027518
vn 0.910747 -0.406126 -0.074851
vn 0.910747 -0.406126 -0.074851
vn 0.910747 -0.406126 -0.074851
vn 0.959255 -0.258583 -0.113864
vn 0.959255 -0.258583 -0.113864
vn 0.959255 -0.258583 -0.113864
vn 0.959255 -0.258583 -0.113864
vn 0.939881 0.005975 -0.341451
vn 0.939881 0.005975 -0.341451
vn 0.939881 0.005975 -0.341451
vn 0.939881 0.005975 -0.341451
vn 0.393303 0.198749 -0.897670
vn 0.393303 0.198749 -0.897670
vn 0.393303 0.198749 -0.897670
vn 0.783777 -0.621035 -0.003142
vn 0.783777 -0.621035 -0.003142
vn 0.783777 -0.621035 -0.003142
vn 0.885688 -0.160950 -0.435491
vn 0.885688 -0.160950 -0.435491
vn 0.885688 -0.160950 -0.435491
vn 0.885688 -0.160950 -0.435491
vn 0.360187 0.046607 -0.931715
vn 0.360187 0.046607 -0.931715
vn 0.360187 0.046607 -0.931715
vn 0.969931 0.048273 -0.238544
vn 0.969931 0.048273 -0.238544
vn 0.969931 0.048273 -0.238544
vn 0.188978 0.600532 -0.776948
vn 0.188978 0.600532 -0.776948
vn 0.188978 0.600532 -0.776948
vn 0.919000 -0.373818 -0.125293
vn 0.919000 -0.373818 -0.125293
vn 0.919000 -0.373818 -0.125293
vn 0.919000 -0.373818 -0.125293
vn 0.140505 -0.971435 -0.191240
vn 0.140505 -0.971435 -0.191240
vn 0.140505 -0.971435 -0.191240
vn 0.140505 -0.971435 -0.191240
vn -0.713888 0.689401 -0.122844
vn -0.713888 0.689401 -0.122844
vn -0.713888 0.689401 -0.122844
vn -0.713888 0.689401 -0.122844
vn 0.695057 -0.496613 0.519876
vn 0.695057 -0.496613 0.519876
vn 0.695057 -0.496613 0.519876
vn 0.695057 -0.496613 0.519876
vn 0.846861 -0.381816 -0.370194
vn 0.846861 -0.381816 -0.370194
vn 0.846861 -0.381816 -0.370194
vn 0.846861 -0.381816 -0.370194
vn -0.129719 -0.438888 -0.889129
vn -0.129719 -0.438888 -0.889129
vn -0.129719 -0.438888 -0.889129
vn -0.129719 -0.438888 -0.889129
vn -0.960759 0.139465 0.239774
vn -0.960759 0.139465 0.239774
vn -0.960759 0.139465 0.239774
vn -0.960759 0.139465 0.239774
vn 0.142918 0.255864 0.956090
vn 0.142918 0.255864 0.956090
vn 0.142918 0.255864 0.956090
vn 0.142918 0.255864 0.956090
vn 0.427667 -0.311021 -0.848744
vn 0.427667 -0.311021 -0.848744
vn 0.427667 -0.311021 -0.848744
vn 0.389133 -0.381030 -0.838685
vn 0.389133 -0.381030 -0.838685
vn 0.389133 -0.381030 -0.838685
vn 0.343087 -0.044464 -0.938251
vn 0.343087 -0.044464 -0.938251
vn 0.343087 -0.044464 -0.938251
vn 0.343087 -0.044464 -0.938251
vn 0.150735 0.211309 -0.965727
vn 0.150735 0.211309 -0.965727
vn 0.150735 0.211309 -0.965727
vn 0.432600 -0.852791 -0.292584
vn 0.432600 -0.852791 -0.292584
vn 0.432600 -0.852791 -0.292584
vn -0.128331 -0.630586 -0.765436
vn -0.128331 -0.630586 -0.765436
vn -0.128331 -0.630586 -0.765436
vn -0.128331 -0.630586 -0.765436
vn -0.301802 -0.354100 -0.885172
vn -0.301802 -0.354100 -0.885172
vn -0.301802 -0.354100 -0.885172
vn -0.301802 -0.354100 -0.885172
vn -0.378266 -0.284418 -0.880920
vn -0.378266 -0.284418 -0.880920
vn -0.378266 -0.284418 -0.880921
vn 0.124579 -0.550313 -0.825612
vn 0.124579 -0.550313 -0.825612
vn 0.124579 -0.550313 -0.825612
vn 0.124579 -0.550313 -0.825612
vn -0.158558 -0.667067 -0.727929
vn -0.158558 -0.667067 -0.727929
vn -0.158558 -0.667067 -0.727929
vn 0.449820 -0.891479 0.054102
vn 0.449820 -0.891479 0.054102
vn 0.449820 -0.891479 0.054102
vn -0.478650 -0.501122 -0.720951
vn -0.478650 -0.501122 -0.720951
vn -0.478650 -0.501122 -0.720951
vn -0.341577 -0.654357 -0.674643
vn -0.341577 -0.654357 -0.674643
vn -0.341577 -0.654357 -0.674643
vn 0.495091 0.379155 0.781746
vn 0.495091 0.379155 0.781746
vn 0.495091 0.379155 0.781746
vn 0.495091 0.379155 0.781746
vn -0.005752 -0.234009 0.972217
vn -0.005752 -0.234009 0.972218
vn -0.005752 -0.234009 0.972217
vn 0.331385 -0.048515 0.942248
vn 0.331385 -0.048515 0.942248
vn 0.331385 -0.048515 0.942248
vn 0.219502 0.709880 0.669245
vn 0.219502 0.709880 0.669245
vn 0.219502 0.709880 0.669245
vn -0.166229 -0.183926 0.968782
vn -0.166229 -0.183926 0.968782
vn -0.166229 -0.183926 0.968782
vn -0.166229 -0.183926 0.968782
vn 0.453909 0.723116 0.520644
vn 0.453909 0.723116 0.520644
vn 0.453909 0.723116 0.520644
vn 0.258431 0.964797 -0.048787
vn 0.258431 0.964797 -0.048787
vn 0.258431 0.964797 -0.048787
vn 0.181877 0.983315 -0.003580
vn 0.181877 0.983315 -0.003580
vn 0.181877 0.983315 -0.003580
vn 0.382938 0.897571 -0.218459
vn 0.382938 0.897571 -0.218459
vn 0.382938 0.897571 -0.218459
vn 0.382938 0.897571 -0.218459
vn 0.432369 0.688074 -0.582762
vn 0.432369 0.688074 -0.582762
vn 0.432369 0.688074 -0.582762
vn 0.420453 0.738022 -0.527771
vn 0.420453 0.738022 -0.527771
vn 0.420453 0.738022 -0.527771
vn 0.236495 0.447009 -0.862701
vn 0.236495 0.447009 -0.862701
vn 0.236495 0.447009 -0.862701
vn -0.559599 -0.610114 0.560901
vn -0.559599 -0.610114 0.560901
vn -0.559599 -0.610114 0.560901
vn -0.559599 -0.610114 0.560901
vn 0.141431 -0.882777 0.447999
vn 0.141431 -0.882777 0.447999
vn 0.141431 -0.882777 0.447999
vn 0.141431 -0.882777 0.447999
vn -0.019686 -0.628811 0.777309
vn -0.019686 -0.628811 0.777309
vn -0.019686 -0.628811 0.777309
vn -0.019686 -0.628811 0.777309
vn 0.187991 -0.247269 0.950535
vn 0.187991 -0.247269 0.950535
vn 0.187991 -0.247269 0.950535
vn 0.187991 -0.247269 0.950535
vn 0.152490 -0.486548 0.860243
vn 0.152490 -0.486548 0.860243
vn 0.152490 -0.486549 0.860243
vn 0.152490 -0.486548 0.860243
vn -0.165633 -0.548399 0.819649
vn -0.165633 -0.548399 0.819649
vn -0.165633 -0.548399 0.819649
vn -0.165633 -0.548399 0.819649
vn 0.387199 -0.659777 0.644027
vn 0.387199 -0.659777 0.644027
vn 0.387199 -0.659777 0.644027
vn 0.387199 -0.659777 0.644027
vn 0.535391 -0.754432 0.379721
vn 0.535391 -0.754432 0.379721
vn 0.535391 -0.754432 0.379721
vn 0.535391 -0.754433 0.379721
vn 0.630083 -0.324227 0.705601
vn 0.630083 -0.324227 0.705601
vn 0.630083 -0.324227 0.705601
vn 0.630083 -0.324227 0.705601
vn -0.590583 0.315899 -0.742576
vn -0.590583 0.315899 -0.742576
vn -0.590583 0.315899 -0.742576
vn -0.133800 -0.118533 -0.983894
vn -0.133800 -0.118533 -0.983894
vn -0.133800 -0.118533 -0.983894
vn -0.133800 -0.118533 -0.983894
vn -0.108660 -0.053454 -0.992641
vn -0.108660 -0.053454 -0.992641
vn -0.108660 -0.053454 -0.992641
vn -0.804679 0.404065 -0.434997
vn -0.804679 0.404065 -0.434997
vn -0.804679 0.404065 -0.434997
vn -0.176357 0.796049 0.578969
vn -0.176357 0.796049 0.578969
vn -0.176357 0.796049 0.578969
vn -0.171297 0.760874 0.625882
vn -0.171297 0.760874 0.625882
vn -0.171297 0.760874 0.625882
vn -0.681867 0.054471 0.729445
vn -0.681867 0.054471 0.729445
vn -0.681867 0.054471 0.729445
vn -0.681867 0.054471 0.729445
vn -0.880424 -0.466891 0.082869
vn -0.880424 -0.466891 0.082869
vn -0.880424 -0.466891 0.082869
vn -0.880424 -0.466891 0.082869
vn -0.897306 0.337891 0.284027
vn -0.897306 0.337891 0.284027
vn -0.897306 0.337891 0.284027
vn -0.963839 -0.212037 -0.161414
vn -0.963839 -0.212036 -0.161414
vn -0.963839 -0.212037 -0.161414
vn -0.993528 -0.041272 -0.105825
vn -0.993528 -0.041272 -0.105825
vn -0.993528 -0.041272 -0.105825
vn -0.981913 0.183472 0.046749
vn -0.981913 0.183472 0.046749
vn -0.981913 0.183472 0.046749
vn -0.716620 -0.108129 0.689031
vn -0.716621 -0.108129 0.689031
vn -0.716620 -0.108129 0.689031
vn 0.128665 0.910981 -0.391865
vn 0.128665 0.910981 -0.391865
vn 0.128665 0.910981 -0.391865
vn -0.231532 0.524000 -0.819645
vn -0.231532 0.524000 -0.819645
vn -0.231532 0.524000 -0.819645
vn -0.231532 0.524000 -0.819645
vn -0.281387 0.544110 -0.790421
vn -0.281387 0.544110 -0.790421
vn -0.281387 0.544110 -0.790421
vn 0.127785 0.977827 -0.165909
vn 0.127785 0.977827 -0.165909
vn 0.127785 0.977827 -0.165909
vn -0.314197 0.715835 0.623587
vn -0.314197 0.715835 0.623587
vn -0.314197 0.715835 0.623587
vn -0.035951 0.966806 0.252968
vn -0.035951 0.966806 0.252968
vn -0.035951 0.966806 0.252968
vn -0.596968 0.735083 0.321376
vn -0.596968 0.735083 0.321376
vn -0.596968 0.735083 0.321376
vn -0.440711 0.705748 0.554701
vn -0.440711 0.705748 0.554701
vn -0.440711 0.705748 0.554701
vn -0.898218 0.371524 -0.234893
vn -0.898218 0.371524 -0.234893
vn -0.898218 0.371524 -0.234893
vn -0.898218 0.371524 -0.234893
vn -0.818513 -0.316596 -0.479379
vn -0.818513 -0.316596 -0.479379
vn -0.818513 -0.316596 -0.479379
vn -0.656450 -0.251111 0.711348
vn -0.656450 -0.251111 0.711348
vn -0.656450 -0.251111 0.711348
vn -0.656450 -0.251111 0.711348
vn -0.592855 -0.745134 -0.305447
vn -0.592855 -0.745134 -0.305447
vn -0.592855 -0.745134 -0.305447
vn -0.592855 -0.745134 -0.305447
vn -0.608947 -0.789956 -0.071781
vn -0.608947 -0.789956 -0.071781
vn -0.608947 -0.789956 -0.071781
vn -0.608947 -0.789956 -0.071781
vn -0.967253 -0.249933 -0.044217
vn -0.967253 -0.249933 -0.044217
vn -0.967253 -0.249933 -0.044217
vn -0.967253 -0.249933 -0.044217
vn -0.900184 0.204072 0.384738
vn -0.900184 0.204072 0.384738
vn -0.900184 0.204072 0.384738
vn -0.900184 0.204072 0.384738
vn -0.478235 -0.878089 -0.015859
vn -0.478235 -0.878089 -0.015859
vn -0.478235 -0.878089 -0.015859
vn -0.085948 -0.916463 -0.390780
vn -0.085948 -0.916463 -0.390780
vn -0.085948 -0.916463 -0.390780
vn -0.436396 -0.498138 -0.749278
vn -0.436396 -0.498138 -0.749278
vn -0.436396 -0.498138 -0.749278
vn -0.436396 -0.498138 -0.749278
vn -0.226486 -0.335443 -0.914430
vn -0.226486 -0.335443 -0.914430
vn -0.226486 -0.335443 -0.914430
vn -0.226486 -0.335443 -0.914430
vn -0.694488 -0.336922 0.635743
vn -0.694488 -0.336922 0.635743
vn -0.694488 -0.336922 0.635743
vn -0.876647 -0.448689 -0.173691
vn -0.876647 -0.448689 -0.173691
vn -0.876647 -0.448689 -0.173691
vn -0.966653 -0.081633 -0.242730
vn -0.966653 -0.081633 -0.242730
vn -0.966653 -0.081633 -0.242730
vn -0.966653 -0.081633 -0.242730
vn 0.238369 -0.351825 0.905207
vn 0.238369 -0.351825 0.905207
vn 0.238369 -0.351825 0.905207
vn 0.238369 -0.351825 0.905207
vn 0.163260 0.768061 0.619217
vn 0.163260 0.768061 0.619217
vn 0.163260 0.768061 0.619217
vn 0.163260 0.768061 0.619217
vn 0.163260 0.768061 0.619217
vn -0.128043 0.973558 -0.189180
vn -0.128043 0.973558 -0.189180
vn -0.128043 0.973558 -0.189180
vn 0.213510 0.864320 -0.455373
vn 0.213510 0.864320 -0.455373
vn 0.213510 0.864320 -0.455373
vn 0.048767 0.774485 -0.630709
vn 0.048767 0.774485 -0.630709
vn 0.048767 0.774485 -0.630709
vn 0.048767 0.774485 -0.630709
vn -0.217669 0.669868 -0.709857
vn -0.217669 0.669868 -0.709857
vn -0.217669 0.669868 -0.709857
vn -0.217669 0.669868 -0.709857
vn -0.083236 0.989596 0.117352
vn -0.083236 0.989596 0.117352
vn -0.083236 0.989596 0.117352
vn -0.504460 0.815552 -0.283540
vn -0.504460 0.815552 -0.283540
vn -0.504460 0.815552 -0.283540
vn -0.474695 0.557038 0.681449
vn -0.474695 0.557038 0.681449
vn -0.474695 0.557038 0.681449
vn -0.664094 -0.697364 0.269561
vn -0.664094 -0.697364 0.269561
vn -0.664094 -0.697364 0.269561
vn -0.664094 -0.697364 0.269561
vn -0.578817 -0.434519 0.690046
vn -0.578817 -0.434519 0.690046
vn -0.578817 -0.434519 0.690046
vn -0.578817 -0.434519 0.690046
vn -0.420495 0.256031 0.870420
vn -0.420495 0.256031 0.870420
vn -0.420495 0.256031 0.870421
vn -0.174213 0.876364 -0.449039
vn -0.174213 0.876364 -0.449039
vn -0.174213 0.876364 -0.449039
vn -0.590526 0.605328 0.533720
vn -0.590526 0.605328 0.533720
vn -0.590526 0.605328 0.533720
vn -0.590526 0.605328 0.533720
vn -0.627872 0.776389 -0.054746
vn -0.627872 0.776389 -0.054746
vn -0.627872 0.776389 -0.054746
vn -0.627872 0.776389 -0.054746
vn -0.910747 -0.406126 -0.074848
vn -0.910747 -0.406126 -0.074848
vn -0.910747 -0.406126 -0.074848
vn -0.970512 -0.214086 -0.110786
vn -0.970512 -0.214086 -0.110786
vn -0.970512 -0.214086 -0.110786
vn -0.970512 -0.214086 -0.110786
vn -0.896816 0.167420 -0.409501
vn -0.896816 0.167420 -0.409501
vn -0.896817 0.167420 -0.409501
vn -0.896816 0.167420 -0.409501
vn -0.408317 0.269925 -0.872020
vn -0.408317 0.269925 -0.872020
vn -0.408317 0.269925 -0.872020
vn -0.785724 -0.617465 -0.037095
vn -0.785724 -0.617465 -0.037095
vn -0.785724 -0.617465 -0.037095
vn -0.863239 -0.161249 -0.478348
vn -0.863239 -0.161249 -0.478348
vn -0.863239 -0.161249 -0.478348
vn -0.863239 -0.161249 -0.478348
vn -0.348274 0.032482 -0.936830
vn -0.348274 0.032482 -0.936830
vn -0.348274 0.032482 -0.936830
vn -0.954520 0.120606 -0.272663
vn -0.954520 0.120606 -0.272663
vn -0.954520 0.120606 -0.272663
vn -0.249224 0.597452 -0.762193
vn -0.249224 0.597452 -0.762193
vn -0.249224 0.597452 -0.762193
vn -0.922464 -0.374351 -0.094454
vn -0.922464 -0.374351 -0.094454
vn -0.922464 -0.374351 -0.094454
vn -0.922464 -0.374351 -0.094454
vn -0.150198 -0.970443 -0.188895
vn -0.150198 -0.970443 -0.188895
vn -0.150198 -0.970443 -0.188895
vn -0.150198 -0.970443 -0.188895
vn 0.626751 0.698312 -0.345751
vn 0.626751 0.698312 -0.345751
vn 0.626751 0.698312 -0.345751
vn 0.626751 0.698312 -0.345751
vn -0.695058 -0.496612 0.519876
vn -0.695058 -0.496612 0.519876
vn -0.695058 -0.496612 0.519876
vn -0.695058 -0.496612 0.519876
vn -0.846861 -0.381817 -0.370193
vn -0.846861 -0.381817 -0.370193
vn -0.846861 -0.381817 -0.370193
vn -0.846861 -0.381817 -0.370193
vn 0.129719 -0.438889 -0.889128
vn 0.129719 -0.438889 -0.889129
vn 0.129719 -0.438889 -0.889128
vn 0.129719 -0.438889 -0.889128
vn 0.960759 0.139465 0.239774
vn 0.960759 0.139465 0.239774
vn 0.960759 0.139465 0.239774
vn 0.960759 0.139465 0.239774
vn -0.142918 0.255864 0.956090
vn -0.142918 0.255864 0.956090
vn -0.142918 0.255864 0.956090
vn -0.142918 0.255864 0.956090
vn -0.427667 -0.311021 -0.848744
vn -0.427667 -0.311021 -0.848744
vn -0.427667 -0.311021 -0.848744
vn -0.342616 -0.347114 -0.872998
vn -0.342616 -0.347114 -0.872998
vn -0.342616 -0.347114 -0.872998
vn -0.273564 -0.030452 -0.961372
vn -0.273564 -0.030452 -0.961372
vn -0.273564 -0.030452 -0.961372
vn -0.273564 -0.030452 -0.961372
vn -0.149305 0.131210 -0.980047
vn -0.149305 0.131210 -0.980047
vn -0.149305 0.131210 -0.980047
vn -0.187771 -0.952520 -0.239683
vn -0.187771 -0.952520 -0.239683
vn -0.187771 -0.952520 -0.239683
vn 0.241900 -0.574541 -0.781912
vn 0.241900 -0.574541 -0.781912
vn 0.241900 -0.574541 -0.781912
vn 0.241900 -0.574541 -0.781912
vn 0.246301 -0.396920 -0.884189
vn 0.246301 -0.396920 -0.884189
vn 0.246301 -0.396920 -0.884189
vn 0.246301 -0.396920 -0.884189
vn 0.403505 -0.318915 -0.857600
vn 0.403505 -0.318915 -0.857600
vn 0.403505 -0.318915 -0.857600
vn -0.032012 -0.626305 -0.778921
vn -0.032012 -0.626305 -0.778921
vn -0.032012 -0.626305 -0.778921
vn -0.032012 -0.626305 -0.778921
vn 0.158557 -0.667063 -0.727933
vn 0.158557 -0.667063 -0.727933
vn 0.158557 -0.667063 -0.727933
vn 0.171238 -0.521749 -0.835737
vn 0.171238 -0.521749 -0.835737
vn 0.171238 -0.521749 -0.835737
vn -0.916111 -0.400476 -0.018957
vn -0.916111 -0.400476 -0.018957
vn -0.916111 -0.400476 -0.018957
vn 0.046216 0.461600 0.885883
vn 0.046216 0.461600 0.885883
vn 0.046216 0.461600 0.885883
vn 0.046216 0.461600 0.885883
vn -0.273009 0.693906 0.666304
vn -0.273009 0.693906 0.666304
vn -0.273009 0.693906 0.666304
vn -0.504454 0.699610 0.506036
vn -0.504454 0.699610 0.506036
vn -0.504454 0.699610 0.506036
vn 0.031122 0.895269 0.444438
vn 0.031122 0.895269 0.444438
vn 0.031122 0.895269 0.444438
vn -0.081358 0.995694 -0.044444
vn -0.081358 0.995694 -0.044444
vn -0.081358 0.995694 -0.044444
vn -0.099917 0.993695 -0.050862
vn -0.099917 0.993695 -0.050862
vn -0.099917 0.993695 -0.050862
vn 0.006724 0.998774 -0.049040
vn 0.006724 0.998774 -0.049040
vn 0.006724 0.998774 -0.049040
vn 0.006724 0.998774 -0.049040
vn 0.125706 0.718149 -0.684441
vn 0.125706 0.718149 -0.684442
vn 0.125706 0.718149 -0.684442
vn 0.076554 0.646448 -0.759108
vn 0.076554 0.646448 -0.759108
vn 0.076554 0.646448 -0.759108
vn 0.306737 0.438642 -0.844693
vn 0.306737 0.438642 -0.844693
vn 0.306737 0.438642 -0.844693
vn -0.094952 -0.804812 0.585886
vn -0.094952 -0.804812 0.585886
vn -0.094952 -0.804812 0.585886
vn -0.094952 -0.804812 0.585886
vn 0.196186 -0.742005 0.641046
vn 0.196186 -0.742005 0.641046
vn 0.196186 -0.742005 0.641046
vn 0.196186 -0.742005 0.641046
vn 0.150526 -0.696496 0.701595
vn 0.150526 -0.696496 0.701595
vn 0.150526 -0.696496 0.701595
vn 0.150526 -0.696496 0.701595
vn -0.245214 -0.383801 0.890262
vn -0.245214 -0.383801 0.890262
vn -0.245214 -0.383801 0.890262
vn -0.245214 -0.383801 0.890262
vn -0.403413 -0.651283 0.642720
vn -0.403413 -0.651283 0.642720
vn -0.403413 -0.651283 0.642720
vn -0.403413 -0.651283 0.642720
vn -0.562806 -0.403054 0.721663
vn -0.562806 -0.403054 0.721663
vn -0.562806 -0.403054 0.721663
vn -0.562806 -0.403054 0.721663
vn -0.887733 -0.378165 0.262529
vn -0.887733 -0.378165 0.262529
vn -0.887733 -0.378165 0.262529
vn -0.887733 -0.378165 0.262529
vn -0.906851 -0.413199 -0.082990
vn -0.906851 -0.413199 -0.082990
vn -0.906851 -0.413199 -0.082990
vn -0.906851 -0.413199 -0.082990
vn -0.411818 -0.829508 -0.377255
vn -0.411818 -0.829508 -0.377255
vn -0.411818 -0.829508 -0.377255
vn -0.411818 -0.829508 -0.377255
vn 0.052128 0.453440 0.889761
vn 0.052128 0.453440 0.889761
vn 0.052128 0.453440 0.889761
vn 0.052128 0.453440 0.889761
vn 0.074503 0.846278 0.527506
vn 0.074503 0.846278 0.527506
vn 0.074503 0.846278 0.527506
vn -0.318666 -0.533334 0.783586
vn -0.318666 -0.533334 0.783586
vn -0.318666 -0.533334 0.783586
vn -0.197220 -0.870666 -0.450605
vn -0.197220 -0.870666 -0.450605
vn -0.197220 -0.870666 -0.450605
vn -0.135645 -0.985630 -0.100667
vn -0.135645 -0.985630 -0.100667
vn -0.135645 -0.985630 -0.100667
vn 0.430100 0.016841 0.902624
vn 0.430100 0.016841 0.902624
vn 0.430100 0.016841 0.902624
vn 0.406051 -0.199196 0.891877
vn 0.406051 -0.199196 0.891877
vn 0.406051 -0.199196 0.891876
vn -0.270283 -0.595697 0.756368
vn -0.270283 -0.595697 0.756368
vn -0.270283 -0.595696 0.756368
vn -0.175693 -0.764992 0.619612
vn -0.175693 -0.764992 0.619612
vn -0.175693 -0.764992 0.619612
vn 0.261593 -0.801906 0.537137
vn 0.261593 -0.801906 0.537137
vn 0.261593 -0.801906 0.537137
vn -0.102745 -0.991629 0.078206
vn -0.102745 -0.991629 0.078206
vn -0.102745 -0.991629 0.078206
vn -0.257601 -0.652685 0.712491
vn -0.257601 -0.652685 0.712491
vn -0.257601 -0.652685 0.712491
vn 0.313200 -0.545093 0.777676
vn 0.313200 -0.545093 0.777676
vn 0.313200 -0.545093 0.777676
vn 0.196467 -0.873337 -0.445740
vn 0.196467 -0.873337 -0.445740
vn 0.196467 -0.873337 -0.445740
vn 0.135634 -0.985627 -0.100715
vn 0.135634 -0.985627 -0.100715
vn 0.135634 -0.985627 -0.100715
vn -0.425866 0.008297 0.904748
vn -0.425866 0.008297 0.904748
vn -0.425866 0.008297 0.904748
vn -0.413216 -0.123643 0.902200
vn -0.413216 -0.123643 0.902200
vn -0.413216 -0.123643 0.902200
vn 0.269008 -0.601136 0.752510
vn 0.269008 -0.601136 0.752510
vn 0.269008 -0.601136 0.752509
vn 0.175693 -0.765007 0.619593
vn 0.175693 -0.765007 0.619593
vn 0.175693 -0.765008 0.619593
vn -0.254270 -0.801959 0.540563
vn -0.254270 -0.801959 0.540563
vn -0.254270 -0.801959 0.540563
vn 0.102734 -0.991629 0.078211
vn 0.102734 -0.991629 0.078211
vn 0.102734 -0.991629 0.078211
vn 0.257577 -0.652691 0.712495
vn 0.257577 -0.652691 0.712495
vn 0.257577 -0.652691 0.712495
vn 0.236133 -0.629831 0.739969
vn 0.236133 -0.629831 0.739969
vn 0.236133 -0.629831 0.739969
vn 0.236133 -0.629831 0.739969
vn -0.236131 -0.629828 0.739972
vn -0.236131 -0.629828 0.739972
vn -0.236131 -0.629828 0.739972
vn -0.236131 -0.629828 0.739972
vn 0.054144 -0.989315 0.135369
vn 0.054144 -0.989315 0.135369
vn 0.054144 -0.989315 0.135369
vn 0.054144 -0.989315 0.135369
vn -0.026426 -0.999577 -0.012183
vn -0.026426 -0.999577 -0.012183
vn -0.026426 -0.999577 -0.012183
vn -0.026426 -0.999577 -0.012183
vn 0.031166 -0.999089 0.029156
vn 0.031166 -0.999089 0.029156
vn 0.031166 -0.999089 0.029156
vn 0.031166 -0.999089 0.029156
vn -0.260421 -0.965376 0.015188
vn -0.260421 -0.965376 0.015188
vn -0.260421 -0.965376 0.015188
vn -0.260421 -0.965376 0.015188
vn -0.171845 -0.984907 -0.020667
vn -0.171845 -0.984907 -0.020667
vn -0.171845 -0.984907 -0.020667
vn -0.241311 -0.968589 -0.060041
vn -0.241311 -0.968589 -0.060041
vn -0.241311 -0.968589 -0.060041
vn -0.287490 -0.110920 0.951339
vn -0.287490 -0.110920 0.951339
vn -0.287490 -0.110920 0.951339
vn -0.287490 -0.110920 0.951339
vn 0.231325 0.732270 0.640523
vn 0.231325 0.732270 0.640523
vn 0.231325 0.732270 0.640523
vn 0.416606 0.430182 0.800864
vn 0.416606 0.430182 0.800864
vn 0.416606 0.430182 0.800864
vn 0.377861 0.598027 0.706813
vn 0.377861 0.598027 0.706813
vn 0.377861 0.598027 0.706813
vn 0.377861 0.598027 0.706813
vn -0.294084 0.514844 0.805264
vn -0.294084 0.514844 0.805264
vn -0.294084 0.514844 0.805264
vn -0.161250 0.259651 0.952145
vn -0.161249 0.259651 0.952145
vn -0.161250 0.259651 0.952145
vn -0.161250 0.259651 0.952145
vn -0.458260 0.448886 0.767137
vn -0.458260 0.448886 0.767137
vn -0.458260 0.448886 0.767137
vn -0.458260 0.448886 0.767137
vn -0.295986 0.513082 0.805692
vn -0.295986 0.513082 0.805692
vn -0.295986 0.513082 0.805692
vn 0.177127 0.299649 0.937463
vn 0.177127 0.299649 0.937463
vn 0.177127 0.299649 0.937463
vn 0.177127 0.299649 0.937463
vn 0.694422 0.023459 0.719185
vn 0.694422 0.023459 0.719185
vn 0.694422 0.023459 0.719185
vn 0.694422 0.023459 0.719185
vn 0.996675 -0.058614 -0.056605
vn 0.996675 -0.058614 -0.056605
vn 0.996675 -0.058614 -0.056605
vn 0.996675 -0.058614 -0.056605
vn 0.724711 -0.271904 -0.633136
vn 0.724711 -0.271904 -0.633136
vn 0.724711 -0.271905 -0.633136
vn 0.724711 -0.271904 -0.633136
vn 0.423827 -0.430217 -0.797047
vn 0.423827 -0.430217 -0.797047
vn 0.423827 -0.430217 -0.797047
vn 0.423827 -0.430217 -0.797047
vn -0.314736 0.146488 0.937807
vn -0.314736 0.146488 0.937807
vn -0.314736 0.146488 0.937807
vn -0.314736 0.146488 0.937807
vn -0.824392 0.171886 0.539289
vn -0.824392 0.171886 0.539289
vn -0.824392 0.171886 0.539289
vn -0.824392 0.171886 0.539289
vn -0.979356 0.173789 0.103239
vn -0.979357 0.173789 0.103239
vn -0.979356 0.173789 0.103239
vn -0.979356 0.173789 0.103239
vn -0.729539 0.090338 -0.677947
vn -0.729539 0.090338 -0.677947
vn -0.729539 0.090338 -0.677947
vn -0.729539 0.090338 -0.677947
vn -0.178889 -0.502797 -0.845692
vn -0.178889 -0.502797 -0.845692
vn -0.178889 -0.502797 -0.845692
vn -0.178889 -0.502797 -0.845692
vn 0.181511 0.855030 0.485775
vn 0.181511 0.855030 0.485775
vn 0.181511 0.855030 0.485775
vn 0.181511 0.855030 0.485775
vn 0.333040 0.901698 0.275726
vn 0.333040 0.901698 0.275726
vn 0.333040 0.901698 0.275726
vn 0.333040 0.901698 0.275726
vn 0.896871 0.397232 -0.194497
vn 0.896871 0.397232 -0.194497
vn 0.896871 0.397232 -0.194498
vn 0.896871 0.397232 -0.194498
vn 0.633338 0.219082 -0.742217
vn 0.633338 0.219082 -0.742217
vn 0.633338 0.219082 -0.742217
vn 0.633338 0.219082 -0.742217
vn 0.363210 0.218763 -0.905661
vn 0.363210 0.218763 -0.905661
vn 0.363210 0.218763 -0.905661
vn 0.363210 0.218763 -0.905661
vn -0.416112 0.746078 0.519826
vn -0.416112 0.746078 0.519826
vn -0.416112 0.746078 0.519826
vn -0.426660 0.804942 0.412347
vn -0.426660 0.804942 0.412347
vn -0.426660 0.804942 0.412347
vn -0.426660 0.804942 0.412347
vn -0.739530 0.646592 -0.187121
vn -0.739530 0.646592 -0.187121
vn -0.739530 0.646592 -0.187121
vn -0.739530 0.646592 -0.187121
vn -0.517992 0.411943 -0.749658
vn -0.517992 0.411943 -0.749658
vn -0.517992 0.411943 -0.749658
vn -0.517992 0.411943 -0.749658
vn 0.063974 0.326374 -0.943074
vn 0.063974 0.326374 -0.943074
vn 0.063974 0.326374 -0.943074
vn 0.063974 0.326373 -0.943074
vn 0.262458 -0.177181 0.948537
vn 0.262458 -0.177181 0.948537
vn 0.262458 -0.177181 0.948537
vn 0.262458 -0.177181 0.948537
vn -0.974781 -0.025297 -0.221727
vn -0.974781 -0.025297 -0.221727
vn -0.974781 -0.025297 -0.221727
vn -0.974781 -0.025297 -0.221727
vn 0.405922 -0.299613 -0.863400
vn 0.405922 -0.299613 -0.863400
vn 0.405922 -0.299613 -0.863400
vn 0.405922 -0.299613 -0.863400
vn 0.969773 0.141990 0.198444
vn 0.969773 0.141990 0.198444
vn 0.969773 0.141990 0.198444
vn 0.969773 0.141990 0.198444
vn -0.969772 0.141992 0.198444
vn -0.969772 0.141992 0.198444
vn -0.969773 0.141992 0.198444
vn -0.969773 0.141992 0.198444
vn -0.405924 -0.299614 -0.863399
vn -0.405923 -0.299614 -0.863399
vn -0.405923 -0.299614 -0.863399
vn -0.405923 -0.299614 -0.863399
vn 0.974781 -0.025298 -0.221727
vn 0.974781 -0.025298 -0.221727
vn 0.974781 -0.025298 -0.221727
vn 0.974781 -0.025298 -0.221727
vn -0.262461 -0.177181 0.948536
vn -0.262461 -0.177181 0.948536
vn -0.262461 -0.177181 0.948536
vn -0.262461 -0.177181 0.948536
vn 0.011757 0.873775 0.486189
vn 0.011757 0.873775 0.486189
vn 0.011757 0.873775 0.486189
vn 0.011757 0.873775 0.486189
vn -0.438800 -0.117902 0.890816
vn -0.438800 -0.117902 0.890816
vn -0.438800 -0.117902 0.890816
vn -0.438800 -0.117902 0.890816
vn -0.783736 -0.619610 -0.042920
vn -0.783736 -0.619610 -0.042920
vn -0.783736 -0.619610 -0.042920
vn -0.783736 -0.619610 -0.042920
vn 0.450043 -0.831886 -0.324695
vn 0.450043 -0.831886 -0.324695
vn 0.450043 -0.831886 -0.324695
vn 0.450043 -0.831886 -0.324695
vn 0.794675 0.356617 -0.491239
vn 0.794675 0.356617 -0.491239
vn 0.794675 0.356617 -0.491239
vn 0.794675 0.356617 -0.491239
vn -0.898257 -0.181925 0.400048
vn -0.898257 -0.181925 0.400048
vn -0.898257 -0.181925 0.400048
vn -0.898257 -0.181925 0.400048
vn 0.662785 0.351133 0.661378
vn 0.662785 0.351133 0.661378
vn 0.662785 0.351133 0.661378
vn 0.662785 0.351133 0.661378
vn 0.031222 -0.500079 0.865417
vn 0.031222 -0.500079 0.865417
vn 0.031222 -0.500079 0.865417
vn 0.031222 -0.500079 0.865417
vn -0.100560 -0.918699 0.381944
vn -0.100560 -0.918699 0.381944
vn -0.100560 -0.918698 0.381944
vn -0.100560 -0.918699 0.381944
vn 0.490676 -0.848618 0.197700
vn 0.490676 -0.848618 0.197700
vn 0.490676 -0.848618 0.197700
vn 0.490676 -0.848618 0.197700
vn 0.995098 -0.021418 -0.096548
vn 0.995098 -0.021418 -0.096547
vn 0.995098 -0.021418 -0.096547
vn 0.995098 -0.021418 -0.096547
vn -0.206978 -0.700384 0.683098
vn -0.206978 -0.700384 0.683098
vn -0.206978 -0.700384 0.683097
vn -0.206978 -0.700384 0.683097
vn 0.673499 -0.737617 0.048177
vn 0.673499 -0.737617 0.048177
vn 0.673499 -0.737616 0.048177
vn 0.673499 -0.737617 0.048177
vn 0.780946 -0.197004 0.592716
vn 0.780946 -0.197004 0.592716
vn 0.780946 -0.197004 0.592716
vn 0.780946 -0.197004 0.592716
vn 0.753158 -0.459014 0.471231
vn 0.753158 -0.459014 0.471231
vn 0.753158 -0.459014 0.471231
vn 0.753158 -0.459014 0.471231
vn -0.841557 -0.536703 -0.061089
vn -0.841557 -0.536703 -0.061089
vn -0.841557 -0.536703 -0.061089
vn -0.841557 -0.536703 -0.061089
vn 0.613996 0.362216 0.701291
vn 0.613996 0.362216 0.701290
vn 0.613996 0.362216 0.701291
vn 0.613996 0.362216 0.701291
vn -0.217851 0.932934 0.286662
vn -0.217851 0.932934 0.286662
vn -0.217851 0.932934 0.286662
vn -0.217851 0.932934 0.286662
vn -0.324810 0.888339 -0.324582
vn -0.324810 0.888339 -0.324582
vn -0.324810 0.888339 -0.324582
vn -0.324810 0.888339 -0.324582
vn -0.700618 0.309332 -0.642999
vn -0.700618 0.309332 -0.642999
vn -0.700618 0.309332 -0.642999
vn -0.700618 0.309332 -0.642999
vn -0.190257 -0.479597 0.856615
vn -0.190257 -0.479597 0.856615
vn -0.190257 -0.479597 0.856615
vn -0.190257 -0.479597 0.856615
vn -0.185776 -0.661598 0.726482
vn -0.185776 -0.661598 0.726482
vn -0.185776 -0.661598 0.726482
vn -0.185776 -0.661598 0.726482
vn -0.672173 -0.663018 0.329531
vn -0.672173 -0.663018 0.329531
vn -0.672173 -0.663018 0.329531
vn -0.672173 -0.663018 0.329531
vn -0.776663 -0.616927 -0.127266
vn -0.776663 -0.616927 -0.127266
vn -0.776663 -0.616927 -0.127266
vn -0.776663 -0.616927 -0.127266
vn -0.340418 0.323059 0.883034
vn -0.340418 0.323059 0.883034
vn -0.340418 0.323059 0.883034
vn -0.340418 0.323059 0.883034
vn -0.544953 0.714961 0.438014
vn -0.544953 0.714961 0.438014
vn -0.544954 0.714961 0.438014
vn -0.544953 0.714961 0.438014
vn -0.727565 0.667354 -0.159020
vn -0.727565 0.667354 -0.159020
vn -0.727565 0.667354 -0.159020
vn -0.727565 0.667354 -0.159020
vn -0.820877 0.260578 -0.508194
vn -0.820877 0.260578 -0.508194
vn -0.820877 0.260578 -0.508194
vn -0.820877 0.260578 -0.508194
vn 0.076703 -0.549897 0.831703
vn 0.076703 -0.549897 0.831703
vn 0.076703 -0.549897 0.831703
vn -0.068531 -0.646470 0.759855
vn -0.068531 -0.646470 0.759855
vn -0.068531 -0.646470 0.759855
vn 0.794500 0.050363 0.605173
vn 0.794500 0.050363 0.605173
vn 0.794500 0.050363 0.605173
vn 0.794500 0.050363 0.605173
vn -0.671287 0.239500 0.701437
vn -0.671287 0.239500 0.701437
vn -0.671287 0.239500 0.701437
vn -0.671287 0.239500 0.701437
vn 0.846971 0.530835 -0.029219
vn 0.846971 0.530835 -0.029219
vn 0.846971 0.530835 -0.029219
vn 0.846971 0.530835 -0.029219
vn 0.198998 0.824676 -0.529443
vn 0.198998 0.824676 -0.529443
vn 0.198998 0.824676 -0.529443
vn 0.198998 0.824676 -0.529443
vn -0.650043 0.662131 0.372862
vn -0.650043 0.662131 0.372862
vn -0.650043 0.662131 0.372862
vn -0.650043 0.662131 0.372862
vn -0.150057 0.877801 0.454915
vn -0.150057 0.877801 0.454915
vn -0.150057 0.877801 0.454915
vn -0.146390 -0.746997 0.648510
vn -0.146390 -0.746997 0.648510
vn -0.146390 -0.746997 0.648510
vn -0.146390 -0.746997 0.648510
vn 0.373106 -0.644448 0.667442
vn 0.373106 -0.644448 0.667442
vn 0.373106 -0.644448 0.667442
vn -0.565180 -0.582823 0.583858
vn -0.565180 -0.582823 0.583858
vn -0.565180 -0.582823 0.583858
vn 0.622691 0.184278 0.760458
vn 0.622691 0.184278 0.760458
vn 0.622691 0.184278 0.760458
vn 0.622691 0.184278 0.760458
vn -0.712330 0.089858 0.696069
vn -0.712330 0.089858 0.696069
vn -0.712330 0.089858 0.696069
vn -0.712330 0.089858 0.696069
vn 0.534159 0.845010 0.025145
vn 0.534159 0.845010 0.025145
vn 0.534159 0.845010 0.025145
vn 0.534159 0.845010 0.025145
vn -0.879524 0.041935 0.474004
vn -0.879524 0.041935 0.474004
vn -0.879524 0.041935 0.474004
vn -0.879524 0.041935 0.474004
vn 0.203380 0.948551 -0.242668
vn 0.203380 0.948551 -0.242668
vn 0.203380 0.948551 -0.242668
vn 0.203380 0.948551 -0.242668
vn -0.708127 0.613468 -0.349591
vn -0.708127 0.613468 -0.349591
vn -0.708127 0.613468 -0.349591
vn -0.708127 0.613468 -0.349591
vn -0.411737 -0.786177 -0.460867
vn -0.411737 -0.786177 -0.460867
vn -0.411737 -0.786177 -0.460867
vn 0.581255 -0.797306 0.162622
vn 0.581255 -0.797306 0.162621
vn 0.581255 -0.797306 0.162622
vn 0.334280 -0.940284 -0.064207
vn 0.334280 -0.940284 -0.064207
vn 0.334280 -0.940284 -0.064207
vn 0.334280 -0.940284 -0.064207
vn -0.305109 -0.513030 -0.802314
vn -0.305109 -0.513030 -0.802314
vn -0.305109 -0.513030 -0.802314
vn -0.305109 -0.513030 -0.802314
vn 0.758258 -0.337802 -0.557615
vn 0.758258 -0.337802 -0.557615
vn 0.758258 -0.337803 -0.557615
vn 0.758258 -0.337803 -0.557615
vn -0.476544 0.454772 -0.752389
vn -0.476544 0.454772 -0.752389
vn -0.476544 0.454772 -0.752389
vn -0.476544 0.454772 -0.752389
vn -0.128202 0.879357 -0.458579
vn -0.128202 0.879357 -0.458579
vn -0.128202 0.879357 -0.458579
vn -0.128202 0.879357 -0.458579
vn 0.801877 0.188959 -0.566823
vn 0.801877 0.188959 -0.566823
vn 0.801877 0.188959 -0.566823
vn 0.801877 0.188959 -0.566823
vn 0.393852 -0.764980 0.509594
vn 0.393852 -0.764981 0.509594
vn 0.393852 -0.764980 0.509594
vn 0.393852 -0.764980 0.509594
vn -0.458062 0.384834 0.801301
vn -0.052004 0.458139 0.887358
vn -0.052004 0.458139 0.887358
vn -0.360974 0.410439 0.837399
vn 0.346266 -0.762413 -0.546649
vn 0.346266 -0.762413 -0.546649
vn 0.346266 -0.762413 -0.546649
vn 0.346266 -0.762413 -0.546649
vn -0.494145 0.553583 0.670349
vn -0.494145 0.553583 0.670349
vn -0.494145 0.553583 0.670349
vn -0.494145 0.553583 0.670349
vn -0.287927 0.619333 -0.730428
vn -0.287927 0.619333 -0.730428
vn -0.287927 0.619333 -0.730428
vn -0.287927 0.619333 -0.730428
vn -0.458062 0.384834 0.801301
vn -0.360974 0.410439 0.837399
vn -0.955901 0.079932 0.282603
vn -0.955901 0.079932 0.282603
vn 0.393529 -0.517716 0.759674
vn 0.393529 -0.517716 0.759674
vn 0.393529 -0.517716 0.759674
vn 0.393529 -0.517716 0.759674
vn 0.972697 -0.227538 -0.045684
vn 0.972697 -0.227538 -0.045684
vn 0.972697 -0.227538 -0.045684
vn 0.972697 -0.227538 -0.045684
vn -0.590257 0.590588 -0.550275
vn -0.626947 0.562507 -0.539003
vn -0.542543 -0.741138 0.395426
vn -0.542543 -0.741138 0.395426
vn -0.590257 0.590588 -0.550275
vn -0.493455 0.654476 -0.572855
vn -0.493455 0.654476 -0.572855
vn -0.626947 0.562507 -0.539003
vn -0.542625 0.626555 -0.559453
vn -0.542625 0.626555 -0.559453
vn -0.542625 0.626555 -0.559453
vn -0.542624 0.626555 -0.559453
vn -0.729375 -0.678710 -0.085820
vn -0.729375 -0.678710 -0.085820
vn -0.729375 -0.678710 -0.085820
vn -0.729375 -0.678710 -0.085820
vn 0.367081 -0.650003 0.665393
vn 0.367081 -0.650003 0.665393
vn 0.367081 -0.650003 0.665393
vn 0.367081 -0.650003 0.665393
vn 0.726154 0.556837 0.403277
vn 0.726154 0.556837 0.403277
vn 0.726154 0.556837 0.403277
vn 0.726154 0.556837 0.403277
s off
f 1/1/1 6/2/2 7/3/3 2/4/4
f 3/5/5 5/6/6 6/2/7 1/1/8
f 7/3/9 8/7/10 4/8/11 2/4/12
f 10/9/13 9/10/14 11/11/15 12/12/16
f 4/8/17 3/5/18 9/10/19 10/9/20
f 3/5/21 1/1/22 11/11/23 9/10/24
f 1/1/25 2/4/26 12/12/27 11/11/28
f 2/4/29 4/8/30 10/9/31 12/12/32
f 5/6/33 8/7/34 7/3/35 6/2/36
f 5/6/37 3/5/38 4/8/39 8/7/40
f 13/13/41 18/14/42 19/15/43 14/16/44
f 15/17/45 17/18/46 18/14/47 13/13/48
f 19/15/49 20/19/50 16/20/51 14/16/52
f 22/21/53 21/22/54 23/23/55 24/24/56
f 16/20/57 15/17/58 21/22/59 22/21/60
f 15/17/61 13/13/62 23/23/63 21/22/64
f 13/13/65 14/16/66 24/24/67 23/23/68
f 14/16/69 16/20/70 22/21/71 24/24/72
f 17/18/73 20/19/74 19/15/75 18/14/76
f 17/18/77 15/17/78 16/20/79 20/19/80
f 49/25/81 103/26/82 67/27/83
f 106/28/84 89/29/85 26/30/86 107/31/87
f 88/32/88 26/30/89 89/29/90
f 48/33/91 49/25/92 67/27/93
f 48/33/94 28/34/95 50/35/96
f 25/36/97 50/35/98 28/34/99
f 44/37/100 66/38/101 41/39/102 43/40/103
f 45/41/104 71/42/105 70/43/106 65/44/107
f 39/45/108 41/39/109 66/38/110
f 90/46/111 37/47/112 46/48/113
f 37/47/114 36/49/115 46/48/116
f 71/42/117 47/50/118 52/51/119
f 71/42/120 45/41/121 47/50/122
f 48/33/123 68/52/124 49/25/125
f 36/49/126 106/28/127 105/53/128 78/54/129
f 104/55/130 72/56/131 105/57/132
f 103/26/133 49/25/134 68/52/135
f 48/33/136 50/35/137 40/58/138
f 48/33/139 29/59/140 28/34/141
f 39/45/142 48/33/143 41/39/144
f 48/33/145 40/58/146 41/39/147
f 36/49/148 78/60/149 77/61/150 53/62/151
f 46/48/152 36/49/153 53/62/154
f 43/63/155 51/64/156 54/65/157 44/66/158
f 47/67/159 57/68/160 58/69/161 52/70/162
f 45/71/163 59/72/164 57/73/165 47/74/166
f 53/75/167 60/76/168 56/77/169 46/78/170
f 58/79/171 60/80/172 53/81/173 77/82/174
f 42/83/175 55/84/176 61/85/177 62/86/178
f 42/87/179 62/88/180 64/89/181
f 93/90/182 30/91/183 31/92/184 94/93/185
f 64/89/186 26/30/187 88/32/188 42/94/189
f 66/38/190 44/37/191 65/44/192
f 71/42/193 73/95/194 70/43/195
f 72/56/196 73/95/197 71/42/198 52/51/199
f 32/96/200 55/97/201 56/98/202 33/99/203
f 55/97/204 32/96/205 34/100/206 195/101/207 61/102/208
f 48/33/209 67/27/210 29/59/211
f 67/27/212 27/103/213 29/59/214
f 102/104/215 27/103/216 67/27/217 103/26/218
f 38/105/219 104/55/220 103/26/221 68/52/222
f 39/45/223 38/105/224 68/52/225
f 48/33/226 39/45/227 68/52/228
f 40/58/229 43/40/230 41/39/231
f 221/106/232 222/107/233 223/108/234 224/109/235
f 44/110/236 54/111/237 69/112/238 65/113/239
f 65/44/240 70/43/241 74/114/242
f 76/115/243 72/56/244 104/55/245
f 74/114/246 70/43/247 73/95/248 75/116/249
f 75/116/250 73/95/251 72/56/252 76/115/253
f 65/44/254 74/114/255 66/38/256
f 66/38/257 74/114/258 75/116/259 39/45/260
f 39/45/261 75/116/262 76/115/263 38/105/264
f 38/105/265 76/115/266 104/55/267
f 52/117/268 58/79/269 77/82/270
f 78/60/271 79/118/272 52/51/273 77/61/274
f 105/53/275 79/119/276 78/54/277
f 79/118/278 72/56/279 52/51/280
f 105/53/281 72/120/282 79/119/283
f 46/121/284 81/122/285 80/123/286 90/124/287
f 42/125/288 80/123/289 82/126/290 55/127/291
f 55/127/292 82/126/293 83/128/294 56/129/295
f 56/129/296 83/128/297 81/122/298 46/121/299
f 81/122/300 85/130/301 84/131/302 80/123/303
f 80/123/304 84/131/305 86/132/306 82/126/307
f 82/126/308 86/132/309 87/133/310 83/128/311
f 83/128/312 87/133/313 85/130/314 81/122/315
f 94/93/316 31/92/317 26/30/318
f 91/134/319 37/47/320 90/135/321
f 36/49/322 37/47/323 91/134/324 92/136/325
f 106/28/326 36/49/327 92/136/328
f 42/125/329 90/124/330 80/123/331
f 88/32/332 91/134/333 90/135/334 42/137/335
f 89/29/336 92/136/337 91/134/338 88/32/339
f 106/28/340 92/136/341 89/29/342
f 64/89/343 95/138/344 96/139/345 94/93/346
f 64/89/347 94/93/348 26/30/349
f 61/85/350 95/140/351 62/86/352
f 94/93/353 96/139/354 93/90/355
f 62/88/356 95/138/357 64/89/358
f 43/141/359 40/142/360 99/143/361 51/144/362
f 101/145/363 98/146/364 63/147/365
f 63/148/366 98/149/367 35/150/368
f 97/151/369 40/152/370 50/153/371
f 51/144/372 99/143/373 101/145/374 63/147/375
f 100/154/376 97/151/377 50/153/378
f 208/155/379 209/156/380 210/157/381
f 211/158/382 208/155/383 210/157/384
f 212/159/385 208/155/386 211/158/387 213/160/388
f 214/161/389 212/162/390 213/163/391
f 215/164/392 214/165/393 213/166/394
f 214/167/395 215/164/396 216/168/397
f 103/26/398 108/169/399 109/170/400 102/104/401
f 104/55/402 110/171/403 108/169/404 103/26/405
f 105/57/406 111/172/407 110/171/408 104/55/409
f 106/28/410 112/173/411 111/174/412 105/53/413
f 107/31/414 113/175/415 112/173/416 106/28/417
f 108/169/418 258/176/419 259/177/420 109/170/421
f 235/178/422 236/179/423 237/180/424 238/181/425
f 239/182/426 240/183/427 236/179/428 235/178/429
f 112/173/430 118/184/431 117/185/432 111/174/433
f 133/186/434 150/187/435 183/188/436
f 186/189/437 107/190/438 26/191/439 172/192/440
f 171/193/441 172/192/442 26/191/443
f 132/194/444 150/187/445 133/186/446
f 132/194/447 134/195/448 28/196/449
f 25/197/450 28/196/451 134/195/452
f 128/198/453 127/199/454 125/200/455 149/201/456
f 129/202/457 148/203/458 153/204/459 154/205/460
f 123/206/461 149/201/462 125/200/463
f 173/207/464 130/208/465 121/209/466
f 121/209/467 130/208/468 120/210/469
f 154/205/470 136/211/471 131/212/472
f 154/205/473 131/212/474 129/202/475
f 132/194/476 133/186/477 151/213/478
f 120/210/479 161/214/480 185/215/481 186/189/482
f 184/216/483 185/217/484 155/218/485
f 183/188/486 151/213/487 133/186/488
f 132/194/489 124/219/490 134/195/491
f 132/194/492 28/196/493 29/220/494
f 123/206/495 125/200/496 132/194/497
f 132/194/498 125/200/499 124/219/500
f 120/210/501 137/221/502 160/222/503 161/223/504
f 130/208/505 137/221/506 120/210/507
f 127/224/508 128/225/509 138/226/510 135/227/511
f 131/228/512 136/229/513 142/230/514 141/231/515
f 129/232/516 131/233/517 141/234/518 143/235/519
f 137/236/520 130/237/521 140/238/522 144/239/523
f 142/240/524 160/241/525 137/242/526 144/243/527
f 126/244/528 145/245/529 139/246/530
f 126/247/531 147/248/532 145/249/533
f 176/250/534 177/251/535 31/252/536 30/253/537
f 147/248/538 126/254/539 171/193/540 26/191/541
f 149/201/542 148/203/543 128/198/544
f 154/205/545 153/204/546 156/255/547
f 155/218/548 136/211/549 154/205/550 156/255/551
f 32/256/552 33/257/553 140/258/554 139/259/555
f 139/259/556 145/260/557 196/261/558 34/262/559 32/256/560
f 132/194/561 29/220/562 150/187/563
f 150/187/564 29/220/565 27/263/566
f 102/264/567 183/188/568 150/187/569 27/263/570
f 122/265/571 151/213/572 183/188/573 184/216/574
f 123/206/575 151/213/576 122/265/577
f 132/194/578 151/213/579 123/206/580
f 124/219/581 125/200/582 127/199/583
f 226/266/584 225/267/585 227/268/586 228/269/587
f 128/270/588 148/271/589 152/272/590 138/273/591
f 148/203/592 157/274/593 153/204/594
f 159/275/595 184/216/596 155/218/597
f 157/274/598 158/276/599 156/255/600 153/204/601
f 158/276/602 159/275/603 155/218/604 156/255/605
f 148/203/606 149/201/607 157/274/608
f 149/201/609 123/206/610 158/276/611 157/274/612
f 123/206/613 122/265/614 159/275/615 158/276/616
f 122/265/617 184/216/618 159/275/619
f 136/277/620 160/241/621 142/240/622
f 161/223/623 160/222/624 136/211/625 162/278/626
f 185/215/627 161/214/628 162/279/629
f 162/278/630 136/211/631 155/218/632
f 185/215/633 162/279/634 155/280/635
f 130/281/636 173/282/637 163/283/638 164/284/639
f 126/285/640 139/286/641 165/287/642 163/283/643
f 139/286/644 140/288/645 166/289/646 165/287/647
f 140/288/648 130/281/649 164/284/650 166/289/651
f 164/284/652 163/283/653 167/290/654 168/291/655
f 163/283/656 165/287/657 169/292/658 167/290/659
f 165/287/660 166/289/661 170/293/662 169/292/663
f 166/289/664 164/284/665 168/291/666 170/293/667
f 177/251/668 26/191/669 31/252/670
f 174/294/671 173/295/672 121/209/673
f 120/210/674 175/296/675 174/294/676 121/209/677
f 186/189/678 175/296/679 120/210/680
f 126/285/681 163/283/682 173/282/683
f 171/193/684 126/297/685 173/295/686 174/294/687
f 172/192/688 171/193/689 174/294/690 175/296/691
f 186/189/692 172/192/693 175/296/694
f 147/248/695 177/251/696 179/298/697 178/299/698
f 147/248/699 26/191/700 177/251/701
f 177/251/702 176/250/703 179/298/704
f 145/249/705 147/248/706 178/299/707
f 35/300/708 25/301/709 182/302/710 181/303/711
f 180/304/712 134/305/713 124/306/714
f 182/302/715 134/305/716 180/304/717
f 25/301/718 134/305/719 182/302/720
f 208/307/721 217/308/722 209/309/723
f 218/310/724 217/308/725 208/307/726
f 212/311/727 219/312/728 218/310/729 208/307/730
f 214/313/731 219/314/732 212/315/733
f 220/316/734 219/317/735 214/318/736
f 214/319/737 216/320/738 220/316/739
f 183/188/740 102/264/741 109/321/742 187/322/743
f 184/216/744 183/188/745 187/322/746 188/323/747
f 185/217/748 184/216/749 188/323/750 189/324/751
f 186/189/752 185/215/753 189/325/754 190/326/755
f 107/190/756 186/189/757 190/326/758 113/327/759
f 250/328/760 249/329/761 251/330/762 252/331/763
f 253/332/764 250/328/765 252/331/766 254/333/767
f 190/326/768 189/325/769 192/334/770 193/335/771
f 113/327/772 190/326/773 193/335/774 119/336/775
f 35/150/776 98/149/777 100/154/778 25/337/779
f 50/153/780 25/337/781 100/154/782
f 54/338/783 51/339/784 194/340/785
f 58/341/786 57/342/787 194/343/788
f 57/344/789 59/345/790 194/346/791
f 56/347/792 60/348/793 194/349/794
f 60/350/795 58/351/796 194/352/797
f 51/353/798 63/354/799 194/355/800
f 33/356/801 56/357/802 194/358/803
f 63/359/804 35/360/805 194/361/806
f 59/362/807 69/363/808 194/364/809
f 69/365/810 54/366/811 194/367/812
f 135/368/813 138/369/814 194/370/815
f 141/371/816 142/372/817 194/373/818
f 143/374/819 141/375/820 194/376/821
f 144/377/822 140/378/823 194/379/824
f 142/380/825 144/381/826 194/382/827
f 146/383/828 135/384/829 194/385/830
f 140/386/831 33/387/832 194/388/833
f 35/389/834 146/390/835 194/391/836
f 152/392/837 143/393/838 194/394/839
f 138/395/840 152/396/841 194/397/842
f 84/131/843 85/130/844 87/133/845 86/132/846
f 168/291/847 167/290/848 169/292/849 170/293/850
f 93/90/851 195/398/852 34/262/853 30/91/854
f 179/298/855 196/399/856 145/245/857 178/299/858
f 93/90/859 96/139/860 61/102/861 195/398/862
f 30/91/863 34/262/864 196/399/865 176/250/866
f 61/102/867 96/139/868 95/140/869
f 176/250/870 196/399/871 179/298/872
f 197/400/873 146/390/874 35/300/875 181/303/876
f 101/145/877 97/151/878 98/146/879
f 98/146/880 97/151/881 100/154/882
f 40/142/883 97/151/884 101/145/885 99/143/886
f 124/219/887 197/400/888 180/304/889
f 127/224/890 135/384/891 146/390/892 197/400/893
f 180/304/894 197/400/895 181/303/896 182/302/897
f 127/224/898 197/400/899 124/219/900
f 259/177/901 258/176/902 260/401/903 261/402/904
f 114/403/905 116/404/906 200/405/907 199/406/908
f 116/404/909 117/407/910 201/408/911 200/405/912
f 117/185/913 118/184/914 202/409/915 201/410/916
f 272/411/917 271/412/918 273/413/919 274/414/920
f 265/415/921 264/416/922 266/417/923 267/418/924
f 252/331/925 251/330/926 255/419/927 256/420/928
f 254/333/929 252/331/930 256/420/931 257/421/932
f 193/335/933 192/334/934 206/422/935 207/423/936
f 119/336/937 193/335/938 207/423/939 203/424/940
f 261/402/941 260/401/942 262/425/943 263/426/944
f 199/406/945 200/405/946 211/158/947 210/157/948
f 200/405/949 201/408/950 213/160/951 211/158/952
f 201/410/953 202/409/954 215/164/955 213/166/956
f 274/414/957 273/413/958 275/427/959 276/428/960
f 267/418/961 266/417/962 268/429/963
f 269/430/964 267/418/965 268/429/966 270/431/967
f 206/432/968 205/433/969 218/310/970 219/312/971
f 207/423/972 206/422/973 219/317/974 220/316/975
f 203/424/976 207/423/977 220/316/978 216/320/979
f 65/434/980 69/435/981 222/107/982 221/106/983
f 69/435/984 59/436/985 223/108/986 222/107/987
f 59/436/988 45/437/989 224/109/990 223/108/991
f 45/437/992 65/434/993 221/106/994 224/109/995
f 148/438/996 129/439/997 225/267/998 226/266/999
f 129/439/1000 143/440/1001 227/268/1002 225/267/1003
f 143/440/1004 152/441/1005 228/269/1006 227/268/1007
f 152/441/1008 148/438/1009 226/266/1010 228/269/1011
f 116/404/1012 114/403/1013 231/442/1014 230/443/1015
f 114/403/1016 108/169/1017 232/444/1018 231/442/1019
f 108/169/1020 110/171/1021 229/445/1022 232/444/1023
f 111/172/1024 117/407/1025 234/446/1026 233/447/1027
f 117/407/1028 116/404/1029 230/443/1030 234/446/1031
f 110/171/1032 111/172/1033 233/447/1034 229/445/1035
f 230/443/1036 231/442/1037 237/180/1038 236/179/1039
f 231/442/1040 232/444/1041 238/181/1042 237/180/1043
f 232/444/1044 229/445/1045 235/178/1046 238/181/1047
f 233/447/1048 234/446/1049 240/183/1050 239/182/1051
f 234/446/1052 230/443/1053 236/179/1054 240/183/1055
f 229/445/1056 233/447/1057 239/182/1058 235/178/1059
f 188/323/1060 187/322/1061 241/448/1062 242/449/1063
f 187/322/1064 191/450/1065 243/451/1066 241/448/1067
f 189/324/1068 188/323/1069 242/449/1070 244/452/1071
f 192/453/1072 189/324/1073 244/452/1074 245/454/1075
f 191/450/1076 204/455/1077 246/456/1078 243/451/1079
f 204/455/1080 205/433/1081 247/457/1082 246/456/1083
f 205/433/1084 206/432/1085 248/458/1086 247/457/1087
f 206/432/1088 192/453/1089 245/454/1090 248/458/1091
f 242/449/1092 241/448/1093 249/329/1094 250/328/1095
f 241/448/1096 243/451/1097 251/330/1098 249/329/1099
f 244/452/1100 242/449/1101 250/328/1102 253/332/1103
f 245/454/1104 244/452/1105 253/332/1106 254/333/1107
f 243/451/1108 246/456/1109 255/419/1110 251/330/1111
f 246/456/1112 247/457/1113 256/420/1114 255/419/1115
f 247/457/1116 248/458/1117 257/421/1118 256/420/1119
f 248/458/1120 245/454/1121 254/333/1122 257/421/1123
f 108/169/1124 114/403/1125 258/176/1126
f 115/459/1127 109/170/1128 259/177/1129
f 114/403/1130 199/406/1131 260/401/1132 258/176/1133
f 198/460/1134 115/459/1135 259/177/1136 261/402/1137
f 199/406/1138 210/157/1139 262/425/1140 260/401/1141
f 210/157/1142 209/156/1143 263/426/1144 262/425/1145
f 209/156/1146 198/460/1147 261/402/1148 263/426/1149
f 217/308/1150 198/461/1151 209/309/1152
f 187/322/1153 109/321/1154 264/416/1155 265/415/1156
f 109/321/1157 115/462/1158 264/416/1159
f 191/450/1160 187/322/1161 265/415/1162
f 115/462/1163 198/461/1164 266/417/1165 264/416/1166
f 204/455/1167 191/450/1168 265/415/1169 267/418/1170
f 198/461/1171 217/308/1172 268/429/1173 266/417/1174
f 205/433/1175 204/455/1176 267/418/1177 269/430/1178
f 217/308/1179 218/310/1180 270/431/1181 268/429/1182
f 218/310/1183 205/433/1184 269/430/1185 270/431/1186
f 113/175/1187 119/463/1188 271/412/1189
f 118/184/1190 112/173/1191 272/411/1192
f 272/411/1193 112/173/1194 113/175/1195 271/412/1196
f 119/463/1197 203/464/1198 273/413/1199 271/412/1200
f 202/409/1201 118/184/1202 272/411/1203 274/414/1204
f 203/464/1205 216/168/1206 275/427/1207 273/413/1208
f 216/168/1209 215/164/1210 276/428/1211 275/427/1212
f 215/164/1213 202/409/1214 274/414/1215 276/428/1216
f 277/465/1217 282/466/1218 283/467/1219 278/468/1220
f 279/469/1221 281/470/1222 282/466/1223 277/465/1224
f 283/467/1225 284/471/1226 280/472/1227 278/468/1228
f 290/473/1229 289/474/1230 291/475/1231 292/476/1232
f 280/472/1233 279/469/1234 285/477/1235 286/478/1236
f 279/469/1237 277/465/1238 287/479/1239 285/477/1240
f 277/465/1241 278/468/1242 288/480/1243 287/479/1244
f 278/468/1245 280/472/1246 286/478/1247 288/480/1248
f 281/470/1249 284/471/1250 283/467/1251 282/466/1252
f 281/470/1253 279/469/1254 280/472/1255 284/471/1256
f 286/478/1257 285/477/1258 289/474/1259 290/473/1260
f 285/477/1261 287/479/1262 291/475/1263 289/474/1264
f 287/479/1265 288/480/1266 292/476/1267 291/475/1268
f 288/480/1269 286/478/1270 290/473/1271 292/476/1272
