# This file uses centimeters as units for non-parametric coordinates.

v 0.000012 112.072144 8.133423
v 0.000012 109.662598 -12.088913
v 0.000012 116.948242 -6.318653
v 0.000012 100.539429 -11.140816
v 0.693494 115.874512 2.880161
v 0.000012 114.635742 7.601631
v 9.034676 109.160889 7.169357
v 8.809402 108.387085 3.810276
v 9.539734 108.193726 -4.452578
v 9.161484 107.193359 -1.006891
v 9.591934 106.303223 -5.979034
v 9.124886 100.800415 -4.152285
v 9.002991 103.796387 -0.561556
v 8.513420 103.203491 4.621918
v 9.621422 114.864380 -5.757584
v 9.914978 108.147583 -11.137924
v 9.387413 102.466797 -10.677856
v 9.707588 113.799194 3.259087
v 8.611504 112.964722 6.672264
v 9.582451 108.366455 3.407475
v 11.720688 107.787476 -0.687653
v 12.101288 108.923096 -4.696499
v 12.148727 106.851318 -6.558285
v 9.945396 101.670044 -5.002380
v 10.593498 104.064941 3.549129
v 11.045563 104.610962 -0.091442
v 0.000012 97.743286 -8.289818
v 0.000012 98.180664 -9.865578
v 8.768166 99.719360 -5.722523
v 9.039352 100.414307 -7.995224
v 7.873917 99.508301 -8.803635
v 7.088913 98.960693 -7.513554
v 0.767806 114.864990 8.025452
v 3.336098 117.193481 2.830845
v 2.247324 117.232178 -6.527912
v 2.154688 109.018311 -13.046249
v 4.543209 115.224121 0.324038
v 4.882835 115.353638 7.031349
v 3.720894 111.343384 7.645287
v 5.799946 115.131714 9.284813
v 4.992031 112.495850 8.685829
v 1.214908 112.901001 9.297012
v 2.521044 115.646729 10.112610
v 6.065353 112.499512 11.286148
v 5.272755 110.501099 10.569885
v 1.998852 110.859741 11.193542
v 3.280190 112.952026 12.128784
v 4.019375 106.207153 11.255600
v 3.608013 105.170044 10.883850
v 2.024303 105.356079 11.207535
v 2.689341 106.442139 11.692932
v 4.875900 111.601807 8.999008
v 6.094376 114.142822 9.917389
v 10.118370 113.461548 8.601219
v 9.610390 109.418335 8.084389
v 5.575207 110.245239 10.040710
v 7.419609 111.744263 11.449493
v 10.816277 111.067627 9.396263
v 8.564453 103.224731 8.231834
v 6.664230 103.718994 9.401360
v 7.766823 104.615234 10.243546
v 9.285324 104.210571 9.016083
v 10.129585 111.331055 4.729431
v 9.842072 110.722534 7.108589
v 10.406342 106.509399 2.507839
v 10.419121 108.607300 2.585892
v 9.662132 107.825928 4.700874
v 11.202957 107.618164 3.379417
v 10.917641 107.640381 5.639938
v 10.156647 105.825195 4.565468
v 2.291426 116.252197 8.025452
v 8.889450 114.356934 6.687859
v -7.441795 110.614746 7.157150
v -8.809372 108.387085 3.810276
v -9.539703 108.193726 -4.452578
v -9.161453 107.193359 -1.006891
v -9.591904 106.303223 -5.979034
v -9.124855 100.800415 -4.152285
v -9.002960 103.796387 -0.561556
v -8.513390 103.203491 4.621918
v -9.621391 114.864380 -5.757584
v -9.914948 108.147583 -11.137924
v -9.387383 102.466797 -10.677856
v -9.707558 113.799194 3.259087
v -8.889420 114.356934 6.687859
v -9.582420 108.366455 3.407475
v -11.720657 107.787476 -0.687653
v -12.101257 108.923096 -4.696499
v -12.148697 106.851318 -6.558285
v -9.945366 101.670044 -5.002380
v -10.593468 104.064941 3.549129
v -11.045532 104.610962 -0.091442
v -8.768135 99.719360 -5.722523
v -9.039322 100.414307 -7.995224
v -7.873886 99.508301 -8.803635
v -7.088882 98.960693 -7.513554
v -0.767781 114.864990 8.025452
v -2.811914 117.193481 2.458141
v -3.302750 117.232178 -6.527912
v -3.210114 109.018311 -13.046249
v -4.712513 115.224121 -0.418422
v -5.312492 115.579224 7.041000
v -3.720871 111.343384 7.645287
v -5.923004 116.419800 9.262344
v -4.956512 113.266968 8.545822
v -0.488283 113.751709 9.276939
v -2.050760 117.036499 10.252625
v -5.803902 112.499512 11.286148
v -5.011314 110.501099 10.569885
v -0.914028 110.859741 11.193542
v -2.195366 112.952026 12.128784
v -4.019352 107.438110 11.255600
v -3.607990 106.401001 10.883850
v -1.725803 106.587158 11.207535
v -2.390842 107.673096 11.692932
v -4.976471 112.287842 9.011780
v -6.338219 115.127686 10.038177
v -10.512817 114.366211 8.567253
v -9.746933 109.418335 8.084389
v -5.933670 110.245239 10.040710
v -7.778061 111.744263 11.449493
v -10.952820 111.067627 9.396263
v -8.564423 103.224731 8.231834
v -6.664200 103.718994 9.401360
v -7.766792 104.615234 10.243546
v -9.285294 104.210571 9.016083
v -10.129692 111.331055 4.729340
v -9.842041 110.722534 7.108589
v -10.225281 105.736328 2.046349
v -10.238091 107.834229 2.124405
v -9.662102 107.825928 4.700874
v -9.034645 109.160889 7.169357
v -11.126373 107.607910 3.548050
v -10.840919 107.914307 5.808594
v -10.156670 105.825195 4.565468
v -2.291403 116.252197 8.025452
v 0.066331 105.224731 -0.431419
vt 0.049735 0.197968
vt 0.049735 0.197968
vt 0.049735 0.197968
vt 0.049735 0.197968
vt 0.049735 0.197968
vt 0.049735 0.197968
vt 0.049735 0.197968
vt 0.049735 0.197968
vt 0.049735 0.197968
vt 0.049735 0.197968
vt 0.049735 0.197968
vt 0.049735 0.197968
vt 0.049735 0.197968
vt 0.049735 0.197968
vt 0.049735 0.197968
vt 0.049735 0.197968
vt 0.049735 0.197968
vt 0.049735 0.197968
vt 0.049735 0.197968
vt 0.049735 0.197968
vt 0.049735 0.197968
vt 0.049735 0.197968
vt 0.049735 0.197968
vt 0.049735 0.197968
vt 0.049735 0.197968
vt 0.049735 0.197968
vt 0.049735 0.197968
vt 0.049735 0.197968
vt 0.049735 0.197968
vt 0.049735 0.197968
vt 0.049735 0.197968
vt 0.049735 0.197968
vt 0.049735 0.197968
vt 0.049735 0.197968
vt 0.049735 0.197968
vt 0.049735 0.197968
vt 0.049735 0.197968
vt 0.049735 0.197968
vt 0.049735 0.197968
vt 0.049735 0.197968
vt 0.049735 0.197968
vt 0.049735 0.197968
vt 0.049735 0.197968
vt 0.049735 0.197968
vt 0.049735 0.197968
vt 0.049735 0.197968
vt 0.049735 0.197968
vt 0.049735 0.197968
vt 0.049735 0.197968
vt 0.049735 0.197968
vt 0.049735 0.197968
vt 0.049735 0.197968
vt 0.049735 0.197968
vt 0.049735 0.197968
vt 0.049735 0.197968
vt 0.049735 0.197968
vt 0.049735 0.197968
vt 0.049735 0.197968
vt 0.049735 0.197968
vt 0.049735 0.197968
vt 0.049735 0.197968
vt 0.049735 0.197968
vt 0.049735 0.197968
vt 0.049735 0.197968
vt 0.049735 0.197968
vt 0.049735 0.197968
vt 0.049735 0.197968
vt 0.049735 0.197968
vt 0.049735 0.197968
vt 0.049735 0.197968
vt 0.049735 0.197968
vt 0.049735 0.197968
vt 0.049735 0.197968
vt 0.049735 0.197968
vt 0.049735 0.197968
vt 0.049735 0.197968
vt 0.049735 0.197968
vt 0.049735 0.197968
vt 0.049735 0.197968
vt 0.049735 0.197968
vt 0.049735 0.197968
vt 0.049735 0.197968
vt 0.049735 0.197968
vt 0.049735 0.197968
vt 0.049735 0.197968
vt 0.049735 0.197968
vt 0.049735 0.197968
vt 0.049735 0.197968
vt 0.049735 0.197968
vt 0.049735 0.197968
vt 0.049735 0.197968
vt 0.049735 0.197968
vt 0.049735 0.197968
vt 0.049735 0.197968
vt 0.049735 0.197968
vt 0.049735 0.197968
vt 0.049735 0.197968
vt 0.049735 0.197968
vt 0.049735 0.197968
vt 0.049735 0.197968
vt 0.049735 0.197968
vt 0.049735 0.197968
vt 0.049735 0.197968
vt 0.049735 0.197968
vt 0.049735 0.197968
vt 0.049735 0.197968
vt 0.049735 0.197968
vt 0.049735 0.197968
vt 0.049735 0.197968
vt 0.049735 0.197968
vt 0.049735 0.197968
vt 0.049735 0.197968
vt 0.049735 0.197968
vt 0.049735 0.197968
vt 0.049735 0.197968
vt 0.049735 0.197968
vt 0.049735 0.197968
vt 0.049735 0.197968
vt 0.049735 0.197968
vt 0.049735 0.197968
vt 0.049735 0.197968
vt 0.049735 0.197968
vt 0.049735 0.197968
vt 0.049735 0.197968
vt 0.049735 0.197968
vt 0.049735 0.197968
vt 0.049735 0.197968
vt 0.049735 0.197968
vt 0.049735 0.197968
vt 0.049735 0.197968
vt 0.049735 0.197968
vt 0.049735 0.197968
vt 0.049735 0.197968
vt 0.049735 0.197968
vt 0.049735 0.197968
vt 0.049735 0.197968
vt 0.049735 0.197968
vt 0.049735 0.197968
vt 0.049735 0.197968
vt 0.049735 0.197968
vt 0.049735 0.197968
vt 0.049735 0.197968
vt 0.049735 0.197968
vt 0.049735 0.197968
vt 0.049735 0.197968
vt 0.049735 0.197968
vt 0.049735 0.197968
vt 0.049735 0.197968
vt 0.049735 0.197968
vt 0.049735 0.197968
vt 0.049735 0.197968
vt 0.049735 0.197968
vt 0.049735 0.197968
vt 0.049735 0.197968
vt 0.049735 0.197968
vt 0.049735 0.197968
vt 0.049735 0.197968
vt 0.049735 0.197968
vt 0.049735 0.197968
vt 0.049735 0.197968
vt 0.049735 0.197968
vt 0.049735 0.197968
vt 0.049735 0.197968
vt 0.049735 0.197968
vt 0.049735 0.197968
vt 0.049735 0.197968
vt 0.049735 0.197968
vt 0.049735 0.197968
vt 0.049735 0.197968
vt 0.049735 0.197968
vt 0.049735 0.197968
vt 0.049735 0.197968
vt 0.049735 0.197968
vt 0.049735 0.197968
vt 0.049735 0.197968
vt 0.049735 0.197968
vt 0.049735 0.197968
vt 0.049735 0.197968
vt 0.049735 0.197968
vt 0.049735 0.197968
vt 0.049735 0.197968
vt 0.049735 0.197968
vt 0.049735 0.197968
vt 0.049735 0.197968
vt 0.049735 0.197968
vt 0.049735 0.197968
vt 0.049735 0.197968
vt 0.049735 0.197968
vt 0.049735 0.197968
vt 0.049735 0.197968
vt 0.049735 0.197968
vt 0.049735 0.197968
vt 0.049735 0.197968
vt 0.049735 0.197968
vt 0.049735 0.197968
vt 0.049735 0.197968
vt 0.049735 0.197968
vt 0.049735 0.197968
vt 0.049735 0.197968
vt 0.049735 0.197968
vt 0.049735 0.197968
vt 0.049735 0.197968
vt 0.049735 0.197968
vt 0.049735 0.197968
vt 0.049735 0.197968
vt 0.049735 0.197968
vt 0.049735 0.197968
vt 0.049735 0.197968
vt 0.049735 0.197968
vt 0.049735 0.197968
vt 0.049735 0.197968
vt 0.049735 0.197968
vt 0.049735 0.197968
vt 0.049735 0.197968
vt 0.049735 0.197968
vt 0.049735 0.197968
vt 0.049735 0.197968
vt 0.049735 0.197968
vt 0.049735 0.197968
vt 0.049735 0.197968
vt 0.049735 0.197968
vt 0.049735 0.197968
vt 0.049735 0.197968
vt 0.049735 0.197968
vt 0.049735 0.197968
vt 0.049735 0.197968
vt 0.049735 0.197968
vn 0.262406 0.603550 -0.752908
vn 0.262406 0.603550 -0.752908
vn 0.262406 0.603550 -0.752908
vn 0.262406 0.603550 -0.752908
vn 0.145960 -0.189846 -0.970904
vn 0.145960 -0.189846 -0.970904
vn 0.145960 -0.189846 -0.970904
vn 0.145960 -0.189846 -0.970904
vn 0.794055 0.601162 -0.089894
vn 0.794055 0.601162 -0.089894
vn 0.794055 0.601162 -0.089894
vn 0.651570 0.753235 0.089967
vn 0.651569 0.753235 0.089967
vn 0.651570 0.753235 0.089967
vn 0.651570 0.753235 0.089967
vn 0.938207 0.337793 0.075254
vn 0.938207 0.337793 0.075254
vn 0.938207 0.337793 0.075254
vn 0.938207 0.337793 0.075254
vn 0.887037 0.313624 -0.338829
vn 0.887037 0.313624 -0.338829
vn 0.887037 0.313624 -0.338829
vn 0.887037 0.313624 -0.338829
vn 0.908501 -0.285111 -0.305512
vn 0.908501 -0.285111 -0.305512
vn 0.908501 -0.285111 -0.305512
vn 0.908501 -0.285111 -0.305512
vn 0.929821 0.077275 0.359808
vn 0.929821 0.077275 0.359808
vn 0.929821 0.077275 0.359808
vn 0.929821 0.077275 0.359808
vn 0.575945 -0.809819 -0.111719
vn 0.575945 -0.809819 -0.111719
vn 0.575945 -0.809819 -0.111719
vn 0.575945 -0.809819 -0.111719
vn 0.166707 -0.440640 0.882069
vn 0.166707 -0.440640 0.882069
vn 0.166707 -0.440640 0.882069
vn 0.166707 -0.440640 0.882069
vn 0.247329 -0.944725 -0.215228
vn 0.247329 -0.944725 -0.215228
vn 0.247329 -0.944725 -0.215228
vn 0.247329 -0.944725 -0.215228
vn 0.273171 -0.621205 0.734494
vn 0.273171 -0.621205 0.734494
vn 0.273171 -0.621205 0.734494
vn 0.273171 -0.621205 0.734494
vn 0.850096 -0.525537 0.033885
vn 0.850096 -0.525537 0.033885
vn 0.850096 -0.525537 0.033885
vn 0.850096 -0.525537 0.033885
vn 0.301065 0.218629 0.928203
vn 0.301065 0.218629 0.928203
vn 0.301065 0.218629 0.928203
vn 0.301065 0.218629 0.928203
vn 0.363491 -0.927064 -0.091791
vn 0.363491 -0.927064 -0.091791
vn 0.363491 -0.927064 -0.091791
vn 0.363491 -0.927064 -0.091791
vn 0.427275 0.122246 0.895819
vn 0.427275 0.122246 0.895819
vn 0.427275 0.122246 0.895819
vn 0.427275 0.122246 0.895819
vn 0.219515 -0.179775 -0.958903
vn 0.219515 -0.179775 -0.958903
vn 0.219515 -0.179775 -0.958903
vn 0.219515 -0.179775 -0.958903
vn 0.715701 -0.596392 -0.363439
vn 0.715701 -0.596392 -0.363440
vn 0.715701 -0.596392 -0.363440
vn 0.930224 -0.339598 -0.139130
vn 0.930224 -0.339598 -0.139131
vn 0.930224 -0.339598 -0.139130
vn 0.174322 -0.538084 -0.824668
vn 0.174322 -0.538084 -0.824668
vn 0.174322 -0.538084 -0.824668
vn 0.174322 -0.538084 -0.824668
vn 0.193682 -0.942879 -0.271047
vn 0.193682 -0.942879 -0.271047
vn 0.193682 -0.942879 -0.271047
vn 0.193682 -0.942879 -0.271047
vn -0.515230 0.174093 0.839184
vn -0.515230 0.174093 0.839184
vn -0.515230 0.174093 0.839184
vn -0.422955 0.888021 0.180354
vn -0.422955 0.888021 0.180354
vn -0.422955 0.888021 0.180354
vn -0.422955 0.888021 0.180354
vn -0.306194 0.948055 0.086240
vn -0.306194 0.948055 0.086240
vn -0.306194 0.948055 0.086240
vn -0.306194 0.948055 0.086240
vn -0.154773 0.614346 -0.773709
vn -0.154773 0.614346 -0.773709
vn -0.154773 0.614346 -0.773709
vn -0.154773 0.614346 -0.773709
vn -0.427449 -0.093449 -0.899197
vn -0.427449 -0.093449 -0.899197
vn -0.427449 -0.093449 -0.899197
vn 0.245825 0.957856 0.148602
vn 0.245825 0.957856 0.148602
vn 0.245825 0.957856 0.148602
vn 0.245825 0.957856 0.148602
vn 0.268830 0.961754 -0.052527
vn 0.268830 0.961754 -0.052527
vn 0.268830 0.961754 -0.052527
vn 0.268830 0.961754 -0.052527
vn 0.231779 -0.754797 0.613645
vn 0.231779 -0.754797 0.613645
vn 0.231779 -0.754797 0.613645
vn 0.231779 -0.754797 0.613645
vn 0.837613 -0.249356 -0.486032
vn 0.837612 -0.249356 -0.486032
vn 0.837613 -0.249356 -0.486032
vn 0.837613 -0.249356 -0.486032
vn -0.012306 -0.736748 0.676056
vn -0.012306 -0.736748 0.676056
vn -0.012306 -0.736748 0.676056
vn -0.012306 -0.736748 0.676056
vn -0.771740 0.212397 0.599421
vn -0.771740 0.212397 0.599421
vn -0.771740 0.212397 0.599421
vn -0.771740 0.212397 0.599421
vn 0.265484 0.957535 0.112453
vn 0.265484 0.957535 0.112453
vn 0.265484 0.957535 0.112453
vn 0.265484 0.957535 0.112453
vn 0.904528 -0.206527 -0.373063
vn 0.904528 -0.206527 -0.373063
vn 0.904528 -0.206527 -0.373063
vn 0.904528 -0.206527 -0.373063
vn -0.196243 -0.697446 -0.689244
vn -0.196243 -0.697447 -0.689244
vn -0.196243 -0.697446 -0.689244
vn -0.196243 -0.697447 -0.689244
vn -0.790795 0.215616 0.572846
vn -0.790795 0.215616 0.572846
vn -0.790795 0.215616 0.572846
vn -0.790795 0.215616 0.572846
vn 0.299420 0.610573 0.733176
vn 0.299420 0.610573 0.733177
vn 0.299420 0.610573 0.733176
vn 0.299420 0.610573 0.733177
vn 0.934142 -0.302824 -0.188884
vn 0.934142 -0.302824 -0.188884
vn 0.934142 -0.302824 -0.188884
vn 0.934142 -0.302824 -0.188884
vn -0.191496 -0.000735 -0.981493
vn -0.191496 -0.000735 -0.981493
vn -0.191496 -0.000735 -0.981493
vn -0.191496 -0.000735 -0.981493
vn -0.588836 -0.000671 0.808252
vn -0.588836 -0.000671 0.808252
vn -0.588836 -0.000671 0.808252
vn -0.588836 -0.000671 0.808252
vn 0.281547 -0.092784 0.955051
vn 0.281547 -0.092784 0.955051
vn 0.281547 -0.092784 0.955051
vn 0.281547 -0.092784 0.955051
vn -0.310544 -0.849215 0.427079
vn -0.310544 -0.849215 0.427079
vn -0.310544 -0.849215 0.427079
vn -0.813129 0.271520 0.514877
vn -0.813129 0.271520 0.514877
vn -0.813129 0.271520 0.514877
vn -0.813129 0.271520 0.514877
vn 0.251332 0.926829 0.278964
vn 0.251332 0.926829 0.278964
vn 0.251332 0.926829 0.278964
vn 0.251332 0.926829 0.278964
vn 0.787162 0.006978 -0.616707
vn 0.787162 0.006978 -0.616707
vn 0.787162 0.006978 -0.616707
vn -0.442150 -0.873719 -0.202776
vn -0.442150 -0.873719 -0.202776
vn -0.442150 -0.873719 -0.202776
vn -0.442150 -0.873719 -0.202776
vn -0.692532 0.114779 0.712197
vn -0.692532 0.114779 0.712197
vn -0.692532 0.114779 0.712197
vn -0.692532 0.114779 0.712197
vn 0.428562 0.534607 0.728375
vn 0.428562 0.534606 0.728375
vn 0.428562 0.534606 0.728375
vn 0.428562 0.534606 0.728375
vn 0.789263 -0.020708 -0.613707
vn 0.789263 -0.020708 -0.613707
vn 0.789263 -0.020708 -0.613707
vn 0.789263 -0.020708 -0.613707
vn -0.460006 0.032758 -0.887311
vn -0.460006 0.032758 -0.887311
vn -0.460006 0.032758 -0.887311
vn -0.460006 0.032758 -0.887311
vn -0.508747 -0.167624 0.844440
vn -0.508747 -0.167624 0.844440
vn -0.508747 -0.167624 0.844440
vn -0.508747 -0.167624 0.844440
vn 0.528271 -0.139692 0.837506
vn 0.528271 -0.139692 0.837506
vn 0.528271 -0.139692 0.837506
vn 0.528271 -0.139692 0.837506
vn 0.815040 -0.150959 -0.559393
vn 0.815040 -0.150959 -0.559393
vn 0.815040 -0.150960 -0.559393
vn 0.815040 -0.150959 -0.559393
vn 0.851419 0.423813 0.308979
vn 0.851419 0.423813 0.308979
vn 0.851419 0.423813 0.308979
vn 0.851419 0.423813 0.308979
vn -0.866684 0.106940 -0.487261
vn -0.866684 0.106940 -0.487261
vn -0.866684 0.106940 -0.487261
vn -0.866684 0.106940 -0.487261
vn 0.956753 0.030058 0.289346
vn 0.956753 0.030058 0.289345
vn 0.956753 0.030058 0.289345
vn 0.956753 0.030058 0.289345
vn -0.679815 -0.703383 0.207614
vn -0.679815 -0.703383 0.207614
vn -0.679815 -0.703383 0.207614
vn -0.143620 0.112512 0.983216
vn -0.143620 0.112512 0.983216
vn -0.143620 0.112512 0.983216
vn -0.905918 -0.407664 -0.114558
vn -0.905918 -0.407664 -0.114558
vn -0.905918 -0.407664 -0.114558
vn -0.905918 -0.407664 -0.114558
vn 0.960798 0.242458 0.134469
vn 0.960798 0.242458 0.134469
vn 0.960798 0.242458 0.134469
vn 0.960798 0.242458 0.134469
vn 0.839328 0.246658 -0.484446
vn 0.839328 0.246658 -0.484446
vn 0.839328 0.246658 -0.484446
vn 0.839328 0.246658 -0.484446
vn -0.965551 -0.230487 -0.120775
vn -0.965551 -0.230487 -0.120775
vn -0.965551 -0.230487 -0.120775
vn 0.347623 -0.414427 0.841076
vn 0.347623 -0.414427 0.841076
vn 0.347623 -0.414427 0.841076
vn 0.347623 -0.414427 0.841076
vn -0.970910 -0.238765 -0.018051
vn -0.970910 -0.238765 -0.018051
vn -0.970910 -0.238765 -0.018051
vn -0.673249 0.739414 -0.001414
vn -0.673249 0.739414 -0.001414
vn -0.673249 0.739414 -0.001414
vn -0.646857 0.710428 0.277251
vn -0.646857 0.710428 0.277251
vn -0.646857 0.710428 0.277251
vn 0.947099 -0.191959 0.257208
vn 0.947099 -0.191959 0.257208
vn 0.947099 -0.191959 0.257208
vn 0.797507 -0.152677 -0.583671
vn 0.797507 -0.152677 -0.583671
vn 0.797507 -0.152677 -0.583671
vn -0.301350 0.596737 -0.743703
vn -0.301350 0.596737 -0.743703
vn -0.301350 0.596737 -0.743703
vn -0.301350 0.596737 -0.743703
vn -0.155765 -0.202626 -0.966788
vn -0.155765 -0.202626 -0.966788
vn -0.155765 -0.202626 -0.966788
vn -0.155765 -0.202626 -0.966788
vn -0.750067 0.659909 0.043810
vn -0.750067 0.659909 0.043810
vn -0.750067 0.659909 0.043810
vn -0.494490 0.868435 0.036058
vn -0.494490 0.868435 0.036058
vn -0.494490 0.868435 0.036058
vn -0.494490 0.868435 0.036058
vn -0.938207 0.337793 0.075254
vn -0.938207 0.337793 0.075254
vn -0.938207 0.337793 0.075254
vn -0.938207 0.337793 0.075254
vn -0.887037 0.313624 -0.338829
vn -0.887037 0.313624 -0.338829
vn -0.887037 0.313624 -0.338829
vn -0.887037 0.313624 -0.338829
vn -0.908501 -0.285111 -0.305511
vn -0.908501 -0.285111 -0.305511
vn -0.908501 -0.285111 -0.305511
vn -0.908501 -0.285111 -0.305511
vn -0.929821 0.077275 0.359807
vn -0.929821 0.077275 0.359807
vn -0.929821 0.077275 0.359807
vn -0.929821 0.077275 0.359807
vn -0.575945 -0.809819 -0.111717
vn -0.575945 -0.809819 -0.111717
vn -0.575945 -0.809819 -0.111717
vn -0.575945 -0.809819 -0.111717
vn -0.141405 -0.431424 0.890999
vn -0.141405 -0.431424 0.890999
vn -0.141405 -0.431424 0.890999
vn -0.141405 -0.431424 0.890999
vn -0.247329 -0.944725 -0.215228
vn -0.247329 -0.944725 -0.215228
vn -0.247329 -0.944725 -0.215228
vn -0.247329 -0.944725 -0.215228
vn -0.273171 -0.621205 0.734494
vn -0.273171 -0.621205 0.734494
vn -0.273171 -0.621205 0.734494
vn -0.273171 -0.621205 0.734494
vn -0.850096 -0.525537 0.033886
vn -0.850096 -0.525537 0.033886
vn -0.850096 -0.525537 0.033886
vn -0.850096 -0.525537 0.033886
vn -0.301064 0.218628 0.928204
vn -0.301064 0.218628 0.928204
vn -0.301064 0.218628 0.928204
vn -0.301064 0.218628 0.928204
vn -0.363491 -0.927065 -0.091791
vn -0.363491 -0.927065 -0.091791
vn -0.363491 -0.927065 -0.091791
vn -0.363491 -0.927065 -0.091791
vn -0.427275 0.122246 0.895819
vn -0.427275 0.122246 0.895819
vn -0.427275 0.122246 0.895819
vn -0.427275 0.122246 0.895819
vn -0.219515 -0.179775 -0.958903
vn -0.219515 -0.179775 -0.958903
vn -0.219515 -0.179775 -0.958903
vn -0.219515 -0.179775 -0.958903
vn -0.715702 -0.596392 -0.363438
vn -0.715702 -0.596392 -0.363438
vn -0.715702 -0.596392 -0.363438
vn -0.930223 -0.339598 -0.139132
vn -0.930223 -0.339598 -0.139132
vn -0.930223 -0.339598 -0.139132
vn -0.174322 -0.538084 -0.824668
vn -0.174322 -0.538084 -0.824668
vn -0.174322 -0.538085 -0.824668
vn -0.174322 -0.538084 -0.824668
vn -0.193682 -0.942880 -0.271044
vn -0.193682 -0.942880 -0.271044
vn -0.193682 -0.942880 -0.271044
vn -0.193682 -0.942880 -0.271044
vn 0.515230 0.174093 0.839184
vn 0.515230 0.174093 0.839184
vn 0.515230 0.174093 0.839184
vn 0.328030 0.905038 0.270747
vn 0.328029 0.905038 0.270747
vn 0.328029 0.905038 0.270747
vn 0.328029 0.905038 0.270747
vn 0.224984 0.973328 0.044891
vn 0.224984 0.973328 0.044891
vn 0.224984 0.973328 0.044891
vn 0.224984 0.973328 0.044891
vn 0.105332 0.618194 -0.778936
vn 0.105332 0.618194 -0.778936
vn 0.105332 0.618194 -0.778936
vn 0.105332 0.618194 -0.778936
vn 0.302496 -0.098526 -0.948045
vn 0.302496 -0.098526 -0.948045
vn 0.302496 -0.098526 -0.948045
vn -0.253109 0.952648 0.168518
vn -0.253109 0.952648 0.168518
vn -0.253109 0.952648 0.168518
vn -0.253109 0.952648 0.168518
vn -0.319981 0.944624 -0.072790
vn -0.319981 0.944624 -0.072790
vn -0.319981 0.944624 -0.072790
vn -0.319981 0.944624 -0.072790
vn -0.231779 -0.754795 0.613648
vn -0.231779 -0.754795 0.613648
vn -0.231779 -0.754795 0.613648
vn -0.231779 -0.754795 0.613648
vn -0.912798 -0.312015 -0.263529
vn -0.912798 -0.312015 -0.263529
vn -0.912798 -0.312015 -0.263528
vn -0.912798 -0.312015 -0.263528
vn -0.051915 -0.511458 0.857739
vn -0.051915 -0.511458 0.857739
vn -0.051915 -0.511458 0.857739
vn -0.051915 -0.511458 0.857739
vn 0.933837 0.344134 0.097574
vn 0.933837 0.344134 0.097574
vn 0.933837 0.344134 0.097574
vn 0.933837 0.344134 0.097574
vn -0.075210 0.934616 -0.347615
vn -0.075210 0.934616 -0.347615
vn -0.075210 0.934616 -0.347615
vn -0.075210 0.934616 -0.347615
vn -0.913914 -0.216611 -0.343279
vn -0.913914 -0.216612 -0.343279
vn -0.913914 -0.216611 -0.343279
vn -0.913914 -0.216611 -0.343279
vn 0.182776 -0.572322 -0.799400
vn 0.182776 -0.572322 -0.799400
vn 0.182776 -0.572322 -0.799400
vn 0.182776 -0.572322 -0.799400
vn 0.804791 0.231380 0.546602
vn 0.804791 0.231380 0.546602
vn 0.804791 0.231380 0.546602
vn 0.804791 0.231380 0.546602
vn -0.272192 0.422154 0.864695
vn -0.272192 0.422154 0.864695
vn -0.272192 0.422155 0.864695
vn -0.272192 0.422154 0.864695
vn -0.936825 -0.329602 -0.117139
vn -0.936825 -0.329602 -0.117139
vn -0.936825 -0.329602 -0.117139
vn -0.936825 -0.329602 -0.117139
vn 0.158860 -0.027432 -0.986920
vn 0.158860 -0.027432 -0.986920
vn 0.158860 -0.027432 -0.986920
vn 0.158860 -0.027432 -0.986920
vn 0.487378 -0.089758 0.868566
vn 0.487378 -0.089758 0.868566
vn 0.487378 -0.089758 0.868566
vn 0.487378 -0.089758 0.868566
vn -0.226922 -0.078659 0.970731
vn -0.226922 -0.078659 0.970731
vn -0.226922 -0.078659 0.970731
vn -0.226922 -0.078659 0.970731
vn 0.073912 -0.787337 0.612076
vn 0.073912 -0.787337 0.612076
vn 0.073912 -0.787338 0.612076
vn 0.851092 0.330930 0.407589
vn 0.851092 0.330930 0.407589
vn 0.851092 0.330929 0.407589
vn 0.851092 0.330930 0.407589
vn -0.238533 0.970245 -0.041549
vn -0.238533 0.970245 -0.041549
vn -0.238533 0.970245 -0.041549
vn -0.238533 0.970245 -0.041549
vn -0.709459 -0.351072 -0.611078
vn -0.709459 -0.351072 -0.611078
vn -0.709459 -0.351072 -0.611078
vn 0.530309 -0.760458 -0.374802
vn 0.530309 -0.760458 -0.374802
vn 0.530309 -0.760458 -0.374802
vn 0.530309 -0.760458 -0.374802
vn 0.649444 0.054208 0.758475
vn 0.649444 0.054208 0.758475
vn 0.649444 0.054208 0.758475
vn 0.649444 0.054208 0.758475
vn -0.458893 0.395805 0.795460
vn -0.458892 0.395804 0.795460
vn -0.458893 0.395805 0.795460
vn -0.458893 0.395805 0.795460
vn -0.537787 -0.000968 -0.843080
vn -0.537787 -0.000968 -0.843080
vn -0.537787 -0.000968 -0.843080
vn -0.537787 -0.000968 -0.843080
vn 0.470281 0.050785 -0.881054
vn 0.470281 0.050785 -0.881054
vn 0.470281 0.050785 -0.881054
vn 0.470281 0.050785 -0.881054
vn 0.525980 -0.141047 0.838720
vn 0.525980 -0.141047 0.838720
vn 0.525980 -0.141047 0.838720
vn 0.525980 -0.141047 0.838720
vn -0.540864 -0.158600 0.826022
vn -0.540864 -0.158600 0.826022
vn -0.540864 -0.158600 0.826022
vn -0.540864 -0.158600 0.826022
vn -0.822681 -0.169988 -0.542495
vn -0.822681 -0.169988 -0.542495
vn -0.822681 -0.169988 -0.542495
vn -0.822681 -0.169988 -0.542495
vn -0.945562 0.269535 0.182385
vn -0.945562 0.269535 0.182386
vn -0.945562 0.269535 0.182386
vn -0.945562 0.269535 0.182386
vn 0.866682 0.106952 -0.487261
vn 0.866682 0.106952 -0.487261
vn 0.866683 0.106952 -0.487261
vn 0.866682 0.106952 -0.487261
vn -0.956753 0.030058 0.289345
vn -0.956753 0.030058 0.289345
vn -0.956753 0.030058 0.289345
vn -0.956753 0.030058 0.289345
vn 0.666690 -0.715293 0.209476
vn 0.666690 -0.715293 0.209476
vn 0.666690 -0.715293 0.209476
vn 0.666690 -0.715293 0.209476
vn -0.015977 0.092702 0.995566
vn -0.015977 0.092702 0.995566
vn -0.015977 0.092702 0.995566
vn -0.015977 0.092702 0.995566
vn 0.905922 -0.407654 -0.114556
vn 0.905922 -0.407654 -0.114556
vn 0.905922 -0.407654 -0.114556
vn 0.905922 -0.407654 -0.114556
vn -0.960795 0.242469 0.134469
vn -0.960795 0.242469 0.134469
vn -0.960795 0.242469 0.134469
vn -0.960795 0.242469 0.134469
vn -0.839319 0.246660 -0.484460
vn -0.839319 0.246660 -0.484460
vn -0.839319 0.246660 -0.484460
vn -0.839319 0.246660 -0.484460
vn 0.965548 -0.230509 -0.120759
vn 0.965548 -0.230509 -0.120759
vn 0.965548 -0.230509 -0.120759
vn -0.347616 -0.414427 0.841079
vn -0.347616 -0.414427 0.841079
vn -0.347616 -0.414427 0.841079
vn -0.347616 -0.414427 0.841079
vn 0.970905 -0.238786 -0.018016
vn 0.970905 -0.238786 -0.018016
vn 0.970905 -0.238786 -0.018016
vn 0.671957 0.737995 0.061947
vn 0.671957 0.737995 0.061947
vn 0.671957 0.737995 0.061947
vn 0.638750 0.701524 -0.316009
vn 0.638750 0.701524 -0.316009
vn 0.638750 0.701524 -0.316009
vn 0.897155 -0.429774 0.102021
vn 0.897155 -0.429774 0.102021
vn 0.897155 -0.429774 0.102021
vn 0.897155 -0.429774 0.102021
vn -0.897152 -0.429783 0.102004
vn -0.897152 -0.429783 0.102004
vn -0.897152 -0.429783 0.102004
vn -0.897152 -0.429783 0.102004
vn 0.244991 -0.948249 0.201998
vn 0.244991 -0.948249 0.201998
vn 0.244991 -0.948249 0.201998
vn 0.205152 -0.953517 -0.220721
vn 0.205152 -0.953517 -0.220721
vn 0.205152 -0.953517 -0.220720
vn 0.466474 -0.547833 0.694465
vn 0.466474 -0.547833 0.694465
vn 0.466474 -0.547832 0.694465
vn 0.467592 0.242498 0.850031
vn 0.467592 0.242498 0.850031
vn 0.467592 0.242498 0.850031
vn -0.150214 -0.978640 -0.140355
vn -0.150214 -0.978640 -0.140355
vn -0.150214 -0.978640 -0.140355
vn -0.477642 0.162460 0.863403
vn -0.477642 0.162460 0.863403
vn -0.477642 0.162460 0.863403
vn 0.022793 -0.131001 -0.991120
vn 0.022793 -0.131001 -0.991120
vn 0.022793 -0.131001 -0.991120
vn -0.237154 -0.719694 0.652532
vn -0.237154 -0.719694 0.652532
vn -0.237154 -0.719694 0.652532
vn -0.150070 -0.798065 0.583584
vn -0.150070 -0.798065 0.583584
vn -0.150070 -0.798065 0.583584
vn 0.048881 -0.723603 0.688483
vn 0.048881 -0.723603 0.688483
vn 0.048881 -0.723603 0.688483
vn -0.196629 -0.822991 0.532939
vn -0.196629 -0.822991 0.532939
vn -0.196629 -0.822991 0.532939
vn -0.070987 -0.779360 0.622543
vn -0.070987 -0.779360 0.622543
vn -0.070987 -0.779360 0.622543
vn -0.026464 -0.827169 0.561330
vn -0.026464 -0.827169 0.561331
vn -0.026464 -0.827169 0.561330
vn -0.202310 -0.954032 -0.221118
vn -0.202310 -0.954032 -0.221118
vn -0.202310 -0.954032 -0.221118
vn -0.461410 -0.549583 0.696462
vn -0.461410 -0.549583 0.696462
vn -0.461410 -0.549583 0.696462
vn -0.462442 0.243750 0.852487
vn -0.462442 0.243750 0.852487
vn -0.462442 0.243750 0.852487
vn 0.148080 -0.978991 -0.140175
vn 0.148080 -0.978991 -0.140175
vn 0.148080 -0.978991 -0.140175
vn 0.472022 0.162618 0.866459
vn 0.472022 0.162618 0.866459
vn 0.472022 0.162618 0.866459
vn -0.022462 -0.130987 -0.991130
vn -0.022462 -0.130987 -0.991130
vn -0.022462 -0.130987 -0.991130
vn 0.070786 -0.778835 0.623222
vn 0.070786 -0.778835 0.623222
vn 0.070786 -0.778835 0.623222
vn 0.148170 -0.798513 0.583458
vn 0.148170 -0.798513 0.583458
vn 0.148170 -0.798513 0.583458
vn -0.048763 -0.723196 0.688920
vn -0.048763 -0.723195 0.688920
vn -0.048763 -0.723195 0.688920
vn 0.194994 -0.824073 0.531865
vn 0.194994 -0.824073 0.531865
vn 0.194994 -0.824073 0.531865
vn 0.070795 -0.778835 0.623221
vn 0.070795 -0.778835 0.623221
vn 0.070795 -0.778835 0.623221
s off
f 35/40/1 15/1/2 16/4/3 36/41/4
f 17/6/5 4/5/6 36/41/7 16/4/8
f 34/39/9 37/42/10 35/40/11
f 71/76/12 38/43/13 37/42/14 34/39/15
f 18/7/16 21/14/17 22/13/18 15/1/19
f 15/1/20 22/13/21 23/15/22 16/4/23
f 16/4/24 23/15/25 24/16/26 17/6/27
f 26/17/28 21/20/29 20/19/30 25/18/31
f 31/35/32 30/32/33 29/31/34 32/36/35
f 48/53/36 51/56/37 50/55/38 49/54/39
f 9/24/40 22/13/41 21/14/42 10/37/43
f 11/25/44 23/15/45 22/13/46 9/24/47
f 29/31/48 30/32/49 24/16/50 12/26/51
f 12/26/52 24/16/53 23/15/54 11/25/55
f 13/27/56 26/17/57 25/18/58 14/28/59
f 14/28/60 25/18/61 20/19/62 8/29/63
f 10/30/64 21/20/65 26/17/66 13/27/67
f 17/6/68 30/32/69 31/35/70
f 24/16/71 30/32/72 17/6/73
f 31/35/74 28/34/75 4/5/76 17/6/77
f 32/36/78 27/33/79 28/34/80 31/35/81
f 33/38/82 6/10/83 1/22/84
f 6/10/85 33/38/86 34/39/87 5/8/88
f 5/8/89 34/39/90 35/40/91 3/2/92
f 3/2/93 35/40/94 36/41/95 2/3/96
f 4/5/97 2/3/98 36/41/99
f 37/42/100 18/7/101 15/1/102 35/40/103
f 38/43/104 72/77/105 18/7/106 37/42/107
f 59/64/108 62/67/109 61/66/110 60/65/111
f 38/43/112 40/45/113 41/46/114 39/44/115
f 39/44/116 41/46/117 42/47/118 1/22/119
f 1/22/120 42/47/121 43/48/122 33/38/123
f 71/76/124 43/48/125 40/45/126 38/43/127
f 40/45/128 44/49/129 45/50/130 41/46/131
f 41/46/132 45/50/133 46/51/134 42/47/135
f 42/47/136 46/51/137 47/52/138 43/48/139
f 43/48/140 47/52/141 44/49/142 40/45/143
f 44/49/144 48/53/145 49/54/146 45/50/147
f 45/50/148 49/54/149 50/55/150 46/51/151
f 46/51/152 50/55/153 51/56/154 47/52/155
f 47/52/156 51/56/157 48/53/158 44/49/159
f 7/21/160 52/57/161 39/44/162
f 39/44/163 52/57/164 53/58/165 38/43/166
f 38/43/167 53/58/168 54/59/169 72/77/170
f 19/9/171 54/59/172 7/21/173
f 7/21/174 55/60/175 56/61/176 52/57/177
f 52/57/178 56/61/179 57/62/180 53/58/181
f 53/58/182 57/62/183 58/63/184 54/59/185
f 54/59/186 58/63/187 55/60/188 7/21/189
f 55/60/190 59/64/191 60/65/192 56/61/193
f 56/61/194 60/65/195 61/66/196 57/62/197
f 57/62/198 61/66/199 62/67/200 58/63/201
f 58/63/202 62/67/203 59/64/204 55/60/205
f 19/9/206 64/68/207 63/69/208 18/7/209
f 21/12/210 66/70/211 65/71/212 20/11/213
f 18/7/214 63/69/215 66/70/216 21/12/217
f 8/23/218 67/72/219 7/21/220
f 7/21/221 64/68/222 19/9/223
f 20/11/224 65/71/225 67/72/226 8/23/227
f 64/68/228 69/73/229 68/74/230 63/69/231
f 63/69/232 68/74/233 65/71/234 66/70/235
f 67/72/236 70/75/237 7/21/238
f 7/21/239 70/75/240 69/73/241 64/68/242
f 65/71/243 70/75/244 67/72/245
f 33/38/246 71/76/247 34/39/248
f 43/48/249 71/76/250 33/38/251
f 18/7/252 72/77/253 19/9/254
f 19/9/255 72/77/256 54/59/257
f 99/78/258 100/79/259 82/80/260 81/81/261
f 83/82/262 82/80/263 100/79/264 4/83/265
f 98/84/266 99/78/267 101/85/268
f 136/86/269 98/84/270 101/85/271 102/87/272
f 84/88/273 81/81/274 88/89/275 87/90/276
f 81/81/277 82/80/278 89/91/279 88/89/280
f 82/80/281 83/82/282 90/92/283 89/91/284
f 92/93/285 91/94/286 86/95/287 87/96/288
f 95/97/289 96/98/290 93/99/291 94/100/292
f 112/101/293 113/102/294 114/103/295 115/104/296
f 75/105/297 76/106/298 87/90/299 88/89/300
f 77/107/301 75/105/302 88/89/303 89/91/304
f 93/99/305 78/108/306 90/92/307 94/100/308
f 78/108/309 77/107/310 89/91/311 90/92/312
f 79/109/313 80/110/314 91/94/315 92/93/316
f 80/110/317 74/111/318 86/95/319 91/94/320
f 76/112/321 79/109/322 92/93/323 87/96/324
f 83/82/325 95/97/326 94/100/327
f 90/92/328 83/82/329 94/100/330
f 95/97/331 83/82/332 4/83/333 28/114/334
f 96/98/335 95/97/336 28/114/337 27/113/338
f 97/115/339 1/116/340 6/117/341
f 6/117/342 5/118/343 98/84/344 97/115/345
f 5/118/346 3/119/347 99/78/348 98/84/349
f 3/119/350 2/120/351 100/79/352 99/78/353
f 4/83/354 100/79/355 2/120/356
f 101/85/357 99/78/358 81/81/359 84/88/360
f 102/121/361 101/85/362 84/88/363 85/122/364
f 123/123/365 124/124/366 125/125/367 126/126/368
f 102/87/369 103/127/370 105/128/371 104/129/372
f 103/127/373 1/116/374 106/130/375 105/128/376
f 1/116/377 97/115/378 107/131/379 106/130/380
f 136/86/381 102/87/382 104/129/383 107/131/384
f 104/129/385 105/128/386 109/132/387 108/133/388
f 105/128/389 106/130/390 110/134/391 109/132/392
f 106/130/393 107/131/394 111/135/395 110/134/396
f 107/131/397 104/129/398 108/133/399 111/135/400
f 108/133/401 109/132/402 113/102/403 112/101/404
f 109/132/405 110/134/406 114/103/407 113/102/408
f 110/134/409 111/135/410 115/104/411 114/103/412
f 111/135/413 108/133/414 112/101/415 115/104/416
f 73/136/417 103/127/418 116/137/419
f 103/127/420 102/87/421 117/138/422 116/137/423
f 102/121/424 85/122/425 118/139/426 117/138/427
f 85/122/428 73/136/429 118/139/430
f 73/136/431 116/137/432 120/140/433 119/141/434
f 116/137/435 117/138/436 121/142/437 120/140/438
f 117/138/439 118/139/440 122/143/441 121/142/442
f 118/139/443 73/136/444 119/141/445 122/143/446
f 119/141/447 120/140/448 124/124/449 123/123/450
f 120/140/451 121/142/452 125/125/453 124/124/454
f 121/142/455 122/143/456 126/126/457 125/125/458
f 122/143/459 119/141/460 123/123/461 126/126/462
f 85/122/463 84/88/464 127/144/465 128/145/466
f 87/146/467 86/147/468 129/148/469 130/149/470
f 84/88/471 87/146/472 130/149/473 127/144/474
f 74/150/475 73/136/476 132/151/477 131/152/478
f 73/136/479 85/122/480 128/145/481 132/151/482
f 86/147/483 74/150/484 131/152/485 129/148/486
f 128/145/487 127/144/488 133/153/489 134/154/490
f 127/144/491 130/149/492 129/148/493 133/153/494
f 131/152/495 132/151/496 135/155/497
f 132/151/498 128/145/499 134/154/500 135/155/501
f 129/148/502 131/152/503 135/155/504
f 97/115/505 98/84/506 136/86/507
f 107/131/508 97/115/509 136/86/510
f 69/73/511 70/75/512 65/71/513 68/74/514
f 134/154/515 133/153/516 129/148/517 135/155/518
f 8/156/519 7/157/520 137/158/521
f 9/159/522 10/160/523 137/161/524
f 11/162/525 9/163/526 137/164/527
f 12/165/528 11/166/529 137/167/530
f 13/168/531 14/169/532 137/170/533
f 14/171/534 8/172/535 137/173/536
f 10/174/537 13/175/538 137/176/539
f 7/177/540 39/178/541 137/179/542
f 29/180/543 12/181/544 137/182/545
f 27/183/546 32/184/547 137/185/548
f 32/186/549 29/187/550 137/188/551
f 39/189/552 1/190/553 137/191/554
f 73/192/555 74/193/556 137/194/557
f 76/195/558 75/196/559 137/197/560
f 75/198/561 77/199/562 137/200/563
f 77/201/564 78/202/565 137/203/566
f 80/204/567 79/205/568 137/206/569
f 74/207/570 80/208/571 137/209/572
f 79/210/573 76/211/574 137/212/575
f 103/213/576 73/214/577 137/215/578
f 78/216/579 93/217/580 137/218/581
f 96/219/582 27/220/583 137/221/584
f 93/222/585 96/223/586 137/224/587
f 1/225/588 103/226/589 137/227/590
