# This file uses centimeters as units for non-parametric coordinates.

v 0.000000 111.854721 9.374863
v 0.000000 109.698669 -9.994545
v -0.091738 116.607803 -4.522514
v 0.000000 101.047104 -9.095436
v 0.582728 115.589699 4.200855
v 0.000000 114.414749 7.926783
v 8.567705 109.223000 8.268378
v 8.354079 108.489235 5.082886
v 10.613360 107.779556 -2.306504
v 8.687965 106.507744 0.614798
v 10.671447 105.986679 -3.754077
v 8.653255 101.294708 -2.468111
v 8.537661 104.135803 1.434355
v 8.073397 103.980118 4.721186
v 9.124134 114.631752 -3.990421
v 9.402516 108.262131 -9.092705
v 9.621501 102.874863 -8.656410
v 9.205840 113.621521 4.560204
v 8.166409 112.830231 7.796967
v 9.087172 108.469604 4.700912
v 11.114887 107.920563 1.314779
v 11.475831 108.997459 -2.984199
v 11.520811 107.032776 -4.749767
v 10.150636 102.119331 -3.274262
v 10.045964 104.447845 4.252175
v 10.474665 104.908249 1.880177
v 0.000000 98.395493 -6.391800
v 0.000000 98.810333 -7.886116
v 8.314972 100.269409 -3.957199
v 9.291430 100.928452 -6.112411
v 7.466946 100.069328 -6.879066
v 6.722515 99.550034 -5.655663
v 0.865532 114.769722 8.824055
v 2.629869 116.840439 4.154102
v 1.648759 116.877167 -4.720959
v 2.043314 109.087830 -10.902390
v 5.626966 116.910202 1.776831
v 4.630457 117.067368 8.137490
v 3.528571 111.390656 8.488966
v 4.623882 111.537796 10.003455
v 5.779373 114.933533 10.874374
v 9.595396 114.287415 9.626236
v 9.113664 109.467102 9.136093
v 5.287045 110.251205 10.991325
v 7.036116 111.672974 13.446035
v 10.257222 111.031219 11.830031
v 8.121788 103.593666 9.275932
v 6.319780 104.062439 10.385010
v 7.365380 104.912323 12.172835
v 8.805401 104.528580 11.206775
v 11.126257 111.281158 5.954475
v 10.828847 110.703949 8.210747
v 9.696838 105.448868 4.752207
v 9.708962 107.964981 3.484173
v 9.162725 107.957001 5.927474
v 11.141176 106.588661 5.800957
v 10.870483 106.775253 7.379674
v 9.631691 105.502968 6.511468
v 2.629869 116.840439 4.154099
v 8.429991 116.121948 7.811745
v -7.057184 110.601616 8.256790
v -8.354079 108.489235 5.082886
v -10.613360 107.779556 -2.306504
v -8.687965 106.507744 0.614798
v -10.671447 105.986679 -3.754077
v -8.653255 101.294708 -2.468111
v -8.537661 104.135803 1.434355
v -8.073397 103.980118 4.721186
v -9.124134 114.631752 -3.990421
v -9.402516 108.262131 -9.092705
v -9.899254 102.874863 -8.656410
v -9.205840 113.621521 4.560204
v -8.429991 114.723763 7.811745
v -9.087172 108.469604 4.700912
v -11.114887 107.920563 1.314779
v -11.475831 108.997459 -2.984199
v -11.520811 107.032776 -4.749767
v -10.428389 102.119331 -3.274262
v -10.045964 104.447845 4.252175
v -10.474665 104.908249 1.880177
v -8.314972 100.269409 -3.957199
v -9.569183 100.928452 -6.112411
v -7.466946 100.069328 -6.879066
v -6.722515 99.550034 -5.655663
v -1.481834 114.503807 8.282558
v -2.132800 116.840439 3.800655
v -2.649657 116.877167 -4.720959
v -3.044212 109.087830 -10.902390
v -5.787539 116.910202 1.072783
v -5.037929 115.883057 8.146652
v -3.528571 111.390656 8.488966
v -4.719275 112.188385 10.015572
v -6.010648 116.440140 10.988922
v -9.969481 115.718124 9.594009
v -9.243179 109.467102 9.136093
v -5.627003 110.251205 10.991325
v -7.376070 111.672974 13.446035
v -10.386745 111.031219 11.830031
v -8.121788 103.593666 9.275932
v -6.319780 104.062439 10.385010
v -7.365380 104.912323 12.172835
v -8.805401 104.528580 11.206775
v -11.351192 111.281158 5.954475
v -11.053782 110.703949 8.210747
v -9.696804 105.448868 4.752204
v -9.708962 107.964981 3.484173
v -9.162725 107.957001 5.927474
v -8.567705 109.223000 8.268378
v -11.366161 106.588661 5.800965
v -11.095463 106.775253 7.379674
v -9.631734 105.503021 6.511468
v -2.926705 115.819359 8.282558
v 0.062892 105.490318 1.060443
v -1.652292 111.894089 8.650776
v 1.652292 111.894089 8.650776
v -5.971652 115.761353 -4.346133
v 5.878760 115.642868 -4.307598
vt 0.050356 0.198441
vt 0.050356 0.198441
vt 0.050356 0.198441
vt 0.050356 0.198441
vt 0.050356 0.198441
vt 0.050356 0.198441
vt 0.050356 0.198441
vt 0.050356 0.198441
vt 0.050356 0.198441
vt 0.050356 0.198441
vt 0.050356 0.198441
vt 0.050356 0.198441
vt 0.050356 0.198441
vt 0.050356 0.198441
vt 0.050356 0.198441
vt 0.050356 0.198441
vt 0.050356 0.198441
vt 0.050356 0.198441
vt 0.050356 0.198441
vt 0.050356 0.198441
vt 0.050356 0.198441
vt 0.050356 0.198441
vt 0.050356 0.198441
vt 0.050356 0.198441
vt 0.050356 0.198441
vt 0.050356 0.198441
vt 0.050356 0.198441
vt 0.050356 0.198441
vt 0.050356 0.198441
vt 0.050356 0.198441
vt 0.050356 0.198441
vt 0.050356 0.198441
vt 0.050356 0.198441
vt 0.050356 0.198441
vt 0.050356 0.198441
vt 0.050356 0.198441
vt 0.050356 0.198441
vt 0.050356 0.198441
vt 0.050356 0.198441
vt 0.050356 0.198441
vt 0.050356 0.198441
vt 0.050356 0.198441
vt 0.050356 0.198441
vt 0.050356 0.198441
vt 0.050356 0.198441
vt 0.050356 0.198441
vt 0.050356 0.198441
vt 0.050356 0.198441
vt 0.050356 0.198441
vt 0.050356 0.198441
vt 0.050356 0.198441
vt 0.050356 0.198441
vt 0.050356 0.198441
vt 0.050356 0.198441
vt 0.050356 0.198441
vt 0.050356 0.198441
vt 0.050356 0.198441
vt 0.050356 0.198441
vt 0.050356 0.198441
vt 0.050356 0.198441
vt 0.050356 0.198441
vt 0.050356 0.198441
vt 0.050356 0.198441
vt 0.050356 0.198441
vt 0.050356 0.198441
vt 0.050356 0.198441
vt 0.050356 0.198441
vt 0.050356 0.198441
vt 0.050356 0.198441
vt 0.050356 0.198441
vt 0.050356 0.198441
vt 0.050356 0.198441
vt 0.050356 0.198441
vt 0.050356 0.198441
vt 0.050356 0.198441
vt 0.050356 0.198441
vt 0.050356 0.198441
vt 0.050356 0.198441
vt 0.050356 0.198441
vt 0.050356 0.198441
vt 0.050356 0.198441
vt 0.050356 0.198441
vt 0.050356 0.198441
vt 0.050356 0.198441
vt 0.050356 0.198441
vt 0.050356 0.198441
vt 0.050356 0.198441
vt 0.050356 0.198441
vt 0.050356 0.198441
vt 0.050356 0.198441
vt 0.050356 0.198441
vt 0.050356 0.198441
vt 0.050356 0.198441
vt 0.050356 0.198441
vt 0.050356 0.198441
vt 0.050356 0.198441
vt 0.050356 0.198441
vt 0.050356 0.198441
vt 0.050356 0.198441
vt 0.050356 0.198441
vt 0.050356 0.198441
vt 0.050356 0.198441
vt 0.050356 0.198441
vt 0.050356 0.198441
vt 0.050356 0.198441
vt 0.050356 0.198441
vt 0.050356 0.198441
vt 0.050356 0.198441
vt 0.050356 0.198441
vt 0.050356 0.198441
vt 0.050356 0.198441
vt 0.050356 0.198441
vt 0.050356 0.198441
vt 0.050356 0.198441
vt 0.050356 0.198441
vt 0.050356 0.198441
vt 0.050356 0.198441
vt 0.050356 0.198441
vt 0.050356 0.198441
vt 0.050356 0.198441
vt 0.050356 0.198441
vt 0.050356 0.198441
vt 0.050356 0.198441
vt 0.050356 0.198441
vt 0.050356 0.198441
vt 0.050356 0.198441
vt 0.050356 0.198441
vt 0.050356 0.198441
vt 0.050356 0.198441
vt 0.050356 0.198441
vt 0.050356 0.198441
vt 0.050356 0.198441
vt 0.050356 0.198441
vt 0.050356 0.198441
vt 0.050356 0.198441
vt 0.050356 0.198441
vt 0.050356 0.198441
vt 0.050356 0.198441
vt 0.050356 0.198441
vt 0.050356 0.198441
vt 0.050356 0.198441
vt 0.050356 0.198441
vt 0.050356 0.198441
vt 0.050356 0.198441
vt 0.050356 0.198441
vt 0.050356 0.198441
vt 0.050356 0.198441
vt 0.050356 0.198441
vt 0.050356 0.198441
vt 0.050356 0.198441
vt 0.050356 0.198441
vt 0.050356 0.198441
vt 0.050356 0.198441
vt 0.050356 0.198441
vt 0.050356 0.198441
vt 0.050356 0.198441
vt 0.050356 0.198441
vt 0.050356 0.198441
vt 0.050356 0.198441
vt 0.050356 0.198441
vt 0.050356 0.198441
vt 0.050356 0.198441
vt 0.050356 0.198441
vt 0.050356 0.198441
vt 0.050356 0.198441
vt 0.050356 0.198441
vt 0.050356 0.198441
vt 0.050356 0.198441
vt 0.050356 0.198441
vt 0.050356 0.198441
vt 0.050356 0.198441
vt 0.050356 0.198441
vt 0.050356 0.198441
vt 0.050356 0.198441
vt 0.050356 0.198441
vt 0.050356 0.198441
vt 0.050356 0.198441
vt 0.050356 0.198441
vt 0.050356 0.198441
vt 0.050356 0.198441
vt 0.050356 0.198441
vt 0.050356 0.198441
vt 0.050356 0.198441
vt 0.050356 0.198441
vt 0.050356 0.198441
vt 0.050356 0.198441
vt 0.050356 0.198441
vt 0.050356 0.198441
vt 0.050356 0.198441
vt 0.050356 0.198441
vt 0.050356 0.198441
vt 0.050356 0.198441
vt 0.050356 0.198441
vt 0.050356 0.198441
vt 0.050356 0.198441
vt 0.050356 0.198441
vt 0.050356 0.198441
vt 0.050356 0.198441
vt 0.050356 0.198441
vt 0.050356 0.198441
vt 0.050356 0.198441
vt 0.050356 0.198441
vt 0.050356 0.198441
vt 0.050356 0.198441
vt 0.050356 0.198441
vt 0.050356 0.198441
vt 0.050356 0.198441
vt 0.050356 0.198441
vt 0.050356 0.198441
vn 0.252479 0.608858 -0.752028
vn 0.253584 0.608994 -0.751546
vn 0.253187 0.608945 -0.751720
vn 0.252479 0.608858 -0.752028
vn 0.139622 -0.181585 -0.973413
vn 0.139622 -0.181585 -0.973413
vn 0.139622 -0.181585 -0.973413
vn 0.139622 -0.181585 -0.973413
vn -0.018379 0.999812 0.006169
vn -0.018379 0.999812 0.006169
vn -0.018379 0.999812 0.006169
vn -0.048876 0.998282 -0.032322
vn -0.048876 0.998282 -0.032322
vn -0.048876 0.998282 -0.032322
vn -0.048876 0.998282 -0.032322
vn 0.938208 0.337792 0.075255
vn 0.938208 0.337791 0.075255
vn 0.938208 0.337792 0.075255
vn 0.938208 0.337791 0.075255
vn 0.887038 0.313625 -0.338827
vn 0.887038 0.313625 -0.338827
vn 0.887038 0.313625 -0.338827
vn 0.887038 0.313625 -0.338827
vn 0.943864 -0.159204 -0.289439
vn 0.943864 -0.159204 -0.289439
vn 0.943864 -0.159204 -0.289439
vn 0.943864 -0.159204 -0.289439
vn 0.919002 0.048111 0.391306
vn 0.919002 0.048111 0.391306
vn 0.919002 0.048111 0.391306
vn 0.919002 0.048111 0.391306
vn 0.461378 -0.884165 -0.073362
vn 0.461378 -0.884165 -0.073362
vn 0.461378 -0.884165 -0.073362
vn 0.461378 -0.884165 -0.073362
vn 0.623831 -0.779548 -0.056039
vn 0.623831 -0.779548 -0.056039
vn 0.623831 -0.779548 -0.056039
vn 0.623831 -0.779548 -0.056039
vn 0.846401 -0.332503 0.415990
vn 0.846401 -0.332503 0.415990
vn 0.846401 -0.332503 0.415990
vn 0.846401 -0.332503 0.415990
vn 0.661347 -0.725938 0.188771
vn 0.661347 -0.725938 0.188771
vn 0.661347 -0.725938 0.188771
vn 0.661347 -0.725938 0.188771
vn 0.599561 0.018526 0.800114
vn 0.599561 0.018526 0.800114
vn 0.599561 0.018526 0.800114
vn 0.599561 0.018526 0.800114
vn 0.301589 -0.951790 -0.056034
vn 0.301589 -0.951790 -0.056034
vn 0.301589 -0.951790 -0.056034
vn 0.301589 -0.951790 -0.056034
vn 0.309247 -0.065547 0.948720
vn 0.309247 -0.065547 0.948720
vn 0.309247 -0.065547 0.948720
vn 0.309247 -0.065547 0.948720
vn 0.373323 -0.282135 -0.883759
vn 0.373323 -0.282135 -0.883759
vn 0.373323 -0.282135 -0.883759
vn 0.373323 -0.282135 -0.883759
vn 0.529966 -0.705289 -0.470854
vn 0.529966 -0.705289 -0.470854
vn 0.529966 -0.705289 -0.470854
vn 0.930229 -0.339586 -0.139124
vn 0.930229 -0.339586 -0.139124
vn 0.930229 -0.339586 -0.139124
vn 0.169149 -0.554791 -0.814614
vn 0.169149 -0.554791 -0.814614
vn 0.169149 -0.554790 -0.814614
vn 0.169149 -0.554791 -0.814614
vn 0.193675 -0.942882 -0.271043
vn 0.193675 -0.942882 -0.271043
vn 0.193675 -0.942882 -0.271043
vn 0.193675 -0.942882 -0.271043
vn -0.741228 0.330488 0.584259
vn -0.741228 0.330488 0.584259
vn -0.741228 0.330488 0.584259
vn -0.514707 0.838225 0.180153
vn -0.514707 0.838225 0.180153
vn -0.514707 0.838225 0.180153
vn -0.514707 0.838225 0.180153
vn -0.365927 0.926287 0.089945
vn -0.365927 0.926287 0.089945
vn -0.365927 0.926287 0.089945
vn -0.365927 0.926287 0.089945
vn -0.171592 0.608559 -0.774733
vn -0.171592 0.608559 -0.774733
vn -0.171592 0.608559 -0.774734
vn -0.171592 0.608559 -0.774733
vn -0.427449 -0.093448 -0.899197
vn -0.427449 -0.093448 -0.899197
vn -0.427449 -0.093448 -0.899197
vn 0.506957 0.861394 -0.031531
vn 0.464026 0.883483 -0.064334
vn 0.291839 0.938711 -0.183446
vn 0.242572 0.970032 0.014035
vn 0.498523 0.858614 -0.119400
vn 0.540368 0.829245 -0.142672
vn 0.030917 -0.906638 0.420774
vn 0.030917 -0.906638 0.420774
vn 0.030917 -0.906638 0.420774
vn 0.030917 -0.906638 0.420775
vn -0.484798 0.852633 0.194905
vn -0.484798 0.852633 0.194905
vn -0.484798 0.852633 0.194905
vn -0.358378 -0.868076 0.343525
vn -0.358378 -0.868076 0.343525
vn -0.358378 -0.868076 0.343525
vn -0.833646 0.177481 0.523005
vn -0.833646 0.177480 0.523005
vn -0.833646 0.177480 0.523005
vn -0.833646 0.177481 0.523005
vn 0.278065 0.789574 0.547040
vn 0.278065 0.789574 0.547040
vn 0.278065 0.789574 0.547040
vn 0.278065 0.789574 0.547040
vn 0.785510 0.006516 -0.618815
vn 0.785510 0.006516 -0.618815
vn 0.785510 0.006516 -0.618815
vn -0.442136 -0.873727 -0.202773
vn -0.442136 -0.873727 -0.202773
vn -0.442136 -0.873727 -0.202773
vn -0.442136 -0.873727 -0.202773
vn -0.816693 0.100067 0.568331
vn -0.816693 0.100067 0.568331
vn -0.816693 0.100067 0.568331
vn -0.816693 0.100067 0.568331
vn 0.391034 0.616144 0.683710
vn 0.391034 0.616144 0.683710
vn 0.391034 0.616144 0.683710
vn 0.391034 0.616144 0.683710
vn 0.911921 -0.049716 -0.407342
vn 0.911921 -0.049716 -0.407342
vn 0.911921 -0.049716 -0.407342
vn 0.911921 -0.049716 -0.407342
vn -0.460009 0.032756 -0.887310
vn -0.460009 0.032756 -0.887310
vn -0.460009 0.032756 -0.887310
vn -0.460009 0.032756 -0.887310
vn -0.778858 -0.169563 0.603845
vn -0.778858 -0.169563 0.603845
vn -0.778858 -0.169563 0.603845
vn -0.778858 -0.169563 0.603845
vn 0.450256 -0.163618 0.877781
vn 0.450256 -0.163618 0.877781
vn 0.450255 -0.163618 0.877781
vn 0.450256 -0.163618 0.877781
vn 0.944335 -0.175595 -0.278205
vn 0.944335 -0.175595 -0.278205
vn 0.944335 -0.175595 -0.278205
vn 0.944335 -0.175595 -0.278205
vn 0.590064 0.737967 0.327459
vn 0.590064 0.737967 0.327459
vn 0.590064 0.737967 0.327459
vn 0.590064 0.737967 0.327459
vn -0.900508 -0.078231 -0.427744
vn -0.900508 -0.078231 -0.427744
vn -0.900508 -0.078231 -0.427744
vn -0.900508 -0.078231 -0.427744
vn 0.991719 0.102841 -0.076919
vn 0.991719 0.102841 -0.076919
vn 0.991719 0.102841 -0.076919
vn 0.991719 0.102841 -0.076919
vn -0.679802 -0.703397 0.207611
vn -0.679802 -0.703397 0.207611
vn -0.679802 -0.703397 0.207611
vn -0.055508 0.123309 0.990815
vn -0.055508 0.123309 0.990815
vn -0.055508 0.123309 0.990815
vn -0.913729 -0.391852 -0.107478
vn -0.913729 -0.391853 -0.107478
vn -0.913729 -0.391852 -0.107478
vn -0.913729 -0.391853 -0.107478
vn 0.989303 -0.010130 0.145520
vn 0.989303 -0.010130 0.145520
vn 0.989303 -0.010130 0.145520
vn 0.989303 -0.010130 0.145520
vn 0.823664 -0.086334 -0.560468
vn 0.823664 -0.086334 -0.560468
vn 0.823664 -0.086334 -0.560468
vn 0.823664 -0.086334 -0.560468
vn -0.967848 -0.215735 -0.129336
vn -0.967849 -0.215735 -0.129336
vn -0.967849 -0.215735 -0.129336
vn 0.029431 -0.316548 0.948120
vn 0.029431 -0.316548 0.948120
vn 0.029431 -0.316548 0.948120
vn 0.029431 -0.316548 0.948120
vn -0.980419 -0.194574 -0.030323
vn -0.980419 -0.194574 -0.030323
vn -0.980419 -0.194574 -0.030323
vn 0.000000 -0.000000 0.000000
vn 0.707107 -0.707107 0.000000
vn 0.707107 -0.707107 0.000000
vn 0.954606 -0.077730 0.287552
vn 0.954606 -0.077730 0.287552
vn 0.954606 -0.077730 0.287552
vn 0.809974 -0.062239 -0.583154
vn 0.809974 -0.062239 -0.583154
vn 0.809974 -0.062239 -0.583154
vn -0.290050 0.603610 -0.742648
vn -0.289577 0.603571 -0.742864
vn -0.299845 0.604369 -0.738127
vn -0.145995 -0.189892 -0.970890
vn -0.145995 -0.189892 -0.970890
vn -0.145995 -0.189892 -0.970890
vn -0.145995 -0.189892 -0.970890
vn 0.016622 0.999856 0.003302
vn 0.016622 0.999856 0.003302
vn 0.016622 0.999856 0.003302
vn -0.063643 0.982698 0.173936
vn -0.063643 0.982698 0.173936
vn -0.063643 0.982698 0.173936
vn -0.063643 0.982698 0.173936
vn -0.938208 0.337791 0.075255
vn -0.938208 0.337791 0.075255
vn -0.938208 0.337791 0.075255
vn -0.938208 0.337791 0.075255
vn -0.887038 0.313625 -0.338826
vn -0.887038 0.313625 -0.338827
vn -0.887038 0.313625 -0.338826
vn -0.887038 0.313625 -0.338826
vn -0.953534 -0.107388 -0.281496
vn -0.953534 -0.107388 -0.281496
vn -0.953534 -0.107388 -0.281496
vn -0.953534 -0.107388 -0.281496
vn -0.919002 0.048111 0.391306
vn -0.919002 0.048111 0.391306
vn -0.919002 0.048111 0.391306
vn -0.919002 0.048111 0.391306
vn -0.426883 -0.902171 -0.062121
vn -0.426883 -0.902171 -0.062121
vn -0.426883 -0.902171 -0.062121
vn -0.426883 -0.902171 -0.062121
vn -0.623831 -0.779548 -0.056039
vn -0.623831 -0.779548 -0.056039
vn -0.623831 -0.779548 -0.056039
vn -0.623831 -0.779548 -0.056039
vn -0.846401 -0.332503 0.415989
vn -0.846401 -0.332503 0.415989
vn -0.846401 -0.332503 0.415989
vn -0.846401 -0.332503 0.415989
vn -0.598663 -0.767973 0.227642
vn -0.598663 -0.767973 0.227642
vn -0.598663 -0.767973 0.227642
vn -0.598663 -0.767973 0.227642
vn -0.529342 0.071616 0.845380
vn -0.529342 0.071616 0.845380
vn -0.529342 0.071616 0.845380
vn -0.529342 0.071616 0.845380
vn -0.301589 -0.951790 -0.056035
vn -0.301589 -0.951790 -0.056035
vn -0.301589 -0.951790 -0.056035
vn -0.301589 -0.951790 -0.056035
vn -0.309247 -0.065547 0.948720
vn -0.309247 -0.065547 0.948720
vn -0.309247 -0.065547 0.948720
vn -0.309247 -0.065547 0.948720
vn -0.373322 -0.282134 -0.883760
vn -0.373322 -0.282134 -0.883759
vn -0.373322 -0.282134 -0.883759
vn -0.373322 -0.282134 -0.883759
vn -0.477190 -0.726736 -0.494110
vn -0.477190 -0.726736 -0.494110
vn -0.477190 -0.726736 -0.494110
vn -0.930229 -0.339585 -0.139122
vn -0.930229 -0.339585 -0.139122
vn -0.930229 -0.339585 -0.139122
vn -0.167216 -0.560920 -0.810807
vn -0.167216 -0.560920 -0.810806
vn -0.167216 -0.560920 -0.810806
vn -0.167216 -0.560920 -0.810806
vn -0.193675 -0.942881 -0.271044
vn -0.193675 -0.942881 -0.271044
vn -0.193675 -0.942881 -0.271044
vn -0.193675 -0.942881 -0.271044
vn 0.232053 0.478902 0.846643
vn 0.232053 0.478902 0.846643
vn 0.232053 0.478902 0.846643
vn 0.278174 0.883937 0.375866
vn 0.278174 0.883936 0.375866
vn 0.278174 0.883936 0.375866
vn 0.278174 0.883936 0.375866
vn 0.272565 0.961307 0.039970
vn 0.272565 0.961307 0.039970
vn 0.272565 0.961307 0.039970
vn 0.272565 0.961307 0.039970
vn 0.116399 0.615568 -0.779440
vn 0.116399 0.615568 -0.779440
vn 0.116399 0.615568 -0.779440
vn 0.116399 0.615568 -0.779440
vn 0.302496 -0.098525 -0.948045
vn 0.302496 -0.098525 -0.948045
vn 0.302496 -0.098525 -0.948045
vn -0.541439 0.840496 -0.020270
vn -0.504702 0.861739 -0.051787
vn -0.559651 0.828718 -0.004122
vn -0.559651 0.828718 -0.004122
vn -0.486541 0.868892 0.091131
vn -0.517492 0.852510 0.073679
vn -0.723420 0.687750 -0.060526
vn -0.030917 -0.906638 0.420774
vn -0.030917 -0.906638 0.420774
vn -0.030917 -0.906638 0.420774
vn -0.030917 -0.906638 0.420774
vn -0.062812 0.076323 0.995103
vn -0.099336 0.085227 0.991397
vn -0.393548 0.153592 0.906383
vn 0.148360 -0.824262 0.546427
vn 0.148360 -0.824262 0.546427
vn 0.148360 -0.824262 0.546427
vn 0.894897 0.260482 0.362366
vn 0.894897 0.260482 0.362366
vn 0.894897 0.260482 0.362366
vn 0.894897 0.260482 0.362366
vn -0.143153 0.912249 -0.383808
vn -0.143153 0.912249 -0.383808
vn -0.143153 0.912249 -0.383808
vn -0.143153 0.912249 -0.383808
vn -0.797942 -0.320829 -0.510253
vn -0.797942 -0.320829 -0.510253
vn -0.797942 -0.320829 -0.510253
vn 0.530306 -0.760459 -0.374803
vn 0.530306 -0.760459 -0.374803
vn 0.530306 -0.760459 -0.374803
vn 0.530306 -0.760459 -0.374803
vn 0.786095 0.048968 0.616163
vn 0.786095 0.048968 0.616163
vn 0.786095 0.048968 0.616163
vn 0.786095 0.048968 0.616163
vn -0.426193 0.465438 0.775711
vn -0.426192 0.465438 0.775711
vn -0.426193 0.465438 0.775711
vn -0.426192 0.465438 0.775711
vn -0.733276 -0.035458 -0.679006
vn -0.733276 -0.035458 -0.679006
vn -0.733276 -0.035458 -0.679006
vn -0.733276 -0.035458 -0.679006
vn 0.470284 0.050783 -0.881053
vn 0.470284 0.050783 -0.881053
vn 0.470284 0.050783 -0.881053
vn 0.470284 0.050783 -0.881053
vn 0.795407 -0.127884 0.592430
vn 0.795407 -0.127884 0.592430
vn 0.795407 -0.127884 0.592430
vn 0.795407 -0.127884 0.592430
vn -0.462352 -0.179653 0.868306
vn -0.462352 -0.179653 0.868306
vn -0.462352 -0.179653 0.868306
vn -0.462352 -0.179653 0.868306
vn -0.943604 -0.195635 -0.267091
vn -0.943604 -0.195635 -0.267091
vn -0.943604 -0.195635 -0.267091
vn -0.943604 -0.195635 -0.267091
vn -0.783583 0.614112 0.094149
vn -0.783583 0.614112 0.094149
vn -0.783583 0.614112 0.094149
vn -0.783583 0.614112 0.094149
vn 0.900506 -0.078224 -0.427749
vn 0.900506 -0.078224 -0.427749
vn 0.900506 -0.078224 -0.427749
vn 0.900506 -0.078224 -0.427749
vn -0.984858 0.112663 -0.131763
vn -0.984858 0.112663 -0.131763
vn -0.984858 0.112663 -0.131763
vn -0.984858 0.112663 -0.131763
vn 0.666691 -0.715294 0.209473
vn 0.666691 -0.715294 0.209472
vn 0.666691 -0.715294 0.209473
vn 0.666691 -0.715294 0.209473
vn -0.009356 0.082957 0.996509
vn -0.009356 0.082957 0.996509
vn -0.009356 0.082957 0.996509
vn -0.009356 0.082957 0.996509
vn 0.913732 -0.391845 -0.107475
vn 0.913732 -0.391845 -0.107475
vn 0.913732 -0.391845 -0.107475
vn 0.913732 -0.391845 -0.107475
vn -0.989303 -0.010119 0.145523
vn -0.989303 -0.010119 0.145523
vn -0.989303 -0.010119 0.145523
vn -0.989303 -0.010119 0.145523
vn -0.782133 -0.094910 -0.615841
vn -0.782133 -0.094910 -0.615841
vn -0.782133 -0.094910 -0.615841
vn -0.782133 -0.094910 -0.615841
vn 0.967845 -0.215754 -0.129328
vn 0.967845 -0.215754 -0.129328
vn 0.967845 -0.215754 -0.129328
vn -0.026381 -0.316971 0.948068
vn -0.026381 -0.316971 0.948068
vn -0.026381 -0.316971 0.948068
vn -0.026381 -0.316971 0.948068
vn 0.980419 -0.194583 -0.030273
vn 0.980419 -0.194583 -0.030273
vn 0.980419 -0.194583 -0.030273
vn 0.646996 0.710596 0.276495
vn 0.646996 0.710596 0.276495
vn 0.646996 0.710596 0.276495
vn 0.615861 -0.778949 0.118129
vn 0.615861 -0.778949 0.118129
vn 0.615861 -0.778949 0.118129
vn 0.615861 -0.778949 0.118129
vn -0.560591 -0.819995 0.115526
vn -0.560591 -0.819995 0.115526
vn -0.560591 -0.819995 0.115526
vn -0.560591 -0.819995 0.115526
vn 0.244984 -0.948251 0.201996
vn 0.244984 -0.948251 0.201996
vn 0.244984 -0.948251 0.201996
vn 0.092290 -0.933796 -0.345698
vn 0.092290 -0.933796 -0.345698
vn 0.092290 -0.933796 -0.345698
vn 0.359206 -0.579202 0.731776
vn 0.359206 -0.579202 0.731776
vn 0.359206 -0.579202 0.731776
vn 0.409316 0.073199 0.909452
vn 0.409316 0.073199 0.909452
vn 0.409316 0.073199 0.909452
vn -0.154507 -0.985613 -0.068513
vn -0.154507 -0.985613 -0.068513
vn -0.154507 -0.985613 -0.068513
vn -0.422411 -0.046318 0.905220
vn -0.422411 -0.046318 0.905220
vn -0.422411 -0.046318 0.905220
vn -0.010391 -0.325972 -0.945322
vn -0.010391 -0.325972 -0.945322
vn -0.010391 -0.325972 -0.945322
vn -0.267331 -0.689921 0.672713
vn -0.267331 -0.689921 0.672713
vn -0.267331 -0.689921 0.672713
vn -0.150066 -0.798060 0.583592
vn -0.150066 -0.798060 0.583592
vn -0.150066 -0.798060 0.583592
vn 0.048882 -0.723602 0.688485
vn 0.048882 -0.723602 0.688485
vn 0.048882 -0.723602 0.688485
vn -0.196637 -0.822988 0.532939
vn -0.196637 -0.822988 0.532939
vn -0.196637 -0.822989 0.532939
vn 0.045667 -0.768216 0.638560
vn 0.073299 -0.769776 0.634091
vn 0.274853 -0.762479 0.585731
vn -0.026458 -0.827170 0.561329
vn -0.026458 -0.827170 0.561329
vn -0.026458 -0.827170 0.561329
vn -0.090900 -0.933619 -0.346544
vn -0.090900 -0.933619 -0.346544
vn -0.090900 -0.933619 -0.346544
vn -0.355509 -0.580163 0.732820
vn -0.355509 -0.580163 0.732820
vn -0.355509 -0.580163 0.732820
vn -0.405167 0.075443 0.911125
vn -0.405167 0.075443 0.911125
vn -0.405167 0.075443 0.911125
vn 0.152317 -0.985974 -0.068219
vn 0.152317 -0.985975 -0.068219
vn 0.152317 -0.985974 -0.068219
vn 0.417078 -0.046846 0.907662
vn 0.417078 -0.046846 0.907663
vn 0.417078 -0.046846 0.907662
vn 0.010241 -0.325981 -0.945321
vn 0.010241 -0.325981 -0.945321
vn 0.010241 -0.325981 -0.945321
vn 0.124039 -0.746923 0.653238
vn 0.124039 -0.746923 0.653238
vn 0.124039 -0.746923 0.653238
vn 0.148166 -0.798505 0.583470
vn 0.148166 -0.798505 0.583470
vn 0.148166 -0.798505 0.583470
vn -0.048764 -0.723194 0.688921
vn -0.048764 -0.723194 0.688921
vn -0.048764 -0.723194 0.688921
vn 0.195002 -0.824068 0.531871
vn 0.195002 -0.824068 0.531871
vn 0.195002 -0.824068 0.531871
vn -0.273836 -0.764713 0.583291
vn -0.071453 -0.770266 0.633708
vn -0.046064 -0.768615 0.638052
vn 0.175362 0.020068 0.984299
vn 0.161259 0.017934 0.986749
vn 0.399707 0.054220 0.915038
vn -0.062812 0.076323 0.995103
vn -0.043087 0.071479 0.996511
vn -0.043087 0.071479 0.996511
vn -0.043087 0.071479 0.996511
vn -0.099336 0.085227 0.991397
vn -0.046064 -0.768615 0.638052
vn -0.071453 -0.770266 0.633708
vn 0.142045 -0.740518 0.656853
vn -0.142457 -0.741623 0.655516
vn 0.073299 -0.769776 0.634091
vn 0.045667 -0.768216 0.638560
vn 0.143934 0.015313 0.989469
vn 0.143934 0.015313 0.989469
vn 0.161259 0.017934 0.986749
vn 0.175362 0.020068 0.984299
vn 0.540368 0.829245 -0.142672
vn 0.498523 0.858614 -0.119400
vn 0.757637 0.592118 -0.274559
vn -0.333681 0.927231 0.169998
vn -0.517492 0.852510 0.073679
vn -0.486541 0.868892 0.091131
vn -0.541439 0.840496 -0.020270
vn -0.331598 0.925130 -0.184868
vn -0.504702 0.861739 -0.051787
vn -0.288763 0.603505 -0.743235
vn -0.288763 0.603505 -0.743235
vn -0.289577 0.603571 -0.742864
vn -0.290050 0.603610 -0.742648
vn 0.506957 0.861394 -0.031531
vn 0.535859 0.844263 -0.008604
vn 0.535859 0.844263 -0.008604
vn 0.464026 0.883483 -0.064334
vn 0.253187 0.608945 -0.751720
vn 0.253584 0.608994 -0.751546
vn 0.263129 0.610135 -0.747328
s off
f 35/40/1 117/209/2 16/4/3 36/41/4
f 17/6/5 4/5/6 36/41/7 16/4/8
f 34/39/9 37/42/10 35/40/11
f 59/64/12 38/43/13 37/42/14 34/39/15
f 18/7/16 21/14/17 22/13/18 15/1/19
f 15/1/20 22/13/21 23/15/22 16/4/23
f 16/4/24 23/15/25 24/16/26 17/6/27
f 26/17/28 21/20/29 20/19/30 25/18/31
f 31/35/32 30/32/33 29/31/34 32/36/35
f 9/24/36 22/13/37 21/14/38 10/37/39
f 11/25/40 23/15/41 22/13/42 9/24/43
f 29/31/44 30/32/45 24/16/46 12/26/47
f 12/26/48 24/16/49 23/15/50 11/25/51
f 13/27/52 26/17/53 25/18/54 14/28/55
f 14/28/56 25/18/57 20/19/58 8/29/59
f 10/30/60 21/20/61 26/17/62 13/27/63
f 17/6/64 30/32/65 31/35/66
f 24/16/67 30/32/68 17/6/69
f 31/35/70 28/34/71 4/5/72 17/6/73
f 32/36/74 27/33/75 28/34/76 31/35/77
f 33/38/78 6/10/79 1/22/80
f 6/10/81 33/38/82 34/39/83 5/8/84
f 5/8/85 34/39/86 35/40/87 3/2/88
f 3/2/89 35/40/90 36/41/91 2/3/92
f 4/5/93 2/3/94 36/41/95
f 37/42/96 117/209/97 35/40/98
f 38/43/99 60/65/100 37/42/101
f 47/52/102 50/55/103 49/54/104 48/53/105
f 59/64/106 33/38/107 38/43/108
f 7/21/109 40/45/110 39/44/111
f 39/44/112 40/45/113 41/46/114 38/43/115
f 38/43/116 41/46/117 42/47/118 60/65/119
f 19/9/120 42/47/121 7/21/122
f 7/21/123 43/48/124 44/49/125 40/45/126
f 40/45/127 44/49/128 45/50/129 41/46/130
f 41/46/131 45/50/132 46/51/133 42/47/134
f 42/47/135 46/51/136 43/48/137 7/21/138
f 43/48/139 47/52/140 48/53/141 44/49/142
f 44/49/143 48/53/144 49/54/145 45/50/146
f 45/50/147 49/54/148 50/55/149 46/51/150
f 46/51/151 50/55/152 47/52/153 43/48/154
f 19/9/155 52/56/156 51/57/157 18/7/158
f 21/12/159 54/58/160 53/59/161 20/11/162
f 18/7/163 51/57/164 54/58/165 21/12/166
f 8/23/167 55/60/168 7/21/169
f 7/21/170 52/56/171 19/9/172
f 20/11/173 53/59/174 55/60/175 8/23/176
f 52/56/177 57/61/178 56/62/179 51/57/180
f 51/57/181 56/62/182 53/59/183 54/58/184
f 55/60/185 58/63/186 7/21/187
f 7/21/188 58/63/189 57/61/190 52/56/191
f 53/59/192 58/63/193 55/60/194
f 33/38/195 59/64/196 34/39/197
f 18/7/198 60/65/199 19/9/200
f 19/9/201 60/65/202 42/47/203
f 116/208/204 70/68/205 69/69/206
f 71/70/207 70/68/208 88/67/209 4/71/210
f 86/72/211 87/66/212 89/73/213
f 112/74/214 86/72/215 89/73/216 90/75/217
f 72/76/218 69/69/219 76/77/220 75/78/221
f 69/69/222 70/68/223 77/79/224 76/77/225
f 70/68/226 71/70/227 78/80/228 77/79/229
f 80/81/230 79/82/231 74/83/232 75/84/233
f 83/85/234 84/86/235 81/87/236 82/88/237
f 63/89/238 64/90/239 75/78/240 76/77/241
f 65/91/242 63/89/243 76/77/244 77/79/245
f 81/87/246 66/92/247 78/80/248 82/88/249
f 66/92/250 65/91/251 77/79/252 78/80/253
f 67/93/254 68/94/255 79/82/256 80/81/257
f 68/94/258 62/95/259 74/83/260 79/82/261
f 64/96/262 67/93/263 80/81/264 75/84/265
f 71/70/266 83/85/267 82/88/268
f 78/80/269 71/70/270 82/88/271
f 83/85/272 71/70/273 4/71/274 28/98/275
f 84/86/276 83/85/277 28/98/278 27/97/279
f 85/99/280 1/100/281 6/101/282
f 6/101/283 5/102/284 86/72/285 85/99/286
f 5/102/287 3/103/288 87/66/289 86/72/290
f 3/103/291 2/104/292 88/67/293 87/66/294
f 4/71/295 88/67/296 2/104/297
f 89/73/298 116/208/299 69/69/300 72/76/301
f 73/106/302 89/73/303 72/76/304
f 99/107/305 100/108/306 101/109/307 102/110/308
f 85/99/309 114/204/310 1/100/311
f 61/112/312 91/111/313 92/113/314
f 91/111/315 90/75/316 93/114/317 92/113/318
f 90/105/319 73/106/320 94/115/321 93/114/322
f 73/106/323 61/112/324 94/115/325
f 61/112/326 92/113/327 96/116/328 95/117/329
f 92/113/330 93/114/331 97/118/332 96/116/333
f 93/114/334 94/115/335 98/119/336 97/118/337
f 94/115/338 61/112/339 95/117/340 98/119/341
f 95/117/342 96/116/343 100/108/344 99/107/345
f 96/116/346 97/118/347 101/109/348 100/108/349
f 97/118/350 98/119/351 102/110/352 101/109/353
f 98/119/354 95/117/355 99/107/356 102/110/357
f 73/106/358 72/76/359 103/120/360 104/121/361
f 75/122/362 74/123/363 105/124/364 106/125/365
f 72/76/366 75/122/367 106/125/368 103/120/369
f 62/126/370 61/112/371 108/127/372 107/128/373
f 61/112/374 73/106/375 104/121/376 108/127/377
f 74/123/378 62/126/379 107/128/380 105/124/381
f 104/121/382 103/120/383 109/129/384 110/130/385
f 103/120/386 106/125/387 105/124/388 109/129/389
f 107/128/390 108/127/391 111/131/392
f 108/127/393 104/121/394 110/130/395 111/131/396
f 105/124/397 107/128/398 111/131/399
f 85/99/400 86/72/401 112/74/402
f 57/61/403 58/63/404 53/59/405 56/62/406
f 110/130/407 109/129/408 105/124/409 111/131/410
f 8/132/411 7/133/412 113/134/413
f 9/135/414 10/136/415 113/137/416
f 11/138/417 9/139/418 113/140/419
f 12/141/420 11/142/421 113/143/422
f 13/144/423 14/145/424 113/146/425
f 14/147/426 8/148/427 113/149/428
f 10/150/429 13/151/430 113/152/431
f 7/153/432 39/154/433 113/155/434
f 29/156/435 12/157/436 113/158/437
f 27/159/438 32/160/439 113/161/440
f 32/162/441 29/163/442 113/164/443
f 113/167/444 115/207/445 1/166/446
f 61/168/447 62/169/448 113/170/449
f 64/171/450 63/172/451 113/173/452
f 63/174/453 65/175/454 113/176/455
f 65/177/456 66/178/457 113/179/458
f 68/180/459 67/181/460 113/182/461
f 62/183/462 68/184/463 113/185/464
f 67/186/465 64/187/466 113/188/467
f 91/189/468 61/190/469 113/191/470
f 66/192/471 81/193/472 113/194/473
f 84/195/474 27/196/475 113/197/476
f 81/198/477 84/199/478 113/200/479
f 1/201/480 114/205/481 113/203/482
f 115/206/483 33/38/484 1/22/485
f 85/99/486 112/74/487 90/75/488 91/111/489 114/204/490
f 113/203/491 114/205/492 91/202/493
f 39/165/494 115/207/495 113/167/496
f 39/44/497 38/43/498 33/38/499 115/206/500
f 37/42/501 60/65/502 18/7/503
f 90/105/504 89/73/505 73/106/506
f 89/73/507 87/66/508 116/208/509
f 87/66/510 88/67/511 70/68/512 116/208/513
f 37/42/514 18/7/515 15/1/516 117/209/517
f 16/4/518 117/209/519 15/1/520
