# This file uses centimeters as units for non-parametric coordinates.

v 0.000463 7.506866 11.847479
v 0.000463 7.328232 10.117140
v -7.875033 2.473511 11.161420
v -7.703302 7.375275 10.832331
v -7.703302 7.196686 9.608862
v -7.875033 2.240540 9.937952
v -4.868219 7.506866 11.200638
v -4.868219 7.328232 9.790639
v -4.976750 1.320633 11.654219
v -4.976750 1.087601 10.244218
v -8.664551 4.784225 10.860226
v -8.664551 4.605560 9.700007
v -0.535470 6.138596 11.858559
v -0.535470 5.959946 10.181714
v -1.075352 2.243805 10.455320
v -1.075352 2.556671 12.078285
v -1.215723 6.959045 11.705090
v -1.532974 6.673752 11.678989
v -4.853717 7.160294 11.227943
v -1.070344 5.945084 11.814726
v -1.692436 2.990555 12.005241
v -4.961926 1.772659 11.631072
v -7.536071 2.796646 11.195476
v -8.225478 4.742157 10.925238
v -7.371733 7.043427 10.897979
v -9.437797 8.925354 -1.840345
v -10.823798 8.661301 -1.840345
v -9.437797 7.334351 -1.840345
v -10.823798 7.678268 -1.840345
v -9.090639 6.913559 10.109606
v -9.090639 5.859589 10.123554
v -8.664551 5.490814 9.413400
v 0.000463 6.138596 11.858559
v 0.000463 5.959946 10.181714
v 7.875959 2.473511 11.161420
v 7.704228 7.375275 10.832331
v 7.704228 7.196686 9.608862
v 7.875959 2.240540 9.937952
v 4.869145 7.506866 11.200638
v 4.869145 7.328232 9.790639
v 4.977676 1.320633 11.654219
v 4.977676 1.087601 10.244218
v 8.665477 4.784225 10.860226
v 8.665477 4.605560 9.700007
v 0.536396 6.138596 11.858559
v 0.536396 5.959946 10.181714
v 1.076278 2.243805 10.455320
v 1.076278 2.556671 12.078285
v 1.216649 6.959045 11.705090
v 1.533900 6.673752 11.678989
v 4.854644 7.160294 11.227943
v 1.071270 5.945084 11.814726
v 1.693362 2.990555 12.005241
v 4.962852 1.772659 11.631072
v 7.536998 2.796646 11.195476
v 8.226404 4.742157 10.925238
v 7.372659 7.043427 10.897979
v 9.438724 8.925354 -1.840345
v 10.824725 8.661301 -1.840345
v 9.438724 7.334351 -1.840345
v 10.824725 7.678268 -1.840345
v 9.091566 6.913559 10.109606
v 9.091566 5.859589 10.123554
v 8.665477 5.490814 9.413400
v -9.437797 6.343674 -4.249793
v -9.437797 5.995941 -2.778012
v -10.823798 6.071121 -3.096173
v -10.823798 6.285950 -4.005526
v 9.438724 6.343674 -4.249793
v 10.824725 6.285950 -4.005526
v 10.824725 6.071121 -3.096173
v 9.438724 5.995941 -2.778012
v -9.437797 3.734344 -3.227695
v -9.437797 3.979385 -1.735379
v -10.823798 4.343597 -2.276635
v -10.823798 4.192200 -3.198677
v 9.438724 3.734344 -3.227695
v 10.824725 4.192200 -3.198677
v 10.824725 4.343597 -2.276635
v 9.438724 3.979385 -1.735379
vt 0.095662 0.985041
vt 0.095033 0.985038
vt 0.095478 0.985107
vt 0.094682 0.985690
vt 0.095047 0.985800
vt 0.095026 0.985791
vt 0.094661 0.985682
vt 0.095684 0.985050
vt 0.095054 0.985046
vt 0.095577 0.985216
vt 0.095467 0.985695
vt 0.094561 0.985375
vt 0.094688 0.985060
vt 0.094666 0.985052
vt 0.095556 0.985207
vt 0.095446 0.985686
vt 0.094539 0.985366
vt 0.095577 0.985216
vt 0.095556 0.985207
vt 0.081328 0.228613
vt 0.081328 0.228613
vt 0.081328 0.228613
vt 0.081328 0.228613
vt 0.081328 0.228613
vt 0.081328 0.228613
vt 0.081328 0.228613
vt 0.081328 0.228613
vt 0.095035 0.985080
vt 0.095430 0.985141
vt 0.095499 0.985230
vt 0.095401 0.985656
vt 0.095029 0.985749
vt 0.094704 0.985652
vt 0.094596 0.985372
vt 0.094709 0.985092
vt 0.095662 0.985041
vt 0.094769 0.985882
vt 0.094584 0.985789
vt 0.094584 0.985882
vt 0.094769 0.985697
vt 0.094769 0.985513
vt 0.094584 0.985513
vt 0.094584 0.985697
vt 0.094769 0.985329
vt 0.094584 0.985329
vt 0.094584 0.985421
vt 0.094492 0.985882
vt 0.094400 0.985882
vt 0.094400 0.986066
vt 0.094492 0.986066
vt 0.094953 0.986066
vt 0.094953 0.985882
vt 0.094861 0.986066
vt 0.094584 0.986066
vt 0.094769 0.985421
vt 0.094769 0.986066
vt 0.095662 0.985041
vt 0.095478 0.985107
vt 0.095033 0.985038
vt 0.094682 0.985690
vt 0.094661 0.985682
vt 0.095026 0.985791
vt 0.095047 0.985800
vt 0.095684 0.985050
vt 0.095054 0.985046
vt 0.095577 0.985216
vt 0.094688 0.985060
vt 0.094561 0.985375
vt 0.095467 0.985695
vt 0.094666 0.985052
vt 0.095556 0.985207
vt 0.095446 0.985686
vt 0.094539 0.985366
vt 0.095556 0.985207
vt 0.095577 0.985216
vt 0.081328 0.228613
vt 0.081328 0.228613
vt 0.081328 0.228613
vt 0.081328 0.228613
vt 0.081328 0.228613
vt 0.081328 0.228613
vt 0.081328 0.228613
vt 0.081328 0.228613
vt 0.095430 0.985141
vt 0.095035 0.985080
vt 0.095499 0.985230
vt 0.095401 0.985656
vt 0.095029 0.985749
vt 0.094704 0.985652
vt 0.094596 0.985372
vt 0.094709 0.985092
vt 0.095662 0.985041
vt 0.094769 0.985882
vt 0.094584 0.985882
vt 0.094584 0.985789
vt 0.094769 0.985697
vt 0.094584 0.985697
vt 0.094584 0.985513
vt 0.094769 0.985513
vt 0.094769 0.985329
vt 0.094584 0.985421
vt 0.094584 0.985329
vt 0.094492 0.985882
vt 0.094492 0.986066
vt 0.094400 0.986066
vt 0.094400 0.985882
vt 0.094953 0.986066
vt 0.094861 0.986066
vt 0.094953 0.985882
vt 0.094584 0.986066
vt 0.094769 0.985421
vt 0.094769 0.986066
vt 0.094769 0.985697
vt 0.094769 0.985513
vt 0.094584 0.985513
vt 0.094584 0.985697
vt 0.094769 0.985697
vt 0.094584 0.985697
vt 0.094584 0.985513
vt 0.094769 0.985513
vt 0.094769 0.985697
vt 0.094769 0.985513
vt 0.094584 0.985513
vt 0.094584 0.985697
vt 0.094769 0.985697
vt 0.094584 0.985697
vt 0.094584 0.985513
vt 0.094769 0.985513
vn -0.131621 0.034704 0.990693
vn -0.131621 0.034704 0.990692
vn -0.131621 0.034704 0.990692
vn -0.383874 -0.909259 0.160897
vn -0.383874 -0.909259 0.160897
vn -0.383874 -0.909259 0.160897
vn -0.383874 -0.909259 0.160897
vn 0.011299 0.993527 -0.113032
vn 0.011299 0.993527 -0.113032
vn 0.011299 0.993527 -0.113032
vn 0.011299 0.993527 -0.113032
vn 0.071999 -0.074244 -0.994638
vn 0.071999 -0.074244 -0.994638
vn 0.071999 -0.074244 -0.994638
vn 0.071999 -0.074244 -0.994638
vn 0.071999 -0.074244 -0.994638
vn 0.071999 -0.074244 -0.994638
vn 0.071999 -0.074244 -0.994638
vn 0.071999 -0.074244 -0.994638
vn -0.032928 0.990388 -0.134343
vn -0.032928 0.990388 -0.134343
vn -0.032928 0.990388 -0.134343
vn -0.032928 0.990388 -0.134343
vn 0.989211 -0.144897 0.021583
vn 0.989211 -0.144897 0.021583
vn 0.989211 -0.144897 0.021583
vn 0.989211 -0.144897 0.021583
vn -0.947918 -0.313870 0.054202
vn -0.947918 -0.313870 0.054202
vn -0.947918 -0.313870 0.054202
vn -0.947918 -0.313870 0.054202
vn 0.000000 -0.994373 0.105940
vn 0.000000 -0.994373 0.105940
vn 0.000000 -0.994373 0.105940
vn 0.000000 -0.994373 0.105940
vn 0.276147 -0.945916 0.170254
vn 0.276147 -0.945916 0.170254
vn 0.276147 -0.945916 0.170254
vn 0.276147 -0.945916 0.170254
vn -0.136230 0.080042 0.987439
vn -0.136230 0.080042 0.987438
vn -0.136230 0.080042 0.987439
vn -0.136230 0.080042 0.987439
vn -0.136230 0.080042 0.987439
vn -0.136230 0.080042 0.987439
vn -0.136230 0.080042 0.987438
vn -0.136230 0.080042 0.987439
vn -0.126393 0.062447 0.990013
vn -0.126393 0.062447 0.990013
vn -0.126393 0.062447 0.990013
vn -0.126393 0.062447 0.990013
vn -0.130527 0.088063 0.987526
vn -0.130527 0.088063 0.987526
vn -0.130527 0.088063 0.987526
vn -0.130527 0.088063 0.987526
vn -0.084642 0.077394 0.993401
vn -0.084642 0.077394 0.993401
vn -0.084642 0.077394 0.993401
vn -0.084642 0.077394 0.993401
vn -0.119544 0.026492 0.992475
vn -0.119544 0.026492 0.992475
vn -0.119544 0.026492 0.992475
vn -0.119544 0.026492 0.992475
vn -0.146509 0.052966 0.987790
vn -0.146509 0.052966 0.987790
vn -0.146509 0.052966 0.987790
vn -0.146509 0.052966 0.987790
vn -0.153871 0.078771 0.984946
vn -0.153871 0.078771 0.984946
vn -0.153871 0.078771 0.984946
vn -0.153871 0.078771 0.984946
vn -0.137455 0.062139 0.988557
vn -0.137455 0.062139 0.988557
vn -0.137455 0.062139 0.988557
vn -0.137455 0.062139 0.988557
vn -0.132153 0.068080 0.988889
vn -0.132153 0.068080 0.988889
vn -0.132153 0.068080 0.988889
vn -0.132153 0.068080 0.988889
vn 0.000000 -0.047141 -0.998888
vn 0.000000 -0.047141 -0.998888
vn 0.000000 -0.047141 -0.998888
vn 0.000000 0.008097 0.999967
vn 0.000000 0.008097 0.999967
vn 0.000000 0.008097 0.999967
vn -0.246249 0.959043 -0.139991
vn -0.246249 0.959043 -0.139991
vn -0.246249 0.959043 -0.139991
vn -0.307005 -0.939132 0.154206
vn -0.307005 -0.939132 0.154206
vn -0.307005 -0.939132 0.154206
vn -0.307005 -0.939132 0.154206
vn -0.940093 -0.336946 0.051887
vn -0.940093 -0.336946 0.051887
vn -0.940093 -0.336946 0.051887
vn -0.989636 0.000983 0.143595
vn -0.989636 0.000983 0.143595
vn -0.989636 0.000983 0.143595
vn -0.989636 0.000983 0.143595
vn 0.951850 -0.268784 -0.147432
vn 0.951850 -0.268784 -0.147432
vn 0.951850 -0.268784 -0.147432
vn 0.951850 -0.268784 -0.147432
vn -0.584433 0.163248 0.794851
vn -0.584433 0.163248 0.794851
vn -0.584433 0.163248 0.794851
vn -0.584433 0.163248 0.794851
vn -0.398119 -0.911774 -0.100840
vn -0.398119 -0.911775 -0.100840
vn -0.398119 -0.911774 -0.100840
vn -0.398119 -0.911775 -0.100840
vn -0.879947 -0.146330 -0.451974
vn -0.879947 -0.146330 -0.451974
vn -0.879947 -0.146330 -0.451974
vn 0.594879 -0.247588 -0.764734
vn 0.594879 -0.247588 -0.764734
vn 0.594879 -0.247588 -0.764734
vn -0.161451 0.972407 0.168397
vn -0.161451 0.972407 0.168397
vn -0.161451 0.972407 0.168397
vn -0.161451 0.972407 0.168397
vn -0.144735 0.064686 0.987354
vn -0.144735 0.064686 0.987354
vn -0.144735 0.064686 0.987354
vn 0.131620 0.034704 0.990693
vn 0.131620 0.034704 0.990693
vn 0.131620 0.034704 0.990693
vn 0.383874 -0.909259 0.160897
vn 0.383874 -0.909259 0.160897
vn 0.383874 -0.909259 0.160897
vn 0.383874 -0.909259 0.160897
vn -0.011299 0.993527 -0.113032
vn -0.011299 0.993527 -0.113032
vn -0.011299 0.993527 -0.113032
vn -0.011299 0.993527 -0.113032
vn -0.071999 -0.074244 -0.994638
vn -0.071999 -0.074244 -0.994638
vn -0.071999 -0.074244 -0.994638
vn -0.071999 -0.074244 -0.994638
vn -0.071999 -0.074244 -0.994638
vn -0.071999 -0.074244 -0.994638
vn -0.071999 -0.074244 -0.994638
vn -0.071999 -0.074244 -0.994638
vn 0.032928 0.990388 -0.134343
vn 0.032928 0.990388 -0.134343
vn 0.032928 0.990388 -0.134343
vn 0.032928 0.990388 -0.134343
vn -0.989211 -0.144897 0.021583
vn -0.989211 -0.144897 0.021583
vn -0.989211 -0.144897 0.021583
vn -0.989211 -0.144897 0.021583
vn 0.947918 -0.313870 0.054202
vn 0.947918 -0.313870 0.054202
vn 0.947918 -0.313870 0.054202
vn 0.947918 -0.313870 0.054202
vn 0.000000 -0.994373 0.105940
vn 0.000000 -0.994373 0.105940
vn 0.000000 -0.994373 0.105940
vn 0.000000 -0.994373 0.105940
vn -0.276147 -0.945916 0.170254
vn -0.276147 -0.945916 0.170254
vn -0.276147 -0.945916 0.170254
vn -0.276147 -0.945916 0.170254
vn 0.136230 0.080042 0.987438
vn 0.136230 0.080042 0.987438
vn 0.136230 0.080042 0.987438
vn 0.136230 0.080042 0.987438
vn 0.136230 0.080042 0.987438
vn 0.136230 0.080042 0.987438
vn 0.136230 0.080042 0.987438
vn 0.136230 0.080042 0.987438
vn 0.126392 0.062448 0.990013
vn 0.126392 0.062448 0.990013
vn 0.126392 0.062448 0.990013
vn 0.126392 0.062448 0.990013
vn 0.130527 0.088063 0.987526
vn 0.130527 0.088063 0.987526
vn 0.130527 0.088063 0.987526
vn 0.130527 0.088063 0.987526
vn 0.084641 0.077394 0.993401
vn 0.084641 0.077394 0.993401
vn 0.084641 0.077394 0.993401
vn 0.084641 0.077394 0.993401
vn 0.119544 0.026492 0.992475
vn 0.119544 0.026492 0.992475
vn 0.119544 0.026492 0.992475
vn 0.119544 0.026492 0.992475
vn 0.146510 0.052966 0.987790
vn 0.146510 0.052966 0.987790
vn 0.146510 0.052966 0.987790
vn 0.146510 0.052966 0.987790
vn 0.153871 0.078771 0.984946
vn 0.153871 0.078771 0.984946
vn 0.153871 0.078771 0.984946
vn 0.153871 0.078771 0.984946
vn 0.137455 0.062139 0.988557
vn 0.137455 0.062139 0.988557
vn 0.137455 0.062139 0.988557
vn 0.137455 0.062139 0.988557
vn 0.132153 0.068079 0.988889
vn 0.132153 0.068079 0.988889
vn 0.132153 0.068079 0.988889
vn 0.132153 0.068079 0.988889
vn 0.000000 -0.047141 -0.998888
vn 0.000000 -0.047141 -0.998888
vn 0.000000 -0.047141 -0.998888
vn 0.000000 0.008097 0.999967
vn 0.000000 0.008097 0.999967
vn 0.000000 0.008097 0.999967
vn 0.246249 0.959043 -0.139991
vn 0.246249 0.959043 -0.139991
vn 0.246249 0.959043 -0.139991
vn 0.307005 -0.939132 0.154206
vn 0.307005 -0.939132 0.154206
vn 0.307005 -0.939132 0.154206
vn 0.307005 -0.939132 0.154206
vn 0.940094 -0.336945 0.051887
vn 0.940094 -0.336945 0.051887
vn 0.940094 -0.336945 0.051887
vn 0.989636 0.000983 0.143595
vn 0.989636 0.000983 0.143595
vn 0.989636 0.000983 0.143595
vn 0.989636 0.000983 0.143595
vn -0.951850 -0.268784 -0.147432
vn -0.951850 -0.268784 -0.147432
vn -0.951850 -0.268784 -0.147432
vn -0.951850 -0.268784 -0.147432
vn 0.584433 0.163248 0.794851
vn 0.584433 0.163248 0.794851
vn 0.584433 0.163248 0.794851
vn 0.584433 0.163248 0.794851
vn 0.398118 -0.911775 -0.100840
vn 0.398119 -0.911775 -0.100840
vn 0.398119 -0.911775 -0.100840
vn 0.398118 -0.911775 -0.100840
vn 0.879946 -0.146330 -0.451975
vn 0.879946 -0.146330 -0.451975
vn 0.879946 -0.146330 -0.451975
vn -0.594882 -0.247588 -0.764732
vn -0.594882 -0.247588 -0.764732
vn -0.594882 -0.247588 -0.764732
vn 0.161451 0.972407 0.168397
vn 0.161451 0.972407 0.168397
vn 0.161451 0.972407 0.168397
vn 0.161451 0.972407 0.168397
vn 0.144735 0.064686 0.987354
vn 0.144735 0.064686 0.987354
vn 0.144735 0.064686 0.987354
vn 1.000000 0.000000 0.000000
vn 1.000000 0.000000 0.000000
vn 1.000000 0.000000 0.000000
vn 1.000000 0.000000 0.000000
vn -0.179398 -0.587575 0.789032
vn -0.179398 -0.587575 0.789032
vn -0.179398 -0.587575 0.789032
vn -0.179398 -0.587575 0.789032
vn -1.000000 -0.000000 0.000000
vn -1.000000 -0.000000 0.000000
vn -1.000000 -0.000000 0.000000
vn -1.000000 -0.000000 0.000000
vn -0.142029 0.671318 -0.727434
vn -0.142029 0.671318 -0.727434
vn -0.142029 0.671318 -0.727434
vn -0.142029 0.671318 -0.727434
vn 0.142029 0.671318 -0.727434
vn 0.142029 0.671318 -0.727434
vn 0.142029 0.671318 -0.727434
vn 0.142029 0.671318 -0.727434
vn 1.000000 0.000000 0.000000
vn 1.000000 0.000000 0.000000
vn 1.000000 0.000000 0.000000
vn 1.000000 0.000000 0.000000
vn 0.179398 -0.587576 0.789032
vn 0.179398 -0.587576 0.789032
vn 0.179398 -0.587576 0.789032
vn 0.179398 -0.587576 0.789032
vn -1.000000 0.000000 0.000000
vn -1.000000 0.000000 0.000000
vn -1.000000 0.000000 0.000000
vn -1.000000 0.000000 0.000000
vn 1.000000 -0.000000 0.000000
vn 1.000000 -0.000000 0.000000
vn 1.000000 -0.000000 0.000000
vn 1.000000 -0.000000 0.000000
vn -0.202709 0.436079 0.876780
vn -0.202709 0.436079 0.876780
vn -0.202709 0.436079 0.876780
vn -0.202709 0.436079 0.876781
vn -1.000000 0.000000 0.000000
vn -1.000000 0.000000 0.000000
vn -1.000000 0.000000 0.000000
vn -1.000000 0.000000 0.000000
vn -0.142726 -0.358731 -0.922465
vn -0.142725 -0.358731 -0.922465
vn -0.142725 -0.358731 -0.922465
vn -0.142725 -0.358731 -0.922465
vn 0.142725 -0.358731 -0.922465
vn 0.142725 -0.358731 -0.922465
vn 0.142725 -0.358731 -0.922465
vn 0.142725 -0.358731 -0.922465
vn 1.000000 0.000001 0.000000
vn 1.000000 0.000001 0.000000
vn 1.000000 0.000001 0.000000
vn 1.000000 0.000001 0.000000
vn 0.202709 0.436079 0.876781
vn 0.202709 0.436079 0.876781
vn 0.202709 0.436079 0.876781
vn 0.202709 0.436079 0.876781
vn -1.000000 0.000000 0.000000
vn -1.000000 0.000000 0.000000
vn -1.000000 0.000000 0.000000
vn -1.000000 0.000000 0.000000
s off
f 1/1/1 7/2/2 17/3/3
f 6/4/4 10/5/5 9/6/6 3/7/7
f 2/8/8 8/9/9 7/2/10 1/1/11
f 14/10/12 15/11/13 10/5/14 6/4/15 12/12/16 5/13/17 8/9/18 2/8/19
f 8/9/20 5/13/21 4/14/22 7/2/23
f 13/15/24 16/16/25 15/11/26 14/10/27
f 3/7/28 11/17/29 12/12/30 6/4/31
f 14/10/32 34/18/33 33/19/34 13/15/35
f 16/16/36 9/6/37 10/5/38 15/11/39
f 19/20/40 25/21/41 24/22/42 23/23/43 22/24/44 21/25/45 20/26/46 18/27/47
f 7/2/48 19/28/49 18/29/50 17/3/51
f 17/3/52 18/29/53 20/30/54 13/15/55
f 13/15/56 20/30/57 21/31/58 16/16/59
f 16/16/60 21/31/61 22/32/62 9/6/63
f 9/6/64 22/32/65 23/33/66 3/7/67
f 3/7/68 23/33/69 24/34/70 11/17/71
f 11/17/72 24/34/73 25/35/74 4/14/75
f 4/14/76 25/35/77 19/28/78 7/2/79
f 14/10/80 2/8/81 34/18/82
f 1/36/83 13/15/84 33/19/85
f 5/37/86 30/38/87 4/39/88
f 73/121/89 74/122/90 75/123/91 76/124/92
f 12/44/93 11/45/94 31/46/95
f 30/47/96 27/48/97 29/49/98 31/50/99
f 28/51/100 26/52/101 5/37/102 32/53/103
f 11/54/104 4/39/105 30/47/106 31/50/107
f 28/41/108 32/55/109 31/46/110 29/42/111
f 32/55/112 12/44/113 31/46/114
f 5/37/115 12/56/116 32/53/117
f 5/37/118 26/40/119 27/43/120 30/38/121
f 1/36/122 17/3/123 13/15/124
f 1/57/125 49/58/126 39/59/127
f 38/60/128 35/61/129 41/62/130 42/63/131
f 2/64/132 1/57/133 39/59/134 40/65/135
f 46/66/136 2/64/137 40/65/138 37/67/139 44/68/140 38/60/141 42/63/142 47/69/143
f 40/65/144 39/59/145 36/70/146 37/67/147
f 45/71/148 46/66/149 47/69/150 48/72/151
f 35/61/152 38/60/153 44/68/154 43/73/155
f 46/66/156 45/71/157 33/74/158 34/75/159
f 48/72/160 47/69/161 42/63/162 41/62/163
f 51/76/164 50/77/165 52/78/166 53/79/167 54/80/168 55/81/169 56/82/170 57/83/171
f 39/59/172 49/58/173 50/84/174 51/85/175
f 49/58/176 45/71/177 52/86/178 50/84/179
f 45/71/180 48/72/181 53/87/182 52/86/183
f 48/72/184 41/62/185 54/88/186 53/87/187
f 41/62/188 35/61/189 55/89/190 54/88/191
f 35/61/192 43/73/193 56/90/194 55/89/195
f 43/73/196 36/70/197 57/91/198 56/90/199
f 36/70/200 39/59/201 51/85/202 57/91/203
f 46/66/204 34/75/205 2/64/206
f 1/92/207 33/74/208 45/71/209
f 37/93/210 36/94/211 62/95/212
f 77/125/213 78/126/214 79/127/215 80/128/216
f 44/100/217 63/101/218 43/102/219
f 62/103/220 63/104/221 61/105/222 59/106/223
f 60/107/224 64/108/225 37/93/226 58/109/227
f 43/110/228 63/104/229 62/103/230 36/94/231
f 60/99/232 61/98/233 63/101/234 64/111/235
f 64/111/236 63/101/237 44/100/238
f 37/93/239 64/108/240 44/112/241
f 37/93/242 62/95/243 59/97/244 58/96/245
f 1/92/246 45/71/247 49/58/248
f 26/40/249 28/41/250 66/114/251 65/113/252
f 28/41/253 29/42/254 67/115/255 66/114/256
f 29/42/257 27/43/258 68/116/259 67/115/260
f 27/43/261 26/40/262 65/113/263 68/116/264
f 58/96/265 59/97/266 70/118/267 69/117/268
f 59/97/269 61/98/270 71/119/271 70/118/272
f 61/98/273 60/99/274 72/120/275 71/119/276
f 60/99/277 58/96/278 69/117/279 72/120/280
f 65/113/281 66/114/282 74/122/283 73/121/284
f 66/114/285 67/115/286 75/123/287 74/122/288
f 67/115/289 68/116/290 76/124/291 75/123/292
f 68/116/293 65/113/294 73/121/295 76/124/296
f 69/117/297 70/118/298 78/126/299 77/125/300
f 70/118/301 71/119/302 79/127/303 78/126/304
f 71/119/305 72/120/306 80/128/307 79/127/308
f 72/120/309 69/117/310 77/125/311 80/128/312
