# This file uses centimeters as units for non-parametric coordinates.

v 0.006284 109.054550 11.345329
v 8.988690 107.542839 7.397341
v 9.418126 108.364151 4.828840
v 11.063378 107.383392 -1.501892
v 10.319891 107.225418 1.722775
v 10.936730 104.598137 -5.673043
v -0.490684 107.019859 -13.631676
v -0.118925 121.297897 -5.582032
v 0.737504 121.045944 6.106328
v 0.602605 110.377502 12.296894
v 12.077156 114.016739 -4.075647
v 10.538451 109.204170 -9.553096
v 11.135354 113.814285 5.619335
v 9.816254 108.233871 7.485128
v 11.175806 109.811066 5.761663
v 12.368922 108.435852 1.763511
v 13.162639 109.516724 -2.894793
v 12.489339 107.870537 -7.100791
v -8.597325 107.916878 10.145866
v -9.958703 106.914185 6.664853
v -11.050811 106.538490 -1.613292
v -10.494348 107.185471 1.722775
v -10.924163 104.045578 -5.865568
v -10.567690 116.172066 -4.689418
v -10.541163 109.324539 -9.306841
v -10.320688 116.934265 3.790923
v -10.039074 109.564407 9.926111
v -11.912612 108.946564 6.250061
v -12.395353 108.765991 1.763511
v -13.324207 109.256760 -3.051964
v -12.650906 107.109047 -6.394880
v -3.602537 108.484756 9.965018
v -3.102372 109.874725 12.611691
v -2.960299 120.517433 5.748879
v -3.045715 121.244614 -5.024564
v -4.442824 107.487610 -11.964400
v 7.459031 110.413475 10.310375
v -6.622084 120.375153 -5.004059
v -6.885565 119.893288 3.942634
v -5.439312 109.389771 11.617523
v 4.978243 110.381744 11.377793
v 4.640500 120.706596 5.179577
v 6.893971 119.793579 -5.238110
v 5.367901 109.477867 -12.045367
v 5.621313 109.779892 9.266084
v 0.006284 102.755585 -11.435058
v 5.405093 104.237434 -10.697696
v 10.819335 104.599640 -9.746768
v -4.863277 103.196266 -11.169150
v -10.806768 103.679237 -10.067406
v 8.168126 117.556068 5.610704
v 0.118620 109.038643 4.269398
v -3.076048 112.728012 -11.762042
v -0.707135 113.294968 -12.175159
v 5.927654 114.507019 -10.611325
v 10.404594 111.772827 -8.316019
v 12.589485 108.903900 -6.137756
v 10.839067 106.006027 -3.876444
v -4.804353 112.906212 -10.837170
v -10.401567 112.740158 -8.010190
v -12.787116 108.489021 -4.953997
v -10.807265 105.600319 -3.905059
v -10.145089 112.528030 9.701035
v -6.175072 115.455795 9.918181
v -3.030123 115.882240 10.459532
v 0.337862 115.748817 10.480387
v 4.500319 115.937408 10.243052
v 6.400101 115.503815 8.810223
v 5.695365 110.850929 9.091232
vt 0.050356 0.198441
vt 0.050356 0.198441
vt 0.050356 0.198441
vt 0.050356 0.198441
vt 0.050356 0.198441
vt 0.050356 0.198441
vt 0.050356 0.198441
vt 0.050356 0.198441
vt 0.050356 0.198441
vt 0.050356 0.198441
vt 0.050356 0.198441
vt 0.050356 0.198441
vt 0.050356 0.198441
vt 0.050356 0.198441
vt 0.050356 0.198441
vt 0.050356 0.198441
vt 0.050356 0.198441
vt 0.050356 0.198441
vt 0.050356 0.198441
vt 0.050356 0.198441
vt 0.050356 0.198441
vt 0.050356 0.198441
vt 0.050356 0.198441
vt 0.050356 0.198441
vt 0.050356 0.198441
vt 0.050356 0.198441
vt 0.050356 0.198441
vt 0.050356 0.198441
vt 0.050356 0.198441
vt 0.050356 0.198441
vt 0.050356 0.198441
vt 0.050356 0.198441
vt 0.050356 0.198441
vt 0.050356 0.198441
vt 0.050356 0.198441
vt 0.050356 0.198441
vt 0.050356 0.198441
vt 0.050356 0.198441
vt 0.050356 0.198441
vt 0.050356 0.198441
vt 0.050356 0.198441
vt 0.050356 0.198441
vt 0.050356 0.198441
vt 0.050356 0.198441
vt 0.050356 0.198441
vt 0.050356 0.198441
vt 0.050356 0.198441
vt 0.050356 0.198441
vt 0.050356 0.198441
vt 0.050356 0.198441
vt 0.050356 0.198441
vt 0.050356 0.198441
vt 0.050356 0.198441
vt 0.050356 0.198441
vt 0.050356 0.198441
vt 0.050356 0.198441
vt 0.050356 0.198441
vt 0.050356 0.198441
vt 0.050356 0.198441
vt 0.050356 0.198441
vt 0.050356 0.198441
vt 0.050356 0.198441
vt 0.050356 0.198441
vt 0.050356 0.198441
vt 0.050356 0.198441
vt 0.050356 0.198441
vt 0.050356 0.198441
vt 0.050356 0.198441
vt 0.050356 0.198441
vt 0.050356 0.198441
vt 0.050356 0.198441
vt 0.050356 0.198441
vt 0.050356 0.198441
vt 0.050356 0.198441
vt 0.050356 0.198441
vt 0.050356 0.198441
vt 0.050356 0.198441
vt 0.050356 0.198441
vt 0.050356 0.198441
vt 0.050356 0.198441
vt 0.050356 0.198441
vt 0.050356 0.198441
vt 0.050356 0.198441
vt 0.050356 0.198441
vt 0.050356 0.198441
vt 0.050356 0.198441
vt 0.050356 0.198441
vt 0.050356 0.198441
vt 0.050356 0.198441
vt 0.050356 0.198441
vt 0.050356 0.198441
vt 0.050356 0.198441
vt 0.050356 0.198441
vt 0.050356 0.198441
vt 0.050356 0.198441
vt 0.050356 0.198441
vt 0.050356 0.198441
vt 0.050356 0.198441
vt 0.050356 0.198441
vt 0.050356 0.198441
vt 0.050356 0.198441
vt 0.050356 0.198441
vt 0.050356 0.198441
vt 0.050356 0.198441
vt 0.050356 0.198441
vt 0.050356 0.198441
vt 0.050356 0.198441
vt 0.050356 0.198441
vt 0.050356 0.198441
vt 0.050356 0.198441
vt 0.050356 0.198441
vt 0.050356 0.198441
vt 0.050356 0.198441
vt 0.050356 0.198441
vt 0.050356 0.198441
vt 0.050356 0.198441
vt 0.050356 0.198441
vt 0.050356 0.198441
vt 0.050356 0.198441
vt 0.050356 0.198441
vt 0.050356 0.198441
vt 0.050356 0.198441
vt 0.050356 0.198441
vt 0.050356 0.198441
vt 0.050356 0.198441
vt 0.050356 0.198441
vt 0.050356 0.198441
vt 0.050356 0.198441
vt 0.050356 0.198441
vt 0.050356 0.198441
vt 0.050356 0.198441
vt 0.050356 0.198441
vt 0.050356 0.198441
vt 0.050356 0.198441
vt 0.050356 0.198441
vt 0.050356 0.198441
vt 0.050356 0.198441
vt 0.050356 0.198441
vt 0.050356 0.198441
vt 0.050356 0.198441
vt 0.050356 0.198441
vt 0.050356 0.198441
vt 0.050356 0.198441
vt 0.050356 0.198441
vt 0.050356 0.198441
vt 0.050356 0.198441
vt 0.050356 0.198441
vt 0.050356 0.198441
vt 0.050356 0.198441
vt 0.050356 0.198441
vt 0.050356 0.198441
vt 0.050356 0.198441
vt 0.050356 0.198441
vt 0.050356 0.198441
vt 0.050356 0.198441
vt 0.050356 0.198441
vt 0.050356 0.198441
vt 0.050356 0.198441
vt 0.050356 0.198441
vn 0.170733 0.239227 -0.955835
vn 0.170733 0.239227 -0.955835
vn 0.170733 0.239227 -0.955835
vn 0.170733 0.239227 -0.955835
vn 0.165521 0.986023 -0.019026
vn 0.165521 0.986023 -0.019026
vn 0.165521 0.986023 -0.019026
vn 0.165521 0.986023 -0.019026
vn 0.117646 0.675841 0.727598
vn 0.117646 0.675841 0.727598
vn 0.117646 0.675841 0.727598
vn 0.117646 0.675841 0.727598
vn 0.771041 0.030406 0.636059
vn 0.771041 0.030406 0.636059
vn 0.771041 0.030406 0.636059
vn 0.959889 0.019643 0.279692
vn 0.959889 0.019643 0.279692
vn 0.959889 0.019643 0.279692
vn 0.972158 0.191749 0.134692
vn 0.972158 0.191749 0.134692
vn 0.972158 0.191749 0.134692
vn 0.972158 0.191749 0.134692
vn 0.830061 0.296328 -0.472428
vn 0.830061 0.296328 -0.472428
vn 0.830061 0.296328 -0.472428
vn 0.830061 0.296328 -0.472428
vn 0.161349 -0.623167 0.765264
vn 0.161349 -0.623167 0.765264
vn 0.161349 -0.623167 0.765264
vn 0.662626 -0.736602 -0.135443
vn 0.662626 -0.736602 -0.135443
vn 0.662626 -0.736602 -0.135443
vn 0.662626 -0.736602 -0.135443
vn 0.627572 -0.778559 0.000024
vn 0.627572 -0.778559 0.000024
vn 0.627572 -0.778559 0.000024
vn 0.627572 -0.778559 0.000024
vn 0.905949 -0.317518 0.280069
vn 0.905949 -0.317518 0.280069
vn 0.905949 -0.317518 0.280069
vn 0.905949 -0.317518 0.280069
vn -0.215559 0.588603 -0.779154
vn -0.215559 0.588603 -0.779154
vn -0.215559 0.588603 -0.779154
vn -0.215559 0.588603 -0.779154
vn -0.208201 0.976366 0.057982
vn -0.208201 0.976366 0.057982
vn -0.208201 0.976366 0.057982
vn -0.208201 0.976366 0.057982
vn -0.313812 0.714439 0.625379
vn -0.313812 0.714439 0.625379
vn -0.313812 0.714439 0.625379
vn -0.313812 0.714439 0.625379
vn -0.942080 0.254870 0.218007
vn -0.942080 0.254870 0.218007
vn -0.942080 0.254870 0.218007
vn -0.970197 0.222736 0.095426
vn -0.970197 0.222736 0.095426
vn -0.970197 0.222736 0.095426
vn -0.950036 0.302278 0.077848
vn -0.950036 0.302278 0.077848
vn -0.950036 0.302278 0.077848
vn -0.950036 0.302278 0.077848
vn -0.900376 0.271795 -0.339780
vn -0.900376 0.271795 -0.339780
vn -0.900376 0.271795 -0.339780
vn -0.900376 0.271795 -0.339780
vn -0.015286 -0.884037 0.467167
vn -0.015286 -0.884037 0.467167
vn -0.015286 -0.884037 0.467167
vn -0.695772 -0.565713 0.442573
vn -0.695772 -0.565713 0.442573
vn -0.695772 -0.565713 0.442573
vn -0.695772 -0.565713 0.442573
vn -0.733046 -0.664259 0.146299
vn -0.733046 -0.664259 0.146299
vn -0.733046 -0.664259 0.146299
vn -0.733046 -0.664259 0.146299
vn -0.811511 -0.578245 0.084159
vn -0.811511 -0.578245 0.084159
vn -0.811511 -0.578245 0.084159
vn -0.811511 -0.578245 0.084159
vn -0.077029 0.674895 0.733883
vn -0.077029 0.674895 0.733883
vn -0.077029 0.674895 0.733883
vn -0.077029 0.674895 0.733883
vn -0.085982 0.995188 0.046986
vn -0.085982 0.995188 0.046986
vn -0.085982 0.995188 0.046986
vn -0.085982 0.995188 0.046986
vn -0.310643 0.165859 -0.935944
vn -0.310642 0.165859 -0.935944
vn -0.310643 0.165859 -0.935944
vn -0.310643 0.165859 -0.935944
vn 0.777469 0.026316 0.628371
vn 0.777468 0.026316 0.628371
vn 0.777469 0.026316 0.628371
vn 0.044863 -0.699674 0.713052
vn 0.044863 -0.699674 0.713052
vn 0.044863 -0.699674 0.713052
vn 0.044863 -0.699674 0.713052
vn -0.471506 0.515204 -0.715714
vn -0.471506 0.515204 -0.715714
vn -0.471506 0.515204 -0.715714
vn -0.471506 0.515204 -0.715714
vn -0.696485 0.717467 -0.012200
vn -0.696485 0.717468 -0.012200
vn -0.696485 0.717468 -0.012200
vn -0.696485 0.717467 -0.012200
vn -0.545054 0.652663 0.526259
vn -0.545054 0.652663 0.526259
vn -0.545054 0.652663 0.526259
vn -0.545054 0.652663 0.526259
vn -0.102832 -0.584033 0.805190
vn -0.102832 -0.584033 0.805190
vn -0.102832 -0.584033 0.805190
vn -0.102832 -0.584033 0.805190
vn 0.241134 -0.911492 0.333221
vn 0.241134 -0.911492 0.333221
vn 0.241134 -0.911492 0.333221
vn 0.658894 0.748290 0.076946
vn 0.698089 0.713048 0.065074
vn 0.724157 0.687301 0.056702
vn 0.493511 0.263712 -0.828796
vn 0.493511 0.263712 -0.828796
vn 0.493511 0.263712 -0.828796
vn 0.493511 0.263712 -0.828796
vn 0.448036 -0.793037 0.412743
vn 0.448036 -0.793037 0.412743
vn 0.448036 -0.793037 0.412743
vn 0.448036 -0.793037 0.412743
vn -0.685750 -0.724738 0.067095
vn -0.685749 -0.724738 0.067095
vn -0.685750 -0.724738 0.067095
vn -0.685750 -0.724738 0.067095
vn 0.343602 -0.231612 -0.910106
vn 0.343601 -0.231612 -0.910106
vn 0.343601 -0.231612 -0.910106
vn 0.799612 0.073845 -0.595959
vn 0.799612 0.073845 -0.595959
vn 0.799612 0.073845 -0.595959
vn -0.398380 -0.129246 -0.908069
vn -0.398380 -0.129246 -0.908069
vn -0.398380 -0.129246 -0.908069
vn -0.872344 -0.488553 0.018225
vn -0.872344 -0.488554 0.018225
vn -0.872344 -0.488553 0.018225
vn -0.192498 -0.160539 -0.968076
vn -0.192498 -0.160539 -0.968076
vn -0.192498 -0.160539 -0.968076
vn 0.436066 0.064355 -0.897610
vn 0.436066 0.064355 -0.897610
vn 0.436066 0.064355 -0.897611
vn 0.510592 0.601460 0.614444
vn 0.510592 0.601460 0.614444
vn 0.510592 0.601460 0.614444
vn 0.510592 0.601460 0.614444
vn 0.601676 0.478603 0.639473
vn 0.601676 0.478603 0.639473
vn 0.601676 0.478603 0.639473
vn 0.780347 0.619019 0.088732
vn 0.780347 0.619019 0.088732
vn 0.780347 0.619019 0.088732
vn -0.050063 -0.948836 -0.311775
vn -0.050063 -0.948836 -0.311775
vn -0.050063 -0.948836 -0.311775
vn -0.196743 -0.976018 -0.093170
vn -0.196743 -0.976018 -0.093170
vn -0.196743 -0.976018 -0.093170
vn 0.180060 -0.820562 0.542455
vn 0.180060 -0.820562 0.542455
vn 0.180060 -0.820562 0.542455
vn 0.180060 -0.820562 0.542455
vn 0.112100 -0.993422 -0.023369
vn 0.112100 -0.993422 -0.023369
vn 0.112100 -0.993422 -0.023369
vn 0.243564 -0.953167 0.179302
vn 0.243564 -0.953167 0.179302
vn 0.243564 -0.953167 0.179302
vn 0.130372 -0.977169 0.167762
vn 0.130372 -0.977169 0.167762
vn 0.130372 -0.977169 0.167762
vn 0.007215 -0.925166 0.379495
vn 0.007215 -0.925166 0.379495
vn 0.007215 -0.925166 0.379495
vn 0.154213 -0.988027 0.004669
vn 0.154213 -0.988027 0.004669
vn 0.154213 -0.988027 0.004669
vn -0.302208 -0.836597 0.456920
vn -0.302208 -0.836597 0.456920
vn -0.302208 -0.836597 0.456920
vn 0.129674 -0.991547 0.004287
vn 0.129674 -0.991547 0.004287
vn 0.129674 -0.991547 0.004287
vn -0.087684 -0.943235 0.320341
vn -0.087684 -0.943235 0.320341
vn -0.087684 -0.943235 0.320341
vn 0.188791 -0.979209 -0.074215
vn 0.188791 -0.979209 -0.074215
vn 0.188792 -0.979209 -0.074215
vn 0.200274 -0.910133 0.362695
vn 0.200274 -0.910133 0.362695
vn 0.200274 -0.910133 0.362695
vn -0.371538 -0.928360 0.010366
vn -0.371538 -0.928360 0.010366
vn -0.371538 -0.928360 0.010366
vn -0.063574 -0.926416 0.371096
vn -0.063574 -0.926416 0.371096
vn -0.063574 -0.926416 0.371096
vn 0.339658 -0.936125 0.091112
vn 0.339658 -0.936125 0.091112
vn 0.339658 -0.936125 0.091112
vn -0.009794 -0.934175 0.356680
vn -0.009794 -0.934175 0.356680
vn -0.009794 -0.934175 0.356680
vn 0.009456 -0.951189 0.308465
vn 0.009456 -0.951189 0.308465
vn 0.009456 -0.951189 0.308465
vn 0.183561 -0.243609 -0.952345
vn 0.183561 -0.243609 -0.952345
vn 0.183561 -0.243609 -0.952345
vn -0.359450 0.141185 -0.922422
vn -0.359450 0.141185 -0.922422
vn -0.359450 0.141185 -0.922422
vn -0.090133 -0.464352 -0.881053
vn -0.090133 -0.464352 -0.881052
vn -0.090133 -0.464352 -0.881052
vn 0.235644 -0.423195 -0.874859
vn 0.235644 -0.423195 -0.874859
vn 0.235644 -0.423195 -0.874859
vn -0.211156 0.618609 -0.756793
vn -0.211156 0.618609 -0.756793
vn -0.211156 0.618609 -0.756793
vn -0.211156 0.618609 -0.756793
vn 0.118172 0.656786 -0.744760
vn 0.118172 0.656786 -0.744760
vn 0.118172 0.656786 -0.744760
vn 0.118172 0.656786 -0.744760
vn 0.647942 0.503069 -0.571920
vn 0.647942 0.503069 -0.571920
vn 0.647942 0.503069 -0.571920
vn 0.647942 0.503069 -0.571920
vn 0.902286 0.235949 -0.360844
vn 0.902286 0.235949 -0.360844
vn 0.902286 0.235949 -0.360844
vn 0.902286 0.235949 -0.360844
vn 0.819938 -0.566225 0.084206
vn 0.819938 -0.566225 0.084206
vn 0.819938 -0.566225 0.084206
vn 0.819938 -0.566225 0.084206
vn -0.454063 0.152325 -0.877852
vn -0.454063 0.152325 -0.877852
vn -0.454063 0.152325 -0.877852
vn -0.384919 0.235203 -0.892478
vn -0.384919 0.235203 -0.892478
vn -0.384919 0.235203 -0.892478
vn -0.384919 0.235203 -0.892478
vn -0.881499 0.234559 -0.409808
vn -0.881499 0.234559 -0.409808
vn -0.881499 0.234559 -0.409808
vn -0.881499 0.234559 -0.409808
vn -0.831818 -0.422575 0.359873
vn -0.831818 -0.422575 0.359873
vn -0.831818 -0.422575 0.359873
vn -0.831818 -0.422575 0.359873
vn -0.220976 -0.757704 0.614048
vn -0.220976 -0.757704 0.614048
vn -0.220976 -0.757704 0.614048
vn 0.898710 -0.437768 -0.026059
vn 0.898710 -0.437768 -0.026059
vn 0.898710 -0.437768 -0.026059
vn -0.842916 0.110598 -0.526556
vn -0.842916 0.110598 -0.526556
vn -0.842916 0.110598 -0.526556
vn 0.030916 -0.802607 0.595706
vn 0.030916 -0.802607 0.595706
vn 0.030916 -0.802608 0.595706
vn 0.030916 -0.802607 0.595706
vn -0.891131 0.002582 0.453739
vn -0.891131 0.002582 0.453739
vn -0.891131 0.002582 0.453739
vn -0.267756 0.176889 0.947110
vn -0.267756 0.176889 0.947110
vn -0.267756 0.176889 0.947110
vn -0.267756 0.176889 0.947110
vn -0.301427 0.274704 0.913061
vn -0.301427 0.274704 0.913061
vn -0.301427 0.274704 0.913060
vn -0.301427 0.274704 0.913060
vn 0.022016 0.329573 0.943873
vn 0.022016 0.329573 0.943873
vn 0.022016 0.329573 0.943873
vn 0.022016 0.329573 0.943873
vn 0.123448 0.266562 0.955879
vn 0.123448 0.266562 0.955879
vn 0.123448 0.266562 0.955879
vn 0.123448 0.266562 0.955879
vn 0.618796 0.207956 0.757526
vn 0.618796 0.207956 0.757526
vn 0.618796 0.207956 0.757526
vn 0.953526 -0.127947 0.272796
vn 0.953526 -0.127947 0.272796
vn 0.953526 -0.127947 0.272796
vn 0.605899 0.338247 0.720052
vn 0.605899 0.338247 0.720052
vn 0.605899 0.338247 0.720052
vn 0.955057 -0.017728 0.295893
vn 0.955057 -0.017728 0.295893
vn 0.955057 -0.017728 0.295893
vn -0.530876 0.172168 0.829776
vn -0.530876 0.172168 0.829776
vn -0.530876 0.172168 0.829776
vn -0.541255 0.132132 0.830412
vn -0.541255 0.132132 0.830412
vn -0.541254 0.132132 0.830412
vn 0.724157 0.687301 0.056702
vn 0.698089 0.713048 0.065074
vn 0.738078 0.672705 0.052057
s off
f 54/140/1 55/142/2 44/48/3 7/3/4
f 42/46/5 43/47/6 8/2/7 9/6/8
f 66/155/9 67/157/10 42/46/11 9/6/12
f 14/13/13 15/15/14 13/5/15
f 16/10/16 13/5/17 15/15/18
f 13/5/19 16/17/20 17/16/21 11/1/22
f 56/143/23 57/144/24 18/18/25 12/4/26
f 1/8/27 41/45/28 10/14/29
f 3/9/30 15/15/31 14/13/32 2/7/33
f 4/11/34 17/16/35 16/17/36 5/50/37
f 6/12/38 18/18/39 57/144/40 58/145/41
f 53/139/42 59/147/43 38/42/44 35/39/45
f 38/42/46 39/43/47 34/38/48 35/39/49
f 39/43/50 64/153/51 65/154/52 34/38/53
f 28/27/54 63/152/55 26/23/56
f 29/28/57 28/27/58 26/23/59
f 26/23/60 24/19/61 30/29/62 29/30/63
f 24/19/64 60/148/65 61/149/66 30/29/67
f 40/44/68 32/36/69 33/37/70
f 20/33/71 19/32/72 27/25/73 28/27/74
f 21/34/75 22/51/76 29/30/77 30/29/78
f 61/149/79 62/150/80 21/34/81 30/29/82
f 34/38/83 65/154/84 66/156/85 9/24/86
f 35/39/87 34/38/88 9/24/89 8/20/90
f 36/40/91 53/139/92 54/141/93 7/21/94
f 14/13/95 13/5/96 37/41/97
f 2/7/98 14/13/99 37/41/100 45/49/101
f 24/19/102 38/42/103 59/147/104 60/148/105
f 26/23/106 39/43/107 38/42/108 24/19/109
f 63/152/110 64/153/111 39/43/112 26/23/113
f 19/32/114 32/36/115 40/44/116 27/25/117
f 45/49/118 41/45/119 1/8/120
f 42/46/121 51/84/122 43/47/123
f 55/142/124 56/143/125 12/4/126 44/48/127
f 16/52/128 15/53/129 3/54/130 5/55/131
f 28/56/132 29/57/133 22/58/134 20/59/135
f 7/60/136 44/61/137 47/62/138
f 12/64/139 18/65/140 48/67/141
f 36/68/142 7/69/143 49/71/144
f 31/72/145 50/74/146 23/75/147
f 50/79/148 36/77/149 49/78/150
f 44/80/151 12/81/152 48/82/153
f 67/157/154 68/158/155 51/84/156 42/46/157
f 68/158/158 13/5/159 51/84/160
f 13/5/161 11/1/162 51/84/163
f 3/85/164 2/86/165 52/87/166
f 4/88/167 5/89/168 52/90/169
f 6/91/170 58/146/171 4/92/172 52/93/173
f 32/94/174 19/95/175 52/96/176
f 19/97/177 20/98/178 52/99/179
f 22/100/180 21/101/181 52/102/182
f 21/103/183 62/151/184 52/105/185
f 1/106/186 32/107/187 52/108/188
f 2/109/189 45/110/190 52/111/191
f 45/112/192 1/113/193 52/114/194
f 5/115/195 3/116/196 52/117/197
f 20/118/198 22/119/199 52/120/200
f 46/121/201 47/122/202 52/123/203
f 48/124/204 6/125/205 52/126/206
f 49/127/207 46/128/208 52/129/209
f 23/130/210 50/131/211 52/132/212
f 50/133/213 49/134/214 52/135/215
f 47/136/216 48/137/217 52/138/218
f 44/80/219 48/82/220 47/83/221
f 25/76/222 36/77/223 50/79/224
f 49/71/225 7/69/226 46/70/227
f 7/60/228 47/62/229 46/63/230
f 54/141/231 53/139/232 35/39/233 8/20/234
f 43/47/235 55/142/236 54/140/237 8/2/238
f 11/1/239 56/143/240 55/142/241 43/47/242
f 11/1/243 17/16/244 57/144/245 56/143/246
f 58/145/247 57/144/248 17/16/249 4/11/250
f 36/40/251 59/147/252 53/139/253
f 60/148/254 59/147/255 36/40/256 25/22/257
f 61/149/258 60/148/259 25/22/260 31/31/261
f 23/35/262 62/150/263 61/149/264 31/31/265
f 52/105/266 62/151/267 23/104/268
f 48/67/269 18/65/270 6/66/271
f 31/72/272 25/73/273 50/74/274
f 1/8/275 10/26/276 33/37/277 32/107/278
f 27/25/279 63/152/280 28/27/281
f 27/25/282 40/44/283 64/153/284 63/152/285
f 65/154/286 64/153/287 40/44/288 33/37/289
f 66/156/290 65/154/291 33/37/292 10/26/293
f 41/45/294 67/157/295 66/155/296 10/14/297
f 41/45/298 68/158/299 67/157/300
f 69/159/301 68/158/302 41/45/303
f 37/41/304 13/5/305 68/158/306
f 45/49/307 69/159/308 41/45/309
f 45/49/310 37/41/311 69/159/312
f 37/41/313 68/158/314 69/159/315
f 43/47/316 51/84/317 11/1/318
