# This file uses centimeters as units for non-parametric coordinates.

v -0.000100 110.275299 -13.378845
v -0.000100 102.258331 -12.648195
v -2.791818 115.980858 7.860687
v -5.399400 117.380753 -6.625206
v -12.132246 115.478058 -6.651893
v -6.732953 117.030289 -7.142299
v -11.112868 108.333405 -11.401153
v -9.270849 102.708275 -10.220551
v -10.714460 115.991600 3.353321
v -4.436475 116.901878 8.348076
v -11.599607 109.387108 -3.678686
v -11.619802 106.601585 -5.929234
v -11.326530 102.164825 -5.127769
v 10.798388 115.989403 -5.466351
v 11.112658 108.333405 -11.401153
v 0.989974 119.548973 -7.712517
v 9.270647 102.708275 -10.220551
v 9.380701 115.448387 3.353321
v 2.005358 120.798721 2.658810
v 11.599397 109.387108 -3.678688
v 11.619593 106.601585 -5.929234
v 11.339342 102.177757 -5.127804
v -2.185907 119.450096 8.847359
v -4.409322 118.738297 -7.222115
v 7.295420 114.937897 8.119873
v 1.493618 119.030304 7.800842
v 10.615808 112.618561 5.996307
v 10.387003 112.542992 8.551132
v -9.195738 114.468529 6.519943
v 1.110090 113.566185 10.458450
v 5.820986 112.312157 9.738167
v 6.011256 115.851959 10.324676
v 2.002079 119.312279 10.392990
v -0.471262 118.624283 10.764007
v -2.633398 113.981956 9.618591
v -5.126722 116.137596 9.989334
v -7.644636 114.850975 8.720863
v -6.712049 113.165314 9.370857
v -5.779562 117.933372 2.991474
v -4.243116 117.452171 2.848293
v -3.551130 120.175926 2.948006
v -7.441846 110.627586 7.783225
v -11.320518 108.672997 5.357399
v -8.555281 107.546402 9.149788
v -10.978468 110.220116 7.800171
v -12.252104 110.968895 5.024712
v -7.478757 109.125023 10.868591
v -9.672354 110.610504 10.027283
v -3.120031 107.973534 11.013839
v -4.676996 109.124786 11.482971
v 13.084229 108.678001 5.262909
v 14.170458 109.706070 5.040169
v 13.000902 110.032745 8.522018
v 12.255602 108.649185 8.740685
v 12.991946 110.283340 3.579613
v 10.417010 108.939476 4.320625
v 10.165812 111.235741 10.502198
v 8.451151 108.784576 8.416916
v 8.693575 112.612816 12.152679
v 7.547068 111.896629 11.704224
v -5.809282 106.547150 13.267380
v -9.028547 106.269554 12.055755
v -6.821302 107.295433 13.572326
v -8.328817 107.295670 13.172974
v 8.410578 101.321068 -8.745438
v 0.000002 100.641624 -10.119614
v 9.371939 108.809189 2.923230
v 10.337375 107.770386 -0.502959
v 9.539721 108.193748 -4.452576
v 9.591906 106.303246 -5.979034
v 9.124872 100.800438 -4.152285
v -8.410574 101.321068 -8.745438
v -9.539717 108.193748 -4.452576
v -10.337371 107.770386 -0.502959
v -9.591902 106.303246 -5.979034
v -9.124868 100.800438 -4.152285
v 0.000002 112.072296 8.133415
v -9.371935 108.809189 2.923230
v 7.441790 110.614517 7.157150
v -0.000002 106.185081 -1.782606
v 7.587307 108.081635 3.034400
v 8.552998 107.072609 -1.545730
v -7.552135 108.072830 3.012074
v -8.571155 107.074493 -1.543300
v 9.449228 105.248299 2.600413
v 10.414665 104.209511 0.168086
v 7.659959 103.989677 2.790357
v 8.625648 102.980652 -0.340565
v -10.414665 104.209503 0.168083
v -9.449228 105.248291 2.600410
v -8.643809 102.982529 -0.339098
v -7.624791 103.980865 2.776837
vt 0.049735 0.197968
vt 0.049735 0.197968
vt 0.049735 0.197968
vt 0.049735 0.197968
vt 0.049735 0.197968
vt 0.049735 0.197968
vt 0.049735 0.197968
vt 0.049735 0.197968
vt 0.049735 0.197968
vt 0.049735 0.197968
vt 0.049735 0.197968
vt 0.049735 0.197968
vt 0.049735 0.197968
vt 0.049735 0.197968
vt 0.049735 0.197968
vt 0.049735 0.197968
vt 0.049735 0.197968
vt 0.049735 0.197968
vt 0.049735 0.197968
vt 0.049735 0.197968
vt 0.049735 0.197968
vt 0.049735 0.197968
vt 0.049735 0.197968
vt 0.049735 0.197968
vt 0.049735 0.197968
vt 0.049735 0.197968
vt 0.049735 0.197968
vt 0.049735 0.197968
vt 0.049735 0.197968
vt 0.049735 0.197968
vt 0.049735 0.197968
vt 0.049735 0.197968
vt 0.049735 0.197968
vt 0.049735 0.197968
vt 0.049735 0.197968
vt 0.049735 0.197968
vt 0.049735 0.197968
vt 0.049735 0.197968
vt 0.049735 0.197968
vt 0.049735 0.197968
vt 0.049735 0.197968
vt 0.049735 0.197968
vt 0.049735 0.197968
vt 0.049735 0.197968
vt 0.049735 0.197968
vt 0.049735 0.197968
vt 0.049735 0.197968
vt 0.049735 0.197968
vt 0.049735 0.197968
vt 0.049735 0.197968
vt 0.049735 0.197968
vt 0.049735 0.197968
vt 0.049735 0.197968
vt 0.049735 0.197968
vt 0.049735 0.197968
vt 0.049735 0.197968
vt 0.049735 0.197968
vt 0.049735 0.197968
vt 0.049735 0.197968
vt 0.049735 0.197968
vt 0.049735 0.197968
vt 0.049735 0.197968
vt 0.049735 0.197968
vt 0.049735 0.197968
vt 0.049735 0.197968
vt 0.049735 0.197968
vt 0.049735 0.197968
vt 0.049735 0.197968
vt 0.049735 0.197968
vt 0.049735 0.197968
vt 0.049735 0.197968
vt 0.049735 0.197968
vt 0.049735 0.197968
vt 0.049735 0.197968
vt 0.049735 0.197968
vt 0.049735 0.197968
vt 0.049735 0.197968
vt 0.049735 0.197968
vt 0.049735 0.197968
vt 0.049735 0.197968
vt 0.049735 0.197968
vt 0.049735 0.197968
vt 0.049735 0.197968
vt 0.049735 0.197968
vt 0.049735 0.197968
vt 0.049735 0.197968
vt 0.049735 0.197968
vt 0.049735 0.197968
vt 0.049735 0.197968
vt 0.049735 0.197968
vt 0.049735 0.197968
vt 0.049735 0.197968
vt 0.049735 0.197968
vt 0.049735 0.197968
vt 0.049735 0.197968
vt 0.049735 0.197968
vt 0.049735 0.197968
vt 0.049735 0.197968
vt 0.049735 0.197968
vt 0.049735 0.197968
vt 0.049735 0.197968
vt 0.049735 0.197968
vt 0.049735 0.197968
vt 0.049735 0.197968
vt 0.049735 0.197968
vt 0.049735 0.197968
vt 0.049735 0.197968
vt 0.049735 0.197968
vt 0.049735 0.197968
vt 0.049735 0.197968
vt 0.049735 0.197968
vt 0.049735 0.197968
vt 0.049735 0.197968
vt 0.049735 0.197968
vt 0.049735 0.197968
vt 0.049735 0.197968
vt 0.049735 0.197968
vt 0.049735 0.197968
vt 0.049735 0.197968
vt 0.049735 0.197968
vt 0.049735 0.197968
vt 0.049735 0.197968
vt 0.049735 0.197968
vt 0.049735 0.197968
vt 0.049735 0.197968
vt 0.049735 0.197968
vt 0.049735 0.197968
vt 0.049735 0.197968
vt 0.049735 0.197968
vt 0.049735 0.197968
vt 0.049735 0.197968
vt 0.049735 0.197968
vt 0.049735 0.197968
vt 0.049735 0.197968
vt 0.049735 0.197968
vt 0.049735 0.197968
vt 0.049735 0.197968
vt 0.049735 0.197968
vt 0.049735 0.197968
vt 0.049735 0.197968
vt 0.049735 0.197968
vt 0.049735 0.197968
vt 0.049735 0.197968
vt 0.049735 0.197968
vt 0.049735 0.197968
vt 0.049735 0.197968
vt 0.049735 0.197968
vt 0.049735 0.197968
vt 0.049735 0.197968
vt 0.049735 0.197968
vt 0.049735 0.197968
vt 0.049735 0.197968
vt 0.049735 0.197968
vt 0.049735 0.197968
vt 0.049735 0.197968
vt 0.049735 0.197968
vt 0.049735 0.197968
vt 0.049735 0.197968
vt 0.049735 0.197968
vt 0.049735 0.197968
vt 0.049735 0.197968
vt 0.049735 0.197968
vt 0.049735 0.197968
vt 0.049735 0.197968
vt 0.049735 0.197968
vt 0.049735 0.197968
vt 0.049735 0.197968
vt 0.049735 0.197968
vt 0.049735 0.197968
vt 0.049735 0.197968
vt 0.049735 0.197968
vt 0.049735 0.197968
vt 0.049735 0.197968
vt 0.049735 0.197968
vt 0.049735 0.197968
vt 0.049735 0.197968
vt 0.049735 0.197968
vt 0.049735 0.197968
vt 0.049735 0.197968
vt 0.049735 0.197968
vt 0.049735 0.197968
vt 0.049735 0.197968
vt 0.049735 0.197968
vt 0.049735 0.197968
vt 0.049735 0.197968
vt 0.049735 0.197968
vt 0.049735 0.197968
vt 0.049735 0.197968
vt 0.049735 0.197968
vt 0.049735 0.197968
vt 0.049735 0.197968
vt 0.049735 0.197968
vt 0.049735 0.197968
vt 0.049735 0.197968
vt 0.049735 0.197968
vt 0.049735 0.197968
vt 0.049735 0.197968
vt 0.049735 0.197968
vt 0.049735 0.197968
vt 0.049735 0.197968
vt 0.049735 0.197968
vt 0.049735 0.197968
vt 0.049735 0.197968
vt 0.049735 0.197968
vt 0.049735 0.197968
vt 0.049735 0.197968
vt 0.049735 0.197968
vt 0.049735 0.197968
vt 0.049735 0.197968
vt 0.049735 0.197968
vt 0.049735 0.197968
vt 0.049735 0.197968
vt 0.049735 0.197968
vt 0.049735 0.197968
vt 0.049735 0.197968
vt 0.049735 0.197968
vt 0.049735 0.197968
vt 0.049735 0.197968
vt 0.049735 0.197968
vt 0.049735 0.197968
vt 0.049735 0.197968
vt 0.049735 0.197968
vt 0.049735 0.197968
vt 0.049735 0.197968
vt 0.049735 0.197968
vt 0.049735 0.197968
vt 0.049735 0.197968
vt 0.049735 0.197968
vt 0.049735 0.197968
vt 0.049735 0.197968
vt 0.049735 0.197968
vt 0.049735 0.197968
vt 0.049735 0.197968
vt 0.049735 0.197968
vt 0.049735 0.197968
vt 0.049735 0.197968
vt 0.049735 0.197968
vt 0.049735 0.197968
vt 0.049735 0.197968
vt 0.049735 0.197968
vt 0.049735 0.197968
vt 0.049735 0.197968
vt 0.049735 0.197968
vt 0.049735 0.197968
vt 0.049735 0.197968
vt 0.049735 0.197968
vt 0.049735 0.197968
vt 0.049735 0.197968
vt 0.049735 0.197968
vt 0.049735 0.197968
vt 0.049735 0.197968
vt 0.049735 0.197968
vt 0.049735 0.197968
vt 0.049735 0.197968
vt 0.049735 0.197968
vt 0.049735 0.197968
vt 0.049735 0.197968
vt 0.049735 0.197968
vt 0.049735 0.197968
vt 0.049735 0.197968
vt 0.049735 0.197968
vt 0.049735 0.197968
vt 0.049735 0.197968
vt 0.049735 0.197968
vt 0.049735 0.197968
vt 0.049735 0.197968
vt 0.049735 0.197968
vt 0.049735 0.197968
vt 0.049735 0.197968
vt 0.049735 0.197968
vt 0.049735 0.197968
vt 0.049735 0.197968
vt 0.049735 0.197968
vt 0.049735 0.197968
vt 0.049735 0.197968
vt 0.049735 0.197968
vt 0.049735 0.197968
vt 0.049735 0.197968
vt 0.049735 0.197968
vt 0.049735 0.197968
vt 0.049735 0.197968
vt 0.049735 0.197968
vt 0.049735 0.197968
vt 0.049735 0.197968
vt 0.049735 0.197968
vt 0.049735 0.197968
vt 0.049735 0.197968
vt 0.049735 0.197968
vt 0.049735 0.197968
vt 0.049735 0.197968
vt 0.049735 0.197968
vt 0.049735 0.197968
vt 0.049735 0.197968
vt 0.049735 0.197968
vt 0.049735 0.197968
vt 0.049735 0.197968
vt 0.049735 0.197968
vt 0.049735 0.197968
vt 0.049735 0.197968
vt 0.049735 0.197968
vt 0.049735 0.197968
vt 0.049735 0.197968
vt 0.049735 0.197968
vt 0.049735 0.197968
vt 0.049735 0.197968
vt 0.049735 0.197968
vt 0.049735 0.197968
vt 0.049735 0.197968
vt 0.049735 0.197968
vt 0.049735 0.197968
vt 0.049735 0.197968
vt 0.049735 0.197968
vt 0.049735 0.197968
vt 0.049735 0.197968
vt 0.049735 0.197968
vt 0.049735 0.197968
vt 0.049735 0.197968
vt 0.049735 0.197968
vt 0.049735 0.197968
vt 0.049735 0.197968
vt 0.049735 0.197968
vt 0.049735 0.197968
vt 0.049735 0.197968
vt 0.049735 0.197968
vt 0.049735 0.197968
vt 0.049735 0.197968
vt 0.049735 0.197968
vt 0.049735 0.197968
vt 0.049735 0.197968
vt 0.049735 0.197968
vt 0.049735 0.197968
vt 0.049735 0.197968
vt 0.049735 0.197968
vt 0.049735 0.197968
vt 0.049735 0.197968
vt 0.049735 0.197968
vt 0.049735 0.197968
vt 0.049735 0.197968
vt 0.049735 0.197968
vt 0.049735 0.197968
vt 0.049735 0.197968
vt 0.049735 0.197968
vt 0.049735 0.197968
vt 0.049735 0.197968
vt 0.049735 0.197968
vt 0.049735 0.197968
vt 0.049735 0.197968
vt 0.049735 0.197968
vt 0.049735 0.197968
vt 0.049735 0.197968
vt 0.049735 0.197968
vt 0.049735 0.197968
vt 0.049735 0.197968
vt 0.049735 0.197968
vt 0.049735 0.197968
vt 0.049735 0.197968
vt 0.049735 0.197968
vt 0.049735 0.197968
vt 0.049735 0.197968
vt 0.049735 0.197968
vn 0.299672 0.531122 -0.792532
vn 0.299672 0.531122 -0.792532
vn 0.299672 0.531122 -0.792531
vn 0.299672 0.531122 -0.792532
vn 0.197105 -0.162075 -0.966893
vn 0.197105 -0.162075 -0.966893
vn 0.197105 -0.162075 -0.966893
vn 0.197105 -0.162075 -0.966893
vn 0.463288 0.885909 -0.023004
vn 0.463288 0.885909 -0.023004
vn 0.463288 0.885909 -0.023004
vn 0.463287 0.885909 -0.023004
vn 0.972503 0.163021 0.166322
vn 0.972503 0.163021 0.166322
vn 0.972503 0.163021 0.166322
vn 0.993066 0.090564 -0.074949
vn 0.993066 0.090564 -0.074949
vn 0.993066 0.090564 -0.074949
vn 0.993066 0.090564 -0.074949
vn 0.926741 -0.250880 -0.279661
vn 0.926741 -0.250880 -0.279661
vn 0.926741 -0.250880 -0.279661
vn 0.926741 -0.250880 -0.279661
vn -0.232851 0.519779 -0.821955
vn -0.232851 0.519779 -0.821955
vn -0.232851 0.519779 -0.821955
vn -0.232851 0.519779 -0.821955
vn -0.197104 -0.162075 -0.966893
vn -0.197104 -0.162075 -0.966893
vn -0.197104 -0.162075 -0.966893
vn -0.197104 -0.162075 -0.966893
vn -0.322276 0.946213 -0.028615
vn -0.322276 0.946213 -0.028615
vn -0.322276 0.946213 -0.028615
vn -0.322276 0.946213 -0.028615
vn -0.989828 -0.017649 0.141170
vn -0.989828 -0.017649 0.141170
vn -0.989828 -0.017649 0.141170
vn -0.996597 -0.061960 -0.054360
vn -0.996597 -0.061960 -0.054360
vn -0.996597 -0.061960 -0.054360
vn -0.996597 -0.061960 -0.054360
vn -0.926742 -0.251626 -0.278986
vn -0.926742 -0.251626 -0.278986
vn -0.926742 -0.251626 -0.278986
vn -0.926742 -0.251626 -0.278986
vn 0.173347 -0.805295 -0.566966
vn 0.173347 -0.805295 -0.566966
vn 0.173347 -0.805295 -0.566966
vn 0.173347 -0.805295 -0.566966
vn 0.056336 -0.062479 0.996455
vn 0.056336 -0.062479 0.996455
vn 0.056336 -0.062479 0.996455
vn 0.056336 -0.062479 0.996455
vn 0.947811 -0.040726 0.316222
vn 0.947811 -0.040726 0.316222
vn 0.947811 -0.040726 0.316222
vn 0.947811 -0.040726 0.316222
vn 0.545957 -0.814194 -0.197531
vn 0.545957 -0.814194 -0.197531
vn 0.545957 -0.814194 -0.197531
vn 0.072010 -0.626053 0.776449
vn 0.072010 -0.626053 0.776449
vn 0.072010 -0.626053 0.776449
vn 0.072010 -0.626053 0.776449
vn 0.112740 0.246370 0.962596
vn 0.112740 0.246370 0.962596
vn 0.112740 0.246370 0.962596
vn 0.112740 0.246370 0.962596
vn 0.535216 -0.809422 -0.241621
vn 0.535216 -0.809422 -0.241621
vn 0.535216 -0.809422 -0.241621
vn 0.535216 -0.809422 -0.241621
vn -0.173344 -0.805301 -0.566959
vn -0.173344 -0.805301 -0.566959
vn -0.173344 -0.805301 -0.566959
vn -0.173344 -0.805301 -0.566959
vn -0.545916 -0.814223 -0.197526
vn -0.545915 -0.814223 -0.197526
vn -0.545916 -0.814223 -0.197526
vn -0.820455 -0.424049 0.383454
vn -0.820455 -0.424048 0.383454
vn -0.820455 -0.424048 0.383454
vn -0.820455 -0.424049 0.383454
vn -0.072002 -0.626053 0.776449
vn -0.072002 -0.626053 0.776449
vn -0.072002 -0.626053 0.776449
vn -0.072002 -0.626053 0.776449
vn -0.534342 -0.809948 -0.241790
vn -0.534342 -0.809948 -0.241790
vn -0.534342 -0.809948 -0.241790
vn -0.534342 -0.809948 -0.241790
vn -0.114042 0.245804 0.962588
vn -0.114042 0.245804 0.962588
vn -0.114042 0.245804 0.962588
vn -0.114042 0.245804 0.962588
vn -0.136982 0.983734 -0.116205
vn -0.136982 0.983734 -0.116205
vn -0.136982 0.983734 -0.116205
vn -0.136982 0.983734 -0.116205
vn -0.155030 0.527085 -0.835552
vn -0.155030 0.527085 -0.835552
vn -0.155030 0.527085 -0.835552
vn 0.079539 0.717840 -0.691650
vn 0.079539 0.717840 -0.691650
vn 0.079539 0.717840 -0.691650
vn 0.052614 0.997087 -0.055216
vn 0.052614 0.997087 -0.055216
vn 0.052614 0.997087 -0.055216
vn 0.052614 0.997087 -0.055216
vn 0.451587 0.378926 0.807765
vn 0.451587 0.378926 0.807765
vn 0.451587 0.378926 0.807765
vn -0.362979 -0.195702 0.911014
vn -0.362979 -0.195702 0.911014
vn -0.362979 -0.195702 0.911014
vn -0.919828 0.386967 0.064602
vn -0.919828 0.386967 0.064602
vn -0.919828 0.386967 0.064602
vn -0.919828 0.386967 0.064602
vn -0.672031 0.173586 -0.719891
vn -0.672031 0.173587 -0.719891
vn -0.672031 0.173586 -0.719891
vn 0.792416 -0.555811 0.251299
vn 0.792416 -0.555811 0.251299
vn 0.792416 -0.555811 0.251299
vn 0.792416 -0.555811 0.251299
vn 0.535930 0.780539 0.321772
vn 0.535930 0.780539 0.321772
vn 0.535930 0.780539 0.321772
vn 0.151677 -0.012286 0.988354
vn 0.151677 -0.012286 0.988354
vn 0.151677 -0.012286 0.988354
vn 0.200650 0.920094 0.336403
vn 0.200650 0.920094 0.336403
vn 0.200650 0.920094 0.336403
vn 0.269685 -0.689428 -0.672279
vn 0.269685 -0.689428 -0.672279
vn 0.269685 -0.689428 -0.672279
vn 0.269685 -0.689428 -0.672279
vn 0.660303 0.702708 0.264955
vn 0.660303 0.702708 0.264955
vn 0.660303 0.702708 0.264955
vn 0.660303 0.702708 0.264955
vn 0.115521 -0.493670 0.861943
vn 0.115521 -0.493670 0.861943
vn 0.115521 -0.493670 0.861943
vn 0.115521 -0.493670 0.861943
vn -0.052646 -0.997660 -0.043625
vn -0.052646 -0.997660 -0.043625
vn -0.052646 -0.997660 -0.043625
vn -0.052646 -0.997660 -0.043625
vn -0.192312 -0.100550 0.976169
vn -0.192312 -0.100550 0.976169
vn -0.192312 -0.100550 0.976169
vn -0.192312 -0.100550 0.976169
vn -0.537436 0.629886 0.560720
vn -0.537436 0.629886 0.560720
vn -0.537436 0.629886 0.560720
vn -0.936167 -0.183575 0.299819
vn -0.936167 -0.183575 0.299819
vn -0.936167 -0.183575 0.299819
vn -0.936167 -0.183575 0.299819
vn 0.534787 0.782942 0.317813
vn 0.534787 0.782942 0.317813
vn 0.534787 0.782942 0.317813
vn -0.112558 -0.838229 0.533576
vn -0.112558 -0.838229 0.533576
vn -0.112558 -0.838229 0.533576
vn -0.112558 -0.838229 0.533576
vn 0.147247 -0.695558 0.703220
vn 0.147247 -0.695558 0.703220
vn 0.147247 -0.695558 0.703220
vn 0.147247 -0.695558 0.703220
vn 0.608646 0.787380 -0.097895
vn 0.608646 0.787380 -0.097895
vn 0.608646 0.787380 -0.097895
vn 0.608646 0.787380 -0.097895
vn -0.777578 -0.281643 0.562183
vn -0.777578 -0.281643 0.562183
vn -0.777578 -0.281643 0.562183
vn -0.777578 -0.281643 0.562183
vn -0.014074 0.991858 0.126573
vn -0.014074 0.991858 0.126573
vn -0.014074 0.991858 0.126573
vn -0.014074 0.991858 0.126573
vn 0.647004 0.602733 0.467011
vn 0.647004 0.602733 0.467011
vn 0.647004 0.602733 0.467011
vn 0.647004 0.602733 0.467011
vn -0.511576 0.836181 0.197715
vn -0.511576 0.836181 0.197715
vn -0.511576 0.836181 0.197715
vn -0.511576 0.836181 0.197715
vn -0.669095 -0.419593 0.613395
vn -0.669095 -0.419593 0.613395
vn -0.669095 -0.419593 0.613395
vn -0.669095 -0.419593 0.613395
vn -0.216044 -0.633505 0.742965
vn -0.216044 -0.633505 0.742965
vn -0.216044 -0.633505 0.742965
vn -0.216044 -0.633505 0.742965
vn -0.337179 0.905157 0.258847
vn -0.337179 0.905157 0.258847
vn -0.337179 0.905157 0.258847
vn 0.418471 0.902143 0.104978
vn 0.418471 0.902143 0.104978
vn 0.418471 0.902143 0.104978
vn 0.418471 0.902143 0.104978
vn -0.949447 0.150668 0.275408
vn -0.949447 0.150668 0.275408
vn -0.949447 0.150668 0.275408
vn -0.949447 0.150668 0.275408
vn -0.102763 0.984102 0.144858
vn -0.102763 0.984102 0.144858
vn -0.102763 0.984102 0.144858
vn 0.550510 -0.801163 -0.234685
vn 0.550510 -0.801163 -0.234685
vn 0.550510 -0.801163 -0.234685
vn 0.550510 -0.801163 -0.234685
vn -0.742954 0.429518 0.513355
vn -0.742954 0.429518 0.513355
vn -0.742954 0.429518 0.513355
vn -0.742954 0.429518 0.513355
vn -0.653370 -0.149135 -0.742204
vn -0.653370 -0.149135 -0.742204
vn -0.653370 -0.149135 -0.742204
vn -0.653370 -0.149135 -0.742204
vn -0.092828 0.347320 0.933141
vn -0.092828 0.347320 0.933141
vn -0.092828 0.347320 0.933141
vn -0.092828 0.347320 0.933141
vn -0.774893 0.474929 0.417113
vn -0.774893 0.474929 0.417113
vn -0.774893 0.474929 0.417113
vn -0.774893 0.474929 0.417113
vn 0.219365 -0.589282 -0.777577
vn 0.219365 -0.589282 -0.777577
vn 0.219365 -0.589282 -0.777577
vn 0.219365 -0.589282 -0.777577
vn 0.508541 0.155473 0.846885
vn 0.508540 0.155473 0.846885
vn 0.508541 0.155473 0.846885
vn 0.508540 0.155473 0.846885
vn -0.160075 0.392763 0.905601
vn -0.160075 0.392763 0.905601
vn -0.160075 0.392763 0.905601
vn -0.160075 0.392763 0.905601
vn 0.666246 0.735394 0.123741
vn 0.666246 0.735394 0.123741
vn 0.666246 0.735395 0.123741
vn 0.666246 0.735395 0.123741
vn 0.220154 -0.109006 -0.969355
vn 0.220154 -0.109006 -0.969355
vn 0.220154 -0.109006 -0.969355
vn 0.220154 -0.109006 -0.969355
vn 0.748671 0.654837 0.103347
vn 0.748671 0.654837 0.103347
vn 0.748671 0.654837 0.103347
vn 0.748671 0.654837 0.103347
vn 0.539841 0.669729 0.509935
vn 0.539841 0.669729 0.509935
vn 0.539841 0.669729 0.509935
vn 0.539841 0.669729 0.509935
vn -0.556920 -0.824877 -0.097041
vn -0.556920 -0.824877 -0.097041
vn -0.556920 -0.824877 -0.097041
vn -0.556920 -0.824877 -0.097041
vn 0.734574 0.666085 0.129350
vn 0.734574 0.666085 0.129350
vn 0.734574 0.666085 0.129350
vn 0.734574 0.666085 0.129350
vn -0.644355 0.016465 0.764549
vn -0.644355 0.016465 0.764549
vn -0.644355 0.016465 0.764549
vn -0.644355 0.016465 0.764549
vn -0.749677 -0.632230 0.195628
vn -0.749677 -0.632230 0.195628
vn -0.749677 -0.632230 0.195628
vn -0.749677 -0.632230 0.195628
vn 0.200626 -0.912950 -0.355347
vn 0.200626 -0.912950 -0.355347
vn 0.200626 -0.912950 -0.355347
vn 0.200626 -0.912950 -0.355347
vn 0.492175 0.338879 0.801826
vn 0.492175 0.338879 0.801826
vn 0.492175 0.338879 0.801826
vn 0.492175 0.338879 0.801826
vn -0.135807 0.804883 0.577685
vn -0.135807 0.804883 0.577685
vn -0.135807 0.804883 0.577685
vn -0.135807 0.804883 0.577685
vn -0.861826 0.500898 0.079728
vn -0.861826 0.500898 0.079728
vn -0.861826 0.500898 0.079728
vn -0.861826 0.500898 0.079728
vn 0.078012 -0.879635 0.469208
vn 0.078012 -0.879635 0.469208
vn 0.078012 -0.879635 0.469208
vn 0.141469 -0.851223 0.505378
vn 0.141469 -0.851223 0.505378
vn 0.141469 -0.851223 0.505377
vn -0.023189 -0.832497 0.553544
vn -0.023189 -0.832497 0.553544
vn -0.023189 -0.832497 0.553544
vn 0.484001 -0.753297 0.445293
vn 0.484001 -0.753297 0.445293
vn 0.484001 -0.753297 0.445293
vn 0.484001 -0.753297 0.445293
vn 0.449577 -0.873984 -0.184481
vn 0.449577 -0.873984 -0.184481
vn 0.449577 -0.873984 -0.184481
vn 0.330445 -0.587386 0.738772
vn 0.330445 -0.587386 0.738772
vn 0.330445 -0.587386 0.738772
vn 0.384182 0.261349 0.885495
vn 0.384182 0.261349 0.885495
vn 0.384182 0.261349 0.885495
vn -0.511564 -0.859060 -0.017818
vn -0.511564 -0.859060 -0.017818
vn -0.511564 -0.859060 -0.017818
vn 0.023189 -0.832496 0.553545
vn 0.023189 -0.832497 0.553545
vn 0.023189 -0.832496 0.553545
vn -0.106576 -0.939374 -0.325912
vn -0.106576 -0.939374 -0.325912
vn -0.106576 -0.939374 -0.325912
vn -0.330446 -0.587388 0.738770
vn -0.330446 -0.587388 0.738770
vn -0.330446 -0.587388 0.738770
vn 0.511565 -0.859060 -0.017818
vn 0.511565 -0.859060 -0.017818
vn 0.511565 -0.859060 -0.017818
vn -0.384182 0.261349 0.885495
vn -0.384182 0.261349 0.885495
vn -0.384182 0.261349 0.885495
vn -0.093928 -0.967899 0.233130
vn -0.093928 -0.967899 0.233130
vn -0.093928 -0.967899 0.233130
vn -0.100950 -0.855478 0.507905
vn -0.100950 -0.855478 0.507905
vn -0.100950 -0.855478 0.507905
vn 0.353681 -0.791355 0.498666
vn 0.353681 -0.791355 0.498666
vn 0.353681 -0.791355 0.498666
vn -0.116201 -0.848100 0.516938
vn -0.116201 -0.848100 0.516938
vn -0.116201 -0.848100 0.516938
vn 0.093984 -0.967912 0.233053
vn 0.093984 -0.967912 0.233052
vn 0.093984 -0.967912 0.233052
vn 0.106502 -0.939307 -0.326129
vn 0.106502 -0.939307 -0.326129
vn 0.106502 -0.939307 -0.326129
vn -0.354082 -0.821029 0.447813
vn -0.354082 -0.821030 0.447813
vn -0.354082 -0.821029 0.447813
vn -0.481223 -0.753097 0.448631
vn -0.481223 -0.753097 0.448631
vn -0.481223 -0.753097 0.448631
vn -0.481223 -0.753097 0.448631
vn -0.452615 -0.872322 -0.184917
vn -0.452615 -0.872322 -0.184917
vn -0.452615 -0.872322 -0.184917
vn 0.952817 0.035422 0.301471
vn 0.952817 0.035422 0.301471
vn 0.952817 0.035422 0.301471
vn 0.952817 0.035422 0.301471
vn 0.122814 -0.070917 0.989893
vn 0.122814 -0.070917 0.989893
vn 0.122814 -0.070917 0.989893
vn 0.122814 -0.070917 0.989893
vn -0.971757 -0.044471 -0.231756
vn -0.971757 -0.044471 -0.231756
vn -0.971757 -0.044471 -0.231756
vn -0.971757 -0.044471 -0.231756
vn 0.478991 -0.200157 -0.854695
vn 0.478991 -0.200157 -0.854696
vn 0.478991 -0.200157 -0.854695
vn 0.478991 -0.200157 -0.854695
vn -0.952817 0.035423 0.301471
vn -0.952817 0.035423 0.301471
vn -0.952817 0.035423 0.301471
vn -0.952817 0.035423 0.301471
vn -0.481825 -0.199632 -0.853225
vn -0.481825 -0.199632 -0.853225
vn -0.481825 -0.199632 -0.853225
vn -0.481825 -0.199632 -0.853225
vn 0.968361 -0.046229 -0.245233
vn 0.968361 -0.046229 -0.245233
vn 0.968361 -0.046229 -0.245233
vn 0.968361 -0.046229 -0.245233
vn -0.110721 -0.070123 0.991375
vn -0.110721 -0.070123 0.991375
vn -0.110721 -0.070123 0.991375
vn -0.110721 -0.070123 0.991375
s off
f 14/1/1 15/2/2 1/3/3 16/4/4
f 15/5/5 17/6/6 2/7/7 1/8/8
f 18/9/9 14/10/10 16/11/11 19/12/12
f 18/13/13 20/14/14 14/15/15
f 14/16/16 20/17/17 21/18/18 15/19/19
f 15/20/20 21/21/21 22/22/22 17/23/23
f 5/24/24 6/25/25 1/26/26 7/27/27
f 7/28/28 1/29/29 2/30/30 8/31/31
f 9/32/32 39/33/33 6/34/34 5/35/35
f 9/36/36 5/37/37 11/38/38
f 5/39/39 7/40/40 12/41/41 11/42/42
f 7/43/43 8/44/44 13/45/45 12/46/46
f 65/47/47 66/48/48 2/49/49 17/50/50
f 30/51/51 31/52/52 32/53/53 33/54/54
f 67/55/55 68/56/56 20/57/57 18/58/58
f 68/59/59 69/60/60 20/61/61
f 69/62/62 70/63/63 21/64/64 20/65/65
f 70/66/66 71/67/67 22/68/68 21/69/69
f 71/70/70 65/71/71 17/72/72 22/73/73
f 66/74/74 72/75/75 8/76/76 2/77/77
f 73/78/78 74/79/79 11/80/80
f 43/81/81 44/82/82 45/83/83 46/84/84
f 75/85/85 73/86/86 11/87/87 12/88/88
f 72/89/89 76/90/90 13/91/91 8/92/92
f 76/93/93 75/94/94 12/95/95 13/96/96
f 24/97/97 41/98/98 19/99/99 16/100/100
f 1/101/101 24/102/102 16/103/103
f 4/104/104 1/105/105 6/106/106
f 39/107/107 40/108/108 4/109/109 6/110/110
f 77/111/111 3/112/112 10/113/113
f 3/114/114 77/115/115 23/116/116
f 4/117/117 40/118/118 41/119/119 24/120/120
f 1/121/121 4/122/122 24/123/123
f 51/124/124 52/125/125 53/126/126 54/127/127
f 18/128/128 19/129/129 26/130/130
f 34/131/131 30/132/132 33/133/133
f 19/134/134 23/135/135 26/136/136
f 56/137/137 55/138/138 52/139/139 51/140/140
f 18/141/141 25/142/142 28/143/143 27/144/144
f 57/145/145 58/146/146 54/147/147 53/148/148
f 58/149/149 56/150/150 51/151/151 54/152/152
f 35/153/153 36/154/154 37/155/155 38/156/156
f 10/157/157 9/158/158 29/159/159
f 11/160/160 74/161/161 78/162/162 9/163/163
f 18/164/164 26/165/165 25/166/166
f 77/167/167 79/168/168 31/169/169 30/170/170
f 58/171/171 57/172/172 59/173/173 60/174/174
f 25/175/175 26/176/176 33/177/177 32/178/178
f 23/179/179 77/180/180 30/181/181 34/182/182
f 26/183/183 23/184/184 34/185/185 33/186/186
f 77/187/187 10/188/188 36/189/189 35/190/190
f 10/191/191 29/192/192 37/193/193 36/194/194
f 45/195/195 44/196/196 47/197/197 48/198/198
f 62/199/199 61/200/200 63/201/201 64/202/202
f 9/203/203 10/204/204 39/205/205
f 3/206/206 40/207/207 39/208/208 10/209/209
f 41/210/210 40/211/211 3/212/212 23/213/213
f 19/214/214 41/215/215 23/216/216
f 78/217/217 42/218/218 44/219/219 43/220/220
f 29/221/221 9/222/222 46/223/223 45/224/224
f 9/225/225 78/226/226 43/227/227 46/228/228
f 38/229/229 37/230/230 48/231/231 47/232/232
f 37/233/233 29/234/234 45/235/235 48/236/236
f 42/237/237 77/238/238 49/239/239 44/240/240
f 77/241/241 35/242/242 50/243/243 49/244/244
f 35/245/245 38/246/246 47/247/247 50/248/248
f 27/249/249 28/250/250 53/251/251 52/252/252
f 67/253/253 18/254/254 55/255/255 56/256/256
f 18/257/257 27/258/258 52/259/259 55/260/260
f 28/261/261 25/262/262 57/263/263 53/264/264
f 79/265/265 67/266/266 56/267/267 58/268/268
f 25/269/269 32/270/270 59/271/271 57/272/272
f 32/273/273 31/274/274 60/275/275 59/276/276
f 31/277/277 79/278/278 58/279/279 60/280/280
f 44/281/281 49/282/282 61/283/283 62/284/284
f 49/285/285 50/286/286 63/287/287 61/288/288
f 50/289/289 47/290/290 64/291/291 63/292/292
f 47/293/293 44/294/294 62/295/295 64/296/296
f 42/297/297 83/349/298 80/299/299
f 77/300/300 42/301/301 80/302/302
f 66/303/303 65/304/304 80/305/305
f 86/353/306 85/354/307 87/355/308 88/356/309
f 69/309/310 68/310/311 82/348/312
f 70/312/313 69/313/314 80/314/315
f 71/315/316 70/316/317 80/317/318
f 65/318/319 71/319/320 80/320/321
f 72/321/322 66/322/323 80/323/324
f 84/351/325 73/325/326 80/326/327
f 73/327/328 75/328/329 80/329/330
f 76/330/331 72/331/332 80/332/333
f 75/333/334 76/334/335 80/335/336
f 83/350/337 84/352/338 80/338/339
f 79/339/340 77/340/341 80/341/342
f 67/342/343 79/343/344 81/346/345
f 81/346/346 79/343/347 80/344/348
f 82/347/349 81/345/350 80/308/351
f 69/309/352 82/348/353 80/311/354
f 42/297/355 78/298/356 83/349/357
f 90/357/358 89/358/359 91/359/360 92/360/361
f 74/324/362 73/325/363 84/351/364
f 68/306/365 67/307/366 85/354/367 86/353/368
f 67/307/369 81/345/370 87/355/371 85/354/372
f 81/345/373 82/347/374 88/356/375 87/355/376
f 82/347/377 68/306/378 86/353/379 88/356/380
f 78/336/381 74/337/382 89/358/383 90/357/384
f 74/337/385 84/352/386 91/359/387 89/358/388
f 84/352/389 83/350/390 92/360/391 91/359/392
f 83/350/393 78/336/394 90/357/395 92/360/396
