# This file uses centimeters as units for non-parametric coordinates.

v -0.130612 110.853477 9.816701
v 7.364861 110.905556 7.776794
v 8.422268 108.331192 5.304790
v 9.539719 107.549187 -2.552574
v 9.161469 106.548950 0.881265
v 9.591942 105.796265 -3.602798
v 9.124916 100.475838 -1.776049
v 9.002930 103.796265 1.272184
v 8.318653 103.203369 5.361809
v -0.000000 109.636963 -10.860069
v -1.743727 117.434570 -4.684532
v -0.000000 99.374268 -9.240807
v -1.369821 119.141068 4.678329
v -1.516343 120.863220 11.581185
v 9.621361 115.122070 -3.857582
v 9.914993 108.147583 -9.237923
v 9.387398 102.466797 -8.777855
v 10.658104 114.559814 4.494576
v 9.212695 112.294235 6.476570
v 9.439758 108.366455 4.295826
v 10.308602 107.142952 1.161488
v 10.338753 108.278557 -2.796497
v 10.386208 106.326057 -4.182053
v 9.945328 101.316895 -2.626144
v 9.290315 104.064941 4.420109
v 10.148491 104.610970 1.684813
v -7.364883 110.905556 7.776806
v -8.422307 108.331192 5.304821
v -9.539719 107.549187 -2.552574
v -9.161469 106.548950 0.881265
v -9.591942 105.796265 -3.602798
v -9.124916 100.475838 -1.776049
v -9.002930 103.796265 1.272184
v -8.221158 103.203369 5.361809
v -9.621361 114.864388 -3.857582
v -9.914993 108.147583 -9.237923
v -9.387398 102.466797 -8.777855
v -11.029183 112.277054 3.572540
v -9.071081 112.816032 7.074020
v -9.368352 108.366455 4.295826
v -10.228588 107.267906 1.161488
v -10.338753 108.278557 -2.796497
v -10.386208 106.326057 -4.182053
v -9.945328 101.316895 -2.626144
v -9.259730 104.064941 4.420109
v -10.148491 104.610970 1.684813
v -3.016216 118.524086 3.787620
v -2.779993 116.182495 -4.335033
v -4.190403 109.007576 -10.174485
v -5.364189 101.849602 -9.411301
v -0.000000 96.374512 -6.389816
v -0.000000 96.811890 -7.965576
v 9.039330 100.414314 -6.095222
v 8.768150 99.719360 -3.822521
v -3.967426 99.044922 -7.656639
v -3.848480 98.617188 -6.014915
v -8.768150 99.719360 -3.822521
v -9.039330 100.414314 -6.095222
v 7.559571 99.026001 -6.703667
v 6.691353 98.458252 -5.199615
v -7.873947 99.508301 -6.903634
v -7.088860 98.960693 -5.613556
v -5.034439 116.567993 -4.096310
v -6.833794 119.687447 4.450626
v 6.518852 118.117714 4.553665
v 6.404938 116.914917 -4.252544
v 5.050915 109.678589 -10.373443
v 2.068727 111.631599 9.227577
v 2.612982 115.595825 9.972488
v -3.505178 117.546394 9.799446
v -2.357946 112.022781 8.762616
v -4.978418 111.557259 7.856974
v -9.044621 120.172859 7.918648
v 4.684204 111.677765 7.778795
v 5.754387 114.566818 8.013924
v -1.516343 125.541077 10.614502
v -9.044621 122.405243 6.951973
v -11.029183 112.277054 3.572540
v -4.480316 121.454666 6.953812
v 2.641722 118.921127 9.791290
v 5.679504 116.846207 7.018921
v 10.658104 114.559814 4.494576
v 9.643631 112.517357 8.928535
v -12.912369 121.435143 8.387100
v -5.021095 127.207382 11.607422
v 3.256931 120.886078 12.225014
v 13.716216 118.882813 3.282436
v -12.403937 116.289345 1.274253
v 0.036521 121.515800 6.235229
v 0.397172 119.197510 1.751396
v 2.043966 117.113045 -5.207466
v 14.071061 115.692261 0.219160
v -12.238863 110.703995 1.732714
v -3.252021 121.264076 0.963274
v 6.941025 120.989990 -1.751745
v 1.229938 117.083252 -10.658379
v -6.578186 114.559570 -9.591553
v -3.455441 104.084602 -11.980072
v 6.354752 103.807617 -11.868393
v -0.132884 106.456909 1.689746
v -15.453380 113.779129 1.545637
vt 0.050356 0.198441
vt 0.050356 0.198441
vt 0.050356 0.198441
vt 0.050356 0.198441
vt 0.050356 0.198441
vt 0.050356 0.198441
vt 0.050356 0.198441
vt 0.050356 0.198441
vt 0.050356 0.198441
vt 0.050356 0.198441
vt 0.050356 0.198441
vt 0.050356 0.198441
vt 0.050356 0.198441
vt 0.050356 0.198441
vt 0.050356 0.198441
vt 0.050356 0.198441
vt 0.050356 0.198441
vt 0.050356 0.198441
vt 0.050356 0.198441
vt 0.050356 0.198441
vt 0.050356 0.198441
vt 0.050356 0.198441
vt 0.050356 0.198441
vt 0.050356 0.198441
vt 0.050356 0.198441
vt 0.050356 0.198441
vt 0.050356 0.198441
vt 0.050356 0.198441
vt 0.050356 0.198441
vt 0.050356 0.198441
vt 0.050356 0.198441
vt 0.050356 0.198441
vt 0.050356 0.198441
vt 0.050356 0.198441
vt 0.050356 0.198441
vt 0.050356 0.198441
vt 0.050356 0.198441
vt 0.050356 0.198441
vt 0.050356 0.198441
vt 0.050356 0.198441
vt 0.050356 0.198441
vt 0.050356 0.198441
vt 0.050356 0.198441
vt 0.050356 0.198441
vt 0.050356 0.198441
vt 0.050356 0.198441
vt 0.050356 0.198441
vt 0.050356 0.198441
vt 0.050356 0.198441
vt 0.050356 0.198441
vt 0.050356 0.198441
vt 0.050356 0.198441
vt 0.050356 0.198441
vt 0.050356 0.198441
vt 0.050356 0.198441
vt 0.050356 0.198441
vt 0.050356 0.198441
vt 0.050356 0.198441
vt 0.050356 0.198441
vt 0.050356 0.198441
vt 0.050356 0.198441
vt 0.050356 0.198441
vt 0.050356 0.198441
vt 0.050356 0.198441
vt 0.050356 0.198441
vt 0.050356 0.198441
vt 0.050356 0.198441
vt 0.050356 0.198441
vt 0.050356 0.198441
vt 0.050356 0.198441
vt 0.050356 0.198441
vt 0.050356 0.198441
vt 0.050356 0.198441
vt 0.050356 0.198441
vt 0.050356 0.198441
vt 0.050356 0.198441
vt 0.050356 0.198441
vt 0.050356 0.198441
vt 0.050356 0.198441
vt 0.050356 0.198441
vt 0.050356 0.198441
vt 0.050356 0.198441
vt 0.050356 0.198441
vt 0.050356 0.198441
vt 0.050356 0.198441
vt 0.050356 0.198441
vt 0.050356 0.198441
vt 0.050356 0.198441
vt 0.050356 0.198441
vt 0.050356 0.198441
vt 0.050356 0.198441
vt 0.050356 0.198441
vt 0.050356 0.198441
vt 0.050356 0.198441
vt 0.050356 0.198441
vt 0.050356 0.198441
vt 0.050356 0.198441
vt 0.050356 0.198441
vt 0.050356 0.198441
vt 0.050356 0.198441
vt 0.050356 0.198441
vt 0.050356 0.198441
vt 0.050356 0.198441
vt 0.050356 0.198441
vt 0.050356 0.198441
vt 0.050356 0.198441
vt 0.050356 0.198441
vt 0.050356 0.198441
vt 0.050356 0.198441
vt 0.050356 0.198441
vt 0.050356 0.198441
vt 0.050356 0.198441
vt 0.050356 0.198441
vt 0.050356 0.198441
vt 0.050356 0.198441
vt 0.050356 0.198441
vt 0.050356 0.198441
vt 0.050356 0.198441
vt 0.050356 0.198441
vt 0.050356 0.198441
vt 0.050356 0.198441
vt 0.050356 0.198441
vt 0.050356 0.198441
vt 0.050356 0.198441
vt 0.050356 0.198441
vt 0.050356 0.198441
vt 0.050356 0.198441
vt 0.050356 0.198441
vt 0.050356 0.198441
vt 0.050356 0.198441
vt 0.050356 0.198441
vt 0.050356 0.198441
vt 0.050356 0.198441
vt 0.050356 0.198441
vt 0.050356 0.198441
vt 0.050356 0.198441
vt 0.050356 0.198441
vt 0.050356 0.198441
vt 0.050356 0.198441
vt 0.050356 0.198441
vt 0.050356 0.198441
vt 0.050356 0.198441
vt 0.050356 0.198441
vt 0.050356 0.198441
vt 0.050356 0.198441
vt 0.050356 0.198441
vt 0.050356 0.198441
vt 0.050356 0.198441
vt 0.050356 0.198441
vt 0.050356 0.198441
vt 0.050356 0.198441
vt 0.050356 0.198441
vt 0.050356 0.198441
vt 0.050356 0.198441
vt 0.050356 0.198441
vt 0.050356 0.198441
vt 0.050356 0.198441
vt 0.050356 0.198441
vt 0.050356 0.198441
vt 0.050356 0.198441
vt 0.050356 0.198441
vt 0.050356 0.198441
vt 0.050356 0.198441
vt 0.050356 0.198441
vt 0.050356 0.198441
vt 0.050356 0.198441
vt 0.050356 0.198441
vt 0.050356 0.198441
vt 0.050356 0.198441
vt 0.050356 0.198441
vt 0.050356 0.198441
vt 0.050356 0.198441
vt 0.050356 0.198441
vt 0.050356 0.198441
vt 0.050356 0.198441
vt 0.050356 0.198441
vt 0.050356 0.198441
vt 0.050356 0.198441
vt 0.050356 0.198441
vt 0.050356 0.198441
vt 0.050356 0.198441
vt 0.050356 0.198441
vt 0.050356 0.198441
vt 0.050356 0.198441
vt 0.050356 0.198441
vt 0.050356 0.198441
vt 0.050356 0.198441
vt 0.050356 0.198441
vt 0.050356 0.198441
vt 0.050356 0.198441
vt 0.050356 0.198441
vt 0.050356 0.198441
vt 0.050356 0.198441
vt 0.050356 0.198441
vt 0.050356 0.198441
vt 0.050356 0.198441
vn 0.096009 -0.155134 -0.983217
vn 0.096009 -0.155134 -0.983217
vn 0.096009 -0.155134 -0.983217
vn 0.969004 0.013919 0.246653
vn 0.969004 0.013919 0.246653
vn 0.969004 0.013919 0.246653
vn 0.994373 -0.006772 0.105723
vn 0.994373 -0.006772 0.105723
vn 0.994373 -0.006772 0.105723
vn 0.992066 0.099216 -0.077205
vn 0.992066 0.099216 -0.077205
vn 0.992066 0.099216 -0.077205
vn 0.992066 0.099216 -0.077205
vn 0.986415 -0.110507 -0.121546
vn 0.986415 -0.110507 -0.121546
vn 0.986415 -0.110507 -0.121546
vn 0.986415 -0.110507 -0.121546
vn 0.991647 -0.039017 0.122941
vn 0.991647 -0.039017 0.122941
vn 0.991647 -0.039017 0.122941
vn 0.991647 -0.039017 0.122941
vn 0.315511 -0.924732 -0.212893
vn 0.315511 -0.924732 -0.212893
vn 0.315511 -0.924732 -0.212893
vn 0.315511 -0.924732 -0.212893
vn 0.604666 -0.178135 0.776303
vn 0.604666 -0.178135 0.776303
vn 0.604666 -0.178135 0.776303
vn 0.604666 -0.178135 0.776303
vn 0.636376 -0.759647 -0.134023
vn 0.636376 -0.759647 -0.134023
vn 0.636376 -0.759647 -0.134023
vn 0.636376 -0.759647 -0.134023
vn 0.672574 -0.471098 0.570711
vn 0.672574 -0.471098 0.570711
vn 0.672574 -0.471098 0.570711
vn 0.672574 -0.471098 0.570711
vn 0.850106 -0.525521 0.033874
vn 0.850106 -0.525521 0.033874
vn 0.850106 -0.525521 0.033874
vn 0.850106 -0.525521 0.033874
vn 0.536018 0.213080 0.816873
vn 0.536018 0.213080 0.816873
vn 0.536018 0.213080 0.816873
vn 0.536018 0.213080 0.816873
vn 0.711999 -0.701983 -0.016627
vn 0.711999 -0.701983 -0.016627
vn 0.711999 -0.701983 -0.016627
vn 0.711999 -0.701983 -0.016627
vn 0.664037 0.038159 0.746725
vn 0.664037 0.038159 0.746725
vn 0.664037 0.038159 0.746725
vn 0.664037 0.038159 0.746725
vn 0.545084 -0.156481 -0.823649
vn 0.545084 -0.156481 -0.823649
vn 0.545084 -0.156481 -0.823649
vn 0.545084 -0.156481 -0.823649
vn 0.025049 0.628064 -0.777758
vn 0.025049 0.628064 -0.777758
vn 0.025049 0.628064 -0.777758
vn -0.156342 -0.085882 -0.983962
vn -0.156342 -0.085882 -0.983962
vn -0.156342 -0.085882 -0.983962
vn -0.156342 -0.085882 -0.983962
vn -0.008065 0.997499 -0.070216
vn -0.008065 0.997499 -0.070216
vn -0.008065 0.997499 -0.070216
vn -0.008065 0.997499 -0.070216
vn -0.143306 0.989614 -0.011260
vn -0.143306 0.989614 -0.011260
vn -0.143306 0.989614 -0.011260
vn -0.991912 0.017300 0.125740
vn -0.991912 0.017300 0.125740
vn -0.991912 0.017300 0.125740
vn -0.994628 0.009986 0.103033
vn -0.994628 0.009986 0.103033
vn -0.994628 0.009986 0.103033
vn -0.991714 0.102408 -0.077566
vn -0.991714 0.102408 -0.077566
vn -0.991714 0.102408 -0.077566
vn -0.991714 0.102409 -0.077566
vn -0.986415 -0.110507 -0.121546
vn -0.986415 -0.110507 -0.121546
vn -0.986415 -0.110507 -0.121546
vn -0.986415 -0.110507 -0.121546
vn -0.991647 -0.039017 0.122942
vn -0.991647 -0.039017 0.122942
vn -0.991647 -0.039017 0.122942
vn -0.991647 -0.039017 0.122942
vn -0.575939 -0.809825 -0.111706
vn -0.575939 -0.809825 -0.111706
vn -0.575939 -0.809825 -0.111706
vn -0.575939 -0.809825 -0.111706
vn -0.372392 -0.323724 0.869786
vn -0.372392 -0.323724 0.869786
vn -0.372392 -0.323724 0.869786
vn -0.372392 -0.323724 0.869786
vn -0.636376 -0.759647 -0.134024
vn -0.636376 -0.759647 -0.134024
vn -0.636376 -0.759646 -0.134024
vn -0.636376 -0.759647 -0.134024
vn -0.672574 -0.471098 0.570711
vn -0.672574 -0.471098 0.570711
vn -0.672574 -0.471098 0.570711
vn -0.672574 -0.471098 0.570711
vn -0.850106 -0.525521 0.033873
vn -0.850106 -0.525521 0.033873
vn -0.850106 -0.525521 0.033873
vn -0.850106 -0.525521 0.033873
vn -0.536018 0.213080 0.816873
vn -0.536018 0.213080 0.816873
vn -0.536018 0.213080 0.816873
vn -0.536018 0.213080 0.816873
vn -0.711999 -0.701983 -0.016627
vn -0.711999 -0.701984 -0.016627
vn -0.711999 -0.701983 -0.016627
vn -0.711999 -0.701983 -0.016627
vn -0.664039 0.038159 0.746724
vn -0.664038 0.038159 0.746724
vn -0.664039 0.038159 0.746724
vn -0.664038 0.038159 0.746724
vn -0.545084 -0.156481 -0.823649
vn -0.545084 -0.156481 -0.823649
vn -0.545084 -0.156481 -0.823649
vn -0.545084 -0.156481 -0.823649
vn -0.499872 -0.205554 0.841354
vn -0.499872 -0.205554 0.841354
vn -0.499872 -0.205554 0.841354
vn -0.499872 -0.205554 0.841354
vn -0.069695 0.995581 -0.062944
vn -0.069695 0.995581 -0.062944
vn -0.069695 0.995581 -0.062944
vn -0.069695 0.995581 -0.062944
vn -0.549649 0.834401 -0.040745
vn -0.549649 0.834401 -0.040745
vn -0.549649 0.834401 -0.040745
vn -0.549649 0.834401 -0.040745
vn -0.354163 0.580493 -0.733210
vn -0.354163 0.580493 -0.733210
vn -0.354163 0.580493 -0.733210
vn -0.354163 0.580493 -0.733210
vn -0.499725 -0.840929 -0.207639
vn -0.499725 -0.840929 -0.207639
vn -0.499725 -0.840929 -0.207639
vn -0.499725 -0.840929 -0.207639
vn 0.562498 0.544435 0.622243
vn 0.562498 0.544434 0.622243
vn 0.562498 0.544434 0.622243
vn 0.562498 0.544435 0.622243
vn 0.248126 -0.528518 -0.811851
vn 0.248126 -0.528518 -0.811851
vn 0.248125 -0.528518 -0.811851
vn 0.248126 -0.528518 -0.811851
vn 0.930228 -0.339589 -0.139123
vn 0.930228 -0.339589 -0.139123
vn 0.930228 -0.339589 -0.139123
vn 0.122664 -0.748614 0.651560
vn 0.122664 -0.748614 0.651560
vn 0.122664 -0.748614 0.651560
vn 0.122664 -0.748614 0.651560
vn -0.715714 -0.596383 -0.363429
vn -0.715714 -0.596383 -0.363429
vn -0.715714 -0.596383 -0.363429
vn 0.230937 -0.776085 0.586822
vn 0.230936 -0.776085 0.586822
vn 0.230936 -0.776085 0.586822
vn -0.930228 -0.339589 -0.139124
vn -0.930228 -0.339589 -0.139124
vn -0.930228 -0.339589 -0.139124
vn -0.278477 -0.602835 0.747691
vn -0.278476 -0.602835 0.747691
vn -0.278476 -0.602835 0.747691
vn -0.277351 -0.526055 -0.803955
vn -0.277351 -0.526055 -0.803955
vn -0.277351 -0.526055 -0.803955
vn -0.277351 -0.526055 -0.803955
vn 0.712340 -0.598949 -0.365830
vn 0.712340 -0.598949 -0.365830
vn 0.712340 -0.598949 -0.365830
vn 0.621748 -0.779792 -0.073169
vn 0.621748 -0.779792 -0.073169
vn 0.621748 -0.779792 -0.073169
vn 0.621748 -0.779792 -0.073169
vn -0.216424 -0.596140 -0.773161
vn -0.216424 -0.596140 -0.773161
vn -0.216424 -0.596140 -0.773161
vn -0.216424 -0.596140 -0.773161
vn -0.150947 -0.950999 -0.269843
vn -0.150947 -0.950999 -0.269843
vn -0.150947 -0.950999 -0.269843
vn -0.150947 -0.950999 -0.269843
vn 0.000000 0.000000 0.000000
vn 0.000000 0.000000 0.000000
vn 0.000000 0.000000 0.000000
vn 0.458322 -0.210221 0.863567
vn 0.458322 -0.210221 0.863567
vn 0.458322 -0.210221 0.863567
vn 0.458322 -0.210221 0.863567
vn 0.361128 0.575288 -0.733915
vn 0.361128 0.575288 -0.733915
vn 0.361128 0.575288 -0.733915
vn 0.361128 0.575288 -0.733915
vn 0.617732 -0.187206 0.763780
vn 0.617732 -0.187206 0.763780
vn 0.617732 -0.187206 0.763780
vn 0.617733 -0.187206 0.763780
vn -0.617552 -0.166973 0.768602
vn -0.617552 -0.166973 0.768602
vn -0.617552 -0.166973 0.768602
vn -0.617552 -0.166973 0.768602
vn -0.338729 0.924235 -0.176220
vn -0.338729 0.924234 -0.176220
vn -0.338729 0.924234 -0.176220
vn 0.000000 0.000000 0.000000
vn 0.000000 0.000000 0.000000
vn 0.620007 0.568433 0.540809
vn 0.620007 0.568434 0.540809
vn 0.555428 0.239018 0.796474
vn 0.555428 0.239018 0.796474
vn 0.555428 0.239018 0.796474
vn 0.555428 0.239018 0.796474
vn 0.000000 0.000000 0.000000
vn 0.000000 0.000000 0.000000
vn 0.000000 0.000000 0.000000
vn -0.305790 0.517919 0.798907
vn -0.305790 0.517919 0.798907
vn -0.305790 0.517919 0.798907
vn -0.305790 0.517919 0.798907
vn 0.000000 0.000000 0.000000
vn 0.000000 0.000000 0.000000
vn 0.000000 0.000000 0.000000
vn -0.565803 0.824520 -0.005795
vn -0.565803 0.824520 -0.005795
vn -0.565803 0.824520 -0.005795
vn 0.771266 -0.420387 0.477937
vn 0.771266 -0.420387 0.477937
vn 0.771266 -0.420387 0.477937
vn -0.270481 0.118039 0.955462
vn -0.270481 0.118039 0.955462
vn -0.270481 0.118039 0.955462
vn 0.111305 -0.441030 0.890564
vn 0.111305 -0.441030 0.890564
vn 0.111305 -0.441030 0.890564
vn 0.977939 -0.080467 0.192773
vn 0.977939 -0.080467 0.192773
vn 0.977939 -0.080467 0.192773
vn 0.409528 0.904289 -0.120617
vn 0.409528 0.904289 -0.120617
vn 0.409528 0.904289 -0.120617
vn -0.303026 0.443352 0.843572
vn -0.303026 0.443352 0.843572
vn -0.303026 0.443352 0.843572
vn -0.128875 -0.266150 0.955278
vn -0.128875 -0.266150 0.955278
vn -0.128875 -0.266150 0.955278
vn 0.119060 -0.002600 0.992884
vn 0.119060 -0.002600 0.992884
vn 0.119060 -0.002600 0.992884
vn -0.306990 -0.293550 0.905310
vn -0.306990 -0.293550 0.905310
vn -0.306990 -0.293550 0.905310
vn 0.294884 0.413734 0.861317
vn 0.294884 0.413734 0.861317
vn 0.294884 0.413734 0.861317
vn -0.225401 0.853331 -0.470129
vn -0.225401 0.853331 -0.470129
vn -0.225401 0.853331 -0.470129
vn -0.993400 -0.021148 0.112731
vn -0.993400 -0.021148 0.112731
vn -0.993400 -0.021148 0.112731
vn -0.568821 -0.383376 0.727644
vn -0.568821 -0.383376 0.727644
vn -0.568821 -0.383376 0.727644
vn 0.336660 0.220173 0.915524
vn 0.336660 0.220173 0.915524
vn 0.336660 0.220173 0.915524
vn 0.260415 0.935278 -0.239663
vn 0.260415 0.935278 -0.239663
vn 0.260415 0.935278 -0.239663
vn -0.982373 -0.179226 -0.053123
vn -0.982373 -0.179226 -0.053123
vn -0.982373 -0.179226 -0.053123
vn 0.561963 -0.254565 0.787016
vn 0.561963 -0.254565 0.787016
vn 0.561963 -0.254565 0.787016
vn 0.864444 0.233880 0.445013
vn 0.864444 0.233880 0.445013
vn 0.864444 0.233880 0.445013
vn -0.239773 0.850299 -0.468510
vn -0.239773 0.850299 -0.468510
vn -0.239773 0.850299 -0.468510
vn -0.938769 0.127681 0.320016
vn -0.938769 0.127681 0.320016
vn -0.938769 0.127681 0.320016
vn 0.999744 -0.018717 -0.012710
vn 0.999744 -0.018717 -0.012710
vn 0.999744 -0.018717 -0.012710
vn 0.452411 0.867080 -0.208560
vn 0.452411 0.867080 -0.208560
vn 0.452411 0.867080 -0.208560
vn 0.231968 0.966757 -0.107571
vn 0.231968 0.966757 -0.107571
vn 0.231968 0.966757 -0.107571
vn 0.403910 0.368066 0.837487
vn 0.403910 0.368066 0.837487
vn 0.403910 0.368066 0.837487
vn -0.497519 0.518694 0.695293
vn -0.497518 0.518694 0.695293
vn -0.497519 0.518694 0.695293
vn 0.406908 0.913446 -0.006547
vn 0.406908 0.913446 -0.006547
vn 0.406908 0.913446 -0.006547
vn -0.344210 0.881452 -0.323361
vn -0.344209 0.881452 -0.323361
vn -0.344210 0.881452 -0.323361
vn -0.880894 0.469853 0.057138
vn -0.880894 0.469853 0.057138
vn -0.669223 -0.698914 -0.252307
vn 0.359087 0.858182 0.366852
vn 0.359087 0.858182 0.366852
vn 0.359087 0.858182 0.366852
vn -0.596432 0.692577 -0.405717
vn -0.596432 0.692577 -0.405717
vn -0.596432 0.692577 -0.405717
vn -0.886557 0.428529 0.174299
vn -0.886557 0.428529 0.174299
vn -0.886557 0.428529 0.174299
vn 0.212222 0.941838 -0.260583
vn 0.212222 0.941838 -0.260583
vn 0.212222 0.941838 -0.260583
vn 0.845886 -0.186077 0.499852
vn 0.845886 -0.186077 0.499852
vn 0.845886 -0.186077 0.499852
vn 0.939964 -0.341212 -0.006552
vn 0.939964 -0.341212 -0.006552
vn 0.939964 -0.341212 -0.006552
vn 0.840904 0.004682 -0.541164
vn 0.840904 0.004682 -0.541164
vn 0.840904 0.004682 -0.541164
vn 0.177595 0.976425 0.122697
vn 0.177595 0.976425 0.122697
vn 0.177595 0.976425 0.122697
vn -0.466982 0.876062 0.120181
vn -0.466983 0.876062 0.120181
vn -0.466983 0.876062 0.120181
vn -0.952474 0.061730 -0.298301
vn -0.952474 0.061730 -0.298301
vn -0.952474 0.061730 -0.298301
vn -0.961017 -0.276253 0.011486
vn -0.961017 -0.276252 0.011486
vn -0.961017 -0.276252 0.011486
vn -0.668429 -0.191603 0.718673
vn -0.668429 -0.191603 0.718673
vn -0.668429 -0.191603 0.718673
vn 0.473555 0.877415 -0.076738
vn 0.473555 0.877415 -0.076738
vn 0.473555 0.877415 -0.076738
vn 0.039747 0.953659 -0.298252
vn 0.039747 0.953659 -0.298252
vn 0.039747 0.953659 -0.298252
vn -0.968587 0.243876 0.048619
vn -0.968587 0.243876 0.048619
vn -0.968587 0.243876 0.048619
vn 0.332745 0.829916 0.447795
vn 0.332745 0.829916 0.447795
vn 0.332745 0.829916 0.447795
vn 0.953419 0.299292 -0.037633
vn 0.953419 0.299292 -0.037633
vn 0.953419 0.299292 -0.037633
vn 0.210508 0.683230 -0.699202
vn 0.210508 0.683230 -0.699202
vn 0.210508 0.683230 -0.699202
vn -0.409465 0.895156 -0.176164
vn -0.409465 0.895156 -0.176164
vn -0.409465 0.895156 -0.176164
vn -0.045330 0.967523 0.248685
vn -0.045330 0.967523 0.248685
vn -0.045330 0.967523 0.248685
vn -0.880316 0.157528 -0.447470
vn -0.880316 0.157528 -0.447470
vn -0.880316 0.157528 -0.447470
vn 0.082109 0.996466 -0.017726
vn 0.082109 0.996466 -0.017726
vn 0.082109 0.996466 -0.017726
vn 0.740443 0.360251 -0.567418
vn 0.740443 0.360251 -0.567418
vn 0.740443 0.360251 -0.567418
vn 0.095807 0.011137 -0.995338
vn 0.095807 0.011137 -0.995338
vn 0.095807 0.011137 -0.995338
vn 0.085530 0.996169 -0.018237
vn 0.085530 0.996169 -0.018237
vn 0.085530 0.996169 -0.018237
vn -0.349200 0.907472 -0.233569
vn -0.349200 0.907472 -0.233569
vn -0.349200 0.907472 -0.233569
vn 0.834506 0.398814 -0.380195
vn 0.834505 0.398814 -0.380195
vn 0.834506 0.398814 -0.380195
vn -0.166065 0.032066 -0.985593
vn -0.166065 0.032066 -0.985593
vn -0.166065 0.032066 -0.985593
vn -0.803274 0.393362 -0.447233
vn -0.803274 0.393362 -0.447233
vn -0.803274 0.393362 -0.447233
vn -0.793264 0.065538 -0.605341
vn -0.793264 0.065538 -0.605341
vn -0.793264 0.065538 -0.605341
vn -0.187959 0.205128 -0.960518
vn -0.187959 0.205128 -0.960518
vn -0.187959 0.205128 -0.960518
vn 0.573197 -0.127709 -0.809405
vn 0.573197 -0.127709 -0.809405
vn 0.573197 -0.127709 -0.809405
vn -0.415011 -0.905483 -0.088693
vn -0.415011 -0.905483 -0.088693
vn -0.415011 -0.905483 -0.088693
vn 0.681539 -0.121736 -0.721585
vn 0.681539 -0.121736 -0.721585
vn 0.681539 -0.121736 -0.721585
vn 0.277194 -0.751875 -0.598204
vn 0.277194 -0.751875 -0.598204
vn 0.277194 -0.751875 -0.598204
vn -0.452071 0.124509 -0.883249
vn -0.452071 0.124509 -0.883249
vn -0.452071 0.124509 -0.883249
vn 0.304967 0.298051 -0.904523
vn 0.304967 0.298051 -0.904523
vn 0.304967 0.298051 -0.904523
vn 0.020675 -0.642284 0.766188
vn 0.020675 -0.642284 0.766188
vn 0.020675 -0.642284 0.766188
vn 0.020675 -0.642284 0.766188
vn -0.293034 -0.425672 0.856116
vn -0.293034 -0.425672 0.856116
vn -0.293034 -0.425672 0.856116
vn 0.069817 -0.968878 -0.237488
vn 0.069817 -0.968878 -0.237488
vn 0.069817 -0.968878 -0.237488
vn 0.414414 -0.564756 0.713661
vn 0.414414 -0.564756 0.713661
vn 0.414414 -0.564756 0.713661
vn -0.225384 -0.777783 0.586733
vn -0.225384 -0.777783 0.586733
vn -0.225384 -0.777783 0.586733
vn 0.498684 0.234679 0.834410
vn 0.498684 0.234679 0.834410
vn 0.498684 0.234679 0.834410
vn -0.273828 -0.950057 -0.149698
vn -0.273828 -0.950057 -0.149698
vn -0.273828 -0.950057 -0.149698
vn -0.433694 0.163502 0.886102
vn -0.433694 0.163502 0.886102
vn -0.433694 0.163502 0.886102
vn -0.018808 -0.129103 -0.991453
vn -0.018808 -0.129103 -0.991453
vn -0.018808 -0.129103 -0.991453
vn 0.300676 -0.425897 0.853350
vn 0.300676 -0.425897 0.853350
vn 0.300676 -0.425897 0.853350
vn -0.071871 -0.968782 -0.237270
vn -0.071871 -0.968782 -0.237270
vn -0.071871 -0.968782 -0.237270
vn -0.424069 -0.561793 0.710320
vn -0.424069 -0.561793 0.710320
vn -0.424069 -0.561793 0.710320
vn -0.509226 0.231920 0.828795
vn -0.509226 0.231920 0.828795
vn -0.509226 0.231920 0.828795
vn 0.281340 -0.947780 -0.150201
vn 0.281340 -0.947780 -0.150201
vn 0.281340 -0.947780 -0.150201
vn 0.444467 0.163285 0.880788
vn 0.444467 0.163285 0.880788
vn 0.444467 0.163285 0.880788
vn 0.019363 -0.129077 -0.991446
vn 0.019363 -0.129077 -0.991446
vn 0.019363 -0.129077 -0.991446
vn -0.037560 -0.741509 0.669891
vn -0.037560 -0.741509 0.669891
vn -0.037560 -0.741509 0.669891
vn 0.466881 -0.808699 0.357810
vn 0.466881 -0.808699 0.357810
vn 0.466881 -0.808699 0.357810
vn 0.047237 -0.749005 0.660879
vn 0.047237 -0.749005 0.660879
vn 0.047237 -0.749005 0.660879
vn -0.526924 -0.771635 0.356273
vn -0.526924 -0.771635 0.356273
vn -0.526924 -0.771635 0.356273
vn -0.516792 -0.775954 0.361692
vn -0.516792 -0.775954 0.361692
vn -0.516792 -0.775954 0.361692
vn 0.511600 -0.792286 0.332489
vn 0.511600 -0.792286 0.332489
vn 0.511600 -0.792286 0.332489
vn -0.880894 0.469853 0.057138
vn -0.669223 -0.698914 -0.252307
vn -0.880894 0.469853 0.057138
vn -0.880894 0.469853 0.057138
vn -0.669223 -0.698914 -0.252307
vn -0.880894 0.469853 0.057138
s off
f 67/83/1 12/18/2 10/3/3
f 19/20/4 20/22/5 18/5/6
f 21/10/7 18/5/8 20/22/9
f 15/1/10 22/23/11 23/25/12 16/4/13
f 16/4/14 23/25/15 24/26/16 17/19/17
f 26/27/18 21/30/19 20/29/20 25/28/21
f 51/68/22 52/65/23 59/75/24 60/76/25
f 3/9/26 20/22/27 19/20/28 2/7/29
f 4/11/30 22/23/31 21/24/32 5/84/33
f 6/12/34 23/25/35 22/23/36 4/11/37
f 54/67/38 53/66/39 24/26/40 7/13/41
f 7/13/42 24/26/43 23/25/44 6/12/45
f 8/14/46 26/27/47 25/28/48 9/15/49
f 9/15/50 25/28/51 20/29/52 3/16/53
f 5/17/54 21/30/55 26/27/56 8/14/57
f 49/63/58 63/79/59 48/62/60
f 36/34/61 49/63/62 50/64/63 37/36/64
f 63/79/65 64/80/66 47/61/67 48/62/68
f 77/95/69 47/61/70 64/80/71
f 39/39/72 38/37/73 40/41/74
f 41/42/75 40/41/76 38/37/77
f 35/31/78 36/34/79 43/45/80 42/43/81
f 36/34/82 37/36/83 44/46/84 43/45/85
f 46/47/86 45/48/87 40/49/88 41/50/89
f 61/77/90 62/78/91 57/70/92 58/71/93
f 28/53/94 27/51/95 39/39/96 40/41/97
f 29/54/98 30/85/99 41/44/100 42/43/101
f 31/55/102 29/54/103 42/43/104 43/45/105
f 57/70/106 32/56/107 44/46/108 58/71/109
f 32/56/110 31/55/111 43/45/112 44/46/113
f 33/57/114 34/58/115 45/48/116 46/47/117
f 34/58/118 28/59/119 40/49/120 45/48/121
f 30/60/122 33/57/123 46/47/124 41/50/125
f 70/88/126 71/89/127 1/52/128 14/40/129
f 47/61/130 79/96/131 76/97/132 13/38/133
f 48/62/134 47/61/135 13/38/136 11/32/137
f 49/63/138 48/62/139 11/32/140 10/33/141
f 51/73/142 56/69/143 55/72/144 52/74/145
f 65/81/146 76/99/147 80/102/148 81/100/149
f 12/18/150 17/19/151 59/75/152 52/65/153
f 17/19/154 24/26/155 53/66/156
f 57/70/157 62/78/158 56/69/159 100/180/160
f 37/36/161 61/77/162 58/71/163
f 32/56/164 57/70/165 100/164/166
f 44/46/167 37/36/168 58/71/169
f 56/69/170 51/73/171 100/154/172
f 50/64/173 12/35/174 52/74/175 55/72/176
f 59/75/177 17/19/178 53/66/179
f 60/76/180 59/75/181 53/66/182 54/67/183
f 37/36/184 50/64/185 55/72/186 61/77/187
f 55/72/188 56/69/189 62/78/190 61/77/191
f 78/94/192 64/80/193 38/37/194
f 68/86/195 69/87/196 14/103/197 1/8/198
f 15/1/199 16/4/200 67/83/201 66/82/202
f 74/92/203 75/93/204 69/87/205 68/86/206
f 73/91/207 72/90/208 71/89/209 70/88/210
f 79/96/211 47/61/212 77/95/213
f 82/101/214 18/5/215 65/81/216 81/100/217
f 14/104/218 69/87/219 80/98/220 76/99/221
f 38/37/222 39/39/223 78/94/224
f 73/105/225 70/106/226 79/107/227 77/108/228
f 19/20/229 18/5/230 82/101/231
f 77/95/232 64/80/233 78/94/234
f 2/7/235 19/20/236 83/113/237
f 75/93/238 74/92/239 83/113/240
f 74/92/241 2/7/242 83/113/243
f 19/20/244 82/101/245 83/113/246
f 82/101/247 81/100/248 83/113/249
f 81/100/250 75/93/251 83/113/252
f 27/51/253 72/90/254 84/114/255
f 72/90/256 73/91/257 84/114/258
f 39/39/259 27/51/260 84/114/261
f 73/91/262 77/95/263 84/114/264
f 77/95/265 78/94/266 84/114/267
f 78/94/268 39/39/269 84/114/270
f 70/88/271 14/40/272 85/115/273
f 14/40/274 76/97/275 85/115/276
f 76/97/277 79/96/278 85/115/279
f 79/96/280 70/88/281 85/115/282
f 69/109/283 75/110/284 86/116/285
f 75/110/286 81/111/287 86/116/288
f 81/111/289 80/112/290 86/116/291
f 80/112/292 69/109/293 86/116/294
f 18/5/295 15/1/296 87/117/297
f 15/1/298 66/82/299 87/117/300
f 66/82/301 65/81/302 87/117/303
f 65/81/304 18/5/305 87/117/306
f 38/37/307 64/80/308 88/118/309
f 64/80/310 63/79/311 88/118/312
f 63/79/313 35/31/314 88/118/315
f 35/31/316 38/37/317 101/196/318
f 76/21/319 65/81/320 89/119/321
f 89/119/322 90/120/323 13/6/324
f 13/6/325 76/21/326 89/119/327
f 65/81/328 90/120/329 89/119/330
f 18/5/331 21/24/332 92/122/333
f 21/24/334 22/23/335 92/122/336
f 22/23/337 15/1/338 92/122/339
f 15/1/340 18/5/341 92/122/342
f 38/37/343 35/31/344 93/123/345
f 35/31/346 42/43/347 93/123/348
f 42/43/349 41/44/350 93/123/351
f 41/44/352 38/37/353 93/123/354
f 90/120/355 91/121/356 94/124/357
f 91/121/358 11/2/359 94/124/360
f 11/2/361 13/6/362 94/124/363
f 13/6/364 90/120/365 94/124/366
f 65/81/367 66/82/368 95/125/369
f 66/82/370 91/121/371 95/125/372
f 91/121/373 90/120/374 95/125/375
f 90/120/376 65/81/377 95/125/378
f 10/3/379 11/2/380 96/126/381
f 11/2/382 91/121/383 96/126/384
f 66/82/385 67/83/386 96/126/387
f 67/83/388 10/3/389 96/126/390
f 91/121/391 66/82/392 96/126/393
f 35/31/394 63/79/395 97/127/396
f 63/79/397 49/63/398 97/127/399
f 49/63/400 36/34/401 97/127/402
f 36/34/403 35/31/404 97/127/405
f 50/64/406 49/63/407 98/128/408
f 49/63/409 10/33/410 98/128/411
f 10/33/412 12/35/413 98/128/414
f 12/35/415 50/64/416 98/128/417
f 16/4/418 17/19/419 99/129/420
f 17/19/421 12/18/422 99/129/423
f 12/18/424 67/83/425 99/129/426
f 67/83/427 16/4/428 99/129/429
f 54/67/430 100/130/431 51/68/432 60/76/433
f 3/131/434 2/132/435 100/133/436
f 4/134/437 5/135/438 100/136/439
f 6/137/440 4/138/441 100/139/442
f 7/140/443 100/141/444 54/67/445
f 7/142/446 6/143/447 100/144/448
f 8/145/449 9/146/450 100/147/451
f 9/148/452 3/149/453 100/150/454
f 5/151/455 8/152/456 100/153/457
f 27/155/458 28/156/459 100/157/460
f 30/158/461 29/159/462 100/160/463
f 29/161/464 31/162/465 100/163/466
f 31/165/467 32/166/468 100/167/469
f 34/168/470 33/169/471 100/170/472
f 28/171/473 34/172/474 100/173/475
f 33/174/476 30/175/477 100/176/478
f 72/177/479 27/178/480 100/179/481
f 68/181/482 1/182/483 100/183/484
f 2/184/485 74/185/486 100/186/487
f 1/187/488 71/188/489 100/189/490
f 71/190/491 72/191/492 100/192/493
f 74/193/494 68/194/495 100/195/496
f 88/118/497 101/196/498 38/37/499
f 35/31/500 101/196/501 88/118/502
