# This file uses meters as units for non-parametric coordinates.

v -0.284423 0.018389 -0.315911
v -0.284375 0.018389 0.309195
v -0.398533 0.005002 -0.315902
v -0.398485 0.005002 0.309202
v -0.493835 0.817368 -0.315895
v -0.493786 0.817368 0.309210
v -0.379725 0.830754 -0.315905
v -0.379677 0.830754 0.309200
v -0.303715 0.016125 -0.293580
v -0.303669 0.016125 0.309195
v -0.379192 0.007265 0.309200
v -0.379238 0.007265 -0.293574
v -0.474539 0.819631 -0.293567
v -0.474493 0.819631 0.309208
v -0.398972 0.828491 0.309202
v -0.399017 0.828491 -0.293572
v -0.425334 0.822486 -0.060732
v -0.425324 0.822486 0.064285
v -0.432055 0.821698 -0.060732
v -0.432046 0.821698 0.064286
v -0.439934 0.888871 -0.060731
v -0.439923 0.888871 0.064287
v -0.433213 0.889659 -0.060732
v -0.433205 0.889659 0.064286
v 0.112763 0.070922 -0.315943
v 0.112813 0.070922 0.309162
v 0.004673 0.109866 -0.315933
v 0.004723 0.109866 0.309170
v 0.281922 0.879381 -0.315954
v 0.281970 0.879381 0.309151
v 0.390015 0.840437 -0.315964
v 0.390062 0.840437 0.309141
v 0.094491 0.077507 -0.293612
v 0.094537 0.077507 0.309164
v 0.022997 0.103281 0.309170
v 0.022951 0.103281 -0.293606
v 0.300200 0.872797 -0.293627
v 0.300246 0.872797 0.309149
v 0.371782 0.847022 0.309143
v 0.371737 0.847022 -0.293633
v 0.353597 0.851665 -0.249317
v 0.353605 0.851665 -0.124300
v 0.347231 0.853958 -0.249317
v 0.347239 0.853958 -0.124298
v 0.372783 0.924878 -0.249319
v 0.372792 0.924878 -0.124300
v 0.379148 0.922584 -0.249321
v 0.379159 0.922584 -0.124300
v 0.314986 0.865392 0.020592
v 0.314995 0.865392 0.145609
v 0.308620 0.867686 0.020592
v 0.308629 0.867686 0.145611
v 0.338294 0.950047 0.020590
v 0.338304 0.950047 0.145609
v 0.344660 0.947754 0.020590
v 0.344670 0.947754 0.145607
v 0.294743 0.062094 -0.315956
v 0.294792 0.062094 0.309149
v 0.183963 0.092559 -0.315948
v 0.184012 0.092559 0.309156
v 0.400847 0.881217 -0.315964
v 0.400894 0.881217 0.309141
v 0.511624 0.850753 -0.315973
v 0.511672 0.850753 0.309132
v 0.276014 0.067245 -0.293625
v 0.276062 0.067245 0.309151
v 0.202743 0.087407 0.309156
v 0.202697 0.087407 -0.293619
v 0.419579 0.876067 -0.293634
v 0.419624 0.876067 0.309139
v 0.492942 0.855904 0.309134
v 0.492896 0.855904 -0.293640
v 0.438750 0.867792 -0.244436
v 0.438760 0.867792 -0.119417
v 0.432227 0.869586 -0.244434
v 0.432236 0.869586 -0.119417
v 0.450160 0.934799 -0.244436
v 0.450169 0.934799 -0.119417
v 0.456685 0.933004 -0.244436
v 0.456696 0.933004 -0.119419
v 0.445601 0.867068 0.078125
v 0.445612 0.867068 0.203144
v 0.439079 0.868863 0.078125
v 0.439088 0.868863 0.203144
v 0.459067 0.941547 0.078123
v 0.459078 0.941547 0.203142
v 0.465590 0.939753 0.078123
v 0.465599 0.939753 0.203142
v 0.467531 0.860848 -0.113316
v 0.467542 0.860848 0.011702
v 0.461008 0.862642 -0.113316
v 0.461019 0.862642 0.011702
v 0.484221 0.947052 -0.113317
v 0.484232 0.947052 0.011700
v 0.490746 0.945259 -0.113317
v 0.490754 0.945259 0.011700
v -0.506611 0.000000 -0.365112
v -0.506555 0.000000 0.363377
v -0.506611 0.574992 -0.365112
v -0.506555 0.574992 0.363377
v 0.486493 0.574992 -0.365189
v 0.486549 0.574992 0.363298
v 0.486493 0.000000 -0.365189
v 0.486549 0.000000 0.363298
v -0.464663 0.574992 -0.322232
v -0.464612 0.574992 0.320490
v 0.444601 0.574992 0.320417
v 0.444551 0.574992 -0.322304
v -0.464663 0.068677 -0.322232
v -0.464612 0.068677 0.320490
v 0.444601 0.068677 0.320417
v 0.444551 0.068677 -0.322304
vt 0.330552 0.471344
vt 0.330552 0.471344
vt 0.330552 0.471344
vt 0.330552 0.471344
vt 0.264278 0.357248
vt 0.264278 0.357248
vt 0.264278 0.357248
vt 0.264278 0.357248
vt 0.330552 0.471344
vt 0.330552 0.471344
vt 0.330552 0.471344
vt 0.330552 0.471344
vt 0.168179 0.357248
vt 0.168179 0.357248
vt 0.168179 0.357248
vt 0.168179 0.357248
vt 0.355088 0.471344
vt 0.355088 0.471344
vt 0.355088 0.471344
vt 0.355088 0.471344
vt 0.230541 0.357248
vt 0.230541 0.357248
vt 0.230541 0.357248
vt 0.230541 0.357248
vt 0.206005 0.357248
vt 0.206005 0.357248
vt 0.206005 0.357248
vt 0.206005 0.357248
vt 0.206005 0.357248
vt 0.206005 0.357248
vt 0.206005 0.357248
vt 0.206005 0.357248
vt 0.206005 0.357248
vt 0.206005 0.357248
vt 0.206005 0.357248
vt 0.206005 0.357248
vt 0.206005 0.357248
vt 0.206005 0.357248
vt 0.206005 0.357248
vt 0.206005 0.357248
vt 0.206005 0.357248
vt 0.206005 0.357248
vt 0.206005 0.357248
vt 0.206005 0.357248
vt 0.206005 0.357248
vt 0.206005 0.357248
vt 0.206005 0.357248
vt 0.206005 0.357248
vt 0.230541 0.357248
vt 0.230541 0.357248
vt 0.230541 0.357248
vt 0.230541 0.357248
vt 0.230541 0.357248
vt 0.230541 0.357248
vt 0.230541 0.357248
vt 0.230541 0.357248
vt 0.266972 0.151703
vt 0.266972 0.151703
vt 0.266972 0.151703
vt 0.266972 0.151703
vt 0.325245 0.151703
vt 0.325245 0.151703
vt 0.325245 0.151703
vt 0.325245 0.151703
vt 0.266972 0.151703
vt 0.266972 0.151703
vt 0.266972 0.151703
vt 0.266972 0.151703
vt 0.229146 0.151703
vt 0.229146 0.151703
vt 0.229146 0.151703
vt 0.229146 0.151703
vt 0.291508 0.151703
vt 0.291508 0.151703
vt 0.291508 0.151703
vt 0.291508 0.151703
vt 0.291508 0.151703
vt 0.291508 0.151703
vt 0.291508 0.151703
vt 0.291508 0.151703
vt 0.330552 0.471344
vt 0.330552 0.471344
vt 0.330552 0.471344
vt 0.330552 0.471344
vt 0.264278 0.181315
vt 0.264278 0.181315
vt 0.264278 0.181315
vt 0.264278 0.181315
vt 0.330552 0.471344
vt 0.330552 0.471344
vt 0.330552 0.471344
vt 0.330552 0.471344
vt 0.168179 0.181315
vt 0.168179 0.181315
vt 0.168179 0.181315
vt 0.168179 0.181315
vt 0.355088 0.471344
vt 0.355088 0.471344
vt 0.355088 0.471344
vt 0.355088 0.471344
vt 0.230541 0.181315
vt 0.230541 0.181315
vt 0.230541 0.181315
vt 0.230541 0.181315
vt 0.206005 0.181315
vt 0.206005 0.181315
vt 0.206005 0.181315
vt 0.206005 0.181315
vt 0.206005 0.181315
vt 0.206005 0.181315
vt 0.206005 0.181315
vt 0.206005 0.181315
vt 0.206005 0.181315
vt 0.206005 0.181315
vt 0.206005 0.181315
vt 0.206005 0.181315
vt 0.206005 0.181315
vt 0.206005 0.181315
vt 0.206005 0.181315
vt 0.206005 0.181315
vt 0.206005 0.181315
vt 0.206005 0.181315
vt 0.206005 0.181315
vt 0.206005 0.181315
vt 0.206005 0.181315
vt 0.206005 0.181315
vt 0.206005 0.181315
vt 0.206005 0.181315
vt 0.230541 0.181315
vt 0.230541 0.181315
vt 0.230541 0.181315
vt 0.230541 0.181315
vt 0.230541 0.181315
vt 0.230541 0.181315
vt 0.230541 0.181315
vt 0.230541 0.181315
vt 0.266972 0.011479
vt 0.266972 0.011479
vt 0.266972 0.011479
vt 0.266972 0.011479
vt 0.325245 0.011479
vt 0.325245 0.011479
vt 0.325245 0.011479
vt 0.325245 0.011479
vt 0.266972 0.011479
vt 0.266972 0.011479
vt 0.266972 0.011479
vt 0.266972 0.011479
vt 0.229146 0.011479
vt 0.229146 0.011479
vt 0.229146 0.011479
vt 0.229146 0.011479
vt 0.291508 0.011479
vt 0.291508 0.011479
vt 0.291508 0.011479
vt 0.291508 0.011479
vt 0.291508 0.011479
vt 0.291508 0.011479
vt 0.291508 0.011479
vt 0.291508 0.011479
vt 0.266972 0.218766
vt 0.266972 0.218766
vt 0.266972 0.218766
vt 0.266972 0.218766
vt 0.325245 0.218766
vt 0.325245 0.218766
vt 0.325245 0.218766
vt 0.325245 0.218766
vt 0.266972 0.218766
vt 0.266972 0.218766
vt 0.266972 0.218766
vt 0.266972 0.218766
vt 0.229146 0.218766
vt 0.229146 0.218766
vt 0.229146 0.218766
vt 0.229146 0.218766
vt 0.291508 0.218766
vt 0.291508 0.218766
vt 0.291508 0.218766
vt 0.291508 0.218766
vt 0.291508 0.218766
vt 0.291508 0.218766
vt 0.291508 0.218766
vt 0.291508 0.218766
vt 0.330552 0.471344
vt 0.330552 0.471344
vt 0.330552 0.471344
vt 0.330552 0.471344
vt 0.264278 0.196122
vt 0.264278 0.196122
vt 0.264278 0.196122
vt 0.264278 0.196122
vt 0.330552 0.471344
vt 0.330552 0.471344
vt 0.330552 0.471344
vt 0.330552 0.471344
vt 0.168179 0.196122
vt 0.168179 0.196122
vt 0.168179 0.196121
vt 0.168179 0.196121
vt 0.355088 0.471344
vt 0.355088 0.471344
vt 0.355088 0.471344
vt 0.355088 0.471344
vt 0.230541 0.196122
vt 0.230541 0.196122
vt 0.230541 0.196122
vt 0.230541 0.196122
vt 0.206005 0.196122
vt 0.206005 0.196122
vt 0.206005 0.196122
vt 0.206005 0.196122
vt 0.206005 0.196122
vt 0.206005 0.196122
vt 0.206005 0.196122
vt 0.206005 0.196122
vt 0.206005 0.196122
vt 0.206005 0.196122
vt 0.206005 0.196122
vt 0.206005 0.196122
vt 0.206005 0.196122
vt 0.206005 0.196122
vt 0.206005 0.196122
vt 0.206005 0.196122
vt 0.206005 0.196122
vt 0.206005 0.196122
vt 0.206005 0.196122
vt 0.206005 0.196122
vt 0.206005 0.196122
vt 0.206005 0.196122
vt 0.206005 0.196122
vt 0.206005 0.196122
vt 0.230541 0.196122
vt 0.230541 0.196122
vt 0.230541 0.196122
vt 0.230541 0.196122
vt 0.230541 0.196122
vt 0.230541 0.196122
vt 0.230541 0.196122
vt 0.230541 0.196122
vt 0.266972 0.151703
vt 0.266972 0.151703
vt 0.266972 0.151703
vt 0.266972 0.151703
vt 0.325245 0.151703
vt 0.325245 0.151703
vt 0.325245 0.151703
vt 0.325245 0.151703
vt 0.266972 0.151703
vt 0.266972 0.151703
vt 0.266972 0.151703
vt 0.266972 0.151703
vt 0.229146 0.151703
vt 0.229146 0.151703
vt 0.229146 0.151703
vt 0.229146 0.151703
vt 0.291508 0.151703
vt 0.291508 0.151703
vt 0.291508 0.151703
vt 0.291508 0.151703
vt 0.291508 0.151703
vt 0.291508 0.151703
vt 0.291508 0.151703
vt 0.291508 0.151703
vt 0.266972 0.011479
vt 0.266972 0.011479
vt 0.266972 0.011479
vt 0.266972 0.011479
vt 0.325245 0.011479
vt 0.325245 0.011479
vt 0.325245 0.011479
vt 0.325245 0.011479
vt 0.266972 0.011479
vt 0.266972 0.011479
vt 0.266972 0.011479
vt 0.266972 0.011479
vt 0.229146 0.011479
vt 0.229146 0.011479
vt 0.229146 0.011479
vt 0.229146 0.011479
vt 0.291508 0.011479
vt 0.291508 0.011479
vt 0.291508 0.011479
vt 0.291508 0.011479
vt 0.291508 0.011479
vt 0.291508 0.011479
vt 0.291508 0.011479
vt 0.291508 0.011479
vt 0.266972 0.218766
vt 0.266972 0.218766
vt 0.266972 0.218766
vt 0.266972 0.218766
vt 0.325245 0.218766
vt 0.325245 0.218766
vt 0.325245 0.218766
vt 0.325245 0.218766
vt 0.266972 0.218766
vt 0.266972 0.218766
vt 0.266972 0.218766
vt 0.266972 0.218766
vt 0.229146 0.218766
vt 0.229146 0.218766
vt 0.229146 0.218766
vt 0.229146 0.218766
vt 0.291508 0.218766
vt 0.291508 0.218766
vt 0.291508 0.218766
vt 0.291508 0.218766
vt 0.291508 0.218766
vt 0.291508 0.218766
vt 0.291508 0.218766
vt 0.291508 0.218766
vt 0.328810 0.399925
vt 0.328810 0.399925
vt 0.328810 0.399925
vt 0.328810 0.399925
vt 0.355728 0.399925
vt 0.355728 0.399925
vt 0.355728 0.399925
vt 0.355728 0.399925
vt 0.328810 0.399925
vt 0.328810 0.399925
vt 0.328810 0.399925
vt 0.328810 0.399925
vt 0.290984 0.399925
vt 0.290984 0.399925
vt 0.290984 0.399925
vt 0.290984 0.399925
vt 0.353346 0.399925
vt 0.353346 0.399925
vt 0.353346 0.399925
vt 0.353346 0.399925
vt 0.353346 0.399925
vt 0.353346 0.399925
vt 0.353346 0.399925
vt 0.353346 0.399925
vt 0.387083 0.399925
vt 0.387083 0.399925
vt 0.387083 0.399925
vt 0.387083 0.399925
vt 0.387083 0.399925
vt 0.387083 0.399925
vt 0.387083 0.399925
vt 0.387083 0.399925
vt 0.387083 0.399925
vt 0.387083 0.399925
vt 0.387083 0.399925
vt 0.387083 0.399925
vt 0.387083 0.399925
vt 0.387083 0.399925
vt 0.387083 0.399925
vt 0.387083 0.399925
vt 0.299116 0.399054
vt 0.299116 0.399054
vt 0.299116 0.399054
vt 0.299116 0.399054
vt 0.335696 0.399925
vt 0.335696 0.399925
vt 0.335696 0.399925
vt 0.335696 0.399925
vt 0.299116 0.399054
vt 0.299116 0.399054
vt 0.299116 0.399054
vt 0.299116 0.399054
vt 0.335696 0.399925
vt 0.335696 0.399925
vt 0.335696 0.399925
vt 0.335696 0.399925
vn 0.116517 -0.993189 -0.000009
vn 0.116517 -0.993189 -0.000009
vn 0.116517 -0.993189 -0.000009
vn 0.116517 -0.993189 -0.000009
vn -0.993189 -0.116515 0.000077
vn -0.993189 -0.116515 0.000077
vn -0.993189 -0.116515 0.000077
vn -0.993189 -0.116515 0.000077
vn -0.116514 0.993189 0.000009
vn -0.116514 0.993189 0.000009
vn -0.116514 0.993189 0.000009
vn -0.116514 0.993189 0.000009
vn 0.993189 0.116515 -0.000077
vn 0.993189 0.116515 -0.000077
vn 0.993189 0.116515 -0.000077
vn 0.993189 0.116515 -0.000077
vn 0.000076 -0.000000 1.000000
vn 0.000076 -0.000000 1.000000
vn 0.000076 -0.000000 1.000000
vn 0.000076 -0.000000 1.000000
vn -0.000084 -0.000002 -1.000000
vn -0.000084 -0.000002 -1.000000
vn -0.000084 -0.000002 -1.000000
vn -0.000084 -0.000002 -1.000000
vn 0.116521 -0.993188 -0.000009
vn 0.116521 -0.993188 -0.000009
vn 0.116521 -0.993188 -0.000009
vn 0.116521 -0.993188 -0.000009
vn 0.116514 -0.993189 -0.000009
vn 0.116514 -0.993189 -0.000009
vn 0.116514 -0.993189 -0.000009
vn 0.116514 -0.993189 -0.000009
vn 0.116517 -0.993189 -0.000013
vn 0.116517 -0.993189 -0.000013
vn 0.116517 -0.993189 -0.000013
vn 0.116517 -0.993189 -0.000013
vn -0.116519 0.993189 0.000009
vn -0.116519 0.993189 0.000009
vn -0.116519 0.993189 0.000009
vn -0.116519 0.993189 0.000009
vn -0.116519 0.993189 0.000009
vn -0.116519 0.993189 0.000009
vn -0.116519 0.993189 0.000009
vn -0.116519 0.993189 0.000009
vn -0.116515 0.993189 0.000012
vn -0.116515 0.993189 0.000012
vn -0.116515 0.993189 0.000012
vn -0.116515 0.993189 0.000012
vn 0.000049 -0.000002 1.000000
vn 0.000049 -0.000002 1.000000
vn 0.000049 -0.000002 1.000000
vn 0.000049 -0.000002 1.000000
vn 0.000098 0.000002 1.000000
vn 0.000098 0.000002 1.000000
vn 0.000098 0.000002 1.000000
vn 0.000098 0.000002 1.000000
vn 0.116470 -0.993194 -0.000009
vn 0.116470 -0.993194 -0.000009
vn 0.116470 -0.993194 -0.000009
vn 0.116470 -0.993194 -0.000009
vn -0.993193 -0.116479 0.000080
vn -0.993193 -0.116479 0.000080
vn -0.993193 -0.116479 0.000080
vn -0.993193 -0.116479 0.000080
vn -0.116571 0.993182 0.000009
vn -0.116571 0.993182 0.000009
vn -0.116571 0.993182 0.000009
vn -0.116571 0.993182 0.000009
vn 0.993190 0.116506 -0.000072
vn 0.993190 0.116506 -0.000072
vn 0.993190 0.116506 -0.000072
vn 0.993190 0.116506 -0.000072
vn 0.000142 0.000002 1.000000
vn 0.000142 0.000002 1.000000
vn 0.000142 0.000002 1.000000
vn 0.000142 0.000002 1.000000
vn -0.000071 -0.000001 -1.000000
vn -0.000071 -0.000001 -1.000000
vn -0.000071 -0.000001 -1.000000
vn -0.000071 -0.000001 -1.000000
vn -0.338959 -0.940801 0.000026
vn -0.338959 -0.940801 0.000026
vn -0.338959 -0.940801 0.000026
vn -0.338959 -0.940801 0.000026
vn -0.940801 0.338961 0.000073
vn -0.940801 0.338961 0.000073
vn -0.940801 0.338961 0.000073
vn -0.940801 0.338961 0.000073
vn 0.338970 0.940797 -0.000026
vn 0.338970 0.940797 -0.000026
vn 0.338970 0.940797 -0.000026
vn 0.338970 0.940797 -0.000026
vn 0.940800 -0.338963 -0.000073
vn 0.940800 -0.338963 -0.000073
vn 0.940800 -0.338963 -0.000073
vn 0.940800 -0.338963 -0.000073
vn 0.000079 -0.000001 1.000000
vn 0.000079 -0.000001 1.000000
vn 0.000079 -0.000001 1.000000
vn 0.000079 -0.000001 1.000000
vn -0.000087 0.000004 -1.000000
vn -0.000087 0.000004 -1.000000
vn -0.000087 0.000004 -1.000000
vn -0.000087 0.000004 -1.000000
vn -0.338963 -0.940800 0.000026
vn -0.338963 -0.940800 0.000026
vn -0.338963 -0.940800 0.000026
vn -0.338963 -0.940800 0.000026
vn -0.338960 -0.940801 0.000026
vn -0.338960 -0.940801 0.000026
vn -0.338960 -0.940801 0.000026
vn -0.338960 -0.940801 0.000026
vn -0.338960 -0.940801 0.000043
vn -0.338960 -0.940801 0.000043
vn -0.338960 -0.940801 0.000043
vn -0.338960 -0.940801 0.000043
vn 0.338955 0.940803 -0.000026
vn 0.338955 0.940803 -0.000026
vn 0.338955 0.940803 -0.000026
vn 0.338955 0.940803 -0.000026
vn 0.338917 0.940816 -0.000026
vn 0.338917 0.940816 -0.000026
vn 0.338917 0.940816 -0.000026
vn 0.338917 0.940816 -0.000026
vn 0.338963 0.940800 -0.000010
vn 0.338963 0.940800 -0.000010
vn 0.338963 0.940800 -0.000010
vn 0.338963 0.940800 -0.000010
vn 0.000101 -0.000009 1.000000
vn 0.000101 -0.000009 1.000000
vn 0.000101 -0.000009 1.000000
vn 0.000101 -0.000009 1.000000
vn 0.000054 0.000006 1.000000
vn 0.000054 0.000006 1.000000
vn 0.000054 0.000006 1.000000
vn 0.000054 0.000006 1.000000
vn -0.338886 -0.940828 0.000021
vn -0.338886 -0.940828 0.000021
vn -0.338886 -0.940828 0.000021
vn -0.338886 -0.940828 0.000021
vn -0.940796 0.338972 0.000065
vn -0.940796 0.338973 0.000065
vn -0.940796 0.338973 0.000065
vn -0.940796 0.338972 0.000065
vn 0.338948 0.940805 -0.000027
vn 0.338948 0.940805 -0.000027
vn 0.338948 0.940805 -0.000027
vn 0.338948 0.940805 -0.000027
vn 0.940796 -0.338975 -0.000072
vn 0.940796 -0.338975 -0.000072
vn 0.940796 -0.338975 -0.000072
vn 0.940796 -0.338975 -0.000072
vn 0.000137 -0.000036 1.000000
vn 0.000137 -0.000036 1.000000
vn 0.000137 -0.000036 1.000000
vn 0.000137 -0.000036 1.000000
vn -0.000145 0.000012 -1.000000
vn -0.000145 0.000012 -1.000000
vn -0.000145 0.000012 -1.000000
vn -0.000145 0.000012 -1.000000
vn -0.338969 -0.940798 0.000023
vn -0.338969 -0.940798 0.000023
vn -0.338969 -0.940798 0.000023
vn -0.338969 -0.940798 0.000023
vn -0.940800 0.338962 0.000068
vn -0.940800 0.338962 0.000068
vn -0.940800 0.338962 0.000068
vn -0.940800 0.338962 0.000068
vn 0.338884 0.940828 -0.000027
vn 0.338884 0.940828 -0.000027
vn 0.338884 0.940828 -0.000027
vn 0.338884 0.940828 -0.000027
vn 0.940799 -0.338965 -0.000072
vn 0.940799 -0.338966 -0.000072
vn 0.940799 -0.338966 -0.000072
vn 0.940799 -0.338966 -0.000072
vn 0.000272 -0.000075 1.000000
vn 0.000272 -0.000075 1.000000
vn 0.000272 -0.000075 1.000000
vn 0.000272 -0.000075 1.000000
vn -0.000007 -0.000020 -1.000000
vn -0.000007 -0.000020 -1.000000
vn -0.000007 -0.000020 -1.000000
vn -0.000007 -0.000020 -1.000000
vn -0.265154 -0.964206 0.000021
vn -0.265154 -0.964206 0.000021
vn -0.265154 -0.964206 0.000021
vn -0.265154 -0.964206 0.000021
vn -0.964205 0.265159 0.000074
vn -0.964205 0.265159 0.000074
vn -0.964205 0.265159 0.000074
vn -0.964205 0.265159 0.000074
vn 0.265160 0.964204 -0.000020
vn 0.265160 0.964204 -0.000020
vn 0.265160 0.964204 -0.000020
vn 0.265160 0.964204 -0.000020
vn 0.964206 -0.265156 -0.000075
vn 0.964206 -0.265156 -0.000075
vn 0.964206 -0.265156 -0.000075
vn 0.964206 -0.265156 -0.000075
vn 0.000078 0.000000 1.000000
vn 0.000078 0.000000 1.000000
vn 0.000078 0.000000 1.000000
vn 0.000078 0.000000 1.000000
vn -0.000077 0.000001 -1.000000
vn -0.000077 0.000001 -1.000000
vn -0.000077 0.000001 -1.000000
vn -0.000077 0.000001 -1.000000
vn -0.265157 -0.964205 0.000021
vn -0.265157 -0.964205 0.000021
vn -0.265157 -0.964205 0.000021
vn -0.265157 -0.964205 0.000021
vn -0.265166 -0.964203 0.000021
vn -0.265166 -0.964203 0.000021
vn -0.265166 -0.964203 0.000021
vn -0.265166 -0.964203 0.000021
vn -0.265156 -0.964205 0.000024
vn -0.265156 -0.964205 0.000024
vn -0.265156 -0.964205 0.000024
vn -0.265156 -0.964205 0.000024
vn 0.265161 0.964204 -0.000020
vn 0.265161 0.964204 -0.000020
vn 0.265161 0.964204 -0.000020
vn 0.265161 0.964204 -0.000020
vn 0.265181 0.964199 -0.000020
vn 0.265181 0.964199 -0.000020
vn 0.265181 0.964199 -0.000020
vn 0.265181 0.964199 -0.000020
vn 0.265163 0.964204 -0.000028
vn 0.265163 0.964204 -0.000028
vn 0.265163 0.964204 -0.000028
vn 0.265163 0.964204 -0.000028
vn 0.000099 -0.000006 1.000000
vn 0.000099 -0.000006 1.000000
vn 0.000099 -0.000006 1.000000
vn 0.000099 -0.000006 1.000000
vn 0.000053 0.000006 1.000000
vn 0.000053 0.000006 1.000000
vn 0.000053 0.000006 1.000000
vn 0.000053 0.000006 1.000000
vn -0.265205 -0.964192 0.000019
vn -0.265205 -0.964192 0.000019
vn -0.265205 -0.964192 0.000019
vn -0.265205 -0.964192 0.000019
vn -0.964207 0.265150 0.000066
vn -0.964207 0.265150 0.000066
vn -0.964207 0.265150 0.000066
vn -0.964207 0.265150 0.000066
vn 0.265180 0.964199 -0.000020
vn 0.265180 0.964199 -0.000020
vn 0.265180 0.964199 -0.000020
vn 0.265180 0.964199 -0.000020
vn 0.964198 -0.265184 -0.000077
vn 0.964198 -0.265184 -0.000077
vn 0.964198 -0.265184 -0.000077
vn 0.964198 -0.265184 -0.000077
vn 0.000140 -0.000024 1.000000
vn 0.000140 -0.000024 1.000000
vn 0.000140 -0.000024 1.000000
vn 0.000140 -0.000024 1.000000
vn -0.000140 0.000024 -1.000000
vn -0.000140 0.000024 -1.000000
vn -0.000140 0.000024 -1.000000
vn -0.000140 0.000024 -1.000000
vn -0.265239 -0.964183 0.000021
vn -0.265239 -0.964183 0.000021
vn -0.265239 -0.964183 0.000021
vn -0.265239 -0.964183 0.000021
vn -0.964203 0.265167 0.000074
vn -0.964203 0.265167 0.000074
vn -0.964203 0.265167 0.000074
vn -0.964203 0.265167 0.000074
vn 0.265257 0.964178 -0.000020
vn 0.265257 0.964178 -0.000020
vn 0.265257 0.964178 -0.000020
vn 0.265257 0.964178 -0.000020
vn 0.964204 -0.265161 -0.000077
vn 0.964204 -0.265161 -0.000077
vn 0.964204 -0.265161 -0.000077
vn 0.964204 -0.265161 -0.000077
vn 0.000007 0.000024 1.000000
vn 0.000007 0.000024 1.000000
vn 0.000007 0.000024 1.000000
vn 0.000007 0.000024 1.000000
vn -0.000007 -0.000024 -1.000000
vn -0.000007 -0.000024 -1.000000
vn -0.000007 -0.000024 -1.000000
vn -0.000007 -0.000024 -1.000000
vn -0.265157 -0.964205 0.000023
vn -0.265157 -0.964205 0.000023
vn -0.265157 -0.964205 0.000023
vn -0.265157 -0.964205 0.000023
vn -0.964204 0.265161 0.000081
vn -0.964204 0.265161 0.000081
vn -0.964204 0.265161 0.000081
vn -0.964204 0.265161 0.000081
vn 0.265139 0.964210 -0.000019
vn 0.265139 0.964210 -0.000019
vn 0.265139 0.964210 -0.000019
vn 0.265139 0.964210 -0.000019
vn 0.964203 -0.265166 -0.000070
vn 0.964203 -0.265166 -0.000070
vn 0.964203 -0.265166 -0.000070
vn 0.964203 -0.265166 -0.000070
vn 0.000006 0.000021 1.000000
vn 0.000006 0.000021 1.000000
vn 0.000006 0.000021 1.000000
vn 0.000006 0.000021 1.000000
vn -0.000006 -0.000021 -1.000000
vn -0.000006 -0.000021 -1.000000
vn -0.000006 -0.000021 -1.000000
vn -0.000006 -0.000021 -1.000000
vn -1.000000 0.000000 0.000077
vn -1.000000 0.000000 0.000077
vn -1.000000 0.000000 0.000077
vn -1.000000 0.000000 0.000077
vn 0.000000 1.000000 0.000000
vn 0.000000 1.000000 0.000000
vn 0.000000 1.000000 0.000000
vn 0.000000 1.000000 0.000000
vn 1.000000 0.000000 -0.000077
vn 1.000000 0.000000 -0.000077
vn 1.000000 0.000000 -0.000077
vn 1.000000 0.000000 -0.000077
vn 0.000000 -1.000000 0.000000
vn 0.000000 -1.000000 0.000000
vn 0.000000 -1.000000 0.000000
vn 0.000000 -1.000000 0.000000
vn 0.000079 0.000000 1.000000
vn 0.000079 0.000000 1.000000
vn 0.000079 0.000000 1.000000
vn 0.000079 0.000000 1.000000
vn -0.000077 0.000000 -1.000000
vn -0.000077 0.000000 -1.000000
vn -0.000077 0.000000 -1.000000
vn -0.000077 0.000000 -1.000000
vn 0.000000 1.000000 0.000000
vn 0.000000 1.000000 0.000000
vn 0.000000 1.000000 0.000000
vn 0.000000 1.000000 0.000000
vn 0.000000 1.000000 0.000001
vn 0.000000 1.000000 0.000001
vn 0.000000 1.000000 0.000001
vn 0.000000 1.000000 0.000001
vn 0.000000 1.000000 0.000000
vn 0.000000 1.000000 0.000000
vn 0.000000 1.000000 0.000000
vn 0.000000 1.000000 0.000000
vn 0.000000 1.000000 -0.000001
vn 0.000000 1.000000 -0.000001
vn 0.000000 1.000000 -0.000001
vn 0.000000 1.000000 -0.000001
vn 1.000000 0.000000 -0.000079
vn 1.000000 0.000000 -0.000079
vn 1.000000 0.000000 -0.000079
vn 1.000000 0.000000 -0.000079
vn -0.000080 0.000000 -1.000000
vn -0.000080 0.000000 -1.000000
vn -0.000080 0.000000 -1.000000
vn -0.000080 0.000000 -1.000000
vn -1.000000 0.000000 0.000079
vn -1.000000 0.000000 0.000079
vn -1.000000 0.000000 0.000079
vn -1.000000 0.000000 0.000079
vn 0.000079 0.000000 1.000000
vn 0.000079 0.000000 1.000000
vn 0.000079 0.000000 1.000000
vn 0.000079 0.000000 1.000000
s off
f 9/1/1 10/2/2 11/3/3 12/4/4
f 3/5/5 4/6/6 6/7/7 5/8/8
f 13/9/9 14/10/10 15/11/11 16/12/12
f 7/13/13 8/14/14 2/15/15 1/16/16
f 10/17/17 15/18/18 14/19/19 11/20/20
f 7/21/21 1/22/22 3/23/23 5/24/24
f 1/25/25 2/26/26 10/27/27 9/28/28
f 4/29/29 3/30/30 12/31/31 11/32/32
f 3/33/33 1/34/34 9/35/35 12/36/36
f 5/37/37 6/38/38 14/39/39 13/40/40
f 8/41/41 7/42/42 16/43/43 15/44/44
f 7/45/45 5/46/46 13/47/47 16/48/48
f 2/49/49 8/50/50 15/51/51 10/52/52
f 6/53/53 4/54/54 11/55/55 14/56/56
f 17/57/57 18/58/58 20/59/59 19/60/60
f 19/61/61 20/62/62 22/63/63 21/64/64
f 21/65/65 22/66/66 24/67/67 23/68/68
f 23/69/69 24/70/70 18/71/71 17/72/72
f 18/73/73 24/74/74 22/75/75 20/76/76
f 23/77/77 17/78/78 19/79/79 21/80/80
f 33/81/81 34/82/82 35/83/83 36/84/84
f 27/85/85 28/86/86 30/87/87 29/88/88
f 37/89/89 38/90/90 39/91/91 40/92/92
f 31/93/93 32/94/94 26/95/95 25/96/96
f 34/97/97 39/98/98 38/99/99 35/100/100
f 31/101/101 25/102/102 27/103/103 29/104/104
f 25/105/105 26/106/106 34/107/107 33/108/108
f 28/109/109 27/110/110 36/111/111 35/112/112
f 27/113/113 25/114/114 33/115/115 36/116/116
f 29/117/117 30/118/118 38/119/119 37/120/120
f 32/121/121 31/122/122 40/123/123 39/124/124
f 31/125/125 29/126/126 37/127/127 40/128/128
f 26/129/129 32/130/130 39/131/131 34/132/132
f 30/133/133 28/134/134 35/135/135 38/136/136
f 41/137/137 42/138/138 44/139/139 43/140/140
f 43/141/141 44/142/142 46/143/143 45/144/144
f 45/145/145 46/146/146 48/147/147 47/148/148
f 47/149/149 48/150/150 42/151/151 41/152/152
f 42/153/153 48/154/154 46/155/155 44/156/156
f 47/157/157 41/158/158 43/159/159 45/160/160
f 49/161/161 50/162/162 52/163/163 51/164/164
f 51/165/165 52/166/166 54/167/167 53/168/168
f 53/169/169 54/170/170 56/171/171 55/172/172
f 55/173/173 56/174/174 50/175/175 49/176/176
f 50/177/177 56/178/178 54/179/179 52/180/180
f 55/181/181 49/182/182 51/183/183 53/184/184
f 65/185/185 66/186/186 67/187/187 68/188/188
f 59/189/189 60/190/190 62/191/191 61/192/192
f 69/193/193 70/194/194 71/195/195 72/196/196
f 63/197/197 64/198/198 58/199/199 57/200/200
f 66/201/201 71/202/202 70/203/203 67/204/204
f 63/205/205 57/206/206 59/207/207 61/208/208
f 57/209/209 58/210/210 66/211/211 65/212/212
f 60/213/213 59/214/214 68/215/215 67/216/216
f 59/217/217 57/218/218 65/219/219 68/220/220
f 61/221/221 62/222/222 70/223/223 69/224/224
f 64/225/225 63/226/226 72/227/227 71/228/228
f 63/229/229 61/230/230 69/231/231 72/232/232
f 58/233/233 64/234/234 71/235/235 66/236/236
f 62/237/237 60/238/238 67/239/239 70/240/240
f 73/241/241 74/242/242 76/243/243 75/244/244
f 75/245/245 76/246/246 78/247/247 77/248/248
f 77/249/249 78/250/250 80/251/251 79/252/252
f 79/253/253 80/254/254 74/255/255 73/256/256
f 74/257/257 80/258/258 78/259/259 76/260/260
f 79/261/261 73/262/262 75/263/263 77/264/264
f 81/265/265 82/266/266 84/267/267 83/268/268
f 83/269/269 84/270/270 86/271/271 85/272/272
f 85/273/273 86/274/274 88/275/275 87/276/276
f 87/277/277 88/278/278 82/279/279 81/280/280
f 82/281/281 88/282/282 86/283/283 84/284/284
f 87/285/285 81/286/286 83/287/287 85/288/288
f 89/289/289 90/290/290 92/291/291 91/292/292
f 91/293/293 92/294/294 94/295/295 93/296/296
f 93/297/297 94/298/298 96/299/299 95/300/300
f 95/301/301 96/302/302 90/303/303 89/304/304
f 90/305/305 96/306/306 94/307/307 92/308/308
f 95/309/309 89/310/310 91/311/311 93/312/312
f 97/313/313 98/314/314 100/315/315 99/316/316
f 109/317/317 110/318/318 111/319/319 112/320/320
f 101/321/321 102/322/322 104/323/323 103/324/324
f 103/325/325 104/326/326 98/327/327 97/328/328
f 98/329/329 104/330/330 102/331/331 100/332/332
f 103/333/333 97/334/334 99/335/335 101/336/336
f 99/337/337 100/338/338 106/339/339 105/340/340
f 100/341/341 102/342/342 107/343/343 106/344/344
f 102/345/345 101/346/346 108/347/347 107/348/348
f 101/349/349 99/350/350 105/351/351 108/352/352
f 105/353/353 106/354/354 110/355/355 109/356/356
f 106/357/357 107/358/358 111/359/359 110/360/360
f 107/361/361 108/362/362 112/363/363 111/364/364
f 108/365/365 105/366/366 109/367/367 112/368/368
