# This file uses meters as units for non-parametric coordinates.

v 0.793229 0.000000 -0.766522
v -0.793230 0.000000 -0.766521
v 0.793229 0.000000 0.654065
v -0.793229 0.000000 0.654065
v -0.509285 0.559873 0.654065
v 0.509285 0.559873 0.654065
v -0.509284 0.559873 -0.302182
v 0.509284 0.559873 -0.302183
v 0.793229 0.965732 -0.766522
v 0.509285 0.965732 -0.766521
v 0.509284 0.965732 -0.302183
v -0.509285 0.965732 -0.766521
v -0.509284 0.965732 -0.302182
v -0.793230 0.965732 -0.766521
v -0.509285 0.965732 0.654065
v -0.793229 0.965732 0.654065
v 0.509285 0.965732 0.654065
v 0.793229 0.965732 0.654065
v 0.509285 1.233944 -0.766521
v 0.509284 1.233944 -0.302183
v -0.509285 1.233944 -0.766521
v -0.509284 1.233944 -0.302182
v -0.509285 0.279937 0.654065
v 0.509285 0.279937 0.654065
v -0.509285 0.559873 0.766521
v -0.509285 0.279937 0.766521
v 0.509285 0.559873 0.766521
v 0.509285 0.279937 0.766521
vt 0.233212 0.060655
vt 0.233212 0.060655
vt 0.233212 0.060655
vt 0.233212 0.060655
vt 0.233212 0.060655
vt 0.326265 0.060655
vt 0.326265 0.060655
vt 0.326265 0.060655
vt 0.326265 0.060655
vt 0.233212 0.060655
vt 0.233212 0.060655
vt 0.233212 0.060655
vt 0.233212 0.060655
vt 0.140959 0.060655
vt 0.140959 0.060655
vt 0.140959 0.060655
vt 0.140959 0.060655
vt 0.171563 0.060655
vt 0.171563 0.060655
vt 0.171563 0.060655
vt 0.171563 0.060655
vt 0.171563 0.060655
vt 0.171563 0.060655
vt 0.171563 0.060655
vt 0.326265 0.060655
vt 0.326265 0.060655
vt 0.326265 0.060655
vt 0.326265 0.060655
vt 0.326265 0.060655
vt 0.326265 0.060655
vt 0.326265 0.060655
vt 0.326265 0.060655
vt 0.326265 0.060655
vt 0.326265 0.060655
vt 0.233212 0.060655
vt 0.233212 0.060655
vt 0.233212 0.060655
vt 0.233212 0.060655
vt 0.203400 0.060655
vt 0.203400 0.060655
vt 0.203400 0.060655
vt 0.203400 0.060655
vt 0.203400 0.060655
vt 0.203400 0.060655
vt 0.203400 0.060655
vt 0.203400 0.060655
vt 0.171563 0.060655
vt 0.171563 0.060655
vt 0.171563 0.060655
vt 0.171563 0.060655
vt 0.171563 0.060655
vt 0.171563 0.060655
vt 0.171563 0.060655
vt 0.171563 0.060655
vt 0.326265 0.060655
vt 0.326265 0.060655
vt 0.326265 0.060655
vt 0.171563 0.060655
vt 0.233212 0.060655
vt 0.262881 0.060655
vt 0.233212 0.060655
vt 0.262881 0.060655
vt 0.262881 0.060655
vt 0.233212 0.060655
vt 0.326265 0.060655
vt 0.233212 0.060655
vt 0.326265 0.060655
vt 0.326265 0.060655
vt 0.233212 0.060655
vt 0.262881 0.060655
vt 0.262881 0.060655
vt 0.262881 0.060655
vt 0.233212 0.060655
vt 0.233212 0.060655
vt 0.233212 0.060655
vt 0.233212 0.060655
vt 0.262881 0.060655
vt 0.233212 0.060655
vt 0.233212 0.060655
vt 0.262881 0.060655
vt 0.233212 0.060655
vt 0.233212 0.060655
vt 0.233212 0.060655
vt 0.233212 0.060655
vt 0.233212 0.060655
vt 0.233212 0.060655
vt 0.233212 0.060655
vt 0.233212 0.060655
vt 0.233212 0.060655
vt 0.233212 0.060655
vn 0.000000 0.000000 -1.000000
vn 0.000000 0.000000 -1.000000
vn 0.000000 0.000000 -1.000000
vn 0.000000 0.000000 -1.000000
vn 0.000000 0.000000 -1.000000
vn 0.000000 0.000000 -1.000000
vn 0.000000 1.000000 0.000000
vn 0.000000 1.000000 0.000000
vn 0.000000 1.000000 0.000000
vn 0.000000 1.000000 0.000000
vn 0.000000 1.000000 0.000000
vn 0.000000 -1.000000 0.000000
vn 0.000000 -1.000000 0.000000
vn 0.000000 -1.000000 0.000000
vn 0.000000 -1.000000 0.000000
vn -1.000000 0.000000 0.000000
vn -1.000000 0.000000 0.000000
vn -1.000000 0.000000 0.000000
vn -1.000000 0.000000 0.000000
vn 0.000000 0.000000 1.000000
vn 0.000000 0.000000 1.000000
vn 0.000000 0.000000 1.000000
vn 0.000000 0.000000 1.000000
vn 0.000000 0.000000 1.000000
vn 0.000000 0.000000 1.000000
vn 0.000000 0.000000 1.000000
vn 0.000000 0.000000 1.000000
vn 0.000000 0.000000 1.000000
vn 0.000000 0.000000 1.000000
vn 0.000000 1.000000 0.000000
vn 0.000000 1.000000 0.000000
vn 0.000000 1.000000 0.000000
vn 0.000000 1.000000 0.000000
vn 0.000000 1.000000 0.000000
vn 0.000000 1.000000 0.000000
vn 0.000000 1.000000 0.000000
vn 0.000000 1.000000 0.000000
vn 0.000000 1.000000 0.000000
vn 1.000000 0.000000 0.000000
vn 1.000000 0.000000 0.000000
vn 1.000000 0.000000 0.000000
vn 1.000000 0.000000 0.000000
vn 0.000000 1.000000 0.000000
vn 0.000000 1.000000 0.000000
vn 0.000000 1.000000 0.000000
vn 0.000000 1.000000 0.000000
vn 0.000000 1.000000 0.000000
vn 0.000000 1.000000 0.000000
vn 0.000000 0.000000 1.000000
vn 0.000000 0.000000 1.000000
vn 0.000000 0.000000 1.000000
vn 0.000000 0.000000 1.000000
vn 0.000000 0.000000 1.000000
vn 0.000000 0.000000 1.000000
vn 1.000000 0.000000 0.000000
vn 1.000000 0.000000 0.000000
vn 1.000000 0.000000 0.000000
vn 1.000000 0.000000 0.000000
vn -1.000000 0.000000 0.000000
vn -1.000000 0.000000 0.000000
vn -1.000000 0.000000 0.000000
vn -1.000000 0.000000 0.000000
vn 1.000000 0.000000 0.000000
vn 1.000000 0.000000 0.000000
vn 1.000000 0.000000 0.000000
vn 1.000000 0.000000 0.000000
vn 0.000000 0.000000 -1.000000
vn 0.000000 0.000000 -1.000000
vn 0.000000 0.000000 -1.000000
vn 0.000000 0.000000 -1.000000
vn -1.000000 0.000000 0.000000
vn -1.000000 0.000000 0.000000
vn -1.000000 0.000000 0.000000
vn -1.000000 0.000000 0.000000
vn 0.000000 0.000000 1.000000
vn 0.000000 0.000000 1.000000
vn 0.000000 0.000000 1.000000
vn 0.000000 0.000000 1.000000
vn -1.000000 0.000000 0.000000
vn -1.000000 0.000000 0.000000
vn -1.000000 0.000000 0.000000
vn -1.000000 0.000000 0.000000
vn 0.000000 -1.000000 0.000000
vn 0.000000 -1.000000 0.000000
vn 0.000000 -1.000000 0.000000
vn 0.000000 -1.000000 0.000000
vn 1.000000 0.000000 0.000000
vn 1.000000 0.000000 0.000000
vn 1.000000 0.000000 0.000000
vn 1.000000 0.000000 0.000000
s off
f 2/88/1 14/3/2 12/82/3 10/85/4 9/2/5 1/90/6
f 9/6/7 10/7/8 11/55/9 17/8/10 18/9/11
f 2/16/12 1/14/13 3/15/14 4/17/15
f 14/20/16 2/18/17 4/19/18 16/21/19
f 16/87/20 4/12/21 3/89/22 18/86/23 17/10/24 6/75/25 24/76/26 23/79/27 5/78/28 15/13/29
f 13/57/30 12/25/31 14/56/32 16/27/33 15/26/34
f 19/29/35 21/30/36 22/31/37 20/28/38
f 9/58/39 18/24/40 3/23/41 1/22/42
f 6/32/43 8/33/44 7/34/45 5/68/46 25/67/47 27/65/48
f 13/81/49 7/35/50 8/36/51 11/84/52 20/37/53 22/38/54
f 5/39/55 7/40/56 13/41/57 15/42/58
f 8/43/59 6/44/60 17/45/61 11/46/62
f 11/47/63 10/48/64 19/49/65 20/50/66
f 10/1/67 12/83/68 21/4/69 19/5/70
f 12/51/71 13/52/72 22/53/73 21/54/74
f 25/72/75 26/62/76 28/77/77 27/63/78
f 5/11/79 23/74/80 26/73/81 25/61/82
f 26/80/83 23/60/84 24/71/85 28/70/86
f 24/59/87 6/66/88 27/69/89 28/64/90
