# This file uses meters as units for non-parametric coordinates.

v -0.400366 0.000000 -0.063388
v -0.400366 0.000000 0.063388
v -0.400366 0.773211 -0.063388
v -0.400366 0.773211 0.063388
v 0.400366 0.773211 -0.063388
v 0.400366 0.773211 0.063388
v 0.400366 0.000000 -0.063388
v 0.400366 0.000000 0.063388
v 0.340923 0.057399 0.063388
v -0.340925 0.057399 0.063388
v 0.340923 0.715812 0.063388
v -0.340925 0.715812 0.063388
vt 0.202546 0.061926
vt 0.178010 0.061926
vt 0.236282 0.061926
vt 0.202546 0.061926
vt 0.178010 0.061926
vt 0.236282 0.061926
vt 0.140184 0.061926
vt 0.178010 0.061926
vt 0.140184 0.061926
vt 0.140184 0.061926
vt 0.202546 0.061926
vt 0.202546 0.061926
vt 0.202546 0.061926
vt 0.202546 0.061926
vt 0.236282 0.061926
vt 0.178010 0.061926
vt 0.178010 0.061926
vt 0.236282 0.061926
vt 0.140184 0.061926
vt 0.178010 0.061926
vt 0.202546 0.061926
vt 0.178010 0.061926
vt 0.178010 0.061926
vt 0.202546 0.061926
vt 0.202546 0.061926
vt 0.202546 0.061926
vt 0.202546 0.061926
vt 0.202546 0.061926
vt 0.735181 0.900587
vt 0.832161 0.900587
vt 0.832161 0.997566
vt 0.735181 0.997566
vn -1.000000 0.000000 0.000000
vn -1.000000 0.000000 0.000000
vn -1.000000 0.000000 0.000000
vn -1.000000 0.000000 0.000000
vn 0.000000 1.000000 0.000000
vn 0.000000 1.000000 0.000000
vn 0.000000 1.000000 0.000000
vn 0.000000 1.000000 0.000000
vn 1.000000 0.000000 0.000000
vn 1.000000 0.000000 0.000000
vn 1.000000 0.000000 0.000000
vn 1.000000 0.000000 0.000000
vn 0.000000 -1.000000 0.000000
vn 0.000000 -1.000000 0.000000
vn 0.000000 -1.000000 0.000000
vn 0.000000 -1.000000 0.000000
vn 0.000000 0.000000 1.000000
vn 0.000000 0.000000 1.000000
vn 0.000000 0.000000 1.000000
vn 0.000000 0.000000 1.000000
vn 0.000000 0.000000 -1.000000
vn 0.000000 0.000000 -1.000000
vn 0.000000 0.000000 -1.000000
vn 0.000000 0.000000 -1.000000
vn 0.000000 0.000000 1.000000
vn 0.000000 0.000000 1.000000
vn 0.000000 0.000000 1.000000
vn 0.000000 0.000000 1.000000
vn 0.000000 0.000000 1.000000
vn 0.000000 0.000000 1.000000
vn 0.000000 0.000000 1.000000
vn 0.000000 0.000000 1.000000
vn 0.000000 0.000000 1.000000
vn 0.000000 0.000000 1.000000
vn 0.000000 0.000000 1.000000
vn 0.000000 0.000000 1.000000
vn -0.000000 0.000000 1.000000
vn -0.000000 0.000000 1.000000
vn -0.000000 0.000000 1.000000
vn -0.000000 0.000000 1.000000
s off
f 1/23/1 2/2/2 4/22/3 3/17/4
f 3/3/5 4/15/6 6/6/7 5/18/8
f 5/5/9 6/16/10 8/8/11 7/20/12
f 7/7/13 8/19/14 2/10/15 1/9/16
f 10/29/17 9/30/18 11/31/19 12/32/20
f 7/13/21 1/1/22 3/24/23 5/14/24
f 2/21/25 8/11/26 9/26/27 10/25/28
f 8/11/29 6/12/30 11/27/31 9/26/32
f 6/12/33 4/4/34 12/28/35 11/27/36
f 4/4/37 2/21/38 10/25/39 12/28/40
