# This file uses meters as units for non-parametric coordinates.

v -0.078845 0.238665 -0.029858
v -0.078845 0.238665 0.127832
v 0.078845 0.238665 -0.029858
v 0.078845 0.238665 0.127832
v -0.078845 0.629048 -0.029858
v -0.078845 0.629048 0.127832
v 0.078845 0.629048 0.127832
v 0.078845 0.629048 -0.029858
v -0.052573 0.629048 -0.003586
v -0.052573 0.629048 0.101560
v -0.052573 0.990586 0.101560
v -0.052573 0.990586 -0.003586
v 0.052573 0.990586 0.101560
v 0.052573 0.990586 -0.003586
v 0.052573 0.629048 0.101560
v 0.052573 0.629048 -0.003586
v -0.394666 0.981786 -0.391412
v -0.471858 0.981786 0.475253
v -0.394666 1.147998 -0.391412
v -0.471858 1.147998 0.475253
v 0.394666 1.147998 -0.391412
v 0.471858 1.147998 0.475253
v 0.394666 0.981786 -0.391412
v 0.471858 0.981786 0.475253
v -0.235186 2.107395 -0.546291
v -0.400000 1.309761 -0.449157
v -0.235186 2.118385 -0.403711
v -0.400000 1.320751 -0.306577
v 0.235186 2.118385 -0.403711
v 0.400000 1.320751 -0.306577
v 0.235186 2.107395 -0.546291
v 0.400000 1.309761 -0.449157
v 0.400000 1.888813 -0.386016
v -0.400000 1.888813 -0.386016
v -0.400000 1.877823 -0.528596
v 0.400000 1.877823 -0.528596
v 0.589891 0.099516 0.095085
v 0.589891 0.099516 -0.001709
v 0.613854 0.188947 0.095085
v 0.613854 0.188947 -0.001709
v 0.067985 0.335212 0.095085
v 0.067985 0.335212 -0.001709
v 0.044022 0.245781 0.095085
v 0.044022 0.245781 -0.001709
v 0.619415 0.000000 0.112421
v 0.619415 0.000000 -0.011533
v 0.619415 0.142195 0.112421
v 0.619415 0.142195 -0.011533
v 0.477221 0.142195 0.112420
v 0.477221 0.142195 -0.011533
v 0.477221 0.000000 0.112420
v 0.477221 0.000000 -0.011533
v -0.589891 0.099516 0.005804
v -0.589891 0.099516 0.102597
v -0.613854 0.188947 0.005804
v -0.613854 0.188947 0.102597
v -0.067985 0.335212 0.005803
v -0.067985 0.335212 0.102597
v -0.044022 0.245781 0.005803
v -0.044022 0.245781 0.102597
v -0.619415 0.000000 -0.011532
v -0.619415 0.000000 0.112421
v -0.619415 0.142195 -0.011532
v -0.619415 0.142195 0.112421
v -0.477221 0.142195 -0.011532
v -0.477221 0.142195 0.112421
v -0.477221 0.000000 -0.011532
v -0.477221 0.000000 0.112421
v 0.044641 0.099516 -0.539447
v -0.052153 0.099516 -0.539447
v 0.044641 0.188947 -0.563410
v -0.052153 0.188947 -0.563410
v 0.044641 0.335212 -0.017541
v -0.052153 0.335212 -0.017541
v 0.044641 0.245781 0.006422
v -0.052153 0.245781 0.006422
v 0.061976 0.000000 -0.568972
v -0.061976 0.000000 -0.568972
v 0.061976 0.142195 -0.568972
v -0.061976 0.142195 -0.568972
v 0.061976 0.142195 -0.426777
v -0.061976 0.142195 -0.426777
v 0.061976 0.000000 -0.426777
v -0.061976 0.000000 -0.426777
v -0.044641 0.099516 0.640335
v 0.052153 0.099516 0.640335
v -0.044641 0.188947 0.664298
v 0.052153 0.188947 0.664298
v -0.044641 0.335212 0.118429
v 0.052153 0.335212 0.118429
v -0.044641 0.245781 0.094466
v 0.052153 0.245781 0.094466
v -0.061976 0.000000 0.669859
v 0.061977 0.000000 0.669859
v -0.061976 0.142195 0.669859
v 0.061977 0.142195 0.669859
v -0.061976 0.142195 0.527664
v 0.061977 0.142195 0.527664
v -0.061976 0.000000 0.527664
v 0.061977 0.000000 0.527664
v -0.062682 0.849952 -0.499451
v -0.062682 0.945164 -0.405730
v -0.062682 1.708221 -0.609863
v -0.062682 1.721632 -0.505618
v 0.062682 1.708221 -0.609863
v 0.062682 1.721632 -0.505619
v 0.062682 0.849952 -0.499451
v 0.062682 0.945164 -0.405730
v 0.062682 0.999385 0.015746
v -0.062682 0.999385 0.015746
v -0.062682 0.917583 0.026271
v 0.062682 0.917583 0.026270
v 0.052169 1.547387 -0.589173
v -0.052169 1.547387 -0.589173
v -0.052169 1.657964 -0.603398
v 0.052169 1.657964 -0.603398
v 0.037324 1.554309 -0.659682
v -0.037324 1.554309 -0.659682
v -0.037324 1.633421 -0.669859
v 0.037324 1.633421 -0.669859
vt 0.202245 0.062038
vt 0.177709 0.062038
vt 0.235982 0.062038
vt 0.202245 0.062038
vt 0.177709 0.062038
vt 0.235982 0.062038
vt 0.139883 0.062038
vt 0.177709 0.062038
vt 0.139883 0.062038
vt 0.139883 0.062038
vt 0.202245 0.062038
vt 0.202245 0.062038
vt 0.202245 0.062038
vt 0.202245 0.062038
vt 0.235982 0.062038
vt 0.177709 0.062038
vt 0.177709 0.062038
vt 0.235982 0.062038
vt 0.139883 0.062038
vt 0.177709 0.062038
vt 0.202245 0.062038
vt 0.177709 0.062038
vt 0.177709 0.062038
vt 0.202245 0.062038
vt 0.202245 0.062038
vt 0.177709 0.062038
vt 0.177709 0.062038
vt 0.202245 0.062038
vt 0.177709 0.062038
vt 0.202245 0.062038
vt 0.202245 0.062038
vt 0.177709 0.062038
vt 0.177709 0.062038
vt 0.177709 0.062038
vt 0.177709 0.062038
vt 0.177709 0.062038
vt 0.202245 0.062038
vt 0.202245 0.062038
vt 0.202245 0.062038
vt 0.202245 0.062038
vt 0.177709 0.062038
vt 0.202245 0.062038
vt 0.177709 0.062038
vt 0.202245 0.062038
vt 0.177709 0.062038
vt 0.202245 0.062038
vt 0.177709 0.062038
vt 0.202245 0.062038
vt 0.202245 0.062038
vt 0.177709 0.062038
vt 0.177709 0.062038
vt 0.202245 0.062038
vt 0.202245 0.062038
vt 0.177709 0.062038
vt 0.177709 0.062038
vt 0.202245 0.062038
vt 0.145170 0.197441
vt 0.145170 0.197441
vt 0.145170 0.197441
vt 0.145170 0.197441
vt 0.203443 0.197441
vt 0.203443 0.197441
vt 0.203443 0.197441
vt 0.203443 0.197441
vt 0.145170 0.197441
vt 0.145170 0.197441
vt 0.145170 0.197441
vt 0.145170 0.197441
vt 0.107344 0.197441
vt 0.107344 0.197441
vt 0.107344 0.197441
vt 0.107344 0.197441
vt 0.169706 0.197441
vt 0.169706 0.197441
vt 0.169706 0.197441
vt 0.169706 0.197441
vt 0.169706 0.197441
vt 0.169706 0.197441
vt 0.169706 0.197441
vt 0.169706 0.197441
vt 0.145170 0.197442
vt 0.145170 0.197441
vt 0.145170 0.197441
vt 0.145170 0.197441
vt 0.203443 0.197441
vt 0.203443 0.197442
vt 0.203443 0.197441
vt 0.203443 0.197441
vt 0.145170 0.197441
vt 0.145170 0.197441
vt 0.145170 0.197441
vt 0.145170 0.197441
vt 0.107344 0.197441
vt 0.107344 0.197441
vt 0.107344 0.197441
vt 0.107344 0.197441
vt 0.169706 0.197441
vt 0.169706 0.197441
vt 0.169706 0.197441
vt 0.169706 0.197441
vt 0.169706 0.197441
vt 0.169706 0.197441
vt 0.169706 0.197441
vt 0.169706 0.197441
vt 0.203443 0.197441
vt 0.203443 0.197442
vt 0.203443 0.197441
vt 0.203443 0.197441
vt 0.145170 0.197441
vt 0.145170 0.197441
vt 0.145170 0.197442
vt 0.145170 0.197441
vt 0.107344 0.197441
vt 0.107344 0.197441
vt 0.107344 0.197441
vt 0.107344 0.197441
vt 0.145170 0.197441
vt 0.145170 0.197441
vt 0.145170 0.197441
vt 0.145170 0.197441
vt 0.174817 0.060592
vt 0.174817 0.060592
vt 0.174817 0.060592
vt 0.174817 0.060592
vt 0.233090 0.060592
vt 0.233090 0.060592
vt 0.233090 0.060592
vt 0.233090 0.060592
vt 0.174817 0.060592
vt 0.174817 0.060592
vt 0.174817 0.060592
vt 0.174817 0.060592
vt 0.136991 0.060592
vt 0.136991 0.060592
vt 0.136991 0.060592
vt 0.136991 0.060592
vt 0.199353 0.060592
vt 0.199353 0.060592
vt 0.199353 0.060592
vt 0.199353 0.060592
vt 0.199353 0.060592
vt 0.199353 0.060592
vt 0.199353 0.060592
vt 0.199353 0.060592
vt 0.170696 0.062799
vt 0.170696 0.062799
vt 0.170696 0.062799
vt 0.170696 0.062799
vt 0.228969 0.062799
vt 0.228969 0.062799
vt 0.228969 0.062799
vt 0.228969 0.062799
vt 0.170696 0.062799
vt 0.170696 0.062799
vt 0.170696 0.062799
vt 0.170696 0.062799
vt 0.132870 0.062799
vt 0.132870 0.062799
vt 0.132870 0.062799
vt 0.132870 0.062799
vt 0.195232 0.062799
vt 0.195232 0.062799
vt 0.195232 0.062799
vt 0.195232 0.062799
vt 0.195232 0.062799
vt 0.195232 0.062799
vt 0.195232 0.062799
vt 0.195232 0.062799
vt 0.174817 0.060592
vt 0.174817 0.060592
vt 0.174817 0.060592
vt 0.174817 0.060592
vt 0.233090 0.060592
vt 0.233090 0.060592
vt 0.233090 0.060592
vt 0.233090 0.060592
vt 0.174817 0.060592
vt 0.174817 0.060592
vt 0.174817 0.060592
vt 0.174817 0.060592
vt 0.136991 0.060592
vt 0.136991 0.060592
vt 0.136991 0.060592
vt 0.136991 0.060592
vt 0.199353 0.060592
vt 0.199353 0.060592
vt 0.199353 0.060592
vt 0.199353 0.060592
vt 0.199353 0.060592
vt 0.199353 0.060592
vt 0.199353 0.060592
vt 0.199353 0.060592
vt 0.170696 0.062799
vt 0.170696 0.062799
vt 0.170696 0.062799
vt 0.170696 0.062799
vt 0.228969 0.062799
vt 0.228969 0.062799
vt 0.228969 0.062799
vt 0.228969 0.062799
vt 0.170696 0.062799
vt 0.170696 0.062799
vt 0.170696 0.062799
vt 0.170696 0.062799
vt 0.132870 0.062799
vt 0.132870 0.062799
vt 0.132870 0.062799
vt 0.132870 0.062799
vt 0.195232 0.062799
vt 0.195232 0.062799
vt 0.195232 0.062799
vt 0.195232 0.062799
vt 0.195232 0.062799
vt 0.195232 0.062799
vt 0.195232 0.062799
vt 0.195232 0.062799
vt 0.174817 0.060592
vt 0.174817 0.060592
vt 0.174817 0.060592
vt 0.174817 0.060592
vt 0.233090 0.060592
vt 0.233090 0.060592
vt 0.233090 0.060592
vt 0.233090 0.060592
vt 0.174817 0.060592
vt 0.174817 0.060592
vt 0.174817 0.060592
vt 0.174817 0.060592
vt 0.136991 0.060592
vt 0.136991 0.060592
vt 0.136991 0.060592
vt 0.136991 0.060592
vt 0.199353 0.060592
vt 0.199353 0.060592
vt 0.199353 0.060592
vt 0.199353 0.060592
vt 0.199353 0.060592
vt 0.199353 0.060592
vt 0.199353 0.060592
vt 0.199353 0.060592
vt 0.170696 0.062799
vt 0.170696 0.062799
vt 0.170696 0.062799
vt 0.170696 0.062799
vt 0.228969 0.062799
vt 0.228969 0.062799
vt 0.228969 0.062799
vt 0.228969 0.062799
vt 0.170696 0.062799
vt 0.170696 0.062799
vt 0.170696 0.062799
vt 0.170696 0.062799
vt 0.132870 0.062799
vt 0.132870 0.062799
vt 0.132870 0.062799
vt 0.132870 0.062799
vt 0.195232 0.062799
vt 0.195232 0.062799
vt 0.195232 0.062799
vt 0.195232 0.062799
vt 0.195232 0.062799
vt 0.195232 0.062799
vt 0.195232 0.062799
vt 0.195232 0.062799
vt 0.174817 0.060592
vt 0.174817 0.060592
vt 0.174817 0.060592
vt 0.174817 0.060592
vt 0.233090 0.060592
vt 0.233090 0.060592
vt 0.233090 0.060592
vt 0.233090 0.060592
vt 0.174817 0.060592
vt 0.174817 0.060592
vt 0.174817 0.060592
vt 0.174817 0.060592
vt 0.136991 0.060592
vt 0.136991 0.060592
vt 0.136991 0.060592
vt 0.136991 0.060592
vt 0.199353 0.060592
vt 0.199353 0.060592
vt 0.199353 0.060592
vt 0.199353 0.060592
vt 0.199353 0.060592
vt 0.199353 0.060592
vt 0.199353 0.060592
vt 0.199353 0.060592
vt 0.170696 0.062799
vt 0.170696 0.062799
vt 0.170696 0.062799
vt 0.170696 0.062799
vt 0.228969 0.062799
vt 0.228969 0.062799
vt 0.228969 0.062799
vt 0.228969 0.062799
vt 0.170696 0.062799
vt 0.170696 0.062799
vt 0.170696 0.062799
vt 0.170696 0.062799
vt 0.132870 0.062799
vt 0.132870 0.062799
vt 0.132870 0.062799
vt 0.132870 0.062799
vt 0.195232 0.062799
vt 0.195232 0.062799
vt 0.195232 0.062799
vt 0.195232 0.062799
vt 0.195232 0.062799
vt 0.195232 0.062799
vt 0.195232 0.062799
vt 0.195232 0.062799
vt 0.175329 0.058706
vt 0.175329 0.058706
vt 0.175329 0.058706
vt 0.175329 0.058706
vt 0.233602 0.058706
vt 0.233602 0.058706
vt 0.233602 0.058706
vt 0.233602 0.058706
vt 0.175329 0.058706
vt 0.175329 0.058706
vt 0.175329 0.058706
vt 0.175329 0.058706
vt 0.199865 0.058706
vt 0.199865 0.058706
vt 0.199865 0.058706
vt 0.199865 0.058706
vt 0.199865 0.058706
vt 0.199865 0.058706
vt 0.199865 0.058706
vt 0.199865 0.058706
vt 0.137503 0.058706
vt 0.137503 0.058706
vt 0.137503 0.058706
vt 0.137503 0.058706
vt 0.137503 0.058706
vt 0.137503 0.058706
vt 0.137503 0.058706
vt 0.137503 0.058706
vt 0.171727 0.058706
vt 0.171727 0.058706
vt 0.171727 0.058706
vt 0.171727 0.058706
vt 0.137503 0.058706
vt 0.137503 0.058706
vt 0.137503 0.058706
vt 0.137503 0.058706
vt 0.171727 0.058706
vt 0.171727 0.058706
vt 0.171727 0.058706
vt 0.171727 0.058706
vt 0.199865 0.058706
vt 0.199865 0.058706
vt 0.199865 0.058706
vt 0.199865 0.058706
vt 0.199865 0.058706
vt 0.199865 0.058706
vt 0.199865 0.058706
vt 0.199865 0.058706
vt 0.173763 0.061079
vt 0.173763 0.061079
vt 0.173763 0.061079
vt 0.173763 0.061079
vt 0.173763 0.061079
vt 0.173763 0.061079
vt 0.173763 0.061079
vt 0.173763 0.061079
vt 0.228340 0.061079
vt 0.228340 0.061079
vt 0.228340 0.061079
vt 0.228340 0.061079
vt 0.173763 0.061079
vt 0.173763 0.061079
vt 0.173763 0.061079
vt 0.173763 0.061079
vn -1.000000 0.000000 0.000000
vn -1.000000 0.000000 0.000000
vn -1.000000 0.000000 0.000000
vn -1.000000 0.000000 0.000000
vn 0.000000 1.000000 0.000000
vn 0.000000 1.000000 0.000000
vn 0.000000 1.000000 0.000000
vn 0.000000 1.000000 0.000000
vn 1.000000 0.000000 0.000000
vn 1.000000 0.000000 0.000000
vn 1.000000 0.000000 0.000000
vn 1.000000 0.000000 0.000000
vn 0.000000 -1.000000 0.000000
vn 0.000000 -1.000000 0.000000
vn 0.000000 -1.000000 0.000000
vn 0.000000 -1.000000 0.000000
vn 0.000000 0.000000 1.000000
vn 0.000000 0.000000 1.000000
vn 0.000000 0.000000 1.000000
vn 0.000000 0.000000 1.000000
vn 0.000000 0.000000 -1.000000
vn 0.000000 0.000000 -1.000000
vn 0.000000 0.000000 -1.000000
vn 0.000000 0.000000 -1.000000
vn -1.000000 0.000000 0.000000
vn -1.000000 0.000000 0.000000
vn -1.000000 0.000000 0.000000
vn -1.000000 0.000000 0.000000
vn 0.000002 0.000000 1.000000
vn 0.000002 0.000000 1.000000
vn 0.000002 0.000000 1.000000
vn 0.000002 0.000000 1.000000
vn 1.000000 0.000000 0.000000
vn 1.000000 0.000000 0.000000
vn 1.000000 0.000000 0.000000
vn 1.000000 0.000000 0.000000
vn -0.000002 0.000000 -1.000000
vn -0.000002 0.000000 -1.000000
vn -0.000002 0.000000 -1.000000
vn -0.000002 0.000000 -1.000000
vn 0.000000 1.000000 0.000000
vn 0.000000 1.000000 0.000000
vn 0.000000 1.000000 0.000000
vn 0.000000 1.000000 0.000000
vn 0.000000 1.000000 0.000000
vn 0.000000 1.000000 0.000000
vn 0.000000 1.000000 0.000000
vn 0.000000 1.000000 0.000000
vn 0.000000 1.000000 0.000000
vn 0.000000 1.000000 0.000000
vn 0.000000 1.000000 0.000000
vn 0.000000 1.000000 0.000000
vn 0.000000 1.000000 0.000000
vn 0.000000 1.000000 0.000000
vn 0.000000 1.000000 0.000000
vn 0.000000 1.000000 0.000000
vn -0.996057 0.000000 -0.088717
vn -0.996057 0.000000 -0.088717
vn -0.996057 0.000000 -0.088717
vn -0.996057 0.000000 -0.088717
vn 0.000000 1.000000 0.000000
vn 0.000000 1.000000 0.000000
vn 0.000000 1.000000 0.000000
vn 0.000000 1.000000 0.000000
vn 0.996057 0.000000 -0.088717
vn 0.996057 0.000000 -0.088717
vn 0.996057 0.000000 -0.088717
vn 0.996057 0.000000 -0.088717
vn 0.000000 -1.000000 0.000000
vn 0.000000 -1.000000 0.000000
vn 0.000000 -1.000000 0.000000
vn 0.000000 -1.000000 0.000000
vn -0.000000 0.000000 1.000000
vn -0.000000 0.000000 1.000000
vn -0.000000 0.000000 1.000000
vn -0.000000 0.000000 1.000000
vn 0.000000 0.000000 -1.000000
vn 0.000000 0.000000 -1.000000
vn 0.000000 0.000000 -1.000000
vn 0.000000 0.000000 -1.000000
vn -0.980639 0.195247 -0.015048
vn -0.978404 0.206089 -0.015884
vn -1.000000 0.000000 0.000001
vn -1.000000 0.000000 0.000001
vn -0.000000 0.128570 0.991700
vn -0.000000 0.128570 0.991700
vn 0.000000 0.138496 0.990363
vn 0.000000 0.138496 0.990363
vn 0.978404 0.206089 -0.015885
vn 0.980639 0.195247 -0.015049
vn 1.000000 -0.000000 0.000000
vn 1.000000 -0.000000 0.000000
vn 0.000000 -0.128570 -0.991700
vn 0.000000 -0.128570 -0.991700
vn 0.000000 -0.138495 -0.990363
vn 0.000000 -0.138495 -0.990363
vn 0.000000 -0.997043 0.076850
vn 0.000000 -0.997043 0.076850
vn 0.000000 -0.997043 0.076850
vn 0.000000 -0.997043 0.076850
vn 0.000000 0.997043 -0.076849
vn 0.000000 0.997043 -0.076849
vn 0.000000 0.997043 -0.076849
vn 0.000000 0.997043 -0.076849
vn -0.000000 0.076848 0.997043
vn -0.000000 0.128570 0.991700
vn -0.000000 0.128570 0.991700
vn -0.000000 0.076848 0.997043
vn -0.813153 0.580329 -0.044730
vn -0.978404 0.206089 -0.015884
vn -0.980639 0.195247 -0.015048
vn -0.813153 0.580329 -0.044730
vn 0.000000 -0.076850 -0.997043
vn 0.000000 -0.128570 -0.991700
vn 0.000000 -0.128570 -0.991700
vn 0.000000 -0.076850 -0.997043
vn 0.813152 0.580330 -0.044731
vn 0.980639 0.195247 -0.015049
vn 0.978404 0.206089 -0.015885
vn 0.813152 0.580330 -0.044731
vn 0.965926 -0.258817 0.000000
vn 0.965926 -0.258817 0.000000
vn 0.965926 -0.258817 0.000000
vn 0.965926 -0.258817 0.000000
vn 0.258819 0.965926 0.000000
vn 0.258819 0.965926 0.000000
vn 0.258819 0.965926 0.000000
vn 0.258819 0.965926 0.000000
vn -0.965926 0.258817 0.000000
vn -0.965926 0.258817 0.000000
vn -0.965926 0.258817 0.000000
vn -0.965926 0.258817 0.000000
vn -0.258819 -0.965926 0.000000
vn -0.258819 -0.965926 0.000000
vn -0.258819 -0.965926 0.000000
vn -0.258819 -0.965926 0.000000
vn -0.000000 0.000000 -1.000000
vn -0.000000 0.000000 -1.000000
vn -0.000000 0.000000 -1.000000
vn -0.000000 0.000000 -1.000000
vn 0.000000 -0.000000 1.000000
vn 0.000000 -0.000000 1.000000
vn 0.000000 -0.000000 1.000000
vn 0.000000 -0.000000 1.000000
vn 1.000000 0.000000 0.000000
vn 1.000000 0.000000 0.000000
vn 1.000000 0.000000 0.000000
vn 1.000000 0.000000 0.000000
vn 0.000000 1.000000 0.000000
vn 0.000000 1.000000 0.000000
vn 0.000000 1.000000 0.000000
vn 0.000000 1.000000 0.000000
vn -1.000000 0.000000 0.000000
vn -1.000000 0.000000 0.000000
vn -1.000000 0.000000 0.000000
vn -1.000000 0.000000 0.000000
vn 0.000000 -1.000000 0.000000
vn 0.000000 -1.000000 0.000000
vn 0.000000 -1.000000 0.000000
vn 0.000000 -1.000000 0.000000
vn 0.000001 0.000000 -1.000000
vn 0.000001 0.000000 -1.000000
vn 0.000001 0.000000 -1.000000
vn 0.000001 0.000000 -1.000000
vn -0.000001 0.000000 1.000000
vn -0.000001 0.000000 1.000000
vn -0.000001 0.000000 1.000000
vn -0.000001 0.000000 1.000000
vn -0.965926 -0.258817 0.000000
vn -0.965926 -0.258817 0.000000
vn -0.965926 -0.258817 0.000000
vn -0.965926 -0.258817 0.000000
vn -0.258819 0.965926 0.000000
vn -0.258819 0.965926 0.000000
vn -0.258819 0.965926 0.000000
vn -0.258819 0.965926 0.000000
vn 0.965926 0.258817 0.000000
vn 0.965926 0.258817 0.000000
vn 0.965926 0.258817 0.000000
vn 0.965926 0.258817 0.000000
vn 0.258819 -0.965926 0.000000
vn 0.258819 -0.965926 0.000000
vn 0.258819 -0.965926 0.000000
vn 0.258819 -0.965926 0.000000
vn 0.000000 0.000000 1.000000
vn 0.000000 0.000000 1.000000
vn 0.000000 0.000000 1.000000
vn 0.000000 0.000000 1.000000
vn -0.000000 -0.000000 -1.000000
vn -0.000000 -0.000000 -1.000000
vn -0.000000 -0.000000 -1.000000
vn -0.000000 -0.000000 -1.000000
vn -1.000000 0.000000 0.000000
vn -1.000000 0.000000 0.000000
vn -1.000000 0.000000 0.000000
vn -1.000000 0.000000 0.000000
vn 0.000000 1.000000 0.000000
vn 0.000000 1.000000 0.000000
vn 0.000000 1.000000 0.000000
vn 0.000000 1.000000 0.000000
vn 1.000000 0.000000 0.000000
vn 1.000000 0.000000 0.000000
vn 1.000000 0.000000 0.000000
vn 1.000000 0.000000 0.000000
vn 0.000000 -1.000000 0.000000
vn 0.000000 -1.000000 0.000000
vn 0.000000 -1.000000 0.000000
vn 0.000000 -1.000000 0.000000
vn -0.000001 0.000000 1.000000
vn -0.000001 0.000000 1.000000
vn -0.000001 0.000000 1.000000
vn -0.000001 0.000000 1.000000
vn 0.000001 0.000000 -1.000000
vn 0.000001 0.000000 -1.000000
vn 0.000001 0.000000 -1.000000
vn 0.000001 0.000000 -1.000000
vn 0.000000 -0.258817 -0.965926
vn 0.000000 -0.258817 -0.965926
vn 0.000000 -0.258817 -0.965926
vn 0.000000 -0.258817 -0.965926
vn 0.000000 0.965926 -0.258819
vn 0.000000 0.965926 -0.258819
vn 0.000000 0.965926 -0.258819
vn 0.000000 0.965926 -0.258819
vn 0.000000 0.258817 0.965926
vn 0.000000 0.258817 0.965926
vn 0.000000 0.258817 0.965926
vn 0.000000 0.258817 0.965926
vn 0.000000 -0.965926 0.258819
vn 0.000000 -0.965926 0.258819
vn 0.000000 -0.965926 0.258819
vn 0.000000 -0.965926 0.258819
vn -1.000000 -0.000000 0.000000
vn -1.000000 -0.000000 0.000000
vn -1.000000 -0.000000 0.000000
vn -1.000000 -0.000000 0.000000
vn 1.000000 0.000000 0.000000
vn 1.000000 0.000000 0.000000
vn 1.000000 0.000000 0.000000
vn 1.000000 0.000000 0.000000
vn 0.000000 0.000000 -1.000000
vn 0.000000 0.000000 -1.000000
vn 0.000000 0.000000 -1.000000
vn 0.000000 0.000000 -1.000000
vn 0.000000 1.000000 0.000000
vn 0.000000 1.000000 0.000000
vn 0.000000 1.000000 0.000000
vn 0.000000 1.000000 0.000000
vn 0.000000 0.000000 1.000000
vn 0.000000 0.000000 1.000000
vn 0.000000 0.000000 1.000000
vn 0.000000 0.000000 1.000000
vn 0.000000 -1.000000 0.000000
vn 0.000000 -1.000000 0.000000
vn 0.000000 -1.000000 0.000000
vn 0.000000 -1.000000 0.000000
vn -1.000000 0.000000 0.000000
vn -1.000000 0.000000 0.000000
vn -1.000000 0.000000 0.000000
vn -1.000000 0.000000 0.000000
vn 1.000000 0.000000 0.000000
vn 1.000000 0.000000 0.000000
vn 1.000000 0.000000 0.000000
vn 1.000000 0.000000 0.000000
vn 0.000000 -0.258822 0.965925
vn 0.000000 -0.258822 0.965925
vn 0.000000 -0.258822 0.965925
vn 0.000000 -0.258822 0.965925
vn 0.000000 0.965926 0.258819
vn 0.000000 0.965926 0.258819
vn 0.000000 0.965926 0.258819
vn 0.000000 0.965926 0.258819
vn 0.000000 0.258817 -0.965926
vn 0.000000 0.258817 -0.965926
vn 0.000000 0.258817 -0.965926
vn 0.000000 0.258817 -0.965926
vn 0.000000 -0.965926 -0.258819
vn 0.000000 -0.965926 -0.258819
vn 0.000000 -0.965926 -0.258819
vn 0.000000 -0.965926 -0.258819
vn 1.000000 0.000000 0.000000
vn 1.000000 0.000000 0.000000
vn 1.000000 0.000000 0.000000
vn 1.000000 0.000000 0.000000
vn -1.000000 0.000000 0.000000
vn -1.000000 0.000000 0.000000
vn -1.000000 0.000000 0.000000
vn -1.000000 0.000000 0.000000
vn 0.000000 0.000000 1.000000
vn 0.000000 0.000000 1.000000
vn 0.000000 0.000000 1.000000
vn 0.000000 0.000000 1.000000
vn 0.000000 1.000000 0.000000
vn 0.000000 1.000000 0.000000
vn 0.000000 1.000000 0.000000
vn 0.000000 1.000000 0.000000
vn 0.000000 0.000000 -1.000000
vn 0.000000 0.000000 -1.000000
vn 0.000000 0.000000 -1.000000
vn 0.000000 0.000000 -1.000000
vn 0.000000 -1.000000 0.000000
vn 0.000000 -1.000000 0.000000
vn 0.000000 -1.000000 0.000000
vn 0.000000 -1.000000 0.000000
vn 1.000000 0.000000 0.000000
vn 1.000000 0.000000 0.000000
vn 1.000000 0.000000 0.000000
vn 1.000000 0.000000 0.000000
vn -1.000000 0.000000 0.000000
vn -1.000000 0.000000 0.000000
vn -1.000000 0.000000 0.000000
vn -1.000000 0.000000 0.000000
vn -1.000000 0.000000 0.000000
vn -1.000000 0.000000 0.000000
vn -1.000000 0.000000 0.000000
vn -1.000000 0.000000 0.000000
vn -0.000000 0.991826 -0.127595
vn -0.000000 0.991826 -0.127595
vn -0.000000 0.991826 -0.127595
vn -0.000000 0.991826 -0.127595
vn 1.000000 0.000000 0.000000
vn 1.000000 0.000000 0.000000
vn 1.000000 0.000000 0.000000
vn 1.000000 0.000000 0.000000
vn 0.000003 0.127594 0.991827
vn 0.000003 0.127594 0.991827
vn 0.000003 0.127594 0.991827
vn 0.000003 0.127594 0.991827
vn 0.000003 -0.127590 -0.991827
vn 0.000003 -0.127590 -0.991827
vn 0.000003 -0.127590 -0.991827
vn 0.000003 -0.127590 -0.991827
vn 0.000003 0.127605 0.991825
vn 0.000003 0.127605 0.991825
vn 0.000003 0.127605 0.991825
vn 0.000003 0.127605 0.991825
vn -0.000000 0.991827 -0.127593
vn -0.000000 0.991827 -0.127593
vn -0.000000 0.991827 -0.127593
vn -0.000000 0.991827 -0.127593
vn -1.000000 0.000000 0.000000
vn -1.000000 0.000000 0.000000
vn -1.000000 0.000000 0.000000
vn -1.000000 0.000000 0.000000
vn 0.000000 -0.991827 0.127594
vn 0.000000 -0.991827 0.127594
vn 0.000000 -0.991827 0.127594
vn 0.000000 -0.991827 0.127594
vn 1.000000 0.000000 0.000000
vn 1.000000 0.000000 0.000000
vn 1.000000 0.000000 0.000000
vn 1.000000 0.000000 0.000000
vn 0.000000 -0.127594 -0.991827
vn 0.000000 -0.127594 -0.991827
vn 0.000000 -0.127594 -0.991827
vn 0.000000 -0.127594 -0.991827
vn -0.000041 -0.127593 -0.991827
vn -0.000041 -0.127593 -0.991827
vn -0.000041 -0.127593 -0.991827
vn -0.000041 -0.127593 -0.991827
vn 0.000000 -0.127597 -0.991826
vn 0.000000 -0.127597 -0.991826
vn 0.000000 -0.127597 -0.991826
vn 0.000000 -0.127597 -0.991826
vn -0.000028 -0.127593 -0.991827
vn -0.000028 -0.127593 -0.991827
vn -0.000028 -0.127593 -0.991827
vn -0.000028 -0.127593 -0.991827
vn 0.000000 -0.995215 -0.097708
vn 0.000000 -0.995215 -0.097708
vn 0.000000 -0.995215 -0.097708
vn 0.000000 -0.995215 -0.097708
vn -0.977661 -0.026818 -0.208469
vn -0.977661 -0.026818 -0.208469
vn -0.977661 -0.026818 -0.208469
vn -0.977661 -0.026818 -0.208469
vn 0.000001 0.938080 -0.346419
vn 0.000001 0.938080 -0.346419
vn 0.000001 0.938080 -0.346419
vn 0.000001 0.938080 -0.346419
vn 0.977661 -0.026818 -0.208468
vn 0.977661 -0.026818 -0.208469
vn 0.977661 -0.026818 -0.208468
vn 0.977661 -0.026818 -0.208469
s off
f 9/33/1 10/45/2 11/22/3 12/17/4
f 12/3/5 11/15/6 13/6/7 14/18/8
f 14/5/9 13/16/10 15/35/11 16/41/12
f 3/7/13 4/19/14 2/10/15 1/9/16
f 10/46/17 15/38/18 13/12/19 11/4/20
f 16/42/21 9/40/22 12/24/23 14/14/24
f 1/23/25 2/2/26 6/27/27 5/55/28
f 2/21/29 4/11/30 7/30/31 6/53/32
f 8/32/33 7/51/34 4/8/35 3/20/36
f 3/13/37 1/1/38 5/25/39 8/49/40
f 5/26/41 6/54/42 10/34/43 9/43/44
f 7/29/45 8/50/46 16/36/47 15/47/48
f 6/28/49 7/52/50 15/48/51 10/37/52
f 8/31/53 5/56/54 9/44/55 16/39/56
f 17/57/57 18/58/58 20/59/59 19/60/60
f 19/61/61 20/62/62 22/63/63 21/64/64
f 21/65/65 22/66/66 24/67/67 23/68/68
f 23/69/69 24/70/70 18/71/71 17/72/72
f 18/73/73 24/74/74 22/75/75 20/76/76
f 23/77/77 17/78/78 19/79/79 21/80/80
f 34/81/81 35/82/82 26/83/83 28/84/84
f 33/85/85 34/86/86 28/87/87 30/88/88
f 36/89/89 33/90/90 30/91/91 32/92/92
f 35/93/93 36/94/94 32/95/95 26/96/96
f 26/97/97 32/98/98 30/99/99 28/100/100
f 31/101/101 25/102/102 27/103/103 29/104/104
f 27/105/105 34/106/106 33/107/107 29/108/108
f 25/109/109 35/110/110 34/111/111 27/112/112
f 31/113/113 36/114/114 35/115/115 25/116/116
f 29/117/117 33/118/118 36/119/119 31/120/120
f 37/121/121 38/122/122 40/123/123 39/124/124
f 39/125/125 40/126/126 42/127/127 41/128/128
f 41/129/129 42/130/130 44/131/131 43/132/132
f 43/133/133 44/134/134 38/135/135 37/136/136
f 38/137/137 44/138/138 42/139/139 40/140/140
f 43/141/141 37/142/142 39/143/143 41/144/144
f 45/145/145 46/146/146 48/147/147 47/148/148
f 47/149/149 48/150/150 50/151/151 49/152/152
f 49/153/153 50/154/154 52/155/155 51/156/156
f 51/157/157 52/158/158 46/159/159 45/160/160
f 46/161/161 52/162/162 50/163/163 48/164/164
f 51/165/165 45/166/166 47/167/167 49/168/168
f 53/169/169 54/170/170 56/171/171 55/172/172
f 55/173/173 56/174/174 58/175/175 57/176/176
f 57/177/177 58/178/178 60/179/179 59/180/180
f 59/181/181 60/182/182 54/183/183 53/184/184
f 54/185/185 60/186/186 58/187/187 56/188/188
f 59/189/189 53/190/190 55/191/191 57/192/192
f 61/193/193 62/194/194 64/195/195 63/196/196
f 63/197/197 64/198/198 66/199/199 65/200/200
f 65/201/201 66/202/202 68/203/203 67/204/204
f 67/205/205 68/206/206 62/207/207 61/208/208
f 62/209/209 68/210/210 66/211/211 64/212/212
f 67/213/213 61/214/214 63/215/215 65/216/216
f 69/217/217 70/218/218 72/219/219 71/220/220
f 71/221/221 72/222/222 74/223/223 73/224/224
f 73/225/225 74/226/226 76/227/227 75/228/228
f 75/229/229 76/230/230 70/231/231 69/232/232
f 70/233/233 76/234/234 74/235/235 72/236/236
f 75/237/237 69/238/238 71/239/239 73/240/240
f 77/241/241 78/242/242 80/243/243 79/244/244
f 79/245/245 80/246/246 82/247/247 81/248/248
f 81/249/249 82/250/250 84/251/251 83/252/252
f 83/253/253 84/254/254 78/255/255 77/256/256
f 78/257/257 84/258/258 82/259/259 80/260/260
f 83/261/261 77/262/262 79/263/263 81/264/264
f 85/265/265 86/266/266 88/267/267 87/268/268
f 87/269/269 88/270/270 90/271/271 89/272/272
f 89/273/273 90/274/274 92/275/275 91/276/276
f 91/277/277 92/278/278 86/279/279 85/280/280
f 86/281/281 92/282/282 90/283/283 88/284/284
f 91/285/285 85/286/286 87/287/287 89/288/288
f 93/289/289 94/290/290 96/291/291 95/292/292
f 95/293/293 96/294/294 98/295/295 97/296/296
f 97/297/297 98/298/298 100/299/299 99/300/300
f 99/301/301 100/302/302 94/303/303 93/304/304
f 94/305/305 100/306/306 98/307/307 96/308/308
f 99/309/309 93/310/310 95/311/311 97/312/312
f 101/313/313 102/314/314 104/315/315 103/316/316
f 103/317/317 104/318/318 106/319/319 105/320/320
f 105/321/321 106/322/322 108/323/323 107/324/324
f 102/325/325 108/326/326 106/327/327 104/328/328
f 117/329/329 118/330/330 119/331/331 120/332/332
f 109/333/333 110/334/334 111/335/335 112/336/336
f 108/337/337 102/338/338 110/339/339 109/340/340
f 102/341/341 101/342/342 111/343/343 110/344/344
f 101/345/345 107/346/346 112/347/347 111/348/348
f 107/349/349 108/350/350 109/351/351 112/352/352
f 107/353/353 101/354/354 114/355/355 113/356/356
f 101/354/357 103/357/358 115/358/359 114/355/360
f 103/357/361 105/359/362 116/360/363 115/358/364
f 105/359/365 107/353/366 113/356/367 116/360/368
f 113/361/369 114/362/370 118/363/371 117/364/372
f 114/365/373 115/366/374 119/367/375 118/368/376
f 115/369/377 116/370/378 120/371/379 119/372/380
f 116/373/381 113/374/382 117/375/383 120/376/384
