# This file uses meters as units for non-parametric coordinates.

v -0.136558 0.000000 0.104166
v 0.071775 0.000000 0.104166
v -0.136558 0.269385 0.104166
v 0.071775 0.269385 0.104166
v -0.136558 0.269385 -0.104166
v 0.071775 0.269385 -0.104166
v -0.136558 0.000000 -0.104166
v 0.071775 0.000000 -0.104166
v 0.071775 0.061503 -0.029499
v 0.071775 0.061503 0.029498
v 0.071775 0.207882 -0.029499
v 0.071775 0.207882 0.029498
v 0.136558 0.061503 -0.029499
v 0.136558 0.061503 0.029498
v 0.136558 0.207882 -0.029499
v 0.136558 0.207882 0.029498
v -0.099524 0.269385 0.067133
v 0.034741 0.269385 0.067133
v 0.034741 0.269385 -0.067132
v -0.099524 0.269385 -0.067132
v -0.099524 0.206743 0.067133
v 0.034741 0.206743 0.067133
v 0.034741 0.206743 -0.067132
v -0.099524 0.206743 -0.067132
v 0.071775 0.171018 0.029498
v 0.106316 0.171018 0.029499
v 0.071775 0.099292 0.029498
v 0.106316 0.099292 0.029498
v 0.071775 0.171018 -0.029499
v 0.106316 0.171018 -0.029499
v 0.106316 0.099292 -0.029499
v 0.071775 0.099292 -0.029499
vt 0.291508 0.444068
vt 0.234642 0.444068
vt 0.325245 0.444068
vt 0.291508 0.444068
vt 0.266972 0.444068
vt 0.325245 0.444068
vt 0.229146 0.444068
vt 0.266972 0.444068
vt 0.229146 0.444068
vt 0.229146 0.444068
vt 0.291508 0.444068
vt 0.291508 0.444068
vt 0.291508 0.444068
vt 0.291508 0.444068
vt 0.325245 0.444068
vt 0.266972 0.444068
vt 0.234642 0.444068
vt 0.325245 0.444068
vt 0.229146 0.444068
vt 0.266972 0.444068
vt 0.291508 0.444068
vt 0.234642 0.444068
vt 0.234642 0.444068
vt 0.291508 0.444068
vt 0.259178 0.444068
vt 0.259178 0.444068
vt 0.328009 0.444068
vt 0.259178 0.444068
vt 0.291508 0.444068
vt 0.259178 0.444068
vt 0.328009 0.444068
vt 0.259178 0.444068
vt 0.205312 0.444068
vt 0.233470 0.444068
vt 0.205312 0.444068
vt 0.233470 0.444068
vt 0.205312 0.444068
vt 0.233470 0.444068
vt 0.205312 0.444068
vt 0.233470 0.444068
vt 0.198691 0.398696
vt 0.198691 0.398696
vt 0.198691 0.398696
vt 0.198691 0.398696
vt 0.259178 0.444068
vt 0.259178 0.444068
vt 0.328009 0.444068
vt 0.291508 0.444068
vt 0.259178 0.444068
vt 0.259178 0.444068
vt 0.291508 0.444068
vt 0.259178 0.444068
vt 0.291508 0.444068
vt 0.259178 0.444068
vt 0.291508 0.444068
vt 0.259178 0.444068
vt 0.291508 0.444068
vt 0.291508 0.444068
vt 0.328009 0.444068
vt 0.291508 0.444068
vt 0.233470 0.444068
vt 0.205312 0.444068
vt 0.233470 0.444068
vt 0.325245 0.444068
vt 0.205312 0.444068
vt 0.205312 0.444068
vt 0.325245 0.444068
vt 0.233470 0.444068
vt 0.325245 0.444068
vt 0.205312 0.444068
vt 0.325245 0.444068
vt 0.233470 0.444068
vt 0.291508 0.444068
vt 0.259178 0.444068
vt 0.175747 0.444068
vt 0.291508 0.444068
vt 0.259178 0.444068
vt 0.259178 0.444068
vt 0.291508 0.444068
vt 0.259178 0.444068
vt 0.259178 0.444068
vt 0.259178 0.444068
vt 0.291508 0.444068
vt 0.175747 0.444068
vt 0.175747 0.444068
vt 0.259178 0.444068
vt 0.175747 0.444068
vt 0.175747 0.444068
vt 0.175747 0.444068
vt 0.259178 0.444068
vt 0.175747 0.444068
vt 0.175747 0.444068
vn 0.000000 0.000000 1.000000
vn 0.000000 0.000000 1.000000
vn 0.000000 0.000000 1.000000
vn 0.000000 0.000000 1.000000
vn 0.000000 1.000000 0.000000
vn 0.000000 1.000000 0.000000
vn 0.000000 1.000000 0.000000
vn 0.000000 1.000000 0.000000
vn 0.000000 0.000000 -1.000000
vn 0.000000 0.000000 -1.000000
vn 0.000000 0.000000 -1.000000
vn 0.000000 0.000000 -1.000000
vn 0.000000 -1.000000 0.000000
vn 0.000000 -1.000000 0.000000
vn 0.000000 -1.000000 0.000000
vn 0.000000 -1.000000 0.000000
vn 1.000000 0.000000 0.000000
vn 1.000000 0.000000 0.000000
vn 1.000000 0.000000 0.000000
vn 1.000000 0.000000 0.000000
vn -1.000000 0.000000 0.000000
vn -1.000000 0.000000 0.000000
vn -1.000000 0.000000 0.000000
vn -1.000000 0.000000 0.000000
vn 1.000000 0.000000 0.000000
vn 1.000000 0.000000 0.000000
vn 1.000000 0.000000 0.000000
vn 1.000000 0.000000 0.000000
vn 1.000000 0.000000 0.000000
vn 1.000000 0.000000 0.000000
vn 1.000000 0.000000 0.000000
vn 1.000000 0.000000 0.000000
vn 1.000000 0.000000 0.000000
vn 1.000000 0.000000 0.000000
vn 1.000000 -0.000000 0.000000
vn 1.000000 -0.000000 0.000000
vn 1.000000 -0.000000 0.000000
vn 1.000000 -0.000000 0.000000
vn 1.000000 0.000000 0.000000
vn 1.000000 0.000000 0.000000
vn 1.000000 0.000000 0.000000
vn 1.000000 0.000000 0.000000
vn 1.000000 0.000000 0.000000
vn 1.000000 0.000000 0.000000
vn 0.000000 -1.000000 0.000000
vn 0.000000 -1.000000 0.000000
vn 0.000000 -1.000000 0.000000
vn 0.000000 -1.000000 0.000000
vn 0.000000 -0.000000 -1.000000
vn -0.000000 -0.000000 -1.000000
vn -0.000000 0.000000 -1.000000
vn 0.000000 0.000000 -1.000000
vn 0.000000 1.000000 0.000000
vn 0.000000 1.000000 0.000000
vn 0.000000 1.000000 0.000000
vn 0.000000 1.000000 0.000000
vn -0.000001 0.000001 1.000000
vn -0.000001 0.000000 1.000000
vn 0.000000 0.000000 1.000000
vn 0.000000 0.000000 1.000000
vn 0.000000 1.000000 0.000001
vn 0.000000 1.000000 0.000001
vn 0.000000 1.000000 0.000001
vn 0.000000 1.000000 0.000001
vn 0.000000 1.000000 0.000000
vn 0.000000 1.000000 0.000000
vn 0.000000 1.000000 0.000000
vn 0.000000 1.000000 0.000000
vn 0.000000 1.000000 -0.000000
vn 0.000000 1.000000 -0.000000
vn 0.000000 1.000000 -0.000000
vn 0.000000 1.000000 -0.000000
vn 0.000000 1.000000 0.000000
vn 0.000000 1.000000 0.000000
vn 0.000000 1.000000 0.000000
vn 0.000000 1.000000 0.000000
vn 0.000000 0.000000 -1.000000
vn 0.000000 0.000000 -1.000000
vn 0.000000 0.000000 -1.000000
vn 0.000000 0.000000 -1.000000
vn -1.000000 0.000000 0.000000
vn -1.000000 0.000000 0.000000
vn -1.000000 0.000000 0.000000
vn -1.000000 0.000000 0.000000
vn 0.000000 0.000000 1.000000
vn 0.000000 0.000000 1.000000
vn 0.000000 0.000000 1.000000
vn 0.000000 0.000000 1.000000
vn 1.000000 0.000000 0.000000
vn 1.000000 0.000000 0.000000
vn 1.000000 0.000000 0.000000
vn 1.000000 0.000000 0.000000
vn 0.000000 -0.000000 1.000000
vn 0.000000 0.000000 1.000000
vn -0.000001 0.000000 1.000000
vn -0.000000 -0.000000 1.000000
vn 0.000001 -0.000000 1.000000
vn 0.000000 -0.000000 1.000000
vn -0.000000 -0.000000 1.000000
vn 0.000000 0.000000 1.000000
vn 0.000000 0.000000 1.000000
vn 0.000000 0.000000 1.000000
vn 0.000000 -0.000000 1.000000
vn 0.000001 -0.000000 1.000000
vn 0.000000 0.000000 -1.000000
vn 0.000000 0.000000 -1.000000
vn -0.000000 0.000000 -1.000000
vn -0.000000 0.000000 -1.000000
vn 0.000000 -0.000000 -1.000000
vn 0.000000 -0.000000 -1.000000
vn 0.000000 0.000000 -1.000000
vn 0.000000 0.000000 -1.000000
vn -0.000000 -0.000000 -1.000000
vn -0.000000 -0.000000 -1.000000
vn 0.000000 -0.000000 -1.000000
vn 0.000000 -0.000000 -1.000000
s off
f 1/23/1 2/2/2 4/22/3 3/17/4
f 21/41/5 22/42/6 23/43/7 24/44/8
f 5/5/9 6/16/10 8/8/11 7/20/12
f 7/7/13 8/19/14 2/10/15 1/9/16
f 14/29/17 13/51/18 15/58/19 16/57/20
f 7/13/21 1/1/22 3/24/23 5/14/24
f 2/21/25 8/11/26 9/55/27 10/53/28
f 8/11/29 6/12/30 11/60/31 29/79/32 32/83/33 9/55/34
f 6/12/35 4/4/36 12/48/37 11/60/38
f 4/4/39 2/21/40 10/53/41 27/76/42 25/73/43 12/48/44
f 10/25/45 9/56/46 13/50/47 14/45/48
f 31/85/49 32/84/50 29/88/51 30/87/52
f 11/27/53 12/59/54 16/47/55 15/31/56
f 12/28/57 25/74/58 26/90/59 16/32/60
f 3/3/61 4/15/62 18/69/63 17/71/64
f 4/15/65 6/6/66 19/67/67 18/69/68
f 6/6/69 5/18/70 20/64/71 19/67/72
f 5/18/73 3/3/74 17/71/75 20/64/76
f 17/33/77 18/70/78 22/66/79 21/37/80
f 18/34/81 19/68/82 23/63/83 22/38/84
f 19/35/85 20/65/86 24/62/87 23/39/88
f 20/36/89 17/72/90 21/61/91 24/40/92
f 28/89/93 26/75/94 25/92/95 27/91/96
f 14/46/97 28/78/98 27/77/99 10/54/100
f 16/32/101 26/90/102 28/78/103 14/46/104
f 15/49/105 30/81/106 29/80/107 11/52/108
f 13/30/109 31/82/110 30/81/111 15/49/112
f 9/26/113 32/86/114 31/82/115 13/30/116
