# This file uses meters as units for non-parametric coordinates.

v -0.175479 0.000000 -0.491219
v -0.175479 0.000000 0.491219
v -0.175479 0.894803 -0.491219
v -0.175479 0.894803 0.491219
v 0.175479 0.894803 -0.491219
v 0.175479 0.894803 0.491219
v 0.175479 0.000000 -0.491219
v 0.175479 0.000000 0.491219
v 0.139267 0.643608 0.491219
v -0.139267 0.643608 0.491219
v 0.139267 0.824601 0.491219
v -0.139267 0.824601 0.491219
v -0.139267 0.702814 0.491219
v -0.139267 0.765395 0.491219
v 0.139267 0.765395 0.491219
v 0.139267 0.702814 0.491219
v 0.139267 0.413175 0.491219
v 0.085631 0.413175 0.491219
v 0.139267 0.570505 0.491219
v 0.085631 0.570505 0.491219
v 0.085631 0.468084 0.491219
v 0.085631 0.515597 0.491219
v 0.139267 0.468084 0.491219
v 0.139267 0.515597 0.491219
v -0.140401 0.289223 0.491219
v 0.139267 0.289223 0.491219
v -0.140401 0.034001 0.491219
v 0.139267 0.034001 0.491219
v 0.152512 0.032197 -0.491219
v -0.152512 0.032197 -0.491219
v -0.152512 0.862606 -0.491219
v 0.152512 0.862606 -0.491219
v -0.175479 0.061167 -0.403833
v -0.175479 0.061167 0.006915
v -0.175479 0.593050 0.006915
v -0.175479 0.593050 -0.403833
v -0.175479 0.081381 -0.388223
v -0.175479 0.081381 -0.008695
v -0.175479 0.572835 -0.008695
v -0.175479 0.572835 -0.388223
v 0.175479 0.788116 -0.374084
v 0.175479 0.788116 0.374084
v 0.175479 0.106686 0.374084
v 0.175479 0.106686 -0.374084
v 0.175479 0.771271 -0.355589
v 0.175479 0.771271 0.355589
v 0.175479 0.123532 0.355589
v 0.175479 0.123532 -0.355589
vt 0.291508 0.477440
vt 0.266972 0.477440
vt 0.325245 0.477440
vt 0.291508 0.477440
vt 0.266972 0.477440
vt 0.325245 0.477440
vt 0.229146 0.477440
vt 0.266972 0.477440
vt 0.229146 0.477440
vt 0.229146 0.477440
vt 0.291508 0.477440
vt 0.291508 0.477440
vt 0.291508 0.477440
vt 0.291508 0.477440
vt 0.325245 0.477440
vt 0.266972 0.477440
vt 0.266972 0.477440
vt 0.325245 0.477440
vt 0.229146 0.477440
vt 0.266972 0.477440
vt 0.291508 0.477440
vt 0.266972 0.477440
vt 0.266972 0.477440
vt 0.291508 0.477440
vt 0.233987 0.480578
vt 0.291508 0.477440
vt 0.291508 0.477440
vt 0.291508 0.477440
vt 0.233987 0.480578
vt 0.291508 0.477440
vt 0.233987 0.480578
vt 0.291508 0.477440
vt 0.233987 0.480578
vt 0.291508 0.477440
vt 0.233987 0.480578
vt 0.291508 0.477440
vt 0.233987 0.480578
vt 0.233987 0.480578
vt 0.291508 0.477440
vt 0.233987 0.480578
vt 0.237125 0.088392
vt 0.291508 0.477440
vt 0.237125 0.088392
vt 0.291508 0.477440
vt 0.237125 0.088392
vt 0.291508 0.477440
vt 0.291508 0.477440
vt 0.237125 0.088392
vt 0.237125 0.088392
vt 0.291508 0.477440
vt 0.237125 0.088392
vt 0.291508 0.477440
vt 0.291508 0.477440
vt 0.237125 0.088392
vt 0.291508 0.477440
vt 0.237125 0.088392
vt 0.291508 0.477440
vt 0.323929 0.477440
vt 0.291508 0.477440
vt 0.323929 0.477440
vt 0.323929 0.477440
vt 0.291508 0.477440
vt 0.291508 0.477440
vt 0.323929 0.477440
vt 0.233987 0.477440
vt 0.291508 0.477440
vt 0.291508 0.477440
vt 0.291508 0.477440
vt 0.233987 0.477440
vt 0.291508 0.477440
vt 0.233988 0.477440
vt 0.233988 0.477440
vt 0.203392 0.477440
vt 0.203392 0.477440
vt 0.203392 0.477440
vt 0.203392 0.477440
vt 0.266972 0.477440
vt 0.203392 0.477440
vt 0.203392 0.477440
vt 0.203392 0.477440
vt 0.203392 0.477440
vt 0.203392 0.477440
vt 0.203392 0.477440
vt 0.266972 0.477440
vt 0.203392 0.477440
vt 0.266972 0.477440
vt 0.266972 0.477440
vt 0.203392 0.477440
vt 0.203392 0.477440
vt 0.266972 0.477440
vt 0.266972 0.477440
vt 0.203392 0.477440
vt 0.266972 0.477440
vt 0.203392 0.477440
vt 0.266972 0.477440
vt 0.203392 0.477440
vt 0.208618 0.477440
vt 0.208618 0.477440
vt 0.208618 0.477440
vt 0.208618 0.477440
vt 0.266972 0.477440
vt 0.208618 0.477440
vt 0.208618 0.477440
vt 0.208618 0.477440
vt 0.208618 0.477440
vt 0.208618 0.477440
vt 0.208618 0.477440
vt 0.266972 0.477440
vt 0.208618 0.477440
vt 0.266972 0.477440
vt 0.266972 0.477440
vt 0.208618 0.477440
vt 0.208618 0.477440
vt 0.266972 0.477440
vt 0.266972 0.477440
vt 0.208618 0.477440
vt 0.266972 0.477440
vt 0.208618 0.477440
vt 0.266972 0.477440
vt 0.208618 0.477440
vn -1.000000 0.000000 0.000000
vn -1.000000 0.000000 0.000000
vn -1.000000 0.000000 0.000000
vn -1.000000 0.000000 0.000000
vn 0.000000 1.000000 -0.000000
vn 0.000000 1.000000 -0.000000
vn 0.000000 1.000000 -0.000000
vn 0.000000 1.000000 -0.000000
vn 1.000000 0.000000 0.000000
vn 1.000000 0.000000 0.000000
vn 1.000000 0.000000 0.000000
vn 1.000000 0.000000 0.000000
vn 0.000000 -1.000000 0.000000
vn 0.000000 -1.000000 0.000000
vn 0.000000 -1.000000 0.000000
vn 0.000000 -1.000000 0.000000
vn -0.000000 0.000000 1.000000
vn -0.000000 0.000000 1.000000
vn -0.000000 0.000000 1.000000
vn -0.000000 0.000000 1.000000
vn 0.000000 0.000000 -1.000000
vn 0.000000 0.000000 -1.000000
vn 0.000000 0.000000 -1.000000
vn 0.000000 0.000000 -1.000000
vn 0.000000 0.000000 1.000000
vn 0.000000 0.000000 1.000000
vn 0.000000 0.000000 1.000000
vn 0.000000 0.000000 1.000000
vn 0.000000 -0.000001 1.000000
vn 0.000000 -0.000001 1.000000
vn 0.000000 -0.000001 1.000000
vn 0.000000 -0.000001 1.000000
vn 0.000000 0.000000 1.000000
vn 0.000000 0.000000 1.000000
vn 0.000000 0.000000 1.000000
vn 0.000000 0.000000 1.000000
vn 0.000000 0.000000 1.000000
vn 0.000000 0.000000 1.000000
vn 0.000000 0.000000 1.000000
vn 0.000000 0.000000 1.000000
vn 0.000000 0.000000 1.000000
vn 0.000000 0.000000 1.000000
vn 0.000000 0.000000 1.000000
vn 0.000000 0.000000 1.000000
vn -0.000000 0.000000 1.000000
vn -0.000000 0.000000 1.000000
vn -0.000000 0.000000 1.000000
vn -0.000000 0.000000 1.000000
vn -0.000000 0.000000 1.000000
vn -0.000000 0.000000 1.000000
vn -0.000000 0.000000 1.000000
vn -0.000000 0.000000 1.000000
vn 0.000000 0.000000 1.000000
vn 0.000000 0.000000 1.000000
vn 0.000000 0.000000 1.000000
vn 0.000000 0.000000 1.000000
vn 0.000000 0.000000 1.000000
vn 0.000000 0.000000 1.000000
vn 0.000000 0.000000 1.000000
vn 0.000000 0.000000 1.000000
vn 0.000000 0.000000 1.000000
vn 0.000000 0.000000 1.000000
vn 0.000000 0.000000 1.000000
vn 0.000000 0.000000 1.000000
vn 0.000000 0.000000 1.000000
vn 0.000000 0.000000 1.000000
vn 0.000000 0.000000 1.000000
vn 0.000000 0.000000 1.000000
vn -0.000000 0.000000 1.000000
vn -0.000000 0.000000 1.000000
vn -0.000000 0.000000 1.000000
vn -0.000000 0.000000 1.000000
vn 0.000000 0.000000 1.000000
vn 0.000000 0.000000 1.000000
vn 0.000000 0.000000 1.000000
vn 0.000000 0.000000 1.000000
vn 0.000000 0.000000 1.000000
vn 0.000000 0.000000 1.000000
vn 0.000000 0.000000 1.000000
vn 0.000000 0.000000 1.000000
vn 0.000000 0.000000 1.000000
vn 0.000000 0.000000 1.000000
vn 0.000000 0.000000 1.000000
vn 0.000000 0.000000 1.000000
vn 0.000000 0.000000 1.000000
vn 0.000000 0.000000 1.000000
vn 0.000000 0.000000 1.000000
vn 0.000000 0.000000 1.000000
vn 0.000000 -0.000001 -1.000000
vn 0.000000 -0.000001 -1.000000
vn 0.000000 -0.000001 -1.000000
vn 0.000000 -0.000001 -1.000000
vn -0.000003 0.000000 -1.000000
vn -0.000003 0.000000 -1.000000
vn -0.000003 0.000000 -1.000000
vn -0.000003 0.000000 -1.000000
vn 0.000000 0.000001 -1.000000
vn 0.000000 0.000001 -1.000000
vn 0.000000 0.000001 -1.000000
vn 0.000000 0.000001 -1.000000
vn -0.000000 0.000000 -1.000000
vn -0.000000 0.000000 -1.000000
vn -0.000000 0.000000 -1.000000
vn -0.000000 0.000000 -1.000000
vn -1.000000 0.000000 0.000000
vn -1.000000 0.000000 0.000000
vn -1.000000 0.000000 0.000000
vn -1.000000 0.000000 0.000000
vn -1.000000 0.000000 -0.000000
vn -1.000000 0.000000 -0.000000
vn -1.000000 0.000000 -0.000000
vn -1.000000 0.000000 -0.000000
vn -1.000000 -0.000000 0.000000
vn -1.000000 -0.000000 0.000000
vn -1.000000 -0.000000 0.000000
vn -1.000000 -0.000000 0.000000
vn -1.000000 0.000000 0.000000
vn -1.000000 0.000000 0.000000
vn -1.000000 0.000000 0.000000
vn -1.000000 0.000000 0.000000
vn -1.000000 -0.000002 0.000000
vn -1.000000 -0.000002 0.000000
vn -1.000000 -0.000002 0.000000
vn -1.000000 -0.000002 0.000000
vn -1.000000 0.000000 0.000002
vn -1.000000 0.000000 0.000002
vn -1.000000 0.000000 0.000002
vn -1.000000 0.000000 0.000002
vn -1.000000 0.000002 0.000000
vn -1.000000 0.000002 0.000000
vn -1.000000 0.000002 0.000000
vn -1.000000 0.000002 0.000000
vn -1.000000 0.000000 -0.000002
vn -1.000000 0.000000 -0.000002
vn -1.000000 0.000000 -0.000002
vn -1.000000 0.000000 -0.000002
vn 1.000000 0.000000 0.000000
vn 1.000000 0.000000 0.000000
vn 1.000000 0.000000 0.000000
vn 1.000000 0.000000 0.000000
vn 1.000000 0.000000 0.000000
vn 1.000000 0.000000 0.000000
vn 1.000000 0.000000 0.000000
vn 1.000000 0.000000 0.000000
vn 1.000000 -0.000000 0.000000
vn 1.000000 -0.000000 0.000000
vn 1.000000 -0.000000 0.000000
vn 1.000000 -0.000000 0.000000
vn 1.000000 0.000000 0.000000
vn 1.000000 0.000000 0.000000
vn 1.000000 0.000000 0.000000
vn 1.000000 0.000000 0.000000
vn 1.000000 -0.000000 0.000000
vn 1.000000 -0.000000 0.000000
vn 1.000000 -0.000000 0.000000
vn 1.000000 -0.000000 0.000000
vn 1.000000 0.000000 0.000000
vn 1.000000 0.000000 0.000000
vn 1.000000 0.000000 0.000000
vn 1.000000 0.000000 0.000000
vn 1.000000 0.000000 0.000000
vn 1.000000 0.000000 0.000000
vn 1.000000 0.000000 0.000000
vn 1.000000 0.000000 0.000000
vn 1.000000 0.000000 0.000000
vn 1.000000 0.000000 0.000000
vn 1.000000 0.000000 0.000000
vn 1.000000 0.000000 0.000000
s off
f 37/77/1 38/90/2 39/86/3 40/84/4
f 3/3/5 4/15/6 6/6/7 5/18/8
f 45/101/9 46/114/10 47/110/11 48/108/12
f 7/7/13 8/19/14 2/10/15 1/9/16
f 14/35/17 15/31/18 11/40/19 12/38/20
f 29/65/21 30/72/22 31/71/23 32/69/24
f 22/51/25 24/48/26 19/43/27 20/54/28
f 6/12/29 4/4/30 12/28/31 11/27/32
f 10/39/33 13/34/34 14/30/35 12/28/36 4/4/37 2/21/38 27/59/39 25/57/40 18/55/41 21/50/42 22/46/43 20/44/44
f 10/25/45 9/37/46 16/33/47 13/29/48
f 13/34/49 16/32/50 15/36/51 14/30/52
f 25/57/53 26/63/54 17/42/55 18/55/56
f 9/26/57 19/53/58 24/52/59 23/47/60 17/42/61 26/63/62 28/62/63 8/11/64 6/12/65 11/27/66 15/36/67 16/32/68
f 9/26/69 10/39/70 20/44/71 19/53/72
f 18/41/73 17/56/74 23/49/75 21/45/76
f 21/50/77 23/47/78 24/52/79 22/46/80
f 27/61/81 28/60/82 26/58/83 25/64/84
f 2/21/85 8/11/86 28/62/87 27/59/88
f 7/13/89 1/1/90 30/66/91 29/70/92
f 1/1/93 3/24/94 31/67/95 30/66/96
f 3/24/97 5/14/98 32/68/99 31/67/100
f 5/14/101 7/13/102 29/70/103 32/68/104
f 1/23/105 2/2/106 34/93/107 33/95/108
f 2/2/109 4/22/110 35/91/111 34/93/112
f 4/22/113 3/17/114 36/87/115 35/91/116
f 3/17/117 1/23/118 33/95/119 36/87/120
f 33/73/121 34/94/122 38/89/123 37/81/124
f 34/74/125 35/92/126 39/85/127 38/78/128
f 35/75/129 36/88/130 40/83/131 39/79/132
f 36/76/133 33/96/134 37/82/135 40/80/136
f 5/5/137 6/16/138 42/117/139 41/119/140
f 6/16/141 8/8/142 43/115/143 42/117/144
f 8/8/145 7/20/146 44/111/147 43/115/148
f 7/20/149 5/5/150 41/119/151 44/111/152
f 41/97/153 42/118/154 46/113/155 45/105/156
f 42/98/157 43/116/158 47/109/159 46/102/160
f 43/99/161 44/112/162 48/107/163 47/103/164
f 44/100/165 41/120/166 45/106/167 48/104/168
