# This file uses meters as units for non-parametric coordinates.

v 0.609841 0.747353 -1.120645
v -0.609841 0.747353 -1.120645
v 0.609841 0.827388 -1.120645
v -0.609841 0.827388 -1.120645
v 0.609841 0.827388 1.120645
v -0.609841 0.827388 1.120645
v 0.609841 0.747353 1.120645
v -0.609841 0.747353 1.120645
v 0.500255 0.000000 0.883573
v 0.409606 0.000000 0.883573
v 0.500255 0.785174 0.883573
v 0.409606 0.785174 0.883573
v 0.500256 0.785174 1.018778
v 0.409605 0.785174 1.018778
v 0.500256 0.000000 1.018778
v 0.409605 0.000000 1.018778
v -0.409276 0.000000 0.883574
v -0.499925 0.000000 0.883573
v -0.409276 0.785174 0.883574
v -0.499925 0.785174 0.883573
v -0.409277 0.785174 1.018778
v -0.499926 0.785174 1.018778
v -0.409277 0.000000 1.018778
v -0.499926 0.000000 1.018778
v 0.500256 0.000000 -1.018778
v 0.409605 0.000000 -1.018778
v 0.500256 0.785174 -1.018778
v 0.409605 0.785174 -1.018778
v 0.500256 0.785174 -0.883574
v 0.409605 0.785174 -0.883574
v 0.500256 0.000000 -0.883574
v 0.409605 0.000000 -0.883574
v -0.409277 0.000000 -1.018778
v -0.499926 0.000000 -1.018778
v -0.409277 0.785174 -1.018778
v -0.499926 0.785174 -1.018778
v -0.409277 0.785174 -0.883574
v -0.499926 0.785174 -0.883574
v -0.409277 0.000000 -0.883574
v -0.499926 0.000000 -0.883574
v 0.609841 0.279727 -1.120645
v -0.609841 0.279727 -1.120645
v 0.609841 0.359762 -1.120645
v -0.609841 0.359762 -1.120645
v 0.609841 0.359762 1.120645
v -0.609841 0.359762 1.120645
v 0.609841 0.279727 1.120645
v -0.609841 0.279727 1.120645
v 0.026632 1.089815 -0.615829
v 0.036803 1.086270 -0.561767
v 0.182803 1.533391 -0.606545
v 0.189507 1.531054 -0.570910
v 0.206751 1.540078 -0.624922
v 0.218634 1.535937 -0.561757
v 0.078908 1.076004 -0.626569
v 0.089079 1.072459 -0.572506
v 0.210951 1.507196 -0.562197
v 0.199068 1.511338 -0.625360
v 0.307642 1.509900 -0.705423
v 0.341072 1.498249 -0.527718
v 0.335600 1.477784 -0.528030
v 0.302172 1.489436 -0.705736
v 0.480109 1.430821 -0.664033
v 0.484943 1.429136 -0.638334
v 0.482815 1.421173 -0.638456
v 0.477982 1.422858 -0.664154
v 0.044802 1.092647 -0.590961
v 0.000396 1.093259 -0.608230
v 0.007371 1.487857 -0.503098
v -0.021901 1.488261 -0.514481
v 0.010524 1.494819 -0.477489
v -0.041359 1.495534 -0.497663
v 0.027668 1.084951 -0.547169
v -0.016740 1.085563 -0.564437
v -0.040157 1.470155 -0.501654
v 0.011726 1.469440 -0.481478
v 0.020777 1.473916 -0.365297
v -0.125195 1.475928 -0.422060
v -0.124339 1.457856 -0.424901
v 0.021632 1.455844 -0.368137
v -0.094885 1.423658 -0.254499
v -0.115993 1.423949 -0.262709
v -0.115661 1.416918 -0.263814
v -0.094553 1.416626 -0.255606
v 0.003943 1.064947 -0.573831
v 0.049508 1.063208 -0.611867
v -0.070309 1.549798 -0.700750
v -0.040273 1.548651 -0.725821
v -0.100167 1.557586 -0.713277
v -0.046932 1.555554 -0.757715
v -0.033514 1.052253 -0.618122
v 0.012051 1.050514 -0.656158
v -0.043245 1.524260 -0.751865
v -0.096479 1.526292 -0.707426
v -0.228712 1.527540 -0.767689
v -0.078938 1.521823 -0.892715
v -0.076311 1.499539 -0.888550
v -0.226087 1.505257 -0.763524
v -0.279898 1.451872 -0.955870
v -0.258240 1.451045 -0.973949
v -0.257218 1.442375 -0.972329
v -0.278875 1.443202 -0.954248
v 0.004772 1.072989 -0.628836
v 0.006607 1.074394 -0.588175
v 0.021316 1.784650 -0.672566
v 0.024804 1.787322 -0.595260
v 0.098571 1.780652 -0.675916
v 0.102059 1.783324 -0.598609
v 0.045406 1.070886 -0.630598
v 0.047242 1.072291 -0.589936
v -0.014340 1.684368 -0.696881
v -0.008205 1.689066 -0.560982
v 0.127604 1.682037 -0.566870
v 0.121469 1.677340 -0.702768
v 0.031940 1.614630 -0.648787
v 0.033775 1.616036 -0.608126
v 0.074410 1.613933 -0.609887
v 0.072575 1.612527 -0.650549
v -0.143349 0.823059 -0.755228
v -0.143350 0.823059 -0.443408
v -0.131532 1.134879 -0.743409
v -0.131532 1.134879 -0.455226
v 0.156651 1.134879 -0.743409
v 0.156651 1.134879 -0.455226
v 0.168470 0.823059 -0.755228
v 0.168469 0.823059 -0.443408
v -0.143350 1.092736 -0.755227
v -0.143350 1.092736 -0.443408
v 0.168469 1.092736 -0.443408
v 0.168469 1.092736 -0.755227
v -0.168374 1.092736 -0.780252
v -0.168374 1.092736 -0.418384
v -0.168374 1.134879 -0.418384
v -0.168374 1.134879 -0.780252
v 0.193494 1.134879 -0.780252
v 0.193494 1.134879 -0.418384
v 0.193494 1.092736 -0.418384
v 0.193494 1.092736 -0.780252
v -0.131532 1.095433 -0.743409
v -0.131532 1.095433 -0.455226
v 0.156651 1.095433 -0.455226
v 0.156651 1.095433 -0.743409
v -0.324309 0.828016 0.225091
v -0.324308 0.828016 0.600611
v -0.324309 0.850214 0.225091
v -0.324308 0.850214 0.600611
v 0.209704 0.850214 0.225091
v 0.209703 0.850214 0.600611
v 0.209704 0.828016 0.225091
v 0.209703 0.828016 0.600611
v -0.324308 0.831769 0.238506
v -0.324308 0.831769 0.600611
v -0.324308 0.846461 0.600611
v -0.324308 0.846461 0.238506
v 0.209703 0.846461 0.238506
v 0.209703 0.846461 0.600611
v 0.209703 0.831769 0.600611
v 0.209703 0.831769 0.238506
v -0.349184 0.850538 0.271566
v -0.292728 0.850538 0.642818
v -0.349184 0.872736 0.271566
v -0.292728 0.872736 0.642818
v 0.178759 0.872736 0.191284
v 0.235214 0.872736 0.562536
v 0.178759 0.850538 0.191284
v 0.235214 0.850538 0.562536
v -0.347168 0.854291 0.284830
v -0.292728 0.854291 0.642818
v -0.292728 0.868982 0.642818
v -0.347168 0.868982 0.284830
v 0.180776 0.868982 0.204545
v 0.235214 0.868982 0.562536
v 0.235214 0.854291 0.562536
v 0.180776 0.854291 0.204545
v -0.299787 0.872255 0.191224
v -0.344612 0.872255 0.564062
v -0.299787 0.894453 0.191224
v -0.344612 0.894453 0.564062
v 0.230409 0.894453 0.254972
v 0.185580 0.894453 0.627809
v 0.230409 0.872255 0.254972
v 0.185580 0.872255 0.627809
v -0.301388 0.876008 0.204544
v -0.344612 0.876008 0.564062
v -0.344612 0.890700 0.564062
v -0.301388 0.890700 0.204544
v 0.228806 0.890700 0.268292
v 0.185580 0.890700 0.627809
v 0.185580 0.876008 0.627809
v 0.228806 0.876008 0.268292
v -0.266944 0.894453 0.226396
v -0.304372 0.894453 0.537677
v 0.152744 0.894453 0.592636
v 0.190170 0.894453 0.281357
vt 0.266972 0.477440
vt 0.266972 0.477440
vt 0.266972 0.477440
vt 0.266972 0.477440
vt 0.325245 0.477440
vt 0.325245 0.477440
vt 0.325245 0.477440
vt 0.325245 0.477440
vt 0.266972 0.477440
vt 0.266972 0.477440
vt 0.266972 0.477440
vt 0.266972 0.477440
vt 0.229146 0.477440
vt 0.229146 0.477440
vt 0.229146 0.477440
vt 0.229146 0.477440
vt 0.291508 0.477440
vt 0.291508 0.477440
vt 0.291508 0.477440
vt 0.291508 0.477440
vt 0.291508 0.477440
vt 0.291508 0.477440
vt 0.291508 0.477440
vt 0.291508 0.477440
vt 0.205838 0.062785
vt 0.205838 0.062785
vt 0.205838 0.062785
vt 0.205838 0.062785
vt 0.264111 0.062785
vt 0.264111 0.062785
vt 0.264111 0.062785
vt 0.264111 0.062785
vt 0.205838 0.062785
vt 0.205838 0.062785
vt 0.205838 0.062785
vt 0.205838 0.062785
vt 0.168012 0.062785
vt 0.168012 0.062785
vt 0.168012 0.062785
vt 0.168012 0.062785
vt 0.230374 0.062785
vt 0.230374 0.062785
vt 0.230374 0.062785
vt 0.230374 0.062785
vt 0.230374 0.062785
vt 0.230374 0.062785
vt 0.230374 0.062785
vt 0.230374 0.062785
vt 0.205838 0.062785
vt 0.205838 0.062785
vt 0.205838 0.062785
vt 0.205838 0.062785
vt 0.264111 0.062785
vt 0.264111 0.062785
vt 0.264111 0.062785
vt 0.264111 0.062785
vt 0.205838 0.062785
vt 0.205838 0.062785
vt 0.205838 0.062785
vt 0.205838 0.062785
vt 0.168012 0.062785
vt 0.168012 0.062785
vt 0.168012 0.062785
vt 0.168012 0.062785
vt 0.230374 0.062785
vt 0.230374 0.062785
vt 0.230374 0.062785
vt 0.230374 0.062785
vt 0.230374 0.062785
vt 0.230374 0.062785
vt 0.230374 0.062785
vt 0.230374 0.062785
vt 0.205838 0.062785
vt 0.205838 0.062785
vt 0.205838 0.062785
vt 0.205838 0.062785
vt 0.264111 0.062785
vt 0.264111 0.062785
vt 0.264111 0.062785
vt 0.264111 0.062785
vt 0.205838 0.062785
vt 0.205838 0.062785
vt 0.205838 0.062785
vt 0.205838 0.062785
vt 0.168012 0.062785
vt 0.168012 0.062785
vt 0.168012 0.062785
vt 0.168012 0.062785
vt 0.230374 0.062785
vt 0.230374 0.062785
vt 0.230374 0.062785
vt 0.230374 0.062785
vt 0.230374 0.062785
vt 0.230374 0.062785
vt 0.230374 0.062785
vt 0.230374 0.062785
vt 0.205838 0.062785
vt 0.205838 0.062785
vt 0.205838 0.062785
vt 0.205838 0.062785
vt 0.264111 0.062785
vt 0.264111 0.062785
vt 0.264111 0.062785
vt 0.264111 0.062785
vt 0.205838 0.062785
vt 0.205838 0.062785
vt 0.205838 0.062785
vt 0.205838 0.062785
vt 0.168012 0.062785
vt 0.168012 0.062785
vt 0.168012 0.062785
vt 0.168012 0.062785
vt 0.230374 0.062785
vt 0.230374 0.062785
vt 0.230374 0.062785
vt 0.230374 0.062785
vt 0.230374 0.062785
vt 0.230374 0.062785
vt 0.230374 0.062785
vt 0.230374 0.062785
vt 0.266972 0.477440
vt 0.266972 0.477440
vt 0.266972 0.477440
vt 0.266972 0.477440
vt 0.325245 0.477440
vt 0.325245 0.477440
vt 0.325245 0.477440
vt 0.325245 0.477440
vt 0.266972 0.477440
vt 0.266972 0.477440
vt 0.266972 0.477440
vt 0.266972 0.477440
vt 0.229146 0.477440
vt 0.229146 0.477440
vt 0.229146 0.477440
vt 0.229146 0.477440
vt 0.291508 0.477440
vt 0.291508 0.477440
vt 0.291508 0.477440
vt 0.291508 0.477440
vt 0.291508 0.477440
vt 0.291508 0.477440
vt 0.291508 0.477440
vt 0.291508 0.477440
vt 0.229558 0.422359
vt 0.229558 0.422359
vt 0.229558 0.422359
vt 0.229558 0.422359
vt 0.171285 0.422359
vt 0.171285 0.422359
vt 0.171285 0.422359
vt 0.171285 0.422359
vt 0.133459 0.422359
vt 0.133459 0.422359
vt 0.133459 0.422359
vt 0.133459 0.422359
vt 0.195821 0.422359
vt 0.195821 0.422359
vt 0.195821 0.422359
vt 0.195821 0.422359
vt 0.195821 0.422359
vt 0.195821 0.422359
vt 0.171285 0.422359
vt 0.171285 0.422359
vt 0.171285 0.422359
vt 0.171285 0.422359
vt 0.195821 0.422359
vt 0.195821 0.422359
vt 0.195821 0.422359
vt 0.195821 0.422359
vt 0.171285 0.422359
vt 0.171285 0.422359
vt 0.171285 0.422359
vt 0.171285 0.422359
vt 0.195821 0.422359
vt 0.195821 0.422359
vt 0.195821 0.422359
vt 0.195821 0.422359
vt 0.194349 0.422359
vt 0.194349 0.422359
vt 0.194349 0.422359
vt 0.194349 0.422359
vt 0.171285 0.422359
vt 0.171285 0.422359
vt 0.171285 0.422359
vt 0.171285 0.422359
vt 0.171285 0.422359
vt 0.171285 0.422359
vt 0.171285 0.422359
vt 0.171285 0.422359
vt 0.171285 0.422359
vt 0.171285 0.422359
vt 0.171285 0.422359
vt 0.171285 0.422359
vt 0.194349 0.422359
vt 0.194349 0.422359
vt 0.194349 0.422359
vt 0.194349 0.422359
vt 0.171285 0.422359
vt 0.171285 0.422359
vt 0.171285 0.422359
vt 0.171285 0.422359
vt 0.171285 0.422359
vt 0.171285 0.422359
vt 0.171285 0.422359
vt 0.171285 0.422359
vt 0.171285 0.422359
vt 0.171285 0.422359
vt 0.171285 0.422359
vt 0.171285 0.422359
vt 0.229558 0.422359
vt 0.229558 0.422359
vt 0.229558 0.422359
vt 0.229558 0.422359
vt 0.171285 0.422359
vt 0.171285 0.422359
vt 0.171285 0.422359
vt 0.171285 0.422359
vt 0.133459 0.422359
vt 0.133459 0.422359
vt 0.133459 0.422359
vt 0.133459 0.422359
vt 0.195821 0.422359
vt 0.195821 0.422359
vt 0.195821 0.422359
vt 0.195821 0.422359
vt 0.195821 0.422359
vt 0.195821 0.422359
vt 0.171285 0.422359
vt 0.171285 0.422359
vt 0.171285 0.422359
vt 0.171285 0.422359
vt 0.195821 0.422359
vt 0.195821 0.422359
vt 0.195821 0.422359
vt 0.195821 0.422359
vt 0.171285 0.422359
vt 0.171285 0.422359
vt 0.171285 0.422359
vt 0.171285 0.422359
vt 0.195821 0.422359
vt 0.195821 0.422359
vt 0.195821 0.422359
vt 0.195821 0.422359
vt 0.194349 0.422359
vt 0.194349 0.422359
vt 0.194349 0.422359
vt 0.194349 0.422359
vt 0.171285 0.422359
vt 0.171285 0.422359
vt 0.171285 0.422359
vt 0.171285 0.422359
vt 0.171285 0.422359
vt 0.171285 0.422359
vt 0.171285 0.422359
vt 0.171285 0.422359
vt 0.171285 0.422359
vt 0.171285 0.422359
vt 0.171285 0.422359
vt 0.171285 0.422359
vt 0.194349 0.422359
vt 0.194349 0.422359
vt 0.194349 0.422359
vt 0.194349 0.422359
vt 0.171285 0.422359
vt 0.171285 0.422359
vt 0.171285 0.422359
vt 0.171285 0.422359
vt 0.171285 0.422359
vt 0.171285 0.422359
vt 0.171285 0.422359
vt 0.171285 0.422359
vt 0.171285 0.422359
vt 0.171285 0.422359
vt 0.171285 0.422359
vt 0.171285 0.422359
vt 0.229558 0.422359
vt 0.229558 0.422359
vt 0.229558 0.422359
vt 0.229558 0.422359
vt 0.171285 0.422359
vt 0.171285 0.422359
vt 0.171285 0.422359
vt 0.171285 0.422359
vt 0.133459 0.422359
vt 0.133459 0.422359
vt 0.133459 0.422359
vt 0.133459 0.422359
vt 0.195821 0.422359
vt 0.195821 0.422359
vt 0.195821 0.422359
vt 0.195821 0.422359
vt 0.195821 0.422359
vt 0.195821 0.422359
vt 0.171285 0.422359
vt 0.171285 0.422359
vt 0.171285 0.422359
vt 0.171285 0.422359
vt 0.195821 0.422359
vt 0.195821 0.422359
vt 0.195821 0.422359
vt 0.195821 0.422359
vt 0.171285 0.422359
vt 0.171285 0.422359
vt 0.171285 0.422359
vt 0.171285 0.422359
vt 0.195821 0.422359
vt 0.195821 0.422359
vt 0.195821 0.422359
vt 0.195821 0.422359
vt 0.194349 0.422359
vt 0.194349 0.422359
vt 0.194349 0.422359
vt 0.194349 0.422359
vt 0.171285 0.422359
vt 0.171285 0.422359
vt 0.171285 0.422359
vt 0.171285 0.422359
vt 0.171285 0.422359
vt 0.171285 0.422359
vt 0.171285 0.422359
vt 0.171285 0.422359
vt 0.171285 0.422359
vt 0.171285 0.422359
vt 0.171285 0.422359
vt 0.171285 0.422359
vt 0.194349 0.422359
vt 0.194349 0.422359
vt 0.194349 0.422359
vt 0.194349 0.422359
vt 0.171285 0.422359
vt 0.171285 0.422359
vt 0.171285 0.422359
vt 0.171285 0.422359
vt 0.171285 0.422359
vt 0.171285 0.422359
vt 0.171285 0.422359
vt 0.171285 0.422359
vt 0.171285 0.422359
vt 0.171285 0.422359
vt 0.171285 0.422359
vt 0.171285 0.422359
vt 0.361881 0.443077
vt 0.361881 0.443077
vt 0.361881 0.443077
vt 0.361881 0.443077
vt 0.420154 0.443077
vt 0.420154 0.443077
vt 0.420154 0.443077
vt 0.420154 0.443077
vt 0.361881 0.443077
vt 0.361881 0.443077
vt 0.361881 0.443077
vt 0.361881 0.443077
vt 0.141600 0.420167
vt 0.141600 0.420167
vt 0.141600 0.420167
vt 0.141600 0.420167
vt 0.386417 0.443077
vt 0.386417 0.443077
vt 0.386417 0.443077
vt 0.386417 0.443077
vt 0.386417 0.443077
vt 0.386417 0.443077
vt 0.386417 0.443077
vt 0.386417 0.443077
vt 0.361881 0.443077
vt 0.361881 0.443077
vt 0.361881 0.443077
vt 0.361881 0.443077
vt 0.386417 0.443077
vt 0.386417 0.443077
vt 0.386417 0.443077
vt 0.386417 0.443077
vt 0.361881 0.443077
vt 0.361881 0.443077
vt 0.361881 0.443077
vt 0.361881 0.443077
vt 0.386417 0.443077
vt 0.386417 0.443077
vt 0.386417 0.443077
vt 0.386417 0.443077
vt 0.179427 0.420167
vt 0.179427 0.420167
vt 0.179427 0.420167
vt 0.179427 0.420167
vt 0.203962 0.420167
vt 0.203962 0.420167
vt 0.203962 0.420168
vt 0.203962 0.420167
vt 0.179427 0.420167
vt 0.179427 0.420167
vt 0.179427 0.420167
vt 0.179427 0.420167
vt 0.203962 0.420167
vt 0.203962 0.420167
vt 0.203962 0.420167
vt 0.203962 0.420168
vt 0.142893 0.479895
vt 0.142893 0.479895
vt 0.142893 0.479895
vt 0.142893 0.479895
vt 0.043523 0.399505
vt 0.043523 0.399505
vt 0.043523 0.399505
vt 0.043523 0.399505
vt 0.142893 0.479895
vt 0.142893 0.479895
vt 0.142893 0.479895
vt 0.142893 0.479895
vt 0.105067 0.479895
vt 0.105067 0.479895
vt 0.105067 0.479895
vt 0.105067 0.479895
vt 0.167429 0.479895
vt 0.167429 0.479895
vt 0.167429 0.479895
vt 0.167429 0.479895
vt 0.167429 0.479895
vt 0.167429 0.479895
vt 0.167429 0.479895
vt 0.167429 0.479895
vt 0.142893 0.479895
vt 0.142893 0.479895
vt 0.142893 0.479895
vt 0.142893 0.479895
vt 0.167429 0.479895
vt 0.167429 0.479895
vt 0.167429 0.479895
vt 0.167429 0.479895
vt 0.142893 0.479895
vt 0.142893 0.479895
vt 0.142893 0.479895
vt 0.142893 0.479895
vt 0.167429 0.479895
vt 0.167429 0.479895
vt 0.167429 0.479895
vt 0.167429 0.479895
vt 0.142893 0.479895
vt 0.142893 0.479895
vt 0.142893 0.479895
vt 0.142893 0.479895
vt 0.169230 0.479425
vt 0.169230 0.479425
vt 0.169230 0.479425
vt 0.169230 0.479425
vt 0.169230 0.479425
vt 0.169230 0.479425
vt 0.169230 0.479425
vt 0.169230 0.479425
vt 0.142893 0.479895
vt 0.142893 0.479895
vt 0.142893 0.479895
vt 0.142893 0.479895
vt 0.167429 0.479895
vt 0.167429 0.479895
vt 0.167429 0.479895
vt 0.167429 0.479895
vt 0.169230 0.479425
vt 0.169230 0.479425
vt 0.169230 0.479425
vt 0.169230 0.479425
vt 0.167429 0.479895
vt 0.167429 0.479895
vt 0.167429 0.479895
vt 0.167429 0.479895
vt 0.169230 0.479425
vt 0.169230 0.479425
vt 0.169230 0.479425
vt 0.169230 0.479425
vt 0.108178 0.475141
vt 0.108178 0.475141
vt 0.108178 0.475141
vt 0.108178 0.475141
vt 0.108178 0.475141
vt 0.108178 0.475141
vt 0.108178 0.475141
vt 0.108178 0.475141
vt 0.108178 0.475141
vt 0.108178 0.475141
vt 0.108178 0.475141
vt 0.108178 0.475141
vt 0.108178 0.475141
vt 0.108178 0.475141
vt 0.108178 0.475141
vt 0.108178 0.475141
vt 0.330552 0.471344
vt 0.330552 0.471344
vt 0.330552 0.471344
vt 0.330552 0.471344
vt 0.264278 0.196122
vt 0.264278 0.196122
vt 0.264278 0.196122
vt 0.264278 0.196122
vt 0.330552 0.471344
vt 0.330552 0.471344
vt 0.330552 0.471344
vt 0.330552 0.471344
vt 0.168179 0.196122
vt 0.168179 0.196122
vt 0.168179 0.196121
vt 0.168179 0.196121
vt 0.355088 0.471344
vt 0.355088 0.471344
vt 0.355088 0.471344
vt 0.355088 0.471344
vt 0.230541 0.196122
vt 0.230541 0.196122
vt 0.230541 0.196122
vt 0.230541 0.196122
vt 0.206005 0.196122
vt 0.206005 0.196122
vt 0.206005 0.196122
vt 0.206005 0.196122
vt 0.206005 0.196122
vt 0.206005 0.196122
vt 0.206005 0.196122
vt 0.206005 0.196122
vt 0.206005 0.196122
vt 0.206005 0.196122
vt 0.206005 0.196122
vt 0.206005 0.196122
vt 0.206005 0.196122
vt 0.206005 0.196122
vt 0.206005 0.196122
vt 0.206005 0.196122
vt 0.206005 0.196122
vt 0.206005 0.196122
vt 0.206005 0.196122
vt 0.206005 0.196122
vt 0.206005 0.196122
vt 0.206005 0.196122
vt 0.206005 0.196122
vt 0.206005 0.196122
vt 0.230541 0.196122
vt 0.230541 0.196122
vt 0.230541 0.196122
vt 0.230541 0.196122
vt 0.230541 0.196122
vt 0.230541 0.196122
vt 0.230541 0.196122
vt 0.230541 0.196122
vt 0.330552 0.471344
vt 0.330552 0.471344
vt 0.330552 0.471344
vt 0.330552 0.471344
vt 0.264278 0.181315
vt 0.264278 0.181315
vt 0.264278 0.181315
vt 0.264278 0.181315
vt 0.330552 0.471344
vt 0.330552 0.471344
vt 0.330552 0.471344
vt 0.330552 0.471344
vt 0.168179 0.181315
vt 0.168179 0.181315
vt 0.168179 0.181315
vt 0.168179 0.181315
vt 0.355088 0.471344
vt 0.355088 0.471344
vt 0.355088 0.471344
vt 0.355088 0.471344
vt 0.230541 0.181315
vt 0.230541 0.181315
vt 0.230541 0.181315
vt 0.230541 0.181315
vt 0.206005 0.181315
vt 0.206005 0.181315
vt 0.206005 0.181315
vt 0.206005 0.181315
vt 0.206005 0.181315
vt 0.206005 0.181315
vt 0.206005 0.181315
vt 0.206005 0.181315
vt 0.206005 0.181315
vt 0.206005 0.181315
vt 0.206005 0.181315
vt 0.206005 0.181315
vt 0.206005 0.181315
vt 0.206005 0.181315
vt 0.206005 0.181315
vt 0.206005 0.181315
vt 0.206005 0.181315
vt 0.206005 0.181315
vt 0.206005 0.181315
vt 0.206005 0.181315
vt 0.206005 0.181315
vt 0.206005 0.181315
vt 0.206005 0.181315
vt 0.206005 0.181315
vt 0.230541 0.181315
vt 0.230541 0.181315
vt 0.230541 0.181315
vt 0.230541 0.181315
vt 0.230541 0.181315
vt 0.230541 0.181315
vt 0.230541 0.181315
vt 0.230541 0.181315
vt 0.330552 0.471344
vt 0.330552 0.471344
vt 0.330552 0.471344
vt 0.330552 0.471344
vt 0.879554 0.743805
vt 0.998111 0.743805
vt 0.998111 0.892391
vt 0.879554 0.892391
vt 0.330552 0.471344
vt 0.330552 0.471344
vt 0.330552 0.471344
vt 0.330552 0.471344
vt 0.168179 0.357248
vt 0.168179 0.357248
vt 0.168179 0.357248
vt 0.168179 0.357248
vt 0.355088 0.471344
vt 0.355088 0.471344
vt 0.355088 0.471344
vt 0.355088 0.471344
vt 0.230541 0.357248
vt 0.230541 0.357248
vt 0.230541 0.357248
vt 0.230541 0.357248
vt 0.206005 0.357248
vt 0.206005 0.357248
vt 0.206005 0.357248
vt 0.206005 0.357248
vt 0.206005 0.357248
vt 0.206005 0.357248
vt 0.206005 0.357248
vt 0.206005 0.357248
vt 0.206005 0.357248
vt 0.206005 0.357248
vt 0.206005 0.357248
vt 0.206005 0.357248
vt 0.206005 0.357248
vt 0.206005 0.357248
vt 0.206005 0.357248
vt 0.206005 0.357248
vt 0.206005 0.357248
vt 0.206005 0.357248
vt 0.206005 0.357248
vt 0.206005 0.357248
vt 0.206005 0.357248
vt 0.206005 0.357248
vt 0.206005 0.357248
vt 0.206005 0.357248
vt 0.230541 0.357248
vt 0.230541 0.357248
vt 0.230541 0.357248
vt 0.230541 0.357248
vt 0.230541 0.357248
vt 0.230541 0.357248
vt 0.230541 0.357248
vt 0.230541 0.357248
vt 0.264278 0.357248
vt 0.264278 0.357248
vt 0.264278 0.357248
vt 0.264278 0.357248
vt 0.264278 0.357248
vt 0.264278 0.357248
vt 0.264278 0.357248
vt 0.264278 0.357248
vn 0.000000 0.000000 -1.000000
vn 0.000000 0.000000 -1.000000
vn 0.000000 0.000000 -1.000000
vn 0.000000 0.000000 -1.000000
vn 0.000000 1.000000 0.000000
vn 0.000000 1.000000 0.000000
vn 0.000000 1.000000 0.000000
vn 0.000000 1.000000 0.000000
vn 0.000000 0.000000 1.000000
vn 0.000000 0.000000 1.000000
vn 0.000000 0.000000 1.000000
vn 0.000000 0.000000 1.000000
vn 0.000000 -1.000000 0.000000
vn 0.000000 -1.000000 0.000000
vn 0.000000 -1.000000 0.000000
vn 0.000000 -1.000000 0.000000
vn -1.000000 0.000000 0.000000
vn -1.000000 0.000000 0.000000
vn -1.000000 0.000000 0.000000
vn -1.000000 0.000000 0.000000
vn 1.000000 0.000000 0.000000
vn 1.000000 0.000000 0.000000
vn 1.000000 0.000000 0.000000
vn 1.000000 0.000000 0.000000
vn 0.000000 0.000000 -1.000000
vn 0.000000 0.000000 -1.000000
vn 0.000000 0.000000 -1.000000
vn 0.000000 0.000000 -1.000000
vn 0.000000 1.000000 0.000000
vn 0.000000 1.000000 0.000000
vn 0.000000 1.000000 0.000000
vn 0.000000 1.000000 0.000000
vn 0.000000 0.000000 1.000000
vn 0.000000 0.000000 1.000000
vn 0.000000 0.000000 1.000000
vn 0.000000 0.000000 1.000000
vn 0.000000 -1.000000 0.000000
vn 0.000000 -1.000000 0.000000
vn 0.000000 -1.000000 0.000000
vn 0.000000 -1.000000 0.000000
vn -1.000000 0.000000 -0.000007
vn -1.000000 0.000000 -0.000007
vn -1.000000 0.000000 -0.000007
vn -1.000000 0.000000 -0.000007
vn 1.000000 0.000000 -0.000007
vn 1.000000 0.000000 -0.000007
vn 1.000000 0.000000 -0.000007
vn 1.000000 0.000000 -0.000007
vn 0.000011 0.000000 -1.000000
vn 0.000011 0.000000 -1.000000
vn 0.000011 0.000000 -1.000000
vn 0.000011 0.000000 -1.000000
vn 0.000000 1.000000 0.000000
vn 0.000000 1.000000 0.000000
vn 0.000000 1.000000 0.000000
vn 0.000000 1.000000 0.000000
vn 0.000000 0.000000 1.000000
vn 0.000000 0.000000 1.000000
vn 0.000000 0.000000 1.000000
vn 0.000000 0.000000 1.000000
vn 0.000000 -1.000000 0.000000
vn 0.000000 -1.000000 0.000000
vn 0.000000 -1.000000 0.000000
vn 0.000000 -1.000000 0.000000
vn -1.000000 0.000000 -0.000007
vn -1.000000 0.000000 -0.000007
vn -1.000000 0.000000 -0.000007
vn -1.000000 0.000000 -0.000007
vn 1.000000 0.000000 0.000007
vn 1.000000 0.000000 0.000007
vn 1.000000 0.000000 0.000007
vn 1.000000 0.000000 0.000007
vn 0.000000 0.000000 -1.000000
vn 0.000000 0.000000 -1.000000
vn 0.000000 0.000000 -1.000000
vn 0.000000 0.000000 -1.000000
vn 0.000000 1.000000 0.000000
vn 0.000000 1.000000 0.000000
vn 0.000000 1.000000 0.000000
vn 0.000000 1.000000 0.000000
vn 0.000000 0.000000 1.000000
vn 0.000000 0.000000 1.000000
vn 0.000000 0.000000 1.000000
vn 0.000000 0.000000 1.000000
vn 0.000000 -1.000000 0.000000
vn 0.000000 -1.000000 0.000000
vn 0.000000 -1.000000 0.000000
vn 0.000000 -1.000000 0.000000
vn -1.000000 0.000000 0.000000
vn -1.000000 0.000000 0.000000
vn -1.000000 0.000000 0.000000
vn -1.000000 0.000000 0.000000
vn 1.000000 0.000000 0.000000
vn 1.000000 0.000000 0.000000
vn 1.000000 0.000000 0.000000
vn 1.000000 0.000000 0.000000
vn 0.000000 0.000000 -1.000000
vn 0.000000 0.000000 -1.000000
vn 0.000000 0.000000 -1.000000
vn 0.000000 0.000000 -1.000000
vn 0.000000 1.000000 0.000000
vn 0.000000 1.000000 0.000000
vn 0.000000 1.000000 0.000000
vn 0.000000 1.000000 0.000000
vn 0.000000 0.000000 1.000000
vn 0.000000 0.000000 1.000000
vn 0.000000 0.000000 1.000000
vn 0.000000 0.000000 1.000000
vn 0.000000 -1.000000 0.000000
vn 0.000000 -1.000000 0.000000
vn 0.000000 -1.000000 0.000000
vn 0.000000 -1.000000 0.000000
vn -1.000000 0.000000 0.000000
vn -1.000000 0.000000 0.000000
vn -1.000000 0.000000 0.000000
vn -1.000000 0.000000 0.000000
vn 1.000000 0.000000 0.000000
vn 1.000000 0.000000 0.000000
vn 1.000000 0.000000 0.000000
vn 1.000000 0.000000 0.000000
vn 0.000000 0.000000 -1.000000
vn 0.000000 0.000000 -1.000000
vn 0.000000 0.000000 -1.000000
vn 0.000000 0.000000 -1.000000
vn 0.000000 1.000000 0.000000
vn 0.000000 1.000000 0.000000
vn 0.000000 1.000000 0.000000
vn 0.000000 1.000000 0.000000
vn 0.000000 0.000000 1.000000
vn 0.000000 0.000000 1.000000
vn 0.000000 0.000000 1.000000
vn 0.000000 0.000000 1.000000
vn 0.000000 -1.000000 0.000000
vn 0.000000 -1.000000 0.000000
vn 0.000000 -1.000000 0.000000
vn 0.000000 -1.000000 0.000000
vn -1.000000 0.000000 0.000000
vn -1.000000 0.000000 0.000000
vn -1.000000 0.000000 0.000000
vn -1.000000 0.000000 0.000000
vn 1.000000 0.000000 0.000000
vn 1.000000 0.000000 0.000000
vn 1.000000 0.000000 0.000000
vn 1.000000 0.000000 0.000000
vn -0.195164 0.975589 0.100680
vn -0.195164 0.975589 0.100680
vn -0.195164 0.975589 0.100680
vn -0.195164 0.975589 0.100680
vn 0.948321 -0.250483 -0.194796
vn 0.948321 -0.250483 -0.194796
vn 0.948321 -0.250483 -0.194796
vn 0.948321 -0.250483 -0.194796
vn -0.258244 -0.965967 -0.014749
vn -0.258244 -0.965967 -0.014749
vn -0.258244 -0.965967 -0.014749
vn -0.258244 -0.965967 -0.014749
vn 0.016604 -0.007043 0.999837
vn 0.019555 -0.007723 0.999779
vn -0.309459 0.068215 0.948463
vn -0.343729 0.118898 -0.931511
vn -0.346486 0.119509 -0.930411
vn -0.629973 0.179933 -0.755485
vn -0.926342 0.322049 0.195382
vn -0.926342 0.322049 0.195382
vn -0.926342 0.322049 0.195382
vn -0.926342 0.322049 0.195382
vn 0.023116 -0.008542 0.999696
vn 0.023116 -0.008542 0.999696
vn 0.019555 -0.007723 0.999779
vn 0.016604 -0.007043 0.999837
vn 0.945593 -0.260460 -0.194972
vn 0.945593 -0.260460 -0.194972
vn 0.945593 -0.260460 -0.194972
vn 0.945593 -0.260460 -0.194972
vn -0.340401 0.118159 -0.932827
vn -0.340401 0.118159 -0.932827
vn -0.346486 0.119509 -0.930411
vn -0.343729 0.118898 -0.931511
vn 0.292215 0.956321 0.007729
vn 0.292215 0.956321 0.007729
vn 0.292215 0.956321 0.007729
vn 0.292215 0.956321 0.007729
vn -0.252394 0.052702 0.966188
vn -0.252394 0.052702 0.966188
vn -0.252394 0.052702 0.966188
vn -0.252394 0.052702 0.966188
vn -0.223945 -0.974359 -0.021758
vn -0.223945 -0.974359 -0.021758
vn -0.223945 -0.974359 -0.021758
vn -0.223945 -0.974359 -0.021758
vn -0.583599 0.168135 -0.794445
vn -0.583599 0.168135 -0.794445
vn -0.583599 0.168135 -0.794445
vn -0.583599 0.168135 -0.794445
vn 0.420609 0.907029 -0.019655
vn 0.420609 0.907029 -0.019655
vn 0.420609 0.907029 -0.019655
vn 0.420609 0.907029 -0.019655
vn 0.552159 -0.160149 0.818213
vn 0.552159 -0.160149 0.818213
vn 0.552159 -0.160149 0.818213
vn 0.552159 -0.160149 0.818213
vn -0.355289 -0.934740 0.005543
vn -0.355289 -0.934740 0.005543
vn -0.355289 -0.934740 0.005543
vn -0.355289 -0.934740 0.005543
vn 0.214693 -0.042489 -0.975757
vn 0.214693 -0.042489 -0.975757
vn 0.214693 -0.042489 -0.975757
vn 0.214693 -0.042489 -0.975757
vn 0.119754 0.954203 -0.274146
vn 0.119754 0.954203 -0.274146
vn 0.119754 0.954203 -0.274146
vn 0.119754 0.954203 -0.274146
vn -0.359615 -0.161526 0.919014
vn -0.359615 -0.161526 0.919014
vn -0.359615 -0.161526 0.919014
vn -0.359615 -0.161526 0.919014
vn 0.046718 -0.986790 -0.155123
vn 0.046718 -0.986790 -0.155123
vn 0.046718 -0.986790 -0.155123
vn 0.046718 -0.986790 -0.155123
vn -0.853923 0.053347 -0.517658
vn -0.855495 0.052975 -0.515094
vn -0.631452 0.091169 -0.770037
vn 0.979700 0.027677 0.198551
vn 0.980282 0.028062 0.195603
vn 0.987710 0.068857 -0.140316
vn 0.355099 0.234801 -0.904861
vn 0.355099 0.234801 -0.904861
vn 0.355099 0.234801 -0.904861
vn 0.355099 0.234801 -0.904861
vn -0.857381 0.052526 -0.511995
vn -0.857381 0.052526 -0.511996
vn -0.855495 0.052975 -0.515094
vn -0.853923 0.053347 -0.517658
vn -0.359102 -0.171626 0.917383
vn -0.359102 -0.171626 0.917383
vn -0.359102 -0.171626 0.917383
vn -0.359102 -0.171626 0.917383
vn 0.978986 0.027212 0.202104
vn 0.978986 0.027212 0.202104
vn 0.980282 0.028062 0.195603
vn 0.979700 0.027677 0.198551
vn -0.059634 0.980337 0.188106
vn -0.059634 0.980337 0.188106
vn -0.059634 0.980337 0.188106
vn -0.059634 0.980337 0.188106
vn -0.678011 0.082728 -0.730381
vn -0.678011 0.082728 -0.730381
vn -0.678011 0.082728 -0.730381
vn -0.678011 0.082728 -0.730381
vn 0.033744 -0.991964 -0.121940
vn 0.033744 -0.991964 -0.121940
vn 0.033744 -0.991964 -0.121940
vn 0.033744 -0.991964 -0.121940
vn 0.995022 0.059672 -0.079810
vn 0.995022 0.059672 -0.079810
vn 0.995022 0.059672 -0.079810
vn 0.995022 0.059672 -0.079810
vn -0.109083 0.943154 0.313946
vn -0.109083 0.943154 0.313946
vn -0.109083 0.943154 0.313946
vn -0.109083 0.943154 0.313946
vn -0.997758 -0.053541 0.040147
vn -0.997758 -0.053541 0.040147
vn -0.997758 -0.053541 0.040147
vn -0.997758 -0.053541 0.040147
vn 0.083795 -0.964695 -0.249682
vn 0.083795 -0.964695 -0.249682
vn 0.083795 -0.964695 -0.249682
vn 0.083795 -0.964695 -0.249682
vn 0.706957 -0.077083 0.703044
vn 0.706957 -0.077083 0.703044
vn 0.706957 -0.077083 0.703044
vn 0.706957 -0.077083 0.703044
vn 0.180482 0.968435 0.171932
vn 0.180482 0.968435 0.171932
vn 0.180482 0.968435 0.171932
vn 0.180482 0.968435 0.171932
vn -0.630843 -0.213786 -0.745877
vn -0.630843 -0.213786 -0.745877
vn -0.630843 -0.213786 -0.745877
vn -0.630843 -0.213786 -0.745877
vn 0.115085 -0.976445 0.182513
vn 0.115085 -0.976445 0.182513
vn 0.115085 -0.976445 0.182513
vn 0.115085 -0.976445 0.182513
vn 0.865548 0.021012 -0.500384
vn 0.864064 0.020462 -0.502967
vn 0.979060 0.080386 -0.187027
vn -0.647025 0.078150 0.758453
vn -0.644725 0.078670 0.760356
vn -0.354177 0.131370 0.925905
vn 0.620437 0.286155 0.730187
vn 0.620437 0.286155 0.730187
vn 0.620437 0.286155 0.730187
vn 0.620437 0.286155 0.730187
vn 0.862262 0.019798 -0.506076
vn 0.862262 0.019798 -0.506076
vn 0.864064 0.020462 -0.502967
vn 0.865548 0.021012 -0.500384
vn -0.629608 -0.223789 -0.743984
vn -0.629608 -0.223789 -0.743984
vn -0.629608 -0.223789 -0.743984
vn -0.629608 -0.223789 -0.743984
vn -0.649791 0.077522 0.756149
vn -0.649791 0.077522 0.756149
vn -0.644725 0.078670 0.760356
vn -0.647025 0.078150 0.758453
vn -0.137715 0.968117 -0.209245
vn -0.137715 0.968117 -0.209245
vn -0.137715 0.968117 -0.209245
vn -0.137715 0.968117 -0.209245
vn 0.966839 0.067928 -0.246187
vn 0.966839 0.067928 -0.246187
vn 0.966839 0.067928 -0.246187
vn 0.966839 0.067928 -0.246187
vn 0.092300 -0.983507 0.155544
vn 0.092300 -0.983507 0.155544
vn 0.092300 -0.983507 0.155544
vn 0.092300 -0.983507 0.155544
vn -0.410733 0.120543 0.903752
vn -0.410733 0.120543 0.903752
vn -0.410733 0.120543 0.903752
vn -0.410733 0.120543 0.903752
vn -0.223965 0.923798 -0.310543
vn -0.223965 0.923798 -0.310543
vn -0.223965 0.923798 -0.310543
vn -0.223965 0.923798 -0.310543
vn 0.446760 -0.113197 -0.887464
vn 0.446760 -0.113197 -0.887464
vn 0.446760 -0.113197 -0.887464
vn 0.446760 -0.113197 -0.887464
vn 0.179942 -0.948980 0.258956
vn 0.179942 -0.948980 0.258956
vn 0.179942 -0.948980 0.258956
vn 0.179942 -0.948980 0.258956
vn -0.956892 -0.059635 0.284256
vn -0.956892 -0.059635 0.284256
vn -0.956892 -0.059635 0.284256
vn -0.956892 -0.059635 0.284256
vn -0.998481 0.033265 0.043919
vn -0.998481 0.033265 0.043919
vn -0.944125 0.328101 0.031273
vn -0.944125 0.328101 0.031273
vn 0.050062 0.998069 -0.036761
vn 0.050062 0.998069 -0.036761
vn 0.050062 0.998069 -0.036761
vn 0.050062 0.998069 -0.036761
vn 0.972067 0.228920 -0.051786
vn 0.972067 0.228920 -0.051786
vn 0.996639 -0.069997 -0.042564
vn 0.996639 -0.069998 -0.042564
vn -0.050059 -0.998069 0.036763
vn -0.050059 -0.998069 0.036763
vn -0.050059 -0.998069 0.036763
vn -0.050059 -0.998069 0.036763
vn 0.044142 0.016137 0.998895
vn 0.044141 0.016136 0.998895
vn 0.057250 0.311652 0.948470
vn 0.057250 0.311652 0.948470
vn -0.045982 -0.052875 -0.997542
vn -0.045982 -0.052876 -0.997542
vn -0.029307 0.245365 -0.968988
vn -0.029307 0.245365 -0.968988
vn -0.990126 -0.131257 0.049221
vn -0.990126 -0.131257 0.049221
vn -0.998481 0.033265 0.043919
vn -0.998481 0.033265 0.043919
vn 0.035180 -0.148089 0.988348
vn 0.035180 -0.148090 0.988348
vn 0.044141 0.016136 0.998895
vn 0.044142 0.016137 0.998895
vn 0.996639 -0.069998 -0.042564
vn 0.996639 -0.069997 -0.042564
vn 0.971866 -0.232795 -0.035829
vn 0.971866 -0.232794 -0.035829
vn -0.053458 -0.215961 -0.974938
vn -0.053458 -0.215959 -0.974938
vn -0.045982 -0.052876 -0.997542
vn -0.045982 -0.052875 -0.997542
vn -0.997729 0.051638 0.043239
vn -0.997729 0.051638 0.043239
vn -0.990126 -0.131257 0.049221
vn -0.990126 -0.131257 0.049221
vn 0.045064 0.034514 0.998388
vn 0.045064 0.034514 0.998388
vn 0.035180 -0.148090 0.988348
vn 0.035180 -0.148089 0.988348
vn 0.971866 -0.232794 -0.035829
vn 0.971866 -0.232795 -0.035829
vn 0.997728 -0.051639 -0.043261
vn 0.997728 -0.051639 -0.043261
vn -0.045089 -0.034513 -0.998387
vn -0.045089 -0.034513 -0.998387
vn -0.053458 -0.215959 -0.974938
vn -0.053458 -0.215961 -0.974938
vn -1.000000 0.000000 0.000000
vn -1.000000 0.000000 0.000000
vn -1.000000 0.000000 0.000000
vn -1.000000 0.000000 0.000000
vn 0.000000 1.000000 0.000000
vn 0.000000 1.000000 0.000000
vn 0.000000 1.000000 0.000000
vn 0.000000 1.000000 0.000000
vn 1.000000 0.000000 0.000000
vn 1.000000 0.000000 0.000000
vn 1.000000 0.000000 0.000000
vn 1.000000 0.000000 0.000000
vn 0.000000 -1.000000 0.000000
vn 0.000000 -1.000000 0.000000
vn 0.000000 -1.000000 0.000000
vn 0.000000 -1.000000 0.000000
vn 0.000000 0.000000 1.000000
vn 0.000000 0.000000 1.000000
vn 0.000000 0.000000 1.000000
vn 0.000000 0.000000 1.000000
vn 0.000000 0.000000 -1.000000
vn 0.000000 0.000000 -1.000000
vn 0.000000 0.000000 -1.000000
vn 0.000000 0.000000 -1.000000
vn -1.000000 -0.000002 -0.000002
vn -1.000000 -0.000002 -0.000002
vn -1.000000 -0.000002 -0.000002
vn -1.000000 -0.000002 -0.000002
vn 0.000000 0.000000 1.000000
vn 0.000000 0.000000 1.000000
vn 0.000000 0.000000 1.000000
vn 0.000000 0.000000 1.000000
vn 1.000000 0.000002 0.000002
vn 1.000000 0.000002 0.000002
vn 1.000000 0.000002 0.000002
vn 1.000000 0.000002 0.000002
vn 0.000000 0.000004 -1.000000
vn 0.000000 0.000004 -1.000000
vn 0.000000 0.000004 -1.000000
vn 0.000000 0.000004 -1.000000
vn 0.000000 -1.000000 0.000000
vn 0.000000 -1.000000 0.000000
vn 0.000000 -1.000000 0.000000
vn 0.000000 -1.000000 0.000000
vn 0.000000 1.000000 0.000000
vn 0.000000 1.000000 0.000000
vn 0.000000 1.000000 0.000000
vn 0.000000 1.000000 0.000000
vn 0.000000 1.000000 0.000000
vn 0.000000 1.000000 0.000000
vn 0.000000 1.000000 0.000000
vn 0.000000 1.000000 0.000000
vn 0.000000 -1.000000 0.000000
vn 0.000000 -1.000000 0.000000
vn 0.000000 -1.000000 0.000000
vn 0.000000 -1.000000 0.000000
vn 0.000000 -1.000000 -0.000001
vn 0.000000 -1.000000 -0.000001
vn 0.000000 -1.000000 -0.000001
vn 0.000000 -1.000000 -0.000001
vn 0.000000 1.000000 0.000000
vn 0.000000 1.000000 0.000000
vn 0.000000 1.000000 0.000000
vn 0.000000 1.000000 0.000000
vn 0.000000 -1.000000 0.000001
vn 0.000000 -1.000000 0.000001
vn 0.000000 -1.000000 0.000001
vn 0.000000 -1.000000 0.000001
vn 0.000000 1.000000 0.000000
vn 0.000000 1.000000 0.000000
vn 0.000000 1.000000 0.000000
vn 0.000000 1.000000 0.000000
vn 1.000000 0.000000 0.000000
vn 1.000000 0.000000 0.000000
vn 1.000000 0.000000 0.000000
vn 1.000000 0.000000 0.000000
vn 0.000000 0.000000 -1.000000
vn 0.000000 0.000000 -1.000000
vn 0.000000 0.000000 -1.000000
vn 0.000000 0.000000 -1.000000
vn -1.000000 0.000000 0.000000
vn -1.000000 0.000000 0.000000
vn -1.000000 0.000000 0.000000
vn -1.000000 0.000000 0.000000
vn 0.000000 0.000000 1.000000
vn 0.000000 0.000000 1.000000
vn 0.000000 0.000000 1.000000
vn 0.000000 0.000000 1.000000
vn -1.000000 0.000000 0.000000
vn -1.000000 0.000000 0.000000
vn -1.000000 0.000000 0.000000
vn -1.000000 0.000000 0.000000
vn 0.000000 1.000000 0.000000
vn 0.000000 1.000000 0.000000
vn 0.000000 1.000000 0.000000
vn 0.000000 1.000000 0.000000
vn 1.000000 0.000000 0.000000
vn 1.000000 0.000000 0.000000
vn 1.000000 0.000000 0.000000
vn 1.000000 0.000000 0.000000
vn 0.000000 -1.000000 -0.000000
vn 0.000000 -1.000000 -0.000000
vn 0.000000 -1.000000 -0.000000
vn 0.000000 -1.000000 -0.000000
vn 0.000000 0.000000 1.000000
vn 0.000000 0.000000 1.000000
vn 0.000000 0.000000 1.000000
vn 0.000000 0.000000 1.000000
vn 0.000000 0.000000 -1.000000
vn 0.000000 0.000000 -1.000000
vn 0.000000 0.000000 -1.000000
vn 0.000000 0.000000 -1.000000
vn -1.000000 0.000125 0.000001
vn -1.000000 0.000125 0.000001
vn -1.000000 0.000125 0.000001
vn -1.000000 0.000125 0.000001
vn -1.000000 -0.000124 0.000001
vn -1.000000 -0.000124 0.000001
vn -1.000000 -0.000124 0.000001
vn -1.000000 -0.000124 0.000001
vn -1.000000 0.000000 0.000071
vn -1.000000 0.000000 0.000071
vn -1.000000 0.000000 0.000071
vn -1.000000 0.000000 0.000071
vn 1.000000 -0.000125 0.000001
vn 1.000000 -0.000125 0.000001
vn 1.000000 -0.000125 0.000001
vn 1.000000 -0.000125 0.000001
vn 1.000000 0.000124 0.000001
vn 1.000000 0.000124 0.000001
vn 1.000000 0.000124 0.000001
vn 1.000000 0.000124 0.000001
vn 1.000000 0.000000 0.000071
vn 1.000000 0.000000 0.000071
vn 1.000000 0.000000 0.000071
vn 1.000000 0.000000 0.000071
vn 0.000000 0.000000 1.000000
vn 0.000000 0.000000 1.000000
vn 0.000000 0.000000 1.000000
vn 0.000000 0.000000 1.000000
vn 0.000000 0.000000 1.000000
vn 0.000000 0.000000 1.000000
vn 0.000000 0.000000 1.000000
vn 0.000000 0.000000 1.000000
vn -0.988634 0.000000 0.150342
vn -0.988634 0.000000 0.150342
vn -0.988634 0.000000 0.150342
vn -0.988634 0.000000 0.150342
vn 0.000000 1.000000 0.000000
vn 0.000000 1.000000 0.000000
vn 0.000000 1.000000 0.000000
vn 0.000000 1.000000 0.000000
vn 0.988635 0.000000 -0.150338
vn 0.988635 0.000000 -0.150338
vn 0.988635 0.000000 -0.150338
vn 0.988635 0.000000 -0.150338
vn 0.000000 -1.000000 0.000000
vn 0.000000 -1.000000 0.000000
vn 0.000000 -1.000000 0.000000
vn 0.000000 -1.000000 0.000000
vn 0.150338 0.000000 0.988635
vn 0.150338 0.000000 0.988635
vn 0.150338 0.000000 0.988635
vn 0.150338 0.000000 0.988635
vn -0.150338 0.000000 -0.988635
vn -0.150338 0.000000 -0.988635
vn -0.150338 0.000000 -0.988635
vn -0.150338 0.000000 -0.988635
vn -0.988634 -0.000125 0.150342
vn -0.988634 -0.000125 0.150342
vn -0.988634 -0.000125 0.150342
vn -0.988634 -0.000125 0.150342
vn -0.988635 0.000124 0.150339
vn -0.988635 0.000124 0.150339
vn -0.988635 0.000124 0.150339
vn -0.988635 0.000124 0.150339
vn -0.988645 0.000000 0.150273
vn -0.988645 0.000000 0.150273
vn -0.988645 0.000000 0.150273
vn -0.988645 0.000000 0.150273
vn 0.988634 0.000063 -0.150339
vn 0.988634 0.000063 -0.150339
vn 0.988634 0.000063 -0.150339
vn 0.988634 0.000063 -0.150339
vn 0.988635 -0.000065 -0.150339
vn 0.988635 -0.000065 -0.150339
vn 0.988635 -0.000065 -0.150339
vn 0.988635 -0.000065 -0.150339
vn 0.988629 0.000000 -0.150374
vn 0.988629 0.000000 -0.150374
vn 0.988629 0.000000 -0.150374
vn 0.988629 0.000000 -0.150374
vn 0.150338 0.000000 0.988635
vn 0.150338 0.000000 0.988635
vn 0.150338 0.000000 0.988635
vn 0.150338 0.000000 0.988635
vn 0.150338 0.000000 0.988635
vn 0.150338 0.000000 0.988635
vn 0.150338 0.000000 0.988635
vn 0.150338 0.000000 0.988635
vn -0.992850 0.000000 -0.119369
vn -0.992850 0.000000 -0.119369
vn -0.992850 0.000000 -0.119369
vn -0.992850 0.000000 -0.119369
vn 0.000000 1.000000 0.000000
vn 0.000000 1.000000 0.000000
vn 0.000000 1.000000 0.000000
vn 0.000000 1.000000 0.000000
vn 0.992849 0.000000 0.119375
vn 0.992849 0.000000 0.119375
vn 0.992849 0.000000 0.119375
vn 0.992849 0.000000 0.119375
vn 0.000000 -1.000000 -0.000000
vn 0.000000 -1.000000 -0.000000
vn 0.000000 -1.000000 -0.000000
vn 0.000000 -1.000000 -0.000000
vn -0.119373 0.000000 0.992849
vn -0.119373 0.000000 0.992849
vn -0.119373 0.000000 0.992849
vn -0.119373 0.000000 0.992849
vn 0.119374 0.000000 -0.992849
vn 0.119374 0.000000 -0.992849
vn 0.119374 0.000000 -0.992849
vn 0.119374 0.000000 -0.992849
vn -0.992850 0.000024 -0.119369
vn -0.992850 0.000024 -0.119369
vn -0.992850 0.000024 -0.119369
vn -0.992850 0.000024 -0.119369
vn -0.992850 -0.000022 -0.119367
vn -0.992850 -0.000022 -0.119367
vn -0.992850 -0.000022 -0.119367
vn -0.992850 -0.000022 -0.119367
vn -0.992852 0.000000 -0.119353
vn -0.992852 0.000000 -0.119353
vn -0.992852 0.000000 -0.119353
vn -0.992852 0.000000 -0.119353
vn 0.992849 -0.000068 0.119375
vn 0.992849 -0.000068 0.119375
vn 0.992849 -0.000068 0.119375
vn 0.992849 -0.000068 0.119375
vn 0.992849 0.000070 0.119378
vn 0.992849 0.000070 0.119378
vn 0.992849 0.000070 0.119378
vn 0.992849 0.000070 0.119378
vn 0.992845 0.000000 0.119415
vn 0.992844 0.000000 0.119415
vn 0.992844 0.000000 0.119415
vn 0.992845 0.000000 0.119415
vn -0.119372 0.000000 0.992850
vn -0.119372 0.000000 0.992850
vn -0.119372 0.000000 0.992850
vn -0.119372 0.000000 0.992850
vn -0.119372 0.000000 0.992850
vn -0.119372 0.000000 0.992850
vn -0.119372 0.000000 0.992850
vn -0.119372 0.000000 0.992850
vn 0.000000 1.000000 -0.000000
vn 0.000000 1.000000 -0.000000
vn 0.000000 1.000000 -0.000000
vn 0.000000 1.000000 -0.000000
vn 0.000000 1.000000 -0.000001
vn 0.000000 1.000000 -0.000001
vn 0.000000 1.000000 -0.000001
vn 0.000000 1.000000 -0.000001
vn 0.000000 1.000000 0.000000
vn 0.000000 1.000000 0.000000
vn 0.000000 1.000000 0.000000
vn 0.000000 1.000000 0.000000
vn 0.000000 1.000000 -0.000000
vn 0.000000 1.000000 -0.000000
vn 0.000000 1.000000 -0.000000
vn 0.000000 1.000000 -0.000000
s off
f 1/1/1 2/2/2 4/3/3 3/4/4
f 3/5/5 4/6/6 6/7/7 5/8/8
f 5/9/9 6/10/10 8/11/11 7/12/12
f 7/13/13 8/14/14 2/15/15 1/16/16
f 2/17/17 8/18/18 6/19/19 4/20/20
f 7/21/21 1/22/22 3/23/23 5/24/24
f 9/25/25 10/26/26 12/27/27 11/28/28
f 11/29/29 12/30/30 14/31/31 13/32/32
f 13/33/33 14/34/34 16/35/35 15/36/36
f 15/37/37 16/38/38 10/39/39 9/40/40
f 10/41/41 16/42/42 14/43/43 12/44/44
f 15/45/45 9/46/46 11/47/47 13/48/48
f 17/49/49 18/50/50 20/51/51 19/52/52
f 19/53/53 20/54/54 22/55/55 21/56/56
f 21/57/57 22/58/58 24/59/59 23/60/60
f 23/61/61 24/62/62 18/63/63 17/64/64
f 18/65/65 24/66/66 22/67/67 20/68/68
f 23/69/69 17/70/70 19/71/71 21/72/72
f 25/73/73 26/74/74 28/75/75 27/76/76
f 27/77/77 28/78/78 30/79/79 29/80/80
f 29/81/81 30/82/82 32/83/83 31/84/84
f 31/85/85 32/86/86 26/87/87 25/88/88
f 26/89/89 32/90/90 30/91/91 28/92/92
f 31/93/93 25/94/94 27/95/95 29/96/96
f 33/97/97 34/98/98 36/99/99 35/100/100
f 35/101/101 36/102/102 38/103/103 37/104/104
f 37/105/105 38/106/106 40/107/107 39/108/108
f 39/109/109 40/110/110 34/111/111 33/112/112
f 34/113/113 40/114/114 38/115/115 36/116/116
f 39/117/117 33/118/118 35/119/119 37/120/120
f 41/121/121 42/122/122 44/123/123 43/124/124
f 43/125/125 44/126/126 46/127/127 45/128/128
f 45/129/129 46/130/130 48/131/131 47/132/132
f 47/133/133 48/134/134 42/135/135 41/136/136
f 42/137/137 48/138/138 46/139/139 44/140/140
f 47/141/141 41/142/142 43/143/143 45/144/144
f 51/145/145 52/146/146 54/147/147 53/148/148
f 63/149/149 64/150/150 65/151/151 66/152/152
f 55/153/153 56/154/154 50/155/155 49/156/156
f 52/157/157 57/158/158 54/159/159
f 58/160/160 51/161/161 53/162/162
f 49/163/163 50/164/164 52/165/165 51/166/166
f 50/167/167 56/168/168 57/169/169 52/170/170
f 58/171/171 57/172/172 56/173/173 55/174/174
f 55/175/175 49/176/176 51/177/177 58/178/178
f 53/179/179 54/180/180 60/181/181 59/182/182
f 54/183/183 57/184/184 61/185/185 60/186/186
f 57/187/187 58/188/188 62/189/189 61/190/190
f 58/191/191 53/192/192 59/193/193 62/194/194
f 59/195/195 60/196/196 64/197/197 63/198/198
f 60/199/199 61/200/200 65/201/201 64/202/202
f 61/203/203 62/204/204 66/205/205 65/206/206
f 62/207/207 59/208/208 63/209/209 66/210/210
f 69/211/211 70/212/212 72/213/213 71/214/214
f 81/215/215 82/216/216 83/217/217 84/218/218
f 73/219/219 74/220/220 68/221/221 67/222/222
f 70/223/223 75/224/224 72/225/225
f 76/226/226 69/227/227 71/228/228
f 67/229/229 68/230/230 70/231/231 69/232/232
f 68/233/233 74/234/234 75/235/235 70/236/236
f 76/237/237 75/238/238 74/239/239 73/240/240
f 73/241/241 67/242/242 69/243/243 76/244/244
f 71/245/245 72/246/246 78/247/247 77/248/248
f 72/249/249 75/250/250 79/251/251 78/252/252
f 75/253/253 76/254/254 80/255/255 79/256/256
f 76/257/257 71/258/258 77/259/259 80/260/260
f 77/261/261 78/262/262 82/263/263 81/264/264
f 78/265/265 79/266/266 83/267/267 82/268/268
f 79/269/269 80/270/270 84/271/271 83/272/272
f 80/273/273 77/274/274 81/275/275 84/276/276
f 87/277/277 88/278/278 90/279/279 89/280/280
f 99/281/281 100/282/282 101/283/283 102/284/284
f 91/285/285 92/286/286 86/287/287 85/288/288
f 88/289/289 93/290/290 90/291/291
f 94/292/292 87/293/293 89/294/294
f 85/295/295 86/296/296 88/297/297 87/298/298
f 86/299/299 92/300/300 93/301/301 88/302/302
f 94/303/303 93/304/304 92/305/305 91/306/306
f 91/307/307 85/308/308 87/309/309 94/310/310
f 89/311/311 90/312/312 96/313/313 95/314/314
f 90/315/315 93/316/316 97/317/317 96/318/318
f 93/319/319 94/320/320 98/321/321 97/322/322
f 94/323/323 89/324/324 95/325/325 98/326/326
f 95/327/327 96/328/328 100/329/329 99/330/330
f 96/331/331 97/332/332 101/333/333 100/334/334
f 97/335/335 98/336/336 102/337/337 101/338/338
f 98/339/339 95/340/340 99/341/341 102/342/342
f 111/343/343 112/344/344 106/345/345 105/346/346
f 105/347/347 106/348/348 108/349/349 107/350/350
f 107/351/351 108/352/352 113/353/353 114/354/354
f 109/355/355 110/356/356 104/357/357 103/358/358
f 112/359/359 113/360/360 108/361/361 106/362/362
f 114/363/363 111/364/364 105/365/365 107/366/366
f 115/367/367 116/368/368 112/369/369 111/370/370
f 116/371/371 117/372/372 113/373/373 112/374/374
f 114/375/375 113/376/376 117/377/377 118/378/378
f 118/379/379 115/380/380 111/381/381 114/382/382
f 103/383/383 104/384/384 116/385/385 115/386/386
f 104/387/387 110/388/388 117/389/389 116/390/390
f 118/391/391 117/392/392 110/393/393 109/394/394
f 109/395/395 103/396/396 115/397/397 118/398/398
f 131/399/399 132/400/400 133/401/401 134/402/402
f 139/403/403 140/404/404 141/405/405 142/406/406
f 135/407/407 136/408/408 137/409/409 138/410/410
f 125/411/411 126/412/412 120/413/413 119/414/414
f 132/415/415 137/416/416 136/417/417 133/418/418
f 138/419/419 131/420/420 134/421/421 135/422/422
f 119/423/423 120/424/424 128/425/425 127/426/426
f 120/427/427 126/428/428 129/429/429 128/430/430
f 130/431/431 129/432/432 126/433/433 125/434/434
f 125/435/435 119/436/436 127/437/437 130/438/438
f 127/439/439 128/440/440 132/441/441 131/442/442
f 122/443/443 121/444/444 134/445/445 133/446/446
f 123/447/447 124/448/448 136/449/449 135/450/450
f 129/451/451 130/452/452 138/453/453 137/454/454
f 128/455/455 129/456/456 137/457/457 132/458/458
f 124/459/459 122/460/460 133/461/461 136/462/462
f 130/463/463 127/464/464 131/465/465 138/466/466
f 121/467/467 123/468/468 135/469/469 134/470/470
f 121/471/471 122/472/472 140/473/473 139/474/474
f 122/475/475 124/476/476 141/477/477 140/478/478
f 124/479/479 123/480/480 142/481/481 141/482/482
f 123/483/483 121/484/484 139/485/485 142/486/486
f 151/487/487 152/488/488 153/489/489 154/490/490
f 145/491/491 146/492/492 148/493/493 147/494/494
f 155/495/495 156/496/496 157/497/497 158/498/498
f 149/499/499 150/500/500 144/501/501 143/502/502
f 152/503/503 157/504/504 156/505/505 153/506/506
f 149/507/507 143/508/508 145/509/509 147/510/510
f 143/511/511 144/512/512 152/513/513 151/514/514
f 146/515/515 145/516/516 154/517/517 153/518/518
f 145/519/519 143/520/520 151/521/521 154/522/522
f 147/523/523 148/524/524 156/525/525 155/526/526
f 150/527/527 149/528/528 158/529/529 157/530/530
f 149/531/531 147/532/532 155/533/533 158/534/534
f 144/535/535 150/536/536 157/537/537 152/538/538
f 148/539/539 146/540/540 153/541/541 156/542/542
f 167/543/543 168/544/544 169/545/545 170/546/546
f 161/547/547 162/548/548 164/549/549 163/550/550
f 171/551/551 172/552/552 173/553/553 174/554/554
f 165/555/555 166/556/556 160/557/557 159/558/558
f 168/559/559 173/560/560 172/561/561 169/562/562
f 165/563/563 159/564/564 161/565/565 163/566/566
f 159/567/567 160/568/568 168/569/569 167/570/570
f 162/571/571 161/572/572 170/573/573 169/574/574
f 161/575/575 159/576/576 167/577/577 170/578/578
f 163/579/579 164/580/580 172/581/581 171/582/582
f 166/583/583 165/584/584 174/585/585 173/586/586
f 165/587/587 163/588/588 171/589/589 174/590/590
f 160/591/591 166/592/592 173/593/593 168/594/594
f 164/595/595 162/596/596 169/597/597 172/598/598
f 183/599/599 184/600/600 185/601/601 186/602/602
f 191/603/603 192/604/604 193/605/605 194/606/606
f 187/607/607 188/608/608 189/609/609 190/610/610
f 181/611/611 182/612/612 176/613/613 175/614/614
f 184/615/615 189/616/616 188/617/617 185/618/618
f 181/619/619 175/620/620 177/621/621 179/622/622
f 175/623/623 176/624/624 184/625/625 183/626/626
f 178/627/627 177/628/628 186/629/629 185/630/630
f 177/631/631 175/632/632 183/633/633 186/634/634
f 179/635/635 180/636/636 188/637/637 187/638/638
f 182/639/639 181/640/640 190/641/641 189/642/642
f 181/643/643 179/644/644 187/645/645 190/646/646
f 176/647/647 182/648/648 189/649/649 184/650/650
f 180/651/651 178/652/652 185/653/653 188/654/654
f 177/655/655 178/656/656 192/657/657 191/658/658
f 178/656/659 180/659/660 193/660/661 192/657/662
f 180/659/663 179/661/664 194/662/665 193/660/666
f 179/661/667 177/655/668 191/658/669 194/662/670
