# This file uses meters as units for non-parametric coordinates.

v -0.078845 0.238665 -0.029858
v -0.078845 0.238665 0.127832
v 0.078845 0.238665 -0.029857
v 0.078845 0.238665 0.127833
v -0.078845 0.629048 -0.029858
v -0.078845 0.629048 0.127832
v 0.078845 0.629048 0.127833
v 0.078845 0.629048 -0.029857
v -0.052573 0.629048 -0.003586
v -0.052573 0.629048 0.101560
v -0.052573 0.990586 0.101560
v -0.052573 0.990586 -0.003586
v 0.052573 0.990586 0.101561
v 0.052573 0.990586 -0.003585
v 0.052573 0.629048 0.101561
v 0.052573 0.629048 -0.003585
v -0.433331 0.981786 -0.391412
v -0.433331 0.981786 0.475253
v -0.433331 1.147998 -0.391412
v -0.433331 1.147998 0.475253
v 0.433333 1.147998 -0.391412
v 0.433332 1.147998 0.475253
v 0.433333 0.981786 -0.391412
v 0.433332 0.981786 0.475253
v -0.235186 2.107395 -0.539908
v -0.400000 1.309761 -0.449157
v -0.235186 2.118385 -0.397328
v -0.400000 1.320751 -0.306577
v 0.235186 2.118385 -0.397328
v 0.400001 1.320751 -0.306577
v 0.235185 2.107395 -0.539907
v 0.400001 1.309761 -0.449157
v 0.400000 1.888813 -0.379633
v -0.400000 1.888813 -0.379633
v -0.399999 1.877823 -0.522213
v 0.400001 1.877823 -0.522213
v 0.589891 0.099516 0.095085
v 0.589891 0.099516 -0.001709
v 0.613854 0.188947 0.095085
v 0.613854 0.188947 -0.001709
v 0.067984 0.335212 0.095085
v 0.067985 0.335212 -0.001709
v 0.044021 0.245781 0.095085
v 0.044022 0.245781 -0.001709
v 0.619415 0.000000 0.112421
v 0.619416 0.000000 -0.011533
v 0.619415 0.142195 0.112421
v 0.619416 0.142195 -0.011533
v 0.477220 0.142195 0.112421
v 0.477221 0.142195 -0.011532
v 0.477220 0.000000 0.112421
v 0.477221 0.000000 -0.011532
v -0.589890 0.099516 0.005804
v -0.589890 0.099516 0.102597
v -0.613854 0.188947 0.005804
v -0.613854 0.188947 0.102597
v -0.067985 0.335212 0.005804
v -0.067985 0.335212 0.102598
v -0.044022 0.245781 0.005804
v -0.044022 0.245781 0.102598
v -0.619416 0.000000 -0.011532
v -0.619415 0.000000 0.112421
v -0.619416 0.142195 -0.011532
v -0.619415 0.142195 0.112421
v -0.477220 0.142195 -0.011532
v -0.477220 0.142195 0.112421
v -0.477220 0.000000 -0.011532
v -0.477220 0.000000 0.112421
v 0.044640 0.099516 -0.539448
v -0.052154 0.099516 -0.539448
v 0.044640 0.188947 -0.563411
v -0.052154 0.188947 -0.563411
v 0.044640 0.335212 -0.017541
v -0.052154 0.335212 -0.017541
v 0.044641 0.245781 0.006422
v -0.052154 0.245781 0.006422
v 0.061976 0.000000 -0.568972
v -0.061976 0.000000 -0.568972
v 0.061976 0.142195 -0.568972
v -0.061976 0.142195 -0.568972
v 0.061976 0.142195 -0.426777
v -0.061976 0.142195 -0.426777
v 0.061976 0.000000 -0.426777
v -0.061976 0.000000 -0.426777
v -0.044641 0.099516 0.640335
v 0.052153 0.099516 0.640335
v -0.044641 0.188947 0.664298
v 0.052153 0.188947 0.664298
v -0.044641 0.335212 0.118429
v 0.052153 0.335212 0.118429
v -0.044641 0.245781 0.094466
v 0.052152 0.245781 0.094466
v -0.061976 0.000000 0.669858
v 0.061976 0.000000 0.669858
v -0.061976 0.142195 0.669858
v 0.061976 0.142195 0.669858
v -0.061976 0.142195 0.527664
v 0.061976 0.142195 0.527664
v -0.061976 0.000000 0.527664
v 0.061976 0.000000 0.527664
v -0.062682 0.849952 -0.499451
v -0.062682 0.945164 -0.405730
v -0.062682 1.708221 -0.609864
v -0.062682 1.721632 -0.505619
v 0.062682 1.708221 -0.609863
v 0.062682 1.721632 -0.505618
v 0.062682 0.849952 -0.499451
v 0.062682 0.945164 -0.405729
v 0.062682 0.999385 0.015746
v -0.062682 0.999385 0.015746
v -0.062683 0.917583 0.026271
v 0.062682 0.917583 0.026271
v 0.052169 1.547387 -0.589173
v -0.052169 1.547387 -0.589173
v -0.052169 1.657964 -0.603398
v 0.052169 1.657964 -0.603398
v 0.037324 1.554309 -0.659682
v -0.037324 1.554309 -0.659681
v -0.037324 1.633421 -0.669859
v 0.037324 1.633421 -0.669860
v 0.433438 1.029356 0.221130
v 0.433439 1.029356 -0.157597
v 0.499973 1.029356 0.221130
v 0.499974 1.029356 -0.157597
v 0.499973 1.421642 0.316347
v 0.499974 1.421642 -0.252815
v 0.433438 1.421642 0.316347
v 0.433439 1.421642 -0.252815
v 0.499973 1.103731 0.165863
v 0.499973 1.103731 -0.102331
v 0.499973 1.347266 -0.169759
v 0.499973 1.347266 0.233291
v 0.433438 1.347266 0.233291
v 0.433438 1.347266 -0.169759
v 0.433438 1.103731 -0.102331
v 0.433438 1.103731 0.165863
v -0.433438 1.029356 -0.157598
v -0.433438 1.029356 0.221129
v -0.499974 1.029356 -0.157598
v -0.499973 1.029356 0.221128
v -0.499973 1.421642 -0.252816
v -0.499973 1.421642 0.316346
v -0.433438 1.421642 -0.252816
v -0.433438 1.421642 0.316346
v -0.499973 1.103731 -0.102332
v -0.499973 1.103731 0.165862
v -0.499974 1.347266 0.233291
v -0.499974 1.347266 -0.169759
v -0.433438 1.347266 -0.169759
v -0.433438 1.347266 0.233290
v -0.433437 1.103731 0.165862
v -0.433438 1.103731 -0.102331
vt 0.202245 0.062038
vt 0.177709 0.062038
vt 0.235982 0.062038
vt 0.202245 0.062038
vt 0.177709 0.062038
vt 0.235982 0.062038
vt 0.139883 0.062038
vt 0.177709 0.062038
vt 0.139883 0.062038
vt 0.139883 0.062038
vt 0.202245 0.062038
vt 0.202245 0.062038
vt 0.202245 0.062038
vt 0.202245 0.062038
vt 0.235982 0.062038
vt 0.177709 0.062038
vt 0.177709 0.062038
vt 0.235982 0.062038
vt 0.139883 0.062038
vt 0.177709 0.062038
vt 0.202245 0.062038
vt 0.177709 0.062038
vt 0.177709 0.062038
vt 0.202245 0.062038
vt 0.202245 0.062038
vt 0.177709 0.062038
vt 0.177709 0.062038
vt 0.202245 0.062038
vt 0.177709 0.062038
vt 0.202245 0.062038
vt 0.202245 0.062038
vt 0.177709 0.062038
vt 0.177709 0.062038
vt 0.177709 0.062038
vt 0.177709 0.062038
vt 0.177709 0.062038
vt 0.202245 0.062038
vt 0.202245 0.062038
vt 0.202245 0.062038
vt 0.202245 0.062038
vt 0.177709 0.062038
vt 0.202245 0.062038
vt 0.177709 0.062038
vt 0.202245 0.062038
vt 0.177709 0.062038
vt 0.202245 0.062038
vt 0.177709 0.062038
vt 0.202245 0.062038
vt 0.202245 0.062038
vt 0.177709 0.062038
vt 0.177709 0.062038
vt 0.202245 0.062038
vt 0.202245 0.062038
vt 0.177709 0.062038
vt 0.177709 0.062038
vt 0.202245 0.062038
vt 0.203814 0.182780
vt 0.203814 0.182780
vt 0.203814 0.182780
vt 0.203814 0.182780
vt 0.262087 0.182780
vt 0.262087 0.182780
vt 0.262087 0.182780
vt 0.262087 0.182780
vt 0.203814 0.182780
vt 0.203814 0.182780
vt 0.203814 0.182780
vt 0.203814 0.182780
vt 0.165988 0.182780
vt 0.165988 0.182780
vt 0.165988 0.182780
vt 0.165988 0.182780
vt 0.228350 0.182780
vt 0.228350 0.182780
vt 0.228350 0.182780
vt 0.228350 0.182780
vt 0.228350 0.182780
vt 0.228350 0.182780
vt 0.228350 0.182780
vt 0.228350 0.182780
vt 0.203814 0.182780
vt 0.203814 0.182780
vt 0.203814 0.182780
vt 0.203814 0.182780
vt 0.262087 0.182780
vt 0.262087 0.182780
vt 0.262087 0.182780
vt 0.262087 0.182780
vt 0.203814 0.182780
vt 0.203814 0.182780
vt 0.203814 0.182780
vt 0.203814 0.182780
vt 0.165988 0.182780
vt 0.165988 0.182780
vt 0.165988 0.182780
vt 0.165988 0.182780
vt 0.228350 0.182780
vt 0.228350 0.182780
vt 0.228350 0.182780
vt 0.228350 0.182780
vt 0.228350 0.182780
vt 0.228350 0.182780
vt 0.228350 0.182780
vt 0.228350 0.182780
vt 0.262087 0.182780
vt 0.262087 0.182780
vt 0.262087 0.182780
vt 0.262087 0.182780
vt 0.203814 0.182780
vt 0.203814 0.182780
vt 0.203814 0.182780
vt 0.203814 0.182780
vt 0.165988 0.182780
vt 0.165988 0.182780
vt 0.165988 0.182780
vt 0.165988 0.182780
vt 0.203814 0.182780
vt 0.203814 0.182780
vt 0.203814 0.182780
vt 0.203814 0.182780
vt 0.174817 0.060592
vt 0.174817 0.060592
vt 0.174817 0.060592
vt 0.174817 0.060592
vt 0.233090 0.060592
vt 0.233090 0.060592
vt 0.233090 0.060592
vt 0.233090 0.060592
vt 0.174817 0.060592
vt 0.174817 0.060592
vt 0.174817 0.060592
vt 0.174817 0.060592
vt 0.136991 0.060592
vt 0.136991 0.060592
vt 0.136991 0.060592
vt 0.136991 0.060592
vt 0.199353 0.060592
vt 0.199353 0.060592
vt 0.199353 0.060592
vt 0.199353 0.060592
vt 0.199353 0.060592
vt 0.199353 0.060592
vt 0.199353 0.060592
vt 0.199353 0.060592
vt 0.170696 0.062799
vt 0.170696 0.062799
vt 0.170696 0.062799
vt 0.170696 0.062799
vt 0.228969 0.062799
vt 0.228969 0.062799
vt 0.228969 0.062799
vt 0.228969 0.062799
vt 0.170696 0.062799
vt 0.170696 0.062799
vt 0.170696 0.062799
vt 0.170696 0.062799
vt 0.132870 0.062799
vt 0.132870 0.062799
vt 0.132870 0.062799
vt 0.132870 0.062799
vt 0.195232 0.062799
vt 0.195232 0.062799
vt 0.195232 0.062799
vt 0.195232 0.062799
vt 0.195232 0.062799
vt 0.195232 0.062799
vt 0.195232 0.062799
vt 0.195232 0.062799
vt 0.174817 0.060592
vt 0.174817 0.060592
vt 0.174817 0.060592
vt 0.174817 0.060592
vt 0.233090 0.060592
vt 0.233090 0.060592
vt 0.233090 0.060592
vt 0.233090 0.060592
vt 0.174817 0.060592
vt 0.174817 0.060592
vt 0.174817 0.060592
vt 0.174817 0.060592
vt 0.136991 0.060592
vt 0.136991 0.060592
vt 0.136991 0.060592
vt 0.136991 0.060592
vt 0.199353 0.060592
vt 0.199353 0.060592
vt 0.199353 0.060592
vt 0.199353 0.060592
vt 0.199353 0.060592
vt 0.199353 0.060592
vt 0.199353 0.060592
vt 0.199353 0.060592
vt 0.170696 0.062799
vt 0.170696 0.062799
vt 0.170696 0.062799
vt 0.170696 0.062799
vt 0.228969 0.062799
vt 0.228969 0.062799
vt 0.228969 0.062799
vt 0.228969 0.062799
vt 0.170696 0.062799
vt 0.170696 0.062799
vt 0.170696 0.062799
vt 0.170696 0.062799
vt 0.132870 0.062799
vt 0.132870 0.062799
vt 0.132870 0.062799
vt 0.132870 0.062799
vt 0.195232 0.062799
vt 0.195232 0.062799
vt 0.195232 0.062799
vt 0.195232 0.062799
vt 0.195232 0.062799
vt 0.195232 0.062799
vt 0.195232 0.062799
vt 0.195232 0.062799
vt 0.174817 0.060592
vt 0.174817 0.060592
vt 0.174817 0.060592
vt 0.174817 0.060592
vt 0.233090 0.060592
vt 0.233090 0.060592
vt 0.233090 0.060592
vt 0.233090 0.060592
vt 0.174817 0.060592
vt 0.174817 0.060592
vt 0.174817 0.060592
vt 0.174817 0.060592
vt 0.136991 0.060592
vt 0.136991 0.060592
vt 0.136991 0.060592
vt 0.136991 0.060592
vt 0.199353 0.060592
vt 0.199353 0.060592
vt 0.199353 0.060592
vt 0.199353 0.060592
vt 0.199353 0.060592
vt 0.199353 0.060592
vt 0.199353 0.060592
vt 0.199353 0.060592
vt 0.170696 0.062799
vt 0.170696 0.062799
vt 0.170696 0.062799
vt 0.170696 0.062799
vt 0.228969 0.062799
vt 0.228969 0.062799
vt 0.228969 0.062799
vt 0.228969 0.062799
vt 0.170696 0.062799
vt 0.170696 0.062799
vt 0.170696 0.062799
vt 0.170696 0.062799
vt 0.132870 0.062799
vt 0.132870 0.062799
vt 0.132870 0.062799
vt 0.132870 0.062799
vt 0.195232 0.062799
vt 0.195232 0.062799
vt 0.195232 0.062799
vt 0.195232 0.062799
vt 0.195232 0.062799
vt 0.195232 0.062799
vt 0.195232 0.062799
vt 0.195232 0.062799
vt 0.174817 0.060592
vt 0.174817 0.060592
vt 0.174817 0.060592
vt 0.174817 0.060592
vt 0.233090 0.060592
vt 0.233090 0.060592
vt 0.233090 0.060592
vt 0.233090 0.060592
vt 0.174817 0.060592
vt 0.174817 0.060592
vt 0.174817 0.060592
vt 0.174817 0.060592
vt 0.136991 0.060592
vt 0.136991 0.060592
vt 0.136991 0.060592
vt 0.136991 0.060592
vt 0.199353 0.060592
vt 0.199353 0.060592
vt 0.199353 0.060592
vt 0.199353 0.060592
vt 0.199353 0.060592
vt 0.199353 0.060592
vt 0.199353 0.060592
vt 0.199353 0.060592
vt 0.170696 0.062799
vt 0.170696 0.062799
vt 0.170696 0.062799
vt 0.170696 0.062799
vt 0.228969 0.062799
vt 0.228969 0.062799
vt 0.228969 0.062799
vt 0.228969 0.062799
vt 0.170696 0.062799
vt 0.170696 0.062799
vt 0.170696 0.062799
vt 0.170696 0.062799
vt 0.132870 0.062799
vt 0.132870 0.062799
vt 0.132870 0.062799
vt 0.132870 0.062799
vt 0.195232 0.062799
vt 0.195232 0.062799
vt 0.195232 0.062799
vt 0.195232 0.062799
vt 0.195232 0.062799
vt 0.195232 0.062799
vt 0.195232 0.062799
vt 0.195232 0.062799
vt 0.175329 0.058706
vt 0.175329 0.058706
vt 0.175329 0.058706
vt 0.175329 0.058706
vt 0.233602 0.058706
vt 0.233602 0.058706
vt 0.233602 0.058706
vt 0.233602 0.058706
vt 0.175329 0.058706
vt 0.175329 0.058706
vt 0.175329 0.058706
vt 0.175329 0.058706
vt 0.199865 0.058706
vt 0.199865 0.058706
vt 0.199865 0.058706
vt 0.199865 0.058706
vt 0.199865 0.058706
vt 0.199865 0.058706
vt 0.199865 0.058706
vt 0.199865 0.058706
vt 0.137503 0.058706
vt 0.137503 0.058706
vt 0.137503 0.058706
vt 0.137503 0.058706
vt 0.137503 0.058706
vt 0.137503 0.058706
vt 0.137503 0.058706
vt 0.137503 0.058706
vt 0.171727 0.058706
vt 0.171727 0.058706
vt 0.171727 0.058706
vt 0.171727 0.058706
vt 0.137503 0.058706
vt 0.137503 0.058706
vt 0.137503 0.058706
vt 0.137503 0.058706
vt 0.171727 0.058706
vt 0.171727 0.058706
vt 0.171727 0.058706
vt 0.171727 0.058706
vt 0.199865 0.058706
vt 0.199865 0.058706
vt 0.199865 0.058706
vt 0.199865 0.058706
vt 0.199865 0.058706
vt 0.199865 0.058706
vt 0.199865 0.058706
vt 0.199865 0.058706
vt 0.173763 0.061079
vt 0.173763 0.061079
vt 0.173763 0.061079
vt 0.173763 0.061079
vt 0.173763 0.061079
vt 0.173763 0.061079
vt 0.173763 0.061079
vt 0.173763 0.061079
vt 0.228340 0.061079
vt 0.228340 0.061079
vt 0.228340 0.061079
vt 0.228340 0.061079
vt 0.173763 0.061079
vt 0.173763 0.061079
vt 0.173763 0.061079
vt 0.173763 0.061079
vt 0.174143 0.062606
vt 0.174143 0.062606
vt 0.174143 0.062606
vt 0.174143 0.062606
vt 0.291601 0.062606
vt 0.291601 0.062606
vt 0.291601 0.062606
vt 0.291601 0.062606
vt 0.198679 0.062606
vt 0.198679 0.062606
vt 0.198679 0.062606
vt 0.198679 0.062606
vt 0.198679 0.062606
vt 0.198679 0.062606
vt 0.198679 0.062606
vt 0.198679 0.062606
vt 0.232415 0.062606
vt 0.232415 0.062606
vt 0.232415 0.062606
vt 0.232415 0.062606
vt 0.232415 0.062606
vt 0.232415 0.062606
vt 0.232415 0.062606
vt 0.232415 0.062606
vt 0.232415 0.062606
vt 0.232415 0.062606
vt 0.232415 0.062606
vt 0.232415 0.062606
vt 0.232415 0.062606
vt 0.232415 0.062606
vt 0.232415 0.062606
vt 0.232415 0.062606
vt 0.136317 0.062606
vt 0.136317 0.062606
vt 0.136317 0.062606
vt 0.136317 0.062606
vt 0.136317 0.062606
vt 0.136317 0.062606
vt 0.136317 0.062606
vt 0.136317 0.062606
vt 0.136317 0.062606
vt 0.136317 0.062606
vt 0.136317 0.062606
vt 0.136317 0.062606
vt 0.136317 0.062606
vt 0.136317 0.062606
vt 0.136317 0.062606
vt 0.136317 0.062606
vt 0.172615 0.060617
vt 0.172614 0.060617
vt 0.172614 0.060617
vt 0.172615 0.060617
vt 0.171428 0.059610
vt 0.171428 0.059610
vt 0.171428 0.059610
vt 0.171428 0.059610
vt 0.172615 0.060617
vt 0.172615 0.060617
vt 0.172615 0.060617
vt 0.172615 0.060617
vt 0.171428 0.059610
vt 0.171428 0.059610
vt 0.171428 0.059610
vt 0.171428 0.059610
vt 0.174143 0.062606
vt 0.174143 0.062606
vt 0.174143 0.062606
vt 0.174143 0.062606
vt 0.291601 0.062606
vt 0.291601 0.062606
vt 0.291601 0.062606
vt 0.291601 0.062606
vt 0.198679 0.062606
vt 0.198679 0.062606
vt 0.198679 0.062606
vt 0.198679 0.062606
vt 0.198679 0.062606
vt 0.198679 0.062606
vt 0.198679 0.062606
vt 0.198679 0.062606
vt 0.232415 0.062606
vt 0.232415 0.062606
vt 0.232415 0.062606
vt 0.232415 0.062606
vt 0.232415 0.062606
vt 0.232415 0.062606
vt 0.232415 0.062606
vt 0.232415 0.062606
vt 0.232415 0.062606
vt 0.232415 0.062606
vt 0.232415 0.062606
vt 0.232415 0.062606
vt 0.232415 0.062606
vt 0.232415 0.062606
vt 0.232415 0.062606
vt 0.232415 0.062606
vt 0.136317 0.062606
vt 0.136317 0.062606
vt 0.136317 0.062606
vt 0.136317 0.062606
vt 0.136317 0.062606
vt 0.136317 0.062606
vt 0.136317 0.062606
vt 0.136317 0.062606
vt 0.136317 0.062606
vt 0.136317 0.062606
vt 0.136317 0.062606
vt 0.136317 0.062606
vt 0.136317 0.062606
vt 0.136317 0.062606
vt 0.136317 0.062606
vt 0.136317 0.062606
vt 0.172615 0.060617
vt 0.172614 0.060617
vt 0.172614 0.060617
vt 0.172615 0.060617
vt 0.171428 0.059610
vt 0.171428 0.059610
vt 0.171428 0.059610
vt 0.171428 0.059610
vt 0.172615 0.060617
vt 0.172615 0.060617
vt 0.172615 0.060617
vt 0.172615 0.060617
vt 0.171428 0.059610
vt 0.171428 0.059610
vt 0.171428 0.059610
vt 0.171428 0.059610
vn -1.000000 0.000000 0.000000
vn -1.000000 0.000000 0.000000
vn -1.000000 0.000000 0.000000
vn -1.000000 0.000000 0.000000
vn 0.000000 1.000000 0.000000
vn 0.000000 1.000000 0.000000
vn 0.000000 1.000000 0.000000
vn 0.000000 1.000000 0.000000
vn 1.000000 0.000000 0.000000
vn 1.000000 0.000000 0.000000
vn 1.000000 0.000000 0.000000
vn 1.000000 0.000000 0.000000
vn 0.000000 -1.000000 0.000000
vn 0.000000 -1.000000 0.000000
vn 0.000000 -1.000000 0.000000
vn 0.000000 -1.000000 0.000000
vn -0.000009 0.000000 1.000000
vn -0.000009 0.000000 1.000000
vn -0.000009 0.000000 1.000000
vn -0.000009 0.000000 1.000000
vn 0.000009 0.000000 -1.000000
vn 0.000009 0.000000 -1.000000
vn 0.000009 0.000000 -1.000000
vn 0.000009 0.000000 -1.000000
vn -1.000000 0.000000 0.000000
vn -1.000000 0.000000 0.000000
vn -1.000000 0.000000 0.000000
vn -1.000000 0.000000 0.000000
vn -0.000004 0.000000 1.000000
vn -0.000004 0.000000 1.000000
vn -0.000004 0.000000 1.000000
vn -0.000004 0.000000 1.000000
vn 1.000000 0.000000 0.000000
vn 1.000000 0.000000 0.000000
vn 1.000000 0.000000 0.000000
vn 1.000000 0.000000 0.000000
vn 0.000004 0.000000 -1.000000
vn 0.000004 0.000000 -1.000000
vn 0.000004 0.000000 -1.000000
vn 0.000004 0.000000 -1.000000
vn 0.000000 1.000000 0.000000
vn 0.000000 1.000000 0.000000
vn 0.000000 1.000000 0.000000
vn 0.000000 1.000000 0.000000
vn 0.000000 1.000000 0.000000
vn 0.000000 1.000000 0.000000
vn 0.000000 1.000000 0.000000
vn 0.000000 1.000000 0.000000
vn 0.000000 1.000000 0.000000
vn 0.000000 1.000000 0.000000
vn 0.000000 1.000000 0.000000
vn 0.000000 1.000000 0.000000
vn 0.000000 1.000000 0.000000
vn 0.000000 1.000000 0.000000
vn 0.000000 1.000000 0.000000
vn 0.000000 1.000000 0.000000
vn -1.000000 0.000000 0.000000
vn -1.000000 0.000000 0.000000
vn -1.000000 0.000000 0.000000
vn -1.000000 0.000000 0.000000
vn 0.000000 1.000000 -0.000000
vn 0.000000 1.000000 -0.000000
vn 0.000000 1.000000 -0.000000
vn 0.000000 1.000000 -0.000000
vn 1.000000 0.000000 0.000000
vn 1.000000 0.000000 0.000000
vn 1.000000 0.000000 0.000000
vn 1.000000 0.000000 0.000000
vn 0.000000 -1.000000 0.000000
vn 0.000000 -1.000000 0.000000
vn 0.000000 -1.000000 0.000000
vn 0.000000 -1.000000 0.000000
vn -0.000000 0.000000 1.000000
vn -0.000000 0.000000 1.000000
vn -0.000000 0.000000 1.000000
vn -0.000000 0.000000 1.000000
vn 0.000000 0.000000 -1.000000
vn 0.000000 0.000000 -1.000000
vn 0.000000 0.000000 -1.000000
vn 0.000000 0.000000 -1.000000
vn -0.980431 0.196282 -0.015130
vn -0.978593 0.205195 -0.015817
vn -1.000000 -0.000000 -0.000002
vn -1.000000 -0.000000 -0.000002
vn -0.000001 0.119375 0.992849
vn -0.000001 0.119375 0.992849
vn -0.000001 0.127555 0.991831
vn -0.000001 0.127555 0.991831
vn 0.978593 0.205196 -0.015815
vn 0.980431 0.196283 -0.015128
vn 1.000000 0.000000 0.000001
vn 1.000000 0.000000 0.000001
vn 0.000000 -0.119375 -0.992849
vn 0.000000 -0.119375 -0.992849
vn 0.000000 -0.127556 -0.991831
vn 0.000000 -0.127556 -0.991831
vn -0.000000 -0.997043 0.076849
vn -0.000000 -0.997043 0.076849
vn -0.000000 -0.997043 0.076849
vn -0.000000 -0.997043 0.076849
vn 0.000000 0.997043 -0.076849
vn 0.000000 0.997043 -0.076849
vn 0.000000 0.997043 -0.076849
vn 0.000000 0.997043 -0.076849
vn -0.000001 0.076851 0.997043
vn -0.000001 0.119375 0.992849
vn -0.000001 0.119375 0.992849
vn -0.000001 0.076851 0.997043
vn -0.813152 0.580329 -0.044731
vn -0.978593 0.205195 -0.015817
vn -0.980431 0.196282 -0.015130
vn -0.813153 0.580329 -0.044731
vn 0.000001 -0.076848 -0.997043
vn 0.000000 -0.119375 -0.992849
vn 0.000000 -0.119375 -0.992849
vn 0.000001 -0.076848 -0.997043
vn 0.813151 0.580332 -0.044730
vn 0.980431 0.196283 -0.015128
vn 0.978593 0.205196 -0.015815
vn 0.813151 0.580332 -0.044730
vn 0.965926 -0.258817 0.000002
vn 0.965926 -0.258817 0.000002
vn 0.965926 -0.258817 0.000002
vn 0.965926 -0.258817 0.000002
vn 0.258819 0.965926 0.000001
vn 0.258819 0.965926 0.000001
vn 0.258819 0.965926 0.000001
vn 0.258819 0.965926 0.000001
vn -0.965926 0.258817 -0.000005
vn -0.965926 0.258817 -0.000005
vn -0.965926 0.258817 -0.000005
vn -0.965926 0.258817 -0.000005
vn -0.258819 -0.965926 -0.000001
vn -0.258819 -0.965926 -0.000001
vn -0.258819 -0.965926 -0.000001
vn -0.258819 -0.965926 -0.000001
vn 0.000001 -0.000000 -1.000000
vn 0.000001 -0.000000 -1.000000
vn 0.000001 -0.000000 -1.000000
vn 0.000001 -0.000000 -1.000000
vn -0.000001 0.000000 1.000000
vn -0.000001 0.000000 1.000000
vn -0.000001 0.000000 1.000000
vn -0.000001 0.000000 1.000000
vn 1.000000 0.000000 0.000004
vn 1.000000 0.000000 0.000004
vn 1.000000 0.000000 0.000004
vn 1.000000 0.000000 0.000004
vn 0.000000 1.000000 0.000000
vn 0.000000 1.000000 0.000000
vn 0.000000 1.000000 0.000000
vn 0.000000 1.000000 0.000000
vn -1.000000 0.000000 -0.000004
vn -1.000000 0.000000 -0.000004
vn -1.000000 0.000000 -0.000004
vn -1.000000 0.000000 -0.000004
vn 0.000000 -1.000000 0.000000
vn 0.000000 -1.000000 0.000000
vn 0.000000 -1.000000 0.000000
vn 0.000000 -1.000000 0.000000
vn -0.000003 0.000000 -1.000000
vn -0.000003 0.000000 -1.000000
vn -0.000003 0.000000 -1.000000
vn -0.000003 0.000000 -1.000000
vn 0.000002 0.000000 1.000000
vn 0.000002 0.000000 1.000000
vn 0.000002 0.000000 1.000000
vn 0.000002 0.000000 1.000000
vn -0.965924 -0.258827 0.000000
vn -0.965924 -0.258827 0.000000
vn -0.965924 -0.258827 0.000000
vn -0.965924 -0.258827 0.000000
vn -0.258819 0.965926 0.000000
vn -0.258819 0.965926 0.000000
vn -0.258819 0.965926 0.000000
vn -0.258819 0.965926 0.000000
vn 0.965926 0.258817 0.000000
vn 0.965926 0.258817 0.000000
vn 0.965926 0.258817 0.000000
vn 0.965926 0.258817 0.000000
vn 0.258819 -0.965926 0.000000
vn 0.258819 -0.965926 0.000000
vn 0.258819 -0.965926 0.000000
vn 0.258819 -0.965926 0.000000
vn -0.000001 -0.000000 1.000000
vn -0.000001 -0.000000 1.000000
vn -0.000001 -0.000000 1.000000
vn -0.000001 -0.000000 1.000000
vn 0.000001 0.000000 -1.000000
vn 0.000001 0.000000 -1.000000
vn 0.000001 0.000000 -1.000000
vn 0.000001 0.000000 -1.000000
vn -1.000000 0.000000 0.000004
vn -1.000000 0.000000 0.000004
vn -1.000000 0.000000 0.000004
vn -1.000000 0.000000 0.000004
vn 0.000000 1.000000 0.000000
vn 0.000000 1.000000 0.000000
vn 0.000000 1.000000 0.000000
vn 0.000000 1.000000 0.000000
vn 1.000000 0.000000 0.000000
vn 1.000000 0.000000 0.000000
vn 1.000000 0.000000 0.000000
vn 1.000000 0.000000 0.000000
vn 0.000000 -1.000000 0.000000
vn 0.000000 -1.000000 0.000000
vn 0.000000 -1.000000 0.000000
vn 0.000000 -1.000000 0.000000
vn -0.000001 0.000000 1.000000
vn -0.000001 0.000000 1.000000
vn -0.000001 0.000000 1.000000
vn -0.000001 0.000000 1.000000
vn 0.000001 0.000000 -1.000000
vn 0.000001 0.000000 -1.000000
vn 0.000001 0.000000 -1.000000
vn 0.000001 0.000000 -1.000000
vn 0.000000 -0.258817 -0.965926
vn 0.000000 -0.258817 -0.965926
vn 0.000000 -0.258817 -0.965926
vn 0.000000 -0.258817 -0.965926
vn 0.000000 0.965926 -0.258819
vn 0.000000 0.965926 -0.258819
vn 0.000000 0.965926 -0.258819
vn 0.000000 0.965926 -0.258819
vn 0.000000 0.258817 0.965926
vn 0.000000 0.258817 0.965926
vn 0.000000 0.258817 0.965926
vn 0.000000 0.258817 0.965926
vn 0.000000 -0.965926 0.258819
vn 0.000000 -0.965926 0.258819
vn 0.000000 -0.965926 0.258819
vn 0.000000 -0.965926 0.258819
vn -1.000000 -0.000002 0.000001
vn -1.000000 -0.000002 0.000001
vn -1.000000 -0.000002 0.000001
vn -1.000000 -0.000002 0.000001
vn 1.000000 0.000002 -0.000001
vn 1.000000 0.000002 -0.000001
vn 1.000000 0.000002 -0.000001
vn 1.000000 0.000002 -0.000001
vn 0.000000 0.000000 -1.000000
vn 0.000000 0.000000 -1.000000
vn 0.000000 0.000000 -1.000000
vn 0.000000 0.000000 -1.000000
vn 0.000000 1.000000 0.000000
vn 0.000000 1.000000 0.000000
vn 0.000000 1.000000 0.000000
vn 0.000000 1.000000 0.000000
vn 0.000000 0.000000 1.000000
vn 0.000000 0.000000 1.000000
vn 0.000000 0.000000 1.000000
vn 0.000000 0.000000 1.000000
vn 0.000000 -1.000000 0.000000
vn 0.000000 -1.000000 0.000000
vn 0.000000 -1.000000 0.000000
vn 0.000000 -1.000000 0.000000
vn -1.000000 0.000000 0.000000
vn -1.000000 0.000000 0.000000
vn -1.000000 0.000000 0.000000
vn -1.000000 0.000000 0.000000
vn 1.000000 0.000000 0.000000
vn 1.000000 0.000000 0.000000
vn 1.000000 0.000000 0.000000
vn 1.000000 0.000000 0.000000
vn 0.000000 -0.258817 0.965926
vn 0.000000 -0.258817 0.965926
vn 0.000000 -0.258817 0.965926
vn 0.000000 -0.258817 0.965926
vn 0.000000 0.965926 0.258819
vn 0.000000 0.965926 0.258819
vn 0.000000 0.965926 0.258819
vn 0.000000 0.965926 0.258819
vn 0.000000 0.258817 -0.965926
vn 0.000000 0.258817 -0.965926
vn 0.000000 0.258817 -0.965926
vn 0.000000 0.258817 -0.965926
vn 0.000000 -0.965926 -0.258819
vn 0.000000 -0.965926 -0.258819
vn 0.000000 -0.965926 -0.258819
vn 0.000000 -0.965926 -0.258819
vn 1.000000 -0.000002 -0.000001
vn 1.000000 -0.000002 -0.000001
vn 1.000000 -0.000002 -0.000001
vn 1.000000 -0.000002 -0.000001
vn -1.000000 0.000002 0.000001
vn -1.000000 0.000002 0.000001
vn -1.000000 0.000002 0.000001
vn -1.000000 0.000002 0.000001
vn 0.000000 0.000000 1.000000
vn 0.000000 0.000000 1.000000
vn 0.000000 0.000000 1.000000
vn 0.000000 0.000000 1.000000
vn 0.000000 1.000000 0.000000
vn 0.000000 1.000000 0.000000
vn 0.000000 1.000000 0.000000
vn 0.000000 1.000000 0.000000
vn 0.000000 0.000000 -1.000000
vn 0.000000 0.000000 -1.000000
vn 0.000000 0.000000 -1.000000
vn 0.000000 0.000000 -1.000000
vn 0.000000 -1.000000 0.000000
vn 0.000000 -1.000000 0.000000
vn 0.000000 -1.000000 0.000000
vn 0.000000 -1.000000 0.000000
vn 1.000000 0.000000 0.000000
vn 1.000000 0.000000 0.000000
vn 1.000000 0.000000 0.000000
vn 1.000000 0.000000 0.000000
vn -1.000000 0.000000 0.000000
vn -1.000000 0.000000 0.000000
vn -1.000000 0.000000 0.000000
vn -1.000000 0.000000 0.000000
vn -1.000000 -0.000000 -0.000002
vn -1.000000 -0.000000 -0.000002
vn -1.000000 -0.000000 -0.000002
vn -1.000000 -0.000000 -0.000002
vn 0.000001 0.991826 -0.127594
vn 0.000001 0.991826 -0.127594
vn 0.000001 0.991826 -0.127594
vn 0.000001 0.991826 -0.127594
vn 1.000000 0.000000 0.000002
vn 1.000000 0.000000 0.000002
vn 1.000000 0.000000 0.000002
vn 1.000000 0.000000 0.000002
vn -0.000007 0.127594 0.991827
vn -0.000007 0.127594 0.991826
vn -0.000007 0.127594 0.991827
vn -0.000007 0.127594 0.991826
vn -0.000009 -0.127596 -0.991826
vn -0.000009 -0.127596 -0.991826
vn -0.000009 -0.127596 -0.991826
vn -0.000009 -0.127596 -0.991826
vn -0.000004 0.127610 0.991824
vn -0.000004 0.127610 0.991824
vn -0.000004 0.127610 0.991824
vn -0.000004 0.127610 0.991824
vn 0.000001 0.991827 -0.127593
vn 0.000001 0.991827 -0.127593
vn 0.000001 0.991827 -0.127593
vn 0.000001 0.991827 -0.127593
vn -1.000000 0.000003 -0.000000
vn -1.000000 0.000003 -0.000000
vn -1.000000 0.000003 -0.000000
vn -1.000000 0.000003 -0.000000
vn -0.000001 -0.991827 0.127593
vn -0.000001 -0.991827 0.127593
vn -0.000001 -0.991827 0.127593
vn -0.000001 -0.991827 0.127593
vn 1.000000 -0.000003 0.000000
vn 1.000000 -0.000003 0.000000
vn 1.000000 -0.000003 0.000000
vn 1.000000 -0.000003 0.000000
vn 0.000004 -0.127594 -0.991827
vn 0.000004 -0.127594 -0.991827
vn 0.000004 -0.127594 -0.991827
vn 0.000004 -0.127594 -0.991827
vn 0.000041 -0.127594 -0.991826
vn 0.000041 -0.127594 -0.991826
vn 0.000041 -0.127594 -0.991826
vn 0.000041 -0.127594 -0.991827
vn 0.000004 -0.127606 -0.991825
vn 0.000004 -0.127606 -0.991825
vn 0.000004 -0.127606 -0.991825
vn 0.000004 -0.127606 -0.991825
vn -0.000022 -0.127594 -0.991827
vn -0.000022 -0.127594 -0.991826
vn -0.000022 -0.127594 -0.991826
vn -0.000022 -0.127594 -0.991827
vn -0.000000 -0.995215 -0.097708
vn -0.000000 -0.995215 -0.097708
vn -0.000000 -0.995215 -0.097708
vn -0.000000 -0.995215 -0.097708
vn -0.977660 -0.026819 -0.208473
vn -0.977660 -0.026819 -0.208473
vn -0.977660 -0.026819 -0.208473
vn -0.977660 -0.026819 -0.208473
vn -0.000001 0.938081 -0.346417
vn -0.000001 0.938081 -0.346417
vn -0.000001 0.938081 -0.346417
vn -0.000001 0.938081 -0.346417
vn 0.977662 -0.026818 -0.208463
vn 0.977662 -0.026818 -0.208463
vn 0.977663 -0.026818 -0.208463
vn 0.977662 -0.026818 -0.208463
vn 0.000000 -1.000000 0.000000
vn 0.000000 -1.000000 0.000000
vn 0.000000 -1.000000 0.000000
vn 0.000000 -1.000000 0.000000
vn 0.000000 1.000000 0.000000
vn 0.000000 1.000000 0.000000
vn 0.000000 1.000000 0.000000
vn 0.000000 1.000000 0.000000
vn -0.000002 -0.235876 -0.971783
vn -0.000002 -0.235876 -0.971783
vn -0.000002 -0.235876 -0.971783
vn -0.000002 -0.235876 -0.971783
vn 0.000002 -0.235876 0.971783
vn 0.000002 -0.235876 0.971783
vn 0.000002 -0.235876 0.971783
vn 0.000002 -0.235876 0.971783
vn 1.000000 0.000002 0.000001
vn 1.000000 0.000002 0.000001
vn 1.000000 0.000002 0.000001
vn 1.000000 0.000002 0.000001
vn 1.000000 0.000001 0.000003
vn 1.000000 0.000001 0.000003
vn 1.000000 0.000001 0.000003
vn 1.000000 0.000001 0.000003
vn 1.000000 -0.000001 0.000001
vn 1.000000 -0.000001 0.000001
vn 1.000000 -0.000001 0.000001
vn 1.000000 -0.000001 0.000001
vn 1.000000 0.000000 0.000000
vn 1.000000 0.000000 0.000000
vn 1.000000 0.000000 0.000000
vn 1.000000 0.000000 0.000000
vn -1.000000 0.000004 -0.000000
vn -1.000000 0.000004 -0.000000
vn -1.000000 0.000004 -0.000000
vn -1.000000 0.000004 -0.000000
vn -1.000000 -0.000001 -0.000003
vn -1.000000 -0.000001 -0.000003
vn -1.000000 -0.000001 -0.000003
vn -1.000000 -0.000001 -0.000003
vn -1.000000 -0.000001 -0.000001
vn -1.000000 -0.000001 -0.000001
vn -1.000000 -0.000001 -0.000001
vn -1.000000 -0.000001 -0.000001
vn -1.000000 -0.000000 0.000002
vn -1.000000 -0.000000 0.000002
vn -1.000000 -0.000000 0.000002
vn -1.000000 -0.000000 0.000002
vn 0.000000 -1.000000 0.000000
vn 0.000000 -1.000000 0.000000
vn 0.000000 -1.000000 0.000000
vn 0.000000 -1.000000 0.000000
vn -0.000002 0.266832 -0.963743
vn -0.000002 0.266832 -0.963743
vn -0.000002 0.266832 -0.963743
vn -0.000002 0.266832 -0.963743
vn 0.000002 0.266832 0.963743
vn 0.000002 0.266832 0.963743
vn 0.000002 0.266832 0.963743
vn 0.000002 0.266832 0.963743
vn 0.000000 1.000000 -0.000000
vn 0.000000 1.000000 -0.000000
vn 0.000000 1.000000 -0.000000
vn 0.000000 1.000000 -0.000000
vn 0.000000 -1.000000 0.000000
vn 0.000000 -1.000000 0.000000
vn 0.000000 -1.000000 0.000000
vn 0.000000 -1.000000 0.000000
vn 0.000000 1.000000 0.000000
vn 0.000000 1.000000 0.000000
vn 0.000000 1.000000 0.000000
vn 0.000000 1.000000 0.000000
vn -0.000004 -0.235875 0.971783
vn -0.000004 -0.235875 0.971783
vn -0.000004 -0.235875 0.971783
vn -0.000004 -0.235875 0.971783
vn 0.000004 -0.235876 -0.971783
vn 0.000004 -0.235876 -0.971783
vn 0.000004 -0.235876 -0.971783
vn 0.000004 -0.235876 -0.971783
vn -1.000000 0.000002 0.000000
vn -1.000000 0.000002 0.000000
vn -1.000000 0.000002 0.000000
vn -1.000000 0.000002 0.000000
vn -1.000000 -0.000002 0.000007
vn -1.000000 -0.000002 0.000007
vn -1.000000 -0.000002 0.000007
vn -1.000000 -0.000002 0.000007
vn -1.000000 0.000008 0.000000
vn -1.000000 0.000008 0.000000
vn -1.000000 0.000008 0.000000
vn -1.000000 0.000008 0.000000
vn -1.000000 0.000000 0.000000
vn -1.000000 0.000000 0.000000
vn -1.000000 0.000000 0.000000
vn -1.000000 0.000000 0.000000
vn 1.000000 -0.000002 -0.000000
vn 1.000000 -0.000002 -0.000000
vn 1.000000 -0.000002 -0.000000
vn 1.000000 -0.000002 -0.000000
vn 1.000000 0.000000 0.000003
vn 1.000000 0.000000 0.000003
vn 1.000000 0.000000 0.000003
vn 1.000000 0.000000 0.000003
vn 1.000000 -0.000002 -0.000000
vn 1.000000 -0.000002 -0.000000
vn 1.000000 -0.000002 -0.000000
vn 1.000000 -0.000002 -0.000000
vn 1.000000 0.000002 0.000003
vn 1.000000 0.000002 0.000003
vn 1.000000 0.000002 0.000003
vn 1.000000 0.000002 0.000003
vn 0.000000 -1.000000 0.000000
vn 0.000000 -1.000000 0.000000
vn 0.000000 -1.000000 0.000000
vn 0.000000 -1.000000 0.000000
vn -0.000004 0.266832 0.963743
vn -0.000004 0.266832 0.963743
vn -0.000004 0.266832 0.963743
vn -0.000004 0.266832 0.963743
vn -0.000003 0.266836 -0.963742
vn -0.000003 0.266836 -0.963742
vn -0.000003 0.266836 -0.963742
vn -0.000003 0.266836 -0.963742
vn 0.000000 1.000000 0.000000
vn 0.000000 1.000000 0.000000
vn 0.000000 1.000000 0.000000
vn 0.000000 1.000000 0.000000
s off
f 9/33/1 10/45/2 11/22/3 12/17/4
f 12/3/5 11/15/6 13/6/7 14/18/8
f 14/5/9 13/16/10 15/35/11 16/41/12
f 3/7/13 4/19/14 2/10/15 1/9/16
f 10/46/17 15/38/18 13/12/19 11/4/20
f 16/42/21 9/40/22 12/24/23 14/14/24
f 1/23/25 2/2/26 6/27/27 5/55/28
f 2/21/29 4/11/30 7/30/31 6/53/32
f 8/32/33 7/51/34 4/8/35 3/20/36
f 3/13/37 1/1/38 5/25/39 8/49/40
f 5/26/41 6/54/42 10/34/43 9/43/44
f 7/29/45 8/50/46 16/36/47 15/47/48
f 6/28/49 7/52/50 15/48/51 10/37/52
f 8/31/53 5/56/54 9/44/55 16/39/56
f 17/57/57 18/58/58 20/59/59 19/60/60
f 19/61/61 20/62/62 22/63/63 21/64/64
f 21/65/65 22/66/66 24/67/67 23/68/68
f 23/69/69 24/70/70 18/71/71 17/72/72
f 18/73/73 24/74/74 22/75/75 20/76/76
f 23/77/77 17/78/78 19/79/79 21/80/80
f 34/81/81 35/82/82 26/83/83 28/84/84
f 33/85/85 34/86/86 28/87/87 30/88/88
f 36/89/89 33/90/90 30/91/91 32/92/92
f 35/93/93 36/94/94 32/95/95 26/96/96
f 26/97/97 32/98/98 30/99/99 28/100/100
f 31/101/101 25/102/102 27/103/103 29/104/104
f 27/105/105 34/106/106 33/107/107 29/108/108
f 25/109/109 35/110/110 34/111/111 27/112/112
f 31/113/113 36/114/114 35/115/115 25/116/116
f 29/117/117 33/118/118 36/119/119 31/120/120
f 37/121/121 38/122/122 40/123/123 39/124/124
f 39/125/125 40/126/126 42/127/127 41/128/128
f 41/129/129 42/130/130 44/131/131 43/132/132
f 43/133/133 44/134/134 38/135/135 37/136/136
f 38/137/137 44/138/138 42/139/139 40/140/140
f 43/141/141 37/142/142 39/143/143 41/144/144
f 45/145/145 46/146/146 48/147/147 47/148/148
f 47/149/149 48/150/150 50/151/151 49/152/152
f 49/153/153 50/154/154 52/155/155 51/156/156
f 51/157/157 52/158/158 46/159/159 45/160/160
f 46/161/161 52/162/162 50/163/163 48/164/164
f 51/165/165 45/166/166 47/167/167 49/168/168
f 53/169/169 54/170/170 56/171/171 55/172/172
f 55/173/173 56/174/174 58/175/175 57/176/176
f 57/177/177 58/178/178 60/179/179 59/180/180
f 59/181/181 60/182/182 54/183/183 53/184/184
f 54/185/185 60/186/186 58/187/187 56/188/188
f 59/189/189 53/190/190 55/191/191 57/192/192
f 61/193/193 62/194/194 64/195/195 63/196/196
f 63/197/197 64/198/198 66/199/199 65/200/200
f 65/201/201 66/202/202 68/203/203 67/204/204
f 67/205/205 68/206/206 62/207/207 61/208/208
f 62/209/209 68/210/210 66/211/211 64/212/212
f 67/213/213 61/214/214 63/215/215 65/216/216
f 69/217/217 70/218/218 72/219/219 71/220/220
f 71/221/221 72/222/222 74/223/223 73/224/224
f 73/225/225 74/226/226 76/227/227 75/228/228
f 75/229/229 76/230/230 70/231/231 69/232/232
f 70/233/233 76/234/234 74/235/235 72/236/236
f 75/237/237 69/238/238 71/239/239 73/240/240
f 77/241/241 78/242/242 80/243/243 79/244/244
f 79/245/245 80/246/246 82/247/247 81/248/248
f 81/249/249 82/250/250 84/251/251 83/252/252
f 83/253/253 84/254/254 78/255/255 77/256/256
f 78/257/257 84/258/258 82/259/259 80/260/260
f 83/261/261 77/262/262 79/263/263 81/264/264
f 85/265/265 86/266/266 88/267/267 87/268/268
f 87/269/269 88/270/270 90/271/271 89/272/272
f 89/273/273 90/274/274 92/275/275 91/276/276
f 91/277/277 92/278/278 86/279/279 85/280/280
f 86/281/281 92/282/282 90/283/283 88/284/284
f 91/285/285 85/286/286 87/287/287 89/288/288
f 93/289/289 94/290/290 96/291/291 95/292/292
f 95/293/293 96/294/294 98/295/295 97/296/296
f 97/297/297 98/298/298 100/299/299 99/300/300
f 99/301/301 100/302/302 94/303/303 93/304/304
f 94/305/305 100/306/306 98/307/307 96/308/308
f 99/309/309 93/310/310 95/311/311 97/312/312
f 101/313/313 102/314/314 104/315/315 103/316/316
f 103/317/317 104/318/318 106/319/319 105/320/320
f 105/321/321 106/322/322 108/323/323 107/324/324
f 102/325/325 108/326/326 106/327/327 104/328/328
f 117/329/329 118/330/330 119/331/331 120/332/332
f 109/333/333 110/334/334 111/335/335 112/336/336
f 108/337/337 102/338/338 110/339/339 109/340/340
f 102/341/341 101/342/342 111/343/343 110/344/344
f 101/345/345 107/346/346 112/347/347 111/348/348
f 107/349/349 108/350/350 109/351/351 112/352/352
f 107/353/353 101/354/354 114/355/355 113/356/356
f 101/354/357 103/357/358 115/358/359 114/355/360
f 103/357/361 105/359/362 116/360/363 115/358/364
f 105/359/365 107/353/366 113/356/367 116/360/368
f 113/361/369 114/362/370 118/363/371 117/364/372
f 114/365/373 115/366/374 119/367/375 118/368/376
f 115/369/377 116/370/378 120/371/379 119/372/380
f 116/373/381 113/374/382 117/375/383 120/376/384
f 121/377/385 122/378/386 124/379/387 123/380/388
f 125/381/389 126/382/390 128/383/391 127/384/392
f 122/385/393 128/386/394 126/387/395 124/388/396
f 127/389/397 121/390/398 123/391/399 125/392/400
f 123/393/401 124/394/402 130/395/403 129/396/404
f 124/397/405 126/398/406 131/399/407 130/400/408
f 126/401/409 125/402/410 132/403/411 131/404/412
f 125/405/413 123/406/414 129/407/415 132/408/416
f 127/409/417 128/410/418 134/411/419 133/412/420
f 128/413/421 122/414/422 135/415/423 134/416/424
f 122/417/425 121/418/426 136/419/427 135/420/428
f 121/421/429 127/422/430 133/423/431 136/424/432
f 131/425/433 132/426/434 133/427/435 134/428/436
f 132/429/437 129/430/438 136/431/439 133/432/440
f 131/433/441 134/434/442 135/435/443 130/436/444
f 130/437/445 135/438/446 136/439/447 129/440/448
f 137/441/449 138/442/450 140/443/451 139/444/452
f 141/445/453 142/446/454 144/447/455 143/448/456
f 138/449/457 144/450/458 142/451/459 140/452/460
f 143/453/461 137/454/462 139/455/463 141/456/464
f 139/457/465 140/458/466 146/459/467 145/460/468
f 140/461/469 142/462/470 147/463/471 146/464/472
f 142/465/473 141/466/474 148/467/475 147/468/476
f 141/469/477 139/470/478 145/471/479 148/472/480
f 143/473/481 144/474/482 150/475/483 149/476/484
f 144/477/485 138/478/486 151/479/487 150/480/488
f 138/481/489 137/482/490 152/483/491 151/484/492
f 137/485/493 143/486/494 149/487/495 152/488/496
f 147/489/497 148/490/498 149/491/499 150/492/500
f 148/493/501 145/494/502 152/495/503 149/496/504
f 147/497/505 150/498/506 151/499/507 146/500/508
f 146/501/509 151/502/510 152/503/511 145/504/512
