# This file uses meters as units for non-parametric coordinates.

v -0.548378 0.000000 -0.620958
v -0.548378 0.000000 0.620958
v -0.548378 2.577312 -0.620958
v -0.548378 2.577312 0.620958
v 0.548379 2.577312 -0.620958
v 0.548379 2.577312 0.620958
v 0.548379 0.000000 -0.620958
v 0.548379 0.000000 0.620958
v 0.522900 0.035927 0.620958
v -0.522900 0.035927 0.620959
v 0.522900 2.541385 0.620958
v -0.522900 2.541385 0.620959
v -0.522900 1.288656 0.620959
v 0.522900 1.288656 0.620958
v -0.522900 1.915021 0.620959
v 0.522900 1.915021 0.620958
v -0.522900 1.977657 0.620959
v 0.522900 1.977657 0.620958
v -0.522900 1.351292 0.620959
v 0.522900 1.351292 0.620958
v -0.135675 2.280408 0.620959
v 0.135674 2.280408 0.620958
v 0.135674 2.385682 0.620958
v -0.135675 2.385682 0.620959
v -0.135090 1.639686 0.620958
v 0.135090 1.639686 0.620959
v 0.135090 1.743782 0.620959
v -0.135090 1.743782 0.620958
v 0.134345 0.946239 0.620958
v -0.134344 0.946239 0.620959
v 0.134345 1.048729 0.620958
v -0.134344 1.048729 0.620959
vt 0.294781 0.479895
vt 0.270245 0.479895
vt 0.328518 0.479895
vt 0.234463 0.479895
vt 0.270245 0.479895
vt 0.328518 0.479895
vt 0.232419 0.479895
vt 0.270245 0.479895
vt 0.232419 0.479895
vt 0.232419 0.479895
vt 0.234463 0.479895
vt 0.234463 0.479895
vt 0.294781 0.479895
vt 0.294781 0.479895
vt 0.328518 0.479895
vt 0.270245 0.479895
vt 0.270245 0.479895
vt 0.328518 0.479895
vt 0.232419 0.479895
vt 0.270245 0.479895
vt 0.234463 0.479895
vt 0.270245 0.479895
vt 0.270245 0.479895
vt 0.294781 0.479895
vt 0.294781 0.479895
vt 0.234463 0.479895
vt 0.234463 0.479895
vt 0.234463 0.479895
vt 0.234463 0.479895
vt 0.234463 0.479895
vt 0.234463 0.479895
vt 0.294781 0.479895
vt 0.234463 0.479895
vt 0.294781 0.479895
vt 0.234463 0.479895
vt 0.234463 0.479895
vt 0.294781 0.479895
vt 0.234463 0.479895
vt 0.234463 0.479895
vt 0.234463 0.479895
vt 0.234463 0.479895
vt 0.294781 0.479895
vt 0.234463 0.479895
vt 0.294781 0.479895
vt 0.234463 0.479895
vt 0.294781 0.479895
vt 0.234463 0.479895
vt 0.294781 0.479895
vt 0.234463 0.479895
vt 0.294781 0.479895
vt 0.234463 0.479895
vt 0.294781 0.479895
vt 0.234463 0.479895
vt 0.294781 0.479895
vt 0.234463 0.479895
vt 0.294781 0.479895
vt 0.198682 0.479895
vt 0.294781 0.479895
vt 0.294781 0.479895
vt 0.294781 0.479895
vt 0.198682 0.479895
vt 0.294781 0.479895
vt 0.294781 0.479895
vt 0.294781 0.479895
vt 0.198682 0.479895
vt 0.294781 0.479895
vt 0.294781 0.479895
vt 0.294781 0.479895
vt 0.241620 0.479895
vt 0.241620 0.479895
vt 0.241620 0.479895
vt 0.241620 0.479895
vt 0.241620 0.479895
vt 0.241620 0.479895
vt 0.241620 0.479895
vt 0.241620 0.479895
vt 0.294781 0.479895
vt 0.198682 0.479895
vt 0.198682 0.479895
vt 0.198682 0.479895
vt 0.294781 0.479895
vt 0.198682 0.479895
vt 0.198682 0.479895
vt 0.198682 0.479895
vt 0.294781 0.479895
vt 0.198682 0.479895
vt 0.198682 0.479895
vt 0.198682 0.479895
vt 0.294781 0.479895
vt 0.294781 0.479895
vt 0.294781 0.479895
vt 0.294781 0.479895
vt 0.294781 0.479895
vt 0.294781 0.479895
vt 0.294781 0.479895
vt 0.294781 0.479895
vt 0.294781 0.479895
vt 0.294781 0.479895
vt 0.294781 0.479895
vt 0.294781 0.479895
vt 0.294781 0.479895
vt 0.294781 0.479895
vt 0.294781 0.479895
vt 0.294781 0.479895
vt 0.294781 0.479895
vt 0.294781 0.479895
vt 0.294781 0.479895
vt 0.294781 0.479895
vt 0.294781 0.479895
vt 0.294781 0.479895
vt 0.294781 0.479895
vt 0.294781 0.479895
vn -1.000000 0.000000 -0.000000
vn -1.000000 0.000000 -0.000000
vn -1.000000 0.000000 -0.000000
vn -1.000000 0.000000 -0.000000
vn 0.000000 1.000000 0.000000
vn 0.000000 1.000000 0.000000
vn 0.000000 1.000000 0.000000
vn 0.000000 1.000000 0.000000
vn 1.000000 0.000000 0.000000
vn 1.000000 0.000000 0.000000
vn 1.000000 0.000000 0.000000
vn 1.000000 0.000000 0.000000
vn 0.000000 -1.000000 0.000000
vn 0.000000 -1.000000 0.000000
vn 0.000000 -1.000000 0.000000
vn 0.000000 -1.000000 0.000000
vn 0.000003 0.000000 1.000000
vn 0.000003 0.000000 1.000000
vn 0.000003 0.000000 1.000000
vn 0.000003 0.000000 1.000000
vn 0.000000 0.000000 -1.000000
vn 0.000000 0.000000 -1.000000
vn 0.000000 0.000000 -1.000000
vn 0.000000 0.000000 -1.000000
vn 0.000000 0.000000 1.000000
vn 0.000000 0.000000 1.000000
vn 0.000000 0.000000 1.000000
vn 0.000000 0.000000 1.000000
vn -0.000015 0.000000 1.000000
vn -0.000015 0.000000 1.000000
vn -0.000015 0.000000 1.000000
vn -0.000015 0.000000 1.000000
vn -0.000015 0.000000 1.000000
vn -0.000015 0.000000 1.000000
vn -0.000015 0.000000 1.000000
vn -0.000015 0.000000 1.000000
vn 0.000000 0.000000 1.000000
vn 0.000000 0.000000 1.000000
vn 0.000000 0.000000 1.000000
vn 0.000000 0.000000 1.000000
vn -0.000015 0.000000 1.000000
vn -0.000015 0.000000 1.000000
vn -0.000015 0.000000 1.000000
vn -0.000015 0.000000 1.000000
vn -0.000015 0.000000 1.000000
vn -0.000015 0.000000 1.000000
vn -0.000015 0.000000 1.000000
vn -0.000015 0.000000 1.000000
vn 0.000002 0.000000 1.000000
vn 0.000002 0.000000 1.000000
vn 0.000002 0.000000 1.000000
vn 0.000002 0.000000 1.000000
vn -0.000002 0.000000 1.000000
vn -0.000002 0.000000 1.000000
vn -0.000002 0.000000 1.000000
vn -0.000002 0.000000 1.000000
vn 0.000001 0.000000 1.000000
vn 0.000001 0.000000 1.000000
vn 0.000001 0.000000 1.000000
vn 0.000001 0.000000 1.000000
vn 0.000001 0.000000 1.000000
vn 0.000001 0.000000 1.000000
vn 0.000001 0.000000 1.000000
vn 0.000001 0.000000 1.000000
vn 0.000001 0.000000 1.000000
vn 0.000001 0.000000 1.000000
vn 0.000001 0.000000 1.000000
vn 0.000001 0.000000 1.000000
vn -0.000000 0.000000 1.000000
vn -0.000000 0.000000 1.000000
vn -0.000000 0.000000 1.000000
vn -0.000000 0.000000 1.000000
vn 0.000001 -0.000000 1.000000
vn 0.000001 -0.000000 1.000000
vn 0.000001 -0.000000 1.000000
vn 0.000001 -0.000000 1.000000
vn 0.000000 0.000000 1.000000
vn 0.000000 0.000000 1.000000
vn 0.000000 0.000000 1.000000
vn 0.000000 0.000000 1.000000
vn 0.000000 0.000000 1.000000
vn 0.000000 0.000000 1.000000
vn 0.000000 0.000000 1.000000
vn 0.000000 0.000000 1.000000
vn 0.000001 0.000000 1.000000
vn 0.000001 0.000000 1.000000
vn 0.000001 0.000000 1.000000
vn 0.000001 0.000000 1.000000
vn 0.000000 0.000000 1.000000
vn 0.000000 0.000000 1.000000
vn 0.000000 0.000000 1.000000
vn 0.000000 0.000000 1.000000
vn 0.000001 0.000000 1.000000
vn 0.000001 0.000000 1.000000
vn 0.000001 0.000000 1.000000
vn 0.000001 0.000000 1.000000
vn 0.000001 0.000000 1.000000
vn 0.000001 0.000000 1.000000
vn 0.000001 0.000000 1.000000
vn 0.000001 0.000000 1.000000
vn 0.000000 0.000000 1.000000
vn 0.000000 0.000000 1.000000
vn 0.000000 0.000000 1.000000
vn 0.000000 0.000000 1.000000
vn 0.000001 0.000000 1.000000
vn 0.000001 0.000000 1.000000
vn 0.000001 0.000000 1.000000
vn 0.000001 0.000000 1.000000
vn 0.000000 0.000000 1.000000
vn 0.000000 0.000000 1.000000
vn 0.000000 0.000000 1.000000
vn 0.000000 0.000000 1.000000
s off
f 1/23/1 2/2/2 4/22/3 3/17/4
f 3/3/5 4/15/6 6/6/7 5/18/8
f 5/5/9 6/16/10 8/8/11 7/20/12
f 7/7/13 8/19/14 2/10/15 1/9/16
f 21/57/17 22/88/18 23/87/19 24/86/20
f 7/13/21 1/1/22 3/24/23 5/14/24
f 2/21/25 8/40/26 9/36/27 10/29/28
f 8/11/29 6/38/30 11/33/31 18/51/32 16/47/33 20/55/34 14/43/35 9/26/36
f 6/12/37 4/35/38 12/31/39 11/27/40
f 4/4/41 2/39/42 10/30/43 13/41/44 19/53/45 15/45/46 17/49/47 12/28/48
f 30/65/49 29/80/50 31/79/51 32/78/52
f 25/61/53 26/84/54 27/83/55 28/82/56
f 15/75/57 16/74/58 18/73/59 17/72/60
f 13/76/61 14/71/62 20/70/63 19/69/64
f 17/50/65 18/111/66 22/109/67 21/85/68
f 18/52/69 11/110/70 23/107/71 22/58/72
f 11/34/73 12/108/74 24/106/75 23/59/76
f 12/32/77 17/112/78 21/105/79 24/60/80
f 19/54/81 20/103/82 26/101/83 25/81/84
f 20/56/85 16/102/86 27/99/87 26/62/88
f 16/48/89 15/100/90 28/98/91 27/63/92
f 15/46/93 19/104/94 25/97/95 28/64/96
f 10/25/97 9/96/98 29/93/99 30/77/100
f 9/37/101 14/94/102 31/91/103 29/66/104
f 14/44/105 13/92/106 32/90/107 31/67/108
f 13/42/109 10/95/110 30/89/111 32/68/112
