# This file uses meters as units for non-parametric coordinates.

v -0.075955 0.663860 -0.162498
v -0.124100 0.466995 0.162666
v -0.075955 0.792759 -0.104657
v -0.124100 0.680725 0.258572
v 0.070356 0.792759 -0.104657
v 0.118500 0.680725 0.258572
v 0.070356 0.663860 -0.162498
v 0.118500 0.466995 0.162666
v 0.070356 0.593490 -0.005676
v 0.070356 0.722389 0.052165
v -0.075955 0.722389 0.052165
v -0.075955 0.593490 -0.005676
v -0.124100 0.732315 0.143602
v 0.118500 0.732315 0.143602
v 0.118500 0.518585 0.047695
v -0.124100 0.518585 0.047695
v 0.080383 0.500576 0.177734
v -0.085983 0.500576 0.177734
v 0.080383 0.647143 0.243503
v -0.085983 0.647143 0.243503
v 0.080383 0.522964 0.127843
v -0.085983 0.522964 0.127843
v 0.080383 0.669531 0.193612
v -0.085983 0.669531 0.193611
v -0.136236 0.000000 -0.258572
v -0.136236 0.000000 0.013899
v 0.136235 0.000000 -0.258572
v 0.136236 0.000000 0.013899
v -0.136236 0.071529 -0.258572
v -0.136236 0.071529 0.013899
v 0.136236 0.071529 0.013899
v 0.136236 0.071529 -0.258572
v -0.025711 0.071529 -0.148047
v -0.025711 0.071529 -0.096625
v -0.025711 0.657767 -0.012542
v -0.025711 0.679765 -0.059020
v 0.025711 0.657767 -0.012542
v 0.025711 0.679765 -0.059020
v 0.025711 0.071529 -0.096625
v 0.025711 0.071529 -0.148047
v -0.025711 0.403613 -0.146977
v -0.025711 0.388934 -0.097695
v 0.025711 0.388934 -0.097695
v 0.025711 0.403613 -0.146977
v -0.027277 0.071529 -0.004351
v 0.027277 0.071529 -0.004351
v 0.027277 0.071529 -0.067432
v -0.027277 0.071529 -0.067432
v -0.027277 0.103070 -0.004351
v 0.027277 0.103070 -0.004351
v 0.027277 0.075753 -0.067432
v -0.027277 0.075753 -0.067432
vt 0.232249 0.061780
vt 0.207713 0.061780
vt 0.265986 0.061780
vt 0.232249 0.061780
vt 0.207713 0.061780
vt 0.265986 0.061780
vt 0.169887 0.061780
vt 0.207713 0.061780
vt 0.169887 0.061779
vt 0.169887 0.061779
vt 0.232249 0.061780
vt 0.232249 0.061780
vt 0.232249 0.061780
vt 0.232249 0.061780
vt 0.265986 0.061780
vt 0.207713 0.061780
vt 0.207713 0.061780
vt 0.265986 0.061780
vt 0.169887 0.061780
vt 0.207713 0.061780
vt 0.232249 0.061780
vt 0.207713 0.061780
vt 0.207713 0.061780
vt 0.232249 0.061780
vt 0.136024 0.061780
vt 0.173851 0.061780
vt 0.207713 0.061780
vt 0.265986 0.061780
vt 0.265986 0.061780
vt 0.207713 0.061780
vt 0.207713 0.061780
vt 0.169887 0.061779
vt 0.232123 0.061780
vt 0.173851 0.061780
vt 0.207713 0.061780
vt 0.265986 0.061780
vt 0.169887 0.061780
vt 0.207713 0.061780
vt 0.207713 0.061780
vt 0.169887 0.061779
vt 0.136024 0.061779
vt 0.173851 0.061780
vt 0.265986 0.061780
vt 0.207713 0.061780
vt 0.173851 0.061780
vt 0.136024 0.061780
vt 0.232123 0.061780
vt 0.173851 0.061780
vt 0.173851 0.061780
vt 0.136024 0.061779
vt 0.207713 0.061780
vt 0.169887 0.061780
vt 0.232123 0.061780
vt 0.173851 0.061780
vt 0.173851 0.061780
vt 0.232123 0.061780
vt 0.232249 0.061780
vt 0.232249 0.061780
vt 0.232249 0.061780
vt 0.232249 0.061780
vt 0.202043 0.062032
vt 0.178339 0.062032
vt 0.178339 0.062032
vt 0.178339 0.062032
vt 0.357810 0.477693
vt 0.178339 0.062032
vt 0.178339 0.062032
vt 0.178339 0.062032
vt 0.202043 0.062032
vt 0.178339 0.062032
vt 0.178339 0.062032
vt 0.357810 0.477693
vt 0.178339 0.062032
vt 0.357810 0.477693
vt 0.178339 0.062032
vt 0.202043 0.062032
vt 0.357810 0.477693
vt 0.178339 0.062032
vt 0.178339 0.062032
vt 0.202043 0.062032
vt 0.207713 0.061779
vt 0.207713 0.061779
vt 0.207713 0.061780
vt 0.207713 0.061780
vt 0.265986 0.061780
vt 0.265986 0.061780
vt 0.265986 0.061780
vt 0.265986 0.061780
vt 0.207713 0.061780
vt 0.207713 0.061780
vt 0.207713 0.061779
vt 0.207713 0.061779
vt 0.169887 0.061780
vt 0.169887 0.061780
vt 0.169887 0.061779
vt 0.169887 0.061779
vt 0.232249 0.061779
vt 0.232249 0.061779
vt 0.232249 0.061780
vt 0.232249 0.061780
vt 0.232249 0.061779
vt 0.232249 0.061779
vt 0.232249 0.061780
vt 0.232249 0.061780
vt 0.207713 0.061780
vt 0.207713 0.061780
vt 0.207713 0.061779
vt 0.207713 0.061779
vt 0.232249 0.061780
vt 0.232249 0.061780
vt 0.232249 0.061779
vt 0.232249 0.061779
vt 0.207713 0.061779
vt 0.207713 0.061779
vt 0.207713 0.061780
vt 0.207713 0.061780
vt 0.232249 0.061780
vt 0.232249 0.061780
vt 0.232249 0.061779
vt 0.232249 0.061779
vt 0.268075 0.059492
vt 0.268075 0.059492
vt 0.268075 0.059492
vt 0.268075 0.059492
vt 0.268075 0.059492
vt 0.268075 0.059492
vt 0.268075 0.059492
vt 0.268075 0.059492
vt 0.207713 0.061779
vt 0.207713 0.061779
vt 0.232249 0.061779
vt 0.232249 0.061779
vt 0.207713 0.061779
vt 0.207713 0.061779
vt 0.232249 0.061779
vt 0.232249 0.061779
vt 0.268075 0.059492
vt 0.268075 0.059492
vt 0.268075 0.059492
vt 0.268075 0.059492
vt 0.298551 0.476846
vt 0.267228 0.476846
vt 0.298551 0.476846
vt 0.267228 0.476846
vt 0.327334 0.476846
vt 0.267228 0.476846
vt 0.298551 0.476846
vt 0.267228 0.476846
vt 0.298551 0.476846
vt 0.327334 0.476846
vt 0.327334 0.476846
vt 0.327334 0.476846
vt 0.267228 0.476846
vt 0.298551 0.476846
vt 0.298551 0.476846
vt 0.298551 0.476846
vt 0.267228 0.476846
vt 0.267228 0.476846
vt 0.298551 0.476846
vt 0.267228 0.476846
vn -0.854969 0.212346 -0.473219
vn -0.854969 0.212346 -0.473219
vn -0.854969 0.212346 -0.473219
vn -0.854969 0.212346 -0.473219
vn 0.000000 0.994160 -0.107917
vn 0.000000 0.994160 -0.107917
vn 0.000000 0.994160 -0.107917
vn 0.000000 0.994160 -0.107917
vn 0.854969 0.212347 -0.473220
vn 0.854969 0.212347 -0.473220
vn 0.854969 0.212347 -0.473220
vn 0.854969 0.212347 -0.473220
vn -0.000001 -0.580285 -0.814413
vn -0.000001 -0.580285 -0.814413
vn -0.000001 -0.580285 -0.814413
vn -0.000001 -0.580285 -0.814413
vn -0.000001 -0.409399 0.912355
vn -0.000001 -0.409399 0.912355
vn -0.000001 -0.409399 0.912355
vn -0.000001 -0.409399 0.912355
vn 0.000000 0.409399 -0.912355
vn 0.000000 0.409399 -0.912355
vn 0.000000 0.409399 -0.912355
vn 0.000000 0.409399 -0.912355
vn 1.000000 0.000000 -0.000000
vn 1.000000 0.000000 -0.000000
vn 1.000000 0.000000 -0.000000
vn 1.000000 0.000000 -0.000000
vn 0.000000 0.912355 0.409399
vn 0.000000 0.912355 0.409399
vn 0.000000 0.912355 0.409399
vn 0.000000 0.912355 0.409399
vn -1.000000 -0.000000 -0.000000
vn -1.000000 -0.000000 -0.000000
vn -1.000000 -0.000000 -0.000000
vn -1.000000 -0.000000 -0.000000
vn 0.000000 -0.912356 -0.409398
vn 0.000000 -0.912356 -0.409398
vn 0.000000 -0.912356 -0.409398
vn 0.000000 -0.912356 -0.409398
vn 0.000000 0.912357 0.409396
vn 0.000000 0.912357 0.409396
vn 0.000000 0.912357 0.409396
vn 0.000000 0.912357 0.409396
vn 1.000000 0.000000 0.000000
vn 1.000000 0.000000 0.000000
vn 1.000000 0.000000 0.000000
vn 1.000000 0.000000 0.000000
vn -0.000000 -0.912355 -0.409400
vn -0.000000 -0.912355 -0.409400
vn -0.000000 -0.912355 -0.409400
vn -0.000000 -0.912355 -0.409400
vn -1.000000 -0.000000 0.000000
vn -1.000000 -0.000000 0.000000
vn -1.000000 -0.000000 0.000000
vn -1.000000 -0.000000 0.000000
vn 0.000000 -0.409398 0.912356
vn 0.000000 -0.409398 0.912356
vn 0.000000 -0.409398 0.912356
vn 0.000000 -0.409398 0.912356
vn -0.000003 -0.409398 0.912356
vn -0.000003 -0.409398 0.912356
vn -0.000003 -0.409398 0.912356
vn -0.000003 -0.409398 0.912356
vn 0.000001 -0.409400 0.912355
vn 0.000001 -0.409400 0.912355
vn 0.000001 -0.409400 0.912355
vn 0.000001 -0.409400 0.912355
vn 0.000000 -0.409399 0.912356
vn 0.000000 -0.409399 0.912356
vn 0.000000 -0.409399 0.912356
vn 0.000000 -0.409399 0.912356
vn 0.000000 0.912356 0.409398
vn 0.000000 0.912356 0.409398
vn 0.000000 0.912356 0.409398
vn 0.000000 0.912356 0.409398
vn -1.000000 0.000000 -0.000000
vn -1.000000 0.000000 -0.000000
vn -1.000000 0.000000 -0.000000
vn -1.000000 0.000000 -0.000000
vn 0.000000 -0.912358 -0.409394
vn 0.000000 -0.912358 -0.409394
vn 0.000000 -0.912358 -0.409394
vn 0.000000 -0.912358 -0.409394
vn 1.000000 -0.000000 -0.000000
vn 1.000000 -0.000000 -0.000000
vn 1.000000 -0.000000 -0.000000
vn 1.000000 -0.000000 -0.000000
vn -1.000000 0.000000 0.000000
vn -1.000000 0.000000 0.000000
vn -1.000000 0.000000 0.000000
vn -1.000000 0.000000 0.000000
vn 0.000001 0.903872 0.427803
vn 0.000001 0.903872 0.427803
vn 0.000001 0.903872 0.427803
vn 0.000001 0.903872 0.427803
vn 1.000000 -0.000000 -0.000000
vn 1.000000 -0.000000 -0.000000
vn 1.000000 -0.000000 -0.000000
vn 1.000000 -0.000000 -0.000000
vn 0.000000 -1.000000 0.000000
vn 0.000000 -1.000000 0.000000
vn 0.000000 -1.000000 0.000000
vn 0.000000 -1.000000 0.000000
vn 0.000004 -0.301966 0.953319
vn 0.000004 -0.301966 0.953319
vn 0.000004 -0.301966 0.953319
vn 0.000004 -0.301966 0.953319
vn 0.000000 0.303487 -0.952836
vn 0.000000 0.303487 -0.952836
vn 0.000000 0.303487 -0.952836
vn 0.000000 0.303487 -0.952836
vn -1.000000 0.000000 0.000000
vn -1.000000 0.000000 0.000000
vn -1.000000 0.000000 0.000000
vn -1.000000 0.000000 0.000000
vn 0.000000 0.000000 1.000000
vn 0.000000 0.000000 1.000000
vn 0.000000 0.000000 1.000000
vn 0.000000 0.000000 1.000000
vn 1.000000 -0.000003 -0.000000
vn 1.000000 -0.000003 -0.000000
vn 1.000000 -0.000003 -0.000000
vn 1.000000 -0.000003 -0.000000
vn 0.000000 0.000000 -1.000000
vn 0.000000 0.000000 -1.000000
vn 0.000000 0.000000 -1.000000
vn 0.000000 0.000000 -1.000000
vn 0.000000 1.000000 0.000000
vn 0.000000 1.000000 0.000000
vn 0.000000 1.000000 0.000000
vn 0.000000 1.000000 0.000000
vn 0.000000 1.000000 0.000000
vn 0.000000 1.000000 0.000000
vn 0.000000 1.000000 0.000000
vn 0.000000 1.000000 0.000000
vn 0.000001 0.917651 -0.397387
vn 0.000001 0.917651 -0.397387
vn 0.000001 0.917651 -0.397387
vn 0.000001 0.917651 -0.397387
vn 0.000000 1.000000 -0.000000
vn 0.000000 1.000000 -0.000000
vn 0.000000 1.000000 -0.000000
vn 0.000000 1.000000 -0.000000
vn -1.000000 -0.000000 0.000000
vn -1.000000 -0.000000 0.000000
vn -1.000000 -0.000000 0.000000
vn -1.000000 -0.000000 0.000000
vn 0.000002 0.003371 0.999994
vn 0.000002 0.003371 0.999994
vn 0.000002 0.003371 0.999994
vn 0.000002 0.003371 0.999994
vn 1.000000 -0.000000 0.000000
vn 1.000000 -0.000000 0.000000
vn 1.000000 -0.000000 0.000000
vn 1.000000 -0.000000 0.000000
vn -0.000002 0.003222 -0.999995
vn -0.000002 0.003222 -0.999995
vn -0.000002 0.003222 -0.999995
vn -0.000002 0.003222 -0.999995
vn 0.000000 1.000000 -0.000001
vn 0.000000 1.000000 -0.000001
vn 0.000000 1.000000 -0.000001
vn 0.000000 1.000000 -0.000001
vn 0.000000 1.000000 0.000000
vn 0.000000 1.000000 0.000000
vn 0.000000 1.000000 0.000000
vn 0.000000 1.000000 0.000000
vn 0.000000 1.000000 -0.000000
vn 0.000000 1.000000 -0.000000
vn 0.000000 1.000000 -0.000000
vn 0.000000 1.000000 -0.000000
vn 0.000000 1.000000 0.000000
vn 0.000000 1.000000 0.000000
vn 0.000000 1.000000 0.000000
vn 0.000000 1.000000 0.000000
vn 0.000000 0.000000 1.000000
vn 0.000000 0.000000 1.000000
vn 0.000000 0.000000 1.000000
vn 0.000000 0.000000 1.000000
vn 1.000000 0.000000 0.000006
vn 1.000000 0.000000 0.000006
vn 1.000000 0.000000 0.000006
vn 1.000000 0.000000 0.000006
vn 0.000004 0.000000 -1.000000
vn 0.000004 0.000000 -1.000000
vn 0.000004 0.000000 -1.000000
vn 0.000004 0.000000 -1.000000
vn -1.000000 0.000000 0.000008
vn -1.000000 0.000000 0.000008
vn -1.000000 0.000000 0.000008
vn -1.000000 0.000000 0.000008
s off
f 11/54/1 12/49/2 16/42/3 13/34/4
f 10/56/5 11/53/6 13/33/7 14/47/8
f 9/26/9 10/55/10 14/48/11 15/45/12
f 12/50/13 9/25/14 15/46/15 16/41/16
f 22/65/17 21/77/18 23/74/19 24/72/20
f 7/13/21 1/1/22 3/24/23 5/14/24
f 5/5/25 10/27/26 9/51/27 7/20/28
f 3/3/29 11/29/30 10/28/31 5/18/32
f 1/23/33 12/31/34 11/30/35 3/17/36
f 7/7/37 9/52/38 12/32/39 1/9/40
f 14/36/41 13/43/42 4/15/43 6/6/44
f 15/38/45 14/35/46 6/16/47 8/8/48
f 16/40/49 15/37/50 8/19/51 2/10/52
f 13/44/53 16/39/54 2/2/55 4/22/56
f 2/21/57 8/11/58 17/58/59 18/57/60
f 8/11/61 6/12/62 19/59/63 17/58/64
f 6/12/65 4/4/66 20/60/67 19/59/68
f 4/4/69 2/21/70 18/57/71 20/60/72
f 18/61/73 17/80/74 21/76/75 22/69/76
f 17/62/77 19/78/78 23/73/79 21/66/80
f 19/63/81 20/75/82 24/71/83 23/67/84
f 20/64/85 18/79/86 22/70/87 24/68/88
f 41/81/89 42/82/90 35/83/91 36/84/92
f 36/85/93 35/86/94 37/87/95 38/88/96
f 38/89/97 37/90/98 43/91/99 44/92/100
f 27/93/101 28/94/102 26/95/103 25/96/104
f 42/97/105 43/98/106 37/99/107 35/100/108
f 44/101/109 41/102/110 36/103/111 38/104/112
f 25/105/113 26/106/114 30/107/115 29/108/116
f 26/109/117 28/110/118 31/111/119 30/112/120
f 32/113/121 31/114/122 28/115/123 27/116/124
f 27/117/125 25/118/126 29/119/127 32/120/128
f 29/121/129 30/122/130 34/123/131 33/124/132
f 31/125/133 32/126/134 40/127/135 39/128/136
f 49/145/137 50/152/138 51/151/139 52/150/140
f 32/126/141 29/121/142 33/124/143 40/127/144
f 33/129/145 34/130/146 42/82/147 41/81/148
f 34/131/149 39/132/150 43/98/151 42/97/152
f 44/92/153 43/91/154 39/133/155 40/134/156
f 40/135/157 33/136/158 41/102/159 44/101/160
f 30/122/161 31/125/162 46/138/163 45/137/164
f 31/125/165 39/128/166 47/139/167 46/138/168
f 39/128/169 34/123/170 48/140/171 47/139/172
f 34/123/173 30/122/174 45/137/175 48/140/176
f 45/141/177 46/159/178 50/156/179 49/149/180
f 46/142/181 47/158/182 51/157/183 50/146/184
f 47/143/185 48/155/186 52/154/187 51/147/188
f 48/144/189 45/160/190 49/153/191 52/148/192
