# This file uses meters as units for non-parametric coordinates.

v -0.447803 0.000000 -0.248249
v -0.454138 0.000000 0.221425
v -0.447803 0.056899 -0.248249
v -0.454138 0.056899 0.221425
v 0.454338 0.056899 -0.236080
v 0.448001 0.056899 0.233595
v 0.454338 0.000000 -0.236080
v 0.448001 0.000000 0.233595
v 0.446066 0.000000 0.376995
v -0.456073 0.000000 0.364824
v 0.446066 0.056899 0.376995
v -0.456073 0.056899 0.364824
v -0.143579 0.056899 0.238905
v 0.006724 0.056899 0.240932
v -0.145155 0.056899 0.355729
v 0.005148 0.056899 0.357757
v -0.447871 0.039106 -0.243163
v -0.446828 0.645825 -0.320559
v -0.447110 0.031905 -0.299600
v -0.446067 0.638624 -0.376994
v 0.455029 0.031905 -0.287431
v 0.456073 0.638624 -0.364823
v 0.454269 0.039106 -0.230993
v 0.455313 0.645825 -0.308388
v 0.405020 0.078177 -0.236645
v 0.405930 0.606754 -0.304070
v -0.397581 0.606754 -0.314909
v -0.398489 0.078177 -0.247483
v -0.077585 0.280137 -0.326287
v -0.077395 0.390393 -0.340350
v 0.086547 0.390393 -0.338138
v 0.086356 0.280137 -0.324075
vt 0.292597 0.478297
vt 0.268061 0.478297
vt 0.512565 0.997984
vt 0.272213 0.478297
vt 0.268061 0.478297
vt 0.512565 0.917794
vt 0.230235 0.478297
vt 0.268061 0.478297
vt 0.230235 0.478297
vt 0.230235 0.478297
vt 0.272213 0.478297
vt 0.324304 0.478297
vt 0.292597 0.478297
vt 0.292597 0.478297
vt 0.707045 0.917794
vt 0.268061 0.478297
vt 0.268061 0.478297
vt 0.707045 0.997984
vt 0.230235 0.478297
vt 0.268061 0.478297
vt 0.292597 0.478297
vt 0.268061 0.478297
vt 0.268061 0.478297
vt 0.292597 0.478297
vt 0.292597 0.478297
vt 0.272213 0.478297
vt 0.324304 0.478297
vt 0.272213 0.478297
vt 0.272213 0.478297
vt 0.324304 0.478297
vt 0.324304 0.478297
vt 0.272213 0.478297
vt 0.292597 0.478297
vt 0.272213 0.478297
vt 0.272213 0.478297
vt 0.292597 0.478297
vt 0.292597 0.478297
vt 0.292597 0.478297
vt 0.239284 0.478297
vt 0.324304 0.478297
vt 0.324304 0.478297
vt 0.324304 0.478297
vt 0.324304 0.478297
vt 0.239284 0.478297
vt 0.239284 0.478297
vt 0.239284 0.478297
vt 0.268061 0.478297
vt 0.268061 0.478297
vt 0.268061 0.478297
vt 0.268061 0.478297
vt 0.317791 0.479231
vt 0.317791 0.479231
vt 0.317791 0.479231
vt 0.317791 0.479231
vt 0.268061 0.478297
vt 0.268061 0.478297
vt 0.268061 0.478297
vt 0.268061 0.478297
vt 0.015438 0.523395
vt 0.015438 0.523395
vt 0.015438 0.523395
vt 0.015438 0.523395
vt 0.292597 0.478297
vt 0.292597 0.478297
vt 0.292597 0.478297
vt 0.292597 0.478297
vt 0.292597 0.478297
vt 0.292597 0.478297
vt 0.292597 0.478297
vt 0.292597 0.478297
vt 0.230235 0.478297
vt 0.230235 0.478297
vt 0.230235 0.478297
vt 0.230235 0.478297
vt 0.230235 0.478297
vt 0.230235 0.478297
vt 0.230235 0.478297
vt 0.230235 0.478297
vt 0.263041 0.199312
vt 0.317791 0.479231
vt 0.317791 0.479231
vt 0.317791 0.479231
vt 0.317791 0.479231
vt 0.263041 0.199312
vt 0.263041 0.199312
vt 0.263041 0.199312
vn -0.999909 0.000000 -0.013487
vn -0.999909 0.000000 -0.013487
vn -0.999909 0.000000 -0.013487
vn -0.999909 0.000000 -0.013487
vn 0.000000 1.000000 0.000000
vn 0.000000 1.000000 0.000000
vn 0.000000 1.000000 0.000000
vn 0.000000 1.000000 0.000000
vn 0.999909 0.000000 0.013491
vn 0.999909 0.000000 0.013491
vn 0.999909 0.000000 0.013491
vn 0.999909 0.000000 0.013491
vn 0.000000 -1.000000 0.000000
vn 0.000000 -1.000000 0.000000
vn 0.000000 -1.000000 0.000000
vn 0.000000 -1.000000 0.000000
vn -0.013490 0.000000 0.999909
vn -0.013490 0.000000 0.999909
vn -0.013490 0.000000 0.999909
vn -0.013490 0.000000 0.999909
vn 0.013488 0.000000 -0.999909
vn 0.013488 0.000000 -0.999909
vn 0.013488 0.000000 -0.999909
vn 0.013488 0.000000 -0.999909
vn 0.000000 -1.000000 0.000000
vn 0.000000 -1.000000 0.000000
vn 0.000000 -1.000000 0.000000
vn 0.000000 -1.000000 0.000000
vn 0.999909 0.000000 0.013491
vn 0.999909 0.000000 0.013491
vn 0.999909 0.000000 0.013491
vn 0.999909 0.000000 0.013491
vn 0.000000 1.000000 0.000000
vn 0.000000 1.000000 0.000000
vn 0.000000 1.000000 0.000000
vn 0.000000 1.000000 0.000000
vn -0.999909 0.000000 -0.013492
vn -0.999909 0.000000 -0.013492
vn -0.999909 0.000000 -0.013492
vn -0.999909 0.000000 -0.013492
vn 0.000000 1.000000 0.000000
vn 0.000000 1.000000 0.000000
vn 0.000000 1.000000 0.000000
vn 0.000000 1.000000 0.000000
vn 0.000000 1.000000 0.000000
vn 0.000000 1.000000 0.000000
vn 0.000000 1.000000 0.000000
vn 0.000000 1.000000 0.000000
vn 0.000000 1.000000 -0.000000
vn 0.000000 1.000000 -0.000000
vn 0.000000 1.000000 -0.000000
vn 0.000000 1.000000 -0.000000
vn 0.000000 1.000000 0.000000
vn 0.000000 1.000000 0.000000
vn 0.000000 1.000000 0.000000
vn 0.000000 1.000000 0.000000
vn -0.999909 0.000001 -0.013471
vn -0.999909 0.000001 -0.013471
vn -0.999909 0.000001 -0.013471
vn -0.999909 0.000001 -0.013471
vn 0.013386 -0.126534 -0.991872
vn 0.013386 -0.126534 -0.991872
vn 0.013386 -0.126534 -0.991872
vn 0.013386 -0.126534 -0.991872
vn 0.999909 -0.000004 0.013466
vn 0.999909 -0.000004 0.013466
vn 0.999909 -0.000004 0.013466
vn 0.999909 -0.000004 0.013466
vn -0.013380 0.126546 0.991871
vn -0.013380 0.126546 0.991871
vn -0.013380 0.126546 0.991871
vn -0.013380 0.126546 0.991871
vn 0.001707 0.991960 -0.126538
vn 0.001707 0.991960 -0.126538
vn 0.001707 0.991960 -0.126538
vn 0.001707 0.991960 -0.126538
vn -0.001707 -0.991961 0.126534
vn -0.001707 -0.991961 0.126534
vn -0.001707 -0.991961 0.126534
vn -0.001707 -0.991961 0.126534
vn -0.013407 0.126547 0.991870
vn -0.013407 0.126547 0.991870
vn -0.013407 0.126547 0.991870
vn -0.013407 0.126547 0.991870
vn -0.013381 0.126547 0.991870
vn -0.013381 0.126547 0.991870
vn -0.013381 0.126547 0.991870
vn -0.013381 0.126547 0.991870
vn -0.013370 0.126549 0.991870
vn -0.013370 0.126549 0.991870
vn -0.013370 0.126549 0.991870
vn -0.013370 0.126549 0.991870
vn -0.013380 0.126593 0.991865
vn -0.013380 0.126593 0.991865
vn -0.013380 0.126593 0.991865
vn -0.013380 0.126593 0.991865
vn 0.013378 -0.126546 -0.991871
vn 0.013378 -0.126546 -0.991871
vn 0.013378 -0.126546 -0.991871
vn 0.013378 -0.126546 -0.991871
vn 0.013382 -0.126548 -0.991870
vn 0.013382 -0.126548 -0.991870
vn 0.013382 -0.126548 -0.991870
vn 0.013382 -0.126548 -0.991870
vn 0.013380 -0.126544 -0.991871
vn 0.013380 -0.126544 -0.991871
vn 0.013380 -0.126544 -0.991871
vn 0.013380 -0.126544 -0.991871
vn 0.013380 -0.126551 -0.991870
vn 0.013380 -0.126551 -0.991870
vn 0.013380 -0.126551 -0.991870
vn 0.013380 -0.126551 -0.991870
s off
f 1/23/1 2/2/2 4/22/3 3/17/4
f 3/3/5 4/6/6 6/15/7 5/18/8
f 5/5/9 6/16/10 8/8/11 7/20/12
f 7/7/13 8/19/14 2/10/15 1/9/16
f 10/25/17 9/33/18 11/38/19 12/37/20
f 7/13/21 1/1/22 3/24/23 5/14/24
f 2/21/25 8/36/26 9/33/27 10/25/28
f 8/11/29 6/34/30 11/32/31 9/26/32
f 14/39/33 13/46/34 15/45/35 16/44/36
f 4/4/37 2/35/38 10/29/39 12/28/40
f 6/12/41 4/31/42 13/40/43 14/43/44
f 4/31/45 12/30/46 15/41/47 13/40/48
f 12/30/49 11/27/50 16/42/51 15/41/52
f 11/27/53 6/12/54 14/43/55 16/42/56
f 17/47/57 18/48/58 20/49/59 19/50/60
f 29/79/61 30/86/62 31/85/63 32/84/64
f 21/55/65 22/56/66 24/57/67 23/58/68
f 25/59/69 26/60/70 27/61/71 28/62/72
f 18/63/73 24/64/74 22/65/75 20/66/76
f 23/67/77 17/68/78 19/69/79 21/70/80
f 23/71/81 24/72/82 26/73/83 25/74/84
f 24/72/85 18/75/86 27/76/87 26/73/88
f 18/75/89 17/77/90 28/78/91 27/76/92
f 17/77/93 23/71/94 25/74/95 28/78/96
f 19/51/97 20/52/98 30/80/99 29/83/100
f 20/52/101 22/53/102 31/81/103 30/80/104
f 22/53/105 21/54/106 32/82/107 31/81/108
f 21/54/109 19/51/110 29/83/111 32/82/112
