# This file uses meters as units for non-parametric coordinates.

v -0.338204 0.000000 -0.338204
v -0.338204 0.000000 0.338204
v 0.338204 0.000000 -0.338204
v 0.338204 0.000000 0.338204
v 0.338204 0.096954 -0.338204
v -0.338204 0.096954 -0.338204
v -0.338204 0.096954 0.338204
v 0.338204 0.096954 0.338204
v -0.054795 0.096954 -0.138070
v -0.054795 0.096954 -0.061791
v -0.054795 0.814871 -0.061791
v -0.054795 0.814871 -0.138070
v 0.054795 0.814871 -0.061791
v 0.054795 0.814871 -0.138070
v 0.054795 0.096954 -0.061791
v 0.054795 0.096954 -0.138070
v -0.635744 0.337625 -0.065721
v -0.635744 0.337625 0.044223
v -0.635744 1.110837 -0.065721
v -0.635744 1.110837 0.044223
v 0.635744 1.110837 -0.065721
v 0.635744 1.110837 0.044223
v 0.635744 0.337625 -0.065721
v 0.635744 0.337625 0.044223
v 0.580576 0.399106 0.044223
v -0.580576 0.399106 0.044223
v 0.580576 1.049356 0.044223
v -0.580576 1.049356 0.044223
vt 0.293986 0.474598
vt 0.269450 0.474598
vt 0.327722 0.474598
vt 0.293986 0.474598
vt 0.269450 0.474598
vt 0.327722 0.474598
vt 0.231624 0.474598
vt 0.269450 0.474598
vt 0.231624 0.474598
vt 0.231624 0.474598
vt 0.293986 0.474598
vt 0.293986 0.474598
vt 0.293986 0.474598
vt 0.293986 0.474598
vt 0.327722 0.474598
vt 0.269450 0.474598
vt 0.269450 0.474598
vt 0.327722 0.474598
vt 0.231624 0.474598
vt 0.269450 0.474598
vt 0.293986 0.474598
vt 0.269450 0.474598
vt 0.269450 0.474598
vt 0.293986 0.474598
vt 0.293986 0.474598
vt 0.269450 0.474598
vt 0.293986 0.474598
vt 0.269450 0.474598
vt 0.269450 0.474598
vt 0.293986 0.474598
vt 0.269450 0.474598
vt 0.293985 0.474598
vt 0.269450 0.474598
vt 0.269450 0.474598
vt 0.269450 0.474598
vt 0.269450 0.474598
vt 0.293986 0.474598
vt 0.293985 0.474598
vt 0.293986 0.474598
vt 0.293986 0.474598
vt 0.335385 0.473690
vt 0.335385 0.473690
vt 0.335385 0.473690
vt 0.335385 0.473690
vt 0.335385 0.473690
vt 0.335385 0.473690
vt 0.335385 0.473690
vt 0.335385 0.473690
vt 0.269450 0.474598
vt 0.269450 0.474598
vt 0.269450 0.474598
vt 0.269450 0.474598
vt 0.327722 0.474598
vt 0.327722 0.474598
vt 0.327722 0.474598
vt 0.327722 0.474598
vt 0.269450 0.474598
vt 0.269450 0.474598
vt 0.269450 0.474598
vt 0.269450 0.474598
vt 0.231624 0.474598
vt 0.231624 0.474598
vt 0.231624 0.474598
vt 0.231624 0.474598
vt 0.018250 0.519162
vt 0.018250 0.519162
vt 0.018250 0.519162
vt 0.018250 0.519162
vt 0.293986 0.474598
vt 0.293986 0.474598
vt 0.293986 0.474598
vt 0.293986 0.474598
vt 0.293986 0.474598
vt 0.293986 0.474598
vt 0.293986 0.474598
vt 0.293986 0.474598
vt 0.293986 0.474598
vt 0.293986 0.474598
vt 0.293986 0.474598
vt 0.293986 0.474598
vt 0.293986 0.474598
vt 0.293986 0.474598
vt 0.293986 0.474598
vt 0.293986 0.474598
vt 0.293986 0.474598
vt 0.293986 0.474598
vt 0.293986 0.474598
vt 0.293986 0.474598
vt 0.335385 0.473690
vt 0.335385 0.473690
vt 0.335385 0.473690
vt 0.335385 0.473690
vt 0.335385 0.473690
vt 0.335385 0.473690
vt 0.335385 0.473690
vt 0.335385 0.473690
vn -1.000000 0.000000 0.000000
vn -1.000000 0.000000 0.000000
vn -1.000000 0.000000 0.000000
vn -1.000000 0.000000 0.000000
vn 0.000000 1.000000 0.000000
vn 0.000000 1.000000 0.000000
vn 0.000000 1.000000 0.000000
vn 0.000000 1.000000 0.000000
vn 1.000000 0.000000 0.000000
vn 1.000000 0.000000 0.000000
vn 1.000000 0.000000 0.000000
vn 1.000000 0.000000 0.000000
vn 0.000000 -1.000000 0.000000
vn 0.000000 -1.000000 0.000000
vn 0.000000 -1.000000 0.000000
vn 0.000000 -1.000000 0.000000
vn 0.000000 0.000000 1.000000
vn 0.000000 0.000000 1.000000
vn 0.000000 0.000000 1.000000
vn 0.000000 0.000000 1.000000
vn -0.000000 0.000000 -1.000000
vn -0.000000 0.000000 -1.000000
vn -0.000000 0.000000 -1.000000
vn -0.000000 0.000000 -1.000000
vn 0.000000 0.000000 -1.000000
vn 0.000000 0.000000 -1.000000
vn 0.000000 0.000000 -1.000000
vn 0.000000 0.000000 -1.000000
vn -1.000000 0.000000 0.000000
vn -1.000000 0.000000 0.000000
vn -1.000000 0.000000 0.000000
vn -1.000000 0.000000 0.000000
vn 0.000000 0.000000 1.000000
vn 0.000000 0.000000 1.000000
vn 0.000000 0.000000 1.000000
vn 0.000000 0.000000 1.000000
vn 1.000000 0.000000 -0.000000
vn 1.000000 0.000000 -0.000000
vn 1.000000 0.000000 -0.000000
vn 1.000000 0.000000 -0.000000
vn 0.000000 1.000000 0.000000
vn 0.000000 1.000000 0.000000
vn 0.000000 1.000000 0.000000
vn 0.000000 1.000000 0.000000
vn 0.000000 1.000000 0.000000
vn 0.000000 1.000000 0.000000
vn 0.000000 1.000000 0.000000
vn 0.000000 1.000000 0.000000
vn 0.000000 1.000000 -0.000000
vn 0.000000 1.000000 -0.000000
vn 0.000000 1.000000 -0.000000
vn 0.000000 1.000000 -0.000000
vn 0.000000 1.000000 0.000000
vn 0.000000 1.000000 0.000000
vn 0.000000 1.000000 0.000000
vn 0.000000 1.000000 0.000000
vn -1.000000 0.000000 0.000001
vn -1.000000 0.000000 0.000001
vn -1.000000 0.000000 0.000001
vn -1.000000 0.000000 0.000001
vn 0.000000 1.000000 0.000000
vn 0.000000 1.000000 0.000000
vn 0.000000 1.000000 0.000000
vn 0.000000 1.000000 0.000000
vn 1.000000 0.000000 0.000000
vn 1.000000 0.000000 0.000000
vn 1.000000 0.000000 0.000000
vn 1.000000 0.000000 0.000000
vn 0.000000 -1.000000 0.000002
vn 0.000000 -1.000000 0.000002
vn 0.000000 -1.000000 0.000002
vn 0.000000 -1.000000 0.000002
vn 0.000000 0.000000 1.000000
vn 0.000000 0.000000 1.000000
vn 0.000000 0.000000 1.000000
vn 0.000000 0.000000 1.000000
vn 0.000000 0.000000 -1.000000
vn 0.000000 0.000000 -1.000000
vn 0.000000 0.000000 -1.000000
vn 0.000000 0.000000 -1.000000
vn 0.000000 0.000000 1.000000
vn 0.000000 0.000000 1.000000
vn 0.000000 0.000000 1.000000
vn 0.000000 0.000000 1.000000
vn -0.000000 0.000000 1.000000
vn -0.000000 0.000000 1.000000
vn -0.000000 0.000000 1.000000
vn -0.000000 0.000000 1.000000
vn 0.000000 0.000000 1.000000
vn 0.000000 0.000000 1.000000
vn 0.000000 0.000000 1.000000
vn 0.000000 0.000000 1.000000
vn 0.000000 0.000000 1.000000
vn 0.000000 0.000000 1.000000
vn 0.000000 0.000000 1.000000
vn 0.000000 0.000000 1.000000
s off
f 9/33/1 10/34/2 11/22/3 12/17/4
f 12/3/5 11/15/6 13/6/7 14/18/8
f 14/5/9 13/16/10 15/35/11 16/36/12
f 3/7/13 4/19/14 2/10/15 1/9/16
f 10/37/17 15/38/18 13/12/19 11/4/20
f 16/39/21 9/40/22 12/24/23 14/14/24
f 3/13/25 1/1/26 6/27/27 5/25/28
f 1/23/29 2/2/30 7/29/31 6/28/32
f 2/21/33 4/11/34 8/32/35 7/30/36
f 5/26/37 8/31/38 4/8/39 3/20/40
f 6/41/41 7/95/42 10/91/43 9/44/44
f 8/45/45 5/93/46 16/89/47 15/48/48
f 7/42/49 8/94/50 15/92/51 10/43/52
f 5/46/53 6/96/54 9/90/55 16/47/56
f 17/49/57 18/50/58 20/51/59 19/52/60
f 19/53/61 20/54/62 22/55/63 21/56/64
f 21/57/65 22/58/66 24/59/67 23/60/68
f 23/61/69 24/62/70 18/63/71 17/64/72
f 26/65/73 25/66/74 27/67/75 28/68/76
f 23/69/77 17/70/78 19/71/79 21/72/80
f 18/73/81 24/88/82 25/85/83 26/76/84
f 24/74/85 22/86/86 27/83/87 25/75/88
f 22/77/89 20/84/90 28/82/91 27/78/92
f 20/79/93 18/87/94 26/81/95 28/80/96
