# This file uses meters as units for non-parametric coordinates.

v -0.101082 0.027868 -0.070966
v -0.101082 0.027868 0.134632
v -0.101082 0.103523 -0.070966
v -0.101082 0.103523 0.134632
v 0.044102 0.103523 -0.070966
v 0.044102 0.103523 0.134632
v 0.044102 0.027868 -0.070966
v 0.044102 0.027868 0.134632
v -0.101082 0.103523 0.011273
v 0.044102 0.103523 0.011273
v -0.101082 0.103523 0.003049
v 0.044102 0.103523 0.003049
v -0.024453 0.103523 -0.070966
v -0.024453 0.103523 0.003049
v -0.032750 0.103523 -0.070966
v -0.032750 0.103523 0.003049
v -0.298883 0.000000 -0.298883
v -0.298883 0.000000 0.298883
v -0.298883 0.027868 -0.298883
v -0.298883 0.027868 0.298883
v 0.298883 0.027868 -0.298883
v 0.298883 0.027868 0.298883
v 0.298883 0.000000 -0.298883
v 0.298883 0.000000 0.298883
vt 0.291508 0.477440
vt 0.266972 0.477440
vt 0.325245 0.477440
vt 0.291508 0.477440
vt 0.266972 0.477440
vt 0.325245 0.477440
vt 0.229146 0.477440
vt 0.266972 0.477440
vt 0.229146 0.477440
vt 0.229146 0.477440
vt 0.291508 0.477440
vt 0.291508 0.477440
vt 0.291508 0.477440
vt 0.291508 0.477440
vt 0.325245 0.477440
vt 0.266972 0.477440
vt 0.266972 0.477440
vt 0.325245 0.477440
vt 0.229146 0.477440
vt 0.266972 0.477440
vt 0.291508 0.477440
vt 0.266972 0.477440
vt 0.266972 0.477440
vt 0.291508 0.477440
vt 0.264874 0.477440
vt 0.266972 0.477440
vt 0.266972 0.477440
vt 0.325245 0.477440
vt 0.264874 0.477440
vt 0.266972 0.477440
vt 0.266972 0.477440
vt 0.325245 0.477440
vt 0.291508 0.477440
vt 0.325245 0.477440
vt 0.264874 0.477440
vt 0.291508 0.477440
vt 0.325245 0.477440
vt 0.264874 0.477440
vt 0.264874 0.477440
vt 0.264874 0.477440
vt 0.325245 0.477440
vt 0.325245 0.477440
vt 0.264874 0.477440
vt 0.264874 0.477440
vt 0.264874 0.477440
vt 0.325245 0.477440
vt 0.264874 0.477440
vt 0.325245 0.477440
vt 0.207360 0.061201
vt 0.207360 0.061201
vt 0.207360 0.061201
vt 0.207360 0.061201
vt 0.265633 0.061201
vt 0.265633 0.061201
vt 0.265633 0.061201
vt 0.265633 0.061201
vt 0.207360 0.061201
vt 0.207360 0.061201
vt 0.207360 0.061201
vt 0.207360 0.061201
vt 0.169534 0.061201
vt 0.169534 0.061201
vt 0.169534 0.061201
vt 0.169534 0.061201
vt 0.231896 0.061201
vt 0.231896 0.061201
vt 0.231896 0.061201
vt 0.231896 0.061201
vt 0.231896 0.061201
vt 0.231896 0.061201
vt 0.231896 0.061201
vt 0.231896 0.061201
vn -1.000000 0.000000 -0.000000
vn -1.000000 0.000000 -0.000000
vn -1.000000 0.000000 -0.000000
vn -1.000000 0.000000 -0.000000
vn -1.000000 0.000000 -0.000000
vn -1.000000 0.000000 -0.000000
vn 0.000000 1.000000 0.000000
vn 0.000000 1.000000 0.000000
vn 0.000000 1.000000 0.000000
vn 0.000000 1.000000 0.000000
vn 1.000000 0.000000 0.000000
vn 1.000000 0.000000 0.000000
vn 1.000000 0.000000 0.000000
vn 1.000000 0.000000 0.000000
vn 1.000000 0.000000 0.000000
vn 1.000000 0.000000 0.000000
vn 0.000000 -1.000000 -0.000000
vn 0.000000 -1.000000 -0.000000
vn 0.000000 -1.000000 -0.000000
vn 0.000000 -1.000000 -0.000000
vn 0.000000 0.000000 1.000000
vn 0.000000 0.000000 1.000000
vn 0.000000 0.000000 1.000000
vn 0.000000 0.000000 1.000000
vn 0.000000 0.000000 -1.000000
vn 0.000000 0.000000 -1.000000
vn 0.000000 0.000000 -1.000000
vn 0.000000 0.000000 -1.000000
vn 0.000000 0.000000 -1.000000
vn 0.000000 0.000000 -1.000000
vn 0.000000 1.000000 0.000000
vn 0.000000 1.000000 0.000000
vn 0.000000 1.000000 0.000000
vn 0.000000 1.000000 0.000000
vn 0.000000 1.000000 0.000000
vn 0.000000 1.000000 0.000000
vn 0.000000 1.000000 0.000000
vn 0.000000 1.000000 0.000000
vn 0.000000 1.000000 0.000000
vn 0.000000 1.000000 0.000000
vn 0.000000 1.000000 -0.000000
vn 0.000000 1.000000 0.000000
vn 0.000000 1.000000 0.000000
vn 0.000000 1.000000 0.000000
vn 0.000000 1.000000 -0.000000
vn 0.000000 1.000000 0.000000
vn 0.000000 1.000000 0.000000
vn 0.000000 1.000000 -0.000000
vn -1.000000 0.000000 0.000000
vn -1.000000 0.000000 0.000000
vn -1.000000 0.000000 0.000000
vn -1.000000 0.000000 0.000000
vn 0.000000 1.000000 0.000000
vn 0.000000 1.000000 0.000000
vn 0.000000 1.000000 0.000000
vn 0.000000 1.000000 0.000000
vn 1.000000 0.000000 0.000000
vn 1.000000 0.000000 0.000000
vn 1.000000 0.000000 0.000000
vn 1.000000 0.000000 0.000000
vn 0.000000 -1.000000 0.000000
vn 0.000000 -1.000000 0.000000
vn 0.000000 -1.000000 0.000000
vn 0.000000 -1.000000 0.000000
vn 0.000000 0.000000 1.000000
vn 0.000000 0.000000 1.000000
vn 0.000000 0.000000 1.000000
vn 0.000000 0.000000 1.000000
vn 0.000000 0.000000 -1.000000
vn 0.000000 0.000000 -1.000000
vn 0.000000 0.000000 -1.000000
vn 0.000000 0.000000 -1.000000
s off
f 1/23/1 2/2/2 4/22/3 9/26/4 11/30/5 3/17/6
f 13/34/7 14/42/8 12/32/9 5/18/10
f 5/5/11 12/31/12 10/27/13 6/16/14 8/8/15 7/20/16
f 7/7/17 8/19/18 2/10/19 1/9/20
f 2/21/21 8/11/22 6/12/23 4/4/24
f 7/13/25 1/1/26 3/24/27 15/36/28 13/33/29 5/14/30
f 10/28/31 9/48/32 4/15/33 6/6/34
f 12/45/35 14/43/36 16/40/37 11/29/38 9/25/39 10/47/40
f 15/39/41 16/38/42 14/35/43 13/44/44
f 3/3/45 11/46/46 16/41/47 15/37/48
f 17/49/49 18/50/50 20/51/51 19/52/52
f 19/53/53 20/54/54 22/55/55 21/56/56
f 21/57/57 22/58/58 24/59/59 23/60/60
f 23/61/61 24/62/62 18/63/63 17/64/64
f 18/65/65 24/66/66 22/67/67 20/68/68
f 23/69/69 17/70/70 19/71/71 21/72/72
