# This file uses meters as units for non-parametric coordinates.

v -0.338204 0.000000 -0.338204
v -0.338204 0.000000 0.338204
v 0.338204 0.000000 -0.338204
v 0.338204 0.000000 0.338204
v 0.338204 0.096954 -0.338204
v -0.338204 0.096954 -0.338204
v -0.338204 0.096954 0.338204
v 0.338204 0.096954 0.338204
v -0.054795 0.096954 -0.138070
v -0.054795 0.096954 -0.061791
v -0.054795 0.814871 -0.061791
v -0.054795 0.814871 -0.138070
v 0.054795 0.814871 -0.061791
v 0.054795 0.814871 -0.138070
v 0.054795 0.096954 -0.061791
v 0.054795 0.096954 -0.138070
v -0.635744 0.337625 -0.065721
v -0.635744 0.337625 0.044223
v -0.635744 1.110837 -0.065721
v -0.635744 1.110837 0.044223
v 0.635744 1.110837 -0.065721
v 0.635744 1.110837 0.044223
v 0.635744 0.337625 -0.065721
v 0.635744 0.337625 0.044223
v 0.580576 0.399106 0.044223
v -0.580576 0.399106 0.044223
v 0.580576 1.049356 0.044223
v -0.580576 1.049356 0.044223
v 0.430892 0.209868 0.096076
v 0.430364 0.213209 0.104584
v 0.401251 0.397499 0.059959
v 0.401251 0.397499 0.069115
v 0.593831 0.427922 0.059959
v 0.593831 0.427922 0.069115
v 0.623472 0.240290 0.096076
v 0.622944 0.243631 0.104584
v 0.408406 0.352205 0.059959
v 0.408406 0.352205 0.069115
v 0.600986 0.382628 0.069115
v 0.600986 0.382628 0.059959
v -0.280317 0.213567 0.096076
v -0.280151 0.216946 0.104584
v -0.271012 0.403297 0.059959
v -0.271012 0.403297 0.069115
v -0.076278 0.393747 0.059959
v -0.076278 0.393747 0.069115
v -0.085583 0.204017 0.096076
v -0.085417 0.207395 0.104584
v -0.273258 0.357497 0.059959
v -0.273258 0.357497 0.069115
v -0.078524 0.347946 0.069115
v -0.078524 0.347946 0.059959
v -0.626524 0.215942 0.096076
v -0.626338 0.219319 0.104584
v -0.616039 0.405610 0.059959
v -0.616039 0.405610 0.069115
v -0.421368 0.394848 0.059959
v -0.421368 0.394848 0.069115
v -0.431853 0.205180 0.096076
v -0.431667 0.208557 0.104584
v -0.618570 0.359824 0.059959
v -0.618570 0.359824 0.069115
v -0.423899 0.349062 0.069115
v -0.423899 0.349062 0.059959
vt 0.293986 0.474598
vt 0.269450 0.474598
vt 0.327722 0.474598
vt 0.293986 0.474598
vt 0.269450 0.474598
vt 0.327722 0.474598
vt 0.231624 0.474598
vt 0.269450 0.474598
vt 0.231624 0.474598
vt 0.231624 0.474598
vt 0.293986 0.474598
vt 0.293986 0.474598
vt 0.293986 0.474598
vt 0.293986 0.474598
vt 0.327722 0.474598
vt 0.269450 0.474598
vt 0.269450 0.474598
vt 0.327722 0.474598
vt 0.231624 0.474598
vt 0.269450 0.474598
vt 0.293986 0.474598
vt 0.269450 0.474598
vt 0.269450 0.474598
vt 0.293986 0.474598
vt 0.293986 0.474598
vt 0.269450 0.474598
vt 0.293986 0.474598
vt 0.269450 0.474598
vt 0.269450 0.474598
vt 0.293986 0.474598
vt 0.269450 0.474598
vt 0.293985 0.474598
vt 0.269450 0.474598
vt 0.269450 0.474598
vt 0.269450 0.474598
vt 0.269450 0.474598
vt 0.293986 0.474598
vt 0.293985 0.474598
vt 0.293986 0.474598
vt 0.293986 0.474598
vt 0.335385 0.473690
vt 0.335385 0.473690
vt 0.335385 0.473690
vt 0.335385 0.473690
vt 0.335385 0.473690
vt 0.335385 0.473690
vt 0.335385 0.473690
vt 0.335385 0.473690
vt 0.269450 0.474598
vt 0.269450 0.474598
vt 0.269450 0.474598
vt 0.269450 0.474598
vt 0.327722 0.474598
vt 0.327722 0.474598
vt 0.327722 0.474598
vt 0.327722 0.474598
vt 0.269450 0.474598
vt 0.269450 0.474598
vt 0.269450 0.474598
vt 0.269450 0.474598
vt 0.231624 0.474598
vt 0.231624 0.474598
vt 0.231624 0.474598
vt 0.231624 0.474598
vt 0.018250 0.519162
vt 0.018250 0.519162
vt 0.018250 0.519162
vt 0.018250 0.519162
vt 0.293986 0.474598
vt 0.293986 0.474598
vt 0.293986 0.474598
vt 0.293986 0.474598
vt 0.293986 0.474598
vt 0.293986 0.474598
vt 0.293986 0.474598
vt 0.293986 0.474598
vt 0.293986 0.474598
vt 0.293986 0.474598
vt 0.293986 0.474598
vt 0.293986 0.474598
vt 0.293986 0.474598
vt 0.293986 0.474598
vt 0.293986 0.474598
vt 0.293986 0.474598
vt 0.293986 0.474598
vt 0.293986 0.474598
vt 0.293986 0.474598
vt 0.293986 0.474598
vt 0.335385 0.473690
vt 0.335385 0.473690
vt 0.335385 0.473690
vt 0.335385 0.473690
vt 0.335385 0.473690
vt 0.335385 0.473690
vt 0.335385 0.473690
vt 0.335385 0.473690
vt 0.237716 0.153473
vt 0.237716 0.153473
vt 0.237716 0.153473
vt 0.237716 0.153473
vt 0.210360 0.153473
vt 0.210360 0.153473
vt 0.210360 0.153473
vt 0.210360 0.153473
vt 0.237716 0.153473
vt 0.237716 0.153473
vt 0.237716 0.153473
vt 0.237716 0.153473
vt 0.199890 0.153473
vt 0.199890 0.153473
vt 0.199890 0.153473
vt 0.199890 0.153473
vt 0.267473 0.153473
vt 0.267473 0.153473
vt 0.267473 0.153473
vt 0.267473 0.153473
vt 0.289402 0.153473
vt 0.289402 0.153473
vt 0.289402 0.153473
vt 0.289402 0.153473
vt 0.237716 0.153473
vt 0.237716 0.153473
vt 0.237716 0.153473
vt 0.237716 0.153473
vt 0.289402 0.153473
vt 0.289402 0.153473
vt 0.289402 0.153473
vt 0.289402 0.153473
vt 0.237716 0.153473
vt 0.237716 0.153473
vt 0.237716 0.153473
vt 0.237716 0.153473
vt 0.289402 0.153473
vt 0.289402 0.153473
vt 0.289402 0.153473
vt 0.289402 0.153473
vt 0.237716 0.153473
vt 0.237716 0.153473
vt 0.237716 0.153473
vt 0.237716 0.153473
vt 0.210360 0.153473
vt 0.210360 0.153473
vt 0.210360 0.153473
vt 0.210360 0.153473
vt 0.237716 0.153473
vt 0.237716 0.153473
vt 0.237716 0.153473
vt 0.237716 0.153473
vt 0.199890 0.153473
vt 0.199890 0.153473
vt 0.199890 0.153473
vt 0.199890 0.153473
vt 0.267473 0.153473
vt 0.267473 0.153473
vt 0.267473 0.153473
vt 0.267473 0.153473
vt 0.289402 0.153473
vt 0.289402 0.153473
vt 0.289402 0.153473
vt 0.289402 0.153473
vt 0.237716 0.153473
vt 0.237716 0.153473
vt 0.237716 0.153473
vt 0.237716 0.153473
vt 0.289402 0.153473
vt 0.289402 0.153473
vt 0.289402 0.153473
vt 0.289402 0.153473
vt 0.237716 0.153473
vt 0.237716 0.153473
vt 0.237716 0.153473
vt 0.237716 0.153473
vt 0.289402 0.153473
vt 0.289402 0.153473
vt 0.289402 0.153473
vt 0.289402 0.153473
vt 0.237716 0.219511
vt 0.237716 0.219511
vt 0.237716 0.219511
vt 0.237716 0.219511
vt 0.210360 0.219511
vt 0.210360 0.219511
vt 0.210360 0.219511
vt 0.210360 0.219511
vt 0.237716 0.219511
vt 0.237716 0.219511
vt 0.237716 0.219511
vt 0.237716 0.219511
vt 0.199890 0.219511
vt 0.199890 0.219511
vt 0.199890 0.219511
vt 0.199890 0.219511
vt 0.267473 0.219511
vt 0.267473 0.219511
vt 0.267473 0.219511
vt 0.267473 0.219511
vt 0.289402 0.219511
vt 0.289402 0.219511
vt 0.289402 0.219511
vt 0.289402 0.219511
vt 0.237716 0.219511
vt 0.237716 0.219511
vt 0.237716 0.219511
vt 0.237716 0.219511
vt 0.289402 0.219511
vt 0.289402 0.219511
vt 0.289402 0.219511
vt 0.289402 0.219511
vt 0.237716 0.219511
vt 0.237716 0.219511
vt 0.237716 0.219511
vt 0.237716 0.219511
vt 0.289402 0.219511
vt 0.289402 0.219511
vt 0.289402 0.219511
vt 0.289402 0.219511
vn -1.000000 0.000000 0.000000
vn -1.000000 0.000000 0.000000
vn -1.000000 0.000000 0.000000
vn -1.000000 0.000000 0.000000
vn 0.000000 1.000000 0.000000
vn 0.000000 1.000000 0.000000
vn 0.000000 1.000000 0.000000
vn 0.000000 1.000000 0.000000
vn 1.000000 0.000000 0.000000
vn 1.000000 0.000000 0.000000
vn 1.000000 0.000000 0.000000
vn 1.000000 0.000000 0.000000
vn 0.000000 -1.000000 0.000000
vn 0.000000 -1.000000 0.000000
vn 0.000000 -1.000000 0.000000
vn 0.000000 -1.000000 0.000000
vn 0.000000 0.000000 1.000000
vn 0.000000 0.000000 1.000000
vn 0.000000 0.000000 1.000000
vn 0.000000 0.000000 1.000000
vn 0.000000 0.000000 -1.000000
vn 0.000000 0.000000 -1.000000
vn 0.000000 0.000000 -1.000000
vn 0.000000 0.000000 -1.000000
vn -0.000000 0.000000 -1.000000
vn -0.000000 0.000000 -1.000000
vn -0.000000 0.000000 -1.000000
vn -0.000000 0.000000 -1.000000
vn -1.000000 0.000000 0.000000
vn -1.000000 0.000000 0.000000
vn -1.000000 0.000000 0.000000
vn -1.000000 0.000000 0.000000
vn 0.000000 0.000000 1.000000
vn 0.000000 0.000000 1.000000
vn 0.000000 0.000000 1.000000
vn 0.000000 0.000000 1.000000
vn 1.000000 0.000000 0.000000
vn 1.000000 0.000000 0.000000
vn 1.000000 0.000000 0.000000
vn 1.000000 0.000000 0.000000
vn 0.000000 1.000000 0.000000
vn 0.000000 1.000000 0.000000
vn 0.000000 1.000000 0.000000
vn 0.000000 1.000000 0.000000
vn 0.000000 1.000000 0.000000
vn 0.000000 1.000000 0.000000
vn 0.000000 1.000000 0.000000
vn 0.000000 1.000000 0.000000
vn 0.000000 1.000000 -0.000000
vn 0.000000 1.000000 -0.000000
vn 0.000000 1.000000 -0.000000
vn 0.000000 1.000000 -0.000000
vn 0.000000 1.000000 0.000000
vn 0.000000 1.000000 0.000000
vn 0.000000 1.000000 0.000000
vn 0.000000 1.000000 0.000000
vn -1.000000 0.000000 0.000000
vn -1.000000 0.000000 0.000000
vn -1.000000 0.000000 0.000000
vn -1.000000 0.000000 0.000000
vn -0.000000 1.000000 -0.000002
vn -0.000000 1.000000 -0.000002
vn -0.000000 1.000000 -0.000002
vn -0.000000 1.000000 -0.000002
vn 1.000000 0.000000 0.000000
vn 1.000000 0.000000 0.000000
vn 1.000000 0.000000 0.000000
vn 1.000000 0.000000 0.000000
vn 0.000000 -1.000000 0.000002
vn 0.000000 -1.000000 0.000002
vn 0.000000 -1.000000 0.000002
vn 0.000000 -1.000000 0.000002
vn 0.000000 0.000000 1.000000
vn 0.000000 0.000000 1.000000
vn 0.000000 0.000000 1.000000
vn 0.000000 0.000000 1.000000
vn -0.000000 0.000000 -1.000000
vn -0.000000 0.000000 -1.000000
vn -0.000000 0.000000 -1.000000
vn -0.000000 0.000000 -1.000000
vn 0.000000 0.000000 1.000000
vn 0.000000 0.000000 1.000000
vn 0.000000 0.000000 1.000000
vn 0.000000 0.000000 1.000000
vn 0.000000 0.000000 1.000000
vn 0.000000 0.000000 1.000000
vn 0.000000 0.000000 1.000000
vn 0.000000 0.000000 1.000000
vn 0.000000 -0.000000 1.000000
vn 0.000000 -0.000000 1.000000
vn 0.000000 -0.000000 1.000000
vn 0.000000 -0.000000 1.000000
vn 0.000000 0.000000 1.000000
vn 0.000000 0.000000 1.000000
vn 0.000000 0.000000 1.000000
vn 0.000000 0.000000 1.000000
vn -0.987751 -0.156038 0.000011
vn -0.987751 -0.156038 0.000011
vn -0.987751 -0.156039 0.000003
vn -0.987751 -0.156039 0.000003
vn -0.156040 0.987751 0.000004
vn -0.156040 0.987751 0.000004
vn -0.156040 0.987751 0.000004
vn -0.156040 0.987751 0.000004
vn 0.987751 0.156037 0.000000
vn 0.987751 0.156037 0.000000
vn 0.987751 0.156038 -0.000000
vn 0.987751 0.156038 -0.000000
vn 0.145000 -0.917870 0.369445
vn 0.145000 -0.917870 0.369445
vn 0.145000 -0.917870 0.369445
vn 0.145000 -0.917870 0.369445
vn -0.029142 0.184474 0.982405
vn -0.029142 0.184474 0.982405
vn 0.000000 0.000000 1.000000
vn 0.000000 0.000000 1.000000
vn 0.029146 -0.184499 -0.982400
vn 0.029146 -0.184499 -0.982400
vn 0.000000 0.000000 -1.000000
vn 0.000000 0.000000 -1.000000
vn -0.987751 -0.156037 0.000013
vn -0.987751 -0.156037 0.000013
vn -0.987751 -0.156038 0.000011
vn -0.987751 -0.156038 0.000011
vn -0.038138 0.241418 0.969672
vn -0.038138 0.241418 0.969672
vn -0.029142 0.184474 0.982405
vn -0.029142 0.184474 0.982405
vn 0.987751 0.156038 -0.000000
vn 0.987751 0.156038 -0.000000
vn 0.987751 0.156038 -0.000000
vn 0.987751 0.156038 -0.000000
vn 0.037936 -0.240139 -0.969997
vn 0.037936 -0.240139 -0.969997
vn 0.029146 -0.184499 -0.982400
vn 0.029146 -0.184499 -0.982400
vn -0.998800 0.048985 0.000003
vn -0.998800 0.048985 0.000003
vn -0.998800 0.048987 0.000000
vn -0.998800 0.048987 0.000000
vn 0.048984 0.998800 0.000000
vn 0.048984 0.998800 0.000000
vn 0.048984 0.998800 0.000000
vn 0.048984 0.998800 0.000000
vn 0.998799 -0.048987 0.000000
vn 0.998799 -0.048987 0.000000
vn 0.998800 -0.048985 -0.000000
vn 0.998800 -0.048985 -0.000000
vn -0.045518 -0.928137 0.369445
vn -0.045518 -0.928137 0.369445
vn -0.045518 -0.928137 0.369445
vn -0.045518 -0.928137 0.369445
vn 0.009148 0.186538 0.982405
vn 0.009148 0.186538 0.982405
vn 0.000000 0.000000 1.000000
vn 0.000000 0.000000 1.000000
vn -0.009150 -0.186563 -0.982400
vn -0.009150 -0.186563 -0.982400
vn 0.000000 0.000000 -1.000000
vn 0.000000 0.000000 -1.000000
vn -0.998800 0.048984 0.000004
vn -0.998800 0.048984 0.000004
vn -0.998800 0.048985 0.000003
vn -0.998800 0.048985 0.000003
vn 0.011972 0.244118 0.969672
vn 0.011972 0.244118 0.969672
vn 0.009148 0.186538 0.982405
vn 0.009148 0.186538 0.982405
vn 0.998800 -0.048985 -0.000000
vn 0.998800 -0.048985 -0.000000
vn 0.998800 -0.048985 -0.000001
vn 0.998800 -0.048985 -0.000001
vn -0.011909 -0.242825 -0.969997
vn -0.011909 -0.242825 -0.969997
vn -0.009150 -0.186563 -0.982400
vn -0.009150 -0.186563 -0.982400
vn -0.998476 0.055196 -0.000008
vn -0.998476 0.055196 -0.000008
vn -0.998475 0.055197 0.000000
vn -0.998475 0.055197 0.000000
vn 0.055198 0.998475 0.000000
vn 0.055198 0.998475 0.000000
vn 0.055198 0.998475 0.000000
vn 0.055198 0.998475 0.000000
vn 0.998475 -0.055197 0.000000
vn 0.998475 -0.055197 0.000000
vn 0.998476 -0.055197 -0.000002
vn 0.998475 -0.055197 -0.000002
vn -0.051293 -0.927840 0.369436
vn -0.051293 -0.927839 0.369436
vn -0.051293 -0.927839 0.369436
vn -0.051293 -0.927839 0.369436
vn 0.010309 0.186477 0.982405
vn 0.010309 0.186477 0.982405
vn -0.000000 0.000000 1.000000
vn -0.000000 0.000000 1.000000
vn -0.010310 -0.186502 -0.982400
vn -0.010310 -0.186502 -0.982400
vn 0.000000 0.000000 -1.000000
vn 0.000000 0.000000 -1.000000
vn -0.998476 0.055196 -0.000011
vn -0.998476 0.055196 -0.000011
vn -0.998476 0.055196 -0.000008
vn -0.998476 0.055196 -0.000008
vn 0.013491 0.244039 0.969672
vn 0.013491 0.244039 0.969672
vn 0.010309 0.186477 0.982405
vn 0.010309 0.186477 0.982405
vn 0.998475 -0.055197 -0.000002
vn 0.998476 -0.055197 -0.000002
vn 0.998475 -0.055198 -0.000002
vn 0.998475 -0.055198 -0.000002
vn -0.013420 -0.242746 -0.969997
vn -0.013420 -0.242746 -0.969997
vn -0.010310 -0.186502 -0.982400
vn -0.010310 -0.186502 -0.982400
s off
f 9/33/1 10/34/2 11/22/3 12/17/4
f 12/3/5 11/15/6 13/6/7 14/18/8
f 14/5/9 13/16/10 15/35/11 16/36/12
f 3/7/13 4/19/14 2/10/15 1/9/16
f 10/37/17 15/38/18 13/12/19 11/4/20
f 16/39/21 9/40/22 12/24/23 14/14/24
f 3/13/25 1/1/26 6/27/27 5/25/28
f 1/23/29 2/2/30 7/29/31 6/28/32
f 2/21/33 4/11/34 8/32/35 7/30/36
f 5/26/37 8/31/38 4/8/39 3/20/40
f 6/41/41 7/95/42 10/91/43 9/44/44
f 8/45/45 5/93/46 16/89/47 15/48/48
f 7/42/49 8/94/50 15/92/51 10/43/52
f 5/46/53 6/96/54 9/90/55 16/47/56
f 17/49/57 18/50/58 20/51/59 19/52/60
f 19/53/61 20/54/62 22/55/63 21/56/64
f 21/57/65 22/58/66 24/59/67 23/60/68
f 23/61/69 24/62/70 18/63/71 17/64/72
f 26/65/73 25/66/74 27/67/75 28/68/76
f 23/69/77 17/70/78 19/71/79 21/72/80
f 18/73/81 24/88/82 25/85/83 26/76/84
f 24/74/85 22/86/86 27/83/87 25/75/88
f 22/77/89 20/84/90 28/82/91 27/78/92
f 20/79/93 18/87/94 26/81/95 28/80/96
f 37/97/97 38/98/98 32/99/99 31/100/100
f 31/101/101 32/102/102 34/103/103 33/104/104
f 33/105/105 34/106/106 39/107/107 40/108/108
f 35/109/109 36/110/110 30/111/111 29/112/112
f 38/113/113 39/114/114 34/115/115 32/116/116
f 40/117/117 37/118/118 31/119/119 33/120/120
f 29/121/121 30/122/122 38/123/123 37/124/124
f 30/125/125 36/126/126 39/127/127 38/128/128
f 40/129/129 39/130/130 36/131/131 35/132/132
f 35/133/133 29/134/134 37/135/135 40/136/136
f 49/137/137 50/138/138 44/139/139 43/140/140
f 43/141/141 44/142/142 46/143/143 45/144/144
f 45/145/145 46/146/146 51/147/147 52/148/148
f 47/149/149 48/150/150 42/151/151 41/152/152
f 50/153/153 51/154/154 46/155/155 44/156/156
f 52/157/157 49/158/158 43/159/159 45/160/160
f 41/161/161 42/162/162 50/163/163 49/164/164
f 42/165/165 48/166/166 51/167/167 50/168/168
f 52/169/169 51/170/170 48/171/171 47/172/172
f 47/173/173 41/174/174 49/175/175 52/176/176
f 61/177/177 62/178/178 56/179/179 55/180/180
f 55/181/181 56/182/182 58/183/183 57/184/184
f 57/185/185 58/186/186 63/187/187 64/188/188
f 59/189/189 60/190/190 54/191/191 53/192/192
f 62/193/193 63/194/194 58/195/195 56/196/196
f 64/197/197 61/198/198 55/199/199 57/200/200
f 53/201/201 54/202/202 62/203/203 61/204/204
f 54/205/205 60/206/206 63/207/207 62/208/208
f 64/209/209 63/210/210 60/211/211 59/212/212
f 59/213/213 53/214/214 61/215/215 64/216/216
