# This file uses meters as units for non-parametric coordinates.

v -0.323202 0.053763 -0.240017
v -0.331710 0.057133 -0.240343
v -0.287009 0.243044 -0.255852
v -0.296163 0.243044 -0.255898
v -0.287948 0.259479 -0.061581
v -0.297104 0.259479 -0.061625
v -0.324144 0.070197 -0.045744
v -0.332649 0.073567 -0.046070
v -0.287027 0.197352 -0.251987
v -0.296181 0.197352 -0.252029
v -0.297123 0.213786 -0.057760
v -0.287967 0.213786 -0.057716
v -0.322397 0.053216 0.184063
v -0.330906 0.056599 0.184019
v -0.286279 0.243174 0.184238
v -0.295435 0.243174 0.184193
v -0.287223 0.243174 0.379204
v -0.296379 0.243174 0.379158
v -0.323341 0.053216 0.379028
v -0.331847 0.056599 0.378988
v -0.286279 0.197318 0.184238
v -0.295435 0.197318 0.184193
v -0.296379 0.197318 0.379158
v -0.287223 0.197318 0.379204
v -0.228575 0.001697 -0.401297
v -0.232095 0.001697 0.325581
v -0.228575 0.057876 -0.401297
v -0.232095 0.057876 0.325581
v 0.248240 0.057876 -0.398987
v 0.244719 0.057876 0.327890
v 0.248240 0.001697 -0.398987
v 0.244719 0.001697 0.327890
v -0.277941 0.057700 -0.318062
v -0.182318 0.057700 0.402508
v -0.277941 0.065747 -0.318062
v -0.182318 0.065747 0.402508
v 0.194734 0.065747 -0.380789
v 0.290359 0.065747 0.339779
v 0.194734 0.057700 -0.380789
v 0.290359 0.057700 0.339779
v -0.251650 0.065657 -0.385235
v -0.208171 0.065657 0.340351
v -0.251650 0.074170 -0.385235
v -0.208171 0.074170 0.340351
v 0.224316 0.074170 -0.413755
v 0.267797 0.074170 0.311831
v 0.224316 0.065657 -0.413755
v 0.267797 0.065657 0.311831
v -0.270764 0.028843 0.397194
v -0.286859 0.028843 0.397116
v -0.270764 0.217874 0.397194
v -0.286859 0.217874 0.397116
v -0.270863 0.217874 0.417648
v -0.286958 0.217874 0.417566
v -0.270863 0.028843 0.417648
v -0.286958 0.028843 0.417566
v -0.269430 0.028843 0.121952
v -0.285526 0.028843 0.121874
v -0.269430 0.217874 0.121952
v -0.285526 0.217874 0.121874
v -0.269531 0.217874 0.142405
v -0.285625 0.217874 0.142324
v -0.269531 0.028843 0.142405
v -0.285625 0.028843 0.142324
v -0.268110 0.028843 -0.151237
v -0.284201 0.028843 -0.151316
v -0.268110 0.217874 -0.151237
v -0.284201 0.217874 -0.151316
v -0.268208 0.217874 -0.130787
v -0.284300 0.217874 -0.130861
v -0.268208 0.028843 -0.130787
v -0.284300 0.028843 -0.130861
v -0.280191 0.028843 -0.426744
v -0.280270 0.028843 -0.410444
v -0.280191 0.217874 -0.426744
v -0.280270 0.217874 -0.410444
v -0.259738 0.217874 -0.426645
v -0.259816 0.217874 -0.410347
v -0.259738 0.028843 -0.426645
v -0.259816 0.028843 -0.410347
v -0.007002 0.028843 -0.425423
v -0.007082 0.028843 -0.409122
v -0.007002 0.217874 -0.425423
v -0.007082 0.217874 -0.409122
v 0.013450 0.217874 -0.425323
v 0.013371 0.217874 -0.409023
v 0.013450 0.028843 -0.425323
v 0.013371 0.028843 -0.409023
v 0.268239 0.028843 -0.424089
v 0.268160 0.028843 -0.407789
v 0.268239 0.217874 -0.424089
v 0.268160 0.217874 -0.407789
v 0.288692 0.217874 -0.423990
v 0.288612 0.217874 -0.407690
v 0.288692 0.028843 -0.423990
v 0.288612 0.028843 -0.407690
v 0.284999 0.028843 0.399883
v 0.269176 0.028843 0.399807
v 0.284999 0.217874 0.399883
v 0.269176 0.217874 0.399807
v 0.284900 0.217874 0.420340
v 0.269077 0.217874 0.420263
v 0.284900 0.028843 0.420340
v 0.269077 0.028843 0.420263
v 0.286332 0.028843 0.124643
v 0.270509 0.028843 0.124567
v 0.286332 0.217874 0.124643
v 0.270509 0.217874 0.124567
v 0.286232 0.217874 0.145096
v 0.270408 0.217874 0.145020
v 0.286232 0.028843 0.145096
v 0.270408 0.028843 0.145020
v 0.287653 0.028843 -0.148546
v 0.271830 0.028843 -0.148623
v 0.287653 0.217874 -0.148546
v 0.271830 0.217874 -0.148623
v 0.287554 0.217874 -0.128096
v 0.271731 0.217874 -0.128170
v 0.287554 0.028843 -0.128096
v 0.271731 0.028843 -0.128170
v -0.285189 0.215692 -0.431351
v -0.289345 0.215692 0.426748
v -0.285189 0.245765 -0.431351
v -0.289345 0.245765 0.426748
v 0.291681 0.245765 -0.428558
v 0.287524 0.245765 0.429541
v 0.291681 0.215692 -0.428558
v 0.287524 0.215692 0.429541
v -0.263730 0.245765 -0.406218
v -0.267764 0.245765 0.426851
v 0.265944 0.245765 0.429441
v 0.269976 0.245765 -0.403635
v 0.269976 0.215692 -0.403635
v 0.265944 0.215692 0.429441
v -0.267764 0.215692 0.426851
v -0.263729 0.215692 -0.406218
v -0.285446 0.000000 -0.432888
v -0.289609 0.000000 0.426748
v -0.285446 0.031013 -0.432888
v -0.289609 0.031013 0.426748
v 0.291952 0.031013 -0.430092
v 0.287788 0.031013 0.429543
v 0.291952 0.000000 -0.430092
v 0.287788 0.000000 0.429543
vt 0.237716 0.153473
vt 0.237716 0.153473
vt 0.237716 0.153473
vt 0.237716 0.153473
vt 0.210360 0.153473
vt 0.210360 0.153473
vt 0.210360 0.153473
vt 0.210360 0.153473
vt 0.237716 0.153473
vt 0.237716 0.153473
vt 0.237716 0.153473
vt 0.237716 0.153473
vt 0.199890 0.153473
vt 0.199890 0.153473
vt 0.199890 0.153473
vt 0.199890 0.153473
vt 0.267473 0.153473
vt 0.267473 0.153473
vt 0.267473 0.153473
vt 0.267473 0.153473
vt 0.289402 0.153473
vt 0.289402 0.153473
vt 0.289402 0.153473
vt 0.289402 0.153473
vt 0.237716 0.153473
vt 0.237716 0.153473
vt 0.237716 0.153473
vt 0.237716 0.153473
vt 0.289402 0.153473
vt 0.289402 0.153473
vt 0.289402 0.153473
vt 0.289402 0.153473
vt 0.237716 0.153473
vt 0.237716 0.153473
vt 0.237716 0.153473
vt 0.237716 0.153473
vt 0.289402 0.153473
vt 0.289402 0.153473
vt 0.289402 0.153473
vt 0.289402 0.153473
vt 0.237716 0.219511
vt 0.237716 0.219511
vt 0.237716 0.219511
vt 0.237716 0.219511
vt 0.210360 0.219511
vt 0.210360 0.219511
vt 0.210360 0.219511
vt 0.210360 0.219511
vt 0.237716 0.219511
vt 0.237716 0.219511
vt 0.237716 0.219511
vt 0.237716 0.219511
vt 0.199890 0.219511
vt 0.199890 0.219511
vt 0.199890 0.219511
vt 0.199890 0.219511
vt 0.267473 0.219511
vt 0.267473 0.219511
vt 0.267473 0.219511
vt 0.267473 0.219511
vt 0.289402 0.219511
vt 0.289402 0.219511
vt 0.289402 0.219511
vt 0.289402 0.219511
vt 0.237716 0.219511
vt 0.237716 0.219511
vt 0.237716 0.219511
vt 0.237716 0.219511
vt 0.289402 0.219511
vt 0.289402 0.219511
vt 0.289402 0.219511
vt 0.289402 0.219511
vt 0.237716 0.219511
vt 0.237716 0.219511
vt 0.237716 0.219511
vt 0.237716 0.219511
vt 0.289402 0.219511
vt 0.289402 0.219511
vt 0.289402 0.219511
vt 0.289402 0.219511
vt 0.329681 0.444187
vt 0.329681 0.444187
vt 0.329681 0.444187
vt 0.329681 0.444187
vt 0.387954 0.444187
vt 0.387954 0.444187
vt 0.387954 0.444187
vt 0.387954 0.444187
vt 0.329681 0.444187
vt 0.329681 0.444187
vt 0.329681 0.444187
vt 0.329681 0.444187
vt 0.291855 0.444187
vt 0.291855 0.444187
vt 0.291855 0.444187
vt 0.291855 0.444187
vt 0.354217 0.444187
vt 0.354217 0.444187
vt 0.354217 0.444187
vt 0.354217 0.444187
vt 0.354217 0.444187
vt 0.354217 0.444187
vt 0.354217 0.444187
vt 0.354217 0.444187
vt 0.329681 0.013036
vt 0.329681 0.013036
vt 0.329681 0.013036
vt 0.329681 0.013036
vt 0.387954 0.013036
vt 0.387954 0.013036
vt 0.387954 0.013036
vt 0.387954 0.013036
vt 0.329681 0.013036
vt 0.329681 0.013036
vt 0.329681 0.013036
vt 0.329681 0.013036
vt 0.291855 0.013036
vt 0.291855 0.013036
vt 0.291855 0.013036
vt 0.291855 0.013036
vt 0.354217 0.013036
vt 0.354217 0.013036
vt 0.354217 0.013036
vt 0.354217 0.013036
vt 0.354217 0.013036
vt 0.354217 0.013036
vt 0.354217 0.013036
vt 0.354217 0.013036
vt 0.322801 0.132291
vt 0.322801 0.132291
vt 0.322801 0.132291
vt 0.322801 0.132291
vt 0.381074 0.132291
vt 0.381074 0.132291
vt 0.381074 0.132291
vt 0.381074 0.132291
vt 0.322801 0.132291
vt 0.322801 0.132291
vt 0.322801 0.132291
vt 0.322801 0.132291
vt 0.284975 0.132291
vt 0.284975 0.132291
vt 0.284975 0.132290
vt 0.284975 0.132290
vt 0.347337 0.132291
vt 0.347337 0.132291
vt 0.347337 0.132291
vt 0.347337 0.132291
vt 0.347337 0.132291
vt 0.347337 0.132291
vt 0.347337 0.132291
vt 0.347337 0.132291
vt 0.174051 0.063336
vt 0.174051 0.063336
vt 0.174051 0.063336
vt 0.174051 0.063336
vt 0.232324 0.063336
vt 0.232324 0.063336
vt 0.232324 0.063336
vt 0.232324 0.063336
vt 0.174051 0.063336
vt 0.174051 0.063336
vt 0.174051 0.063336
vt 0.174051 0.063336
vt 0.136225 0.063336
vt 0.136225 0.063336
vt 0.136225 0.063336
vt 0.136225 0.063336
vt 0.198587 0.063336
vt 0.198587 0.063336
vt 0.198587 0.063336
vt 0.198587 0.063336
vt 0.198587 0.063336
vt 0.198587 0.063336
vt 0.198587 0.063336
vt 0.198587 0.063336
vt 0.174051 0.063336
vt 0.174051 0.063336
vt 0.174051 0.063336
vt 0.174051 0.063336
vt 0.232324 0.063336
vt 0.232324 0.063336
vt 0.232324 0.063336
vt 0.232324 0.063336
vt 0.174051 0.063336
vt 0.174051 0.063336
vt 0.174051 0.063336
vt 0.174051 0.063336
vt 0.136225 0.063336
vt 0.136225 0.063336
vt 0.136225 0.063336
vt 0.136225 0.063336
vt 0.198587 0.063336
vt 0.198587 0.063336
vt 0.198587 0.063336
vt 0.198587 0.063336
vt 0.198587 0.063336
vt 0.198587 0.063336
vt 0.198587 0.063336
vt 0.198587 0.063336
vt 0.174051 0.063336
vt 0.174051 0.063336
vt 0.174051 0.063336
vt 0.174051 0.063336
vt 0.232324 0.063336
vt 0.232324 0.063336
vt 0.232324 0.063336
vt 0.232324 0.063336
vt 0.174051 0.063336
vt 0.174051 0.063336
vt 0.174051 0.063336
vt 0.174051 0.063336
vt 0.136225 0.063336
vt 0.136225 0.063336
vt 0.136225 0.063336
vt 0.136225 0.063336
vt 0.198587 0.063336
vt 0.198587 0.063336
vt 0.198587 0.063336
vt 0.198587 0.063336
vt 0.198587 0.063336
vt 0.198587 0.063336
vt 0.198587 0.063336
vt 0.198587 0.063336
vt 0.174051 0.063336
vt 0.174051 0.063336
vt 0.174051 0.063336
vt 0.174051 0.063336
vt 0.232324 0.063336
vt 0.232324 0.063336
vt 0.232324 0.063336
vt 0.232324 0.063336
vt 0.174051 0.063336
vt 0.174051 0.063336
vt 0.174051 0.063336
vt 0.174051 0.063336
vt 0.136225 0.063336
vt 0.136225 0.063336
vt 0.136225 0.063336
vt 0.136225 0.063336
vt 0.198587 0.063336
vt 0.198587 0.063336
vt 0.198587 0.063336
vt 0.198587 0.063336
vt 0.198587 0.063336
vt 0.198587 0.063336
vt 0.198587 0.063336
vt 0.198587 0.063336
vt 0.174051 0.063336
vt 0.174051 0.063336
vt 0.174051 0.063336
vt 0.174051 0.063336
vt 0.232324 0.063336
vt 0.232324 0.063336
vt 0.232324 0.063336
vt 0.232324 0.063336
vt 0.174051 0.063336
vt 0.174051 0.063336
vt 0.174051 0.063336
vt 0.174051 0.063336
vt 0.136225 0.063336
vt 0.136225 0.063336
vt 0.136225 0.063336
vt 0.136225 0.063336
vt 0.198587 0.063336
vt 0.198587 0.063336
vt 0.198587 0.063336
vt 0.198587 0.063336
vt 0.198587 0.063336
vt 0.198587 0.063336
vt 0.198587 0.063336
vt 0.198587 0.063336
vt 0.174051 0.063336
vt 0.174051 0.063336
vt 0.174051 0.063336
vt 0.174051 0.063336
vt 0.232324 0.063336
vt 0.232324 0.063336
vt 0.232324 0.063336
vt 0.232324 0.063336
vt 0.174051 0.063336
vt 0.174051 0.063336
vt 0.174051 0.063336
vt 0.174051 0.063336
vt 0.136225 0.063336
vt 0.136225 0.063336
vt 0.136225 0.063336
vt 0.136225 0.063336
vt 0.198587 0.063336
vt 0.198587 0.063336
vt 0.198587 0.063336
vt 0.198587 0.063336
vt 0.198587 0.063336
vt 0.198587 0.063336
vt 0.198587 0.063336
vt 0.198587 0.063336
vt 0.174051 0.063336
vt 0.174051 0.063336
vt 0.174051 0.063336
vt 0.174051 0.063336
vt 0.232324 0.063336
vt 0.232324 0.063336
vt 0.232324 0.063336
vt 0.232324 0.063336
vt 0.174051 0.063336
vt 0.174051 0.063336
vt 0.174051 0.063336
vt 0.174051 0.063336
vt 0.136225 0.063336
vt 0.136225 0.063336
vt 0.136225 0.063336
vt 0.136225 0.063336
vt 0.198587 0.063336
vt 0.198587 0.063336
vt 0.198587 0.063336
vt 0.198587 0.063336
vt 0.198587 0.063336
vt 0.198587 0.063336
vt 0.198587 0.063336
vt 0.198587 0.063336
vt 0.174051 0.063336
vt 0.174051 0.063336
vt 0.174051 0.063336
vt 0.174051 0.063336
vt 0.232324 0.063336
vt 0.232324 0.063336
vt 0.232324 0.063336
vt 0.232324 0.063336
vt 0.174051 0.063336
vt 0.174051 0.063336
vt 0.174051 0.063336
vt 0.174051 0.063336
vt 0.136225 0.063336
vt 0.136225 0.063336
vt 0.136225 0.063336
vt 0.136225 0.063336
vt 0.198587 0.063336
vt 0.198587 0.063336
vt 0.198587 0.063336
vt 0.198587 0.063336
vt 0.198587 0.063336
vt 0.198587 0.063336
vt 0.198587 0.063336
vt 0.198587 0.063336
vt 0.174051 0.063336
vt 0.174051 0.063336
vt 0.174051 0.063336
vt 0.174051 0.063336
vt 0.232324 0.063336
vt 0.232324 0.063336
vt 0.232324 0.063336
vt 0.232324 0.063336
vt 0.174051 0.063336
vt 0.174051 0.063336
vt 0.174051 0.063336
vt 0.174051 0.063336
vt 0.136225 0.063336
vt 0.136225 0.063336
vt 0.136225 0.063336
vt 0.136225 0.063336
vt 0.198587 0.063336
vt 0.198587 0.063336
vt 0.198587 0.063336
vt 0.198587 0.063336
vt 0.198587 0.063336
vt 0.198587 0.063336
vt 0.198587 0.063336
vt 0.198587 0.063336
vt 0.210654 0.061597
vt 0.210654 0.061597
vt 0.210654 0.061597
vt 0.210654 0.061597
vt 0.210654 0.061597
vt 0.210654 0.061597
vt 0.210654 0.061597
vt 0.210654 0.061597
vt 0.235190 0.061597
vt 0.235190 0.061597
vt 0.235190 0.061597
vt 0.235190 0.061597
vt 0.268927 0.061597
vt 0.268927 0.061597
vt 0.268927 0.061597
vt 0.268927 0.061597
vt 0.268927 0.061597
vt 0.268927 0.061597
vt 0.268927 0.061597
vt 0.268927 0.061597
vt 0.268927 0.061597
vt 0.268927 0.061597
vt 0.268927 0.061597
vt 0.268927 0.061597
vt 0.172828 0.061597
vt 0.172828 0.061597
vt 0.172828 0.061597
vt 0.172828 0.061597
vt 0.172828 0.061597
vt 0.172828 0.061597
vt 0.172828 0.061597
vt 0.172828 0.061597
vt 0.172828 0.061597
vt 0.172828 0.061597
vt 0.172828 0.061597
vt 0.172828 0.061597
vt 0.143872 0.059796
vt 0.143872 0.059796
vt 0.143872 0.059796
vt 0.143872 0.059796
vt 0.142685 0.058884
vt 0.142685 0.058884
vt 0.142685 0.058884
vt 0.142685 0.058884
vt 0.142685 0.058884
vt 0.142685 0.058884
vt 0.142685 0.058884
vt 0.142685 0.058884
vt 0.237297 0.060991
vt 0.237297 0.060991
vt 0.237297 0.060991
vt 0.237297 0.060991
vt 0.237297 0.060991
vt 0.237297 0.060991
vt 0.237297 0.060991
vt 0.237297 0.060991
vt 0.207382 0.060654
vt 0.207382 0.060654
vt 0.207382 0.060654
vt 0.207382 0.060654
vt 0.265654 0.060654
vt 0.265654 0.060654
vt 0.265654 0.060654
vt 0.265654 0.060654
vt 0.207382 0.060654
vt 0.207382 0.060654
vt 0.207382 0.060654
vt 0.207382 0.060654
vt 0.169555 0.060654
vt 0.169555 0.060654
vt 0.169555 0.060654
vt 0.169555 0.060654
vt 0.231917 0.060654
vt 0.231917 0.060654
vt 0.231917 0.060654
vt 0.231917 0.060654
vt 0.231917 0.060654
vt 0.231917 0.060654
vt 0.231917 0.060654
vt 0.231917 0.060654
vn 0.004716 -0.084263 -0.996432
vn 0.004711 -0.084259 -0.996433
vn 0.004774 -0.084313 -0.996428
vn 0.004774 -0.084313 -0.996428
vn 0.000413 0.996441 -0.084292
vn 0.000413 0.996441 -0.084292
vn 0.000413 0.996441 -0.084292
vn 0.000413 0.996441 -0.084292
vn -0.004774 0.084271 0.996431
vn -0.004774 0.084271 0.996431
vn -0.004788 0.084285 0.996430
vn -0.004787 0.084284 0.996430
vn -0.369808 -0.925950 0.076540
vn -0.369808 -0.925950 0.076540
vn -0.369808 -0.925950 0.076540
vn -0.369808 -0.925950 0.076540
vn -0.982317 0.186100 -0.020500
vn -0.982317 0.186101 -0.020500
vn -0.999988 -0.000012 -0.004846
vn -0.999988 -0.000012 -0.004846
vn 0.982313 -0.186124 0.020501
vn 0.982312 -0.186125 0.020501
vn 0.999988 0.000009 0.004837
vn 0.999988 0.000009 0.004837
vn 0.004694 -0.084243 -0.996434
vn 0.004694 -0.084243 -0.996434
vn 0.004711 -0.084259 -0.996433
vn 0.004716 -0.084263 -0.996432
vn -0.969558 0.243551 -0.025297
vn -0.969558 0.243551 -0.025297
vn -0.982317 0.186101 -0.020500
vn -0.982317 0.186100 -0.020500
vn -0.004787 0.084284 0.996430
vn -0.004788 0.084285 0.996430
vn -0.004792 0.084288 0.996430
vn -0.004792 0.084288 0.996430
vn 0.969885 -0.242256 0.025190
vn 0.969885 -0.242256 0.025190
vn 0.982312 -0.186125 0.020501
vn 0.982313 -0.186124 0.020501
vn 0.005047 -0.000035 -0.999987
vn 0.005051 -0.000037 -0.999987
vn 0.004998 0.000000 -0.999988
vn 0.004998 0.000000 -0.999988
vn 0.000000 1.000000 0.000000
vn 0.000000 1.000000 0.000000
vn 0.000000 1.000000 0.000000
vn 0.000000 1.000000 0.000000
vn -0.005000 0.000000 0.999987
vn -0.005000 0.000000 0.999987
vn -0.004889 0.000007 0.999988
vn -0.004897 0.000006 0.999988
vn -0.369421 -0.929261 -0.001786
vn -0.369421 -0.929261 -0.001786
vn -0.369421 -0.929261 -0.001786
vn -0.369421 -0.929261 -0.001786
vn -0.982393 0.186766 -0.004750
vn -0.982393 0.186766 -0.004750
vn -0.999988 0.000000 -0.004843
vn -0.999988 0.000000 -0.004843
vn 0.982388 -0.186791 0.004758
vn 0.982388 -0.186791 0.004758
vn 0.999988 0.000000 0.004843
vn 0.999988 0.000000 0.004843
vn 0.005066 -0.000048 -0.999987
vn 0.005066 -0.000048 -0.999987
vn 0.005051 -0.000037 -0.999987
vn 0.005047 -0.000035 -0.999987
vn -0.969659 0.244416 -0.004686
vn -0.969659 0.244416 -0.004686
vn -0.982393 0.186766 -0.004750
vn -0.982393 0.186766 -0.004750
vn -0.004897 0.000006 0.999988
vn -0.004889 0.000007 0.999988
vn -0.004858 0.000009 0.999988
vn -0.004858 0.000009 0.999988
vn 0.969984 -0.243122 0.004698
vn 0.969984 -0.243122 0.004698
vn 0.982388 -0.186791 0.004758
vn 0.982388 -0.186791 0.004758
vn -0.999988 0.000000 -0.004843
vn -0.999988 0.000000 -0.004843
vn -0.999988 0.000000 -0.004843
vn -0.999988 0.000000 -0.004843
vn 0.000000 1.000000 0.000000
vn 0.000000 1.000000 0.000000
vn 0.000000 1.000000 0.000000
vn 0.000000 1.000000 0.000000
vn 0.999988 0.000000 0.004843
vn 0.999988 0.000000 0.004843
vn 0.999988 0.000000 0.004843
vn 0.999988 0.000000 0.004843
vn 0.000000 -1.000000 0.000000
vn 0.000000 -1.000000 0.000000
vn 0.000000 -1.000000 0.000000
vn 0.000000 -1.000000 0.000000
vn -0.004844 0.000000 0.999988
vn -0.004844 0.000000 0.999988
vn -0.004844 0.000000 0.999988
vn -0.004844 0.000000 0.999988
vn 0.004844 0.000000 -0.999988
vn 0.004844 0.000000 -0.999988
vn 0.004844 0.000000 -0.999988
vn 0.004844 0.000000 -0.999988
vn -0.991309 0.000000 0.131552
vn -0.991309 0.000000 0.131552
vn -0.991309 0.000000 0.131552
vn -0.991309 0.000000 0.131552
vn 0.000000 1.000000 -0.000000
vn 0.000000 1.000000 -0.000000
vn 0.000000 1.000000 -0.000000
vn 0.000000 1.000000 -0.000000
vn 0.991309 0.000000 -0.131555
vn 0.991309 0.000000 -0.131555
vn 0.991309 0.000000 -0.131555
vn 0.991309 0.000000 -0.131555
vn 0.000000 -1.000000 0.000000
vn 0.000000 -1.000000 0.000000
vn 0.000000 -1.000000 0.000000
vn 0.000000 -1.000000 0.000000
vn 0.131556 0.000000 0.991309
vn 0.131556 0.000000 0.991309
vn 0.131556 0.000000 0.991309
vn 0.131556 0.000000 0.991309
vn -0.131553 0.000000 -0.991309
vn -0.131553 0.000000 -0.991309
vn -0.131553 0.000000 -0.991309
vn -0.131553 0.000000 -0.991309
vn -0.998209 0.000000 0.059815
vn -0.998209 0.000000 0.059815
vn -0.998209 0.000000 0.059815
vn -0.998209 0.000000 0.059815
vn 0.000000 1.000000 0.000000
vn 0.000000 1.000000 0.000000
vn 0.000000 1.000000 0.000000
vn 0.000000 1.000000 0.000000
vn 0.998209 0.000000 -0.059818
vn 0.998209 0.000000 -0.059818
vn 0.998209 0.000000 -0.059818
vn 0.998209 0.000000 -0.059818
vn 0.000000 -1.000000 0.000000
vn 0.000000 -1.000000 0.000000
vn 0.000000 -1.000000 0.000000
vn 0.000000 -1.000000 0.000000
vn 0.059814 0.000000 0.998210
vn 0.059814 0.000000 0.998210
vn 0.059814 0.000000 0.998210
vn 0.059814 0.000000 0.998210
vn -0.059814 0.000000 -0.998210
vn -0.059814 0.000000 -0.998210
vn -0.059814 0.000000 -0.998210
vn -0.059814 0.000000 -0.998210
vn 0.004861 0.000000 -0.999988
vn 0.004861 0.000000 -0.999988
vn 0.004861 0.000000 -0.999988
vn 0.004861 0.000000 -0.999988
vn 0.000000 1.000000 0.000000
vn 0.000000 1.000000 0.000000
vn 0.000000 1.000000 0.000000
vn 0.000000 1.000000 0.000000
vn -0.005096 0.000000 0.999987
vn -0.005096 0.000000 0.999987
vn -0.005096 0.000000 0.999987
vn -0.005096 0.000000 0.999987
vn 0.000000 -1.000000 -0.000000
vn 0.000000 -1.000000 -0.000000
vn 0.000000 -1.000000 -0.000000
vn 0.000000 -1.000000 -0.000000
vn -0.999988 0.000000 -0.004826
vn -0.999988 0.000000 -0.004826
vn -0.999988 0.000000 -0.004826
vn -0.999988 0.000000 -0.004826
vn 0.999988 0.000000 0.004837
vn 0.999988 0.000000 0.004837
vn 0.999988 0.000000 0.004837
vn 0.999988 0.000000 0.004837
vn 0.004858 0.000000 -0.999988
vn 0.004858 0.000000 -0.999988
vn 0.004858 0.000000 -0.999988
vn 0.004858 0.000000 -0.999988
vn 0.000000 1.000000 0.000000
vn 0.000000 1.000000 0.000000
vn 0.000000 1.000000 0.000000
vn 0.000000 1.000000 0.000000
vn -0.004977 0.000000 0.999988
vn -0.004977 0.000000 0.999988
vn -0.004977 0.000000 0.999988
vn -0.004977 0.000000 0.999988
vn 0.000000 -1.000000 -0.000000
vn 0.000000 -1.000000 -0.000000
vn 0.000000 -1.000000 -0.000000
vn 0.000000 -1.000000 -0.000000
vn -0.999988 0.000000 -0.004826
vn -0.999988 0.000000 -0.004826
vn -0.999988 0.000000 -0.004826
vn -0.999988 0.000000 -0.004826
vn 0.999988 0.000000 0.004919
vn 0.999988 0.000000 0.004919
vn 0.999988 0.000000 0.004919
vn 0.999988 0.000000 0.004919
vn 0.004860 0.000000 -0.999988
vn 0.004860 0.000000 -0.999988
vn 0.004860 0.000000 -0.999988
vn 0.004860 0.000000 -0.999988
vn 0.000000 1.000000 -0.000000
vn 0.000000 1.000000 -0.000000
vn 0.000000 1.000000 -0.000000
vn 0.000000 1.000000 -0.000000
vn -0.004623 0.000000 0.999989
vn -0.004623 0.000000 0.999989
vn -0.004623 0.000000 0.999989
vn -0.004623 0.000000 0.999989
vn 0.000000 -1.000000 -0.000000
vn 0.000000 -1.000000 -0.000000
vn 0.000000 -1.000000 -0.000000
vn 0.000000 -1.000000 -0.000000
vn -0.999988 0.000000 -0.004831
vn -0.999988 0.000000 -0.004831
vn -0.999988 0.000000 -0.004831
vn -0.999988 0.000000 -0.004831
vn 0.999988 0.000000 0.004821
vn 0.999988 0.000000 0.004821
vn 0.999988 0.000000 0.004821
vn 0.999988 0.000000 0.004821
vn -0.999988 0.000000 -0.004812
vn -0.999988 0.000000 -0.004812
vn -0.999988 0.000000 -0.004812
vn -0.999988 0.000000 -0.004812
vn 0.000000 1.000000 0.000000
vn 0.000000 1.000000 0.000000
vn 0.000000 1.000000 0.000000
vn 0.000000 1.000000 0.000000
vn 0.999989 0.000000 0.004798
vn 0.999989 0.000000 0.004798
vn 0.999989 0.000000 0.004798
vn 0.999989 0.000000 0.004798
vn 0.000000 -1.000000 0.000000
vn 0.000000 -1.000000 0.000000
vn 0.000000 -1.000000 0.000000
vn 0.000000 -1.000000 0.000000
vn -0.004756 0.000000 0.999989
vn -0.004756 0.000000 0.999989
vn -0.004756 0.000000 0.999989
vn -0.004756 0.000000 0.999989
vn 0.004848 0.000000 -0.999988
vn 0.004848 0.000000 -0.999988
vn 0.004848 0.000000 -0.999988
vn 0.004848 0.000000 -0.999988
vn -0.999988 0.000000 -0.004915
vn -0.999988 0.000000 -0.004915
vn -0.999988 0.000000 -0.004915
vn -0.999988 0.000000 -0.004915
vn 0.000000 1.000000 0.000000
vn 0.000000 1.000000 0.000000
vn 0.000000 1.000000 0.000000
vn 0.000000 1.000000 0.000000
vn 0.999988 0.000000 0.004812
vn 0.999988 0.000000 0.004812
vn 0.999988 0.000000 0.004812
vn 0.999988 0.000000 0.004812
vn 0.000000 -1.000000 0.000000
vn 0.000000 -1.000000 0.000000
vn 0.000000 -1.000000 0.000000
vn 0.000000 -1.000000 0.000000
vn -0.004848 0.000000 0.999988
vn -0.004848 0.000000 0.999988
vn -0.004848 0.000000 0.999988
vn -0.004848 0.000000 0.999988
vn 0.004851 0.000000 -0.999988
vn 0.004851 0.000000 -0.999988
vn 0.004851 0.000000 -0.999988
vn 0.004851 0.000000 -0.999988
vn -0.999989 0.000000 -0.004798
vn -0.999989 0.000000 -0.004798
vn -0.999989 0.000000 -0.004798
vn -0.999989 0.000000 -0.004798
vn 0.000000 1.000000 0.000000
vn 0.000000 1.000000 0.000000
vn 0.000000 1.000000 0.000000
vn 0.000000 1.000000 0.000000
vn 0.999988 0.000000 0.004915
vn 0.999988 0.000000 0.004915
vn 0.999988 0.000000 0.004915
vn 0.999988 0.000000 0.004915
vn 0.000000 -1.000000 0.000000
vn 0.000000 -1.000000 0.000000
vn 0.000000 -1.000000 0.000000
vn 0.000000 -1.000000 0.000000
vn -0.004849 0.000000 0.999988
vn -0.004849 0.000000 0.999988
vn -0.004849 0.000000 0.999988
vn -0.004849 0.000000 0.999988
vn 0.004848 0.000000 -0.999988
vn 0.004848 0.000000 -0.999988
vn 0.004848 0.000000 -0.999988
vn 0.004848 0.000000 -0.999988
vn 0.004822 0.000000 -0.999988
vn 0.004822 0.000000 -0.999988
vn 0.004822 0.000000 -0.999988
vn 0.004822 0.000000 -0.999988
vn 0.000000 1.000000 0.000000
vn 0.000000 1.000000 0.000000
vn 0.000000 1.000000 0.000000
vn 0.000000 1.000000 0.000000
vn -0.004822 0.000000 0.999988
vn -0.004822 0.000000 0.999988
vn -0.004822 0.000000 0.999988
vn -0.004822 0.000000 0.999988
vn 0.000000 -1.000000 0.000000
vn 0.000000 -1.000000 0.000000
vn 0.000000 -1.000000 0.000000
vn 0.000000 -1.000000 0.000000
vn -0.999988 0.000000 -0.004825
vn -0.999988 0.000000 -0.004825
vn -0.999988 0.000000 -0.004825
vn -0.999988 0.000000 -0.004825
vn 0.999988 0.000000 0.004825
vn 0.999988 0.000000 0.004825
vn 0.999988 0.000000 0.004825
vn 0.999988 0.000000 0.004825
vn 0.004822 0.000000 -0.999988
vn 0.004822 0.000000 -0.999988
vn 0.004822 0.000000 -0.999988
vn 0.004822 0.000000 -0.999988
vn 0.000000 1.000000 0.000000
vn 0.000000 1.000000 0.000000
vn 0.000000 1.000000 0.000000
vn 0.000000 1.000000 0.000000
vn -0.004822 0.000000 0.999988
vn -0.004822 0.000000 0.999988
vn -0.004822 0.000000 0.999988
vn -0.004822 0.000000 0.999988
vn 0.000000 -1.000000 -0.000000
vn 0.000000 -1.000000 -0.000000
vn 0.000000 -1.000000 -0.000000
vn 0.000000 -1.000000 -0.000000
vn -0.999988 0.000000 -0.004931
vn -0.999988 0.000000 -0.004931
vn -0.999988 0.000000 -0.004931
vn -0.999988 0.000000 -0.004931
vn 0.999988 0.000000 0.004919
vn 0.999988 0.000000 0.004919
vn 0.999988 0.000000 0.004919
vn 0.999988 0.000000 0.004919
vn 0.004822 0.000000 -0.999988
vn 0.004822 0.000000 -0.999988
vn 0.004822 0.000000 -0.999988
vn 0.004822 0.000000 -0.999988
vn 0.000000 1.000000 -0.000000
vn 0.000000 1.000000 -0.000000
vn 0.000000 1.000000 -0.000000
vn 0.000000 1.000000 -0.000000
vn -0.004701 0.000000 0.999989
vn -0.004701 0.000000 0.999989
vn -0.004701 0.000000 0.999989
vn -0.004701 0.000000 0.999989
vn 0.000000 -1.000000 0.000000
vn 0.000000 -1.000000 0.000000
vn 0.000000 -1.000000 0.000000
vn 0.000000 -1.000000 0.000000
vn -0.999988 0.000000 -0.004820
vn -0.999988 0.000000 -0.004820
vn -0.999988 0.000000 -0.004820
vn -0.999988 0.000000 -0.004820
vn 0.999988 0.000000 0.004844
vn 0.999988 0.000000 0.004844
vn 0.999988 0.000000 0.004844
vn 0.999988 0.000000 0.004844
vn -0.999988 0.000000 -0.004843
vn -0.999988 0.000000 -0.004843
vn -0.999988 0.000000 -0.004843
vn -0.999988 0.000000 -0.004843
vn 0.999988 0.000004 0.004845
vn 0.999988 0.000004 0.004845
vn 0.999988 0.000004 0.004845
vn 0.999988 0.000004 0.004845
vn 0.004840 0.000000 -0.999988
vn 0.004840 0.000000 -0.999988
vn 0.004840 0.000000 -0.999988
vn 0.004840 0.000000 -0.999988
vn 0.000000 1.000000 0.000000
vn 0.000000 1.000000 0.000000
vn 0.000000 1.000000 0.000000
vn 0.000000 1.000000 0.000000
vn 0.000000 1.000000 0.000000
vn 0.000000 1.000000 0.000000
vn 0.000000 1.000000 0.000000
vn 0.000000 1.000000 0.000000
vn 0.000000 1.000000 -0.000001
vn 0.000000 1.000000 -0.000001
vn 0.000000 1.000000 -0.000001
vn 0.000000 1.000000 -0.000001
vn 0.000000 -1.000000 0.000000
vn 0.000000 -1.000000 0.000000
vn 0.000000 -1.000000 0.000000
vn 0.000000 -1.000000 0.000000
vn 0.000000 -1.000000 0.000000
vn 0.000000 -1.000000 0.000000
vn 0.000000 -1.000000 0.000000
vn 0.000000 -1.000000 0.000000
vn 0.000000 -1.000000 0.000000
vn 0.000000 -1.000000 0.000000
vn 0.000000 -1.000000 0.000000
vn 0.000000 -1.000000 0.000000
vn -0.999988 -0.000002 -0.004840
vn -0.999988 -0.000002 -0.004840
vn -0.999988 -0.000002 -0.004840
vn -0.999988 -0.000002 -0.004840
vn -0.004839 -0.000000 0.999988
vn -0.004839 -0.000000 0.999988
vn -0.004839 -0.000000 0.999988
vn -0.004839 -0.000000 0.999988
vn 0.999988 0.000002 0.004842
vn 0.999988 0.000002 0.004842
vn 0.999988 0.000002 0.004842
vn 0.999988 0.000002 0.004842
vn -0.004773 0.000000 0.999989
vn -0.004773 0.000000 0.999989
vn -0.004773 0.000000 0.999989
vn -0.004773 0.000000 0.999989
vn -0.004597 0.000000 0.999990
vn -0.004597 0.000000 0.999990
vn -0.004597 0.000000 0.999990
vn -0.004597 0.000000 0.999990
vn -0.999988 0.000000 -0.004844
vn -0.999988 0.000000 -0.004844
vn -0.999988 0.000000 -0.004844
vn -0.999988 0.000000 -0.004844
vn 0.000000 1.000000 0.000000
vn 0.000000 1.000000 0.000000
vn 0.000000 1.000000 0.000000
vn 0.000000 1.000000 0.000000
vn 0.999988 0.000000 0.004843
vn 0.999988 0.000000 0.004843
vn 0.999988 0.000000 0.004843
vn 0.999988 0.000000 0.004843
vn 0.000000 -1.000000 0.000000
vn 0.000000 -1.000000 0.000000
vn 0.000000 -1.000000 0.000000
vn 0.000000 -1.000000 0.000000
vn -0.004839 0.000000 0.999988
vn -0.004839 0.000000 0.999988
vn -0.004839 0.000000 0.999988
vn -0.004839 0.000000 0.999988
vn 0.004843 0.000000 -0.999988
vn 0.004843 0.000000 -0.999988
vn 0.004843 0.000000 -0.999988
vn 0.004843 0.000000 -0.999988
s off
f 9/1/1 10/2/2 4/3/3 3/4/4
f 3/5/5 4/6/6 6/7/7 5/8/8
f 5/9/9 6/10/10 11/11/11 12/12/12
f 7/13/13 8/14/14 2/15/15 1/16/16
f 10/17/17 11/18/18 6/19/19 4/20/20
f 12/21/21 9/22/22 3/23/23 5/24/24
f 1/25/25 2/26/26 10/27/27 9/28/28
f 2/29/29 8/30/30 11/31/31 10/32/32
f 12/33/33 11/34/34 8/35/35 7/36/36
f 7/37/37 1/38/38 9/39/39 12/40/40
f 21/41/41 22/42/42 16/43/43 15/44/44
f 15/45/45 16/46/46 18/47/47 17/48/48
f 17/49/49 18/50/50 23/51/51 24/52/52
f 19/53/53 20/54/54 14/55/55 13/56/56
f 22/57/57 23/58/58 18/59/59 16/60/60
f 24/61/61 21/62/62 15/63/63 17/64/64
f 13/65/65 14/66/66 22/67/67 21/68/68
f 14/69/69 20/70/70 23/71/71 22/72/72
f 24/73/73 23/74/74 20/75/75 19/76/76
f 19/77/77 13/78/78 21/79/79 24/80/80
f 25/81/81 26/82/82 28/83/83 27/84/84
f 27/85/85 28/86/86 30/87/87 29/88/88
f 29/89/89 30/90/90 32/91/91 31/92/92
f 31/93/93 32/94/94 26/95/95 25/96/96
f 26/97/97 32/98/98 30/99/99 28/100/100
f 31/101/101 25/102/102 27/103/103 29/104/104
f 33/105/105 34/106/106 36/107/107 35/108/108
f 35/109/109 36/110/110 38/111/111 37/112/112
f 37/113/113 38/114/114 40/115/115 39/116/116
f 39/117/117 40/118/118 34/119/119 33/120/120
f 34/121/121 40/122/122 38/123/123 36/124/124
f 39/125/125 33/126/126 35/127/127 37/128/128
f 41/129/129 42/130/130 44/131/131 43/132/132
f 43/133/133 44/134/134 46/135/135 45/136/136
f 45/137/137 46/138/138 48/139/139 47/140/140
f 47/141/141 48/142/142 42/143/143 41/144/144
f 42/145/145 48/146/146 46/147/147 44/148/148
f 47/149/149 41/150/150 43/151/151 45/152/152
f 49/153/153 50/154/154 52/155/155 51/156/156
f 51/157/157 52/158/158 54/159/159 53/160/160
f 53/161/161 54/162/162 56/163/163 55/164/164
f 55/165/165 56/166/166 50/167/167 49/168/168
f 50/169/169 56/170/170 54/171/171 52/172/172
f 55/173/173 49/174/174 51/175/175 53/176/176
f 57/177/177 58/178/178 60/179/179 59/180/180
f 59/181/181 60/182/182 62/183/183 61/184/184
f 61/185/185 62/186/186 64/187/187 63/188/188
f 63/189/189 64/190/190 58/191/191 57/192/192
f 58/193/193 64/194/194 62/195/195 60/196/196
f 63/197/197 57/198/198 59/199/199 61/200/200
f 65/201/201 66/202/202 68/203/203 67/204/204
f 67/205/205 68/206/206 70/207/207 69/208/208
f 69/209/209 70/210/210 72/211/211 71/212/212
f 71/213/213 72/214/214 66/215/215 65/216/216
f 66/217/217 72/218/218 70/219/219 68/220/220
f 71/221/221 65/222/222 67/223/223 69/224/224
f 73/225/225 74/226/226 76/227/227 75/228/228
f 75/229/229 76/230/230 78/231/231 77/232/232
f 77/233/233 78/234/234 80/235/235 79/236/236
f 79/237/237 80/238/238 74/239/239 73/240/240
f 74/241/241 80/242/242 78/243/243 76/244/244
f 79/245/245 73/246/246 75/247/247 77/248/248
f 81/249/249 82/250/250 84/251/251 83/252/252
f 83/253/253 84/254/254 86/255/255 85/256/256
f 85/257/257 86/258/258 88/259/259 87/260/260
f 87/261/261 88/262/262 82/263/263 81/264/264
f 82/265/265 88/266/266 86/267/267 84/268/268
f 87/269/269 81/270/270 83/271/271 85/272/272
f 89/273/273 90/274/274 92/275/275 91/276/276
f 91/277/277 92/278/278 94/279/279 93/280/280
f 93/281/281 94/282/282 96/283/283 95/284/284
f 95/285/285 96/286/286 90/287/287 89/288/288
f 90/289/289 96/290/290 94/291/291 92/292/292
f 95/293/293 89/294/294 91/295/295 93/296/296
f 97/297/297 98/298/298 100/299/299 99/300/300
f 99/301/301 100/302/302 102/303/303 101/304/304
f 101/305/305 102/306/306 104/307/307 103/308/308
f 103/309/309 104/310/310 98/311/311 97/312/312
f 98/313/313 104/314/314 102/315/315 100/316/316
f 103/317/317 97/318/318 99/319/319 101/320/320
f 105/321/321 106/322/322 108/323/323 107/324/324
f 107/325/325 108/326/326 110/327/327 109/328/328
f 109/329/329 110/330/330 112/331/331 111/332/332
f 111/333/333 112/334/334 106/335/335 105/336/336
f 106/337/337 112/338/338 110/339/339 108/340/340
f 111/341/341 105/342/342 107/343/343 109/344/344
f 113/345/345 114/346/346 116/347/347 115/348/348
f 115/349/349 116/350/350 118/351/351 117/352/352
f 117/353/353 118/354/354 120/355/355 119/356/356
f 119/357/357 120/358/358 114/359/359 113/360/360
f 114/361/361 120/362/362 118/363/363 116/364/364
f 119/365/365 113/366/366 115/367/367 117/368/368
f 121/369/369 122/370/370 124/371/371 123/372/372
f 125/373/373 126/374/374 128/375/375 127/376/376
f 127/377/377 121/378/378 123/379/379 125/380/380
f 123/381/381 124/382/382 130/383/383 129/384/384
f 126/385/385 125/386/386 132/387/387 131/388/388
f 125/389/389 123/390/390 129/391/391 132/392/392
f 127/393/393 128/394/394 134/395/395 133/396/396
f 122/397/397 121/398/398 136/399/399 135/400/400
f 121/401/401 127/402/402 133/403/403 136/404/404
f 131/405/405 132/406/406 133/407/407 134/408/408
f 132/409/409 129/410/410 136/411/411 133/412/412
f 130/413/413 135/414/414 136/415/415 129/416/416
f 124/417/417 122/418/418 135/419/419 130/420/420
f 128/421/421 126/422/422 131/423/423 134/424/424
f 137/425/425 138/426/426 140/427/427 139/428/428
f 139/429/429 140/430/430 142/431/431 141/432/432
f 141/433/433 142/434/434 144/435/435 143/436/436
f 143/437/437 144/438/438 138/439/439 137/440/440
f 138/441/441 144/442/442 142/443/443 140/444/444
f 143/445/445 137/446/446 139/447/447 141/448/448
