# This file uses meters as units for non-parametric coordinates.

v -0.236777 -0.000000 -0.394459
v -0.236777 -0.000000 0.332427
v -0.236777 0.056179 -0.394459
v -0.236777 0.056179 0.332427
v 0.240044 0.056179 -0.394459
v 0.240044 0.056179 0.332427
v 0.240044 -0.000000 -0.394459
v 0.240044 -0.000000 0.332427
v -0.285741 0.056004 -0.310986
v -0.186627 0.056004 0.409111
v -0.285741 0.064050 -0.310986
v -0.186627 0.064050 0.409111
v 0.186627 0.064050 -0.376002
v 0.285741 0.064050 0.344095
v 0.186627 0.056004 -0.376002
v 0.285741 0.056004 0.344095
v -0.259774 0.063960 -0.378286
v -0.212783 0.063960 0.347079
v -0.259774 0.072473 -0.378286
v -0.212783 0.072473 0.347079
v 0.216050 0.072473 -0.409111
v 0.263041 0.072473 0.316255
v 0.216050 0.063960 -0.409111
v 0.263041 0.063960 0.316255
vt 0.354217 0.444187
vt 0.329681 0.444187
vt 0.387954 0.444187
vt 0.354217 0.444187
vt 0.329681 0.444187
vt 0.387954 0.444187
vt 0.291855 0.444187
vt 0.329681 0.444187
vt 0.291855 0.444187
vt 0.291855 0.444187
vt 0.354217 0.444187
vt 0.354217 0.444187
vt 0.354217 0.444187
vt 0.354217 0.444187
vt 0.387954 0.444187
vt 0.329681 0.444187
vt 0.329681 0.444187
vt 0.387954 0.444187
vt 0.291855 0.444187
vt 0.329681 0.444187
vt 0.354217 0.444187
vt 0.329681 0.444187
vt 0.329681 0.444187
vt 0.354217 0.444187
vt 0.329681 0.013036
vt 0.329681 0.013036
vt 0.329681 0.013036
vt 0.329681 0.013036
vt 0.387954 0.013036
vt 0.387954 0.013036
vt 0.387954 0.013036
vt 0.387954 0.013036
vt 0.329681 0.013036
vt 0.329681 0.013036
vt 0.329681 0.013036
vt 0.329681 0.013036
vt 0.291855 0.013036
vt 0.291855 0.013036
vt 0.291855 0.013036
vt 0.291855 0.013036
vt 0.354217 0.013036
vt 0.354217 0.013036
vt 0.354217 0.013036
vt 0.354217 0.013036
vt 0.354217 0.013036
vt 0.354217 0.013036
vt 0.354217 0.013036
vt 0.354217 0.013036
vt 0.322801 0.132291
vt 0.322801 0.132291
vt 0.322801 0.132291
vt 0.322801 0.132291
vt 0.381074 0.132291
vt 0.381074 0.132291
vt 0.381074 0.132291
vt 0.381074 0.132291
vt 0.322801 0.132291
vt 0.322801 0.132291
vt 0.322801 0.132291
vt 0.322801 0.132291
vt 0.284975 0.132291
vt 0.284975 0.132291
vt 0.284975 0.132290
vt 0.284975 0.132290
vt 0.347337 0.132291
vt 0.347337 0.132291
vt 0.347337 0.132291
vt 0.347337 0.132291
vt 0.347337 0.132291
vt 0.347337 0.132291
vt 0.347337 0.132291
vt 0.347337 0.132291
vn -1.000000 0.000000 0.000000
vn -1.000000 0.000000 0.000000
vn -1.000000 0.000000 0.000000
vn -1.000000 0.000000 0.000000
vn 0.000000 1.000000 0.000000
vn 0.000000 1.000000 0.000000
vn 0.000000 1.000000 0.000000
vn 0.000000 1.000000 0.000000
vn 1.000000 0.000000 0.000000
vn 1.000000 0.000000 0.000000
vn 1.000000 0.000000 0.000000
vn 1.000000 0.000000 0.000000
vn 0.000000 -1.000000 0.000000
vn 0.000000 -1.000000 0.000000
vn 0.000000 -1.000000 0.000000
vn 0.000000 -1.000000 0.000000
vn 0.000000 0.000000 1.000000
vn 0.000000 0.000000 1.000000
vn 0.000000 0.000000 1.000000
vn 0.000000 0.000000 1.000000
vn -0.000000 0.000000 -1.000000
vn -0.000000 0.000000 -1.000000
vn -0.000000 0.000000 -1.000000
vn -0.000000 0.000000 -1.000000
vn -0.990660 0.000000 0.136355
vn -0.990660 0.000000 0.136355
vn -0.990660 0.000000 0.136355
vn -0.990660 0.000000 0.136355
vn 0.000000 1.000000 -0.000000
vn 0.000000 1.000000 -0.000000
vn 0.000000 1.000000 -0.000000
vn 0.000000 1.000000 -0.000000
vn 0.990660 0.000000 -0.136355
vn 0.990660 0.000000 -0.136355
vn 0.990660 0.000000 -0.136355
vn 0.990660 0.000000 -0.136355
vn 0.000000 -1.000000 0.000000
vn 0.000000 -1.000000 0.000000
vn 0.000000 -1.000000 0.000000
vn 0.000000 -1.000000 0.000000
vn 0.136353 0.000000 0.990660
vn 0.136353 0.000000 0.990660
vn 0.136353 0.000000 0.990660
vn 0.136353 0.000000 0.990660
vn -0.136353 0.000000 -0.990660
vn -0.136353 0.000000 -0.990660
vn -0.136353 0.000000 -0.990660
vn -0.136353 0.000000 -0.990660
vn -0.997908 0.000000 0.064647
vn -0.997908 0.000000 0.064647
vn -0.997908 0.000000 0.064647
vn -0.997908 0.000000 0.064647
vn 0.000000 1.000000 0.000000
vn 0.000000 1.000000 0.000000
vn 0.000000 1.000000 0.000000
vn 0.000000 1.000000 0.000000
vn 0.997908 0.000000 -0.064647
vn 0.997908 0.000000 -0.064647
vn 0.997908 0.000000 -0.064647
vn 0.997908 0.000000 -0.064647
vn 0.000000 -1.000000 0.000000
vn 0.000000 -1.000000 0.000000
vn 0.000000 -1.000000 0.000000
vn 0.000000 -1.000000 0.000000
vn 0.064645 0.000000 0.997908
vn 0.064645 0.000000 0.997908
vn 0.064645 0.000000 0.997908
vn 0.064645 0.000000 0.997908
vn -0.064647 0.000000 -0.997908
vn -0.064647 0.000000 -0.997908
vn -0.064647 0.000000 -0.997908
vn -0.064647 0.000000 -0.997908
s off
f 1/23/1 2/2/2 4/22/3 3/17/4
f 3/3/5 4/15/6 6/6/7 5/18/8
f 5/5/9 6/16/10 8/8/11 7/20/12
f 7/7/13 8/19/14 2/10/15 1/9/16
f 2/21/17 8/11/18 6/12/19 4/4/20
f 7/13/21 1/1/22 3/24/23 5/14/24
f 9/25/25 10/26/26 12/27/27 11/28/28
f 11/29/29 12/30/30 14/31/31 13/32/32
f 13/33/33 14/34/34 16/35/35 15/36/36
f 15/37/37 16/38/38 10/39/39 9/40/40
f 10/41/41 16/42/42 14/43/43 12/44/44
f 15/45/45 9/46/46 11/47/47 13/48/48
f 17/49/49 18/50/50 20/51/51 19/52/52
f 19/53/53 20/54/54 22/55/55 21/56/56
f 21/57/57 22/58/58 24/59/59 23/60/60
f 23/61/61 24/62/62 18/63/63 17/64/64
f 18/65/65 24/66/66 22/67/67 20/68/68
f 23/69/69 17/70/70 19/71/71 21/72/72
