# This file uses meters as units for non-parametric coordinates.

v -0.004598 0.011040 0.239605
v -0.004598 0.019920 0.239605
v 0.004598 0.019920 0.239605
v 0.004598 0.011040 0.239605
v 0.016031 0.030960 0.165074
v -0.016031 0.030960 0.165074
v -0.016031 0.000000 0.165074
v 0.016031 0.000000 0.165074
v 0.016031 0.030960 -0.221121
v -0.016031 0.030960 -0.221121
v -0.016031 0.000000 -0.221121
v 0.016031 0.000000 -0.221121
v 0.007114 0.008610 -0.239605
v -0.007114 0.008610 -0.239605
v -0.007114 0.022349 -0.239605
v 0.007114 0.022349 -0.239605
v -0.007114 0.022349 -0.221121
v 0.007114 0.022349 -0.221121
v -0.007114 0.008610 -0.221121
v 0.007114 0.008610 -0.221121
v 0.008015 0.030960 -0.199008
v -0.008015 0.030960 -0.199008
v -0.008015 0.030960 -0.070806
v 0.008015 0.030960 -0.070806
v 0.008015 0.043147 -0.199008
v -0.008015 0.043147 -0.199008
v -0.008015 0.043147 -0.070806
v 0.008015 0.043147 -0.070806
v -0.016031 0.030960 -0.028023
v 0.016031 0.030960 -0.028023
v -0.016031 0.000000 -0.028023
v 0.016031 0.000000 -0.028023
v -0.016031 0.000000 -0.015799
v -0.016031 0.030960 -0.015799
v 0.016031 0.030960 -0.015799
v 0.016031 0.000000 -0.015799
vt 0.291508 0.477440
vt 0.266972 0.477440
vt 0.325245 0.477440
vt 0.149097 0.477440
vt 0.266972 0.477440
vt 0.325245 0.477440
vt 0.229146 0.477440
vt 0.266972 0.477440
vt 0.229146 0.477440
vt 0.229146 0.477440
vt 0.149097 0.477440
vt 0.149097 0.477440
vt 0.291508 0.477440
vt 0.291508 0.477440
vt 0.325245 0.477440
vt 0.266972 0.477440
vt 0.266972 0.477440
vt 0.325245 0.477440
vt 0.229146 0.477440
vt 0.266972 0.477440
vt 0.149097 0.477440
vt 0.266972 0.477440
vt 0.266972 0.477440
vt 0.291508 0.477440
vt 0.173041 0.063336
vt 0.325245 0.477440
vt 0.231314 0.063336
vt 0.266972 0.477440
vt 0.173041 0.063336
vt 0.229146 0.477440
vt 0.135215 0.063336
vt 0.266972 0.477440
vt 0.173041 0.063336
vt 0.231314 0.063336
vt 0.231314 0.063336
vt 0.173041 0.063336
vt 0.173041 0.063336
vt 0.135215 0.063336
vt 0.135215 0.063336
vt 0.173041 0.063336
vt 0.325245 0.477440
vt 0.325245 0.477440
vt 0.266972 0.477440
vt 0.266972 0.477440
vt 0.229146 0.477440
vt 0.229146 0.477440
vt 0.266972 0.477440
vt 0.266972 0.477440
vt 0.139325 0.065224
vt 0.139325 0.065224
vt 0.139325 0.065224
vt 0.139325 0.065224
vt 0.139325 0.065224
vt 0.139325 0.065224
vt 0.139325 0.065224
vt 0.139325 0.065224
vt 0.264644 0.477440
vt 0.291915 0.477440
vt 0.264644 0.477440
vt 0.291915 0.477440
vt 0.325245 0.477440
vt 0.291915 0.477440
vt 0.264644 0.477440
vt 0.291915 0.477440
vt 0.264644 0.477440
vt 0.291915 0.477440
vt 0.264644 0.477440
vt 0.325245 0.477440
vt 0.291915 0.477440
vt 0.325245 0.477440
vt 0.231314 0.063336
vt 0.264644 0.477440
vt 0.264644 0.477440
vt 0.325245 0.477440
vt 0.231314 0.063336
vt 0.291915 0.477440
vt 0.231314 0.063336
vt 0.264644 0.477440
vt 0.231314 0.063336
vt 0.291915 0.477440
vt 0.231314 0.063336
vt 0.173041 0.063336
vt 0.266972 0.477440
vt 0.325245 0.477440
vt 0.173041 0.063336
vt 0.135215 0.063336
vt 0.135215 0.063336
vt 0.173041 0.063336
vt 0.266972 0.477440
vt 0.229146 0.477440
vt 0.231314 0.063336
vt 0.173041 0.063336
vt 0.173041 0.063336
vt 0.231314 0.063336
vt 0.135215 0.063336
vt 0.173041 0.063336
vt 0.266972 0.477440
vt 0.229146 0.477440
vt 0.173041 0.063336
vt 0.135215 0.063336
vt 0.325245 0.477440
vt 0.266972 0.477440
vt 0.266972 0.477440
vt 0.325245 0.477440
vt 0.229146 0.477440
vt 0.173041 0.063336
vt 0.266972 0.477440
vt 0.231314 0.063336
vt 0.325245 0.477440
vt 0.173041 0.063336
vt 0.266972 0.477440
vt 0.135215 0.063336
vt 0.229146 0.477440
vt 0.266972 0.477440
vt 0.231314 0.063336
vt 0.231314 0.063336
vt 0.173041 0.063336
vt 0.266972 0.477440
vt 0.229146 0.477440
vt 0.231314 0.063336
vt 0.325245 0.477440
vt 0.266972 0.477440
vt 0.231314 0.063336
vt 0.231314 0.063336
vt 0.231314 0.063336
vt 0.231314 0.063336
vt 0.139325 0.065224
vt 0.231314 0.063336
vt 0.139325 0.065224
vt 0.231314 0.063336
vt 0.139325 0.065224
vt 0.139325 0.065224
vt 0.139325 0.065224
vt 0.139325 0.065224
vt 0.139325 0.065224
vt 0.139325 0.065224
vn -0.999558 0.000000 0.029735
vn -0.999558 0.000000 0.029735
vn -0.988439 0.000000 0.151620
vn -0.988439 0.000000 0.151620
vn 0.000000 0.989207 0.146524
vn 0.000000 0.989207 0.146524
vn 0.000000 0.989207 0.146524
vn 0.000000 0.989207 0.146524
vn 0.999558 0.000000 0.029735
vn 0.999558 0.000000 0.029735
vn 0.988438 0.000000 0.151623
vn 0.988438 0.000000 0.151623
vn 0.000000 -0.999590 0.028629
vn 0.000000 -0.999590 0.028629
vn 0.000000 -0.989207 0.146524
vn 0.000000 -0.989207 0.146524
vn 0.000000 0.000000 1.000000
vn 0.000000 0.000000 1.000000
vn 0.000000 0.000000 1.000000
vn 0.000000 0.000000 1.000000
vn -0.000005 0.000000 -1.000000
vn -0.000005 0.000000 -1.000000
vn -0.000005 0.000000 -1.000000
vn -0.000005 0.000000 -1.000000
vn 0.000000 1.000000 -0.000000
vn 0.000000 1.000000 -0.000000
vn 0.000000 1.000000 -0.000000
vn 0.000000 1.000000 -0.000000
vn -1.000000 0.000000 0.000000
vn -1.000000 0.000000 0.000000
vn -1.000000 0.000000 0.000000
vn -1.000000 0.000000 0.000000
vn 0.000000 -1.000000 0.000000
vn 0.000000 -1.000000 0.000000
vn 0.000000 -1.000000 0.000000
vn 0.000000 -1.000000 0.000000
vn 1.000000 0.000000 -0.000000
vn 1.000000 0.000000 -0.000000
vn 1.000000 0.000000 -0.000000
vn 1.000000 0.000000 -0.000000
vn 0.000000 1.000000 -0.000000
vn 0.000000 1.000000 -0.000000
vn 0.000000 1.000000 -0.000000
vn 0.000000 1.000000 -0.000000
vn -1.000000 0.000000 0.000000
vn -1.000000 0.000000 0.000000
vn -1.000000 0.000000 0.000000
vn -1.000000 0.000000 0.000000
vn 0.000000 -1.000000 0.000000
vn 0.000000 -1.000000 0.000000
vn 0.000000 -1.000000 0.000000
vn 0.000000 -1.000000 0.000000
vn 1.000000 0.000000 0.000002
vn 1.000000 0.000000 0.000002
vn 1.000000 0.000000 0.000002
vn 1.000000 0.000000 0.000002
vn -0.000002 0.000000 -1.000000
vn -0.000002 0.000000 -1.000000
vn -0.000002 0.000000 -1.000000
vn -0.000002 0.000000 -1.000000
vn 0.000004 0.000000 -1.000000
vn 0.000004 0.000000 -1.000000
vn 0.000004 0.000000 -1.000000
vn 0.000004 0.000000 -1.000000
vn -0.000001 -0.000000 -1.000000
vn -0.000001 -0.000000 -1.000000
vn -0.000001 -0.000000 -1.000000
vn -0.000001 -0.000000 -1.000000
vn 0.000004 0.000000 -1.000000
vn 0.000004 0.000000 -1.000000
vn 0.000004 0.000000 -1.000000
vn 0.000004 0.000000 -1.000000
vn 0.000000 1.000000 -0.000000
vn 0.000000 1.000000 -0.000000
vn 0.000000 1.000000 -0.000000
vn 0.000000 1.000000 -0.000000
vn 0.000000 1.000000 0.000000
vn 0.000000 1.000000 0.000000
vn 0.000000 1.000000 0.000000
vn 0.000000 1.000000 0.000000
vn 0.000000 0.000000 -1.000000
vn 0.000000 0.000000 -1.000000
vn 0.000000 0.000000 -1.000000
vn 0.000000 0.000000 -1.000000
vn -1.000000 0.000000 -0.000000
vn -1.000000 0.000000 -0.000000
vn -1.000000 0.000000 -0.000000
vn -1.000000 0.000000 -0.000000
vn 0.000000 0.000000 1.000000
vn 0.000000 0.000000 1.000000
vn 0.000000 0.000000 1.000000
vn 0.000000 0.000000 1.000000
vn 1.000000 0.000000 -0.000000
vn 1.000000 0.000000 -0.000000
vn 1.000000 0.000000 -0.000000
vn 1.000000 0.000000 -0.000000
vn 0.000000 1.000000 0.000000
vn 0.000000 1.000000 -0.000000
vn 0.000000 1.000000 -0.000000
vn 0.000000 1.000000 -0.000000
vn 0.000000 1.000000 0.000000
vn 0.000000 1.000000 0.000000
vn 0.000000 1.000000 -0.000000
vn 0.000000 1.000000 -0.000000
vn 0.000000 1.000000 0.000000
vn 0.000000 1.000000 -0.000000
vn 0.000000 1.000000 0.000000
vn 0.000000 1.000000 0.000000
vn -1.000000 0.000000 0.000000
vn -1.000000 0.000000 0.000000
vn -1.000000 0.000000 0.000000
vn -1.000000 0.000000 0.000000
vn 0.000000 -1.000000 0.000000
vn 0.000000 -1.000000 0.000000
vn 0.000000 -1.000000 0.000000
vn 0.000000 -1.000000 0.000000
vn 1.000000 0.000000 -0.000000
vn 1.000000 0.000000 -0.000000
vn 1.000000 0.000000 -0.000000
vn 1.000000 0.000000 -0.000000
vn -1.000000 0.000000 0.000000
vn -1.000000 0.000000 0.000000
vn -0.999558 0.000000 0.029735
vn -0.999558 0.000000 0.029735
vn 0.000000 1.000000 -0.000000
vn 0.000000 1.000000 -0.000000
vn 0.000000 1.000000 -0.000000
vn 0.000000 1.000000 -0.000000
vn 1.000000 0.000000 -0.000000
vn 1.000000 0.000000 -0.000000
vn 0.999558 0.000000 0.029735
vn 0.999558 0.000000 0.029735
vn 0.000000 -1.000000 0.000000
vn 0.000000 -1.000000 0.000000
vn 0.000000 -0.999590 0.028629
vn 0.000000 -0.999590 0.028629
s off
f 6/28/1 7/111/2 1/2/3 2/22/4
f 5/26/5 6/109/6 2/15/7 3/6/8
f 8/32/9 5/107/10 3/16/11 4/8/12
f 7/30/13 8/105/14 4/19/15 1/10/16
f 1/21/17 4/11/18 3/12/19 2/4/20
f 13/13/21 14/1/22 15/24/23 16/14/24
f 25/61/25 26/74/26 27/70/27 28/68/28
f 29/122/29 31/118/30 33/89/31 34/103/32
f 31/119/33 32/113/34 36/98/35 33/90/36
f 32/114/37 30/83/38 35/102/39 36/97/40
f 15/3/41 17/41/42 18/42/43 16/18/44
f 14/23/45 19/43/46 17/44/47 15/17/48
f 13/7/49 20/45/50 19/46/51 14/9/52
f 16/5/53 18/47/54 20/48/55 13/20/56
f 10/127/57 9/50/58 18/132/59 17/52/60
f 11/53/61 10/49/62 17/135/63 19/54/64
f 12/55/65 11/136/66 19/133/67 20/56/68
f 9/129/69 12/134/70 20/131/71 18/51/72
f 9/34/73 10/128/74 22/126/75 21/79/76
f 24/123/77 30/116/78 9/130/79 21/125/80
f 21/57/81 22/78/82 26/73/83 25/65/84
f 22/58/85 23/76/86 27/69/87 26/62/88
f 23/59/89 24/72/90 28/67/91 27/63/92
f 24/60/93 21/80/94 25/66/95 28/64/96
f 29/81/97 23/75/98 22/77/99 10/35/100
f 30/84/101 29/121/102 34/104/103 35/101/104
f 24/71/105 23/124/106 29/120/107 30/115/108
f 10/36/109 11/37/110 31/85/111 29/82/112
f 11/38/113 12/39/114 32/87/115 31/86/116
f 12/40/117 9/33/118 30/117/119 32/88/120
f 34/92/121 33/99/122 7/29/123 6/110/124
f 35/94/125 34/91/126 6/27/127 5/108/128
f 36/96/129 35/93/130 5/25/131 8/106/132
f 33/100/133 36/95/134 8/31/135 7/112/136
