# This file uses meters as units for non-parametric coordinates.

v -0.459280 0.000000 0.223395
v 0.459280 0.000000 0.223395
v -0.459280 0.037686 0.223395
v 0.459280 0.037686 0.223395
v -0.459280 0.037686 -0.296110
v 0.459280 0.037686 -0.296110
v -0.459280 0.000000 -0.296110
v 0.459280 0.000000 -0.296110
v 0.183711 0.037686 0.223395
v 0.183711 0.000000 0.223395
v 0.211443 0.037686 0.274523
v 0.211443 0.000000 0.274523
v 0.431547 0.000000 0.274523
v 0.431547 0.037686 0.274523
v -0.394282 0.037686 0.149459
v -0.106169 0.037686 0.149459
v -0.106169 0.037686 -0.013488
v -0.394282 0.037686 -0.013488
v -0.396085 0.008927 0.296110
v 0.325830 0.008927 0.211260
v -0.396085 0.024048 0.296110
v 0.325830 0.024048 0.211260
v -0.451746 0.024048 -0.177451
v 0.270171 0.024048 -0.262302
v -0.451746 0.008927 -0.177451
v 0.270171 0.008927 -0.262302
vt 0.414981 0.397895
vt 0.390445 0.397895
vt 0.448718 0.397895
vt 0.414981 0.397895
vt 0.390445 0.397895
vt 0.448718 0.397895
vt 0.352619 0.397895
vt 0.390445 0.397895
vt 0.352619 0.397895
vt 0.352619 0.397895
vt 0.414981 0.397895
vt 0.414981 0.397895
vt 0.414981 0.397895
vt 0.414981 0.397895
vt 0.448718 0.397895
vt 0.390445 0.397895
vt 0.390445 0.397895
vt 0.448718 0.397895
vt 0.352619 0.397895
vt 0.390445 0.397895
vt 0.414981 0.397895
vt 0.431999 0.397895
vt 0.390445 0.397895
vt 0.414981 0.397895
vt 0.448718 0.397895
vt 0.390445 0.397895
vt 0.365513 0.397895
vt 0.352619 0.397895
vt 0.390445 0.397895
vt 0.365513 0.397895
vt 0.390445 0.397895
vt 0.431999 0.397895
vt 0.431999 0.397895
vt 0.390445 0.397895
vt 0.390445 0.397895
vt 0.431999 0.397895
vt 0.390445 0.397895
vt 0.365513 0.397895
vt 0.365513 0.397895
vt 0.390445 0.397895
vt 0.357738 0.476535
vt 0.448718 0.397895
vt 0.448718 0.397895
vt 0.448718 0.397895
vt 0.448718 0.397895
vt 0.448718 0.397895
vt 0.448718 0.397895
vt 0.357738 0.476535
vt 0.448718 0.397895
vt 0.357738 0.476535
vt 0.448718 0.397895
vt 0.448718 0.397895
vt 0.357738 0.476535
vt 0.448718 0.397895
vt 0.448718 0.397895
vt 0.448718 0.397895
vt 0.390445 0.397895
vt 0.390445 0.397895
vt 0.390445 0.397895
vt 0.390445 0.397895
vt 0.390445 0.397895
vt 0.390445 0.397895
vt 0.329681 0.477440
vt 0.329681 0.477440
vt 0.329681 0.477440
vt 0.329681 0.477440
vt 0.387954 0.477440
vt 0.387954 0.477440
vt 0.387954 0.477440
vt 0.387954 0.477440
vt 0.329681 0.477440
vt 0.329681 0.477440
vt 0.329681 0.477440
vt 0.329681 0.477440
vt 0.291855 0.477440
vt 0.291855 0.477440
vt 0.291855 0.477440
vt 0.291855 0.477440
vt 0.354217 0.477440
vt 0.354217 0.477440
vt 0.354217 0.477440
vt 0.354217 0.477440
vt 0.354217 0.477440
vt 0.354217 0.477440
vt 0.354217 0.477440
vt 0.354217 0.477440
vn 0.000000 0.000000 1.000000
vn 0.000000 0.000000 1.000000
vn 0.000000 0.000000 1.000000
vn 0.000000 0.000000 1.000000
vn 0.000000 1.000000 0.000000
vn 0.000000 1.000000 0.000000
vn 0.000000 1.000000 0.000000
vn 0.000000 1.000000 0.000000
vn 0.000000 0.000000 -1.000000
vn 0.000000 0.000000 -1.000000
vn 0.000000 0.000000 -1.000000
vn 0.000000 0.000000 -1.000000
vn 0.000000 -1.000000 0.000000
vn 0.000000 -1.000000 0.000000
vn 0.000000 -1.000000 0.000000
vn 0.000000 -1.000000 0.000000
vn 0.000000 -1.000000 0.000000
vn 1.000000 0.000013 0.000000
vn 1.000000 0.000013 0.000000
vn 1.000000 0.000013 0.000000
vn 1.000000 0.000013 0.000000
vn -1.000000 0.000000 0.000000
vn -1.000000 0.000000 0.000000
vn -1.000000 0.000000 0.000000
vn -1.000000 0.000000 0.000000
vn 0.000000 0.000000 1.000000
vn 0.000000 0.000000 1.000000
vn 0.000000 0.000000 1.000000
vn 0.000000 0.000000 1.000000
vn -0.879022 0.000000 0.476781
vn -0.879022 0.000000 0.476781
vn -0.879022 0.000000 0.476781
vn -0.879022 0.000000 0.476781
vn 0.000000 -1.000000 0.000000
vn 0.000000 -1.000000 0.000000
vn 0.000000 -1.000000 0.000000
vn 0.000000 -1.000000 0.000000
vn 0.879015 0.000011 0.476794
vn 0.879015 0.000011 0.476794
vn 0.879015 0.000011 0.476794
vn 0.879015 0.000011 0.476794
vn 0.000000 1.000000 -0.000000
vn 0.000000 1.000000 -0.000000
vn 0.000000 1.000000 -0.000000
vn 0.000000 1.000000 -0.000000
vn 0.000000 1.000000 -0.000000
vn 0.000000 1.000000 -0.000000
vn 0.000000 1.000000 -0.000000
vn 0.000000 1.000000 -0.000000
vn 0.000000 1.000000 -0.000000
vn 0.000000 1.000000 0.000000
vn 0.000000 1.000000 0.000000
vn 0.000000 1.000000 0.000000
vn 0.000000 1.000000 0.000000
vn 0.000000 1.000000 0.000000
vn 0.000000 1.000000 0.000000
vn 0.000000 1.000000 0.000000
vn 0.000000 1.000000 0.000000
vn 0.000000 1.000000 0.000000
vn 0.000000 1.000000 0.000000
vn 0.000000 1.000000 0.000000
vn 0.000000 1.000000 0.000000
vn 0.116731 0.000000 0.993164
vn 0.116731 0.000000 0.993164
vn 0.116731 0.000000 0.993164
vn 0.116731 0.000000 0.993164
vn 0.000000 1.000000 0.000000
vn 0.000000 1.000000 0.000000
vn 0.000000 1.000000 0.000000
vn 0.000000 1.000000 0.000000
vn -0.116731 0.000000 -0.993164
vn -0.116731 0.000000 -0.993164
vn -0.116731 0.000000 -0.993164
vn -0.116731 0.000000 -0.993164
vn 0.000000 -1.000000 -0.000000
vn 0.000000 -1.000000 -0.000000
vn 0.000000 -1.000000 -0.000000
vn 0.000000 -1.000000 -0.000000
vn 0.993164 0.000000 -0.116731
vn 0.993164 0.000000 -0.116731
vn 0.993164 0.000000 -0.116731
vn 0.993164 0.000000 -0.116731
vn -0.993163 0.000000 0.116733
vn -0.993163 0.000000 0.116733
vn -0.993163 0.000000 0.116733
vn -0.993163 0.000000 0.116733
s off
f 11/29/1 12/60/2 13/59/3 14/58/4
f 15/41/5 16/48/6 17/50/7 18/53/8
f 5/5/9 6/16/10 8/8/11 7/20/12
f 7/7/13 8/19/14 2/10/15 10/28/16 1/9/17
f 2/21/18 8/11/19 6/12/20 4/4/21
f 7/13/22 1/1/23 3/24/24 5/14/25
f 1/23/26 10/40/27 9/62/28 3/17/29
f 9/26/30 10/61/31 12/37/32 11/57/33
f 10/27/34 2/39/35 13/38/36 12/30/37
f 2/2/38 4/35/39 14/34/40 13/31/41
f 4/22/42 9/36/43 11/33/44 14/32/45
f 15/45/46 3/3/47 9/25/48 4/55/49 16/52/50
f 4/15/51 6/54/52 17/49/53 16/42/54
f 6/6/55 5/51/56 18/47/57 17/43/58
f 5/18/59 3/56/60 15/46/61 18/44/62
f 19/63/63 20/64/64 22/65/65 21/66/66
f 21/67/67 22/68/68 24/69/69 23/70/70
f 23/71/71 24/72/72 26/73/73 25/74/74
f 25/75/75 26/76/76 20/77/77 19/78/78
f 20/79/79 26/80/80 24/81/81 22/82/82
f 25/83/83 19/84/84 21/85/85 23/86/86
