# This file uses meters as units for non-parametric coordinates.

v -0.259008 1.016689 -0.199909
v -0.259008 1.016689 0.276908
v -0.259008 1.477118 -0.199909
v -0.259008 1.477118 0.276908
v 0.319658 1.526292 -0.195767
v 0.319658 1.526292 0.272765
v 0.319658 0.967515 -0.195767
v 0.319658 0.967515 0.272765
v -0.150420 1.466647 -0.142246
v -0.150420 1.466647 0.219244
v -0.092985 1.698249 -0.084811
v -0.092985 1.698249 0.161810
v 0.153636 1.698249 -0.084811
v 0.153636 1.698249 0.161810
v 0.211070 1.466647 -0.142245
v 0.211070 1.466647 0.219244
v -0.054021 0.816044 -0.046169
v -0.054021 0.816044 0.190607
v -0.082412 1.047645 -0.074561
v -0.082412 1.047645 0.218999
v 0.211146 1.047645 -0.074560
v 0.211146 1.047645 0.218998
v 0.182755 0.816044 -0.046169
v 0.182755 0.816044 0.190607
v -0.047000 0.347107 -0.038784
v -0.047000 0.347107 0.119118
v -0.002513 1.147107 0.005703
v -0.002513 1.147107 0.074632
v 0.066416 1.147107 0.005702
v 0.066416 1.147107 0.074632
v 0.110903 0.347107 -0.038784
v 0.110903 0.347107 0.119118
v -0.168083 0.000000 -0.168286
v -0.168083 0.000000 0.233587
v -0.152852 0.401872 -0.153054
v -0.152852 0.401872 0.218356
v 0.218557 0.401872 -0.153055
v 0.218557 0.401872 0.218355
v 0.233789 0.000000 -0.168286
v 0.233789 0.000000 0.233587
v -0.168083 0.347559 -0.168286
v -0.168083 0.347559 0.233587
v 0.233789 0.347559 0.233587
v 0.233789 0.347559 -0.168286
v -0.200334 0.347559 -0.200536
v -0.200334 0.347559 0.265837
v -0.200334 0.401872 0.265837
v -0.200334 0.401872 -0.200536
v 0.266040 0.401872 -0.200536
v 0.266040 0.401872 0.265839
v 0.266040 0.347559 0.265839
v 0.266040 0.347559 -0.200536
v -0.152852 0.351035 -0.153054
v -0.152852 0.351035 0.218356
v 0.218557 0.351035 0.218355
v 0.218557 0.351035 -0.153055
v -0.319658 1.106795 -0.276907
v -0.319658 1.106795 0.014607
v -0.319658 1.374395 -0.276907
v -0.319658 1.374395 0.014607
v 0.060389 1.356081 -0.235972
v 0.060389 1.356081 -0.026328
v 0.060389 1.125108 -0.235972
v 0.060389 1.125108 -0.026328
vt 0.167962 0.421804
vt 0.143427 0.421804
vt 0.201699 0.421804
vt 0.167962 0.421804
vt 0.143427 0.421804
vt 0.201699 0.421804
vt 0.105600 0.421804
vt 0.143427 0.421804
vt 0.105600 0.421804
vt 0.105600 0.421804
vt 0.167962 0.421804
vt 0.167962 0.421804
vt 0.167962 0.421804
vt 0.167962 0.421804
vt 0.201699 0.421804
vt 0.143427 0.421804
vt 0.143427 0.421804
vt 0.201699 0.421804
vt 0.105600 0.421804
vt 0.143427 0.421804
vt 0.167962 0.421804
vt 0.143427 0.421804
vt 0.143427 0.421804
vt 0.167962 0.421804
vt 0.143427 0.421804
vt 0.143427 0.421804
vt 0.143427 0.421804
vt 0.143427 0.421804
vt 0.201699 0.421804
vt 0.201699 0.421804
vt 0.201699 0.421804
vt 0.201699 0.421804
vt 0.143427 0.421804
vt 0.143427 0.421804
vt 0.143427 0.421804
vt 0.143427 0.421804
vt 0.105600 0.421804
vt 0.105600 0.421804
vt 0.105600 0.421804
vt 0.105600 0.421804
vt 0.167962 0.421804
vt 0.167962 0.421804
vt 0.167962 0.421804
vt 0.167962 0.421804
vt 0.167962 0.421804
vt 0.167962 0.421804
vt 0.167962 0.421804
vt 0.167962 0.421804
vt 0.143427 0.421804
vt 0.143427 0.421804
vt 0.143427 0.421804
vt 0.143427 0.421804
vt 0.201699 0.421804
vt 0.201699 0.421804
vt 0.201699 0.421804
vt 0.201699 0.421804
vt 0.143427 0.421804
vt 0.143427 0.421804
vt 0.143427 0.421804
vt 0.143427 0.421804
vt 0.105600 0.421804
vt 0.105600 0.421804
vt 0.105600 0.421804
vt 0.105600 0.421804
vt 0.167962 0.421804
vt 0.167962 0.421804
vt 0.167962 0.421804
vt 0.167962 0.421804
vt 0.167962 0.421804
vt 0.167962 0.421804
vt 0.167962 0.421804
vt 0.167962 0.421804
vt 0.233427 0.398077
vt 0.233427 0.398077
vt 0.233427 0.398077
vt 0.233427 0.398077
vt 0.291699 0.398077
vt 0.291699 0.398077
vt 0.291699 0.398077
vt 0.291699 0.398077
vt 0.233427 0.398077
vt 0.233427 0.398077
vt 0.233427 0.398077
vt 0.233427 0.398077
vt 0.195601 0.398077
vt 0.195601 0.398077
vt 0.195601 0.398076
vt 0.195601 0.398076
vt 0.257962 0.398077
vt 0.257962 0.398077
vt 0.257962 0.398077
vt 0.257962 0.398077
vt 0.257962 0.398077
vt 0.257963 0.398077
vt 0.257963 0.398077
vt 0.257962 0.398077
vt 0.142893 0.479895
vt 0.142893 0.479895
vt 0.142893 0.479895
vt 0.142893 0.479895
vt 0.043523 0.399505
vt 0.043523 0.399505
vt 0.043523 0.399505
vt 0.043523 0.399505
vt 0.142893 0.479895
vt 0.142893 0.479895
vt 0.142893 0.479895
vt 0.142893 0.479895
vt 0.105067 0.479895
vt 0.105067 0.479895
vt 0.105067 0.479895
vt 0.105067 0.479895
vt 0.167429 0.479895
vt 0.167429 0.479895
vt 0.167429 0.479895
vt 0.167429 0.479895
vt 0.167429 0.479895
vt 0.167429 0.479895
vt 0.167429 0.479895
vt 0.167429 0.479895
vt 0.142893 0.479895
vt 0.142893 0.479895
vt 0.142893 0.479895
vt 0.142893 0.479895
vt 0.167429 0.479895
vt 0.167429 0.479895
vt 0.167429 0.479895
vt 0.167429 0.479895
vt 0.142893 0.479895
vt 0.142893 0.479895
vt 0.142893 0.479895
vt 0.142893 0.479895
vt 0.167429 0.479895
vt 0.167429 0.479895
vt 0.167429 0.479895
vt 0.167429 0.479895
vt 0.142893 0.479895
vt 0.142893 0.479895
vt 0.142893 0.479895
vt 0.142893 0.479895
vt 0.169230 0.479425
vt 0.169230 0.479425
vt 0.169230 0.479425
vt 0.169230 0.479425
vt 0.169230 0.479425
vt 0.169230 0.479425
vt 0.169230 0.479425
vt 0.169230 0.479425
vt 0.142893 0.479895
vt 0.142893 0.479895
vt 0.142893 0.479895
vt 0.142893 0.479895
vt 0.167429 0.479895
vt 0.167429 0.479895
vt 0.167429 0.479895
vt 0.167429 0.479895
vt 0.169230 0.479425
vt 0.169230 0.479425
vt 0.169230 0.479425
vt 0.169230 0.479425
vt 0.167429 0.479895
vt 0.167429 0.479895
vt 0.167429 0.479895
vt 0.167429 0.479895
vt 0.169230 0.479425
vt 0.169230 0.479425
vt 0.169230 0.479425
vt 0.169230 0.479425
vt 0.108178 0.475141
vt 0.108178 0.475141
vt 0.108178 0.475141
vt 0.108178 0.475141
vt 0.108178 0.475141
vt 0.108178 0.475141
vt 0.108178 0.475141
vt 0.108178 0.475141
vt 0.108178 0.475141
vt 0.108178 0.475141
vt 0.108178 0.475141
vt 0.108178 0.475141
vt 0.108178 0.475141
vt 0.108178 0.475141
vt 0.108178 0.475141
vt 0.108178 0.475141
vt 0.143427 0.421804
vt 0.143427 0.421804
vt 0.143427 0.421804
vt 0.143427 0.421804
vt 0.201699 0.421804
vt 0.201699 0.421804
vt 0.201699 0.421804
vt 0.201699 0.421804
vt 0.143427 0.421804
vt 0.143427 0.421804
vt 0.143427 0.421804
vt 0.143427 0.421804
vt 0.105600 0.421804
vt 0.105600 0.421804
vt 0.105600 0.421804
vt 0.105600 0.421804
vt 0.167962 0.421804
vt 0.167962 0.421804
vt 0.167962 0.421804
vt 0.167962 0.421804
vt 0.167962 0.421804
vt 0.167962 0.421804
vt 0.167962 0.421804
vt 0.167962 0.421804
vn -1.000000 0.000000 0.000000
vn -1.000000 0.000000 0.000000
vn -1.000000 0.000000 0.000000
vn -1.000000 0.000000 0.000000
vn -0.084674 0.996409 -0.000000
vn -0.084674 0.996409 -0.000000
vn -0.084674 0.996409 -0.000000
vn -0.084674 0.996409 -0.000000
vn 1.000000 0.000000 -0.000000
vn 1.000000 0.000000 -0.000000
vn 1.000000 0.000000 -0.000000
vn 1.000000 0.000000 -0.000000
vn -0.084674 -0.996409 0.000000
vn -0.084674 -0.996409 0.000000
vn -0.084674 -0.996409 0.000000
vn -0.084674 -0.996409 0.000000
vn 0.007159 0.000000 0.999974
vn 0.007159 0.000000 0.999974
vn 0.007159 0.000000 0.999974
vn 0.007159 0.000000 0.999974
vn 0.007157 0.000000 -0.999974
vn 0.007157 0.000000 -0.999974
vn 0.007157 0.000000 -0.999974
vn 0.007157 0.000000 -0.999974
vn -0.970600 0.240697 0.000000
vn -0.970600 0.240697 0.000000
vn -0.970600 0.240697 0.000000
vn -0.970600 0.240697 0.000000
vn 0.000000 1.000000 0.000000
vn 0.000000 1.000000 0.000000
vn 0.000000 1.000000 0.000000
vn 0.000000 1.000000 0.000000
vn 0.970600 0.240697 0.000000
vn 0.970600 0.240697 0.000000
vn 0.970600 0.240697 0.000000
vn 0.970600 0.240697 0.000000
vn 0.000000 -1.000000 0.000000
vn 0.000000 -1.000000 0.000000
vn 0.000000 -1.000000 0.000000
vn 0.000000 -1.000000 0.000000
vn -0.000000 0.240696 0.970601
vn -0.000000 0.240696 0.970601
vn -0.000000 0.240696 0.970601
vn -0.000000 0.240696 0.970601
vn 0.000002 0.240698 -0.970600
vn 0.000002 0.240698 -0.970600
vn 0.000002 0.240698 -0.970600
vn 0.000002 0.240698 -0.970600
vn -0.992570 -0.121677 0.000000
vn -0.992570 -0.121677 0.000000
vn -0.992570 -0.121677 0.000000
vn -0.992570 -0.121677 0.000000
vn 0.000000 1.000000 0.000000
vn 0.000000 1.000000 0.000000
vn 0.000000 1.000000 0.000000
vn 0.000000 1.000000 0.000000
vn 0.992570 -0.121677 -0.000000
vn 0.992570 -0.121677 -0.000000
vn 0.992570 -0.121677 -0.000000
vn 0.992570 -0.121677 -0.000000
vn 0.000000 -1.000000 0.000000
vn 0.000000 -1.000000 0.000000
vn 0.000000 -1.000000 0.000000
vn 0.000000 -1.000000 0.000000
vn 0.000002 -0.121674 0.992570
vn 0.000002 -0.121674 0.992570
vn 0.000002 -0.121674 0.992570
vn 0.000002 -0.121674 0.992570
vn -0.000000 -0.121676 -0.992570
vn -0.000000 -0.121676 -0.992570
vn -0.000000 -0.121676 -0.992570
vn -0.000000 -0.121676 -0.992570
vn -0.998457 0.055523 0.000000
vn -0.998457 0.055523 0.000000
vn -0.998457 0.055523 0.000000
vn -0.998457 0.055523 0.000000
vn 0.000000 1.000000 0.000000
vn 0.000000 1.000000 0.000000
vn 0.000000 1.000000 0.000000
vn 0.000000 1.000000 0.000000
vn 0.998457 0.055523 0.000000
vn 0.998457 0.055523 0.000000
vn 0.998457 0.055523 0.000000
vn 0.998457 0.055523 0.000000
vn 0.000000 -1.000000 0.000000
vn 0.000000 -1.000000 0.000000
vn 0.000000 -1.000000 0.000000
vn 0.000000 -1.000000 0.000000
vn -0.000001 0.055522 0.998457
vn -0.000001 0.055522 0.998457
vn -0.000001 0.055522 0.998457
vn -0.000001 0.055522 0.998457
vn -0.000003 0.055523 -0.998457
vn -0.000003 0.055523 -0.998457
vn -0.000003 0.055523 -0.998457
vn -0.000003 0.055523 -0.998457
vn -1.000000 0.000000 0.000000
vn -1.000000 0.000000 0.000000
vn -1.000000 0.000000 0.000000
vn -1.000000 0.000000 0.000000
vn 0.000000 1.000000 0.000000
vn 0.000000 1.000000 0.000000
vn 0.000000 1.000000 0.000000
vn 0.000000 1.000000 0.000000
vn 1.000000 0.000000 -0.000000
vn 1.000000 0.000000 -0.000000
vn 1.000000 0.000000 -0.000000
vn 1.000000 0.000000 -0.000000
vn 0.000000 -1.000000 0.000000
vn 0.000000 -1.000000 0.000000
vn 0.000000 -1.000000 0.000000
vn 0.000000 -1.000000 0.000000
vn -0.000004 0.000000 1.000000
vn -0.000004 0.000000 1.000000
vn -0.000004 0.000000 1.000000
vn -0.000004 0.000000 1.000000
vn -0.000000 0.000000 -1.000000
vn -0.000000 0.000000 -1.000000
vn -0.000000 0.000000 -1.000000
vn -0.000000 0.000000 -1.000000
vn -1.000000 0.000000 0.000000
vn -1.000000 0.000000 0.000000
vn -1.000000 0.000000 0.000000
vn -1.000000 0.000000 0.000000
vn 0.000000 0.000000 1.000000
vn 0.000000 0.000000 1.000000
vn 0.000000 0.000000 1.000000
vn 0.000000 0.000000 1.000000
vn 1.000000 0.000000 -0.000000
vn 1.000000 0.000000 -0.000000
vn 1.000000 0.000000 -0.000000
vn 1.000000 0.000000 -0.000000
vn -0.000000 0.000000 -1.000000
vn -0.000000 0.000000 -1.000000
vn -0.000000 0.000000 -1.000000
vn -0.000000 0.000000 -1.000000
vn 0.000000 -1.000000 0.000000
vn 0.000000 -1.000000 0.000000
vn 0.000000 -1.000000 0.000000
vn 0.000000 -1.000000 0.000000
vn 0.000000 1.000000 0.000000
vn 0.000000 1.000000 0.000000
vn 0.000000 1.000000 0.000000
vn 0.000000 1.000000 0.000000
vn 0.000000 1.000000 -0.000000
vn 0.000000 1.000000 -0.000000
vn 0.000000 1.000000 -0.000000
vn 0.000000 1.000000 -0.000000
vn 0.000000 -1.000000 0.000000
vn 0.000000 -1.000000 0.000000
vn 0.000000 -1.000000 0.000000
vn 0.000000 -1.000000 0.000000
vn 0.000000 -1.000000 0.000000
vn 0.000000 -1.000000 0.000000
vn 0.000000 -1.000000 0.000000
vn 0.000000 -1.000000 0.000000
vn 0.000000 1.000000 0.000000
vn 0.000000 1.000000 0.000000
vn 0.000000 1.000000 0.000000
vn 0.000000 1.000000 0.000000
vn 0.000000 -1.000000 0.000000
vn 0.000000 -1.000000 0.000000
vn 0.000000 -1.000000 0.000000
vn 0.000000 -1.000000 0.000000
vn 0.000000 1.000000 -0.000000
vn 0.000000 1.000000 -0.000000
vn 0.000000 1.000000 -0.000000
vn 0.000000 1.000000 -0.000000
vn 1.000000 0.000000 0.000000
vn 1.000000 0.000000 0.000000
vn 1.000000 0.000000 0.000000
vn 1.000000 0.000000 0.000000
vn -0.000002 0.000000 -1.000000
vn -0.000002 0.000000 -1.000000
vn -0.000002 0.000000 -1.000000
vn -0.000002 0.000000 -1.000000
vn -1.000000 0.000000 0.000000
vn -1.000000 0.000000 0.000000
vn -1.000000 0.000000 0.000000
vn -1.000000 0.000000 0.000000
vn 0.000002 0.000000 1.000000
vn 0.000002 0.000000 1.000000
vn 0.000002 0.000000 1.000000
vn 0.000002 0.000000 1.000000
vn -1.000000 0.000000 0.000000
vn -1.000000 0.000000 0.000000
vn -1.000000 0.000000 0.000000
vn -1.000000 0.000000 0.000000
vn 0.048133 0.998841 0.000000
vn 0.048133 0.998841 0.000000
vn 0.048133 0.998841 0.000000
vn 0.048133 0.998841 0.000000
vn 1.000000 0.000000 0.000000
vn 1.000000 0.000000 0.000000
vn 1.000000 0.000000 0.000000
vn 1.000000 0.000000 0.000000
vn 0.048133 -0.998841 0.000000
vn 0.048133 -0.998841 0.000000
vn 0.048133 -0.998841 0.000000
vn 0.048133 -0.998841 0.000000
vn 0.107093 0.000000 0.994249
vn 0.107093 0.000000 0.994249
vn 0.107093 0.000000 0.994249
vn 0.107093 0.000000 0.994249
vn 0.107091 0.000000 -0.994249
vn 0.107091 0.000000 -0.994249
vn 0.107091 0.000000 -0.994249
vn 0.107091 0.000000 -0.994249
s off
f 1/23/1 2/2/2 4/22/3 3/17/4
f 3/3/5 4/15/6 6/6/7 5/18/8
f 5/5/9 6/16/10 8/8/11 7/20/12
f 7/7/13 8/19/14 2/10/15 1/9/16
f 2/21/17 8/11/18 6/12/19 4/4/20
f 7/13/21 1/1/22 3/24/23 5/14/24
f 9/25/25 10/26/26 12/27/27 11/28/28
f 11/29/29 12/30/30 14/31/31 13/32/32
f 13/33/33 14/34/34 16/35/35 15/36/36
f 15/37/37 16/38/38 10/39/39 9/40/40
f 10/41/41 16/42/42 14/43/43 12/44/44
f 15/45/45 9/46/46 11/47/47 13/48/48
f 17/49/49 18/50/50 20/51/51 19/52/52
f 19/53/53 20/54/54 22/55/55 21/56/56
f 21/57/57 22/58/58 24/59/59 23/60/60
f 23/61/61 24/62/62 18/63/63 17/64/64
f 18/65/65 24/66/66 22/67/67 20/68/68
f 23/69/69 17/70/70 19/71/71 21/72/72
f 25/73/73 26/74/74 28/75/75 27/76/76
f 27/77/77 28/78/78 30/79/79 29/80/80
f 29/81/81 30/82/82 32/83/83 31/84/84
f 31/85/85 32/86/86 26/87/87 25/88/88
f 26/89/89 32/90/90 30/91/91 28/92/92
f 31/93/93 25/94/94 27/95/95 29/96/96
f 45/97/97 46/98/98 47/99/99 48/100/100
f 53/101/101 54/102/102 55/103/103 56/104/104
f 49/105/105 50/106/106 51/107/107 52/108/108
f 39/109/109 40/110/110 34/111/111 33/112/112
f 46/113/113 51/114/114 50/115/115 47/116/116
f 52/117/117 45/118/118 48/119/119 49/120/120
f 33/121/121 34/122/122 42/123/123 41/124/124
f 34/125/125 40/126/126 43/127/127 42/128/128
f 44/129/129 43/130/130 40/131/131 39/132/132
f 39/133/133 33/134/134 41/135/135 44/136/136
f 41/137/137 42/138/138 46/139/139 45/140/140
f 36/141/141 35/142/142 48/143/143 47/144/144
f 37/145/145 38/146/146 50/147/147 49/148/148
f 43/149/149 44/150/150 52/151/151 51/152/152
f 42/153/153 43/154/154 51/155/155 46/156/156
f 38/157/157 36/158/158 47/159/159 50/160/160
f 44/161/161 41/162/162 45/163/163 52/164/164
f 35/165/165 37/166/166 49/167/167 48/168/168
f 35/169/169 36/170/170 54/171/171 53/172/172
f 36/173/173 38/174/174 55/175/175 54/176/176
f 38/177/177 37/178/178 56/179/179 55/180/180
f 37/181/181 35/182/182 53/183/183 56/184/184
f 57/185/185 58/186/186 60/187/187 59/188/188
f 59/189/189 60/190/190 62/191/191 61/192/192
f 61/193/193 62/194/194 64/195/195 63/196/196
f 63/197/197 64/198/198 58/199/199 57/200/200
f 58/201/201 64/202/202 62/203/203 60/204/204
f 63/205/205 57/206/206 59/207/207 61/208/208
