# This file uses meters as units for non-parametric coordinates.

v -0.097484 -0.167696 0.013805
v -0.097484 -0.164314 0.022313
v -0.097484 0.022262 -0.022313
v -0.097484 0.022262 -0.013157
v 0.097484 0.022262 -0.022313
v 0.097484 0.022262 -0.013157
v 0.097484 -0.167696 0.013805
v 0.097484 -0.164314 0.022313
v -0.097484 -0.023594 -0.022313
v -0.097484 -0.023594 -0.013157
v 0.097484 -0.023594 -0.013157
v 0.097484 -0.023594 -0.022313
vt 0.237716 0.219511
vt 0.237716 0.219511
vt 0.237716 0.219511
vt 0.237716 0.219511
vt 0.210360 0.219511
vt 0.210360 0.219511
vt 0.210360 0.219511
vt 0.210360 0.219511
vt 0.237716 0.219511
vt 0.237716 0.219511
vt 0.237716 0.219511
vt 0.237716 0.219511
vt 0.199890 0.219511
vt 0.199890 0.219511
vt 0.199890 0.219511
vt 0.199890 0.219511
vt 0.267473 0.219511
vt 0.267473 0.219511
vt 0.267473 0.219511
vt 0.267473 0.219511
vt 0.289402 0.219511
vt 0.289402 0.219511
vt 0.289402 0.219511
vt 0.289402 0.219511
vt 0.237716 0.219511
vt 0.237716 0.219511
vt 0.237716 0.219511
vt 0.237716 0.219511
vt 0.289402 0.219511
vt 0.289402 0.219511
vt 0.289402 0.219511
vt 0.289402 0.219511
vt 0.237716 0.219511
vt 0.237716 0.219511
vt 0.237716 0.219511
vt 0.237716 0.219511
vt 0.289402 0.219511
vt 0.289402 0.219511
vt 0.289402 0.219511
vt 0.289402 0.219511
vn -1.000000 0.000000 0.000002
vn -1.000000 0.000000 0.000003
vn -1.000000 0.000000 0.000000
vn -1.000000 0.000000 0.000000
vn 0.000000 1.000000 0.000000
vn 0.000000 1.000000 0.000000
vn 0.000000 1.000000 0.000000
vn 0.000000 1.000000 0.000000
vn 1.000000 0.000000 0.000000
vn 1.000000 0.000000 0.000000
vn 1.000000 0.000000 0.000000
vn 1.000000 0.000000 0.000000
vn 0.000000 -0.929256 0.369436
vn 0.000000 -0.929256 0.369436
vn 0.000000 -0.929256 0.369436
vn 0.000000 -0.929256 0.369436
vn 0.000000 0.186762 0.982405
vn 0.000000 0.186762 0.982405
vn 0.000000 0.000000 1.000000
vn 0.000000 0.000000 1.000000
vn 0.000000 -0.186787 -0.982400
vn 0.000000 -0.186787 -0.982400
vn 0.000000 0.000000 -1.000000
vn 0.000000 0.000000 -1.000000
vn -1.000000 0.000001 0.000003
vn -1.000000 0.000001 0.000003
vn -1.000000 0.000000 0.000003
vn -1.000000 0.000000 0.000002
vn 0.000000 0.244412 0.969671
vn 0.000000 0.244412 0.969671
vn 0.000000 0.186762 0.982405
vn 0.000000 0.186762 0.982405
vn 1.000000 0.000000 0.000000
vn 1.000000 0.000000 0.000000
vn 1.000000 0.000000 0.000000
vn 1.000000 0.000000 0.000000
vn 0.000000 -0.243117 -0.969997
vn 0.000000 -0.243117 -0.969997
vn 0.000000 -0.186787 -0.982400
vn 0.000000 -0.186787 -0.982400
s off
f 9/1/1 10/2/2 4/3/3 3/4/4
f 3/5/5 4/6/6 6/7/7 5/8/8
f 5/9/9 6/10/10 11/11/11 12/12/12
f 7/13/13 8/14/14 2/15/15 1/16/16
f 10/17/17 11/18/18 6/19/19 4/20/20
f 12/21/21 9/22/22 3/23/23 5/24/24
f 1/25/25 2/26/26 10/27/27 9/28/28
f 2/29/29 8/30/30 11/31/31 10/32/32
f 12/33/33 11/34/34 8/35/35 7/36/36
f 7/37/37 1/38/38 9/39/39 12/40/40
