# This file uses meters as units for non-parametric coordinates.

v -1.646008 0.780483 -0.034680
v -1.646007 0.780483 0.043365
v -1.646008 0.896352 -0.034680
v -1.646007 0.896352 0.043365
v 1.625473 0.896352 -0.034681
v 1.625473 0.896352 0.043364
v 1.625473 0.780483 -0.034681
v 1.625473 0.780483 0.043364
v 1.797120 2.155827 -0.117484
v 1.797120 2.155827 0.122568
v 1.797120 2.387628 -0.117484
v 1.797120 2.387628 0.122568
v 1.651608 2.387628 -0.117484
v 1.651608 2.387628 0.122568
v 1.651608 2.155827 -0.117484
v 1.651608 2.155827 0.122568
v 1.751515 0.153568 -0.592668
v 1.751515 0.153568 0.601428
v 1.751515 0.312275 -0.592668
v 1.751515 0.312275 0.601428
v 1.585711 0.312275 -0.592667
v 1.585711 0.312275 0.601428
v 1.585711 0.153568 -0.592667
v 1.585711 0.153568 0.601428
v 1.732935 0.312275 -0.059942
v 1.732934 0.312275 0.068702
v 1.732935 2.534576 -0.059942
v 1.732934 2.534576 0.068702
v 1.604291 2.534576 -0.059942
v 1.604291 2.534576 0.068702
v 1.604291 0.312275 -0.059942
v 1.604291 0.312275 0.068702
v 1.739158 0.000000 0.451541
v 1.739158 0.000000 0.691593
v 1.739158 0.231801 0.451541
v 1.739158 0.231801 0.691593
v 1.593646 0.231801 0.451541
v 1.593646 0.231801 0.691593
v 1.593646 0.000000 0.451541
v 1.593646 0.000000 0.691593
v 1.739157 0.000000 -0.691593
v 1.739158 0.000000 -0.451540
v 1.739157 0.231801 -0.691593
v 1.739158 0.231801 -0.451540
v 1.593646 0.231801 -0.691592
v 1.593646 0.231801 -0.451541
v 1.593646 0.000000 -0.691592
v 1.593646 0.000000 -0.451541
v -1.797120 2.155827 -0.117483
v -1.797120 2.155827 0.122568
v -1.797120 2.387628 -0.117483
v -1.797120 2.387628 0.122568
v -1.651609 2.387628 -0.117483
v -1.651609 2.387628 0.122568
v -1.651609 2.155827 -0.117483
v -1.651609 2.155827 0.122568
v -1.751515 0.153568 -0.592667
v -1.751515 0.153568 0.601428
v -1.751515 0.312275 -0.592667
v -1.751515 0.312275 0.601428
v -1.585711 0.312275 -0.592667
v -1.585711 0.312275 0.601428
v -1.585711 0.153568 -0.592667
v -1.585711 0.153568 0.601428
v -1.732935 0.312275 -0.059941
v -1.732935 0.312275 0.068703
v -1.732935 2.534576 -0.059941
v -1.732935 2.534576 0.068703
v -1.604291 2.534576 -0.059941
v -1.604291 2.534576 0.068703
v -1.604291 0.312275 -0.059941
v -1.604291 0.312275 0.068703
v -1.739157 0.000000 0.451542
v -1.739157 0.000000 0.691593
v -1.739157 0.231801 0.451542
v -1.739157 0.231801 0.691593
v -1.593646 0.231801 0.451542
v -1.593646 0.231801 0.691593
v -1.593646 0.000000 0.451542
v -1.593646 0.000000 0.691593
v -1.739157 0.000000 -0.691592
v -1.739157 0.000000 -0.451540
v -1.739157 0.231801 -0.691592
v -1.739157 0.231801 -0.451540
v -1.593646 0.231801 -0.691592
v -1.593646 0.231801 -0.451540
v -1.593646 0.000000 -0.691592
v -1.593646 0.000000 -0.451540
v -1.601272 1.111907 -0.032493
v -1.601273 1.111907 0.043529
v -1.601272 3.472863 -0.032493
v -1.601273 3.472863 0.043529
v 1.601272 3.472863 -0.032493
v 1.601271 3.472863 0.043528
v 1.601272 1.111907 -0.032493
v 1.601271 1.111907 0.043528
v 1.469664 1.235272 0.043528
v -1.469666 1.235272 0.043529
v 1.469664 3.349497 0.043528
v -1.469666 3.349497 0.043529
v 1.469665 1.235273 -0.032493
v -1.469666 1.235273 -0.032492
v -1.469666 3.349497 -0.032492
v 1.469665 3.349497 -0.032493
vt 0.260890 0.477440
vt 0.236354 0.477440
vt 0.294626 0.477440
vt 0.260890 0.477440
vt 0.236354 0.477440
vt 0.294626 0.477440
vt 0.198528 0.477440
vt 0.236354 0.477440
vt 0.198528 0.477440
vt 0.198528 0.477440
vt 0.260890 0.477440
vt 0.260890 0.477440
vt 0.260890 0.477440
vt 0.260890 0.477440
vt 0.294626 0.477440
vt 0.236354 0.477440
vt 0.236354 0.477440
vt 0.294626 0.477440
vt 0.198528 0.477440
vt 0.236354 0.477440
vt 0.260890 0.477440
vt 0.236354 0.477440
vt 0.236354 0.477440
vt 0.260890 0.477440
vt 0.207232 0.087494
vt 0.207232 0.087494
vt 0.207232 0.087494
vt 0.207232 0.087494
vt 0.265505 0.087494
vt 0.265505 0.087494
vt 0.265505 0.087494
vt 0.265505 0.087494
vt 0.207232 0.087494
vt 0.207232 0.087494
vt 0.207232 0.087494
vt 0.207232 0.087494
vt 0.169406 0.087494
vt 0.169406 0.087494
vt 0.169406 0.087494
vt 0.169406 0.087494
vt 0.231768 0.087494
vt 0.231768 0.087494
vt 0.231768 0.087494
vt 0.231768 0.087494
vt 0.231768 0.087494
vt 0.231768 0.087494
vt 0.231768 0.087494
vt 0.231768 0.087494
vt 0.238126 0.477440
vt 0.238126 0.477440
vt 0.238126 0.477440
vt 0.238126 0.477440
vt 0.238126 0.477440
vt 0.238126 0.477440
vt 0.238126 0.477440
vt 0.238126 0.477440
vt 0.200300 0.477440
vt 0.200300 0.477440
vt 0.200299 0.477440
vt 0.200299 0.477440
vt 0.262661 0.477440
vt 0.262661 0.477440
vt 0.262661 0.477440
vt 0.262661 0.477440
vt 0.262661 0.477440
vt 0.262661 0.477440
vt 0.262662 0.477440
vt 0.262662 0.477440
vt 0.238126 0.477440
vt 0.238126 0.477440
vt 0.238126 0.477440
vt 0.238126 0.477440
vt 0.296398 0.477440
vt 0.296398 0.477440
vt 0.296398 0.477440
vt 0.296398 0.477440
vt 0.238126 0.477440
vt 0.238126 0.477440
vt 0.238126 0.477440
vt 0.238126 0.477440
vt 0.262661 0.477440
vt 0.262661 0.477440
vt 0.262661 0.477440
vt 0.262661 0.477440
vt 0.262661 0.477440
vt 0.262661 0.477440
vt 0.262662 0.477440
vt 0.262662 0.477440
vt 0.296398 0.477440
vt 0.296398 0.477440
vt 0.296398 0.477440
vt 0.296398 0.477440
vt 0.296398 0.477440
vt 0.296398 0.477440
vt 0.296398 0.477440
vt 0.296398 0.477440
vt 0.183193 0.061853
vt 0.183193 0.061853
vt 0.183193 0.061853
vt 0.183193 0.061853
vt 0.241466 0.061853
vt 0.241466 0.061853
vt 0.241466 0.061853
vt 0.241466 0.061853
vt 0.183193 0.061853
vt 0.183193 0.061853
vt 0.183193 0.061853
vt 0.183193 0.061853
vt 0.145367 0.061853
vt 0.145367 0.061853
vt 0.145367 0.061853
vt 0.145367 0.061853
vt 0.207729 0.061853
vt 0.207729 0.061853
vt 0.207729 0.061853
vt 0.207729 0.061853
vt 0.207729 0.061853
vt 0.207729 0.061853
vt 0.207729 0.061853
vt 0.207729 0.061853
vt 0.183193 0.061853
vt 0.183193 0.061853
vt 0.183193 0.061853
vt 0.183193 0.061853
vt 0.241466 0.061853
vt 0.241466 0.061853
vt 0.241466 0.061853
vt 0.241466 0.061853
vt 0.183193 0.061853
vt 0.183193 0.061853
vt 0.183193 0.061853
vt 0.183193 0.061853
vt 0.145367 0.061853
vt 0.145367 0.061853
vt 0.145367 0.061853
vt 0.145367 0.061853
vt 0.207729 0.061853
vt 0.207729 0.061853
vt 0.207729 0.061853
vt 0.207729 0.061853
vt 0.207729 0.061853
vt 0.207729 0.061853
vt 0.207729 0.061853
vt 0.207729 0.061853
vt 0.207232 0.087494
vt 0.207232 0.087494
vt 0.207232 0.087494
vt 0.207232 0.087494
vt 0.265505 0.087494
vt 0.265505 0.087494
vt 0.265505 0.087494
vt 0.265505 0.087494
vt 0.207232 0.087494
vt 0.207232 0.087494
vt 0.207232 0.087494
vt 0.207232 0.087494
vt 0.169406 0.087494
vt 0.169406 0.087494
vt 0.169406 0.087494
vt 0.169406 0.087494
vt 0.231768 0.087494
vt 0.231768 0.087494
vt 0.231768 0.087494
vt 0.231768 0.087494
vt 0.231768 0.087494
vt 0.231768 0.087494
vt 0.231768 0.087494
vt 0.231768 0.087494
vt 0.238126 0.477440
vt 0.238126 0.477440
vt 0.238126 0.477440
vt 0.238126 0.477440
vt 0.238126 0.477440
vt 0.238126 0.477440
vt 0.238126 0.477440
vt 0.238126 0.477440
vt 0.200300 0.477440
vt 0.200299 0.477440
vt 0.200299 0.477440
vt 0.200300 0.477440
vt 0.262661 0.477440
vt 0.262661 0.477440
vt 0.262661 0.477440
vt 0.262661 0.477440
vt 0.262661 0.477440
vt 0.262662 0.477440
vt 0.262662 0.477440
vt 0.262661 0.477440
vt 0.238126 0.477440
vt 0.238126 0.477440
vt 0.238126 0.477440
vt 0.238126 0.477440
vt 0.296398 0.477440
vt 0.296398 0.477440
vt 0.296398 0.477440
vt 0.296398 0.477440
vt 0.238126 0.477440
vt 0.238126 0.477440
vt 0.238126 0.477440
vt 0.238126 0.477440
vt 0.262661 0.477440
vt 0.262661 0.477440
vt 0.262661 0.477440
vt 0.262661 0.477440
vt 0.262661 0.477440
vt 0.262662 0.477440
vt 0.262662 0.477440
vt 0.262661 0.477440
vt 0.296398 0.477440
vt 0.296398 0.477440
vt 0.296398 0.477440
vt 0.296398 0.477440
vt 0.296398 0.477440
vt 0.296398 0.477440
vt 0.296398 0.477440
vt 0.296398 0.477440
vt 0.183193 0.061853
vt 0.183193 0.061853
vt 0.183193 0.061853
vt 0.183193 0.061853
vt 0.241466 0.061853
vt 0.241466 0.061853
vt 0.241466 0.061853
vt 0.241466 0.061853
vt 0.183193 0.061853
vt 0.183193 0.061853
vt 0.183193 0.061853
vt 0.183193 0.061853
vt 0.145367 0.061853
vt 0.145367 0.061853
vt 0.145367 0.061853
vt 0.145367 0.061853
vt 0.207729 0.061853
vt 0.207729 0.061853
vt 0.207729 0.061853
vt 0.207729 0.061853
vt 0.207729 0.061853
vt 0.207729 0.061853
vt 0.207729 0.061853
vt 0.207729 0.061853
vt 0.183193 0.061853
vt 0.183193 0.061853
vt 0.183193 0.061853
vt 0.183193 0.061853
vt 0.241466 0.061853
vt 0.241466 0.061853
vt 0.241466 0.061853
vt 0.241466 0.061853
vt 0.183193 0.061853
vt 0.183193 0.061853
vt 0.183193 0.061853
vt 0.183193 0.061853
vt 0.145367 0.061853
vt 0.145367 0.061853
vt 0.145367 0.061853
vt 0.145367 0.061853
vt 0.207729 0.061853
vt 0.207729 0.061853
vt 0.207729 0.061853
vt 0.207729 0.061853
vt 0.207729 0.061853
vt 0.207729 0.061853
vt 0.207729 0.061853
vt 0.207729 0.061853
vt 0.266972 0.477440
vt 0.266972 0.477440
vt 0.266972 0.477440
vt 0.266972 0.477440
vt 0.325245 0.477440
vt 0.325245 0.477440
vt 0.325245 0.477440
vt 0.325245 0.477440
vt 0.266972 0.477440
vt 0.266972 0.477440
vt 0.266972 0.477440
vt 0.266972 0.477440
vt 0.229146 0.477440
vt 0.229146 0.477440
vt 0.229146 0.477440
vt 0.229146 0.477440
vt 0.360956 0.477440
vt 0.360956 0.477440
vt 0.360956 0.477440
vt 0.360956 0.477440
vt 0.360956 0.477440
vt 0.360956 0.477440
vt 0.360956 0.477440
vt 0.360956 0.477440
vt 0.291508 0.477440
vt 0.291508 0.477440
vt 0.291508 0.477440
vt 0.291508 0.477440
vt 0.291508 0.477440
vt 0.291508 0.477440
vt 0.291508 0.477440
vt 0.291508 0.477440
vt 0.291508 0.477440
vt 0.291508 0.477440
vt 0.291508 0.477440
vt 0.291508 0.477440
vt 0.291508 0.477440
vt 0.291508 0.477440
vt 0.291508 0.477440
vt 0.291508 0.477440
vn -1.000000 0.000000 0.000012
vn -1.000000 0.000000 0.000012
vn -1.000000 0.000000 0.000012
vn -1.000000 0.000000 0.000012
vn 0.000000 1.000000 -0.000001
vn 0.000000 1.000000 -0.000001
vn 0.000000 1.000000 -0.000001
vn 0.000000 1.000000 -0.000001
vn 1.000000 0.000000 0.000000
vn 1.000000 0.000000 0.000000
vn 1.000000 0.000000 0.000000
vn 1.000000 0.000000 0.000000
vn 0.000000 -1.000000 -0.000001
vn 0.000000 -1.000000 -0.000001
vn 0.000000 -1.000000 -0.000001
vn 0.000000 -1.000000 -0.000001
vn 0.000000 0.000000 1.000000
vn 0.000000 0.000000 1.000000
vn 0.000000 0.000000 1.000000
vn 0.000000 0.000000 1.000000
vn -0.000000 0.000000 -1.000000
vn -0.000000 0.000000 -1.000000
vn -0.000000 0.000000 -1.000000
vn -0.000000 0.000000 -1.000000
vn 1.000000 0.000000 0.000000
vn 1.000000 0.000000 0.000000
vn 1.000000 0.000000 0.000000
vn 1.000000 0.000000 0.000000
vn 0.000000 1.000000 0.000000
vn 0.000000 1.000000 0.000000
vn 0.000000 1.000000 0.000000
vn 0.000000 1.000000 0.000000
vn -1.000000 0.000000 0.000000
vn -1.000000 0.000000 0.000000
vn -1.000000 0.000000 0.000000
vn -1.000000 0.000000 0.000000
vn 0.000000 -1.000000 0.000000
vn 0.000000 -1.000000 0.000000
vn 0.000000 -1.000000 0.000000
vn 0.000000 -1.000000 0.000000
vn 0.000000 0.000000 1.000000
vn 0.000000 0.000000 1.000000
vn 0.000000 0.000000 1.000000
vn 0.000000 0.000000 1.000000
vn 0.000000 0.000000 -1.000000
vn 0.000000 0.000000 -1.000000
vn 0.000000 0.000000 -1.000000
vn 0.000000 0.000000 -1.000000
vn 1.000000 0.000000 0.000000
vn 1.000000 0.000000 0.000000
vn 1.000000 0.000000 0.000000
vn 1.000000 0.000000 0.000000
vn -1.000000 0.000000 0.000000
vn -1.000000 0.000000 0.000000
vn -1.000000 0.000000 0.000000
vn -1.000000 0.000000 0.000000
vn 0.000000 -1.000000 0.000000
vn 0.000000 -1.000000 0.000000
vn 0.000000 -1.000000 0.000000
vn 0.000000 -1.000000 0.000000
vn 0.000000 0.000000 1.000000
vn 0.000000 0.000000 1.000000
vn 0.000000 0.000000 1.000000
vn 0.000000 0.000000 1.000000
vn -0.000003 0.000000 -1.000000
vn -0.000003 0.000000 -1.000000
vn -0.000003 0.000000 -1.000000
vn -0.000003 0.000000 -1.000000
vn 1.000000 0.000000 0.000007
vn 1.000000 0.000000 0.000007
vn 1.000000 0.000000 0.000007
vn 1.000000 0.000000 0.000007
vn 0.000000 1.000000 -0.000000
vn 0.000000 1.000000 -0.000000
vn 0.000000 1.000000 -0.000000
vn 0.000000 1.000000 -0.000000
vn -1.000000 0.000000 0.000000
vn -1.000000 0.000000 0.000000
vn -1.000000 0.000000 0.000000
vn -1.000000 0.000000 0.000000
vn 0.000000 0.000000 1.000000
vn 0.000000 0.000000 1.000000
vn 0.000000 0.000000 1.000000
vn 0.000000 0.000000 1.000000
vn 0.000000 0.000000 -1.000000
vn 0.000000 0.000000 -1.000000
vn 0.000000 0.000000 -1.000000
vn 0.000000 0.000000 -1.000000
vn 0.000000 1.000000 0.000000
vn 0.000000 1.000000 0.000000
vn 0.000000 1.000000 0.000000
vn 0.000000 1.000000 0.000000
vn 0.000000 1.000000 0.000000
vn 0.000000 1.000000 0.000000
vn 0.000000 1.000000 0.000000
vn 0.000000 1.000000 0.000000
vn 0.000000 1.000000 0.000000
vn 0.000000 1.000000 0.000000
vn 0.000000 1.000000 0.000000
vn 0.000000 1.000000 0.000000
vn 0.000000 1.000000 -0.000000
vn 0.000000 1.000000 -0.000000
vn 0.000000 1.000000 -0.000000
vn 0.000000 1.000000 -0.000000
vn 1.000000 0.000000 0.000000
vn 1.000000 0.000000 0.000000
vn 1.000000 0.000000 0.000000
vn 1.000000 0.000000 0.000000
vn 0.000000 1.000000 0.000000
vn 0.000000 1.000000 0.000000
vn 0.000000 1.000000 0.000000
vn 0.000000 1.000000 0.000000
vn -1.000000 0.000000 0.000000
vn -1.000000 0.000000 0.000000
vn -1.000000 0.000000 0.000000
vn -1.000000 0.000000 0.000000
vn 0.000000 -1.000000 0.000000
vn 0.000000 -1.000000 0.000000
vn 0.000000 -1.000000 0.000000
vn 0.000000 -1.000000 0.000000
vn 0.000000 0.000000 1.000000
vn 0.000000 0.000000 1.000000
vn 0.000000 0.000000 1.000000
vn 0.000000 0.000000 1.000000
vn 0.000000 0.000000 -1.000000
vn 0.000000 0.000000 -1.000000
vn 0.000000 0.000000 -1.000000
vn 0.000000 0.000000 -1.000000
vn 1.000000 0.000000 -0.000004
vn 1.000000 0.000000 -0.000004
vn 1.000000 0.000000 -0.000004
vn 1.000000 0.000000 -0.000004
vn 0.000000 1.000000 -0.000000
vn 0.000000 1.000000 -0.000000
vn 0.000000 1.000000 -0.000000
vn 0.000000 1.000000 -0.000000
vn -1.000000 0.000000 0.000000
vn -1.000000 0.000000 0.000000
vn -1.000000 0.000000 0.000000
vn -1.000000 0.000000 0.000000
vn 0.000000 -1.000000 0.000000
vn 0.000000 -1.000000 0.000000
vn 0.000000 -1.000000 0.000000
vn 0.000000 -1.000000 0.000000
vn -0.000003 0.000000 1.000000
vn -0.000003 0.000000 1.000000
vn -0.000003 0.000000 1.000000
vn -0.000003 0.000000 1.000000
vn -0.000003 0.000000 -1.000000
vn -0.000003 0.000000 -1.000000
vn -0.000003 0.000000 -1.000000
vn -0.000003 0.000000 -1.000000
vn -1.000000 0.000000 0.000000
vn -1.000000 0.000000 0.000000
vn -1.000000 0.000000 0.000000
vn -1.000000 0.000000 0.000000
vn 0.000000 1.000000 0.000000
vn 0.000000 1.000000 0.000000
vn 0.000000 1.000000 0.000000
vn 0.000000 1.000000 0.000000
vn 1.000000 0.000000 0.000000
vn 1.000000 0.000000 0.000000
vn 1.000000 0.000000 0.000000
vn 1.000000 0.000000 0.000000
vn 0.000000 -1.000000 0.000000
vn 0.000000 -1.000000 0.000000
vn 0.000000 -1.000000 0.000000
vn 0.000000 -1.000000 0.000000
vn 0.000000 0.000000 1.000000
vn 0.000000 0.000000 1.000000
vn 0.000000 0.000000 1.000000
vn 0.000000 0.000000 1.000000
vn 0.000000 0.000000 -1.000000
vn 0.000000 0.000000 -1.000000
vn 0.000000 0.000000 -1.000000
vn 0.000000 0.000000 -1.000000
vn -1.000000 0.000000 0.000000
vn -1.000000 0.000000 0.000000
vn -1.000000 0.000000 0.000000
vn -1.000000 0.000000 0.000000
vn 1.000000 0.000000 0.000000
vn 1.000000 0.000000 0.000000
vn 1.000000 0.000000 0.000000
vn 1.000000 0.000000 0.000000
vn 0.000000 -1.000000 0.000000
vn 0.000000 -1.000000 0.000000
vn 0.000000 -1.000000 0.000000
vn 0.000000 -1.000000 0.000000
vn 0.000000 0.000000 1.000000
vn 0.000000 0.000000 1.000000
vn 0.000000 0.000000 1.000000
vn 0.000000 0.000000 1.000000
vn 0.000000 0.000000 -1.000000
vn 0.000000 0.000000 -1.000000
vn 0.000000 0.000000 -1.000000
vn 0.000000 0.000000 -1.000000
vn -1.000000 0.000000 0.000000
vn -1.000000 0.000000 0.000000
vn -1.000000 0.000000 0.000000
vn -1.000000 0.000000 0.000000
vn 0.000000 1.000000 0.000000
vn 0.000000 1.000000 0.000000
vn 0.000000 1.000000 0.000000
vn 0.000000 1.000000 0.000000
vn 1.000000 0.000000 0.000000
vn 1.000000 0.000000 0.000000
vn 1.000000 0.000000 0.000000
vn 1.000000 0.000000 0.000000
vn 0.000000 0.000000 1.000000
vn 0.000000 0.000000 1.000000
vn 0.000000 0.000000 1.000000
vn 0.000000 0.000000 1.000000
vn 0.000000 0.000000 -1.000000
vn 0.000000 0.000000 -1.000000
vn 0.000000 0.000000 -1.000000
vn 0.000000 0.000000 -1.000000
vn 0.000000 1.000000 0.000000
vn 0.000000 1.000000 0.000000
vn 0.000000 1.000000 0.000000
vn 0.000000 1.000000 0.000000
vn 0.000000 1.000000 0.000000
vn 0.000000 1.000000 0.000000
vn 0.000000 1.000000 0.000000
vn 0.000000 1.000000 0.000000
vn 0.000000 1.000000 0.000000
vn 0.000000 1.000000 0.000000
vn 0.000000 1.000000 0.000000
vn 0.000000 1.000000 0.000000
vn 0.000000 1.000000 -0.000000
vn 0.000000 1.000000 -0.000000
vn 0.000000 1.000000 -0.000000
vn 0.000000 1.000000 -0.000000
vn -1.000000 0.000000 0.000000
vn -1.000000 0.000000 0.000000
vn -1.000000 0.000000 0.000000
vn -1.000000 0.000000 0.000000
vn 0.000000 1.000000 0.000000
vn 0.000000 1.000000 0.000000
vn 0.000000 1.000000 0.000000
vn 0.000000 1.000000 0.000000
vn 1.000000 0.000000 0.000000
vn 1.000000 0.000000 0.000000
vn 1.000000 0.000000 0.000000
vn 1.000000 0.000000 0.000000
vn 0.000000 -1.000000 0.000000
vn 0.000000 -1.000000 0.000000
vn 0.000000 -1.000000 0.000000
vn 0.000000 -1.000000 0.000000
vn 0.000000 0.000000 1.000000
vn 0.000000 0.000000 1.000000
vn 0.000000 0.000000 1.000000
vn 0.000000 0.000000 1.000000
vn 0.000000 0.000000 -1.000000
vn 0.000000 0.000000 -1.000000
vn 0.000000 0.000000 -1.000000
vn 0.000000 0.000000 -1.000000
vn -1.000000 0.000000 0.000000
vn -1.000000 0.000000 0.000000
vn -1.000000 0.000000 0.000000
vn -1.000000 0.000000 0.000000
vn 0.000000 1.000000 0.000000
vn 0.000000 1.000000 0.000000
vn 0.000000 1.000000 0.000000
vn 0.000000 1.000000 0.000000
vn 1.000000 0.000000 0.000000
vn 1.000000 0.000000 0.000000
vn 1.000000 0.000000 0.000000
vn 1.000000 0.000000 0.000000
vn 0.000000 -1.000000 0.000000
vn 0.000000 -1.000000 0.000000
vn 0.000000 -1.000000 0.000000
vn 0.000000 -1.000000 0.000000
vn 0.000000 0.000000 1.000000
vn 0.000000 0.000000 1.000000
vn 0.000000 0.000000 1.000000
vn 0.000000 0.000000 1.000000
vn 0.000000 0.000000 -1.000000
vn 0.000000 0.000000 -1.000000
vn 0.000000 0.000000 -1.000000
vn 0.000000 0.000000 -1.000000
vn -1.000000 0.000000 -0.000013
vn -1.000000 0.000000 -0.000013
vn -1.000000 0.000000 -0.000013
vn -1.000000 0.000000 -0.000013
vn 0.000000 1.000000 0.000000
vn 0.000000 1.000000 0.000000
vn 0.000000 1.000000 0.000000
vn 0.000000 1.000000 0.000000
vn 1.000000 0.000000 0.000013
vn 1.000000 0.000000 0.000013
vn 1.000000 0.000000 0.000013
vn 1.000000 0.000000 0.000013
vn -0.000000 -1.000000 -0.000002
vn -0.000000 -1.000000 -0.000002
vn -0.000000 -1.000000 -0.000002
vn -0.000000 -1.000000 -0.000002
vn 0.000000 0.000000 1.000000
vn 0.000000 0.000000 1.000000
vn 0.000000 0.000000 1.000000
vn 0.000000 0.000000 1.000000
vn -0.000000 0.000000 -1.000000
vn -0.000000 0.000000 -1.000000
vn -0.000000 0.000000 -1.000000
vn -0.000000 0.000000 -1.000000
vn 0.000000 0.000000 1.000000
vn 0.000000 0.000000 1.000000
vn 0.000000 0.000000 1.000000
vn 0.000000 0.000000 1.000000
vn 0.000000 0.000000 1.000000
vn 0.000000 0.000000 1.000000
vn 0.000000 0.000000 1.000000
vn 0.000000 0.000000 1.000000
vn 0.000000 0.000000 1.000000
vn 0.000000 0.000000 1.000000
vn 0.000000 0.000000 1.000000
vn 0.000000 0.000000 1.000000
vn -0.000000 0.000000 1.000000
vn -0.000000 0.000000 1.000000
vn -0.000000 0.000000 1.000000
vn -0.000000 0.000000 1.000000
vn -0.000000 0.000006 -1.000000
vn -0.000000 0.000006 -1.000000
vn -0.000000 0.000006 -1.000000
vn -0.000000 0.000006 -1.000000
vn 0.000007 0.000000 -1.000000
vn 0.000007 0.000000 -1.000000
vn 0.000007 0.000000 -1.000000
vn 0.000007 0.000000 -1.000000
vn -0.000000 -0.000006 -1.000000
vn -0.000000 -0.000006 -1.000000
vn -0.000000 -0.000006 -1.000000
vn -0.000000 -0.000006 -1.000000
vn -0.000004 0.000000 -1.000000
vn -0.000004 0.000000 -1.000000
vn -0.000004 0.000000 -1.000000
vn -0.000004 0.000000 -1.000000
s off
f 1/23/1 2/2/2 4/22/3 3/17/4
f 3/3/5 4/15/6 6/6/7 5/18/8
f 5/5/9 6/16/10 8/8/11 7/20/12
f 7/7/13 8/19/14 2/10/15 1/9/16
f 2/21/17 8/11/18 6/12/19 4/4/20
f 7/13/21 1/1/22 3/24/23 5/14/24
f 9/25/25 11/26/26 12/27/27 10/28/28
f 11/29/29 13/30/30 14/31/31 12/32/32
f 13/33/33 15/34/34 16/35/35 14/36/36
f 15/37/37 9/38/38 10/39/39 16/40/40
f 10/41/41 12/42/42 14/43/43 16/44/44
f 15/45/45 13/46/46 11/47/47 9/48/48
f 17/49/49 19/50/50 20/51/51 18/52/52
f 21/53/53 23/54/54 24/55/55 22/56/56
f 23/57/57 17/58/58 18/59/59 24/60/60
f 18/61/61 20/62/62 22/63/63 24/64/64
f 23/65/65 21/66/66 19/67/67 17/68/68
f 25/69/69 27/70/70 28/71/71 26/72/72
f 27/73/73 29/74/74 30/75/75 28/76/76
f 29/77/77 31/78/78 32/79/79 30/80/80
f 26/81/81 28/82/82 30/83/83 32/84/84
f 31/85/85 29/86/86 27/87/87 25/88/88
f 19/89/89 25/90/90 26/91/91 20/92/92
f 20/92/93 26/91/94 32/93/95 22/94/96
f 22/94/97 32/93/98 31/95/99 21/96/100
f 21/96/101 31/95/102 25/90/103 19/89/104
f 33/97/105 35/98/106 36/99/107 34/100/108
f 35/101/109 37/102/110 38/103/111 36/104/112
f 37/105/113 39/106/114 40/107/115 38/108/116
f 39/109/117 33/110/118 34/111/119 40/112/120
f 34/113/121 36/114/122 38/115/123 40/116/124
f 39/117/125 37/118/126 35/119/127 33/120/128
f 41/121/129 43/122/130 44/123/131 42/124/132
f 43/125/133 45/126/134 46/127/135 44/128/136
f 45/129/137 47/130/138 48/131/139 46/132/140
f 47/133/141 41/134/142 42/135/143 48/136/144
f 42/137/145 44/138/146 46/139/147 48/140/148
f 47/141/149 45/142/150 43/143/151 41/144/152
f 49/145/153 50/146/154 52/147/155 51/148/156
f 51/149/157 52/150/158 54/151/159 53/152/160
f 53/153/161 54/154/162 56/155/163 55/156/164
f 55/157/165 56/158/166 50/159/167 49/160/168
f 50/161/169 56/162/170 54/163/171 52/164/172
f 55/165/173 49/166/174 51/167/175 53/168/176
f 57/169/177 58/170/178 60/171/179 59/172/180
f 61/173/181 62/174/182 64/175/183 63/176/184
f 63/177/185 64/178/186 58/179/187 57/180/188
f 58/181/189 64/182/190 62/183/191 60/184/192
f 63/185/193 57/186/194 59/187/195 61/188/196
f 65/189/197 66/190/198 68/191/199 67/192/200
f 67/193/201 68/194/202 70/195/203 69/196/204
f 69/197/205 70/198/206 72/199/207 71/200/208
f 66/201/209 72/202/210 70/203/211 68/204/212
f 71/205/213 65/206/214 67/207/215 69/208/216
f 59/209/217 60/210/218 66/211/219 65/212/220
f 60/210/221 62/213/222 72/214/223 66/211/224
f 62/213/225 61/215/226 71/216/227 72/214/228
f 61/215/229 59/209/230 65/212/231 71/216/232
f 73/217/233 74/218/234 76/219/235 75/220/236
f 75/221/237 76/222/238 78/223/239 77/224/240
f 77/225/241 78/226/242 80/227/243 79/228/244
f 79/229/245 80/230/246 74/231/247 73/232/248
f 74/233/249 80/234/250 78/235/251 76/236/252
f 79/237/253 73/238/254 75/239/255 77/240/256
f 81/241/257 82/242/258 84/243/259 83/244/260
f 83/245/261 84/246/262 86/247/263 85/248/264
f 85/249/265 86/250/266 88/251/267 87/252/268
f 87/253/269 88/254/270 82/255/271 81/256/272
f 82/257/273 88/258/274 86/259/275 84/260/276
f 87/261/277 81/262/278 83/263/279 85/264/280
f 89/265/281 90/266/282 92/267/283 91/268/284
f 91/269/285 92/270/286 94/271/287 93/272/288
f 93/273/289 94/274/290 96/275/291 95/276/292
f 95/277/293 96/278/294 90/279/295 89/280/296
f 98/281/297 97/282/298 99/283/299 100/284/300
f 101/285/301 102/286/302 103/287/303 104/288/304
f 90/289/305 96/290/306 97/291/307 98/292/308
f 96/290/309 94/293/310 99/294/311 97/291/312
f 94/293/313 92/295/314 100/296/315 99/294/316
f 92/295/317 90/289/318 98/292/319 100/296/320
f 95/297/321 89/298/322 102/299/323 101/300/324
f 89/298/325 91/301/326 103/302/327 102/299/328
f 91/301/329 93/303/330 104/304/331 103/302/332
f 93/303/333 95/297/334 101/300/335 104/304/336
